<svg id="Layer_1" data-name="Layer 1" xmlns="http://www.w3.org/2000/svg" viewBox="0 0 595.28 163.96"><rect x="255.42" y="43.99" width="260.59" height="20.39" fill="#c2384a"/><rect x="254.63" y="115.84" width="328.77" height="20.39" fill="#c2384a"/><rect x="255.42" y="71.71" width="327.99" height="20.39" fill="#730526"/><rect x="254.63" y="143.57" width="139.53" height="20.39" fill="#730526"/><g style="isolation:isolate"><g style="isolation:isolate"><path d="M360.82,50.46H358c0,.64-.08,1.3-.14,1.89a2.5,2.5,0,0,1,1-.21,2.39,2.39,0,0,1,2.37,2.45,2.66,2.66,0,0,1-2.75,2.73,2.93,2.93,0,0,1-2.64-1.47l1.21-.64a1.42,1.42,0,0,0,1.35.86,1.32,1.32,0,0,0,1.34-1.4,1.25,1.25,0,0,0-1.33-1.28,1.37,1.37,0,0,0-1.11.49l-1-.63c.11-1.17.22-2.94.27-4h4.25Z" fill="#fff"/></g><g style="isolation:isolate"><path d="M365.42,57.18v-2H362V53.86c1-1.31,2.36-3.17,3.44-4.65h1.46V54H368v1.24h-1.15v2Zm0-3.21V51.16c-.57.88-1.45,2.18-1.9,2.81Z" fill="#fff"/><path d="M369.71,58.73h-1.38l.65-3.18h1.57Z" fill="#fff"/></g><g style="isolation:isolate"><path d="M376.63,50.18c-1,2-2.43,5.26-3.29,7.34L372,56.91c1.06-2.52,2.35-5,3-6.43h-3.65V49.21h5.27Z" fill="#fff"/></g><g style="isolation:isolate"><path d="M383.05,53.2c0,2.55-1.05,4.12-2.92,4.12s-2.9-1.57-2.9-4.12,1-4.14,2.9-4.14S383.05,50.63,383.05,53.2Zm-4.33,0c0,1.91.52,2.85,1.41,2.85s1.43-.94,1.43-2.85-.51-2.86-1.43-2.86S378.72,51.28,378.72,53.2Z" fill="#fff"/></g><g style="isolation:isolate"><path d="M387.34,57.18v-2h-3.46V53.86c1-1.31,2.36-3.17,3.44-4.65h1.46V54h1.15v1.24h-1.15v2Zm0-3.21V51.16c-.57.88-1.45,2.18-1.9,2.81Z" fill="#fff"/></g><g style="isolation:isolate"><path d="M390.87,57.18V55.55h1.59v1.63Z" fill="#fff"/></g><g style="isolation:isolate"><path d="M394.51,57.18V50.92c-.36.18-.84.36-1.16.5V50.09c.5-.25,1.11-.57,1.66-.88h1v8Z" fill="#fff"/><path d="M403.24,53.2c0,2.55-1,4.12-2.91,4.12s-2.9-1.57-2.9-4.12,1-4.14,2.9-4.14S403.24,50.63,403.24,53.2Zm-4.33,0c0,1.91.52,2.85,1.42,2.85s1.43-.94,1.43-2.85-.52-2.86-1.43-2.86S398.91,51.28,398.91,53.2Z" fill="#fff"/><path d="M411.82,53.7V52.43h3.57v3.23a4.4,4.4,0,0,1-3.58,1.66A4.25,4.25,0,0,1,407.33,53a4.36,4.36,0,0,1,4.48-4.34,4.44,4.44,0,0,1,3.42,1.58l-1,.89A3.2,3.2,0,0,0,411.81,50a2.9,2.9,0,0,0-2.91,3,2.82,2.82,0,0,0,2.91,3,3.05,3.05,0,0,0,2.09-.82V53.7Z" fill="#fff"/><path d="M419.39,55a2.63,2.63,0,0,1-.47,1.72,2,2,0,0,1-1.64.61,3.38,3.38,0,0,1-1.42-.33l.43-1.18a1.66,1.66,0,0,0,.81.21.71.71,0,0,0,.65-.27,1.74,1.74,0,0,0,.15-.94v-6h1.49Z" fill="#fff"/></g></g><g style="isolation:isolate"><g style="isolation:isolate"><path d="M374,122c-1,2-2.43,5.26-3.29,7.34l-1.33-.61c1.06-2.52,2.35-5.05,3-6.43h-3.65v-1.27H374Z" fill="#fff"/></g><g style="isolation:isolate"><path d="M376.17,129v-6.26c-.36.18-.84.36-1.16.5V122c.5-.25,1.11-.57,1.66-.88h1v8Z" fill="#fff"/><path d="M380.15,128.33a4.79,4.79,0,0,0,2.92-2.72,2.22,2.22,0,0,1-1.54.58,2.44,2.44,0,0,1-2.44-2.55,2.63,2.63,0,0,1,2.67-2.72,3,3,0,0,1,3,3.24c0,2.58-1.87,4.46-4.1,5.36Zm1.7-6.16a1.3,1.3,0,0,0-1.28,1.41,1.27,1.27,0,0,0,1.3,1.38,1.7,1.7,0,0,0,1.45-.82C383.32,123.12,382.93,122.17,381.85,122.17Z" fill="#fff"/><path d="M386.67,130.59h-1.38l.65-3.18h1.57Z" fill="#fff"/><path d="M394.36,126.81a2.81,2.81,0,0,1-5.55,0,2.12,2.12,0,0,1,1.2-2,1.85,1.85,0,0,1-1-1.71,2.56,2.56,0,0,1,5.07,0,1.85,1.85,0,0,1-1,1.71A2.13,2.13,0,0,1,394.36,126.81Zm-4.08-.08a1.31,1.31,0,0,0,2.61,0,1.31,1.31,0,0,0-2.61,0Zm.21-3.52a1.1,1.1,0,0,0,2.19,0,1.1,1.1,0,0,0-2.19,0Z" fill="#fff"/></g><g style="isolation:isolate"><path d="M400.34,122.32h-2.88c0,.64-.07,1.3-.13,1.89a2.5,2.5,0,0,1,1-.21,2.39,2.39,0,0,1,2.37,2.45,2.66,2.66,0,0,1-2.75,2.73,2.93,2.93,0,0,1-2.64-1.47l1.21-.64a1.42,1.42,0,0,0,1.35.86,1.32,1.32,0,0,0,1.34-1.4,1.25,1.25,0,0,0-1.33-1.28,1.34,1.34,0,0,0-1.1.49l-1-.63c.11-1.17.22-2.94.26-4h4.26Z" fill="#fff"/></g><g style="isolation:isolate"><path d="M404.92,129v-2h-3.46v-1.35c1-1.31,2.36-3.17,3.44-4.65h1.46v4.76h1.15v1.24h-1.15v2Zm0-3.21V123c-.57.88-1.45,2.18-1.9,2.81Z" fill="#fff"/><path d="M409.21,130.59h-1.38l.65-3.18h1.57Z" fill="#fff"/></g><g style="isolation:isolate"><path d="M416.9,126.81a2.81,2.81,0,0,1-5.55,0,2.13,2.13,0,0,1,1.2-2,1.85,1.85,0,0,1-1-1.71,2.56,2.56,0,0,1,5.07,0,1.84,1.84,0,0,1-1,1.71A2.12,2.12,0,0,1,416.9,126.81Zm-4.08-.08a1.31,1.31,0,0,0,2.61,0,1.31,1.31,0,0,0-2.61,0Zm.21-3.52a1.1,1.1,0,0,0,2.19,0,1.1,1.1,0,0,0-2.19,0Z" fill="#fff"/></g><g style="isolation:isolate"><path d="M419.14,129v-6.26c-.36.18-.84.36-1.16.5V122c.5-.25,1.11-.57,1.67-.88h1v8Z" fill="#fff"/><path d="M427.87,125.06c0,2.55-1,4.12-2.91,4.12s-2.9-1.57-2.9-4.12,1-4.14,2.9-4.14S427.87,122.49,427.87,125.06Zm-4.33,0c0,1.91.52,2.85,1.42,2.85s1.43-.94,1.43-2.85-.52-2.86-1.43-2.86S423.54,123.14,423.54,125.06Z" fill="#fff"/><path d="M429,129v-1.63h1.59V129Z" fill="#fff"/></g><g style="isolation:isolate"><path d="M436.7,122c-1,2-2.43,5.26-3.29,7.34l-1.33-.61c1.07-2.52,2.35-5.05,3-6.43h-3.65v-1.27h5.27Z" fill="#fff"/></g><g style="isolation:isolate"><path d="M442.73,122c-1,2-2.43,5.26-3.29,7.34l-1.33-.61c1.06-2.52,2.35-5.05,3-6.43h-3.65v-1.27h5.27Z" fill="#fff"/><path d="M450.61,129l-1.56-2.48-.76.87V129h-1.45v-9h1.45v5.55h0l2.19-2.75h1.69L450,125.42l2.36,3.62Z" fill="#fff"/><path d="M460.16,126.41h0l1.57-5.76h1.62L461,129H459.5l-1.58-5.88h0L456.21,129h-1.42l-2.33-8.39h1.64l1.5,5.76h0l1.6-5.76h1.39Z" fill="#fff"/><path d="M465.79,123.7a2.33,2.33,0,0,1,1.91-1,2.07,2.07,0,0,1,1.7.79,3.75,3.75,0,0,1,.55,2.32V129H468.5v-3.11a3,3,0,0,0-.24-1.47,1,1,0,0,0-.94-.47,1.9,1.9,0,0,0-1.53,1V129h-1.45v-9h1.45Z" fill="#fff"/></g></g><g style="isolation:isolate"><g style="isolation:isolate"><path d="M391.44,77.91c-1,2-2.43,5.26-3.29,7.34l-1.33-.61c1.07-2.52,2.35-5,3-6.43h-3.65V76.94h5.27Z" fill="#fff"/><path d="M397.81,82.68a2.82,2.82,0,0,1-5.56,0,2.14,2.14,0,0,1,1.2-2,1.85,1.85,0,0,1-1-1.71,2.56,2.56,0,0,1,5.08,0,1.85,1.85,0,0,1-1,1.71A2.14,2.14,0,0,1,397.81,82.68Zm-4.08-.08a1.3,1.3,0,0,0,2.6,0,1.3,1.3,0,0,0-2.6,0Zm.2-3.52a1.1,1.1,0,0,0,2.2,0,1.1,1.1,0,0,0-2.2,0Z" fill="#fff"/><path d="M399.87,86.46h-1.38l.65-3.18h1.57Z" fill="#fff"/></g><g style="isolation:isolate"><path d="M402.91,84.2a4.77,4.77,0,0,0,2.91-2.72,2.2,2.2,0,0,1-1.53.58,2.45,2.45,0,0,1-2.45-2.55,2.63,2.63,0,0,1,2.68-2.72,3,3,0,0,1,3,3.24c0,2.58-1.87,4.46-4.1,5.36ZM404.6,78a1.3,1.3,0,0,0-1.27,1.41,1.27,1.27,0,0,0,1.29,1.38,1.72,1.72,0,0,0,1.46-.82C406.08,79,405.68,78,404.6,78Z" fill="#fff"/></g><g style="isolation:isolate"><path d="M413.45,78.19h-2.88c0,.64-.07,1.3-.13,1.89a2.5,2.5,0,0,1,1-.21,2.39,2.39,0,0,1,2.37,2.45,2.66,2.66,0,0,1-2.75,2.73,2.93,2.93,0,0,1-2.64-1.47l1.21-.64a1.42,1.42,0,0,0,1.35.86,1.32,1.32,0,0,0,1.34-1.4A1.25,1.25,0,0,0,411,81.12a1.37,1.37,0,0,0-1.11.49l-1-.63c.11-1.17.22-2.94.27-4h4.25Z" fill="#fff"/><path d="M420.09,84.91h-5.23V83.75a33.33,33.33,0,0,0,2.75-3.25,3,3,0,0,0,.64-1.51,1,1,0,0,0-1.06-.94,1.07,1.07,0,0,0-1.06,1.16L414.68,79a2.47,2.47,0,0,1,2.55-2.17A2.32,2.32,0,0,1,419.74,79a4,4,0,0,1-.84,2.22,23.63,23.63,0,0,1-2.09,2.48h3.28Z" fill="#fff"/><path d="M421.1,84.91V83.28h1.59v1.63Z" fill="#fff"/></g><g style="isolation:isolate"><path d="M429.66,80.93c0,2.55-1.05,4.12-2.92,4.12s-2.9-1.57-2.9-4.12,1.05-4.14,2.9-4.14S429.66,78.36,429.66,80.93Zm-4.33,0c0,1.91.51,2.85,1.41,2.85s1.43-.94,1.43-2.85-.51-2.86-1.43-2.86S425.33,79,425.33,80.93Z" fill="#fff"/></g><g style="isolation:isolate"><path d="M435.43,77.91c-1,2-2.43,5.26-3.29,7.34l-1.33-.61c1.06-2.52,2.35-5,3-6.43h-3.65V76.94h5.27Z" fill="#fff"/><path d="M443.79,81.43V80.16h3.56v3.23a4.39,4.39,0,0,1-3.57,1.66,4.25,4.25,0,0,1-4.49-4.34,4.36,4.36,0,0,1,4.49-4.34A4.47,4.47,0,0,1,447.2,78l-1.05.89a3.18,3.18,0,0,0-2.37-1.16,2.91,2.91,0,0,0-2.92,3,2.82,2.82,0,0,0,2.92,3,3,3,0,0,0,2.08-.82v-1.5Z" fill="#fff"/><path d="M451.35,82.72a2.57,2.57,0,0,1-.47,1.72,2,2,0,0,1-1.64.61,3.41,3.41,0,0,1-1.42-.33l.44-1.18a1.59,1.59,0,0,0,.8.21.74.74,0,0,0,.66-.27,1.86,1.86,0,0,0,.14-.94v-6h1.49Z" fill="#fff"/></g></g><g style="isolation:isolate"><g style="isolation:isolate"><path d="M278.58,156.77h-5.23v-1.16a32,32,0,0,0,2.75-3.25,3.06,3.06,0,0,0,.65-1.51,1,1,0,0,0-1.07-.94,1.07,1.07,0,0,0-1.06,1.16l-1.45-.25a2.47,2.47,0,0,1,2.56-2.17,2.31,2.31,0,0,1,2.5,2.17,4,4,0,0,1-.84,2.22,23.54,23.54,0,0,1-2.08,2.48h3.27Z" fill="#fff"/></g><g style="isolation:isolate"><path d="M281.08,152.06a4.54,4.54,0,0,0,1-.1,1.12,1.12,0,0,0,.93-1.05,1,1,0,0,0-1.14-1,1.1,1.1,0,0,0-1.11.84l-1.23-.54a2.38,2.38,0,0,1,2.35-1.56,2.32,2.32,0,0,1,2.6,2.14,2,2,0,0,1-1,1.7,2.08,2.08,0,0,1,1.36,2,2.53,2.53,0,0,1-2.78,2.45,2.86,2.86,0,0,1-2.65-1.53l1.2-.6a1.51,1.51,0,0,0,1.42.88,1.19,1.19,0,0,0,1.32-1.16c0-.76-.68-1.22-1.55-1.22a3.81,3.81,0,0,0-.76.07Z" fill="#fff"/><path d="M287.18,156.77v-6.26c-.36.18-.84.36-1.16.5v-1.33c.5-.25,1.11-.57,1.66-.88h1v8Z" fill="#fff"/></g><g style="isolation:isolate"><path d="M291.12,158.32h-1.38l.65-3.18H292Z" fill="#fff"/></g><g style="isolation:isolate"><path d="M294,156.77v-6.26c-.36.18-.84.36-1.16.5v-1.33c.5-.25,1.11-.57,1.66-.88h1v8Z" fill="#fff"/></g><g style="isolation:isolate"><path d="M301.86,150.05H299c0,.64-.08,1.3-.14,1.89a2.5,2.5,0,0,1,1-.21,2.39,2.39,0,0,1,2.37,2.45,2.66,2.66,0,0,1-2.75,2.73,2.93,2.93,0,0,1-2.64-1.47l1.21-.64a1.42,1.42,0,0,0,1.35.86,1.32,1.32,0,0,0,1.34-1.4,1.25,1.25,0,0,0-1.33-1.28,1.37,1.37,0,0,0-1.11.49l-1-.63c.11-1.17.22-2.94.27-4h4.25Z" fill="#fff"/></g><g style="isolation:isolate"><path d="M304.72,152.06a4.54,4.54,0,0,0,1-.1,1.12,1.12,0,0,0,.93-1.05,1,1,0,0,0-1.14-1,1.1,1.1,0,0,0-1.11.84l-1.23-.54a2.38,2.38,0,0,1,2.35-1.56,2.32,2.32,0,0,1,2.6,2.14,2,2,0,0,1-1,1.7,2.08,2.08,0,0,1,1.37,2,2.54,2.54,0,0,1-2.79,2.45,2.86,2.86,0,0,1-2.65-1.53l1.2-.6a1.51,1.51,0,0,0,1.42.88A1.19,1.19,0,0,0,307,154.5c0-.76-.68-1.22-1.55-1.22a3.81,3.81,0,0,0-.76.07Z" fill="#fff"/><path d="M310.53,158.32h-1.38l.65-3.18h1.57Z" fill="#fff"/></g><g style="isolation:isolate"><path d="M318.31,152.79c0,2.55-1,4.12-2.92,4.12s-2.9-1.57-2.9-4.12,1-4.14,2.9-4.14S318.31,150.22,318.31,152.79Zm-4.33,0c0,1.91.51,2.85,1.41,2.85s1.43-.94,1.43-2.85-.51-2.86-1.43-2.86S314,150.87,314,152.79Z" fill="#fff"/></g><g style="isolation:isolate"><path d="M322.6,156.77v-2h-3.46v-1.35c1-1.31,2.36-3.17,3.44-4.65H324v4.76h1.15v1.24H324v2Zm0-3.21v-2.81c-.57.88-1.45,2.18-1.9,2.81Z" fill="#fff"/><path d="M327.43,152.06a4.6,4.6,0,0,0,1-.1,1.11,1.11,0,0,0,.92-1.05,1,1,0,0,0-1.14-1,1.08,1.08,0,0,0-1.1.84l-1.24-.54a2.39,2.39,0,0,1,2.35-1.56,2.32,2.32,0,0,1,2.6,2.14,2,2,0,0,1-1,1.7,2.07,2.07,0,0,1,1.37,2,2.53,2.53,0,0,1-2.78,2.45,2.86,2.86,0,0,1-2.65-1.53l1.19-.6a1.52,1.52,0,0,0,1.42.88,1.19,1.19,0,0,0,1.32-1.16c0-.76-.67-1.22-1.55-1.22a3.66,3.66,0,0,0-.75.07Z" fill="#fff"/><path d="M332.47,156.77v-1.63h1.59v1.63Z" fill="#fff"/></g><g style="isolation:isolate"><path d="M336.77,152.06a4.54,4.54,0,0,0,1-.1,1.12,1.12,0,0,0,.93-1.05,1,1,0,0,0-1.14-1,1.1,1.1,0,0,0-1.11.84l-1.23-.54a2.38,2.38,0,0,1,2.35-1.56,2.32,2.32,0,0,1,2.6,2.14,2,2,0,0,1-1,1.7,2.08,2.08,0,0,1,1.36,2,2.53,2.53,0,0,1-2.78,2.45,2.86,2.86,0,0,1-2.65-1.53l1.2-.6a1.51,1.51,0,0,0,1.42.88,1.19,1.19,0,0,0,1.32-1.16c0-.76-.68-1.22-1.55-1.22a3.81,3.81,0,0,0-.76.07Z" fill="#fff"/></g><g style="isolation:isolate"><path d="M346.29,149.5a4.77,4.77,0,0,0-2.91,2.72,2.19,2.19,0,0,1,1.53-.57,2.44,2.44,0,0,1,2.45,2.54,2.63,2.63,0,0,1-2.68,2.72,3,3,0,0,1-3-3.23,6,6,0,0,1,4.1-5.36Zm-1.69,6.17a1.3,1.3,0,0,0,1.27-1.42,1.27,1.27,0,0,0-1.29-1.38,1.7,1.7,0,0,0-1.46.83C343.12,154.72,343.52,155.67,344.6,155.67Z" fill="#fff"/><path d="M355.45,156.77l-1.56-2.48-.76.87v1.61h-1.45v-9h1.45v5.55h0l2.19-2.75H357l-2.18,2.56,2.36,3.62Z" fill="#fff"/><path d="M365,154.14h0l1.57-5.76h1.62l-2.4,8.39h-1.47l-1.59-5.88h0l-1.68,5.88h-1.43l-2.32-8.39h1.64l1.5,5.76h0l1.61-5.76h1.39Z" fill="#fff"/><path d="M370.63,151.43a2.33,2.33,0,0,1,1.91-1,2.07,2.07,0,0,1,1.7.79,3.82,3.82,0,0,1,.55,2.32v3.21h-1.45v-3.11a3,3,0,0,0-.24-1.47,1,1,0,0,0-.94-.47,1.9,1.9,0,0,0-1.53.95v4.1h-1.45v-9h1.45Z" fill="#fff"/></g></g><g style="isolation:isolate"><g style="isolation:isolate"><path d="M205.06,57V55.43a46.9,46.9,0,0,0,4.45-5.21,5.45,5.45,0,0,0,1.16-2.68,1.9,1.9,0,0,0-2.07-1.75,2,2,0,0,0-2,2l-1.77-.36a3.78,3.78,0,0,1,3.84-3.19,3.59,3.59,0,0,1,3.84,3.34A6.6,6.6,0,0,1,211.16,51a39.74,39.74,0,0,1-3.7,4.42h5.62V57Z" fill="#c2384a"/></g><g style="isolation:isolate"><path d="M223.51,50.73c0,4.05-1.62,6.54-4.47,6.54s-4.46-2.49-4.46-6.54,1.61-6.53,4.46-6.53S223.51,46.69,223.51,50.73Zm-7.11,0c0,3.29,1,4.9,2.64,4.9s2.64-1.61,2.64-4.9-1-4.9-2.64-4.9S216.4,47.45,216.4,50.73Z" fill="#c2384a"/><path d="M227.21,57V46.59c-.58.31-1.36.61-1.9.84V45.76c.76-.38,1.7-.86,2.53-1.33H229V57Z" fill="#c2384a"/><path d="M233.26,56.15c2.31-1,4.19-2.45,4.86-4.9a3.87,3.87,0,0,1-2.85,1.15,3.78,3.78,0,0,1-3.7-4.06,4,4,0,0,1,4-4.14c2.91,0,4.62,2.39,4.62,5A9.36,9.36,0,0,1,234,57.74Zm5.13-6.94c0-1.74-.75-3.42-2.66-3.42a2.37,2.37,0,0,0-2.34,2.59,2.22,2.22,0,0,0,2.26,2.43A3.14,3.14,0,0,0,238.39,49.21Z" fill="#c2384a"/></g></g><g style="isolation:isolate"><g style="isolation:isolate"><path d="M204.28,128.9v-1.61a46.9,46.9,0,0,0,4.45-5.21,5.45,5.45,0,0,0,1.16-2.68,1.9,1.9,0,0,0-2.07-1.75,2,2,0,0,0-2,2l-1.77-.36a3.78,3.78,0,0,1,3.84-3.19,3.59,3.59,0,0,1,3.84,3.34,6.6,6.6,0,0,1-1.35,3.48,39.74,39.74,0,0,1-3.7,4.42h5.62v1.6Z" fill="#c2384a"/></g><g style="isolation:isolate"><path d="M222.73,122.59c0,4-1.62,6.54-4.47,6.54s-4.46-2.49-4.46-6.54,1.61-6.53,4.46-6.53S222.73,118.55,222.73,122.59Zm-7.11,0c0,3.29,1,4.9,2.64,4.9s2.64-1.61,2.64-4.9-1-4.9-2.64-4.9S215.62,119.31,215.62,122.59Z" fill="#c2384a"/><path d="M226.43,128.9V118.45c-.58.31-1.36.61-1.9.84v-1.67c.76-.38,1.7-.86,2.53-1.33h1.16V128.9Z" fill="#c2384a"/><path d="M232.48,128c2.31-1,4.19-2.45,4.86-4.9a3.87,3.87,0,0,1-2.85,1.15,3.78,3.78,0,0,1-3.7-4.06,4,4,0,0,1,4-4.14c2.91,0,4.62,2.39,4.62,5a9.36,9.36,0,0,1-6.21,8.51Zm5.13-6.94c0-1.74-.75-3.42-2.66-3.42a2.37,2.37,0,0,0-2.34,2.59,2.22,2.22,0,0,0,2.26,2.43A3.14,3.14,0,0,0,237.61,121.07Z" fill="#c2384a"/></g></g><g style="isolation:isolate"><g style="isolation:isolate"><path d="M213.31,84.78H205V82.94a48.44,48.44,0,0,0,4.35-5.15,4.75,4.75,0,0,0,1-2.39,1.55,1.55,0,0,0-1.69-1.49A1.7,1.7,0,0,0,207,75.76l-2.3-.4a3.91,3.91,0,0,1,4-3.44c2,0,4,1.29,4,3.44a6.38,6.38,0,0,1-1.33,3.51,39,39,0,0,1-3.31,3.94h5.19Z" fill="#730526"/></g><g style="isolation:isolate"><path d="M223.89,78.47c0,4-1.66,6.54-4.62,6.54s-4.6-2.49-4.6-6.54,1.66-6.55,4.6-6.55S223.89,74.41,223.89,78.47Zm-6.86,0c0,3,.82,4.52,2.24,4.52s2.26-1.5,2.26-4.52S220.72,74,219.27,74,217,75.43,217,78.47Z" fill="#730526"/></g><g style="isolation:isolate"><path d="M233.92,84.78h-8.29V82.94A48.44,48.44,0,0,0,230,77.79a4.75,4.75,0,0,0,1-2.39,1.55,1.55,0,0,0-1.69-1.49,1.7,1.7,0,0,0-1.67,1.85l-2.3-.4a3.91,3.91,0,0,1,4.05-3.44c2,0,4,1.29,4,3.44A6.38,6.38,0,0,1,232,78.87a39,39,0,0,1-3.31,3.94h5.19Z" fill="#730526"/></g><g style="isolation:isolate"><path d="M244.51,78.47c0,4-1.66,6.54-4.62,6.54s-4.6-2.49-4.6-6.54,1.66-6.55,4.6-6.55S244.51,74.41,244.51,78.47Zm-6.86,0c0,3,.82,4.52,2.24,4.52s2.26-1.5,2.26-4.52S241.34,74,239.89,74,237.65,75.43,237.65,78.47Z" fill="#730526"/></g></g><g style="isolation:isolate"><g style="isolation:isolate"><path d="M212.53,156.64h-8.29V154.8a48.44,48.44,0,0,0,4.35-5.15,4.75,4.75,0,0,0,1-2.39,1.55,1.55,0,0,0-1.69-1.49,1.7,1.7,0,0,0-1.67,1.85l-2.3-.4a3.91,3.91,0,0,1,4-3.44c2,0,4,1.29,4,3.44a6.38,6.38,0,0,1-1.33,3.51,39,39,0,0,1-3.31,3.94h5.19Z" fill="#730526"/></g><g style="isolation:isolate"><path d="M223.11,150.33c0,4-1.66,6.54-4.62,6.54s-4.6-2.49-4.6-6.54,1.66-6.55,4.6-6.55S223.11,146.27,223.11,150.33Zm-6.86,0c0,3,.82,4.52,2.24,4.52s2.26-1.5,2.26-4.52-.81-4.52-2.26-4.52S216.25,147.29,216.25,150.33Z" fill="#730526"/></g><g style="isolation:isolate"><path d="M233.14,156.64h-8.29V154.8a48.44,48.44,0,0,0,4.35-5.15,4.75,4.75,0,0,0,1-2.39,1.55,1.55,0,0,0-1.69-1.49,1.7,1.7,0,0,0-1.67,1.85l-2.3-.4a3.91,3.91,0,0,1,4-3.44c2,0,4,1.29,4,3.44a6.38,6.38,0,0,1-1.33,3.51,39,39,0,0,1-3.31,3.94h5.19Z" fill="#730526"/></g><g style="isolation:isolate"><path d="M243.73,150.33c0,4-1.66,6.54-4.62,6.54s-4.6-2.49-4.6-6.54,1.66-6.55,4.6-6.55S243.73,146.27,243.73,150.33Zm-6.86,0c0,3,.82,4.52,2.24,4.52s2.26-1.5,2.26-4.52-.82-4.52-2.26-4.52S236.87,147.29,236.87,150.33Z" fill="#730526"/></g></g><g style="isolation:isolate"><path d="M68.37,55.31V45.16h6.34V46.7H70.17v2.62h4.54v1.54H70.17v2.91h4.54v1.54Z" fill="#c2384a"/><path d="M78.23,47.84,78.32,49a2.86,2.86,0,0,1,2.38-1.28,2.49,2.49,0,0,1,2,1,4.55,4.55,0,0,1,.67,2.8v3.88H81.67V51.56a3.8,3.8,0,0,0-.29-1.79,1.21,1.21,0,0,0-1.13-.56,2.32,2.32,0,0,0-1.86,1.14v5H76.64V47.84Z" fill="#c2384a"/><path d="M86.74,52a2.1,2.1,0,0,0,2.09,2,2.18,2.18,0,0,0,2.06-1.16l1.19.8a3.68,3.68,0,0,1-3.35,1.79A3.61,3.61,0,0,1,85,51.63a3.8,3.8,0,0,1,3.76-4,3.39,3.39,0,0,1,3.52,3.47,6.65,6.65,0,0,1-.07.88Zm2-2.94a2,2,0,0,0-1.93,1.68h3.61A1.68,1.68,0,0,0,88.77,49.08Z" fill="#c2384a"/><path d="M95.57,48.9a2.21,2.21,0,0,1,1.81-1.23,2.75,2.75,0,0,1,.9.13l-.39,1.64a1.36,1.36,0,0,0-.71-.16,1.74,1.74,0,0,0-1.53,1v5H93.88V47.84h1.61Z" fill="#c2384a"/><path d="M106.26,54.92a4,4,0,0,1-.45,2,3.57,3.57,0,0,1-3.34,1.7,6.06,6.06,0,0,1-3.37-1l.65-1.45a4.7,4.7,0,0,0,2.68.93,1.83,1.83,0,0,0,2.06-1.94v-.84a2.83,2.83,0,0,1-2.28,1,3.83,3.83,0,0,1,.05-7.64,3,3,0,0,1,2.3,1l.09-.86h1.61Zm-1.77-4.77a2.4,2.4,0,0,0-1.9-.94,2.28,2.28,0,1,0,1.9,3.42Z" fill="#c2384a"/><path d="M109.25,47.84l1.68,4.95h0l1.71-4.95h1.91l-4.2,10.86-1.57-.59L110,55l-2.68-7.12Z" fill="#c2384a"/></g><g style="isolation:isolate"><path d="M74,69.63a3.77,3.77,0,0,1-2.53.84,3.7,3.7,0,0,1-3.79-3.91,3.81,3.81,0,0,1,3.87-3.9,3.89,3.89,0,0,1,2.4.8l-.87,1.3a2.3,2.3,0,1,0-1.49,4.18,2.29,2.29,0,0,0,1.49-.55Z" fill="#c2384a"/><path d="M82.61,66.56a3.87,3.87,0,1,1-3.87-3.9A3.81,3.81,0,0,1,82.61,66.56ZM78.74,64.2a2.39,2.39,0,1,0,2.09,2.36A2.2,2.2,0,0,0,78.74,64.2Z" fill="#c2384a"/><path d="M85.83,62.83l.09,1.11a2.84,2.84,0,0,1,2.37-1.28,2.49,2.49,0,0,1,2.06,1,4.55,4.55,0,0,1,.67,2.8V70.3H89.26V66.55A3.68,3.68,0,0,0,89,64.76a1.19,1.19,0,0,0-1.13-.56A2.31,2.31,0,0,0,86,65.34v5H84.24V62.83Z" fill="#c2384a"/><path d="M97,64.65a2.36,2.36,0,0,0-1.48-.58c-.5,0-.88.27-.88.72s.62.77,1.29,1c1,.37,2.17.88,2.17,2.26,0,1.65-1.36,2.37-2.81,2.37a3.73,3.73,0,0,1-2.82-1.23l1.07-1a2.35,2.35,0,0,0,1.71.84c.53,0,1.11-.26,1.11-.86s-.72-.81-1.39-1.08c-.88-.37-2-.87-2-2.21a2.31,2.31,0,0,1,2.56-2.26,3.62,3.62,0,0,1,2.47.91Z" fill="#c2384a"/><path d="M105,70.3l-.09-1.1a2.89,2.89,0,0,1-2.38,1.27,2.53,2.53,0,0,1-2.06-1,4.57,4.57,0,0,1-.66-2.8V62.83h1.75v3.76a3.64,3.64,0,0,0,.29,1.78,1.19,1.19,0,0,0,1.13.57,2.31,2.31,0,0,0,1.86-1.15v-5h1.75V70.3Z" fill="#c2384a"/><path d="M118.34,70.3V66.55a3.8,3.8,0,0,0-.27-1.79A1.18,1.18,0,0,0,117,64.2a2.24,2.24,0,0,0-1.71,1,7.66,7.66,0,0,1,.07,1.21V70.3h-1.75V66.55a3.71,3.71,0,0,0-.29-1.83,1.13,1.13,0,0,0-1-.52,2.41,2.41,0,0,0-1.68,1v5.1H108.8V62.83h1.61l.07,1a2.82,2.82,0,0,1,2.23-1.18,2.43,2.43,0,0,1,2,1c0,.08.1.17.16.29a3,3,0,0,1,2.53-1.31,2.43,2.43,0,0,1,2,.93,4.48,4.48,0,0,1,.68,2.83V70.3Z" fill="#c2384a"/><path d="M123.8,62.83l.11,1a2.77,2.77,0,0,1,2.33-1.13,3.92,3.92,0,0,1,0,7.81,3.11,3.11,0,0,1-2.25-.92v4.37h-1.75V62.83ZM124,68a2.4,2.4,0,0,0,1.92.94,2.38,2.38,0,0,0,0-4.74,2.19,2.19,0,0,0-2,1.16Z" fill="#c2384a"/><path d="M133.26,64.31V67.4c0,.22,0,.39,0,.62.06.58.26.92.81.92a1.73,1.73,0,0,0,.83-.21l.52,1.34a3.46,3.46,0,0,1-1.62.39A2.08,2.08,0,0,1,131.68,69a4,4,0,0,1-.19-1.38V64.31h-.93V62.83h.93l.19-1.71h1.58v1.71h2v1.48Z" fill="#c2384a"/><path d="M136.7,61.62V60h1.75v1.64Zm0,8.68V62.83h1.75V70.3Z" fill="#c2384a"/><path d="M147.81,66.56a3.87,3.87,0,1,1-3.87-3.9A3.81,3.81,0,0,1,147.81,66.56Zm-3.87-2.36A2.39,2.39,0,1,0,146,66.56,2.2,2.2,0,0,0,143.94,64.2Z" fill="#c2384a"/><path d="M151,62.83l.09,1.11a2.87,2.87,0,0,1,2.38-1.28,2.5,2.5,0,0,1,2.06,1,4.55,4.55,0,0,1,.66,2.8V70.3h-1.75V66.55a3.68,3.68,0,0,0-.29-1.79,1.2,1.2,0,0,0-1.13-.56,2.32,2.32,0,0,0-1.86,1.14v5h-1.75V62.83Z" fill="#c2384a"/></g><g style="isolation:isolate"><g style="isolation:isolate"><path d="M71.76,87.84a8,8,0,0,1,0-13.93l.71,1.24a7,7,0,0,0,0,11.46Z" fill="#c2384a"/></g><g style="isolation:isolate"><path d="M80.18,85.3H78.57l-.09-1a2.76,2.76,0,0,1-2.33,1.13,3.92,3.92,0,0,1,0-7.81,3.12,3.12,0,0,1,2.23.94V74.43h1.77Zm-1.77-5.16a2.4,2.4,0,0,0-1.9-.94,2.38,2.38,0,0,0,0,4.74,2.17,2.17,0,0,0,1.93-1.16Z" fill="#c2384a"/><path d="M82.35,76.62V75h1.76v1.64Zm0,8.68V77.83h1.76V85.3Z" fill="#c2384a"/><path d="M87.5,82a2.1,2.1,0,0,0,2.09,2,2.19,2.19,0,0,0,2.06-1.16l1.19.8a3.68,3.68,0,0,1-3.35,1.79,3.61,3.61,0,0,1-3.76-3.85,3.8,3.8,0,0,1,3.76-4A3.39,3.39,0,0,1,93,81.13a6.65,6.65,0,0,1-.07.88Zm2-2.94a2,2,0,0,0-1.93,1.68h3.61A1.68,1.68,0,0,0,89.53,79.07Z" fill="#c2384a"/><path d="M98.53,79.65a2.33,2.33,0,0,0-1.47-.58c-.51,0-.89.27-.89.72s.62.77,1.29,1c1,.37,2.18.88,2.18,2.26,0,1.65-1.37,2.37-2.82,2.37A3.73,3.73,0,0,1,94,84.24l1.07-1a2.37,2.37,0,0,0,1.71.84c.54,0,1.12-.26,1.12-.86s-.73-.81-1.4-1.08c-.88-.37-2-.87-2-2.21a2.32,2.32,0,0,1,2.57-2.26,3.62,3.62,0,0,1,2.46.91Z" fill="#c2384a"/><path d="M102.64,82a2.09,2.09,0,0,0,2.09,2,2.16,2.16,0,0,0,2-1.16l1.19.8a3.66,3.66,0,0,1-3.35,1.79,3.61,3.61,0,0,1-3.75-3.85,3.8,3.8,0,0,1,3.75-4,3.4,3.4,0,0,1,3.53,3.47,5.33,5.33,0,0,1-.08.88Zm2-2.94a2,2,0,0,0-1.93,1.68h3.61A1.68,1.68,0,0,0,104.67,79.07Z" fill="#c2384a"/><path d="M111.53,85.3h-1.76V74.43h1.76Z" fill="#c2384a"/><path d="M113.24,87.84l-.68-1.25a7,7,0,0,0,0-11.44l.71-1.24a8,8,0,0,1,0,13.93Z" fill="#c2384a"/></g></g><g style="isolation:isolate"><path d="M37.82,13.83V1.93h7.63V4h-5.2V6.67h5.2V8.73h-5.2v3h5.2v2.06Z" fill="#c2384a"/><path d="M49.61,4.89l.19,1.22a3.37,3.37,0,0,1,2.77-1.42A3,3,0,0,1,55,5.86a5.23,5.23,0,0,1,.8,3.33v4.64H53.34V9.31a4.54,4.54,0,0,0-.28-1.92,1.23,1.23,0,0,0-1.19-.63A2.33,2.33,0,0,0,49.94,7.9v5.93H47.52V4.89Z" fill="#c2384a"/><path d="M59.86,10a2.26,2.26,0,0,0,2.25,2.15,2.54,2.54,0,0,0,2.33-1.33L66,11.84A4.46,4.46,0,0,1,61.94,14a4.33,4.33,0,0,1-4.52-4.57A4.58,4.58,0,0,1,62,4.69a4.1,4.1,0,0,1,4.31,4.13A6.2,6.2,0,0,1,66.15,10Zm4-1.64A1.72,1.72,0,0,0,62,6.57a2,2,0,0,0-2,1.74Z" fill="#c2384a"/><path d="M70.3,6.08a2.51,2.51,0,0,1,2.09-1.39,3.3,3.3,0,0,1,1.16.2L73,7a1.73,1.73,0,0,0-.85-.21,2,2,0,0,0-1.68,1v6.05H68V4.89h2.1Z" fill="#c2384a"/><path d="M83,13.36a4.47,4.47,0,0,1-.56,2.37,4.34,4.34,0,0,1-3.94,2,7.6,7.6,0,0,1-4.13-1.22l.88-2a5.72,5.72,0,0,0,3.16,1.14,2,2,0,0,0,2.18-2.11v-.82a3.34,3.34,0,0,1-2.63,1.14,4.34,4.34,0,0,1-4.17-4.61A4.31,4.31,0,0,1,78,4.69a3.32,3.32,0,0,1,2.72,1.25l.2-1.05H83ZM80.57,7.73a2.59,2.59,0,0,0-2.07-1,2.31,2.31,0,0,0-2.26,2.53,2.3,2.3,0,0,0,2.22,2.47,2.36,2.36,0,0,0,2.11-1.18Z" fill="#c2384a"/><path d="M86.78,4.89l1.8,5.32h0l1.84-5.32h2.61l-5,13-2.16-.84L87.3,13.3,84.14,4.89Z" fill="#c2384a"/><path d="M105.68,12.93a4.62,4.62,0,0,1-3.21,1.1,4.41,4.41,0,0,1-4.54-4.67,4.51,4.51,0,0,1,4.6-4.67,4.78,4.78,0,0,1,3.15,1.1l-1.24,1.68a2.37,2.37,0,0,0-4,1.89,2.41,2.41,0,0,0,2.28,2.6,2.33,2.33,0,0,0,1.72-.68Z" fill="#c2384a"/><path d="M116,9.36a4.69,4.69,0,0,1-9.37,0,4.69,4.69,0,0,1,9.37,0Zm-4.67-2.6a2.36,2.36,0,0,0-2.23,2.6,2.25,2.25,0,1,0,4.44,0A2.35,2.35,0,0,0,111.31,6.76Z" fill="#c2384a"/><path d="M119.81,4.89,120,6.11a3.38,3.38,0,0,1,2.77-1.42,3,3,0,0,1,2.38,1.17,5.23,5.23,0,0,1,.8,3.33v4.64h-2.41V9.31a4.71,4.71,0,0,0-.27-1.92,1.25,1.25,0,0,0-1.19-.63,2.33,2.33,0,0,0-1.94,1.14v5.93h-2.42V4.89Z" fill="#c2384a"/><path d="M133.08,7.32a2.74,2.74,0,0,0-1.77-.75.77.77,0,0,0-.86.68c0,.56.66.85,1.41,1.16,1.15.47,2.62,1.05,2.62,2.75,0,2-1.7,2.87-3.44,2.87a5,5,0,0,1-3.6-1.53l1.38-1.42a2.86,2.86,0,0,0,2.1,1.05c.5,0,1.14-.24,1.14-.78s-.81-.9-1.7-1.29c-1.07-.46-2.24-1.07-2.24-2.64,0-1.82,1.56-2.73,3.19-2.73a4.43,4.43,0,0,1,3.1,1.17Z" fill="#c2384a"/><path d="M142.47,13.83l-.19-1.22A3.37,3.37,0,0,1,139.51,14a3,3,0,0,1-2.38-1.17,5.22,5.22,0,0,1-.8-3.33V4.89h2.41V9.41a4.54,4.54,0,0,0,.28,1.92,1.23,1.23,0,0,0,1.19.63,2.33,2.33,0,0,0,1.93-1.14V4.89h2.42v8.94Z" fill="#c2384a"/><path d="M158,13.83V9.31a4.54,4.54,0,0,0-.28-1.92,1.21,1.21,0,0,0-1.19-.63,2.23,2.23,0,0,0-1.75,1,12.54,12.54,0,0,1,.09,1.41v4.64h-2.41V9.31a4.34,4.34,0,0,0-.28-1.94A1.19,1.19,0,0,0,151,6.76a2.46,2.46,0,0,0-1.71.88v6.19H146.9V4.89H149L149.16,6a3.32,3.32,0,0,1,2.59-1.29,2.91,2.91,0,0,1,2.53,1.49,3.47,3.47,0,0,1,3-1.49,3,3,0,0,1,2.34,1.15,5.26,5.26,0,0,1,.8,3.35v4.64Z" fill="#c2384a"/><path d="M164.77,4.89,165,6a3.34,3.34,0,0,1,2.77-1.3c2.38,0,4.16,2.1,4.16,4.7A4.39,4.39,0,0,1,167.71,14,3.47,3.47,0,0,1,165.09,13v5.12h-2.41V4.89Zm.32,6.1a2.55,2.55,0,0,0,2.08,1,2.39,2.39,0,0,0,2.26-2.63A2.32,2.32,0,0,0,165.09,8Z" fill="#c2384a"/><path d="M176.14,6.9v3.46a4.84,4.84,0,0,0,0,.77c.06.52.27.85.78.85a2,2,0,0,0,1-.26l.75,1.79a4.53,4.53,0,0,1-2.13.52,2.57,2.57,0,0,1-2.65-1.92,5,5,0,0,1-.17-1.49V6.9h-1.07v-2h1.07l.37-2h2v2h2.28v2Z" fill="#c2384a"/><path d="M180.05,3.65V1.59h2.42V3.65Zm0,10.18V4.89h2.42v8.94Z" fill="#c2384a"/><path d="M193.57,9.36a4.69,4.69,0,0,1-9.37,0,4.69,4.69,0,0,1,9.37,0Zm-4.68-2.6a2.36,2.36,0,0,0-2.22,2.6,2.24,2.24,0,1,0,4.43,0A2.34,2.34,0,0,0,188.89,6.76Z" fill="#c2384a"/><path d="M197.39,4.89l.19,1.22a3.36,3.36,0,0,1,2.77-1.42,3,3,0,0,1,2.38,1.17,5.23,5.23,0,0,1,.8,3.33v4.64h-2.41V9.31a4.54,4.54,0,0,0-.28-1.92,1.23,1.23,0,0,0-1.19-.63,2.33,2.33,0,0,0-1.93,1.14v5.93H195.3V4.89Z" fill="#c2384a"/><path d="M218,10.41h.05l1.41-5.52H222l-2.57,8.94h-2.55l-1.41-5.12h0L214,13.83h-2.6L209,4.89h2.57l1.32,5.54h0l1.54-5.54h2.13Z" fill="#c2384a"/><path d="M223.27,3.65V1.59h2.41V3.65Zm0,10.18V4.89h2.41v8.94Z" fill="#c2384a"/><path d="M230.54,6.9v3.46a4.84,4.84,0,0,0,0,.77c.06.52.27.85.78.85a2,2,0,0,0,1-.26l.74,1.79A4.46,4.46,0,0,1,231,14a2.57,2.57,0,0,1-2.65-1.92,5,5,0,0,1-.17-1.49V6.9h-1.07v-2h1.07l.37-2h2v2h2.28v2Z" fill="#c2384a"/><path d="M236.87,5.94a3.42,3.42,0,0,1,2.63-1.25,3,3,0,0,1,2.38,1.17,5.23,5.23,0,0,1,.8,3.33v4.64h-2.41V9.31A4.54,4.54,0,0,0,240,7.39a1.23,1.23,0,0,0-1.19-.63,2.33,2.33,0,0,0-1.93,1.14v5.93h-2.42V1.08h2.42Z" fill="#c2384a"/><path d="M245,3.65V1.59h2.41V3.65Zm0,10.18V4.89h2.41v8.94Z" fill="#c2384a"/><path d="M251.81,4.89,252,6.11a3.36,3.36,0,0,1,2.77-1.42,3,3,0,0,1,2.38,1.17,5.3,5.3,0,0,1,.8,3.33v4.64h-2.42V9.31a4.71,4.71,0,0,0-.27-1.92,1.23,1.23,0,0,0-1.19-.63,2.34,2.34,0,0,0-1.94,1.14v5.93h-2.41V4.89Z" fill="#c2384a"/><path d="M267,6.9v3.46a6.44,6.44,0,0,0,0,.77c.07.52.28.85.79.85a2,2,0,0,0,1-.26l.74,1.79a4.49,4.49,0,0,1-2.12.52,2.56,2.56,0,0,1-2.65-1.92,5,5,0,0,1-.17-1.49V6.9h-1.07v-2h1.07l.37-2h2v2h2.28v2Z" fill="#c2384a"/><path d="M273.31,5.94A3.45,3.45,0,0,1,276,4.69a3,3,0,0,1,2.38,1.17,5.23,5.23,0,0,1,.8,3.33v4.64h-2.42V9.31a4.55,4.55,0,0,0-.27-1.92,1.23,1.23,0,0,0-1.19-.63,2.36,2.36,0,0,0-1.94,1.14v5.93H270.9V1.08h2.41Z" fill="#c2384a"/><path d="M283.24,10a2.26,2.26,0,0,0,2.25,2.15,2.51,2.51,0,0,0,2.32-1.33l1.59,1.07A4.46,4.46,0,0,1,285.32,14a4.33,4.33,0,0,1-4.53-4.57,4.59,4.59,0,0,1,4.54-4.77,4.11,4.11,0,0,1,4.32,4.13,6.2,6.2,0,0,1-.12,1.13Zm3.95-1.64a1.73,1.73,0,0,0-1.79-1.74,2,2,0,0,0-2,1.74Z" fill="#c2384a"/><path d="M304.41,9.36a4.69,4.69,0,0,1-9.37,0,4.69,4.69,0,0,1,9.37,0Zm-4.68-2.6a2.36,2.36,0,0,0-2.22,2.6,2.24,2.24,0,1,0,4.43,0A2.34,2.34,0,0,0,299.73,6.76Z" fill="#c2384a"/><path d="M308.42,6.08a2.51,2.51,0,0,1,2.09-1.39,3.39,3.39,0,0,1,1.16.2L311.09,7a1.78,1.78,0,0,0-.85-.21,2,2,0,0,0-1.69,1v6.05h-2.41V4.89h2.09Z" fill="#c2384a"/><path d="M321.1,13.36a4.57,4.57,0,0,1-.56,2.37,4.34,4.34,0,0,1-3.94,2,7.63,7.63,0,0,1-4.14-1.22l.89-2a5.72,5.72,0,0,0,3.16,1.14,2,2,0,0,0,2.18-2.11v-.82a3.36,3.36,0,0,1-2.64,1.14,4.34,4.34,0,0,1-4.16-4.61,4.3,4.3,0,0,1,4.2-4.53,3.32,3.32,0,0,1,2.72,1.25l.2-1.05h2.09Zm-2.41-5.63a2.61,2.61,0,0,0-2.08-1,2.31,2.31,0,0,0-2.26,2.53,2.3,2.3,0,0,0,2.23,2.47,2.36,2.36,0,0,0,2.11-1.18Z" fill="#c2384a"/><path d="M328.8,13.83l-.19-.76a3,3,0,0,1-2.43,1A2.93,2.93,0,0,1,323,11.2c0-2.2,2-2.89,3.89-2.89a7.87,7.87,0,0,1,1.62.18V8.36c0-1.13-.46-1.8-1.77-1.8a5.8,5.8,0,0,0-2.7.78l-.65-1.74a9,9,0,0,1,3.84-.91c2.49,0,3.69,1.44,3.69,3.77v5.37Zm-.32-3.89a5.77,5.77,0,0,0-1.23-.16c-.88,0-1.92.33-1.92,1.38a1.23,1.23,0,0,0,1.36,1.19,2.63,2.63,0,0,0,1.79-.76Z" fill="#c2384a"/><path d="M335.24,4.89l.19,1.22a3.38,3.38,0,0,1,2.77-1.42,3,3,0,0,1,2.38,1.17,5.23,5.23,0,0,1,.8,3.33v4.64H339V9.31a4.71,4.71,0,0,0-.27-1.92,1.25,1.25,0,0,0-1.19-.63,2.33,2.33,0,0,0-1.94,1.14v5.93h-2.42V4.89Z" fill="#c2384a"/><path d="M343.66,3.65V1.59h2.41V3.65Zm0,10.18V4.89h2.41v8.94Z" fill="#c2384a"/><path d="M351.5,6.9h-3.59v-2h6.77V6l-3.44,5.83H355v2H348.1V12.71Z" fill="#c2384a"/><path d="M362.05,13.83l-.18-.76a3,3,0,0,1-2.43,1,2.94,2.94,0,0,1-3.22-2.83c0-2.2,2-2.89,3.9-2.89a7.86,7.86,0,0,1,1.61.18V8.36c0-1.13-.46-1.8-1.77-1.8a5.8,5.8,0,0,0-2.7.78l-.65-1.74a9,9,0,0,1,3.85-.91c2.48,0,3.68,1.44,3.68,3.77v5.37Zm-.32-3.89a5.77,5.77,0,0,0-1.22-.16c-.89,0-1.92.33-1.92,1.38A1.22,1.22,0,0,0,360,12.35a2.62,2.62,0,0,0,1.78-.76Z" fill="#c2384a"/><path d="M368.92,6.9v3.46a4.84,4.84,0,0,0,0,.77c.06.52.27.85.78.85a2,2,0,0,0,1-.26l.74,1.79a4.46,4.46,0,0,1-2.12.52,2.57,2.57,0,0,1-2.65-1.92,5,5,0,0,1-.17-1.49V6.9h-1.07v-2h1.07l.37-2h2v2h2.28v2Z" fill="#c2384a"/><path d="M372.83,3.65V1.59h2.41V3.65Zm0,10.18V4.89h2.41v8.94Z" fill="#c2384a"/><path d="M386.35,9.36a4.69,4.69,0,0,1-9.37,0,4.69,4.69,0,0,1,9.37,0Zm-4.68-2.6a2.37,2.37,0,0,0-2.23,2.6,2.25,2.25,0,1,0,4.44,0A2.34,2.34,0,0,0,381.67,6.76Z" fill="#c2384a"/><path d="M390.17,4.89l.19,1.22a3.36,3.36,0,0,1,2.77-1.42,3,3,0,0,1,2.38,1.17,5.3,5.3,0,0,1,.8,3.33v4.64h-2.42V9.31a4.55,4.55,0,0,0-.27-1.92,1.23,1.23,0,0,0-1.19-.63,2.36,2.36,0,0,0-1.94,1.14v5.93h-2.41V4.89Z" fill="#c2384a"/><path d="M398.23,7.42V4.89h2.6V7.42Zm0,6.41V11.3h2.6v2.53Z" fill="#c2384a"/></g><g style="isolation:isolate"><path d="M68,120.46V110.31h6.34v1.54H69.78v2.62h4.54V116H69.78v2.91h4.54v1.54Z" fill="#c2384a"/><path d="M77.84,113l.09,1.11a2.86,2.86,0,0,1,2.38-1.28,2.49,2.49,0,0,1,2,1,4.55,4.55,0,0,1,.67,2.8v3.88H81.28v-3.75a3.8,3.8,0,0,0-.29-1.79,1.21,1.21,0,0,0-1.13-.56A2.32,2.32,0,0,0,78,115.5v5H76.25V113Z" fill="#c2384a"/><path d="M86.35,117.17a2.1,2.1,0,0,0,2.09,2A2.19,2.19,0,0,0,90.5,118l1.19.8a3.68,3.68,0,0,1-3.35,1.79,3.61,3.61,0,0,1-3.76-3.85,3.8,3.8,0,0,1,3.76-4,3.39,3.39,0,0,1,3.52,3.47,6.65,6.65,0,0,1-.07.88Zm2-2.94a2,2,0,0,0-1.93,1.68h3.61A1.68,1.68,0,0,0,88.38,114.23Z" fill="#c2384a"/><path d="M95.18,114.05A2.21,2.21,0,0,1,97,112.82a2.75,2.75,0,0,1,.9.13l-.39,1.64a1.38,1.38,0,0,0-.71-.16,1.74,1.74,0,0,0-1.53,1v5H93.49V113H95.1Z" fill="#c2384a"/><path d="M105.87,120.07a4,4,0,0,1-.45,2,3.57,3.57,0,0,1-3.34,1.7,6.06,6.06,0,0,1-3.37-1l.65-1.45a4.7,4.7,0,0,0,2.68.93,1.83,1.83,0,0,0,2.06-1.94v-.84a2.83,2.83,0,0,1-2.28,1,3.83,3.83,0,0,1,.05-7.64,3,3,0,0,1,2.3,1l.09-.86h1.61Zm-1.77-4.77a2.4,2.4,0,0,0-1.9-.94,2.28,2.28,0,1,0,1.9,3.42Z" fill="#c2384a"/><path d="M108.86,113l1.68,5h0l1.71-5h1.91L110,123.85l-1.57-.59,1.19-3.15L106.93,113Z" fill="#c2384a"/></g><g style="isolation:isolate"><path d="M73.61,134.78a3.77,3.77,0,0,1-2.53.84,3.7,3.7,0,0,1-3.79-3.91,3.81,3.81,0,0,1,3.87-3.9,3.89,3.89,0,0,1,2.4.8l-.87,1.3a2.3,2.3,0,1,0-1.49,4.18,2.29,2.29,0,0,0,1.49-.55Z" fill="#c2384a"/><path d="M82.22,131.71a3.87,3.87,0,1,1-3.87-3.9A3.81,3.81,0,0,1,82.22,131.71Zm-3.87-2.36a2.39,2.39,0,1,0,2.09,2.36A2.2,2.2,0,0,0,78.35,129.35Z" fill="#c2384a"/><path d="M85.44,128l.09,1.11a2.84,2.84,0,0,1,2.37-1.28,2.49,2.49,0,0,1,2.06,1,4.55,4.55,0,0,1,.67,2.8v3.88H88.87V131.7a3.68,3.68,0,0,0-.29-1.79,1.19,1.19,0,0,0-1.13-.56,2.31,2.31,0,0,0-1.85,1.14v5H83.85V128Z" fill="#c2384a"/><path d="M96.63,129.8a2.36,2.36,0,0,0-1.48-.58c-.5,0-.88.27-.88.72s.62.77,1.29,1.05c1,.37,2.17.88,2.17,2.26,0,1.65-1.36,2.37-2.81,2.37a3.73,3.73,0,0,1-2.82-1.23l1.07-1a2.35,2.35,0,0,0,1.71.84c.53,0,1.11-.26,1.11-.86s-.72-.81-1.39-1.08c-.88-.37-2-.87-2-2.21a2.31,2.31,0,0,1,2.56-2.26,3.62,3.62,0,0,1,2.47.91Z" fill="#c2384a"/><path d="M104.64,135.45l-.09-1.1a2.89,2.89,0,0,1-2.38,1.27,2.53,2.53,0,0,1-2.06-1,4.57,4.57,0,0,1-.66-2.8V128h1.75v3.76a3.64,3.64,0,0,0,.29,1.78,1.19,1.19,0,0,0,1.13.57,2.31,2.31,0,0,0,1.86-1.15v-5h1.75v7.47Z" fill="#c2384a"/><path d="M118,135.45V131.7a3.93,3.93,0,0,0-.26-1.79,1.21,1.21,0,0,0-1.12-.56,2.24,2.24,0,0,0-1.71,1,7.8,7.8,0,0,1,.07,1.21v3.88h-1.75V131.7a3.71,3.71,0,0,0-.29-1.83,1.13,1.13,0,0,0-1-.52,2.41,2.41,0,0,0-1.68,1v5.1h-1.75V128H110l.07,1a2.82,2.82,0,0,1,2.23-1.18,2.43,2.43,0,0,1,2,1c0,.08.1.17.16.29a3,3,0,0,1,2.53-1.31,2.43,2.43,0,0,1,2,.93,4.48,4.48,0,0,1,.68,2.83v3.88Z" fill="#c2384a"/><path d="M123.41,128l.11,1a2.8,2.8,0,0,1,2.33-1.13,3.92,3.92,0,0,1,0,7.81,3.11,3.11,0,0,1-2.25-.92v4.37h-1.75V128Zm.16,5.17a2.4,2.4,0,0,0,1.92.94,2.38,2.38,0,0,0,0-4.74,2.19,2.19,0,0,0-2,1.16Z" fill="#c2384a"/><path d="M132.87,129.46v3.09c0,.22,0,.39,0,.63.06.57.26.91.81.91a1.73,1.73,0,0,0,.83-.2l.52,1.33a3.46,3.46,0,0,1-1.62.39,2.08,2.08,0,0,1-2.13-1.42,4,4,0,0,1-.19-1.38v-3.35h-.93V128h.93l.19-1.71h1.58V128h2v1.48Z" fill="#c2384a"/><path d="M136.31,126.77v-1.64h1.75v1.64Zm0,8.68V128h1.75v7.47Z" fill="#c2384a"/><path d="M147.42,131.71a3.87,3.87,0,1,1-3.87-3.9A3.81,3.81,0,0,1,147.42,131.71Zm-3.87-2.36a2.39,2.39,0,1,0,2.09,2.36A2.2,2.2,0,0,0,143.55,129.35Z" fill="#c2384a"/><path d="M150.64,128l.09,1.11a2.87,2.87,0,0,1,2.38-1.28,2.5,2.5,0,0,1,2.06,1,4.55,4.55,0,0,1,.66,2.8v3.88h-1.75V131.7a3.68,3.68,0,0,0-.29-1.79,1.2,1.2,0,0,0-1.13-.56,2.32,2.32,0,0,0-1.86,1.14v5h-1.75V128Z" fill="#c2384a"/></g><g style="isolation:isolate"><g style="isolation:isolate"><path d="M71.37,153a8,8,0,0,1,0-13.93l.71,1.24a7,7,0,0,0,0,11.46Z" fill="#c2384a"/></g><g style="isolation:isolate"><path d="M73.94,147.16a2.1,2.1,0,0,0,2.09,2A2.18,2.18,0,0,0,78.09,148l1.19.8a3.68,3.68,0,0,1-3.35,1.79,3.61,3.61,0,0,1-3.75-3.85,3.79,3.79,0,0,1,3.75-4,3.39,3.39,0,0,1,3.52,3.47,6.65,6.65,0,0,1-.07.88Zm2-2.94a1.94,1.94,0,0,0-1.92,1.68h3.61A1.69,1.69,0,0,0,76,144.22Z" fill="#c2384a"/><path d="M82.83,150.45H81.08V139.58h1.75Z" fill="#c2384a"/><path d="M86.23,147.16a2.09,2.09,0,0,0,2.08,2A2.18,2.18,0,0,0,90.37,148l1.19.8a3.68,3.68,0,0,1-3.35,1.79,3.61,3.61,0,0,1-3.75-3.85,3.8,3.8,0,0,1,3.75-4,3.39,3.39,0,0,1,3.52,3.47,5.3,5.3,0,0,1-.07.88Zm2-2.94a1.94,1.94,0,0,0-1.93,1.68h3.61A1.69,1.69,0,0,0,88.26,144.22Z" fill="#c2384a"/></g><g style="isolation:isolate"><path d="M99.13,149.78a3.77,3.77,0,0,1-2.53.84,3.7,3.7,0,0,1-3.79-3.91,3.81,3.81,0,0,1,3.87-3.9,3.89,3.89,0,0,1,2.4.8l-.87,1.3a2.3,2.3,0,1,0-1.49,4.18,2.29,2.29,0,0,0,1.49-.55Z" fill="#c2384a"/></g><g style="isolation:isolate"><path d="M102.65,144.46v3.09c0,.22,0,.39,0,.63.06.57.26.91.82.91a1.69,1.69,0,0,0,.82-.2l.52,1.33a3.46,3.46,0,0,1-1.62.39,2.08,2.08,0,0,1-2.13-1.42,4,4,0,0,1-.19-1.38v-3.35H100V143h.93l.19-1.71h1.58V143h2v1.48Z" fill="#c2384a"/><path d="M107.78,144a2.21,2.21,0,0,1,1.81-1.23,3,3,0,0,1,.9.13l-.39,1.64a1.38,1.38,0,0,0-.71-.16,1.77,1.77,0,0,0-1.54,1v5h-1.76V143h1.61Z" fill="#c2384a"/><path d="M111.41,141.77v-1.64h1.75v1.64Zm0,8.68V143h1.75v7.47Z" fill="#c2384a"/><path d="M121.11,149.78a3.77,3.77,0,0,1-2.53.84,3.7,3.7,0,0,1-3.79-3.91,3.81,3.81,0,0,1,3.87-3.9,3.89,3.89,0,0,1,2.4.8l-.87,1.3a2.3,2.3,0,1,0-1.49,4.18,2.29,2.29,0,0,0,1.49-.55Z" fill="#c2384a"/><path d="M122.53,141.77v-1.64h1.75v1.64Zm0,8.68V143h1.75v7.47Z" fill="#c2384a"/></g><g style="isolation:isolate"><path d="M128.27,144.46v3.09c0,.22,0,.39,0,.63.06.57.26.91.82.91a1.69,1.69,0,0,0,.82-.2l.52,1.33a3.46,3.46,0,0,1-1.62.39,2.08,2.08,0,0,1-2.13-1.42,4,4,0,0,1-.19-1.38v-3.35h-.93V143h.93l.19-1.71h1.58V143h2v1.48Z" fill="#c2384a"/></g><g style="isolation:isolate"><path d="M132.81,143l1.68,5h0l1.71-5h1.91l-4.2,10.86-1.57-.59,1.19-3.15L130.88,143Z" fill="#c2384a"/><path d="M138.82,153l-.68-1.25a7,7,0,0,0,0-11.44l.71-1.24a8,8,0,0,1,0,13.93Z" fill="#c2384a"/></g></g><rect y="26.47" width="404.7" height="1" fill="#c2384a"/></svg>