<svg id="Layer_1" data-name="Layer 1" xmlns="http://www.w3.org/2000/svg" xmlns:xlink="http://www.w3.org/1999/xlink" viewBox="0 0 595.28 178.71"><defs><clipPath id="clip-path"><rect y="-6.32" width="592.4" height="227.56" fill="none"/></clipPath></defs><rect x="255.41" y="44.03" width="260.59" height="20.39" fill="#c2384a"/><rect x="254.63" y="115.89" width="328.77" height="20.39" fill="#c2384a"/><rect x="255.41" y="71.76" width="289.46" height="20.39" fill="#730526"/><rect x="254.63" y="143.61" width="139.53" height="20.39" fill="#730526"/><g style="isolation:isolate"><g style="isolation:isolate"><path d="M347.5,53.24c0,2.55-1,4.12-2.92,4.12s-2.9-1.57-2.9-4.12,1.05-4.14,2.9-4.14S347.5,50.67,347.5,53.24Zm-4.33,0c0,1.9.52,2.85,1.41,2.85s1.43-1,1.43-2.85-.51-2.86-1.43-2.86S343.17,51.32,343.17,53.24Z" fill="#fff"/><path d="M348.63,57.22V55.59h1.6v1.63Z" fill="#fff"/></g><g style="isolation:isolate"><path d="M357.18,53.24c0,2.55-1,4.12-2.92,4.12s-2.9-1.57-2.9-4.12,1-4.14,2.9-4.14S357.18,50.67,357.18,53.24Zm-4.33,0c0,1.9.51,2.85,1.41,2.85s1.43-1,1.43-2.85-.51-2.86-1.43-2.86S352.85,51.32,352.85,53.24Z" fill="#fff"/></g><g style="isolation:isolate"><path d="M364.11,53.24c0,2.55-1,4.12-2.92,4.12s-2.9-1.57-2.9-4.12,1-4.14,2.9-4.14S364.11,50.67,364.11,53.24Zm-4.33,0c0,1.9.52,2.85,1.41,2.85s1.43-1,1.43-2.85-.51-2.86-1.43-2.86S359.78,51.32,359.78,53.24Z" fill="#fff"/></g><g style="isolation:isolate"><path d="M366.16,56.51a4.77,4.77,0,0,0,2.91-2.72,2.19,2.19,0,0,1-1.53.57,2.44,2.44,0,0,1-2.45-2.54,2.63,2.63,0,0,1,2.68-2.72,3,3,0,0,1,3,3.24c0,2.58-1.87,4.46-4.1,5.36Zm1.69-6.16a1.3,1.3,0,0,0-1.27,1.41,1.27,1.27,0,0,0,1.29,1.38,1.7,1.7,0,0,0,1.46-.83C369.33,51.29,368.93,50.35,367.85,50.35Z" fill="#fff"/></g><g style="isolation:isolate"><path d="M375.23,57.22v-8.4h1.49V56h3.52v1.27Z" fill="#fff"/></g><g style="isolation:isolate"><path d="M382.34,57.93l-1.21-.48L384.62,48l1.21.48Z" fill="#fff"/></g><g style="isolation:isolate"><path d="M387.85,51.92a1.82,1.82,0,0,1,1.5-1,2.48,2.48,0,0,1,.75.1l-.33,1.36a1.14,1.14,0,0,0-.59-.13,1.46,1.46,0,0,0-1.27.83v4.16h-1.46V51h1.33Z" fill="#fff"/><path d="M391.86,54.5a1.73,1.73,0,0,0,1.73,1.67,1.79,1.79,0,0,0,1.7-1l1,.66a3.18,3.18,0,0,1-5.87-1.7,3.13,3.13,0,0,1,3.1-3.27,2.81,2.81,0,0,1,2.92,2.86,6.15,6.15,0,0,1-.06.74Zm1.68-2.44A1.61,1.61,0,0,0,392,53.45h3A1.39,1.39,0,0,0,393.54,52.06Z" fill="#fff"/></g><g style="isolation:isolate"><path d="M403,51l-2.48,6.18h-1.21L396.93,51h1.61l1.4,4.22h0L401.38,51Z" fill="#fff"/></g><g style="isolation:isolate"><path d="M404.9,54.5a1.72,1.72,0,0,0,1.72,1.67,1.8,1.8,0,0,0,1.71-1l1,.66a3,3,0,0,1-2.77,1.49,3,3,0,0,1-3.11-3.19,3.14,3.14,0,0,1,3.11-3.27,2.8,2.8,0,0,1,2.91,2.86,4.62,4.62,0,0,1-.06.74Zm1.68-2.44a1.62,1.62,0,0,0-1.6,1.39h3A1.4,1.4,0,0,0,406.58,52.06Z" fill="#fff"/><path d="M412.12,51l.07.91a2.39,2.39,0,0,1,2-1.05,2.07,2.07,0,0,1,1.7.79,3.72,3.72,0,0,1,.55,2.31v3.22H415V54.11a3,3,0,0,0-.24-1.47,1,1,0,0,0-.93-.47,1.9,1.9,0,0,0-1.54.95v4.1H410.8V51Z" fill="#fff"/><path d="M422.39,57.22l-.07-.91a2.38,2.38,0,0,1-2,1,2.07,2.07,0,0,1-1.7-.79,3.72,3.72,0,0,1-.55-2.31V51h1.45v3.11a3,3,0,0,0,.24,1.47,1,1,0,0,0,.93.47,1.9,1.9,0,0,0,1.54-1V51h1.45v6.18Z" fill="#fff"/><path d="M426.52,54.5a1.73,1.73,0,0,0,1.73,1.67,1.79,1.79,0,0,0,1.7-1l1,.66a3.18,3.18,0,0,1-5.87-1.7,3.13,3.13,0,0,1,3.1-3.27,2.81,2.81,0,0,1,2.92,2.86,6.15,6.15,0,0,1-.06.74Zm1.68-2.44a1.62,1.62,0,0,0-1.6,1.39h3A1.39,1.39,0,0,0,428.2,52.06Z" fill="#fff"/></g></g><g style="isolation:isolate"><g style="isolation:isolate"><path d="M374,129.08v-2h-3.46v-1.36c1-1.3,2.36-3.16,3.44-4.65h1.46v4.76h1.15v1.25h-1.15v2Zm0-3.22v-2.8c-.57.87-1.45,2.18-1.91,2.8Z" fill="#fff"/></g><g style="isolation:isolate"><path d="M377.54,129.08v-1.63h1.59v1.63Z" fill="#fff"/></g><g style="isolation:isolate"><path d="M383.48,129.08v-2H380v-1.36c1-1.3,2.36-3.16,3.44-4.65h1.46v4.76h1.15v1.25h-1.15v2Zm0-3.22v-2.8c-.57.87-1.45,2.18-1.91,2.8Z" fill="#fff"/><path d="M388.06,129.08v-6.26c-.36.18-.84.36-1.17.5V122c.51-.25,1.12-.58,1.67-.89h1v8Z" fill="#fff"/><path d="M398.21,129.08l-1.56-2.49-.76.88v1.61h-1.45v-9h1.45v5.55l0,0,2.2-2.75h1.69l-2.18,2.56,2.36,3.62Z" fill="#fff"/><path d="M407.76,126.45h0l1.57-5.77H411l-2.4,8.4H407.1l-1.59-5.88h0l-1.68,5.88h-1.43l-2.32-8.4h1.64l1.5,5.77h0l1.61-5.77h1.39Z" fill="#fff"/></g><g style="isolation:isolate"><path d="M413.38,123.74a2.33,2.33,0,0,1,1.91-1,2.07,2.07,0,0,1,1.7.79,3.72,3.72,0,0,1,.55,2.31v3.22h-1.45V126a3,3,0,0,0-.24-1.47,1,1,0,0,0-.93-.47,1.9,1.9,0,0,0-1.54,1v4.1h-1.45v-9h1.45Z" fill="#fff"/></g><g style="isolation:isolate"><path d="M420,129.79l-1.21-.49,3.49-9.4,1.21.48Z" fill="#fff"/></g><g style="isolation:isolate"><path d="M425.48,123.78a1.82,1.82,0,0,1,1.5-1,2.48,2.48,0,0,1,.75.1l-.33,1.36a1.14,1.14,0,0,0-.59-.13,1.46,1.46,0,0,0-1.27.83v4.16h-1.46V122.9h1.33Z" fill="#fff"/><path d="M429.49,126.35a1.73,1.73,0,0,0,1.73,1.68,1.79,1.79,0,0,0,1.7-1l1,.66A3.18,3.18,0,0,1,428,126a3.13,3.13,0,0,1,3.1-3.27,2.81,2.81,0,0,1,2.92,2.86,5.83,5.83,0,0,1-.06.73Zm1.68-2.43a1.62,1.62,0,0,0-1.6,1.39h3A1.39,1.39,0,0,0,431.17,123.92Z" fill="#fff"/></g><g style="isolation:isolate"><path d="M440.58,122.9l-2.48,6.18h-1.21l-2.34-6.18h1.61l1.4,4.22h0L439,122.9Z" fill="#fff"/></g><g style="isolation:isolate"><path d="M442.52,126.35a1.72,1.72,0,0,0,1.72,1.68,1.8,1.8,0,0,0,1.71-1l1,.66a3,3,0,0,1-2.77,1.49,3,3,0,0,1-3.11-3.19,3.14,3.14,0,0,1,3.11-3.27,2.8,2.8,0,0,1,2.91,2.86,4.4,4.4,0,0,1-.06.73Zm1.68-2.43a1.62,1.62,0,0,0-1.6,1.39h3A1.4,1.4,0,0,0,444.2,123.92Z" fill="#fff"/><path d="M449.74,122.9l.07.91a2.37,2.37,0,0,1,2-1,2.07,2.07,0,0,1,1.7.79,3.72,3.72,0,0,1,.55,2.31v3.22h-1.45V126a3,3,0,0,0-.24-1.47,1,1,0,0,0-.93-.47,1.9,1.9,0,0,0-1.54,1v4.1h-1.45V122.9Z" fill="#fff"/><path d="M460,129.08l-.07-.91a2.38,2.38,0,0,1-2,1.05,2.07,2.07,0,0,1-1.7-.79,3.74,3.74,0,0,1-.55-2.31V122.9h1.45V126a3,3,0,0,0,.24,1.47,1,1,0,0,0,.93.47,1.9,1.9,0,0,0,1.54-1v-4.1h1.45v6.18Z" fill="#fff"/><path d="M464.14,126.35a1.73,1.73,0,0,0,1.73,1.68,1.79,1.79,0,0,0,1.7-1l1,.66a3.18,3.18,0,0,1-5.87-1.7,3.13,3.13,0,0,1,3.1-3.27,2.81,2.81,0,0,1,2.92,2.86,5.83,5.83,0,0,1-.06.73Zm1.68-2.43a1.62,1.62,0,0,0-1.6,1.39h3A1.39,1.39,0,0,0,465.82,123.92Z" fill="#fff"/></g></g><g style="isolation:isolate"><g style="isolation:isolate"><path d="M362.43,81c0,2.55-1,4.12-2.92,4.12s-2.9-1.57-2.9-4.12,1.05-4.14,2.9-4.14S362.43,78.4,362.43,81Zm-4.33,0c0,1.9.51,2.85,1.41,2.85s1.43-.95,1.43-2.85-.51-2.86-1.43-2.86S358.1,79.05,358.1,81Z" fill="#fff"/><path d="M363.56,85V83.32h1.59V85Z" fill="#fff"/><path d="M372.11,81c0,2.55-1,4.12-2.91,4.12s-2.9-1.57-2.9-4.12,1-4.14,2.9-4.14S372.11,78.4,372.11,81Zm-4.33,0c0,1.9.52,2.85,1.42,2.85s1.43-.95,1.43-2.85-.52-2.86-1.43-2.86S367.78,79.05,367.78,81Z" fill="#fff"/><path d="M374.3,85V78.69c-.36.18-.84.36-1.16.5V77.86c.5-.25,1.11-.58,1.66-.89h1v8Z" fill="#fff"/><path d="M380.53,85V83h-3.47V81.63c1-1.31,2.36-3.17,3.44-4.66H382v4.76h1.15V83H382v2Zm0-3.22v-2.8c-.58.87-1.46,2.18-1.91,2.8Z" fill="#fff"/></g><g style="isolation:isolate"><path d="M387.37,85v-8.4h1.49v7.13h3.52V85Z" fill="#fff"/></g><g style="isolation:isolate"><path d="M394.48,85.66l-1.21-.49,3.49-9.4,1.21.48Z" fill="#fff"/></g><g style="isolation:isolate"><path d="M400,79.65a1.82,1.82,0,0,1,1.5-1,2.48,2.48,0,0,1,.75.1l-.33,1.36a1.14,1.14,0,0,0-.59-.13,1.46,1.46,0,0,0-1.27.83V85H398.6V78.77h1.33Z" fill="#fff"/><path d="M404,82.22a1.73,1.73,0,0,0,1.73,1.68,1.79,1.79,0,0,0,1.7-1l1,.66a3.18,3.18,0,0,1-5.87-1.7,3.13,3.13,0,0,1,3.1-3.27,2.81,2.81,0,0,1,2.92,2.86,5.83,5.83,0,0,1-.06.73Zm1.68-2.43a1.62,1.62,0,0,0-1.6,1.39h3A1.39,1.39,0,0,0,405.69,79.79Z" fill="#fff"/></g><g style="isolation:isolate"><path d="M415.1,78.77,412.62,85h-1.21l-2.34-6.18h1.61l1.4,4.22h0l1.42-4.22Z" fill="#fff"/></g><g style="isolation:isolate"><path d="M417,82.22a1.72,1.72,0,0,0,1.72,1.68,1.8,1.8,0,0,0,1.71-1l1,.66a3,3,0,0,1-2.77,1.49,3,3,0,0,1-3.11-3.19,3.14,3.14,0,0,1,3.11-3.27,2.8,2.8,0,0,1,2.91,2.86,4.4,4.4,0,0,1-.06.73Zm1.68-2.43a1.62,1.62,0,0,0-1.6,1.39h3A1.4,1.4,0,0,0,418.71,79.79Z" fill="#fff"/><path d="M424.25,78.77l.07.91a2.37,2.37,0,0,1,2-1.05,2.07,2.07,0,0,1,1.7.79,3.72,3.72,0,0,1,.55,2.31V85h-1.45V81.84a3,3,0,0,0-.24-1.47,1,1,0,0,0-.93-.47,1.9,1.9,0,0,0-1.54.95V85h-1.45V78.77Z" fill="#fff"/><path d="M434.52,85l-.07-.91a2.38,2.38,0,0,1-2,1,2.07,2.07,0,0,1-1.7-.79,3.74,3.74,0,0,1-.55-2.31V78.77h1.45v3.11a3,3,0,0,0,.24,1.47,1,1,0,0,0,.93.47,1.9,1.9,0,0,0,1.54-.95v-4.1h1.45V85Z" fill="#fff"/><path d="M438.65,82.22a1.73,1.73,0,0,0,1.73,1.68,1.79,1.79,0,0,0,1.7-1l1,.66a3.18,3.18,0,0,1-5.87-1.7,3.13,3.13,0,0,1,3.1-3.27,2.81,2.81,0,0,1,2.92,2.86,5.83,5.83,0,0,1-.06.73Zm1.68-2.43a1.62,1.62,0,0,0-1.6,1.39h3A1.39,1.39,0,0,0,440.33,79.79Z" fill="#fff"/></g></g><g style="isolation:isolate"><g style="isolation:isolate"><path d="M276.72,156.81v-6.26c-.36.18-.84.36-1.16.5v-1.33c.5-.25,1.11-.58,1.67-.89h.95v8Z" fill="#fff"/><path d="M279.9,156.81v-1.63h1.6v1.63Z" fill="#fff"/></g><g style="isolation:isolate"><path d="M287.58,150.09H284.7c0,.64-.07,1.3-.13,1.88a2.66,2.66,0,0,1,1-.2,2.39,2.39,0,0,1,2.37,2.45,2.66,2.66,0,0,1-2.75,2.73,3,3,0,0,1-2.64-1.47l1.21-.64a1.43,1.43,0,0,0,1.35.85,1.31,1.31,0,0,0,1.34-1.39,1.25,1.25,0,0,0-1.33-1.28,1.34,1.34,0,0,0-1.1.49l-1-.64c.11-1.16.22-2.93.27-4h4.25Z" fill="#fff"/></g><g style="isolation:isolate"><path d="M290.43,152.09a4.62,4.62,0,0,0,1-.09,1.13,1.13,0,0,0,.93-1.06,1,1,0,0,0-1.14-1,1.1,1.1,0,0,0-1.11.84l-1.23-.54a2.38,2.38,0,0,1,2.35-1.56c1.43,0,2.6.83,2.6,2.13a2,2,0,0,1-1,1.71,2.06,2.06,0,0,1,1.37,2,2.54,2.54,0,0,1-2.79,2.46,2.86,2.86,0,0,1-2.65-1.53l1.2-.6a1.52,1.52,0,0,0,1.42.87,1.19,1.19,0,0,0,1.32-1.15c0-.77-.68-1.22-1.55-1.22a3.81,3.81,0,0,0-.76.07Z" fill="#fff"/><path d="M302.44,156.81l-1.56-2.48-.75.87v1.61h-1.45v-9h1.45v5.56h0l2.2-2.75H304l-2.18,2.56,2.36,3.62Z" fill="#fff"/><path d="M312,154.18h0l1.57-5.77h1.62l-2.4,8.4h-1.48l-1.58-5.88h0l-1.68,5.88h-1.43l-2.33-8.4h1.65l1.5,5.77h0l1.61-5.77h1.39Z" fill="#fff"/></g><g style="isolation:isolate"><path d="M317.63,151.47a2.33,2.33,0,0,1,1.91-1,2.07,2.07,0,0,1,1.7.79,3.72,3.72,0,0,1,.55,2.31v3.22h-1.45V153.7a3,3,0,0,0-.24-1.47,1,1,0,0,0-.93-.47,1.9,1.9,0,0,0-1.54,1v4.1h-1.45v-9h1.45Z" fill="#fff"/></g><g style="isolation:isolate"><path d="M324.19,157.52,323,157l3.49-9.41,1.21.48Z" fill="#fff"/></g><g style="isolation:isolate"><path d="M329.71,151.51a1.82,1.82,0,0,1,1.5-1,2.48,2.48,0,0,1,.75.1l-.33,1.36a1.14,1.14,0,0,0-.59-.13,1.46,1.46,0,0,0-1.27.83v4.16h-1.46v-6.18h1.33Z" fill="#fff"/><path d="M333.72,154.09a1.73,1.73,0,0,0,1.73,1.67,1.79,1.79,0,0,0,1.7-1l1,.66a3.18,3.18,0,0,1-5.87-1.7,3.13,3.13,0,0,1,3.1-3.27,2.81,2.81,0,0,1,2.92,2.86,6.15,6.15,0,0,1-.06.74Zm1.68-2.44a1.61,1.61,0,0,0-1.59,1.39h3A1.39,1.39,0,0,0,335.4,151.65Z" fill="#fff"/></g><g style="isolation:isolate"><path d="M344.82,150.63l-2.48,6.18h-1.21l-2.34-6.18h1.61l1.4,4.22h0l1.42-4.22Z" fill="#fff"/></g><g style="isolation:isolate"><path d="M346.74,154.09a1.72,1.72,0,0,0,1.72,1.67,1.8,1.8,0,0,0,1.71-1l1,.66a3,3,0,0,1-2.77,1.49,3,3,0,0,1-3.11-3.19,3.14,3.14,0,0,1,3.11-3.27,2.8,2.8,0,0,1,2.91,2.86,6.13,6.13,0,0,1-.05.74Zm1.68-2.44a1.62,1.62,0,0,0-1.6,1.39h3A1.4,1.4,0,0,0,348.42,151.65Z" fill="#fff"/><path d="M354,150.63l.07.91a2.41,2.41,0,0,1,2-1,2.07,2.07,0,0,1,1.7.79,3.72,3.72,0,0,1,.55,2.31v3.22H356.8V153.7a3,3,0,0,0-.24-1.47,1,1,0,0,0-.93-.47,1.9,1.9,0,0,0-1.54,1v4.1h-1.45v-6.18Z" fill="#fff"/><path d="M364.23,156.81l-.07-.91a2.38,2.38,0,0,1-2,1,2.07,2.07,0,0,1-1.7-.79,3.72,3.72,0,0,1-.55-2.31v-3.22h1.45v3.11a3,3,0,0,0,.24,1.47,1,1,0,0,0,.93.47,1.9,1.9,0,0,0,1.54-1v-4.1h1.45v6.18Z" fill="#fff"/><path d="M368.36,154.09a1.73,1.73,0,0,0,1.73,1.67,1.79,1.79,0,0,0,1.7-1l1,.66a3.18,3.18,0,0,1-5.87-1.7,3.13,3.13,0,0,1,3.1-3.27,2.81,2.81,0,0,1,2.92,2.86,6.15,6.15,0,0,1-.06.74Zm1.68-2.44a1.61,1.61,0,0,0-1.59,1.39h3A1.39,1.39,0,0,0,370,151.65Z" fill="#fff"/></g></g><g style="isolation:isolate"><g style="isolation:isolate"><path d="M205.06,57.08V55.46a47.73,47.73,0,0,0,4.45-5.2,5.49,5.49,0,0,0,1.16-2.68,1.9,1.9,0,0,0-2.07-1.75,2,2,0,0,0-2,2l-1.77-.36a3.78,3.78,0,0,1,3.84-3.19,3.59,3.59,0,0,1,3.84,3.34,6.53,6.53,0,0,1-1.35,3.47,40.78,40.78,0,0,1-3.7,4.43h5.62v1.6Z" fill="#c2384a"/></g><g style="isolation:isolate"><path d="M223.51,50.77c0,4-1.62,6.53-4.47,6.53s-4.46-2.48-4.46-6.53,1.62-6.53,4.46-6.53S223.51,46.72,223.51,50.77Zm-7.11,0c0,3.29,1,4.9,2.64,4.9s2.65-1.61,2.65-4.9-1-4.9-2.65-4.9S216.4,47.48,216.4,50.77Z" fill="#c2384a"/><path d="M227.21,57.08V46.63c-.58.3-1.36.61-1.89.83V45.79c.75-.38,1.69-.85,2.52-1.33H229V57.08Z" fill="#c2384a"/><path d="M233.26,56.18c2.31-1,4.19-2.45,4.86-4.9a3.88,3.88,0,0,1-2.85,1.16,3.78,3.78,0,0,1-3.7-4.06,4,4,0,0,1,4-4.14c2.91,0,4.62,2.39,4.62,5A9.38,9.38,0,0,1,234,57.78Zm5.13-6.93c0-1.75-.74-3.42-2.66-3.42a2.36,2.36,0,0,0-2.34,2.58,2.22,2.22,0,0,0,2.26,2.44A3.14,3.14,0,0,0,238.39,49.25Z" fill="#c2384a"/></g></g><g style="isolation:isolate"><g style="isolation:isolate"><path d="M204.28,128.94v-1.62a46.8,46.8,0,0,0,4.45-5.2,5.49,5.49,0,0,0,1.16-2.68,1.9,1.9,0,0,0-2.07-1.75,2,2,0,0,0-2,2l-1.77-.36a3.78,3.78,0,0,1,3.84-3.19,3.59,3.59,0,0,1,3.84,3.34,6.6,6.6,0,0,1-1.35,3.48,40.67,40.67,0,0,1-3.7,4.42h5.62v1.6Z" fill="#c2384a"/></g><g style="isolation:isolate"><path d="M222.73,122.63c0,4.05-1.62,6.54-4.47,6.54s-4.46-2.49-4.46-6.54,1.61-6.53,4.46-6.53S222.73,118.58,222.73,122.63Zm-7.11,0c0,3.29,1,4.9,2.64,4.9s2.64-1.61,2.64-4.9-1-4.9-2.64-4.9S215.62,119.34,215.62,122.63Z" fill="#c2384a"/><path d="M226.43,128.94V118.49c-.58.3-1.36.61-1.9.84v-1.68c.76-.38,1.7-.85,2.53-1.33h1.16v12.62Z" fill="#c2384a"/><path d="M232.48,128c2.31-1,4.2-2.45,4.86-4.9a3.88,3.88,0,0,1-2.85,1.16,3.78,3.78,0,0,1-3.7-4.06,4,4,0,0,1,4-4.14c2.91,0,4.62,2.39,4.62,5a9.38,9.38,0,0,1-6.21,8.51Zm5.13-6.93c0-1.75-.75-3.42-2.66-3.42a2.36,2.36,0,0,0-2.34,2.58,2.22,2.22,0,0,0,2.26,2.44A3.14,3.14,0,0,0,237.61,121.11Z" fill="#c2384a"/></g></g><g style="isolation:isolate"><g style="isolation:isolate"><path d="M213.31,84.82H205V83a47.37,47.37,0,0,0,4.35-5.14,4.78,4.78,0,0,0,1-2.4A1.54,1.54,0,0,0,208.71,74,1.69,1.69,0,0,0,207,75.79l-2.3-.4a3.9,3.9,0,0,1,4-3.43c2,0,4,1.29,4,3.43a6.41,6.41,0,0,1-1.33,3.52,37.8,37.8,0,0,1-3.31,3.93h5.19Z" fill="#730526"/></g><g style="isolation:isolate"><path d="M223.89,78.51c0,4-1.65,6.53-4.62,6.53s-4.6-2.48-4.6-6.53,1.66-6.55,4.6-6.55S223.89,74.45,223.89,78.51Zm-6.86,0c0,3,.82,4.52,2.24,4.52s2.26-1.5,2.26-4.52S220.72,74,219.27,74,217,75.47,217,78.51Z" fill="#730526"/></g><g style="isolation:isolate"><path d="M233.92,84.82h-8.29V83A47.37,47.37,0,0,0,230,77.83a4.78,4.78,0,0,0,1-2.4A1.54,1.54,0,0,0,229.32,74a1.69,1.69,0,0,0-1.67,1.84l-2.3-.4A3.9,3.9,0,0,1,229.4,72c2,0,4,1.29,4,3.43A6.41,6.41,0,0,1,232,78.91a37.8,37.8,0,0,1-3.31,3.93h5.19Z" fill="#730526"/></g><g style="isolation:isolate"><path d="M244.51,78.51c0,4-1.66,6.53-4.62,6.53s-4.6-2.48-4.6-6.53S237,72,239.89,72,244.51,74.45,244.51,78.51Zm-6.86,0c0,3,.82,4.52,2.24,4.52s2.26-1.5,2.26-4.52S241.34,74,239.89,74,237.65,75.47,237.65,78.51Z" fill="#730526"/></g></g><g style="isolation:isolate"><g style="isolation:isolate"><path d="M212.53,156.68h-8.29v-1.84a48.44,48.44,0,0,0,4.35-5.15,4.78,4.78,0,0,0,1-2.4,1.54,1.54,0,0,0-1.69-1.48,1.69,1.69,0,0,0-1.67,1.84l-2.3-.4a3.91,3.91,0,0,1,4-3.43c2,0,4,1.29,4,3.43a6.41,6.41,0,0,1-1.33,3.52,37.8,37.8,0,0,1-3.31,3.93h5.19Z" fill="#730526"/></g><g style="isolation:isolate"><path d="M223.11,150.37c0,4-1.66,6.54-4.62,6.54s-4.6-2.49-4.6-6.54,1.66-6.55,4.6-6.55S223.11,146.31,223.11,150.37Zm-6.86,0c0,3,.82,4.52,2.24,4.52s2.26-1.5,2.26-4.52-.81-4.52-2.26-4.52S216.25,147.33,216.25,150.37Z" fill="#730526"/></g><g style="isolation:isolate"><path d="M233.14,156.68h-8.29v-1.84a48.44,48.44,0,0,0,4.35-5.15,4.78,4.78,0,0,0,1-2.4,1.54,1.54,0,0,0-1.69-1.48,1.69,1.69,0,0,0-1.67,1.84l-2.3-.4a3.91,3.91,0,0,1,4.05-3.43c2,0,4,1.29,4,3.43a6.41,6.41,0,0,1-1.33,3.52A37.8,37.8,0,0,1,228,154.7h5.19Z" fill="#730526"/></g><g style="isolation:isolate"><path d="M243.73,150.37c0,4-1.66,6.54-4.62,6.54s-4.6-2.49-4.6-6.54,1.66-6.55,4.6-6.55S243.73,146.31,243.73,150.37Zm-6.86,0c0,3,.82,4.52,2.24,4.52s2.26-1.5,2.26-4.52-.81-4.52-2.26-4.52S236.87,147.33,236.87,150.37Z" fill="#730526"/></g></g><g style="isolation:isolate"><path d="M68.36,45.2h2.87c2.6,0,5.51,1.36,5.51,5s-2.87,5.12-5.65,5.12H68.36Zm1.8,8.61h.33c2.58,0,4.35-.88,4.35-3.45,0-2.36-1.43-3.62-3.85-3.62h-.83Z" fill="#c2384a"/><path d="M78.61,46.67V45h1.76v1.64Zm0,8.68V47.88h1.76v7.47Z" fill="#c2384a"/><path d="M83.76,52.06a2.1,2.1,0,0,0,2.09,2,2.19,2.19,0,0,0,2.06-1.16l1.19.79a3.67,3.67,0,0,1-3.35,1.8A3.62,3.62,0,0,1,82,51.67a3.8,3.8,0,0,1,3.76-4,3.38,3.38,0,0,1,3.52,3.46,6.67,6.67,0,0,1-.07.89Zm2-3a2,2,0,0,0-1.93,1.69h3.61A1.69,1.69,0,0,0,85.79,49.11Z" fill="#c2384a"/><path d="M94.79,49.69a2.39,2.39,0,0,0-1.47-.58c-.51,0-.89.28-.89.73s.63.77,1.29,1c1,.38,2.18.89,2.18,2.26,0,1.66-1.37,2.38-2.82,2.38a3.73,3.73,0,0,1-2.82-1.23l1.07-1a2.34,2.34,0,0,0,1.71.85c.54,0,1.12-.27,1.12-.86s-.73-.81-1.39-1.09c-.89-.36-2-.87-2-2.2a2.32,2.32,0,0,1,2.57-2.26,3.57,3.57,0,0,1,2.46.91Z" fill="#c2384a"/><path d="M98.9,52.06a2.1,2.1,0,0,0,2.09,2A2.16,2.16,0,0,0,103,52.93l1.19.79a3.84,3.84,0,0,1-7.1-2,3.8,3.8,0,0,1,3.75-4,3.39,3.39,0,0,1,3.53,3.46,5.35,5.35,0,0,1-.08.89Zm2-3A2,2,0,0,0,99,50.8h3.61A1.69,1.69,0,0,0,100.93,49.11Z" fill="#c2384a"/><path d="M107.79,55.35H106V44.48h1.76Z" fill="#c2384a"/></g><g style="isolation:isolate"><g style="isolation:isolate"><path d="M37.82,13.87V2h2.43v11.9Z" fill="#c2384a"/><path d="M44.84,4.93,45,6.15a3.39,3.39,0,0,1,2.77-1.43,3,3,0,0,1,2.38,1.17A5.26,5.26,0,0,1,51,9.23v4.64H48.56V9.35a4.73,4.73,0,0,0-.27-1.93A1.23,1.23,0,0,0,47.1,6.8a2.32,2.32,0,0,0-1.94,1.13v5.94H42.75V4.93Z" fill="#c2384a"/><path d="M55.77,6.93V10.4a6.27,6.27,0,0,0,0,.76c.07.53.27.85.78.85a2.05,2.05,0,0,0,1-.25l.75,1.78a4.53,4.53,0,0,1-2.12.53,2.58,2.58,0,0,1-2.66-1.92,5.47,5.47,0,0,1-.17-1.5V6.93H52.28v-2h1.07l.38-2h2v2h2.28v2Z" fill="#c2384a"/><path d="M61.51,10a2.25,2.25,0,0,0,2.25,2.14,2.53,2.53,0,0,0,2.33-1.32l1.58,1.07a4.46,4.46,0,0,1-4.08,2.19A4.33,4.33,0,0,1,59.07,9.5,4.59,4.59,0,0,1,63.6,4.72a4.1,4.1,0,0,1,4.32,4.13A6.3,6.3,0,0,1,67.8,10Zm3.95-1.65a1.72,1.72,0,0,0-1.79-1.73,2,2,0,0,0-2,1.73Z" fill="#c2384a"/><path d="M71.76,4.93,72,6.15a3.39,3.39,0,0,1,2.77-1.43A3,3,0,0,1,77.1,5.89a5.26,5.26,0,0,1,.8,3.34v4.64H75.49V9.35a4.73,4.73,0,0,0-.27-1.93A1.24,1.24,0,0,0,74,6.8a2.32,2.32,0,0,0-1.94,1.13v5.94H69.67V4.93Z" fill="#c2384a"/><path d="M85,7.36a2.74,2.74,0,0,0-1.77-.75c-.46,0-.86.25-.86.68s.66.85,1.41,1.15c1.15.48,2.62,1.06,2.62,2.76,0,2-1.7,2.87-3.44,2.87a5,5,0,0,1-3.6-1.53l1.37-1.43a2.86,2.86,0,0,0,2.11,1.06c.5,0,1.14-.24,1.14-.78s-.81-.91-1.7-1.3C81.25,9.63,80.08,9,80.08,7.46c0-1.82,1.56-2.74,3.19-2.74a4.45,4.45,0,0,1,3.1,1.17Z" fill="#c2384a"/><path d="M88.36,3.69V1.63h2.41V3.69Zm0,10.18V4.93h2.41v8.94Z" fill="#c2384a"/></g><g style="isolation:isolate"><path d="M95.63,6.93V10.4a6.27,6.27,0,0,0,0,.76c.07.53.27.85.78.85a2.05,2.05,0,0,0,1-.25l.75,1.78a4.53,4.53,0,0,1-2.12.53,2.58,2.58,0,0,1-2.66-1.92,5.48,5.48,0,0,1-.16-1.5V6.93H92.14v-2h1.08l.37-2h2v2h2.28v2Z" fill="#c2384a"/></g><g style="isolation:isolate"><path d="M101.3,4.93l1.8,5.32h0L105,4.93h2.62l-5,13-2.15-.83,1.42-3.79L98.66,4.93Z" fill="#c2384a"/><path d="M121.81,9.4a4.68,4.68,0,0,1-9.36,0,4.68,4.68,0,1,1,9.36,0Zm-4.67-2.6a2.35,2.35,0,0,0-2.23,2.6,2.25,2.25,0,1,0,4.44,0A2.34,2.34,0,0,0,117.14,6.8Z" fill="#c2384a"/><path d="M128.44,3.28A2.44,2.44,0,0,0,127.2,3a.85.85,0,0,0-.74.27,1.88,1.88,0,0,0-.24,1.09v.58h2.22v2h-2.22v6.94H123.8V6.93h-1v-2h1V4.21a3.66,3.66,0,0,1,.65-2.38A3,3,0,0,1,127,.91a5.34,5.34,0,0,1,2.22.51Z" fill="#c2384a"/><path d="M135.72,10A2.25,2.25,0,0,0,138,12.13a2.51,2.51,0,0,0,2.33-1.32l1.58,1.07a4.45,4.45,0,0,1-4.08,2.19,4.33,4.33,0,0,1-4.52-4.57,4.59,4.59,0,0,1,4.54-4.78,4.11,4.11,0,0,1,4.32,4.13A6.3,6.3,0,0,1,142,10Zm3.94-1.65a1.71,1.71,0,0,0-1.78-1.73,2,2,0,0,0-2,1.73Z" fill="#c2384a"/><path d="M146,4.93l.19,1.22a3.37,3.37,0,0,1,2.77-1.43,3,3,0,0,1,2.38,1.17,5.26,5.26,0,0,1,.8,3.34v4.64h-2.42V9.35a4.57,4.57,0,0,0-.27-1.93,1.22,1.22,0,0,0-1.19-.62,2.34,2.34,0,0,0-1.94,1.13v5.94h-2.41V4.93Z" fill="#c2384a"/><path d="M156.22,10a2.25,2.25,0,0,0,2.25,2.14,2.53,2.53,0,0,0,2.33-1.32l1.58,1.07a4.46,4.46,0,0,1-4.08,2.19,4.33,4.33,0,0,1-4.52-4.57,4.59,4.59,0,0,1,4.53-4.78,4.1,4.1,0,0,1,4.32,4.13,6.3,6.3,0,0,1-.12,1.14Zm3.95-1.65a1.72,1.72,0,0,0-1.79-1.73,2,2,0,0,0-2,1.73Z" fill="#c2384a"/><path d="M166.66,6.12a2.5,2.5,0,0,1,2.09-1.4,3.38,3.38,0,0,1,1.16.21L169.33,7a1.87,1.87,0,0,0-.85-.2,2,2,0,0,0-1.68,1v6h-2.42V4.93h2.09Z" fill="#c2384a"/><path d="M179.34,13.39a4.61,4.61,0,0,1-.56,2.38,4.34,4.34,0,0,1-3.94,2,7.51,7.51,0,0,1-4.13-1.23l.88-2a5.64,5.64,0,0,0,3.16,1.14,2,2,0,0,0,2.18-2.11v-.81a3.36,3.36,0,0,1-2.64,1.14,4.34,4.34,0,0,1-4.16-4.61,4.31,4.31,0,0,1,4.2-4.54A3.3,3.3,0,0,1,177.05,6l.2-1.05h2.09Zm-2.41-5.63a2.61,2.61,0,0,0-2.08-1,2.31,2.31,0,0,0-2.26,2.53,2.29,2.29,0,0,0,2.23,2.46,2.37,2.37,0,0,0,2.11-1.17Z" fill="#c2384a"/><path d="M183.13,4.93l1.8,5.32h0l1.83-5.32h2.62l-5,13-2.16-.83,1.43-3.79L180.5,4.93Z" fill="#c2384a"/><path d="M202,13a4.63,4.63,0,0,1-3.22,1.1,4.41,4.41,0,0,1-4.53-4.67,4.52,4.52,0,0,1,4.6-4.68A4.79,4.79,0,0,1,202,5.83L200.8,7.51a2.37,2.37,0,0,0-4.05,1.89A2.41,2.41,0,0,0,199,12a2.31,2.31,0,0,0,1.71-.68Z" fill="#c2384a"/><path d="M212.34,9.4a4.69,4.69,0,0,1-9.37,0,4.69,4.69,0,0,1,9.37,0Zm-4.68-2.6a2.35,2.35,0,0,0-2.22,2.6,2.24,2.24,0,1,0,4.43,0A2.34,2.34,0,0,0,207.66,6.8Z" fill="#c2384a"/><path d="M216.16,4.93l.19,1.22a3.38,3.38,0,0,1,2.77-1.43,3,3,0,0,1,2.38,1.17,5.26,5.26,0,0,1,.8,3.34v4.64h-2.41V9.35a4.57,4.57,0,0,0-.28-1.93,1.22,1.22,0,0,0-1.19-.62,2.32,2.32,0,0,0-1.93,1.13v5.94h-2.42V4.93Z" fill="#c2384a"/><path d="M229.44,7.36a2.74,2.74,0,0,0-1.77-.75c-.46,0-.86.25-.86.68s.66.85,1.41,1.15c1.15.48,2.61,1.06,2.61,2.76,0,2-1.7,2.87-3.43,2.87a5,5,0,0,1-3.6-1.53l1.37-1.43a2.84,2.84,0,0,0,2.11,1.06c.49,0,1.14-.24,1.14-.78s-.82-.91-1.7-1.3c-1.07-.46-2.24-1.07-2.24-2.63,0-1.82,1.56-2.74,3.19-2.74a4.45,4.45,0,0,1,3.1,1.17Z" fill="#c2384a"/><path d="M238.82,13.87l-.18-1.23a3.37,3.37,0,0,1-2.77,1.43,3,3,0,0,1-2.38-1.17,5.23,5.23,0,0,1-.8-3.33V4.93h2.41V9.45a4.71,4.71,0,0,0,.27,1.92,1.24,1.24,0,0,0,1.19.63,2.33,2.33,0,0,0,1.94-1.14V4.93h2.41v8.94Z" fill="#c2384a"/><path d="M254.34,13.87V9.35a4.57,4.57,0,0,0-.27-1.93,1.21,1.21,0,0,0-1.19-.62,2.2,2.2,0,0,0-1.75,1,12.39,12.39,0,0,1,.09,1.41v4.64H248.8V9.35a4.46,4.46,0,0,0-.27-1.94,1.18,1.18,0,0,0-1.14-.61,2.46,2.46,0,0,0-1.71.88v6.19h-2.42V4.93h2.09L245.52,6a3.32,3.32,0,0,1,2.59-1.29,2.92,2.92,0,0,1,2.53,1.5,3.47,3.47,0,0,1,3-1.5A2.94,2.94,0,0,1,256,5.88a5.24,5.24,0,0,1,.8,3.35v4.64Z" fill="#c2384a"/><path d="M261.13,4.93l.19,1.1a3.32,3.32,0,0,1,2.77-1.31c2.38,0,4.16,2.11,4.16,4.71a4.39,4.39,0,0,1-4.18,4.64A3.51,3.51,0,0,1,261.45,13v5.12H259V4.93Zm.32,6.1a2.58,2.58,0,0,0,2.08,1,2.4,2.4,0,0,0,2.26-2.64A2.32,2.32,0,0,0,261.45,8Z" fill="#c2384a"/><path d="M272.5,6.93V10.4a4.72,4.72,0,0,0,0,.76c.06.53.27.85.78.85a2.12,2.12,0,0,0,1-.25l.74,1.78a4.47,4.47,0,0,1-2.12.53,2.57,2.57,0,0,1-2.65-1.92,5.11,5.11,0,0,1-.17-1.5V6.93H269v-2h1.07l.37-2h2v2h2.28v2Z" fill="#c2384a"/><path d="M276.41,3.69V1.63h2.41V3.69Zm0,10.18V4.93h2.41v8.94Z" fill="#c2384a"/><path d="M289.93,9.4a4.69,4.69,0,0,1-9.37,0,4.69,4.69,0,0,1,9.37,0Zm-4.68-2.6A2.36,2.36,0,0,0,283,9.4a2.25,2.25,0,1,0,4.44,0A2.34,2.34,0,0,0,285.25,6.8Z" fill="#c2384a"/><path d="M293.75,4.93l.19,1.22a3.37,3.37,0,0,1,2.77-1.43,3,3,0,0,1,2.38,1.17,5.33,5.33,0,0,1,.8,3.34v4.64h-2.42V9.35a4.57,4.57,0,0,0-.27-1.93A1.22,1.22,0,0,0,296,6.8a2.34,2.34,0,0,0-1.94,1.13v5.94h-2.41V4.93Z" fill="#c2384a"/></g></g><g style="isolation:isolate"><g style="isolation:isolate"><path d="M68,120.5V110.35h6.34v1.54H69.77v2.62h4.54v1.54H69.77V119h4.54v1.54Z" fill="#c2384a"/><path d="M78,120.5H76.24V109.63H78Z" fill="#c2384a"/><path d="M81.38,117.21a2.1,2.1,0,0,0,2.09,2,2.18,2.18,0,0,0,2.06-1.16l1.19.79a3.67,3.67,0,0,1-3.35,1.8,3.62,3.62,0,0,1-3.75-3.85,3.79,3.79,0,0,1,3.75-4,3.38,3.38,0,0,1,3.52,3.46,6.67,6.67,0,0,1-.07.89Zm2-2.95A2,2,0,0,0,81.49,116H85.1A1.69,1.69,0,0,0,83.41,114.26Z" fill="#c2384a"/></g><g style="isolation:isolate"><path d="M94.29,119.83a3.77,3.77,0,0,1-2.53.84A3.7,3.7,0,0,1,88,116.76a3.8,3.8,0,0,1,3.87-3.9,3.89,3.89,0,0,1,2.4.8l-.87,1.3a2.36,2.36,0,1,0,0,3.62Z" fill="#c2384a"/></g><g style="isolation:isolate"><path d="M97.8,114.51v3.09c0,.22,0,.39,0,.62.06.58.27.91.82.91a1.66,1.66,0,0,0,.82-.2l.52,1.33a3.47,3.47,0,0,1-1.62.4,2.08,2.08,0,0,1-2.13-1.42,4,4,0,0,1-.19-1.38v-3.35H95.1V113H96l.19-1.71H97.8V113h2v1.48Z" fill="#c2384a"/><path d="M102.93,114.09a2.21,2.21,0,0,1,1.81-1.23,2.75,2.75,0,0,1,.9.13l-.39,1.64a1.38,1.38,0,0,0-.71-.16,1.74,1.74,0,0,0-1.53,1v5h-1.77V113h1.61Z" fill="#c2384a"/><path d="M106.56,111.81v-1.63h1.75v1.63Zm0,8.69V113h1.75v7.47Z" fill="#c2384a"/><path d="M116.26,119.83a3.74,3.74,0,0,1-2.52.84,3.71,3.71,0,0,1-3.8-3.91,3.8,3.8,0,0,1,3.87-3.9,3.89,3.89,0,0,1,2.4.8l-.87,1.3a2.36,2.36,0,1,0,0,3.62Z" fill="#c2384a"/><path d="M117.68,111.81v-1.63h1.75v1.63Zm0,8.69V113h1.75v7.47Z" fill="#c2384a"/></g><g style="isolation:isolate"><path d="M123.42,114.51v3.09c0,.22,0,.39,0,.62.06.58.27.91.82.91a1.69,1.69,0,0,0,.82-.2l.52,1.33a3.47,3.47,0,0,1-1.62.4,2.08,2.08,0,0,1-2.13-1.42,4,4,0,0,1-.19-1.38v-3.35h-.93V113h.93l.19-1.71h1.58V113h2v1.48Z" fill="#c2384a"/></g><g style="isolation:isolate"><path d="M128,113l1.68,4.94h0l1.71-4.94h1.91l-4.2,10.86-1.57-.6,1.19-3.14L126,113Z" fill="#c2384a"/></g></g><g clip-path="url(#clip-path)"><rect y="26.52" width="303.4" height="1" fill="#c2384a"/></g><g style="isolation:isolate"><g style="isolation:isolate"><path d="M71.3,171.81l.65.74-.78.51-.4-.92-.59.92-.67-.51.78-.74-1-.18.36-.84.86.43,0-1h.88l-.24,1,1-.44.18.84Z" fill="#c2384a"/><path d="M74.54,169.92l-.24,2.34a1.78,1.78,0,0,1,1.31-.57,1.82,1.82,0,0,1,1.75,2.16,2.32,2.32,0,0,1-2.2,2.13,1.45,1.45,0,0,1-1.22-.57l-.09.48H73l.6-6Zm-.48,4.7a1.17,1.17,0,0,0,1,.52,1.37,1.37,0,0,0,1.32-1.31,1.08,1.08,0,0,0-1-1.29,1.34,1.34,0,0,0-1.13.63Z" fill="#c2384a"/><path d="M80.51,175.89v-.39a1.53,1.53,0,0,1-1.21.48c-.77,0-1.43-.42-1.35-1.28.11-1,1.08-1.33,2-1.33a3.85,3.85,0,0,1,.76.08v-.09c.06-.56-.16-.89-.79-.89a3.1,3.1,0,0,0-1.3.35l-.19-.72a4.32,4.32,0,0,1,1.75-.41c1.16,0,1.6.66,1.49,1.72l-.25,2.48Zm.08-1.82A3.1,3.1,0,0,0,80,174c-.46,0-1,.15-1.07.68s.26.6.64.6a1.58,1.58,0,0,0,1-.41Z" fill="#c2384a"/><path d="M85,172.79a1.16,1.16,0,0,0-.78-.32.49.49,0,0,0-.53.39c0,.28.3.43.65.58.51.2,1.15.48,1.07,1.24a1.52,1.52,0,0,1-1.68,1.3,1.87,1.87,0,0,1-1.48-.67l.64-.56a1.18,1.18,0,0,0,.9.46c.29,0,.63-.14.66-.47s-.35-.44-.71-.6-1-.47-1-1.2a1.43,1.43,0,0,1,1.53-1.25,1.79,1.79,0,0,1,1.31.51Z" fill="#c2384a"/><path d="M87.1,174.08a1,1,0,0,0,1,1.12,1.34,1.34,0,0,0,1.2-.64l.61.44A2.28,2.28,0,0,1,88,176a1.77,1.77,0,0,1-1.85-2.11,2.36,2.36,0,0,1,2.28-2.18,1.66,1.66,0,0,1,1.74,1.91,2.7,2.7,0,0,1-.09.48Zm1.28-1.61a1.22,1.22,0,0,0-1.16.92h2A.82.82,0,0,0,88.38,172.47Z" fill="#c2384a"/><path d="M94.71,175.89h-.89v-.53a1.68,1.68,0,0,1-1.34.62,1.81,1.81,0,0,1-1.75-2.15,2.32,2.32,0,0,1,2.19-2.14,1.53,1.53,0,0,1,1.18.52l.23-2.29h1ZM94,173.05a1.17,1.17,0,0,0-1-.51,1.38,1.38,0,0,0-1.32,1.31,1.08,1.08,0,0,0,1,1.29,1.34,1.34,0,0,0,1.13-.64Z" fill="#c2384a"/><path d="M102.05,173.83A2.37,2.37,0,0,1,99.71,176a1.86,1.86,0,0,1-1.91-2.15,2.36,2.36,0,0,1,2.34-2.14A1.87,1.87,0,0,1,102.05,173.83Zm-2-1.29a1.35,1.35,0,0,0-1.27,1.29,1.07,1.07,0,0,0,1,1.31,1.36,1.36,0,0,0,1.28-1.31A1.07,1.07,0,0,0,100.05,172.54Z" fill="#c2384a"/><path d="M104,171.79v.6a1.78,1.78,0,0,1,1.37-.7,1.22,1.22,0,0,1,1.08.53,2.37,2.37,0,0,1,.21,1.53l-.21,2.14h-1l.21-2.06a1.85,1.85,0,0,0-.06-1,.58.58,0,0,0-.59-.31,1.44,1.44,0,0,0-1.08.63l-.28,2.72h-1l.41-4.1Z" fill="#c2384a"/></g><g style="isolation:isolate"><path d="M110.92,173.58l-.24,2.31h-1l.56-5.57h3l-.09.84h-2l-.16,1.58h2l-.08.84Z" fill="#c2384a"/></g><g style="isolation:isolate"><path d="M115.05,175.89l.24-2.37-1.45-3.2h1.22l.87,2.14h0l1.34-2.14h1.15l-2.16,3.24-.24,2.33Z" fill="#c2384a"/><path d="M121.78,172.37a1.36,1.36,0,0,1,1.06-.68,1.48,1.48,0,0,1,.49.08l-.31.9a.67.67,0,0,0-.38-.09,1.09,1.09,0,0,0-.9.55l-.28,2.76h-1l.41-4.1h.89Z" fill="#c2384a"/><path d="M124.26,174.08a1,1,0,0,0,1,1.12,1.34,1.34,0,0,0,1.19-.64l.61.44a2.27,2.27,0,0,1-1.94,1,1.77,1.77,0,0,1-1.85-2.11,2.36,2.36,0,0,1,2.28-2.18,1.67,1.67,0,0,1,1.75,1.91,4,4,0,0,1-.09.48Zm1.28-1.61a1.2,1.2,0,0,0-1.15.92h2A.82.82,0,0,0,125.54,172.47Z" fill="#c2384a"/></g><g style="isolation:isolate"><path d="M131.86,171.79l-2.06,4.1H129l-1.14-4.1h1.07l.64,2.8h0l1.22-2.8Z" fill="#c2384a"/></g><g style="isolation:isolate"><path d="M132.91,174.08a1,1,0,0,0,1,1.12,1.34,1.34,0,0,0,1.19-.64l.61.44a2.27,2.27,0,0,1-1.94,1,1.77,1.77,0,0,1-1.85-2.11,2.36,2.36,0,0,1,2.28-2.18A1.67,1.67,0,0,1,136,173.6a4,4,0,0,1-.09.48Zm1.28-1.61a1.2,1.2,0,0,0-1.15.92h2A.82.82,0,0,0,134.19,172.47Z" fill="#c2384a"/><path d="M137.94,171.79l0,.6a1.82,1.82,0,0,1,1.38-.7,1.25,1.25,0,0,1,1.08.53,2.37,2.37,0,0,1,.21,1.53l-.22,2.14h-1l.21-2.06a2.08,2.08,0,0,0-.06-1,.59.59,0,0,0-.59-.31,1.44,1.44,0,0,0-1.09.63l-.27,2.72h-1l.42-4.1Z" fill="#c2384a"/><path d="M144.34,175.89v-.61a1.76,1.76,0,0,1-1.38.7,1.27,1.27,0,0,1-1.08-.52,2.39,2.39,0,0,1-.21-1.54l.22-2.13h1l-.21,2.06a2.1,2.1,0,0,0,.06,1,.59.59,0,0,0,.59.31,1.44,1.44,0,0,0,1.09-.63l.27-2.72h1l-.42,4.1Z" fill="#c2384a"/><path d="M147.26,174.08a1,1,0,0,0,1,1.12,1.33,1.33,0,0,0,1.19-.64l.61.44a2.26,2.26,0,0,1-1.94,1,1.77,1.77,0,0,1-1.85-2.11,2.36,2.36,0,0,1,2.29-2.18,1.66,1.66,0,0,1,1.74,1.91,2.7,2.7,0,0,1-.09.48Zm1.27-1.61a1.2,1.2,0,0,0-1.15.92h2A.82.82,0,0,0,148.53,172.47Z" fill="#c2384a"/><path d="M153,175.89l.41-4.1h1l-.42,4.1Zm.48-4.77.09-.9h1l-.09.9Z" fill="#c2384a"/><path d="M156.43,171.79l0,.6a1.82,1.82,0,0,1,1.38-.7,1.25,1.25,0,0,1,1.08.53,2.37,2.37,0,0,1,.21,1.53l-.22,2.14h-1l.21-2.06a2.08,2.08,0,0,0-.06-1,.59.59,0,0,0-.59-.31,1.44,1.44,0,0,0-1.09.63l-.27,2.72h-1l.42-4.1Z" fill="#c2384a"/><path d="M167.24,175.89l.21-2.06a2,2,0,0,0,0-1,.58.58,0,0,0-.58-.31,1.38,1.38,0,0,0-1,.55,3.77,3.77,0,0,1,0,.66l-.21,2.14h-1l.21-2.06a1.87,1.87,0,0,0-.06-1,.54.54,0,0,0-.54-.28,1.47,1.47,0,0,0-1,.55l-.28,2.8h-1l.42-4.1h.88v.55a1.74,1.74,0,0,1,1.29-.65,1.19,1.19,0,0,1,1,.56.77.77,0,0,1,.07.16,1.85,1.85,0,0,1,1.47-.72,1.18,1.18,0,0,1,1,.51,2.3,2.3,0,0,1,.22,1.55l-.21,2.14Z" fill="#c2384a"/><path d="M169.37,175.89l.41-4.1h1l-.41,4.1Zm.48-4.77.09-.9h1l-.09.9Z" fill="#c2384a"/><path d="M172.49,175.89h-1l.61-6h1Z" fill="#c2384a"/><path d="M174.64,175.89h-1l.6-6h1Z" fill="#c2384a"/><path d="M175.84,175.89l.41-4.1h1l-.42,4.1Zm.48-4.77.09-.9h1l-.09.9Z" fill="#c2384a"/><path d="M182.15,173.83a2.36,2.36,0,0,1-2.34,2.15,1.86,1.86,0,0,1-1.91-2.15,2.37,2.37,0,0,1,2.34-2.14A1.86,1.86,0,0,1,182.15,173.83Zm-2-1.29a1.36,1.36,0,0,0-1.28,1.29,1.08,1.08,0,0,0,1,1.31,1.36,1.36,0,0,0,1.28-1.31A1.06,1.06,0,0,0,180.16,172.54Z" fill="#c2384a"/><path d="M184.12,171.79v.6a1.79,1.79,0,0,1,1.38-.7,1.25,1.25,0,0,1,1.08.53,2.37,2.37,0,0,1,.21,1.53l-.22,2.14h-1l.21-2.06a2.08,2.08,0,0,0-.06-1,.59.59,0,0,0-.59-.31,1.44,1.44,0,0,0-1.09.63l-.27,2.72h-1l.42-4.1Z" fill="#c2384a"/><path d="M190.17,172.79a1.16,1.16,0,0,0-.78-.32.49.49,0,0,0-.53.39c0,.28.3.43.65.58.51.2,1.15.48,1.07,1.24a1.52,1.52,0,0,1-1.67,1.3,1.89,1.89,0,0,1-1.49-.67l.65-.56a1.14,1.14,0,0,0,.89.46.59.59,0,0,0,.66-.47c0-.28-.35-.44-.7-.6s-1.06-.47-1-1.2a1.44,1.44,0,0,1,1.54-1.25,1.76,1.76,0,0,1,1.3.51Z" fill="#c2384a"/><path d="M195.8,170.32c.93,0,2,.45,1.87,1.7a2,2,0,0,1-2.22,1.71h-.74l-.21,2.16h-1l.56-5.57Zm-1,2.57h.56c.67,0,1.2-.22,1.26-.85s-.32-.88-.93-.88H195Z" fill="#c2384a"/><path d="M199.41,172.35a1.72,1.72,0,0,1,1.33-.66,1.25,1.25,0,0,1,1.08.53,2.37,2.37,0,0,1,.21,1.53l-.22,2.14h-1l.21-2.06a2.08,2.08,0,0,0-.06-1,.59.59,0,0,0-.59-.31,1.44,1.44,0,0,0-1.09.63l-.27,2.72h-1l.61-6h1Z" fill="#c2384a"/><path d="M204.25,171.79v.53a1.71,1.71,0,0,1,1.34-.63,1.82,1.82,0,0,1,1.75,2.16,2.32,2.32,0,0,1-2.2,2.13,1.52,1.52,0,0,1-1.18-.51l-.24,2.41h-1l.62-6.09Zm-.19,2.83a1.16,1.16,0,0,0,1,.52,1.36,1.36,0,0,0,1.32-1.31,1.08,1.08,0,0,0-1-1.29,1.35,1.35,0,0,0-1.13.63Z" fill="#c2384a"/></g></g></svg>