<svg xmlns="http://www.w3.org/2000/svg" viewBox="0 0 415.78 481.15"><defs><style>.cls-1{fill:#c23749;}.cls-2{fill:#dfeeef;}.cls-3{fill:#ea94a6;}.cls-4,.cls-6{fill:none;}.cls-4,.cls-5,.cls-6{stroke:#ea94a6;stroke-miterlimit:10;}.cls-4{stroke-width:1.5px;}.cls-5{fill:#fff;}.cls-5,.cls-6{stroke-width:1.12px;}</style></defs><g id="Layer_2" data-name="Layer 2"><path class="cls-1" d="M333.11,317.13H285c-7.26,0-13.14-6.69-13.14-14.94V202.06c0-8.25,5.88-14.94,13.14-14.94h48.1c7.26,0,13.14,6.69,13.14,14.94V302.19C346.25,310.44,340.37,317.13,333.11,317.13Z"/><rect class="cls-2" x="275.32" y="190.43" width="67.48" height="113.53" rx="11.74"/><rect class="cls-3" x="295.18" y="196.3" width="27.77" height="3.87"/><ellipse class="cls-3" cx="309.06" cy="310.4" rx="5.97" ry="5.59"/><rect class="cls-1" x="91.19" y="18.23" width="237.65" height="158.39"/><rect class="cls-2" x="101.43" y="28.47" width="217.18" height="137.22"/><rect class="cls-1" x="188.58" y="176.62" width="42.89" height="14.32"/><rect class="cls-1" x="165.11" y="190.94" width="89.83" height="15.11"/><path class="cls-1" d="M155.36,365.89H67c-13.32,0-24.13-11.32-24.13-25.28V171.22c0-14,10.81-25.28,24.13-25.28h88.33c13.32,0,24.13,11.32,24.13,25.28V340.61C179.49,354.57,168.68,365.89,155.36,365.89Z"/><rect class="cls-2" x="49.24" y="151.54" width="123.92" height="207.28" rx="18.18"/><circle class="cls-3" cx="111.19" cy="346.05" r="9.45"/><polyline class="cls-4" points="418.4 414.99 221.21 414.99 221.21 226.35"/><path class="cls-4" d="M195.8,206.05v131a9,9,0,0,0,9,9H380.52"/><path class="cls-4" d="M179.49,267.4h62a9,9,0,0,1,9,9V382.73H418.4"/><path class="cls-4" d="M236.85,206.05v32.14a9,9,0,0,0,9,9h17.39"/><circle class="cls-5" cx="221.21" cy="230.27" r="5.58"/><circle class="cls-5" cx="260.51" cy="247.19" r="5.58"/><circle class="cls-5" cx="380.52" cy="346.05" r="5.58"/><path class="cls-6" d="M188.58,297.05h39.27a9,9,0,0,1,9,9V398.7"/><circle class="cls-5" cx="187.58" cy="297.05" r="5.58"/><circle class="cls-5" cx="235.85" cy="398.7" r="5.58"/><path class="cls-5" d="M352.51,247.19h38.56a9,9,0,0,1,9,9v109.7"/><circle class="cls-5" cx="355.4" cy="247.19" r="5.58"/></g></svg>