<svg xmlns="http://www.w3.org/2000/svg" viewBox="0 0 1305.29 563.39">
  <g id="Layer_2" data-name="Layer 2">
    <rect y="78.73" width="1305.29" height="484.67" fill="#eee9d8"/>
  </g>
  <g id="Layer_1" data-name="Layer 1">
    <g id="Layer_2-2" data-name="Layer 2">
      <path d="M975.9,307.27s16,13.34,24.49,13.72,22.49,1.87,24.19-17.18c1.18-13.18-8.82-48-15.08-68.18-2.23-7.18-4-12.52-4.62-14.39-.15-.49-.24-.74-.24-.74a64.66,64.66,0,0,0-13.29,4.37h0a43.16,43.16,0,0,0-6.71,3.82,205.45,205.45,0,0,1-4.39,23.47c-.45,1.83-.89,3.61-1.35,5.31h0c5.61,16.92,16.45,34.73,16.45,34.73l-9.58-4.3Z" fill="#eacbb9"/>
      <path d="M832.69,303.89s-16,13.34-24.49,13.72-22.48,1.87-24.19-17.18c-1.17-13.18,8.82-48,15.09-68.18,2.23-7.17,4-12.52,4.62-14.39.15-.49.24-.73.24-.73a64.83,64.83,0,0,1,13.29,4.36h0A42.31,42.31,0,0,1,824,225.3a206,206,0,0,0,4.46,23.49c.44,1.83.89,3.61,1.35,5.31h0c-5.61,16.92-16.45,34.74-16.45,34.74l9.57-4.3Z" fill="#eacbb9"/>
      <path d="M828.42,253.09l-29.3-18.78c2.23-8.15,4-14.23,4.62-16.35l13.51,4.13h0a41.58,41.58,0,0,1,6.71,4.34A263.78,263.78,0,0,0,828.42,253.09Z" fill="#f5ac8f"/>
      <path d="M999.53,235.76,968.2,255.84v-.06a177.53,177.53,0,0,0,4.74-28.24,35.7,35.7,0,0,1,5-3.73l16.78-5.11C995.54,221.48,997.34,227.7,999.53,235.76Z" fill="#f5ac8f"/>
      <ellipse cx="395.99" cy="131.93" rx="45.58" ry="67.75" fill="#360917"/>
      <path d="M356.24,70.49s-7.41,1.36-5.39,12.81S363,95.2,363,95.2,363.42,75.49,356.24,70.49Z" fill="#f4d8c6"/>
      <path d="M433.52,70.49s7.41,1.36,5.39,12.81-12.12,11.9-12.12,11.9S426.31,75.49,433.52,70.49Z" fill="#f4d8c6"/>
      <path d="M468.35,207.92c-2-37.55-4.56-48.26-4.56-48.26l-52.52-21.38-16.85,13.23L377.6,138.28l-52.9,21.13s-3,21.22-5,58.76,20.79,80.25,20.79,80.25l3.77,80.06s10.86,12,48.13,12c39.38,0,51.61-11.42,51.61-11.42l7.42-89.54S470.35,245.46,468.35,207.92Z" fill="#fff"/>
      <path d="M414,144.15s-9.52,7.75-19.06,7.75-18.6-8.41-18.6-8.41c1.42-3.17,1.76-8.64,1.66-14.24a170.84,170.84,0,0,0-1.66-18.76L414,111.83a79.43,79.43,0,0,0-.76,11C413.08,133.25,414,144.15,414,144.15Z" fill="#f4d8c6"/>
      <path d="M414,111.83a79.43,79.43,0,0,0-.76,11,68.84,68.84,0,0,1-23.62,6.9,46.16,46.16,0,0,1-11.62-.52,170.84,170.84,0,0,0-1.66-18.76Z" fill="#eacbb9"/>
      <path d="M395,40.51c-6.89-1-29.35.48-35.07,32.12,0,0,.28,19.7,6.93,33.43,5.11,10.58,27,20,28.14,19.68,1.11.32,23.28-9.44,28.4-20,6.65-13.73,6.72-32,6.72-32C424.36,42.09,401.84,39.48,395,40.51Z" fill="#f4d8c6"/>
      <path d="M336.64,365.75s-11,75.85-8.21,104.2l6.28,109.64H386.1l9.08-141.5,21.7,141.53h49.17S461.7,393.68,457,375.19C457,375.16,400.34,383.74,336.64,365.75Z" fill="#2b478b"/>
      <polygon points="378.01 132.19 393.18 151.9 374.36 162.1 371.29 140.81 378.01 132.19" fill="#e2e0dc"/>
      <polygon points="413.45 132.19 398.28 151.9 417.11 162.1 420.17 140.81 413.45 132.19" fill="#e2e0dc"/>
      <path d="M422.52,89.45s-7.14-3.82-27.56-3.82-27.54,3.82-27.54,3.82C365.76,116,395,122.84,395,122.84S424.18,116,422.52,89.45Z" fill="#fff"/>
      <path d="M359.52,74.72s6.2,11.85,9.41,15.62l-1.61,1.53s-6.25-9.62-7.8-13.05S359.52,74.72,359.52,74.72Z" fill="#fff"/>
      <path d="M429.92,74.72s-6.2,11.85-9.41,15.62l1.61,1.53s6.25-9.62,7.8-13.05S429.92,74.72,429.92,74.72Z" fill="#fff"/>
      <path d="M368.5,108.77s1.86,2,7.85,1.72v2.17a9.86,9.86,0,0,1-4.93-.57A4,4,0,0,1,368.5,108.77Z" fill="#fff"/>
      <path d="M422.15,108.19s-1.87,2-7.86,1.73v2.17a9.76,9.76,0,0,0,4.9-.6A4,4,0,0,0,422.15,108.19Z" fill="#fff"/>
      <path d="M374,46.3s5.63,7.25,20.14,10.71,31.38,2.3,31.38,2.3-.38,19.33,3.5,26.32c0,0,8.45-9.32,8.07-27.41A30,30,0,0,0,435.86,50c-.73-2.38-13.27-15.2-13.27-15.2L365,37.57s-11.58,8-11.58,21.72a41.1,41.1,0,0,0,6.44,22.55S374.64,55.65,374,46.3Z" fill="#360917"/>
      <polygon points="336.64 152.6 339.01 215.67 352 212.49 349.69 147.15 336.64 152.6" fill="#175726"/>
      <polygon points="454.63 155.11 452.25 218.17 439.26 215 441.57 149.65 454.63 155.11" fill="#175726"/>
      <path d="M493.21,536.21s-53.35,16.78-94.93,18.1v.07h-2.51v-.07c-24.62-.78-55.1-7.63-75.89-13.08-14.34-3.77-24.08-6.87-24.08-6.87-3.42,7.16,13.56-115.45,30.95-177.41,4.24-15.12-.3-67.47-3.89-101.55-1.87-17.75-3.5-30.55-3.5-30.55,31.35-24.61,118.27-25,149.64-.38,0,0-12.89,67.36-11,111.13.38,8.63,1.33,16.36,3.06,22.45,6.4,22.54,12.61,53.94,17.85,84.11C487.31,490.79,493.21,536.21,493.21,536.21Z" fill="#175726"/>
      <path d="M324.73,159.41s-30.37,28.3-32.68,62.94l33.68,2.5S331.42,182.5,324.73,159.41Z" fill="#fff"/>
      <path d="M297.31,222.83s-3.41,53.22,0,78,79,98,79,98l14.44-19.38-60.5-81.06L323.77,225Z" fill="#f4d8c6"/>
      <path d="M491.71,222.83s3.4,53.22,0,78-79,98-79,98L398.27,379.5l60.49-81.06L465.25,225Z" fill="#eacbb9"/>
      <path d="M376,401.64c.63-2.73,2.69-5.1,4.41-6.68.43-.54,1-1.16,1.67-1.88,3.66-3.85,17.81-15.8,17.81-15.8s14.72,17.34,12.8,21.58-14.44,14.43-14.44,14.43l-3.29,4.52s-2.58,7-4.22,7.7-2.6-4.33-.67-9.05a21.13,21.13,0,0,1,4.31-6.23l-1-.77-4,4.6s-2.59,7-4.23,7.7-2.6-4.33-.67-9.05a21.69,21.69,0,0,1,4.65-6.57l-1.2-.95-3.66,4.25s-2.38,9.14-4,9.81-2.83-2.61-.83-11.16a13.86,13.86,0,0,1,4.13-6.41l-.93-.74-1.77,2s-2.37,9.15-4,9.82S374,410.18,376,401.64Z" fill="#eacbb9"/>
      <path d="M413,401.64c-.64-2.73-2.7-5.1-4.42-6.68-.43-.54-1-1.16-1.66-1.88-3.66-3.85-17.82-15.8-17.82-15.8s-14.72,17.34-12.79,21.58,14.44,14.43,14.44,14.43l3.28,4.52s2.59,7,4.22,7.7,2.6-4.33.68-9.05a21.35,21.35,0,0,0-4.32-6.23l1-.77,4,4.6s2.58,7,4.22,7.7,2.6-4.33.67-9.05a21.83,21.83,0,0,0-4.64-6.57l1.19-.95,3.67,4.25s2.37,9.14,4,9.81,2.88-2.61.88-11.16a13.86,13.86,0,0,0-4.13-6.41l.94-.74,1.76,2s2.38,9.15,4,9.82S415,410.18,413,401.64Z" fill="#f4d8c6"/>
      <path d="M464.28,159.41s30.38,28.3,32.69,62.94l-33.69,2.5S457.59,182.5,464.28,159.41Z" fill="#fff"/>
      <path d="M371.65,93.34a103.68,103.68,0,0,1,21.27-2.72c10.18,0,21.8,2.72,21.8,2.72" fill="none" stroke="#dadada" stroke-linecap="round" stroke-linejoin="round" stroke-width="1.73"/>
      <path d="M373.82,99.78a89.41,89.41,0,0,1,19.6-2.69c9.38,0,20.07,2.72,20.07,2.72" fill="none" stroke="#dadada" stroke-linecap="round" stroke-linejoin="round" stroke-width="1.73"/>
      <path d="M156.9,20.43s-15.14-.6-24.9,27.44-8.24,108.47,2.16,122,39.89,9.17,39.89,9.17,38,11.45,47.3-12.73,4.35-82.67,1-110.85S187,2.19,156.9,20.43Z" fill="#360917"/>
      <path d="M138.57,87.93s-4.07,32.37,9.15,62.87S197.46,177.8,207,167s4.73-77.15,4.73-77.15Z" fill="#360917"/>
      <path d="M139,66.09s-6.85-.37-7,10.18,10.8,15.09,10.8,15.09Z" fill="#f4d8c6"/>
      <path d="M212.35,66.09s6.84-.37,7,10.18S209,91.36,209,91.36Z" fill="#f4d8c6"/>
      <path d="M195.22,144.6s-9.46,8.7-19.16,8.7-19.16-9.38-19.16-9.38c1.46-3.22,1.8-8.79,1.69-14.48a169.59,169.59,0,0,0-1.69-19.09l38.32,1.36a79.56,79.56,0,0,0-.77,11.23C194.27,133.51,195.22,144.6,195.22,144.6Z" fill="#f4d8c6"/>
      <path d="M195.22,111.71a79.56,79.56,0,0,0-.77,11.23,69.72,69.72,0,0,1-24,7,46.89,46.89,0,0,1-11.83-.52,169.59,169.59,0,0,0-1.69-19.09Z" fill="#eacbb9"/>
      <path d="M175.84,19.31c-7-1-32.49.49-38.31,32.68,0,0,2.92,39.88,9.68,53.85,5.2,10.76,27.49,20.35,28.63,20,1.14.33,23.69-9.6,28.9-20.35,6.76-14,9.41-53.52,9.41-53.52C208.33,19.8,182.84,18.26,175.84,19.31Z" fill="#f4d8c6"/>
      <path d="M104.24,385.33s-2.82,61.91,0,90.76l6.58,111.54h53.72l9.5-144,22.69,144h51.42s3.2-184.78-1.76-203.6C246.42,384,170.85,403.63,104.24,385.33Z" fill="#2b478b"/>
      <path d="M207.77,66.09s-.58,10,3.16,14.79l2.49-14.19Z" fill="#360917"/>
      <path d="M144.19,66.09s.58,10-3.16,14.79l-2.46-14.23Z" fill="#360917"/>
      <path d="M203.88,88.94s-7.26-3.88-28-3.88-28,3.88-28,3.88c-1.69,27,28,34,28,34S205.57,116,203.88,88.94Z" fill="#fff"/>
      <path d="M139.78,74s6.31,12,9.58,15.88l-1.64,1.56s-6.36-9.78-7.94-13.27S139.78,74,139.78,74Z" fill="#fff"/>
      <path d="M211.42,74s-6.31,12-9.58,15.88l1.64,1.56s6.36-9.78,7.94-13.27S211.42,74,211.42,74Z" fill="#fff"/>
      <path d="M148.92,108.6s1.9,2,8,1.75v2.2a9.93,9.93,0,0,1-5-.6A4.07,4.07,0,0,1,148.92,108.6Z" fill="#fff"/>
      <path d="M203.5,108s-1.9,2-8,1.75V112a10,10,0,0,0,5-.6A4.07,4.07,0,0,0,203.5,108Z" fill="#fff"/>
      <path d="M209,30.09c-13.14-13.15-49.54-19.23-63-1.7-6.74,3.05-10.93,19.08-10.61,29.28.42,13.79,4.35,16.27,4.35,16.27,12.42-4.66,18.93-17,21.73-24A103,103,0,0,0,182.94,61.4C202.46,68.73,216.59,68,216.59,68S222.59,43.69,209,30.09Z" fill="#360917"/>
      <path d="M290.11,316.3c-1.7,21.64-15.7,19.93-24.18,19.52s-24.51-15.58-24.51-15.58l9.83-22,9.57,4.85c-.34-.67-11.73-22.07-17-41.58.11-.4.21-.8.32-1.22a178.35,178.35,0,0,0,4.73-28.2,37.13,37.13,0,0,1,5-3.73,58.42,58.42,0,0,1,16.32-6.68s.17.55.46,1.57c.81,2.78,2.6,9,4.8,17.06C281.7,263.45,291.25,301.65,290.11,316.3Z" fill="#f4d8c6"/>
      <path d="M234.22,303.14,232.16,324c2.59,7,4.75,14.14,6.54,21a300.14,300.14,0,0,1,7.81,41.18s-39.79,16-72.46,16.51-69.86-16.14-69.86-16.14v-3.32a140.15,140.15,0,0,1,1-16.51c3-26.15,12-42.69,12-42.69l-2.06-15.8-2.58-19.9s-3.43-10-6.86-24.61h0a275.87,275.87,0,0,1-5.75-32.66,165.41,165.41,0,0,1-1-26.42c2-38.2,13.33-47.61,13.33-47.61l46-18.36,18.34,14.43,15.86-14.48,48.26,19.29s6.42,16.68,8.46,54.87a138.42,138.42,0,0,1-.32,19.32,177.15,177.15,0,0,1-5,29.47,162.94,162.94,0,0,1-7.78,23.5Z" fill="#ac2e2b"/>
      <path d="M108.58,320.24s-16,15.15-24.49,15.58S61.61,337.94,59.9,316.3c-1.18-15,8.82-54.5,15.09-77.44,2.22-8.15,4-14.23,4.61-16.35.15-.55.24-.83.24-.83a58.4,58.4,0,0,1,13.29,5h.05A41.58,41.58,0,0,1,99.89,231a261,261,0,0,0,4.39,26.65c.45,2.08.9,4.1,1.36,6h0c-5.62,19.21-16.46,39.46-16.46,39.46l9.58-4.89Z" fill="#f4d8c6"/>
      <path d="M105.11,366.68c3-26.15,12-42.69,12-42.69l-2.06-15.8,119.14-5.05L232.13,324c2.59,7,4.75,14.14,6.54,21Z" fill="#ac2e2b"/>
      <rect x="98.76" y="239.45" width="152.5" height="96.1" rx="2.93" fill="#a48a7a"/>
      <rect x="98.76" y="280.44" width="152.5" height="10.18" fill="#baa094"/>
      <path d="M112.22,156.83s-27.72,25-38.53,64.23l31.7,17S113.57,173.74,112.22,156.83Z" fill="#ac2e2b"/>
      <path d="M240.7,157.91s27.46,25.36,38.28,64.57l-31.7,17S239.35,174.81,240.7,157.91Z" fill="#ac2e2b"/>
      <path d="M251.26,298.26a181.71,181.71,0,0,0-14.32-14.12,28.5,28.5,0,0,0-12.4-8.25c-8.64-3-10.26-3.05-10.46-.84s9.16,6.54,12.22,8.45a42.34,42.34,0,0,1,5.06,4l-.27.57a29.81,29.81,0,0,0-9-5.13c-8.6-3.11-10.22-3.19-10.45-1s9.07,6.67,12.1,8.62a38.49,38.49,0,0,1,4.41,3.55l-.31.66a29.94,29.94,0,0,0-8.92-5.08c-8.6-3.12-10.22-3.2-10.45-1s9.06,6.67,12.09,8.62a38.81,38.81,0,0,1,4.37,3.51l-.12.24a30.64,30.64,0,0,0-5.89-2.89c-8.6-3.12-10.22-3.19-10.45-1s9.06,6.66,12.09,8.62a14.4,14.4,0,0,1,1.47,1,43.82,43.82,0,0,0,16.19,12.1h0L253.1,329.7A103.33,103.33,0,0,0,256,312.4,20.89,20.89,0,0,0,251.26,298.26Z" fill="#f4d8c6"/>
      <path d="M131.06,298.22a30.64,30.64,0,0,0-5.89,2.89l-.12-.24a38.81,38.81,0,0,1,4.37-3.51c3-1.95,12.32-6.41,12.1-8.62s-1.85-2.13-10.46,1a29.55,29.55,0,0,0-8.91,5.08l-.32-.66a37.74,37.74,0,0,1,4.42-3.55c3-1.95,12.32-6.41,12.09-8.62s-1.85-2.13-10.45,1a30,30,0,0,0-9,5.13l-.27-.57a42.44,42.44,0,0,1,5.07-4c3.06-1.91,12.41-6.24,12.21-8.45s-1.82-2.15-10.46.84a28.5,28.5,0,0,0-12.4,8.25,178.19,178.19,0,0,0-14.31,14.12s-5.87,5.31-6.4,15.6,4.84,15.7,4.84,15.7l12.64-9.76h0A44,44,0,0,0,127.93,307c.52-.39,1-.76,1.47-1.05,3-2,12.32-6.42,12.1-8.62S139.67,295.09,131.06,298.22Z" fill="#f4d8c6"/>
      <polygon points="158.6 132.43 176.57 153.07 154.88 162.86 151.76 141.2 158.6 132.43" fill="#ba3a3a"/>
      <polygon points="194.66 132.43 176.57 153.07 198.37 162.86 201.49 141.2 194.66 132.43" fill="#ba3a3a"/>
      <rect x="168.52" y="239.45" width="13.37" height="96.57" fill="#baa094"/>
      <rect x="219.86" y="247.77" width="21.56" height="8.27" rx="0.57" fill="#7b6a59"/>
      <rect x="209.26" y="247.77" width="6.58" height="8.27" rx="1.45" fill="#7b6a59"/>
      <path d="M560.55,363.09s-2.86,61.92,0,90.76l6.58,111.55h53.72l9.5-144L653,565.4h51.38s3.2-184.78-1.76-203.6C702.7,361.84,627.16,381.44,560.55,363.09Z" fill="#360917"/>
      <path d="M630.35,421.44s1.75-12.72,11.75-17.83" fill="none" stroke="#002b3d" stroke-miterlimit="10" stroke-width="1.91"/>
      <path d="M151.61,93.89a115,115,0,0,1,23.44-3c11.22,0,24,3,24,3" fill="none" stroke="#dadada" stroke-linecap="round" stroke-linejoin="round" stroke-width="1.91"/>
      <path d="M154,101a98.28,98.28,0,0,1,21.58-3c10.33,0,22.12,3,22.12,3" fill="none" stroke="#dadada" stroke-linecap="round" stroke-linejoin="round" stroke-width="1.91"/>
      <path d="M881,15.88s-15.14-.6-24.9,27.44-8.25,108.47,2.15,122,39.9,9.13,39.9,9.13,38,11.45,47.29-12.73,4.35-82.67,1-110.85S911.14-2.36,881,15.88Z" fill="#360917"/>
      <path d="M862.68,83.38s-4.07,32.37,9.16,62.87,49.74,27,59.25,16.21,4.73-77.15,4.73-77.15Z" fill="#360917"/>
      <path d="M863.15,61.58s-6.85-.37-7,10.18S867,86.85,867,86.85Z" fill="#f4d8c6"/>
      <path d="M936.42,61.58s6.85-.37,7,10.18-10.35,15.09-10.35,15.09Z" fill="#f4d8c6"/>
      <path d="M919.33,140.09s-9.45,8.7-19.15,8.7S881,139.41,881,139.41c1.45-3.22,1.8-8.79,1.69-14.48A172,172,0,0,0,881,105.84l38.31,1.36a82.66,82.66,0,0,0-.77,11.23C918.42,129,919.33,140.09,919.33,140.09Z" fill="#f4d8c6"/>
      <path d="M919.33,107.16a82.66,82.66,0,0,0-.77,11.23,69.72,69.72,0,0,1-24,7,46.89,46.89,0,0,1-11.83-.52A172,172,0,0,0,881,105.78Z" fill="#eacbb9"/>
      <path d="M900,14.76c-7-1-32.49.49-38.31,32.68,0,0,2.92,39.88,9.68,53.85,5.2,10.76,27.49,20.35,28.63,20,1.14.33,23.7-9.6,28.9-20.35,6.76-14,9.41-53.52,9.41-53.52C932.42,15.25,907,13.71,900,14.76Z" fill="#f4d8c6"/>
      <path d="M828.36,380.78s-2.87,61.91,0,90.76l6.57,111.55h53.73l9.49-144,22.7,144h51.41s3.2-184.78-1.76-203.6C970.5,379.48,895,399.09,828.36,380.78Z" fill="#2b478b"/>
      <path d="M931.88,61.58s-.58,10,3.16,14.78l2.47-14.22Z" fill="#360917"/>
      <path d="M868.3,61.58s.58,10-3.15,14.78l-2.47-14.22Z" fill="#360917"/>
      <path d="M928,84.39s-7.27-3.89-28-3.89-28,3.89-28,3.89c-1.69,27,28,34,28,34S929.69,111.43,928,84.39Z" fill="#fff"/>
      <path d="M863.9,69.41s6.31,12,9.57,15.88l-1.63,1.56s-6.37-9.78-7.94-13.27S863.9,69.41,863.9,69.41Z" fill="#fff"/>
      <path d="M935.53,69.41s-6.31,12-9.58,15.88l1.64,1.56s6.36-9.78,7.94-13.27S935.53,69.41,935.53,69.41Z" fill="#fff"/>
      <path d="M873,104.09s1.9,2,8,1.75V108a10,10,0,0,1-5-.6A4.07,4.07,0,0,1,873,104.09Z" fill="#fff"/>
      <path d="M927.62,103.46s-1.9,2-8,1.75v2.2a9.93,9.93,0,0,0,5-.6A4.11,4.11,0,0,0,927.62,103.46Z" fill="#fff"/>
      <path d="M933.14,25.56c-13.13-13.15-49.54-19.23-63-1.7-6.73,3-10.92,19.07-10.61,29.28.43,13.79,4.36,16.27,4.36,16.27,12.41-4.66,18.93-17,21.72-24a103.25,103.25,0,0,0,21.44,11.46c19.52,7.33,33.66,6.55,33.66,6.55S946.7,39.14,933.14,25.56Z" fill="#360917"/>
      <path d="M958.33,298.59l-2,20.85c2.59,7,4.74,14.14,6.53,21a301.82,301.82,0,0,1,7.82,41.19s-39.8,16-72.47,16.51S828.36,382,828.36,382v-3.32a141.5,141.5,0,0,1,.86-16.59c3-26.15,12-42.69,12-42.69l-2.06-15.8-2.57-19.9s-3.43-10-6.86-24.61h0A278,278,0,0,1,824,226.43,165.41,165.41,0,0,1,823,200c2-38.2,13.32-47.61,13.32-47.61l46-18.31,18.36,14.47,15.88-14.47,48.26,19.29s6.42,16.68,8.46,54.87a139.83,139.83,0,0,1-.35,19.31,176,176,0,0,1-5,29.47,163.3,163.3,0,0,1-7.77,23.5Z" fill="#fff"/>
      <path d="M836.33,152.28s-27.71,25-38.53,64.23l31.7,17S837.69,169.18,836.33,152.28Z" fill="#fff"/>
      <path d="M964.81,153.36s27.47,25.36,38.28,64.57l-31.7,17S963.42,170.26,964.81,153.36Z" fill="#fff"/>
      <polygon points="918.77 127.88 900.68 148.52 922.49 158.31 925.61 136.65 918.77 127.88" fill="#e2e0dc"/>
      <path d="M898.15,439.09s1.75-12.73,11.76-17.84" fill="none" stroke="#002b3d" stroke-miterlimit="10" stroke-width="1.91"/>
      <path d="M875.73,89.34a114.94,114.94,0,0,1,23.43-3c11.23,0,24,3,24,3" fill="none" stroke="#dadada" stroke-linecap="round" stroke-linejoin="round" stroke-width="1.91"/>
      <path d="M878.12,96.43s11.25-3,21.58-3,22.12,3,22.12,3" fill="none" stroke="#dadada" stroke-linecap="round" stroke-linejoin="round" stroke-width="1.91"/>
      <path d="M435.13,47.65s-2.91-22-20.41-26.13-54.51.26-59.31,28.22" fill="#360917"/>
      <path d="M533.5,219.65S518.56,255,518.56,267.09s57.9,73.33,61.63,75.29,9.65-29.13,9.65-29.13S560,266.09,557.78,263.51s9-28.15,9-28.15Z" fill="#eacbb9"/>
      <path d="M696.94,233.92s15.18,50.08,36.12,56.57c0,0,4.9-24.62,4.9-25.14s-3.89-30.57-4.9-31.43-2.76-5.95-5.31-7S696.94,233.92,696.94,233.92Z" fill="#f4d8c6"/>
      <path d="M603.5,140.09s-32.37,7.86-43,16-32.69,58.27-33.31,63.18,23.34,19.64,36.73,20l-8.1,126s113.95,23.57,151.93,0l-9.66-126.36s25.33-1.42,39.33-10.26c0,0-23.11-66-33.62-74.39-8.56-6.8-46-14.73-46-14.73Z" fill="#2b478b"/>
      <path d="M741.06,186.29c-3,5.8-10.68,33.34-16.61,64.42-6.22,32.57,2.7,42,16.73,40.67,17.8-1.7,18.11-41,19.35-64.58a335,335,0,0,0-.67-43.67Z" fill="#f4d8c6"/>
      <path d="M740.05,104.67s-.46,419.33,0,464.56h10.84c.55-48.74,3-464.08,2.63-466.77C753.2,99.51,740.05,104.67,740.05,104.67Z" fill="#e2e0dc"/>
      <path d="M696.42,86S685.9,41.82,694,39.85s8.61,4.91,12.92,3.68,7.18-5.89,12-6.38,8.38,7.37,14.36,5.65,8.61-6.63,14.83-6.39,8.14,8.11,12,7.37,9.81-5.89,16-5.16,7.18,6.14,11.25,5.65S795,37.64,801,39.61s-5.5,50.33-5.5,50.33Z" fill="#fff"/>
      <path d="M612.56,140.44c-4,1-11.27-1.48-14.08,1.14s15.88,13.74,20.86,15.71S634,146.49,634,146.49s8.1,11.45,14.32,11.13,15-14.41,15.26-17.68-27.21-.36-27.84.29S612.56,140.44,612.56,140.44Z" fill="#ac2e2b"/>
      <path d="M759.1,157c-6.56-4.6-19.36-4.09-23.67-2.15s-3.41,5.26-.91,7.42c0,0-6.37,4.78-1.14,10.05,0,0-4.32,5.74.46,9.33,0,0-2,3.11,2.5,6.94s20.48,3.59,23,1.2,2-2.16,2-6.47,1.44-5.15,1.82-10.76C763.65,165.87,761.83,158.93,759.1,157Z" fill="#f4d8c6"/>
      <polygon points="693.52 83.06 697.26 106.63 794.54 106.63 798.98 83.9 693.52 83.06" fill="#e2e0dc"/>
      <path d="M760.61,186.37a.29.29,0,0,0-.34-.23.26.26,0,0,0-.16.09,10.14,10.14,0,0,1-4.19,3.31,19.8,19.8,0,0,1-6.35.86,38.08,38.08,0,0,1-6.49-.55c-1-.17-2-.37-2.91-.61a8.87,8.87,0,0,0-3-.65.54.54,0,0,0-.49.57.55.55,0,0,0,.14.32,6.83,6.83,0,0,0,3,1.36,33.49,33.49,0,0,0,3.69,1,30.15,30.15,0,0,0,7.7.58C754.16,192.21,761.75,191.25,760.61,186.37Z" fill="#eacbb9"/>
      <path d="M748.66,180.58c-1.22-1-2.84-.71-4.29-.68-1.68,0-3.36,0-5,.1a15,15,0,0,0-4.06.34,2.1,2.1,0,0,0-1.22.86c-.16.27-.25.94.18,1s.71-.17,1.09-.32a3.59,3.59,0,0,1,1.26-.22c1.38,0,2.77,0,4.15.05H745c1.32,0,2.63.19,3.73-.7A.38.38,0,0,0,748.66,180.58Z" fill="#eacbb9"/>
      <path d="M749,172.43c-.53-.2-1-.48-1.57-.64s-1.43-.34-2.15-.46a22.11,22.11,0,0,0-4.06-.34,23.42,23.42,0,0,0-4,.43,15.86,15.86,0,0,0-2.13.55c-.53.18-1.17.36-1.43.92a.39.39,0,0,0,.12.48,1.88,1.88,0,0,0,1.4,0c.63-.11,1.26-.25,1.9-.35a23.11,23.11,0,0,1,3.9-.28,25,25,0,0,1,3.87.3c.63.11,1.26.24,1.88.4a5.15,5.15,0,0,0,1.82.34.75.75,0,0,0,.71-.75.86.86,0,0,0,0-.32A.33.33,0,0,0,749,172.43Z" fill="#eacbb9"/>
      <path d="M748.8,162.09c-.6-1.27-2-1.25-3.17-1.38a26.76,26.76,0,0,0-4-.15,25.33,25.33,0,0,0-3.89.45,15.82,15.82,0,0,0-3.82,1.12.69.69,0,0,0-.31.57.42.42,0,0,0,0,.27V163a.6.6,0,0,0,.54.33c1.25-.11,2.48-.45,3.73-.57a37.07,37.07,0,0,1,3.8-.22,32.41,32.41,0,0,1,3.81.19c1.15.13,2.17.52,3.13-.35A.29.29,0,0,0,748.8,162.09Z" fill="#eacbb9"/>
      <path d="M1068.15,372.47s-2.87,61.91,0,90.76l6.57,111.54h53.7l9.49-144,22.7,144H1212s3.2-184.78-1.76-203.6C1210.29,371.17,1134.76,390.77,1068.15,372.47Z" fill="#352f2d"/>
      <path d="M1137.94,430.78s1.75-12.73,11.76-17.84" fill="none" stroke="#002b3d" stroke-miterlimit="10" stroke-width="1.91"/>
      <path d="M1111.1,149.44s-32.38,7.85-43,16-32.69,58.26-33.31,63.17,23.35,19.64,36.74,20l-2.18,126s102.1,23.57,140.08,0l-3.73-126.36s25.29-1.47,39.3-10.31c0,0-23.12-66-33.62-74.39-8.57-6.8-46-14.73-46-14.73Z" fill="#fffdf8"/>
      <path d="M851.32,174.33c1.12-1.81,9.1-8.27,10.33-9.77s4.3-15.07,4.3-15.07,32.34,0,36.43,2.15c0,0,1.23,17.22,1.23,18.51s6.48,12.42,6.72,19-22.89.57-22.89.57Z" fill="#f9faff"/>
      <path d="M951.81,182.3c-5-.72-10-4.57-9.45-9.78.29-2.63,2.69-2.39,3.37-4.5.93-2.89-2.12-4.13,1.49-6,1.43-.74,1.53.6,2.79-1.27.62-.91.74-3,1.15-4.16.84-2.31,2.23-4.69,4.92-4.43,3.81.37,2.75,4.21,2.5,7-.09.93-.63,2.82-.18,3.73.93,1.92,3.31,1.18,3.07,4-.16,1.82-2.21,2.37-2.18,4.12,0,2.64,2.84,3.41,1.67,6.63C959.55,181.56,955.67,182.85,951.81,182.3Z" fill="#175726"/>
      <path d="M928.32,189c-5.08.24-10.65-2.62-11-7.86-.15-2.65,2.25-2.85,2.57-5.06.43-3-2.79-3.67.45-6.2,1.28-1,1.61.31,2.54-1.77.45-1,.21-3.13.42-4.31.44-2.43,1.41-5,4.11-5.27,3.81-.35,3.41,3.63,3.63,6.44.07.93-.14,2.89.45,3.71,1.25,1.71,3.46.54,3.7,3.36.15,1.82-1.77,2.74-1.46,4.46.49,2.59,3.38,2.83,2.77,6.22C935.81,186.83,932.21,188.82,928.32,189Z" fill="#175726"/>
      <path d="M910.21,206.24c-.36-1.35.61-17,6.23-22.14s20.43,1.4,23.89,6.05-8.16,31.61-13.12,38.85-15.33,7.79-16.41,7.33S910.21,206.24,910.21,206.24Z" fill="#f39842"/>
      <path d="M936.35,204.94c-.58-1.25-2.33-16.87,2.33-23s20.32-2.5,24.53,1.42-2.6,32.64-6.23,40.7-13.74,10.58-14.88,10.33S936.35,204.94,936.35,204.94Z" fill="#f39842"/>
      <ellipse cx="947.13" cy="227.74" rx="19.83" ry="20.85" fill="#ac2e2b"/>
      <ellipse cx="923.18" cy="245.39" rx="19.83" ry="20.85" fill="#ac2e2b"/>
      <ellipse cx="941.04" cy="249.79" rx="19.83" ry="20.85" fill="#e14b41"/>
      <path d="M1020.42,185.16s5.72-11.23-1.53-17.25-3.8-20.82-14.47-22.45-9.16,12.83-19.83,17.63-21,8.42-18.31,20.85S950.6,198,955.22,214.42s-25.16,30.87-7.62,46.91,37,4.41,37,2.81,16.81-29.37,17.54-33.28,13-31.28,13-31.28Z" fill="#175726"/>
      <path d="M973.91,263.35s-8-13.24-1.91-19.65-1.14-18.45,8-24.06,5.34-23.26,16-26.06,13.34-16.84,27.83-12.43-3.43,23.65-.76,32.07-6.86,24.06-12.58,27.27.8,10.28-7.8,18.57-18.13,9.9-19.66,9.5S973.91,263.35,973.91,263.35Z" fill="#459649"/>
      <path d="M899.76,175.93c3.75,2,9.55,12,10.57,13.24s.68,69-1.7,74.58-15.7,1.2-16.72-.4,1-37.29.68-42.91S899.76,175.93,899.76,175.93Z" fill="#2b478b"/>
      <path d="M847.91,204.4c.34-1.2,1.7-25.66,3.41-30.07s45.37.8,48.44,1.6-1.34,88.62-1.34,88.62l-46.73-.4Z" fill="#2b478b"/>
      <path d="M800.79,262.14s-5.34-38.89-3.81-49.72,9.62-9.15,13-16.44.76-19.24.76-19.24l18.31-2s-.38,12.83,5,17.24,10.3,4,15.26,11.23,8,62.55,8,62.55Z" fill="#c5e7e8"/>
      <path d="M798.17,258.61l5,61s196.52-.4,196.9-.8,4.44-60,4.44-60Z" fill="#e2e0dc"/>
      <path d="M936.26,231.64a2.26,2.26,0,0,0-.79-.24,13.33,13.33,0,0,0-1.55-.15h-.59c.07-.1.13-.22.2-.32h0l-.06.08.15-.2c.1-.12.19-.24.29-.35s.42-.45.64-.66l.33-.3.15-.11c.3-.23.6-.46.89-.7h0a2.43,2.43,0,0,0,.34-.3,3.51,3.51,0,0,0,.39-.61,1.27,1.27,0,0,0-.51-1.72.72.72,0,0,0-.2-.09,4.93,4.93,0,0,0-.67-.11,2,2,0,0,0-.76.18,4.94,4.94,0,0,0-1.13.61,10,10,0,0,0-3,3.44h0a3.81,3.81,0,0,0-1.16-.24,5.83,5.83,0,0,0-1.56.17,3.22,3.22,0,0,0-.91.34l-.27.19a2.14,2.14,0,0,0-.49.46l-.12.22a1.63,1.63,0,0,0-.15,1.77,1.74,1.74,0,0,0,.54.54,1.45,1.45,0,0,0,.89.18l-.14.18a4.16,4.16,0,0,0-.63,2.19,2.22,2.22,0,0,0,.73,1.81,1.54,1.54,0,0,0,1.83.25,1.35,1.35,0,0,0,.58-1.36h0v-.4a1.4,1.4,0,0,1,.1-.35c0-.11,0,.05,0,.08v0h0a3,3,0,0,0,.07.43,1.16,1.16,0,0,0,.79.84,1.09,1.09,0,0,0,1.12-.31,2.19,2.19,0,0,0,.31-.48l.12-.29a1.72,1.72,0,0,0,.19-.44,1,1,0,0,1,.07-.44,1,1,0,0,0,0-.25v-.53a2.56,2.56,0,0,0-.05-.27.74.74,0,0,0-.1-.27h.09a6.46,6.46,0,0,0,1.5.31,8.27,8.27,0,0,0,1.22.12,2.89,2.89,0,0,0,.83,0,1.54,1.54,0,0,0,1.14-1.31A1.64,1.64,0,0,0,936.26,231.64Z" fill="#175726"/>
      <path d="M920.89,227.3a6.74,6.74,0,0,0-.88-.24l.51-.34a9.53,9.53,0,0,1,1.21-.67,3.78,3.78,0,0,0,.83-.53,3.16,3.16,0,0,0,.37-.45c-.22.3-.12.16,0,.09a1.21,1.21,0,0,0,.24-.35,1.33,1.33,0,0,0,.11-.92,1.3,1.3,0,0,0-.52-.72,1.22,1.22,0,0,0-.37-.16h-.19l-.36,0h-.15a2.86,2.86,0,0,0-1.28.36,10.51,10.51,0,0,0-1.32.72,10,10,0,0,0-1.39,1.11c-.08.08-.14.19-.22.28a4.21,4.21,0,0,0-1.32-.49,5.28,5.28,0,0,0-1.86,0,2.19,2.19,0,0,0-1.61,1.17h0a1.34,1.34,0,0,0-.17.65,1.32,1.32,0,0,0,.16.64,1.38,1.38,0,0,0,.44.46,1.17,1.17,0,0,0,.41.14,2.43,2.43,0,0,0,.6.1,2.81,2.81,0,0,0,.71-.08,3.21,3.21,0,0,1,.62,0l-.15.14a7.84,7.84,0,0,0-.85,1.22,5.05,5.05,0,0,0-.24.53,3.16,3.16,0,0,0-.29.9l-.06.41a1.31,1.31,0,0,0,.13.59,1.42,1.42,0,0,0,.6.74,1.58,1.58,0,0,0,.74.21,1.42,1.42,0,0,0,1.26-.77l.24-.61a5.66,5.66,0,0,1,.52-.93.33.33,0,0,0,0,.14,3.38,3.38,0,0,0,.62,1.17,2.54,2.54,0,0,0,.45.36.8.8,0,0,0,1.37-.76,2.62,2.62,0,0,0-.09-.38c0-.13,0-.08,0,.1a1.26,1.26,0,0,0-.05-.33,1.55,1.55,0,0,1-.08-.23l-.06-.16c-.13-.32-.14-.36,0-.12a.21.21,0,0,1,0-.11c-.1-.28-.19-.57-.29-.86v-.06l.51.36a8.42,8.42,0,0,0,1.65.88l-.09-.08.13.1h0a1.18,1.18,0,0,0,.58.26,1.13,1.13,0,0,0,.8-.16,1.39,1.39,0,0,0,.58-1.49C923,228,921.75,227.63,920.89,227.3Z" fill="#175726"/>
      <path d="M921.3,230.49l-.08-.07-.19-.08A1.43,1.43,0,0,1,921.3,230.49Z" fill="#175726"/>
      <path d="M952,208.86A2.17,2.17,0,0,0,951,208h-.14c-.22-.11-.44-.2-.66-.29a11.42,11.42,0,0,0-1.72-.44,19.17,19.17,0,0,0-2-.25,5.82,5.82,0,0,0-1.18.11h-.07c.12-.24.24-.48.34-.73s.32-.71.48-1.07a3.8,3.8,0,0,0,.25-.81.52.52,0,0,1,0-.27,1.52,1.52,0,0,0,0-.6,2,2,0,0,0,0-.49v0a.69.69,0,0,0-.92-.67,1,1,0,0,0-.42.12l-.17.1c-.92.28-1.47,1.35-1.85,2.21-.12.28-.22.56-.31.84a6.77,6.77,0,0,0-1.15-.47,8.41,8.41,0,0,0-1.93-.28,3.66,3.66,0,0,0-2.13.62,1.5,1.5,0,0,0-.48.52,1.68,1.68,0,0,0-.18.21,1,1,0,0,0-.33.84c.07.52.46.67.87.74h0a.93.93,0,0,0,.39.18,9.56,9.56,0,0,0,1,.17h1.52l.35.08a8.64,8.64,0,0,1,1,.26,8.06,8.06,0,0,0-1.17.6,11.28,11.28,0,0,0-1.28,1,3.08,3.08,0,0,0-.94,1.46l.07-.13a1.54,1.54,0,0,0-.08.19h0a1.84,1.84,0,0,0-.1.51,1.14,1.14,0,0,0,.46.95,1.13,1.13,0,0,0,1,.22.64.64,0,0,0,.35-.14h0a1.42,1.42,0,0,0,.36-.14,4.69,4.69,0,0,0,.63-.47l.58-.52c.38-.3.77-.6,1.17-.87a2.92,2.92,0,0,0,.43.5,10.15,10.15,0,0,0,.89.7,4.68,4.68,0,0,0,.75.43,2.66,2.66,0,0,0,1.35.37,1.38,1.38,0,0,0,.64,0,1.21,1.21,0,0,0,.74-1.54,1.08,1.08,0,0,0-.08-.19,1.69,1.69,0,0,0-.5-.53,2.86,2.86,0,0,0-.81-.56c-.26-.13-.51-.27-.78-.39s-.64-.34-1-.47v-.15a2.3,2.3,0,0,0,.88.3c.38.07.75.14,1.13.18h.35c-.36-.11.12,0,.2,0l.81.17c.54.13,1.06.32,1.58.49a4.29,4.29,0,0,0,1,.24,1.51,1.51,0,0,0,.9-.22c.12-.06.38-.13,0,0a1.31,1.31,0,0,0,.93-1.59S952,208.9,952,208.86Z" fill="#175726"/>
      <path d="M216.81,143.09c-28.9,7.67-53,7.63-81.77,0V56.41c28.67-7.2,53-7.23,81.77,0Z" fill="#dfeeef" opacity="0.45" style="isolation: isolate"/>
      <path d="M164,149.09c-3.74-.34-5.61-.58-9.32-1.18V51.85c3.71-.58,5.58-.8,9.32-1.13Z" fill="#dfeeef" opacity="0.13" style="isolation: isolate"/>
      <path d="M216.81,54c-28.9-7.67-53-7.63-81.77,0v2.38c28.67-7.2,53-7.23,81.77,0Z" fill="#e14b41"/>
      <path d="M436.06,135.79c-28.9,7.67-53,7.63-81.77,0V49.09c28.67-7.2,53-7.23,81.77,0Z" fill="#dfeeef" opacity="0.45" style="isolation: isolate"/>
      <path d="M383.25,141.8c-3.74-.34-5.6-.58-9.31-1.19V44.55c3.71-.57,5.57-.8,9.31-1.12Z" fill="#dfeeef" opacity="0.13" style="isolation: isolate"/>
      <path d="M436.06,46.74c-28.9-7.67-53-7.64-81.77,0v2.35c28.67-7.2,53-7.23,81.77,0Z" fill="#e14b41"/>
      <path d="M1130,151.68s5.8,5.29,12.3,6.21c0,0,6.72,0,10.2-5.84l6.68,3.43s-9.7,10.12-13.68,12.68l16.79,108L1140.9,307.9l-17.06-33.39,10.27-106.75-8.69-12.41Z" fill="#352f2d"/>
      <polygon points="1063.26 163.52 1067.1 173.38 1092.15 161.91 1088.93 154.44 1063.26 163.52" fill="#352f2d"/>
      <polygon points="1211.01 160.17 1207.17 170.03 1182.12 158.56 1185.33 151.09 1211.01 160.17" fill="#352f2d"/>
      <path d="M853.11,311.21a30,30,0,0,0-6.56.33v-.27a36,36,0,0,1,5.4-1.5c3.55-.6,13.85-1,14.51-3.15s-.86-2.69-10-3.22a29.81,29.81,0,0,0-10.2,1.15v-.73a39.82,39.82,0,0,1,5.46-1.52c3.55-.59,13.85-1,14.51-3.15s-.86-2.69-10-3.21A29.75,29.75,0,0,0,846,297.09v-.63a43.26,43.26,0,0,1,6.24-1.7c3.57-.54,13.87-.83,14.56-2.94s-.82-2.7-10-3.36a28.43,28.43,0,0,0-14.64,2.69,179.3,179.3,0,0,0-18.74,7.35s-7.48,2.56-12,11.81a116,116,0,0,1-7.1,12.94l20.81-.59h0A44,44,0,0,0,846.86,318c.63-.17,1.23-.3,1.76-.39,3.56-.6,13.86-1,14.52-3.15S862.24,311.74,853.11,311.21Z" fill="#eacbb9"/>
      <path d="M826.42,322.09s-25.13,7.51-33.09,4.56-17.64-5.47-10.67-26c4.81-14.18-2.37-3.59,12.32-22.06,5.26-6.61-.2,14.48,1.08,16.89-2.78,9.06,18.7,4.63,18.7,4.63l10.73-.71Z" fill="#eacbb9"/>
      <path d="M955.49,314.59a29.93,29.93,0,0,1,6.55.33v-.27a37.59,37.59,0,0,0-5.4-1.5c-3.56-.6-13.85-1-14.51-3.15s.85-2.69,10-3.22a30.05,30.05,0,0,1,10.2,1.15v-.73a39.82,39.82,0,0,0-5.46-1.52c-3.56-.6-13.85-1-14.52-3.15s.86-2.69,10-3.22a29.92,29.92,0,0,1,10.26,1.17v-.62a42,42,0,0,0-6.24-1.7c-3.56-.55-13.86-.84-14.55-2.94s.82-2.7,9.94-3.36a28.5,28.5,0,0,1,14.66,2.69,179,179,0,0,1,18.73,7.33s7.48,2.56,12,11.81a115,115,0,0,0,7.1,12.93l-20.74-.53h0a44,44,0,0,1-21.73-4.67c-.63-.17-1.23-.31-1.77-.4-3.56-.59-13.85-1-14.51-3.15S946.35,315.09,955.49,314.59Z" fill="#eacbb9"/>
      <path d="M982.21,325.46s25.13,7.52,33.09,4.57,17.64-5.47,10.68-26c-4.82-14.18,2.37-3.59-12.33-22.06-5.26-6.61.21,14.48-1.07,16.89,2.77,9.05-18.7,4.63-18.7,4.63l-10.73-.71Z" fill="#eacbb9"/>
      <path d="M1119.42,148.35c-5.73.58-10.54-.06-13.34,2.56s15.88,13.75,20.86,15.71,14.63-10.8,14.63-10.8,8.09,11.46,14.32,11.13,14.94-14.4,15.25-17.68-27.21-.36-27.83.29S1119.42,148.35,1119.42,148.35Z" fill="#3f404f"/>
      <path d="M1157.08,150.44s-9.52,7.75-19.06,7.75-18.6-8.42-18.6-8.42c1.43-3.16,1.77-8.63,1.66-14.23a168.42,168.42,0,0,0-1.66-18.76l37.66,1.34a79.43,79.43,0,0,0-.76,11C1156.15,139.54,1157.08,150.44,1157.08,150.44Z" fill="#f4d8c6"/>
      <path d="M1157.08,118.09a79.43,79.43,0,0,0-.76,11,68.28,68.28,0,0,1-23.61,6.9,46.24,46.24,0,0,1-11.63-.51,168.42,168.42,0,0,0-1.66-18.76Z" fill="#eacbb9"/>
      <path d="M1100.48,76.86s-7.41,1.36-5.39,12.81,12.12,11.9,12.12,11.9S1107.7,81.86,1100.48,76.86Z" fill="#f4d8c6"/>
      <path d="M1177.77,76.86s7.41,1.36,5.39,12.81-12.13,11.9-12.13,11.9S1170.55,81.86,1177.77,76.86Z" fill="#f4d8c6"/>
      <path d="M1139.2,46.88c-6.88-1-29.34.48-35.06,32.12,0,0,.27,19.7,6.92,33.43,5.12,10.58,27,20,28.14,19.68,1.12.32,23.29-9.44,28.4-20,6.65-13.73,6.72-32,6.72-32C1168.61,48.41,1146.08,45.85,1139.2,46.88Z" fill="#f4d8c6"/>
      <path d="M1166.76,95.82S1159.62,92,1139.2,92s-27.56,3.82-27.56,3.82c-1.67,26.58,27.56,33.39,27.56,33.39S1168.42,122.4,1166.76,95.82Z" fill="#fff"/>
      <path d="M1103.76,81.09s6.2,11.85,9.42,15.62l-1.61,1.53s-6.26-9.62-7.81-13S1103.76,81.09,1103.76,81.09Z" fill="#fff"/>
      <path d="M1174.17,81.09s-6.2,11.85-9.41,15.62l1.6,1.53s6.26-9.62,7.81-13S1174.17,81.09,1174.17,81.09Z" fill="#fff"/>
      <path d="M1111.57,48.56s44.68-7,47.39-4.93c11.84,8.9,7.87,29.62,14.34,48.37,0,0,8.45-9.32,8.07-27.41a30.34,30.34,0,0,0-1.26-8.19c-.73-2.38-13.28-15.2-13.28-15.2l-57.59,2.74s-11.55,8-11.55,21.72a41,41,0,0,0,6.45,22.55S1112.17,57.91,1111.57,48.56Z" fill="#360917"/>
      <path d="M1115.89,99.71A104.38,104.38,0,0,1,1137.16,97c10.19,0,21.8,2.72,21.8,2.72" fill="none" stroke="#dadada" stroke-linecap="round" stroke-linejoin="round" stroke-width="1.73"/>
      <path d="M1118.06,106.15a89.35,89.35,0,0,1,19.59-2.72c9.38,0,20.08,2.72,20.08,2.72" fill="none" stroke="#dadada" stroke-linecap="round" stroke-linejoin="round" stroke-width="1.73"/>
      <path d="M1181.06,60.72s-4.59-28.67-22.1-32.83-54.51.26-59.3,28.22l22.43-4.06,15.33,1.44" fill="#3d3c3c"/>
      <path d="M1094.72,72.33s-6-55,46.14-55,42.87,56,42.87,56S1167.65,56.82,1148,53.76,1101.86,59.18,1094.72,72.33Z" fill="#352f2d"/>
      <path d="M1094.72,72.33s20.54-15.24,46.14-15.24,42.87,16.21,42.87,16.21-4.49-28.13-43.76-26.91S1094.72,72.33,1094.72,72.33Z" fill="#3f404f"/>
      <path d="M1145.93,32.09c-.07-2.93-1.59-6-4.39-6.82-.25-.11-.49-.23-.75-.32-3.32-1.11-6.38,1-7.67,4.14a7.16,7.16,0,0,0,3,9.66c4.22,2.66,9.12-.61,9.72-5.41A8.66,8.66,0,0,0,1145.93,32.09Z" fill="#3f404f"/>
      <path d="M1034.82,237.57s4.65,53.88,8,78.71,79,98,79,98l14.44-19.38-60.49-81.06-6.4-73.44Z" fill="#eacbb9"/>
      <path d="M1245,243.64s-4.36,47.81-7.76,72.64-79,98-79,98l-14.44-19.38,60.5-81.06,6.49-73.42Z" fill="#eacbb9"/>
      <path d="M1121.54,417.09c.64-2.73,2.7-5.1,4.42-6.68.43-.54,1-1.16,1.67-1.88,3.65-3.85,17.81-15.8,17.81-15.8s14.71,17.34,12.79,21.58-14.44,14.43-14.44,14.43l-3.28,4.52s-2.59,7-4.22,7.7-2.6-4.33-.68-9a21.35,21.35,0,0,1,4.32-6.23l-1-.77-4,4.6s-2.58,7-4.22,7.7-2.6-4.34-.67-9a21.86,21.86,0,0,1,4.65-6.58l-1.2-.94-3.66,4.25s-2.38,9.14-4,9.81-2.88-2.61-.88-11.16a13.86,13.86,0,0,1,4.13-6.41l-.94-.74-1.76,2s-2.37,9.14-4,9.82S1119.54,425.58,1121.54,417.09Z" fill="#eacbb9"/>
      <path d="M1158.6,417.09c-.63-2.73-2.69-5.1-4.41-6.68-.43-.54-1-1.16-1.67-1.88-3.65-3.85-17.81-15.8-17.81-15.8s-14.72,17.34-12.8,21.58,14.44,14.43,14.44,14.43l3.29,4.52s2.59,7,4.22,7.7,2.6-4.33.67-9a21.13,21.13,0,0,0-4.31-6.23l1-.77,4,4.6s2.58,7,4.22,7.7,2.6-4.34.67-9a22,22,0,0,0-4.65-6.58l1.2-.94,3.66,4.25s2.38,9.14,4,9.81,2.88-2.61.88-11.16a13.86,13.86,0,0,0-4.13-6.41l.94-.74,1.76,2s2.37,9.14,4,9.82S1160.61,425.58,1158.6,417.09Z" fill="#eacbb9"/>
      <path d="M203.33,6.84a56.06,56.06,0,0,0-57.68,2.41c-3.93,2.63-7.2,5.45-9,8.32-7,11.48-5.58,33-5.58,33s1.34,3.08,15.13,3.08S164.13,45,175,45s19.57,7.64,29.75,8.7,16.76-2.5,16.76-2.5-1.62-26.35-7.41-35.9C212.42,12.43,208.3,9.53,203.33,6.84Z" fill="#ac2e2b"/>
      <path d="M142.81,47.28S160.72,33.86,173.61,32c14.08-2.07,33.6,13,36.95,17,0,0,3.4,12.48-1.53,14.51s-22.69-10.27-30.75-11.11-29,12.66-35.47,11S142.81,47.28,142.81,47.28Z" fill="#ba3a3a"/>
      <path d="M650.22,141.09s-9.52,7.75-19,7.75-18.61-8.42-18.61-8.42c1.43-3.16,1.77-8.63,1.66-14.23a168.42,168.42,0,0,0-1.66-18.76l37.66,1.33a82.65,82.65,0,0,0-.76,11C649.29,130.21,650.22,141.09,650.22,141.09Z" fill="#f4d8c6"/>
      <path d="M650.22,108.78a82.65,82.65,0,0,0-.76,11,68.5,68.5,0,0,1-23.61,6.9,46.24,46.24,0,0,1-11.63-.51,168.42,168.42,0,0,0-1.66-18.76Z" fill="#eacbb9"/>
      <path d="M593.63,67.53s-7.41,1.36-5.39,12.8,12.12,11.9,12.12,11.9S600.84,72.53,593.63,67.53Z" fill="#f4d8c6"/>
      <path d="M670.91,67.53s7.41,1.36,5.39,12.8-12.12,11.9-12.12,11.9S663.69,72.53,670.91,67.53Z" fill="#f4d8c6"/>
      <path d="M632.34,37.55c-6.88-1-29.34.48-35.06,32.11,0,0,.28,19.71,6.92,33.44,5.12,10.57,27,20,28.14,19.68,1.12.32,23.29-9.44,28.41-20,6.64-13.73,6.72-32,6.72-32C661.75,39.09,639.23,36.52,632.34,37.55Z" fill="#f4d8c6"/>
      <path d="M659.91,86.49s-7.14-3.82-27.57-3.82-27.56,3.82-27.56,3.82c-1.66,26.58,27.56,33.39,27.56,33.39S661.57,113.09,659.91,86.49Z" fill="#fff"/>
      <path d="M596.91,71.76s6.2,11.85,9.41,15.62l-1.61,1.52s-6.25-9.61-7.8-13S596.91,71.76,596.91,71.76Z" fill="#fff"/>
      <path d="M667.31,71.76s-6.2,11.85-9.41,15.62l1.61,1.52s6.25-9.61,7.8-13S667.31,71.76,667.31,71.76Z" fill="#fff"/>
      <path d="M634.75,41s17.14,21.38,32.72,29.74c0,0,7.43,2.63,7-15.47a29.88,29.88,0,0,0-1.26-8.18c-.73-2.38-13.27-15.2-13.27-15.2l-57.52,2.74s-11.54,8-11.54,21.72,2.79,11.2,2.79,11.2S635.35,50.32,634.75,41Z" fill="#360917"/>
      <path d="M609,90.37a104.46,104.46,0,0,1,21.27-2.71c10.18,0,21.8,2.71,21.8,2.71" fill="none" stroke="#dadada" stroke-linecap="round" stroke-linejoin="round" stroke-width="1.73"/>
      <path d="M611.21,96.81a89.35,89.35,0,0,1,19.59-2.72c9.38,0,20.07,2.71,20.07,2.71" fill="none" stroke="#dadada" stroke-linecap="round" stroke-linejoin="round" stroke-width="1.73"/>
      <path d="M673.35,61.38s1.14-2.12-.1-16.06-8.09-21.58-23-25.14-35.09-.47-43.9,3.06-14.71,27-14.71,27l40.73-12.73,20.39,6" fill="#360917"/>
      <polygon points="882.71 127.88 900.68 148.52 878.99 158.31 875.88 136.65 882.71 127.88" fill="#e2e0dc"/>
      <polyline points="1034.83 228.65 1027.21 245.39 1071.44 255.84 1088.86 224.46" fill="#fffdf8"/>
      <polyline points="1196.56 232.75 1203.31 255.84 1250.11 248.59 1233.61 207.53 1200.9 209.34" fill="#fffdf8"/>
      <path d="M673.26,136c-28.89,7.67-53,7.63-81.77,0V49.3c28.67-7.2,53-7.23,81.77,0Z" fill="#dfeeef" opacity="0.45" style="isolation: isolate"/>
      <path d="M620.42,142c-3.74-.34-5.61-.58-9.32-1.19V44.73c3.71-.57,5.58-.8,9.32-1.12Z" fill="#dfeeef" opacity="0.13" style="isolation: isolate"/>
      <path d="M673.26,46.92c-28.89-7.67-53-7.63-81.77,0V49.3c28.67-7.2,53-7.23,81.77,0Z" fill="#e14b41"/>
      <path d="M941.16,135.09c-28.9,7.67-53,7.63-81.78,0V48.45c28.68-7.2,53-7.23,81.78,0Z" fill="#dfeeef" opacity="0.45" style="isolation: isolate"/>
      <path d="M888.35,141.09c-3.74-.34-5.6-.58-9.31-1.19v-96c3.71-.58,5.57-.81,9.31-1.13Z" fill="#dfeeef" opacity="0.13" style="isolation: isolate"/>
      <path d="M941.16,46.09c-28.9-7.67-53-7.63-81.78,0v2.38c28.68-7.2,53-7.23,81.78,0Z" fill="#e14b41"/>
      <path d="M1180.58,135.3c-28.9,7.67-53,7.63-81.77,0V48.63c28.67-7.2,53-7.23,81.77,0Z" fill="#dfeeef" opacity="0.45" style="isolation: isolate"/>
      <path d="M1127.78,141.31c-3.74-.34-5.61-.58-9.32-1.18v-96c3.71-.58,5.58-.8,9.32-1.13Z" fill="#dfeeef" opacity="0.13" style="isolation: isolate"/>
      <path d="M1180.58,46.25c-28.9-7.67-53-7.63-81.77,0v2.38c28.67-7.2,53-7.23,81.77,0Z" fill="#e14b41"/>
    </g>
  </g>
</svg>
