<?xml version="1.0" encoding="utf-8"?>
<!-- Generator: Adobe Illustrator 25.2.3, SVG Export Plug-In . SVG Version: 6.00 Build 0)  -->
<svg version="1.1" id="Layer_1" xmlns="http://www.w3.org/2000/svg" xmlns:xlink="http://www.w3.org/1999/xlink" x="0px" y="0px"
	 viewBox="0 0 860.1 860.1" style="enable-background:new 0 0 860.1 860.1;" xml:space="preserve">
<style type="text/css">
	.st0{fill:#FFFFFF;}
	.st1{fill:#C23749;}
	.st2{fill:#E8DFC5;}
	.st3{fill:#E0D3B3;}
</style>
<g>
	<circle class="st0" cx="430.1" cy="430.1" r="430.1"/>
	<g id="Layer_2_1_">
		<path class="st1" d="M604,167c-68.9-94.6-166.7,16-166.7,16s-91.1-116.1-165.4-25.7s158.2,275.3,158.2,275.3S673,261.6,604,167z"
			/>
		<path class="st2" d="M206.3,376.8c2.1,9.4,6.3,27.5,22.2,49.5c11.4,15.8,33.2,39.2,54.5,69.7c15.3,22,24.2,35,29.1,42.2
			c3.5,5.1,5.9,10.8,7.1,16.8l-36.8,110.6l87.5,7.7c0,0,33-115.2,33-163.5l0,0c0-5.6,0-11.6,0.2-18c0.6-29.6,9.2-52.9-76.3-53.7
			c-0.4-0.1-0.7-0.2-1.1-0.4c-3.3-1.3-8.4-3.6-15.9-9.7c-1.3-1-2.6-2.1-4-3.4c-7.4-6.6-15.3-12.5-23.7-17.8
			C243.3,382.8,204.4,368.2,206.3,376.8z"/>
		<path class="st2" d="M200.2,320.7c1.3-13.9,11.6-57.6,11.6-57.6s10.1,2.3,13.8,8.8c10.9,19,7.3,56.5,6.7,56.6
			c0,0,17.6,34,20.7,55.8l0,0c0,0,46.9,25.4,56.7,43.7c0.6,1,1,2.1,1.4,3.3c1.3,4.1,1.9,9.7,1.8,16c-0.3,22.1-9.1,52-22.1,49.7
			c-3.2-0.6-78.6-84.9-81.8-99.7C208.5,393.7,199.6,328.1,200.2,320.7z"/>
		<path class="st3" d="M253.1,384.3c10.1,3.3,71.8,45.2,75.1,46.5c7.7,9.7,9,24.1,5.2,25.8c-5.1,2.2-16.4-2.2-24-9.1
			c-10.1-9.3-13.1-21.5-16.1-28.3c-1.4-3.1-10.3-7.5-13.7-12C270.7,395.4,254.2,385.2,253.1,384.3z"/>
		<path class="st2" d="M371,424.4c0,0-80.2-64.6-89.1-81c0,0-14.1,5.1-8.5,26.5s45.1,59.9,47.5,75.1c8.9,57,41.2,74.6,41.2,74.6
			S450,488.2,371,424.4z"/>
		<path class="st2" d="M653.8,376.8c-2.1,9.4-6.3,27.5-22.1,49.5c-11.4,15.8-33.2,39.2-54.5,69.7c-15.3,22-24.2,35-29.1,42.2
			c-3.4,5.1-5.8,10.8-7,16.8l36.8,110.6l-87.5,7.7c0,0-33-115.2-33-163.5l0,0c0-5.6,0-11.6-0.2-18c-0.6-29.6-9.2-52.9,76.3-53.7
			c0.4-0.1,0.7-0.2,1.1-0.4c3.3-1.3,8.4-3.6,15.9-9.7c1.3-1,2.6-2.1,4-3.4c7.4-6.6,15.3-12.6,23.6-17.8
			C616.9,382.8,655.7,368.2,653.8,376.8z"/>
		<path class="st2" d="M659.9,320.7c-1.3-13.9-11.6-57.6-11.6-57.6s-10.1,2.3-13.8,8.8c-10.8,19-7.3,56.4-6.7,56.6
			c0,0-17.7,34-20.7,55.8l0,0c0,0-46.9,25.4-56.7,43.7c-0.6,1-1,2.1-1.4,3.3c-1.3,4.1-1.9,9.7-1.8,16c0.3,22.1,9.1,52,22.1,49.7
			c3.2-0.6,78.6-84.9,81.8-99.7C651.7,393.7,660.6,328.1,659.9,320.7z"/>
		<path class="st3" d="M607,384.3c-10.1,3.3-71.8,45.2-75.1,46.5c-7.7,9.7-9,24.1-5.2,25.8c5.1,2.2,16.4-2.2,24-9.1
			c10.1-9.3,13.1-21.5,16.1-28.3c1.4-3.1,10.3-7.5,13.7-12C589.4,395.4,605.9,385.2,607,384.3z"/>
		<path class="st2" d="M489.1,424.4c0,0,80.2-64.6,89.1-81c0,0,14.1,5.1,8.5,26.5c-5.6,21.4-45.1,59.9-47.5,75.1
			c-8.8,57-41.2,74.6-41.2,74.6S410.1,488.2,489.1,424.4z"/>
	</g>
</g>
</svg>
