<svg id="Layer_1" data-name="Layer 1" xmlns="http://www.w3.org/2000/svg" viewBox="0 0 205.9 236.39"><path d="M126.83,55.55l22.79,41.94,17-30.41a11.45,11.45,0,0,0,.16-10.9l-10.5-20a2.31,2.31,0,0,0-4.1,0l-7.24,14.7-15.18-.13a3.3,3.3,0,0,0-2.93,4.87" fill="#c2384a"/><path d="M163.31,73.06l-3.51,2.4A20,20,0,0,1,148.27,79l-31.7-.27.06-7.25A.89.89,0,0,0,115,71L100.16,96.83l14.48,25.85a.88.88,0,0,0,1.21.33.9.9,0,0,0,.45-.72l.45-8.59,14.74.13a16,16,0,0,0,14.17-8.35Z" fill="#eb94a6"/><path d="M90.46,41.29,115.39.59,80.52,1A11.45,11.45,0,0,0,71,6.35L58.89,25.46a2.31,2.31,0,0,0,.72,3.19A2.29,2.29,0,0,0,61,29l16.31-1,7.48,13.22a3.3,3.3,0,0,0,4.5,1.25,3.23,3.23,0,0,0,1.19-1.16" fill="#c2384a"/><path d="M95.51,79.21,47.79,78l17.82,30A11.41,11.41,0,0,0,75,113.56l22.61.93a2.29,2.29,0,0,0,2.39-2.2,2.34,2.34,0,0,0-.39-1.38l-9-13.62,7.7-13.08a3.3,3.3,0,0,0-1.1-4.52,3.43,3.43,0,0,0-1.65-.48" fill="#c2384a"/><path d="M62.16,102l-.33-4.23a20.08,20.08,0,0,1,2.72-11.75L80.64,58.74l6.25,3.68a.87.87,0,0,0,1.21-.29.89.89,0,0,0,0-.92L73.1,35.5l-29.63-.39a.89.89,0,0,0-.9.88.86.86,0,0,0,.41.76l7.18,4.68-7.48,12.7a16,16,0,0,0,.14,16.45Z" fill="#eb94a6"/><path d="M87.38,1l3.83,1.84A20.09,20.09,0,0,1,100,11l15.62,27.59-6.31,3.57a.89.89,0,0,0,.44,1.66l29.75-.1,15.14-25.47A.88.88,0,0,0,153.5,17l-7.66,3.9L138.57,8.1A16,16,0,0,0,124.26,0Z" fill="#eb94a6"/><path d="M145,226.42h-5.1a1,1,0,0,1,0-2.08H145a1,1,0,1,1,0,2.08" fill="#360a17"/><path d="M142.64,236.31h0a2.14,2.14,0,0,1-2.14-2.14h0V215.43a2.15,2.15,0,0,1,4.29,0v18.74a2.15,2.15,0,0,1-2.15,2.14" fill="#360a17"/><path d="M199.68,226.5h5.09a1,1,0,0,0,0-2.08h-5.09a1,1,0,0,0,0,2.08" fill="#360a17"/><path d="M202,236.39h0a2.14,2.14,0,0,0,2.14-2.14h0V215.51a2.14,2.14,0,0,0-4.28,0v18.74a2.14,2.14,0,0,0,2.14,2.14h0" fill="#360a17"/><path d="M193.32,236.31H151.16a5.32,5.32,0,0,1-5.33-5.13l-2.89-75.35a5.32,5.32,0,0,1,5.11-5.53h48a5.34,5.34,0,0,1,5.33,5.35v.19l-2.71,75.35a5.33,5.33,0,0,1-5.33,5.15" fill="#eb94a6"/><path d="M203.38,153.83H140.56l2.09-9.12a3.51,3.51,0,0,1,3.41-2.72h52.75a3.22,3.22,0,0,1,3.17,2.72Z" fill="#c2384a"/><path d="M201.37,156.08H142.21a4.75,4.75,0,0,1,0-9.49h59.16a4.75,4.75,0,0,1,0,9.49" fill="#c2384a"/><path d="M174,177.83a15.94,15.94,0,1,0,15.94,15.94A15.94,15.94,0,0,0,174,177.83m0,32.58a16.64,16.64,0,1,1,16.64-16.64A16.64,16.64,0,0,1,174,210.41" fill="#ede8d9"/><path d="M75.45,226.16H70.36a1,1,0,0,1,0-2.08h5.09a1,1,0,1,1,0,2.08" fill="#360a17"/><path d="M73.16,236.06h0A2.14,2.14,0,0,1,71,233.91V215.18a2.14,2.14,0,0,1,4.28,0h0v18.73a2.14,2.14,0,0,1-2.14,2.15" fill="#360a17"/><path d="M130.16,226.25h5.1a1,1,0,0,0,0-2.08h-5.1a1,1,0,0,0,0,2.08" fill="#360a17"/><path d="M132.49,236.14h0a2.15,2.15,0,0,0,2.14-2.14V215.26a2.15,2.15,0,0,0-4.29,0V234a2.14,2.14,0,0,0,2.15,2.14" fill="#360a17"/><path d="M123.8,236.06H81.65a5.35,5.35,0,0,1-5.34-5.14l-2.89-75.35A5.34,5.34,0,0,1,78.54,150h48a5.34,5.34,0,0,1,5.34,5.34v.2l-2.69,75.35a5.35,5.35,0,0,1-5.34,5.15" fill="#eb94a6"/><path d="M133.87,153.61H71.05l2.08-9.11a3.51,3.51,0,0,1,3.42-2.72h52.74a3.22,3.22,0,0,1,3.18,2.72Z" fill="#c2384a"/><path d="M131.85,155.83H72.7a4.75,4.75,0,0,1-.44-9.49h59.59a4.75,4.75,0,1,1,.43,9.49h-.43" fill="#c2384a"/><path d="M103.54,178.41a15.94,15.94,0,1,0,15.94,15.94,15.94,15.94,0,0,0-15.94-15.94m0,32.58a16.64,16.64,0,1,1,16.62-16.66v0A16.65,16.65,0,0,1,103.51,211" fill="#ede8d9"/><path d="M7.73,225.54H2.63a1,1,0,1,1,0-2.08h5.1a1,1,0,1,1,0,2.08" fill="#360a17"/><path d="M5.4,235.43h0a2.14,2.14,0,0,1-2.14-2.14h0V214.55a2.15,2.15,0,0,1,4.29,0v18.74a2.15,2.15,0,0,1-2.15,2.14" fill="#360a17"/><path d="M62.44,225.62h5.09a1,1,0,0,0,0-2.08H62.44a1,1,0,0,0,0,2.08" fill="#360a17"/><path d="M64.76,235.51h0a2.14,2.14,0,0,0,2.14-2.14h0V214.63a2.14,2.14,0,0,0-4.28,0v18.74a2.14,2.14,0,0,0,2.14,2.14h0" fill="#360a17"/><path d="M56.07,235.43H13.92a5.32,5.32,0,0,1-5.33-5.13l-2.9-75.36a5.34,5.34,0,0,1,5.13-5.53h48a5.35,5.35,0,0,1,5.37,5.31v.22l-2.71,75.35a5.33,5.33,0,0,1-5.34,5.15" fill="#eb94a6"/><path d="M66.16,153H3.32l2.09-9.12a3.51,3.51,0,0,1,3.41-2.72H61.57a3.22,3.22,0,0,1,3.17,2.72Z" fill="#c2384a"/><path d="M64.16,155.2H5a4.75,4.75,0,0,1-.44-9.49H64.16a4.75,4.75,0,0,1,0,9.49" fill="#c2384a"/><path d="M35.68,176.83a16,16,0,1,0,15.94,16v0a16,16,0,0,0-15.94-15.94m0,32.59a16.65,16.65,0,1,1,16.64-16.66h0a16.66,16.66,0,0,1-16.64,16.65" fill="#ede8d9"/><path d="M52.22,192.41a16.54,16.54,0,1,1-16.54-16.58,16.53,16.53,0,0,1,16.54,16.58h0" fill="#ede8d9"/><path d="M120.09,194.36a16.55,16.55,0,1,1-16.57-16.53h0a16.55,16.55,0,0,1,16.55,16.55" fill="#ede8d9"/><path d="M190.47,194.4a16.54,16.54,0,1,1-16.54-16.57,16.54,16.54,0,0,1,16.54,16.57h0" fill="#ede8d9"/><path d="M44.16,180.9,42,179.6a.65.65,0,0,0-.88.22h0L40,181.72l3.28,1.95,1.13-1.9a.65.65,0,0,0-.22-.87" fill="#c2384a"/><path d="M39.89,194.33a4.84,4.84,0,0,0,0-1.52A2.08,2.08,0,0,1,41,190.74c3.15-1.56,1.66-5.45,1.66-5.45l-.63-.38-2.62-1.56-.63-.37s-4.13.55-4,4.07a2.08,2.08,0,0,1-1.28,2,5.43,5.43,0,0,0-1.33.75c-.64.62-6.58,11.07-6.58,11.07s-.33,2.19,2.7,4.11h0c3.14,1.74,4.9.4,4.9.4s6.35-10.2,6.58-11.07" fill="#c2384a"/><rect x="40.71" y="180.33" width="0.54" height="4.85" transform="translate(-137.12 124.78) rotate(-59.33)" fill="#c2384a"/><path d="M97.63,185l12,.34a.43.43,0,0,1,.38.33c1,6.89,0,13.29-4.43,17.82a1.15,1.15,0,0,1-.91.34l-12.37-.7a.27.27,0,0,1-.27-.29.36.36,0,0,1,.07-.17c3.84-4.68,5.16-10.76,5.33-17.48a.19.19,0,0,1,.19-.19h0" fill="#c2384a"/><path d="M106,204a.11.11,0,0,1-.11,0,.2.2,0,0,1,0-.25c5.56-6.31,5.31-12.74,4.34-18.19a.16.16,0,0,1,.13-.19h0a.19.19,0,0,1,.2.14h0c1,5.53,1.24,12.06-4.41,18.48a.2.2,0,0,1-.14.06" fill="#c2384a"/><path d="M106.73,204.4a.11.11,0,0,1-.11,0,.2.2,0,0,1,0-.25c5.56-6.32,5.31-12.74,4.34-18.19a.16.16,0,0,1,.13-.19h0a.19.19,0,0,1,.2.14c1,5.53,1.24,12-4.41,18.48a.2.2,0,0,1-.14.06" fill="#c2384a"/><rect x="182.37" y="180.08" width="0.56" height="11.5" transform="translate(-77.85 180.26) rotate(-44.27)" fill="#c2384a"/><polygon points="186.21 190.32 178.18 182.09 175.64 182.43 185.73 192.78 186.21 190.32" fill="#c2384a"/><rect x="165.08" y="196.99" width="0.44" height="11.5" transform="translate(-94.59 172.95) rotate(-44.27)" fill="#c2384a"/><polygon points="169.7 206.41 161.67 198.19 162.07 195.65 172.16 206 169.7 206.41" fill="#c2384a"/><rect x="165.13" y="186.96" width="17.61" height="14.46" transform="translate(-86.17 176.55) rotate(-44.27)" fill="#c2384a"/></svg>