<?xml version="1.0" encoding="utf-8"?>
<!-- Generator: Adobe Illustrator 25.2.3, SVG Export Plug-In . SVG Version: 6.00 Build 0)  -->
<svg version="1.1" id="Layer_1" xmlns="http://www.w3.org/2000/svg" xmlns:xlink="http://www.w3.org/1999/xlink" x="0px" y="0px"
	 viewBox="0 0 478.5 168.4" style="enable-background:new 0 0 478.5 168.4;" xml:space="preserve">
<style type="text/css">
	.st0{fill:#C2384A;}
	.st1{fill:#730526;}
	.st2{enable-background:new    ;}
	.st3{fill:#FFFFFF;}
</style>
<g>
	<g>
		<rect y="36.4" class="st0" width="98.6" height="1"/>
	</g>
</g>
<g>
	<rect x="255.6" y="100.7" class="st1" width="85.8" height="20.4"/>
</g>
<g>
	<rect x="35.5" y="100.7" class="st0" width="220.1" height="20.4"/>
</g>
<g class="st2">
	<path class="st3" d="M123.6,117.3V108c-0.5,0.3-1.2,0.5-1.7,0.7v-1.5c0.7-0.3,1.5-0.8,2.3-1.2h1v11.3H123.6z"/>
	<path class="st3" d="M129.4,110.7c0.7,0,1.2-0.1,1.6-0.2c0.9-0.2,1.5-0.9,1.5-1.7c0-0.9-0.8-1.6-1.9-1.6c-0.8,0-1.6,0.4-1.9,1.2
		l-1.4-0.6c0.4-1.2,1.6-2.1,3.2-2.1c2.1,0,3.5,1.2,3.5,3c0,1-0.6,2-1.4,2.4c1.2,0.4,2,1.5,2,2.8c0,2.2-1.7,3.5-3.8,3.5
		c-1.4,0-2.9-0.6-3.6-1.9l1.3-0.7c0.5,0.8,1.3,1.2,2.2,1.2c1.2,0,2.3-0.6,2.3-1.9c0-1.1-1.1-1.9-2.4-1.9c-0.4,0-0.8,0-1.3,0.1
		L129.4,110.7L129.4,110.7z"/>
</g>
<g class="st2">
	<path class="st3" d="M137.7,119.5h-1.5l0.9-4.2h1.7L137.7,119.5z"/>
</g>
<g class="st2">
	<path class="st3" d="M141.9,117.3V108c-0.5,0.3-1.2,0.5-1.7,0.7v-1.5c0.7-0.3,1.5-0.8,2.3-1.2h1v11.3H141.9z"/>
	<path class="st3" d="M150.7,117.3v-2.8h-5.1v-1.7c1.4-1.9,3.5-4.6,5-6.7h1.6v7h1.7v1.4h-1.7v2.8
		C152.2,117.3,150.7,117.3,150.7,117.3z M150.7,113v-4.8c-1.1,1.5-2.6,3.7-3.4,4.8H150.7z"/>
	<path class="st3" d="M156.5,116.5c2.1-0.9,3.8-2.2,4.4-4.4c-0.7,0.7-1.5,1-2.5,1c-2,0-3.3-1.6-3.3-3.6c0-2.1,1.5-3.7,3.6-3.7
		c2.6,0,4.1,2.1,4.1,4.5c0,3.6-2.5,6.4-5.6,7.6L156.5,116.5z M161.1,110.3c0-1.6-0.7-3.1-2.4-3.1c-1.3,0-2.1,1-2.1,2.3
		s0.8,2.2,2,2.2C159.6,111.7,160.6,111.1,161.1,110.3z"/>
</g>
<g class="st2">
	<path class="st3" d="M287.8,107.4h-4.3c-0.1,1-0.1,2.2-0.2,3.2c0.5-0.2,1.1-0.3,1.7-0.3c1.9,0,3.5,1.5,3.5,3.5
		c0,2.1-1.6,3.8-3.8,3.8c-1.4,0-3-0.7-3.6-1.9l1.3-0.7c0.4,0.8,1.2,1.2,2.1,1.2c1.5,0,2.3-1,2.3-2.3s-1-2.1-2.3-2.1
		c-0.7,0-1.3,0.2-1.8,0.7l-1.2-0.6c0.2-1.7,0.3-4.1,0.4-5.8h5.8v1.3H287.8z"/>
</g>
<g class="st2">
	<path class="st3" d="M291.1,119.5h-1.5l0.9-4.2h1.7L291.1,119.5z"/>
</g>
<g class="st2">
	<path class="st3" d="M298.4,117.3v-2.8h-5.1v-1.7c1.4-1.9,3.5-4.6,5-6.7h1.6v7h1.7v1.4H300v2.8C300,117.3,298.4,117.3,298.4,117.3z
		 M298.4,113v-4.8c-1.1,1.5-2.6,3.7-3.4,4.8H298.4z"/>
</g>
<g class="st2">
	<path class="st3" d="M310.8,111.6c0,3.6-1.4,5.8-4,5.8s-4-2.2-4-5.8c0-3.6,1.4-5.8,4-5.8S310.8,108,310.8,111.6z M304.5,111.6
		c0,2.9,0.9,4.4,2.4,4.4s2.4-1.4,2.4-4.4s-0.9-4.4-2.4-4.4S304.5,108.7,304.5,111.6z"/>
</g>
<g class="st2">
	<path class="st3" d="M318.7,106.8c-2.1,0.9-3.8,2.2-4.4,4.4c0.7-0.7,1.5-1,2.5-1c2,0,3.3,1.6,3.3,3.6c0,2.1-1.5,3.7-3.6,3.7
		c-2.6,0-4.1-2.1-4.1-4.5c0-3.6,2.5-6.4,5.6-7.6L318.7,106.8z M314.1,113c0,1.6,0.7,3.1,2.4,3.1c1.3,0,2.1-1,2.1-2.3s-0.8-2.2-2-2.2
		C315.5,111.5,314.6,112.1,314.1,113z"/>
</g>
<g class="st2">
	<path class="st0" d="M124.3,133l-3.1-4.3v4.3h-1.1v-6.3h1l3.1,4.3v-4.3h1.1v6.3H124.3z"/>
	<path class="st0" d="M129.9,133l-0.1-0.7c-0.4,0.5-0.9,0.8-1.5,0.8s-1-0.2-1.3-0.6c-0.3-0.5-0.4-1.1-0.4-1.7v-2.4h1.1v2.3
		c0,0.4,0,0.8,0.2,1.1c0.1,0.2,0.4,0.4,0.7,0.4c0.4,0,0.9-0.3,1.2-0.7v-3.1h1.1v4.6L129.9,133L129.9,133z"/>
	<path class="st0" d="M138.2,133v-2.3c0-0.4,0-0.8-0.2-1.1c-0.1-0.2-0.4-0.4-0.7-0.4c-0.4,0-0.8,0.2-1.1,0.6c0,0.2,0,0.5,0,0.7v2.4
		h-1.1v-2.3c0-0.4,0-0.8-0.2-1.1c-0.1-0.2-0.4-0.3-0.6-0.3c-0.4,0-0.8,0.3-1,0.6v3.2h-1.1v-4.6h1v0.6c0.4-0.5,0.9-0.7,1.4-0.7
		s1,0.2,1.3,0.6c0,0.1,0.1,0.1,0.1,0.2c0.4-0.6,1-0.8,1.6-0.8c0.5,0,1,0.2,1.2,0.6c0.4,0.5,0.4,1.1,0.4,1.8v2.4L138.2,133L138.2,133
		z"/>
	<path class="st0" d="M141.7,126.3v2.6c0.3-0.4,0.9-0.6,1.4-0.6c1.3,0,2.2,1.1,2.2,2.4c0,1.3-0.9,2.4-2.2,2.4
		c-0.5,0-1.1-0.2-1.4-0.6l-0.1,0.5h-1v-6.8h1.1V126.3z M141.7,131.6c0.3,0.4,0.8,0.6,1.2,0.6c0.9,0,1.3-0.8,1.3-1.5
		c0-0.8-0.5-1.5-1.3-1.5c-0.4,0-0.9,0.2-1.2,0.7V131.6z"/>
	<path class="st0" d="M147.1,131c0.1,0.7,0.5,1.3,1.3,1.3c0.6,0,1-0.2,1.3-0.7l0.7,0.5c-0.5,0.8-1.1,1.1-2.1,1.1
		c-1.4,0-2.3-1-2.3-2.4s1-2.5,2.3-2.5s2.2,0.9,2.2,2.2c0,0.2,0,0.4,0,0.5L147.1,131L147.1,131z M148.3,129.2c-0.7,0-1.1,0.5-1.2,1
		h2.2C149.4,129.6,148.9,129.2,148.3,129.2z"/>
	<path class="st0" d="M152.6,129.1c0.3-0.5,0.6-0.8,1.1-0.8c0.2,0,0.4,0,0.6,0.1l-0.2,1c-0.1-0.1-0.3-0.1-0.4-0.1
		c-0.4,0-0.7,0.2-1,0.6v3.1h-1.1v-4.6h1L152.6,129.1z"/>
	<path class="st0" d="M161.5,130.7c0,1.4-1,2.4-2.4,2.4s-2.4-1.1-2.4-2.4c0-1.4,1-2.4,2.4-2.4S161.5,129.4,161.5,130.7z
		 M159.1,129.2c-0.8,0-1.3,0.7-1.3,1.5s0.5,1.5,1.3,1.5s1.3-0.7,1.3-1.5C160.4,129.9,159.9,129.2,159.1,129.2z"/>
	<path class="st0" d="M165,127.3c-0.2-0.1-0.4-0.1-0.6-0.1c-0.2,0-0.4,0.1-0.4,0.2c-0.1,0.1-0.2,0.4-0.2,0.7v0.4h1.2v0.9h-1.2v3.7
		h-1.1v-3.7h-0.5v-0.9h0.5V128c0-0.5,0.1-0.9,0.3-1.2c0.2-0.3,0.6-0.5,1.3-0.5c0.4,0,0.7,0.1,1.1,0.2L165,127.3z"/>
</g>
<g class="st2">
	<path class="st0" d="M106.4,137.3c-0.2-0.1-0.4-0.1-0.6-0.1s-0.4,0.1-0.4,0.2c-0.1,0.1-0.2,0.4-0.2,0.7v0.4h1.2v0.9h-1.2v3.7H104
		v-3.7h-0.5v-0.9h0.5V138c0-0.5,0.1-0.9,0.3-1.2c0.2-0.3,0.6-0.5,1.3-0.5c0.4,0,0.7,0.1,1.1,0.2L106.4,137.3z"/>
	<path class="st0" d="M107.8,141c0.1,0.7,0.5,1.3,1.3,1.3c0.6,0,1-0.2,1.3-0.7l0.7,0.5c-0.5,0.8-1.1,1.1-2.1,1.1
		c-1.4,0-2.3-1-2.3-2.4s1-2.5,2.3-2.5s2.2,0.9,2.2,2.2c0,0.2,0,0.4,0,0.5L107.8,141L107.8,141z M109,139.2c-0.7,0-1.1,0.5-1.2,1h2.2
		C110.1,139.6,109.6,139.2,109,139.2z"/>
	<path class="st0" d="M118.1,143v-2.3c0-0.4,0-0.8-0.2-1.1c-0.1-0.2-0.4-0.4-0.7-0.4c-0.4,0-0.8,0.2-1.1,0.6c0,0.2,0,0.5,0,0.7v2.4
		H115v-2.3c0-0.4,0-0.8-0.2-1.1c-0.1-0.2-0.4-0.3-0.6-0.3c-0.4,0-0.8,0.3-1,0.6v3.2h-1.1v-4.6h1v0.6c0.4-0.5,0.9-0.7,1.4-0.7
		s1,0.2,1.3,0.6c0,0.1,0.1,0.1,0.1,0.2c0.4-0.6,1-0.8,1.6-0.8c0.5,0,1,0.2,1.2,0.6c0.4,0.5,0.4,1.1,0.4,1.8v2.4L118.1,143L118.1,143
		z"/>
	<path class="st0" d="M123.3,143l-0.1-0.4c-0.3,0.4-0.8,0.5-1.3,0.5c-0.9,0-1.7-0.5-1.7-1.5c0-1.2,1.1-1.5,2-1.5
		c0.2,0,0.5,0,0.9,0.1v-0.1c0-0.6-0.3-1-1-1c-0.5,0-1,0.2-1.4,0.4l-0.3-0.8c0.5-0.3,1.3-0.5,1.9-0.5c1.3,0,1.9,0.7,1.9,1.9v2.8h-0.9
		V143z M123.2,141c-0.3-0.1-0.5-0.1-0.7-0.1c-0.5,0-1.1,0.2-1.1,0.8c0,0.5,0.4,0.7,0.8,0.7s0.7-0.2,1.1-0.5V141H123.2z"/>
	<path class="st0" d="M126.7,143h-1.1v-6.8h1.1V143z"/>
	<path class="st0" d="M128.8,141c0.1,0.7,0.5,1.3,1.3,1.3c0.6,0,1-0.2,1.3-0.7l0.7,0.5c-0.5,0.8-1.1,1.1-2.1,1.1
		c-1.4,0-2.3-1-2.3-2.4s1-2.5,2.3-2.5s2.2,0.9,2.2,2.2c0,0.2,0,0.4,0,0.5L128.8,141L128.8,141z M130.1,139.2c-0.7,0-1.1,0.5-1.2,1
		h2.2C131.1,139.6,130.6,139.2,130.1,139.2z"/>
	<path class="st0" d="M136.2,141c0.1,0.7,0.5,1.3,1.3,1.3c0.6,0,1-0.2,1.3-0.7l0.7,0.5c-0.5,0.8-1.1,1.1-2.1,1.1
		c-1.4,0-2.3-1-2.3-2.4s1-2.5,2.3-2.5s2.2,0.9,2.2,2.2c0,0.2,0,0.4,0,0.5L136.2,141L136.2,141z M137.5,139.2c-0.7,0-1.1,0.5-1.2,1
		h2.2C138.5,139.6,138.1,139.2,137.5,139.2z"/>
	<path class="st0" d="M146.6,143v-2.3c0-0.4,0-0.8-0.2-1.1c-0.1-0.2-0.4-0.4-0.7-0.4c-0.4,0-0.8,0.2-1.1,0.6c0,0.2,0,0.5,0,0.7v2.4
		h-1.1v-2.3c0-0.4,0-0.8-0.2-1.1c-0.1-0.2-0.4-0.3-0.6-0.3c-0.4,0-0.8,0.3-1,0.6v3.2h-1.1v-4.6h1v0.6c0.4-0.5,0.9-0.7,1.4-0.7
		s1,0.2,1.3,0.6c0,0.1,0.1,0.1,0.1,0.2c0.4-0.6,1-0.8,1.6-0.8c0.5,0,1,0.2,1.2,0.6c0.4,0.5,0.4,1.1,0.4,1.8v2.4L146.6,143L146.6,143
		z"/>
	<path class="st0" d="M150,138.4l0.1,0.6c0.3-0.5,0.9-0.7,1.4-0.7c1.3,0,2.2,1.1,2.2,2.4c0,1.3-0.9,2.4-2.2,2.4
		c-0.5,0-1-0.2-1.4-0.6v2.7H149v-6.9h1V138.4z M150.1,141.6c0.3,0.4,0.8,0.6,1.2,0.6c0.9,0,1.3-0.8,1.3-1.5c0-0.8-0.5-1.5-1.3-1.5
		c-0.4,0-0.9,0.2-1.2,0.7V141.6z"/>
	<path class="st0" d="M155.8,143h-1.1v-6.8h1.1V143z"/>
	<path class="st0" d="M161.6,140.7c0,1.4-1,2.4-2.4,2.4s-2.4-1.1-2.4-2.4c0-1.4,1-2.4,2.4-2.4S161.6,139.4,161.6,140.7z
		 M159.2,139.2c-0.8,0-1.3,0.7-1.3,1.5s0.5,1.5,1.3,1.5s1.3-0.7,1.3-1.5S160,139.2,159.2,139.2z"/>
	<path class="st0" d="M163.2,138.4l1,3.1l0,0l1.1-3.1h1.2l-2.6,6.7l-1-0.4l0.7-2l-1.7-4.4L163.2,138.4L163.2,138.4z"/>
	<path class="st0" d="M168,141c0.1,0.7,0.5,1.3,1.3,1.3c0.6,0,1-0.2,1.3-0.7l0.7,0.5c-0.5,0.8-1.1,1.1-2.1,1.1c-1.4,0-2.3-1-2.3-2.4
		s1-2.5,2.3-2.5s2.2,0.9,2.2,2.2c0,0.2,0,0.4,0,0.5L168,141L168,141z M169.2,139.2c-0.7,0-1.1,0.5-1.2,1h2.2
		C170.2,139.6,169.8,139.2,169.2,139.2z"/>
	<path class="st0" d="M173.1,141c0.1,0.7,0.5,1.3,1.3,1.3c0.6,0,1-0.2,1.3-0.7l0.7,0.5c-0.5,0.8-1.1,1.1-2.1,1.1
		c-1.4,0-2.3-1-2.3-2.4s1-2.5,2.3-2.5s2.2,0.9,2.2,2.2c0,0.2,0,0.4,0,0.5L173.1,141L173.1,141z M174.4,139.2c-0.7,0-1.1,0.5-1.2,1
		h2.2C175.4,139.6,175,139.2,174.4,139.2z"/>
	<path class="st0" d="M180,139.5c-0.2-0.2-0.6-0.4-0.9-0.4c-0.3,0-0.5,0.2-0.5,0.5s0.4,0.5,0.8,0.6c0.6,0.2,1.4,0.5,1.4,1.4
		c0,1-0.8,1.5-1.7,1.5c-0.7,0-1.3-0.3-1.8-0.8l0.7-0.6c0.3,0.3,0.6,0.5,1.1,0.5c0.3,0,0.7-0.2,0.7-0.5s-0.5-0.5-0.9-0.7
		c-0.5-0.2-1.3-0.5-1.3-1.4s0.8-1.4,1.6-1.4c0.6,0,1.1,0.2,1.5,0.6L180,139.5z"/>
</g>
<g class="st2">
	<path class="st1" d="M282.8,134.8l-3.1-4.3v4.3h-1.1v-6.3h1l3.1,4.3v-4.3h1.1v6.3H282.8z"/>
	<path class="st1" d="M288.4,134.8l-0.1-0.7c-0.4,0.5-0.9,0.8-1.5,0.8s-1-0.2-1.3-0.6c-0.3-0.5-0.4-1.1-0.4-1.7v-2.4h1.1v2.3
		c0,0.4,0,0.8,0.2,1.1c0.1,0.2,0.4,0.4,0.7,0.4c0.4,0,0.9-0.3,1.2-0.7v-3.1h1.1v4.6L288.4,134.8L288.4,134.8z"/>
	<path class="st1" d="M296.7,134.8v-2.3c0-0.4,0-0.8-0.2-1.1c-0.1-0.2-0.4-0.4-0.7-0.4c-0.4,0-0.8,0.2-1.1,0.6c0,0.2,0,0.5,0,0.7
		v2.4h-1.1v-2.3c0-0.4,0-0.8-0.2-1.1c-0.1-0.2-0.4-0.3-0.6-0.3c-0.4,0-0.8,0.3-1,0.6v3.2h-1.1v-4.6h1v0.6c0.4-0.5,0.9-0.7,1.4-0.7
		s1,0.2,1.3,0.6c0,0.1,0.1,0.1,0.1,0.2c0.4-0.6,1-0.8,1.6-0.8c0.5,0,1,0.2,1.2,0.6c0.4,0.5,0.4,1.1,0.4,1.8v2.4L296.7,134.8
		L296.7,134.8z"/>
	<path class="st1" d="M300.2,128v2.6c0.3-0.4,0.9-0.6,1.4-0.6c1.3,0,2.2,1.1,2.2,2.4c0,1.3-0.9,2.4-2.2,2.4c-0.5,0-1.1-0.2-1.4-0.6
		l-0.1,0.5h-1V128H300.2z M300.2,133.4c0.3,0.4,0.8,0.6,1.2,0.6c0.9,0,1.3-0.8,1.3-1.5c0-0.8-0.5-1.5-1.3-1.5
		c-0.4,0-0.9,0.2-1.2,0.7V133.4z"/>
	<path class="st1" d="M305.6,132.7c0.1,0.7,0.5,1.3,1.3,1.3c0.6,0,1-0.2,1.3-0.7l0.7,0.5c-0.5,0.8-1.1,1.1-2.1,1.1
		c-1.4,0-2.3-1-2.3-2.4s1-2.5,2.3-2.5s2.2,0.9,2.2,2.2c0,0.2,0,0.4,0,0.5L305.6,132.7L305.6,132.7z M306.8,130.9
		c-0.7,0-1.1,0.5-1.2,1h2.2C307.9,131.4,307.4,130.9,306.8,130.9z"/>
	<path class="st1" d="M311.1,130.8c0.3-0.5,0.6-0.8,1.1-0.8c0.2,0,0.4,0,0.6,0.1l-0.2,1c-0.1-0.1-0.3-0.1-0.4-0.1
		c-0.4,0-0.7,0.2-1,0.6v3.1H310v-4.6h1L311.1,130.8z"/>
	<path class="st1" d="M320,132.5c0,1.4-1,2.4-2.4,2.4s-2.4-1.1-2.4-2.4c0-1.4,1-2.4,2.4-2.4C319,130,320,131.1,320,132.5z
		 M317.6,131c-0.8,0-1.3,0.7-1.3,1.5s0.5,1.5,1.3,1.5s1.3-0.7,1.3-1.5S318.4,131,317.6,131z"/>
	<path class="st1" d="M323.5,129c-0.2-0.1-0.4-0.1-0.6-0.1s-0.4,0.1-0.4,0.2c-0.1,0.1-0.2,0.4-0.2,0.7v0.4h1.2v0.9h-1.2v3.7h-1.1
		v-3.7h-0.5v-0.9h0.5v-0.5c0-0.5,0.1-0.9,0.3-1.2c0.2-0.3,0.6-0.5,1.3-0.5c0.4,0,0.7,0.1,1.1,0.2L323.5,129z"/>
</g>
<g class="st2">
	<path class="st1" d="M272.5,144.8v-2.3c0-0.4,0-0.8-0.2-1.1c-0.1-0.2-0.4-0.4-0.7-0.4c-0.4,0-0.8,0.2-1.1,0.6c0,0.2,0,0.5,0,0.7
		v2.4h-1.1v-2.3c0-0.4,0-0.8-0.2-1.1c-0.1-0.2-0.4-0.3-0.6-0.3c-0.4,0-0.8,0.3-1,0.6v3.2h-1.1v-4.6h1v0.6c0.4-0.5,0.9-0.7,1.4-0.7
		s1,0.2,1.3,0.6c0,0.1,0.1,0.1,0.1,0.2c0.4-0.6,1-0.8,1.6-0.8c0.5,0,1,0.2,1.2,0.6c0.4,0.5,0.4,1.1,0.4,1.8v2.4L272.5,144.8
		L272.5,144.8z"/>
	<path class="st1" d="M277.7,144.8l-0.1-0.4c-0.3,0.4-0.8,0.5-1.3,0.5c-0.9,0-1.7-0.5-1.7-1.5c0-1.2,1.1-1.5,2-1.5
		c0.2,0,0.5,0,0.9,0.1v-0.1c0-0.6-0.3-1-1-1c-0.5,0-1,0.2-1.4,0.4l-0.3-0.8c0.5-0.3,1.3-0.5,1.9-0.5c1.3,0,1.9,0.7,1.9,1.9v2.8h-0.9
		V144.8z M277.6,142.7c-0.3-0.1-0.5-0.1-0.7-0.1c-0.5,0-1.1,0.2-1.1,0.8c0,0.5,0.4,0.7,0.8,0.7s0.7-0.2,1.1-0.5L277.6,142.7
		L277.6,142.7z"/>
	<path class="st1" d="M281,144.8h-1.1V138h1.1V144.8z"/>
	<path class="st1" d="M283.1,142.7c0.1,0.7,0.5,1.3,1.3,1.3c0.6,0,1-0.2,1.3-0.7l0.7,0.5c-0.5,0.8-1.1,1.1-2.1,1.1
		c-1.4,0-2.3-1-2.3-2.4s1-2.5,2.3-2.5s2.2,0.9,2.2,2.2c0,0.2,0,0.4,0,0.5L283.1,142.7L283.1,142.7z M284.4,140.9
		c-0.7,0-1.1,0.5-1.2,1h2.2C285.4,141.4,285,140.9,284.4,140.9z"/>
	<path class="st1" d="M290.6,142.7c0.1,0.7,0.5,1.3,1.3,1.3c0.6,0,1-0.2,1.3-0.7l0.7,0.5c-0.5,0.8-1.1,1.1-2.1,1.1
		c-1.4,0-2.3-1-2.3-2.4s1-2.5,2.3-2.5s2.2,0.9,2.2,2.2c0,0.2,0,0.4,0,0.5L290.6,142.7L290.6,142.7z M291.8,140.9
		c-0.7,0-1.1,0.5-1.2,1h2.2C292.9,141.4,292.4,140.9,291.8,140.9z"/>
	<path class="st1" d="M300.9,144.8v-2.3c0-0.4,0-0.8-0.2-1.1c-0.1-0.2-0.4-0.4-0.7-0.4c-0.4,0-0.8,0.2-1.1,0.6c0,0.2,0,0.5,0,0.7
		v2.4H298v-2.3c0-0.4,0-0.8-0.2-1.1c-0.1-0.2-0.4-0.3-0.6-0.3c-0.4,0-0.8,0.3-1,0.6v3.2H295v-4.6h1v0.6c0.4-0.5,0.9-0.7,1.4-0.7
		s1,0.2,1.3,0.6c0,0.1,0.1,0.1,0.1,0.2c0.4-0.6,1-0.8,1.6-0.8c0.5,0,1,0.2,1.2,0.6c0.4,0.5,0.4,1.1,0.4,1.8v2.4L300.9,144.8
		L300.9,144.8z"/>
	<path class="st1" d="M304.3,140.1l0.1,0.6c0.3-0.5,0.9-0.7,1.4-0.7c1.3,0,2.2,1.1,2.2,2.4c0,1.3-0.9,2.4-2.2,2.4
		c-0.5,0-1-0.2-1.4-0.6v2.7h-1.1V140h1V140.1z M304.4,143.3c0.3,0.4,0.8,0.6,1.2,0.6c0.9,0,1.3-0.8,1.3-1.5c0-0.8-0.5-1.5-1.3-1.5
		c-0.4,0-0.9,0.2-1.2,0.7V143.3z"/>
	<path class="st1" d="M310.2,144.8h-1.1V138h1.1V144.8z"/>
	<path class="st1" d="M316,142.5c0,1.4-1,2.4-2.4,2.4s-2.4-1.1-2.4-2.4c0-1.4,1-2.4,2.4-2.4C314.9,140,316,141.1,316,142.5z
		 M313.6,141c-0.8,0-1.3,0.7-1.3,1.5s0.5,1.5,1.3,1.5s1.3-0.7,1.3-1.5C314.9,141.6,314.3,141,313.6,141z"/>
	<path class="st1" d="M317.5,140.1l1,3.1l0,0l1.1-3.1h1.2l-2.6,6.7l-1-0.4l0.7-2l-1.7-4.4L317.5,140.1L317.5,140.1z"/>
	<path class="st1" d="M322.3,142.7c0.1,0.7,0.5,1.3,1.3,1.3c0.6,0,1-0.2,1.3-0.7l0.7,0.5c-0.5,0.8-1.1,1.1-2.1,1.1
		c-1.4,0-2.3-1-2.3-2.4s1-2.5,2.3-2.5s2.2,0.9,2.2,2.2c0,0.2,0,0.4,0,0.5L322.3,142.7L322.3,142.7z M323.6,140.9
		c-0.7,0-1.1,0.5-1.2,1h2.2C324.6,141.4,324.1,140.9,323.6,140.9z"/>
	<path class="st1" d="M327.5,142.7c0.1,0.7,0.5,1.3,1.3,1.3c0.6,0,1-0.2,1.3-0.7l0.7,0.5c-0.5,0.8-1.1,1.1-2.1,1.1
		c-1.4,0-2.3-1-2.3-2.4s1-2.5,2.3-2.5s2.2,0.9,2.2,2.2c0,0.2,0,0.4,0,0.5L327.5,142.7L327.5,142.7z M328.8,140.9
		c-0.7,0-1.1,0.5-1.2,1h2.2C329.8,141.4,329.3,140.9,328.8,140.9z"/>
	<path class="st1" d="M334.3,141.3c-0.2-0.2-0.6-0.4-0.9-0.4s-0.5,0.2-0.5,0.5s0.4,0.5,0.8,0.6c0.6,0.2,1.4,0.5,1.4,1.4
		c0,1-0.8,1.5-1.7,1.5c-0.7,0-1.3-0.3-1.8-0.8l0.7-0.6c0.3,0.3,0.6,0.5,1.1,0.5c0.3,0,0.7-0.2,0.7-0.5s-0.5-0.5-0.9-0.7
		c-0.5-0.2-1.3-0.5-1.3-1.4s0.8-1.4,1.6-1.4c0.6,0,1.1,0.2,1.5,0.6L334.3,141.3z"/>
</g>
<g class="st2">
	<path class="st0" d="M50.9,28.9H40v-2.4c1.9-2,4.2-4.6,5.7-6.8c0.6-0.9,1.4-2.1,1.4-3.1c0-1.2-1-2-2.2-2s-2.2,1-2.2,2.4l-3-0.5
		c0.2-2.8,2.7-4.5,5.3-4.5c2.7,0,5.2,1.7,5.2,4.5c0,1.6-0.8,3.2-1.7,4.6c-1.3,1.8-2.8,3.6-4.3,5.2H51L50.9,28.9L50.9,28.9z"/>
</g>
<g class="st2">
	<path class="st0" d="M64.8,20.6c0,5.3-2.2,8.6-6.1,8.6s-6-3.3-6-8.6s2.2-8.6,6-8.6C62.6,12,64.8,15.2,64.8,20.6z M55.8,20.6
		c0,4,1.1,5.9,2.9,5.9c1.9,0,3-2,3-5.9c0-4-1.1-5.9-3-5.9C56.8,14.6,55.8,16.6,55.8,20.6z"/>
</g>
<g class="st2">
	<path class="st0" d="M78,28.9H67.1v-2.4c1.9-2,4.2-4.6,5.7-6.8c0.6-0.9,1.4-2.1,1.4-3.1c0-1.2-1-2-2.2-2s-2.2,1-2.2,2.4l-3-0.5
		c0.2-2.8,2.7-4.5,5.3-4.5c2.7,0,5.2,1.7,5.2,4.5c0,1.6-0.8,3.2-1.7,4.6c-1.3,1.8-2.8,3.6-4.3,5.2H78V28.9z"/>
</g>
<g class="st2">
	<path class="st0" d="M91.9,20.6c0,5.3-2.2,8.6-6.1,8.6s-6-3.3-6-8.6s2.2-8.6,6-8.6C89.7,12,91.9,15.2,91.9,20.6z M82.9,20.6
		c0,4,1.1,5.9,2.9,5.9c1.9,0,3-2,3-5.9c0-4-1.1-5.9-3-5.9C84,14.6,82.9,16.6,82.9,20.6z"/>
</g>
<g class="st2">
	<path class="st0" d="M41.2,56v-9.3c-0.5,0.3-1.2,0.5-1.7,0.7v-1.5c0.7-0.3,1.5-0.8,2.3-1.2h1V56H41.2z"/>
	<path class="st0" d="M45.4,52.9c0-1.3,0.7-2.3,1.8-2.8c-0.9-0.5-1.4-1.2-1.4-2.4c0-1.7,1.4-3.1,3.5-3.1s3.5,1.4,3.5,3.1
		c0,1.2-0.5,1.9-1.4,2.4c1.1,0.6,1.8,1.5,1.8,2.8c0,1.9-1.5,3.3-3.8,3.3S45.4,54.7,45.4,52.9z M47,52.8c0,1.1,1,2,2.2,2
		s2.2-0.8,2.2-2c0-1.1-1-2-2.2-2S47,51.7,47,52.8z M47.3,47.7c0,1,0.9,1.8,1.9,1.8s1.9-0.8,1.9-1.8S50.3,46,49.2,46
		C48.2,45.9,47.3,46.6,47.3,47.7z"/>
	<path class="st0" d="M56.1,58.3h-1.5l0.9-4.2h1.7L56.1,58.3z"/>
</g>
<g class="st2">
	<path class="st0" d="M65.6,46.1h-4.3c-0.1,1-0.1,2.2-0.2,3.2c0.5-0.2,1.1-0.3,1.7-0.3c1.9,0,3.5,1.5,3.5,3.5c0,2.1-1.6,3.8-3.8,3.8
		c-1.4,0-3-0.7-3.6-1.9l1.3-0.7c0.4,0.8,1.2,1.2,2.1,1.2c1.5,0,2.3-1,2.3-2.3s-1-2.1-2.3-2.1c-0.7,0-1.3,0.2-1.8,0.7l-1.2-0.6
		c0.2-1.7,0.3-4.1,0.4-5.8h5.8L65.6,46.1L65.6,46.1z"/>
</g>
<g class="st2">
	<path class="st0" d="M74.3,46.1H70c-0.1,1-0.1,2.2-0.2,3.2c0.5-0.2,1.1-0.3,1.7-0.3c1.9,0,3.5,1.5,3.5,3.5c0,2.1-1.6,3.8-3.8,3.8
		c-1.4,0-3-0.7-3.6-1.9l1.3-0.7c0.4,0.8,1.2,1.2,2.1,1.2c1.5,0,2.3-1,2.3-2.3s-1-2.1-2.3-2.1c-0.7,0-1.3,0.2-1.8,0.7L68,50.6
		c0.2-1.7,0.3-4.1,0.4-5.8h5.8L74.3,46.1L74.3,46.1z"/>
</g>
<g class="st2">
	<path class="st0" d="M83,46.1h-4.3c-0.1,1-0.1,2.2-0.2,3.2C79,49,79.6,49,80.2,49c1.9,0,3.5,1.5,3.5,3.5c0,2.1-1.6,3.8-3.8,3.8
		c-1.4,0-3-0.7-3.6-1.9l1.3-0.7c0.4,0.8,1.2,1.2,2.1,1.2c1.5,0,2.3-1,2.3-2.3s-1-2.1-2.3-2.1c-0.7,0-1.3,0.2-1.8,0.7l-1.2-0.6
		c0.2-1.7,0.3-4.1,0.4-5.8H83V46.1z"/>
</g>
<g class="st2">
	<path class="st0" d="M42.4,64.9v8h-1.2v-8h-2.3v-1.1h5.8v1.1H42.4z"/>
</g>
<g class="st2">
	<path class="st0" d="M51.2,69.7c0,1.9-1.4,3.4-3.3,3.4s-3.3-1.5-3.3-3.4s1.4-3.4,3.3-3.4S51.2,67.8,51.2,69.7z M47.9,67.3
		c-1.2,0-2.1,1.1-2.1,2.3s0.9,2.3,2.1,2.3s2.1-1.1,2.1-2.3S49.1,67.3,47.9,67.3z"/>
	<path class="st0" d="M54.1,67.5v2.9c0,0.2,0,0.3,0,0.5c0,0.7,0.3,1.1,0.9,1.1c0.3,0,0.5-0.1,0.7-0.2l0.3,0.9
		c-0.3,0.2-0.8,0.3-1.2,0.3c-0.9,0-1.5-0.4-1.7-1c-0.2-0.4-0.2-0.8-0.2-1.4v-3.2H52v-1h0.9v-1.6h1.2v1.6h1.8v1L54.1,67.5L54.1,67.5z
		"/>
	<path class="st0" d="M61.2,72.9v-0.7c-0.5,0.6-1.1,0.8-2,0.8c-1.2,0-2.3-0.6-2.3-2c0-1.7,1.5-2.2,2.9-2.2c0.3,0,0.7,0,1.3,0.1v-0.2
		c0-1-0.5-1.6-1.5-1.6c-0.8,0-1.5,0.3-2.1,0.6l-0.4-1c0.7-0.3,1.7-0.6,2.6-0.6c1.9,0,2.6,1,2.6,2.7v4L61.2,72.9L61.2,72.9z M61.1,70
		c-0.5-0.1-0.8-0.1-1.2-0.1c-0.8,0-1.9,0.2-1.9,1.2c0,0.8,0.6,1.1,1.3,1.1s1.2-0.3,1.8-0.8C61.1,71.4,61.1,70,61.1,70z"/>
	<path class="st0" d="M65.6,72.9h-1.2v-9.8h1.2V72.9z"/>
	<path class="st0" d="M72.2,66.4v1.1c0.5-0.8,1.2-1.2,2.1-1.2s1.5,0.3,1.9,0.8c0.4,0.6,0.6,1.5,0.6,2.5V73h-1.2v-3.2
		c0-0.6,0-1.3-0.3-1.8c-0.2-0.3-0.6-0.5-1.1-0.5c-0.8,0-1.5,0.5-1.9,1.2V73H71v-6.5h1.2V66.4z"/>
	<path class="st0" d="M83.4,71.8c-0.5,0.8-1.2,1.2-2.1,1.2s-1.5-0.3-1.9-0.8c-0.4-0.6-0.6-1.5-0.6-2.5v-3.4H80v3.2
		c0,0.6,0,1.3,0.3,1.8c0.2,0.3,0.6,0.5,1.1,0.5c0.8,0,1.5-0.5,1.9-1.2v-4.3h1.2v6.5h-1.2L83.4,71.8L83.4,71.8z"/>
	<path class="st0" d="M95.5,72.9v-3.2c0-0.6,0-1.3-0.3-1.8c-0.2-0.3-0.6-0.5-1.1-0.5c-0.6,0-1.3,0.4-1.8,1.1
		c0.1,0.3,0.1,0.7,0.1,1.1V73h-1.2v-3.2c0-0.6,0-1.4-0.4-1.9c-0.2-0.3-0.5-0.5-1-0.5c-0.7,0-1.4,0.6-1.8,1.2V73h-1.2v-6.5H88v1
		c0.5-0.7,1.3-1.1,2-1.1s1.4,0.3,1.8,0.9c0.1,0.1,0.1,0.2,0.2,0.3c0.6-0.8,1.4-1.2,2.3-1.2s1.4,0.3,1.8,0.8c0.5,0.6,0.6,1.5,0.6,2.5
		v3.4h-1.2V72.9z"/>
	<path class="st0" d="M99.9,63.2v4.1c0.5-0.7,1.3-1,2.1-1c1.9,0,3.2,1.5,3.2,3.4c0,1.7-1.3,3.4-3.3,3.4c-0.8,0-1.5-0.3-2-0.9v0.7
		h-1.2v-9.8L99.9,63.2L99.9,63.2z M99.9,71c0.4,0.6,1.2,1,1.9,1c1.5,0,2.2-1.2,2.2-2.3c0-1.2-0.8-2.3-2.2-2.3
		c-0.7,0-1.6,0.4-1.9,1.2V71z"/>
	<path class="st0" d="M107.5,70c0.1,1.1,0.8,2.1,2.1,2.1c0.9,0,1.5-0.3,1.9-1.1l0.9,0.5c-0.7,1-1.5,1.5-2.8,1.5
		c-2.1,0-3.2-1.5-3.2-3.4s1.4-3.4,3.2-3.4c1.7,0,3,1.3,3,3c0,0.2,0,0.5-0.1,0.7h-5V70z M107.6,69h3.7c-0.1-0.9-0.8-1.7-1.7-1.7
		C108.5,67.3,107.8,68,107.6,69z"/>
	<path class="st0" d="M115.3,67.5c0.4-0.7,1-1.2,1.7-1.2c0.3,0,0.5,0,0.7,0.1l-0.2,1.3c-0.2-0.1-0.4-0.1-0.6-0.1
		c-0.7,0-1.1,0.4-1.5,1.1v4.4h-1.2v-6.5h1.2L115.3,67.5L115.3,67.5z"/>
</g>
<g class="st2">
	<path class="st0" d="M45.7,84.7c0,1.9-1.4,3.4-3.3,3.4c-1.9,0-3.3-1.5-3.3-3.4s1.4-3.4,3.3-3.4C44.3,81.3,45.7,82.8,45.7,84.7z
		 M42.4,82.3c-1.2,0-2.1,1.1-2.1,2.3s0.9,2.3,2.1,2.3c1.2,0,2.1-1.1,2.1-2.3S43.6,82.3,42.4,82.3z"/>
	<path class="st0" d="M50.7,79.3c-0.2-0.1-0.5-0.2-0.8-0.2c-0.4,0-0.6,0.1-0.8,0.2c-0.3,0.2-0.3,0.7-0.3,1.3v0.8h1.8v1h-1.8v5.5
		h-1.2v-5.5h-0.7v-1h0.7v-0.9c0-0.7,0.1-1.3,0.4-1.7c0.3-0.5,0.9-0.8,1.7-0.8c0.4,0,0.9,0.1,1.3,0.3L50.7,79.3z"/>
	<path class="st0" d="M55.6,85c0.1,1.1,0.8,2.1,2.1,2.1c0.9,0,1.5-0.3,1.9-1.1l0.9,0.5c-0.6,1-1.5,1.5-2.8,1.5
		c-2.1,0-3.2-1.5-3.2-3.4s1.4-3.4,3.2-3.4c1.7,0,3,1.3,3,3c0,0.2,0,0.5-0.1,0.7h-5V85z M55.7,84h3.7c-0.1-0.9-0.8-1.7-1.7-1.7
		C56.6,82.3,56,83,55.7,84z"/>
	<path class="st0" d="M70.9,87.9v-3.2c0-0.6,0-1.3-0.3-1.8c-0.2-0.3-0.6-0.5-1.1-0.5c-0.6,0-1.3,0.4-1.8,1.1
		c0.1,0.3,0.1,0.7,0.1,1.1V88h-1.2v-3.2c0-0.6,0-1.4-0.4-1.9c-0.2-0.3-0.5-0.5-1-0.5c-0.7,0-1.4,0.6-1.8,1.2V88h-1.2v-6.5h1.2v1
		c0.5-0.7,1.3-1.1,2-1.1c0.8,0,1.4,0.3,1.8,0.9c0.1,0.1,0.1,0.2,0.2,0.3c0.6-0.8,1.4-1.2,2.3-1.2s1.4,0.3,1.8,0.8
		c0.5,0.6,0.6,1.5,0.6,2.5v3.4h-1.2V87.9z"/>
	<path class="st0" d="M75.4,81.4v0.9c0.5-0.7,1.3-1,2.1-1c1.9,0,3.2,1.5,3.2,3.4c0,1.7-1.3,3.4-3.3,3.4c-0.8,0-1.5-0.3-2-0.9v4h-1.2
		v-9.8H75.4z M75.4,86c0.4,0.6,1.2,1,1.9,1c1.5,0,2.2-1.2,2.2-2.3c0-1.2-0.8-2.3-2.2-2.3c-0.7,0-1.6,0.4-1.9,1.2V86z"/>
	<path class="st0" d="M83.6,87.9h-1.2v-9.8h1.2V87.9z"/>
	<path class="st0" d="M91.8,84.7c0,1.9-1.4,3.4-3.3,3.4s-3.3-1.5-3.3-3.4s1.4-3.4,3.3-3.4C90.4,81.3,91.8,82.8,91.8,84.7z
		 M88.5,82.3c-1.2,0-2.1,1.1-2.1,2.3s0.9,2.3,2.1,2.3s2.1-1.1,2.1-2.3S89.7,82.3,88.5,82.3z"/>
	<path class="st0" d="M93.8,81.4l1.7,4.9l0,0l1.7-4.9h1.3l-3.7,9.4l-1-0.4l1-2.7l-2.4-6.3H93.8z"/>
	<path class="st0" d="M100.3,85c0.1,1.1,0.8,2.1,2.1,2.1c0.9,0,1.5-0.3,1.9-1.1l0.9,0.5c-0.6,1-1.5,1.5-2.8,1.5
		c-2.1,0-3.2-1.5-3.2-3.4s1.4-3.4,3.2-3.4c1.7,0,3,1.3,3,3c0,0.2,0,0.5-0.1,0.7h-5V85z M100.4,84h3.7c-0.1-0.9-0.8-1.7-1.7-1.7
		C101.3,82.3,100.6,83,100.4,84z"/>
	<path class="st0" d="M107.6,85c0.1,1.1,0.8,2.1,2.1,2.1c0.9,0,1.5-0.3,1.9-1.1l0.9,0.5c-0.6,1-1.5,1.5-2.8,1.5
		c-2.1,0-3.2-1.5-3.2-3.4s1.4-3.4,3.2-3.4c1.7,0,3,1.3,3,3c0,0.2,0,0.5-0.1,0.7h-5V85z M107.7,84h3.7c-0.1-0.9-0.8-1.7-1.7-1.7
		C108.6,82.3,107.9,83,107.7,84z"/>
	<path class="st0" d="M117.4,82.7c-0.3-0.3-0.8-0.5-1.3-0.5c-0.6,0-1,0.4-1,0.9s0.6,0.7,1.2,1c0.8,0.3,1.9,0.8,1.9,1.9
		c0,1.5-1.1,2-2.4,2c-0.9,0-1.7-0.4-2.2-1l0.8-0.7c0.4,0.5,0.9,0.7,1.4,0.7c0.6,0,1.2-0.3,1.2-1c0-0.5-0.6-0.7-1.2-1
		c-0.9-0.3-1.9-0.7-1.9-1.9c0-1.3,1-1.9,2.1-1.9c0.7,0,1.5,0.2,2,0.7L117.4,82.7z"/>
</g>
</svg>
