<svg id="Layer_1" data-name="Layer 1" xmlns="http://www.w3.org/2000/svg" xmlns:xlink="http://www.w3.org/1999/xlink" viewBox="0 0 310.21 205.09"><defs><style>.cls-1,.cls-2,.cls-28,.cls-29,.cls-30{fill:none;}.cls-2{stroke:#000;}.cls-3,.cls-7{font-size:17px;}.cls-3{font-family:Soleil;}.cls-4{letter-spacing:-0.07em;}.cls-5{letter-spacing:0.01em;}.cls-6{letter-spacing:0.01em;}.cls-7{font-family:Soleil-Bold, Soleil;font-weight:700;}.cls-8{letter-spacing:0.01em;}.cls-9{letter-spacing:0em;}.cls-10{letter-spacing:-0.03em;}.cls-11{letter-spacing:0.01em;}.cls-12{letter-spacing:-0.02em;}.cls-13{font-size:12px;font-family:SoleilSb, Soleil;}.cls-14{letter-spacing:-0.08em;}.cls-15{letter-spacing:-0.03em;}.cls-16{letter-spacing:0.01em;}.cls-17{letter-spacing:-0.01em;}.cls-18{letter-spacing:0.01em;}.cls-19{letter-spacing:-0.02em;}.cls-20{letter-spacing:0.01em;}.cls-21{letter-spacing:-0.02em;}.cls-22{letter-spacing:0em;}.cls-23{letter-spacing:0.01em;}.cls-24{letter-spacing:-0.01em;}.cls-25{letter-spacing:0.02em;}.cls-26{letter-spacing:-0.03em;}.cls-27{clip-path:url(#clip-path);}.cls-28{stroke:#fff5a6;}.cls-28,.cls-29,.cls-30{stroke-width:18.92px;}.cls-29{stroke:#fcdede;}.cls-30{stroke:#a60d2e;}</style><clipPath id="clip-path"><rect class="cls-1" width="369.2" height="205.09"/></clipPath></defs><line class="cls-2" x1="162.95" y1="27.26" x2="301.52" y2="27.26"/><line class="cls-2" x1="192.95" y1="103.05" x2="301.52" y2="103.05"/><line class="cls-2" x1="162.95" y1="175" x2="301.52" y2="175"/><text class="cls-3" transform="translate(38.9 110.4)"><tspan class="cls-4">T</tspan><tspan x="7.12" y="0">otal solid waste </tspan></text><text class="cls-3" transform="translate(35.75 128.41)">generated (<tspan class="cls-5" x="91.39" y="0">2</tspan><tspan x="100.2" y="0">0</tspan><tspan class="cls-6" x="109.55" y="0">2</tspan><tspan x="118.37" y="0">0)</tspan></text><text class="cls-7" transform="translate(42.62 86.04)">10<tspan class="cls-6" x="15.66" y="0">,</tspan><tspan class="cls-8" x="20.08" y="0">2</tspan><tspan class="cls-9" x="29.07" y="0">93</tspan><tspan class="cls-10" x="47.62" y="0">,</tspan><tspan x="51.27" y="0">112.</tspan><tspan class="cls-11" x="76.63" y="0">9</tspan><tspan x="86.22" y="0">4 </tspan><tspan class="cls-12" x="99.87" y="0">k</tspan><tspan x="108.99" y="0">g</tspan></text><text class="cls-13" transform="translate(220.22 167.3)"><tspan class="cls-14">7</tspan><tspan class="cls-15" x="4.64" y="0">,</tspan><tspan class="cls-16" x="7.24" y="0">16</tspan><tspan x="18.26" y="0">0,</tspan><tspan class="cls-16" x="27.95" y="0">9</tspan><tspan class="cls-17" x="34.62" y="0">6</tspan><tspan x="41" y="0">1.</tspan><tspan class="cls-18" x="48.24" y="0">3</tspan><tspan x="54.72" y="0">0 </tspan><tspan class="cls-19" x="64.4" y="0">k</tspan><tspan x="70.63" y="0">g</tspan></text><text class="cls-13" transform="translate(220.22 95.09)">1,8<tspan class="cls-16" x="13.99" y="0">5</tspan><tspan x="20.22" y="0">3,</tspan><tspan class="cls-20" x="29.57" y="0">6</tspan><tspan x="36.23" y="0">88.51 </tspan><tspan class="cls-21" x="66.08" y="0">k</tspan><tspan class="cls-22" x="72.3" y="0">g</tspan></text><text class="cls-13" transform="translate(220.22 19.51)">1<tspan class="cls-23" x="4.24" y="0">,</tspan><tspan class="cls-16" x="7.34" y="0">2</tspan><tspan x="13.68" y="0">78</tspan><tspan class="cls-24" x="26.04" y="0">,</tspan><tspan class="cls-25" x="28.92" y="0">4</tspan><tspan x="35.66" y="0">63</tspan><tspan class="cls-26" x="48.56" y="0">.</tspan><tspan x="51.14" y="0">13 </tspan><tspan class="cls-19" x="64.73" y="0">k</tspan><tspan class="cls-22" x="70.96" y="0">g</tspan></text><g class="cls-27"><circle class="cls-28" cx="102.55" cy="102.55" r="93.09"/><path class="cls-29" d="M102.55,9.46a93.09,93.09,0,1,0,80.79,139.36l3.41-6.54"/><path class="cls-30" d="M177,46.6a92.93,92.93,0,0,0-74.4-37.14"/></g></svg>