<svg id="Layer_1" data-name="Layer 1" xmlns="http://www.w3.org/2000/svg" viewBox="0 0 389.01 179.53"><rect x="51.38" y="97.14" width="249.86" height="20.39" fill="#c2384a"/><rect x="51.38" y="124.86" width="289.46" height="20.39" fill="#730526"/><g style="isolation:isolate"><g style="isolation:isolate"><path d="M112.1,103.05a4.79,4.79,0,0,0-2.91,2.72,2.21,2.21,0,0,1,1.53-.57,2.44,2.44,0,0,1,2.45,2.54,2.63,2.63,0,0,1-2.67,2.72,3,3,0,0,1-3-3.24c0-2.57,1.87-4.46,4.11-5.36Zm-1.69,6.16a1.3,1.3,0,0,0,1.27-1.41,1.27,1.27,0,0,0-1.29-1.38,1.69,1.69,0,0,0-1.45.83C108.94,108.27,109.33,109.21,110.41,109.21Z" fill="#fff"/></g><g style="isolation:isolate"><path d="M119.87,108.09a2.82,2.82,0,0,1-5.56,0,2.13,2.13,0,0,1,1.2-2,1.85,1.85,0,0,1-1-1.71,2.56,2.56,0,0,1,5.07,0,1.85,1.85,0,0,1-1,1.71A2.13,2.13,0,0,1,119.87,108.09Zm-4.08-.09a1.3,1.3,0,0,0,2.6,0,1.3,1.3,0,0,0-2.6,0Zm.2-3.51a1.1,1.1,0,0,0,2.2,0,1.1,1.1,0,0,0-2.2,0Z" fill="#fff"/><path d="M126.62,108.09a2.81,2.81,0,0,1-5.55,0,2.12,2.12,0,0,1,1.2-2,1.85,1.85,0,0,1-1-1.71,2.56,2.56,0,0,1,5.07,0,1.85,1.85,0,0,1-1,1.71A2.12,2.12,0,0,1,126.62,108.09Zm-4.08-.09a1.31,1.31,0,0,0,2.61,0,1.31,1.31,0,0,0-2.61,0Zm.21-3.51a1.1,1.1,0,0,0,2.19,0,1.1,1.1,0,0,0-2.19,0Z" fill="#fff"/><path d="M128.69,111.87h-1.38l.65-3.18h1.57Z" fill="#fff"/><path d="M135.6,103.6h-2.88c0,.64-.07,1.3-.13,1.89a2.44,2.44,0,0,1,1-.21,2.38,2.38,0,0,1,2.36,2.45,2.66,2.66,0,0,1-2.75,2.73A2.93,2.93,0,0,1,130.6,109l1.21-.64a1.4,1.4,0,0,0,1.34.85,1.31,1.31,0,0,0,1.34-1.39,1.25,1.25,0,0,0-1.33-1.28,1.35,1.35,0,0,0-1.1.49l-1-.64c.1-1.16.21-2.93.26-4h4.26Z" fill="#fff"/><path d="M138.08,110.32v-6.26c-.36.18-.84.36-1.16.5v-1.33c.5-.25,1.12-.58,1.67-.89h1v8Z" fill="#fff"/><path d="M144.31,110.32v-2h-3.47V107c1-1.31,2.37-3.17,3.45-4.66h1.46v4.76h1.15v1.25h-1.15v2Zm0-3.22v-2.8c-.58.87-1.45,2.18-1.91,2.8Z" fill="#fff"/></g><g style="isolation:isolate"><path d="M147.83,110.32v-1.63h1.59v1.63Z" fill="#fff"/></g><g style="isolation:isolate"><path d="M153.75,110.32v-2h-3.46V107c1-1.31,2.36-3.17,3.44-4.66h1.46v4.76h1.15v1.25h-1.15v2Zm0-3.22v-2.8c-.57.87-1.45,2.18-1.9,2.8Z" fill="#fff"/></g><g style="isolation:isolate"><path d="M162.93,106.34c0,2.55-1,4.12-2.91,4.12s-2.91-1.57-2.91-4.12,1-4.14,2.91-4.14S162.93,103.77,162.93,106.34Zm-4.33,0c0,1.9.52,2.85,1.42,2.85s1.42-1,1.42-2.85-.51-2.86-1.42-2.86S158.6,104.42,158.6,106.34Z" fill="#fff"/><path d="M167.11,104.17l1.09,1.11-1.09.78-.75-1.39-.75,1.39-1.08-.78,1.07-1.11-1.48-.27.41-1.27,1.37.66-.21-1.51H167l-.2,1.52,1.38-.67.41,1.27Z" fill="#fff"/><path d="M177.49,109.16a3,3,0,0,0,1.81-.65l.82,1.08a4.58,4.58,0,0,1-2.67.87,4.24,4.24,0,0,1-4.45-4.34,4.36,4.36,0,0,1,4.49-4.34,4.49,4.49,0,0,1,2.44.74l-.7,1.15a3,3,0,0,0-1.74-.58,2.9,2.9,0,0,0-2.92,3A2.8,2.8,0,0,0,177.49,109.16Z" fill="#fff"/><path d="M185.58,110.32l-.08-.91a2.38,2.38,0,0,1-2,1,2.09,2.09,0,0,1-1.71-.79,3.79,3.79,0,0,1-.55-2.31v-3.22h1.45v3.11a3,3,0,0,0,.24,1.47,1,1,0,0,0,.94.47,1.9,1.9,0,0,0,1.53-1v-4.1h1.45v6.18Z" fill="#fff"/><path d="M190.15,101.32v3.53A2.39,2.39,0,0,1,192,104a3.24,3.24,0,0,1,0,6.46,2.43,2.43,0,0,1-1.92-.86l-.07.72H188.7v-9Zm0,7.09a2,2,0,0,0,1.58.78,2,2,0,0,0,0-3.92,1.8,1.8,0,0,0-1.61,1Z" fill="#fff"/><path d="M196.34,103.13v-1.35h1.45v1.35Zm0,7.19v-6.18h1.45v6.18Z" fill="#fff"/><path d="M204.37,109.77a3.15,3.15,0,0,1-2.09.69,3.06,3.06,0,0,1-3.14-3.24,3.14,3.14,0,0,1,3.2-3.22,3.26,3.26,0,0,1,2,.66l-.72,1.08a1.9,1.9,0,1,0-1.23,3.45,1.89,1.89,0,0,0,1.23-.45Z" fill="#fff"/><path d="M216.44,110.32v-3.11a3.15,3.15,0,0,0-.22-1.47,1,1,0,0,0-.92-.47,1.84,1.84,0,0,0-1.42.84,6.27,6.27,0,0,1,.06,1v3.22h-1.45v-3.11a3.07,3.07,0,0,0-.24-1.51.93.93,0,0,0-.86-.43,2,2,0,0,0-1.39.83v4.22h-1.46v-6.18h1.34l.06.83a2.34,2.34,0,0,1,1.84-1,2,2,0,0,1,1.67.84,1.73,1.73,0,0,1,.13.24,2.47,2.47,0,0,1,2.1-1.08,2,2,0,0,1,1.66.77,3.77,3.77,0,0,1,.56,2.33v3.22Z" fill="#fff"/><path d="M220.65,107.6a1.74,1.74,0,0,0,1.73,1.68,1.81,1.81,0,0,0,1.7-1l1,.65a3,3,0,0,1-2.78,1.49,3,3,0,0,1-3.1-3.19,3.13,3.13,0,0,1,3.1-3.27,2.81,2.81,0,0,1,2.92,2.86,4.62,4.62,0,0,1-.06.74Zm1.68-2.44a1.61,1.61,0,0,0-1.59,1.39h3A1.39,1.39,0,0,0,222.33,105.16Z" fill="#fff"/><path d="M228.06,105.37v2.55c0,.18,0,.32,0,.52.05.48.21.75.67.75a1.37,1.37,0,0,0,.68-.17l.43,1.11a2.91,2.91,0,0,1-1.34.32,1.73,1.73,0,0,1-1.76-1.17,3.46,3.46,0,0,1-.16-1.14v-2.77h-.76v-1.23h.76l.16-1.41h1.31v1.41h1.63v1.23Z" fill="#fff"/><path d="M231.91,107.6a1.73,1.73,0,0,0,1.72,1.68,1.82,1.82,0,0,0,1.71-1l1,.65a3,3,0,0,1-2.77,1.49,3,3,0,0,1-3.1-3.19,3.13,3.13,0,0,1,3.1-3.27,2.81,2.81,0,0,1,2.92,2.86,6.15,6.15,0,0,1-.06.74Zm1.68-2.44a1.62,1.62,0,0,0-1.6,1.39h3A1.4,1.4,0,0,0,233.59,105.16Z" fill="#fff"/><path d="M239.22,105a1.81,1.81,0,0,1,1.49-1,2.19,2.19,0,0,1,.75.11l-.33,1.35a1.21,1.21,0,0,0-.58-.13,1.45,1.45,0,0,0-1.27.83v4.16h-1.47v-6.18h1.33Z" fill="#fff"/><path d="M245.44,105.64a2,2,0,0,0-1.22-.48c-.42,0-.73.23-.73.6s.51.64,1.06.86c.8.32,1.8.74,1.8,1.88,0,1.36-1.12,2-2.32,2a3.12,3.12,0,0,1-2.34-1l.89-.84a1.91,1.91,0,0,0,1.41.7c.44,0,.93-.22.93-.71s-.6-.67-1.16-.9c-.73-.3-1.66-.72-1.66-1.82a1.91,1.91,0,0,1,2.12-1.87,3,3,0,0,1,2,.75Z" fill="#fff"/></g></g><g style="isolation:isolate"><g style="isolation:isolate"><path d="M126.7,138.05v-6.26c-.36.18-.84.36-1.16.5V131c.5-.25,1.12-.58,1.67-.89h1v8Z" fill="#fff"/><path d="M130.65,139.6h-1.38l.65-3.18h1.57Z" fill="#fff"/></g><g style="isolation:isolate"><path d="M138.44,134.07c0,2.55-1,4.12-2.91,4.12s-2.91-1.57-2.91-4.12,1-4.14,2.91-4.14S138.44,131.5,138.44,134.07Zm-4.33,0c0,1.9.52,2.85,1.42,2.85S137,136,137,134.07s-.51-2.86-1.42-2.86S134.11,132.15,134.11,134.07Z" fill="#fff"/></g><g style="isolation:isolate"><path d="M144.21,131c-1,2.06-2.43,5.27-3.29,7.34l-1.33-.61c1.07-2.52,2.35-5.05,3-6.43h-3.65v-1.27h5.27Z" fill="#fff"/><path d="M150.33,138.05H145.1v-1.16a30.92,30.92,0,0,0,2.74-3.26,3,3,0,0,0,.65-1.51,1,1,0,0,0-1.07-.93,1.07,1.07,0,0,0-1,1.16l-1.45-.25a2.46,2.46,0,0,1,2.55-2.17A2.32,2.32,0,0,1,150,132.1a4,4,0,0,1-.84,2.22,24.7,24.7,0,0,1-2.09,2.48h3.28Z" fill="#fff"/><path d="M152.11,139.6h-1.38l.64-3.18h1.57Z" fill="#fff"/><path d="M155.64,133.33a4.62,4.62,0,0,0,1-.09,1.11,1.11,0,0,0,.93-1.06,1,1,0,0,0-1.14-1,1.1,1.1,0,0,0-1.11.84l-1.23-.54a2.38,2.38,0,0,1,2.35-1.56c1.43,0,2.6.83,2.6,2.13a2,2,0,0,1-1,1.71,2.06,2.06,0,0,1,1.37,2,2.53,2.53,0,0,1-2.79,2.46,2.86,2.86,0,0,1-2.65-1.53l1.2-.6a1.53,1.53,0,0,0,1.42.87,1.19,1.19,0,0,0,1.32-1.15c0-.77-.67-1.22-1.55-1.22a3.81,3.81,0,0,0-.76.07Z" fill="#fff"/></g><g style="isolation:isolate"><path d="M166.14,135.82a2.81,2.81,0,0,1-5.55,0,2.13,2.13,0,0,1,1.2-2,1.85,1.85,0,0,1-1-1.71,2.56,2.56,0,0,1,5.07,0,1.85,1.85,0,0,1-1,1.71A2.13,2.13,0,0,1,166.14,135.82Zm-4.07-.09a1.3,1.3,0,0,0,2.6,0,1.3,1.3,0,0,0-2.6,0Zm.2-3.51a1.1,1.1,0,0,0,2.2,0,1.1,1.1,0,0,0-2.2,0Z" fill="#fff"/></g><g style="isolation:isolate"><path d="M170.55,138.05v-2h-3.46v-1.35c1-1.31,2.36-3.17,3.44-4.66H172v4.76h1.15v1.25H172v2Zm0-3.22V132c-.57.87-1.45,2.18-1.9,2.8Z" fill="#fff"/><path d="M174.07,138.05v-1.63h1.6v1.63Z" fill="#fff"/><path d="M181.44,130.78a4.81,4.81,0,0,0-2.92,2.72,2.24,2.24,0,0,1,1.54-.57,2.44,2.44,0,0,1,2.44,2.54,2.63,2.63,0,0,1-2.67,2.72,3,3,0,0,1-3-3.24,6,6,0,0,1,4.1-5.36ZM179.75,137a1.3,1.3,0,0,0,1.27-1.42,1.27,1.27,0,0,0-1.3-1.38,1.7,1.7,0,0,0-1.45.83C178.27,136,178.67,137,179.75,137Z" fill="#fff"/><path d="M184.93,133.33a4.62,4.62,0,0,0,1-.09,1.11,1.11,0,0,0,.92-1.06,1,1,0,0,0-1.14-1,1.1,1.1,0,0,0-1.1.84l-1.23-.54a2.37,2.37,0,0,1,2.35-1.56,2.33,2.33,0,0,1,2.6,2.13,2,2,0,0,1-1,1.71,2.05,2.05,0,0,1,1.36,2,2.53,2.53,0,0,1-2.78,2.46,2.86,2.86,0,0,1-2.65-1.53l1.2-.6a1.51,1.51,0,0,0,1.41.87,1.18,1.18,0,0,0,1.32-1.15c0-.77-.67-1.22-1.54-1.22a3.75,3.75,0,0,0-.76.07Z" fill="#fff"/><path d="M197.41,136.89a2.93,2.93,0,0,0,1.81-.65l.83,1.08a4.61,4.61,0,0,1-2.68.87,4.24,4.24,0,0,1-4.45-4.34,4.37,4.37,0,0,1,4.49-4.34,4.63,4.63,0,0,1,2.45.74l-.71,1.15a3,3,0,0,0-1.74-.58,2.9,2.9,0,0,0-2.92,3A2.8,2.8,0,0,0,197.41,136.89Z" fill="#fff"/><path d="M205.5,138.05l-.08-.91a2.38,2.38,0,0,1-2,1.05,2.09,2.09,0,0,1-1.71-.79,3.79,3.79,0,0,1-.55-2.31v-3.22h1.45V135a3.14,3.14,0,0,0,.24,1.47,1,1,0,0,0,.94.47,1.9,1.9,0,0,0,1.54-.95v-4.1h1.45v6.18Z" fill="#fff"/><path d="M210.07,129.05v3.53a2.4,2.4,0,0,1,1.88-.85,3.24,3.24,0,0,1,0,6.46,2.45,2.45,0,0,1-1.92-.86l-.07.72h-1.32v-9Zm0,7.09a2,2,0,0,0,1.58.78,2,2,0,0,0,0-3.92,1.8,1.8,0,0,0-1.61,1Z" fill="#fff"/><path d="M216.26,130.87v-1.36h1.45v1.36Zm0,7.18v-6.18h1.45v6.18Z" fill="#fff"/><path d="M224.29,137.5a3.15,3.15,0,0,1-2.09.69,3.06,3.06,0,0,1-3.14-3.24,3.15,3.15,0,0,1,3.2-3.22,3.24,3.24,0,0,1,2,.66l-.72,1.08a1.82,1.82,0,0,0-1.22-.47,2,2,0,1,0,1.22,3.47Z" fill="#fff"/><path d="M236.36,138.05v-3.11a3.15,3.15,0,0,0-.22-1.47,1,1,0,0,0-.92-.47,1.85,1.85,0,0,0-1.42.84,6.27,6.27,0,0,1,.06,1v3.22h-1.45v-3.11a3.09,3.09,0,0,0-.24-1.51.92.92,0,0,0-.86-.43,2,2,0,0,0-1.39.83v4.22h-1.45v-6.18h1.33l.06.83a2.34,2.34,0,0,1,1.85-1,2,2,0,0,1,1.66.84,1.08,1.08,0,0,1,.13.24,2.47,2.47,0,0,1,2.1-1.08,2,2,0,0,1,1.66.77,3.7,3.7,0,0,1,.56,2.33v3.22Z" fill="#fff"/><path d="M240.57,135.33A1.74,1.74,0,0,0,242.3,137a1.81,1.81,0,0,0,1.7-1l1,.66a3.05,3.05,0,0,1-2.77,1.48,3,3,0,0,1-3.11-3.19,3.14,3.14,0,0,1,3.11-3.27,2.8,2.8,0,0,1,2.91,2.86,4.62,4.62,0,0,1-.06.74Zm1.68-2.44a1.61,1.61,0,0,0-1.59,1.39h3A1.39,1.39,0,0,0,242.25,132.89Z" fill="#fff"/><path d="M248,133.1v2.55c0,.18,0,.32,0,.52,0,.48.22.75.67.75a1.41,1.41,0,0,0,.69-.17l.43,1.11a3,3,0,0,1-1.35.32,1.73,1.73,0,0,1-1.76-1.17,3.46,3.46,0,0,1-.16-1.14V133.1h-.76v-1.23h.76l.16-1.41H248v1.41h1.63v1.23Z" fill="#fff"/><path d="M251.83,135.33a1.74,1.74,0,0,0,1.73,1.68,1.81,1.81,0,0,0,1.7-1l1,.66a3,3,0,0,1-2.77,1.48,3,3,0,0,1-3.1-3.19,3.13,3.13,0,0,1,3.1-3.27,2.81,2.81,0,0,1,2.92,2.86,6.15,6.15,0,0,1-.06.74Zm1.68-2.44a1.62,1.62,0,0,0-1.6,1.39h3A1.39,1.39,0,0,0,253.51,132.89Z" fill="#fff"/><path d="M259.14,132.75a1.81,1.81,0,0,1,1.5-1,2.17,2.17,0,0,1,.74.11l-.32,1.35a1.25,1.25,0,0,0-.59-.13,1.45,1.45,0,0,0-1.27.83v4.16h-1.47v-6.18h1.34Z" fill="#fff"/><path d="M265.37,133.37a2,2,0,0,0-1.23-.48c-.42,0-.73.23-.73.6s.52.64,1.07.86c.79.32,1.8.74,1.8,1.88,0,1.36-1.13,2-2.33,2a3.12,3.12,0,0,1-2.34-1l.89-.84a1.91,1.91,0,0,0,1.41.7c.45,0,.93-.22.93-.71s-.6-.67-1.15-.9c-.74-.3-1.67-.72-1.67-1.82a1.91,1.91,0,0,1,2.12-1.87,3,3,0,0,1,2,.75Z" fill="#fff"/></g></g><g style="isolation:isolate"><g style="isolation:isolate"><path d="M1,110.19v-1.62a44.91,44.91,0,0,0,4.45-5.2,5.49,5.49,0,0,0,1.16-2.68,1.9,1.9,0,0,0-2.07-1.75,2,2,0,0,0-2,2l-1.76-.36a3.76,3.76,0,0,1,3.83-3.19,3.59,3.59,0,0,1,3.84,3.34,6.6,6.6,0,0,1-1.35,3.48,39.74,39.74,0,0,1-3.7,4.42H9.05v1.6Z" fill="#c2384a"/></g><g style="isolation:isolate"><path d="M19.48,103.88c0,4.05-1.61,6.54-4.46,6.54s-4.47-2.49-4.47-6.54,1.62-6.53,4.47-6.53S19.48,99.83,19.48,103.88Zm-7.1,0c0,3.29,1,4.9,2.64,4.9s2.64-1.61,2.64-4.9S16.69,99,15,99,12.38,100.59,12.38,103.88Z" fill="#c2384a"/><path d="M23.19,110.19V99.74c-.59.3-1.37.61-1.9.84V98.9c.76-.38,1.69-.85,2.52-1.33H25v12.62Z" fill="#c2384a"/><path d="M29.23,109.3c2.32-1,4.2-2.46,4.86-4.91a3.88,3.88,0,0,1-2.85,1.16,3.78,3.78,0,0,1-3.7-4.06,4,4,0,0,1,4-4.14c2.9,0,4.61,2.39,4.61,5A9.38,9.38,0,0,1,30,110.89Zm5.13-6.94c0-1.75-.74-3.42-2.66-3.42a2.37,2.37,0,0,0-2.34,2.59A2.23,2.23,0,0,0,31.62,104,3.13,3.13,0,0,0,34.36,102.36Z" fill="#c2384a"/></g></g><g style="isolation:isolate"><g style="isolation:isolate"><path d="M9.28,137.91H1v-1.84a50.92,50.92,0,0,0,4.35-5.15,4.85,4.85,0,0,0,1-2.4A1.54,1.54,0,0,0,4.68,127,1.69,1.69,0,0,0,3,128.88l-2.3-.39a3.91,3.91,0,0,1,4.05-3.44c2,0,4,1.29,4,3.44A6.38,6.38,0,0,1,7.4,132a37.8,37.8,0,0,1-3.31,3.93H9.28Z" fill="#730526"/></g><g style="isolation:isolate"><path d="M19.86,131.6c0,4.05-1.65,6.54-4.62,6.54s-4.59-2.49-4.59-6.54,1.65-6.55,4.59-6.55S19.86,127.54,19.86,131.6Zm-6.86,0c0,3,.82,4.52,2.24,4.52s2.26-1.5,2.26-4.52-.81-4.52-2.26-4.52S13,128.56,13,131.6Z" fill="#730526"/></g><g style="isolation:isolate"><path d="M29.89,137.91H21.61v-1.84A50.92,50.92,0,0,0,26,130.92a4.85,4.85,0,0,0,1-2.4A1.54,1.54,0,0,0,25.29,127a1.69,1.69,0,0,0-1.67,1.84l-2.3-.39a3.91,3.91,0,0,1,4.05-3.44c2,0,4,1.29,4,3.44A6.38,6.38,0,0,1,28,132a37.8,37.8,0,0,1-3.31,3.93h5.19Z" fill="#730526"/></g><g style="isolation:isolate"><path d="M40.48,131.6c0,4.05-1.65,6.54-4.62,6.54s-4.59-2.49-4.59-6.54,1.65-6.55,4.59-6.55S40.48,127.54,40.48,131.6Zm-6.86,0c0,3,.82,4.52,2.24,4.52s2.26-1.5,2.26-4.52-.81-4.52-2.26-4.52S33.62,128.56,33.62,131.6Z" fill="#730526"/></g></g><g style="isolation:isolate"><g style="isolation:isolate"><path d="M9.31,61.39h0l1.9-7h2L10.3,64.57H8.51L6.6,57.47h0l-2,7.1H2.82L0,54.42H2l1.81,7h0l1.94-7H7.46Z" fill="#c2384a"/></g><g style="isolation:isolate"><path d="M18.5,64.57l-.08-.7a2.6,2.6,0,0,1-2.12.87,2.4,2.4,0,0,1-2.68-2.33c0-1.86,1.71-2.44,3.29-2.44a7.22,7.22,0,0,1,1.4.16V60c0-1-.45-1.63-1.59-1.63a5,5,0,0,0-2.3.66l-.48-1.32a7.26,7.26,0,0,1,3.1-.74c2.12,0,3,1.19,3,3.13v4.51Zm-.19-3.31a5.17,5.17,0,0,0-1.14-.14c-.83,0-1.83.26-1.83,1.23,0,.75.6,1.09,1.28,1.09a2.58,2.58,0,0,0,1.69-.74Z" fill="#c2384a"/><path d="M24,58.58v3.09c0,.22,0,.39,0,.62.06.58.26.92.81.92a1.73,1.73,0,0,0,.83-.21l.52,1.34a3.62,3.62,0,0,1-1.62.39,2.1,2.1,0,0,1-2.14-1.42,4.27,4.27,0,0,1-.18-1.38V58.58h-.93V57.1h.93l.18-1.71H24V57.1h2v1.48Z" fill="#c2384a"/><path d="M28.64,61.28a2.1,2.1,0,0,0,2.09,2,2.16,2.16,0,0,0,2.05-1.16L34,63a3.66,3.66,0,0,1-3.35,1.79,3.62,3.62,0,0,1-3.75-3.85,3.8,3.8,0,0,1,3.75-4,3.39,3.39,0,0,1,3.53,3.46,5.35,5.35,0,0,1-.08.89Zm2-3A2,2,0,0,0,28.74,60h3.61A1.69,1.69,0,0,0,30.67,58.33Z" fill="#c2384a"/><path d="M37.47,58.16a2.2,2.2,0,0,1,1.81-1.23,2.79,2.79,0,0,1,.9.13l-.39,1.64a1.4,1.4,0,0,0-.71-.16,1.76,1.76,0,0,0-1.54,1v5H35.77V57.1h1.61Z" fill="#c2384a"/></g></g><g style="isolation:isolate"><path d="M6.79,78.89a3.73,3.73,0,0,1-2.52.84,3.71,3.71,0,0,1-3.8-3.91,3.8,3.8,0,0,1,3.87-3.9,3.94,3.94,0,0,1,2.41.8L5.88,74a2.25,2.25,0,0,0-1.48-.56,2.38,2.38,0,0,0,0,4.74,2.31,2.31,0,0,0,1.5-.55Z" fill="#c2384a"/><path d="M15.4,75.82a3.87,3.87,0,1,1-7.74,0,3.81,3.81,0,0,1,3.87-3.9A3.81,3.81,0,0,1,15.4,75.82Zm-3.87-2.36a2.39,2.39,0,0,0,0,4.74,2.39,2.39,0,0,0,0-4.74Z" fill="#c2384a"/><path d="M18.62,72.09l.09,1.11a2.86,2.86,0,0,1,2.38-1.28,2.49,2.49,0,0,1,2.05,1,4.47,4.47,0,0,1,.67,2.79v3.89H22.06V75.8A3.78,3.78,0,0,0,21.77,74a1.19,1.19,0,0,0-1.13-.56,2.32,2.32,0,0,0-1.86,1.14v5H17V72.09Z" fill="#c2384a"/><path d="M29.81,73.91a2.33,2.33,0,0,0-1.47-.58c-.51,0-.89.27-.89.72s.63.77,1.29,1c1,.38,2.18.89,2.18,2.27,0,1.65-1.37,2.37-2.82,2.37a3.73,3.73,0,0,1-2.82-1.23l1.07-1a2.37,2.37,0,0,0,1.71.84c.54,0,1.12-.26,1.12-.86s-.73-.81-1.39-1.09c-.89-.36-2-.87-2-2.2a2.32,2.32,0,0,1,2.57-2.26,3.57,3.57,0,0,1,2.46.91Z" fill="#c2384a"/><path d="M37.82,79.56l-.09-1.1a2.87,2.87,0,0,1-2.38,1.27,2.51,2.51,0,0,1-2.05-1,4.5,4.5,0,0,1-.67-2.8V72.09h1.75v3.76a3.76,3.76,0,0,0,.29,1.78,1.2,1.2,0,0,0,1.13.57,2.31,2.31,0,0,0,1.86-1.15v-5h1.75v7.47Z" fill="#c2384a"/><path d="M51.13,79.56V75.8A3.91,3.91,0,0,0,50.87,74a1.19,1.19,0,0,0-1.12-.56,2.24,2.24,0,0,0-1.71,1,7.6,7.6,0,0,1,.07,1.2v3.89H46.36V75.8A3.68,3.68,0,0,0,46.07,74a1.12,1.12,0,0,0-1-.52,2.41,2.41,0,0,0-1.68,1v5.1H41.59V72.09H43.2l.07,1a2.84,2.84,0,0,1,2.23-1.17,2.43,2.43,0,0,1,2,1c.06.09.1.18.16.29a3,3,0,0,1,2.53-1.3,2.45,2.45,0,0,1,2,.93,4.53,4.53,0,0,1,.68,2.82v3.89Z" fill="#c2384a"/><path d="M56.6,72.09l.1,1A2.79,2.79,0,0,1,59,71.92a3.92,3.92,0,0,1,0,7.81,3.06,3.06,0,0,1-2.24-.93v4.38H55V72.09Zm.16,5.16a2.35,2.35,0,0,0,1.91,1,2.38,2.38,0,0,0,0-4.74,2.15,2.15,0,0,0-1.94,1.16Z" fill="#c2384a"/><path d="M66.05,73.57v3.09c0,.22,0,.39,0,.62.06.58.27.92.82.92A1.66,1.66,0,0,0,67.7,78l.52,1.34a3.59,3.59,0,0,1-1.62.39,2.08,2.08,0,0,1-2.13-1.42,4.27,4.27,0,0,1-.19-1.38V73.57h-.93V72.09h.93l.19-1.71h1.58v1.71h2v1.48Z" fill="#c2384a"/><path d="M69.49,70.88V69.24h1.75v1.64Zm0,8.68V72.09h1.75v7.47Z" fill="#c2384a"/><path d="M80.61,75.82a3.87,3.87,0,1,1-3.87-3.9A3.81,3.81,0,0,1,80.61,75.82Zm-3.87-2.36a2.39,2.39,0,1,0,2.08,2.36A2.19,2.19,0,0,0,76.74,73.46Z" fill="#c2384a"/><path d="M83.83,72.09l.08,1.11a2.87,2.87,0,0,1,2.38-1.28,2.49,2.49,0,0,1,2.06,1A4.54,4.54,0,0,1,89,75.67v3.89H87.26V75.8A3.66,3.66,0,0,0,87,74a1.18,1.18,0,0,0-1.13-.56A2.31,2.31,0,0,0,84,74.6v5H82.23V72.09Z" fill="#c2384a"/></g><g style="isolation:isolate"><g style="isolation:isolate"><path d="M11.15,8h0l2-7.62h2.72l-3.42,11.9H10.08L7.92,4.42h0L5.66,12.24H3.33L0,.34H2.72L4.67,8h0L6.83.34H9.11Z" fill="#c2384a"/></g><g style="isolation:isolate"><path d="M22.17,12.24,22,11.47a3,3,0,0,1-2.43,1A2.93,2.93,0,0,1,16.34,9.6c0-2.19,2-2.89,3.89-2.89a7.9,7.9,0,0,1,1.61.19V6.76c0-1.12-.45-1.8-1.76-1.8a5.88,5.88,0,0,0-2.71.79L16.73,4a8.94,8.94,0,0,1,3.84-.92c2.48,0,3.69,1.45,3.69,3.78v5.37Zm-.33-3.89a5.12,5.12,0,0,0-1.22-.16c-.88,0-1.92.33-1.92,1.38a1.23,1.23,0,0,0,1.36,1.19A2.61,2.61,0,0,0,21.84,10Z" fill="#c2384a"/><path d="M29,5.3V8.77a6.52,6.52,0,0,0,0,.77c.07.52.27.85.78.85a2.09,2.09,0,0,0,1-.26l.75,1.79a4.66,4.66,0,0,1-2.13.52,2.58,2.58,0,0,1-2.65-1.92A5.44,5.44,0,0,1,26.62,9V5.3H25.55v-2h1.07l.38-2h2v2h2.27v2Z" fill="#c2384a"/><path d="M34.78,8.36A2.25,2.25,0,0,0,37,10.5a2.51,2.51,0,0,0,2.32-1.32l1.58,1.07a4.43,4.43,0,0,1-4.07,2.19,4.33,4.33,0,0,1-4.53-4.57,4.59,4.59,0,0,1,4.54-4.78,4.11,4.11,0,0,1,4.32,4.13,6.21,6.21,0,0,1-.12,1.14Zm3.94-1.65A1.71,1.71,0,0,0,36.94,5a2,2,0,0,0-2,1.73Z" fill="#c2384a"/><path d="M45.22,4.49a2.5,2.5,0,0,1,2.09-1.4,3.38,3.38,0,0,1,1.16.21l-.58,2.11A1.78,1.78,0,0,0,47,5.2a2,2,0,0,0-1.68,1v6.05H42.94V3.3H45Z" fill="#c2384a"/><path d="M60.69,11.34a4.62,4.62,0,0,1-3.21,1.1,4.41,4.41,0,0,1-4.54-4.67,4.52,4.52,0,0,1,4.6-4.68A4.79,4.79,0,0,1,60.69,4.2L59.45,5.88A2.37,2.37,0,0,0,55.4,7.77a2.42,2.42,0,0,0,2.28,2.6,2.33,2.33,0,0,0,1.72-.68Z" fill="#c2384a"/><path d="M71,7.77a4.69,4.69,0,0,1-9.37,0,4.69,4.69,0,0,1,9.37,0Zm-4.67-2.6a2.36,2.36,0,0,0-2.23,2.6,2.25,2.25,0,1,0,4.44,0A2.35,2.35,0,0,0,66.32,5.17Z" fill="#c2384a"/><path d="M74.82,3.3,75,4.52a3.39,3.39,0,0,1,2.77-1.43,3,3,0,0,1,2.38,1.18A5.22,5.22,0,0,1,81,7.6v4.64H78.54V7.72a4.68,4.68,0,0,0-.27-1.92,1.23,1.23,0,0,0-1.19-.63,2.33,2.33,0,0,0-1.94,1.14v5.93H72.72V3.3Z" fill="#c2384a"/><path d="M88.09,5.73A2.74,2.74,0,0,0,86.33,5c-.46,0-.87.26-.87.68s.66.85,1.41,1.16c1.15.47,2.62,1,2.62,2.75,0,2-1.7,2.87-3.44,2.87a5,5,0,0,1-3.6-1.53l1.38-1.43a2.84,2.84,0,0,0,2.1,1.06c.5,0,1.14-.24,1.14-.78s-.81-.9-1.7-1.3C84.3,8,83.13,7.39,83.13,5.83c0-1.82,1.56-2.74,3.2-2.74a4.39,4.39,0,0,1,3.09,1.18Z" fill="#c2384a"/><path d="M97.48,12.24,97.29,11a3.36,3.36,0,0,1-2.77,1.43,3,3,0,0,1-2.38-1.17,5.23,5.23,0,0,1-.8-3.33V3.3h2.41V7.82A4.54,4.54,0,0,0,94,9.74a1.23,1.23,0,0,0,1.19.63,2.33,2.33,0,0,0,1.93-1.14V3.3h2.42v8.94Z" fill="#c2384a"/><path d="M113,12.24V7.72a4.52,4.52,0,0,0-.28-1.92,1.19,1.19,0,0,0-1.18-.63,2.23,2.23,0,0,0-1.76,1,12.39,12.39,0,0,1,.09,1.41v4.64h-2.41V7.72a4.32,4.32,0,0,0-.28-1.94A1.18,1.18,0,0,0,106,5.17a2.46,2.46,0,0,0-1.71.88v6.19h-2.42V3.3H104l.17,1.08a3.32,3.32,0,0,1,2.59-1.29,2.92,2.92,0,0,1,2.53,1.5,3.48,3.48,0,0,1,3-1.5,3,3,0,0,1,2.34,1.16,5.26,5.26,0,0,1,.8,3.35v4.64Z" fill="#c2384a"/><path d="M119.78,3.3,120,4.4a3.32,3.32,0,0,1,2.77-1.31c2.38,0,4.16,2.11,4.16,4.71a4.39,4.39,0,0,1-4.18,4.64,3.51,3.51,0,0,1-2.62-1.07v5.12h-2.41V3.3Zm.32,6.1a2.58,2.58,0,0,0,2.08,1,2.4,2.4,0,0,0,2.26-2.64,2.32,2.32,0,0,0-4.34-1.37Z" fill="#c2384a"/><path d="M131.15,5.3V8.77a4.9,4.9,0,0,0,0,.77c.06.52.27.85.78.85a2.13,2.13,0,0,0,1-.26l.75,1.79a4.66,4.66,0,0,1-2.13.52,2.57,2.57,0,0,1-2.65-1.92A5.08,5.08,0,0,1,128.74,9V5.3h-1.07v-2h1.07l.37-2h2v2h2.28v2Z" fill="#c2384a"/><path d="M135.06,2.06V0h2.42V2.06Zm0,10.18V3.3h2.42v8.94Z" fill="#c2384a"/><path d="M148.58,7.77a4.69,4.69,0,0,1-9.37,0,4.69,4.69,0,0,1,9.37,0Zm-4.68-2.6a2.36,2.36,0,0,0-2.22,2.6,2.24,2.24,0,1,0,4.43,0A2.34,2.34,0,0,0,143.9,5.17Z" fill="#c2384a"/><path d="M152.4,3.3l.19,1.22a3.38,3.38,0,0,1,2.77-1.43,3,3,0,0,1,2.38,1.18,5.22,5.22,0,0,1,.8,3.33v4.64h-2.41V7.72a4.52,4.52,0,0,0-.28-1.92,1.21,1.21,0,0,0-1.19-.63,2.33,2.33,0,0,0-1.93,1.14v5.93h-2.42V3.3Z" fill="#c2384a"/></g></g><g style="isolation:isolate"><path d="M9.08,26.83h.05l1.41-5.52h2.51l-2.56,8.94H7.94L6.53,25.13h0L5.07,30.25H2.46L0,21.31H2.58l1.33,5.54h0l1.55-5.54H7.62Z" fill="#c2384a"/><path d="M14.31,20.07V18h2.42v2.06Zm0,10.18V21.31h2.42v8.94Z" fill="#c2384a"/><path d="M21.59,23.31v3.47a6.52,6.52,0,0,0,0,.77c.07.52.28.85.79.85a2.05,2.05,0,0,0,1-.26l.75,1.79a4.52,4.52,0,0,1-2.12.52,2.56,2.56,0,0,1-2.65-1.92A5.08,5.08,0,0,1,19.18,27V23.31H18.1v-2h1.08l.37-2h2v2h2.28v2Z" fill="#c2384a"/><path d="M27.91,22.36a3.43,3.43,0,0,1,2.64-1.26,3,3,0,0,1,2.38,1.18,5.28,5.28,0,0,1,.8,3.33v4.64H31.31V25.73A4.52,4.52,0,0,0,31,23.81a1.21,1.21,0,0,0-1.19-.63,2.36,2.36,0,0,0-1.94,1.14v5.93H25.5V17.5h2.41Z" fill="#c2384a"/><path d="M36,20.07V18h2.41v2.06Zm0,10.18V21.31h2.41v8.94Z" fill="#c2384a"/><path d="M42.86,21.31,43,22.53a3.39,3.39,0,0,1,2.77-1.43,3,3,0,0,1,2.38,1.18,5.22,5.22,0,0,1,.8,3.33v4.64H46.58V25.73a4.68,4.68,0,0,0-.27-1.92,1.22,1.22,0,0,0-1.19-.63,2.33,2.33,0,0,0-1.94,1.14v5.93H40.77V21.31Z" fill="#c2384a"/><path d="M58,23.31v3.47a6.52,6.52,0,0,0,0,.77c.07.52.27.85.78.85a2.06,2.06,0,0,0,1-.26l.75,1.79a4.52,4.52,0,0,1-2.12.52,2.58,2.58,0,0,1-2.66-1.92A5.44,5.44,0,0,1,55.62,27V23.31H54.55v-2h1.07l.38-2h2v2h2.27v2Z" fill="#c2384a"/><path d="M64.36,22.36A3.43,3.43,0,0,1,67,21.1a3,3,0,0,1,2.38,1.18,5.28,5.28,0,0,1,.79,3.33v4.64H67.76V25.73a4.68,4.68,0,0,0-.27-1.92,1.21,1.21,0,0,0-1.19-.63,2.33,2.33,0,0,0-1.94,1.14v5.93H62V17.5h2.41Z" fill="#c2384a"/><path d="M74.29,26.37a2.26,2.26,0,0,0,2.24,2.15,2.53,2.53,0,0,0,2.33-1.33l1.58,1.07a4.46,4.46,0,0,1-4.08,2.19,4.33,4.33,0,0,1-4.52-4.57,4.59,4.59,0,0,1,4.54-4.78,4.11,4.11,0,0,1,4.32,4.13,6.21,6.21,0,0,1-.12,1.14Zm3.94-1.65A1.72,1.72,0,0,0,76.45,23a2,2,0,0,0-2,1.73Z" fill="#c2384a"/><path d="M95.45,25.78a4.68,4.68,0,1,1-4.67-4.68A4.55,4.55,0,0,1,95.45,25.78Zm-4.67-2.6a2.36,2.36,0,0,0-2.23,2.6,2.25,2.25,0,1,0,4.44,0A2.35,2.35,0,0,0,90.78,23.18Z" fill="#c2384a"/><path d="M99.47,22.5a2.49,2.49,0,0,1,2.09-1.4,3.28,3.28,0,0,1,1.15.21l-.58,2.11a1.73,1.73,0,0,0-.85-.21,2,2,0,0,0-1.68,1v6.05H97.19V21.31h2.09Z" fill="#c2384a"/><path d="M112.15,29.77a4.61,4.61,0,0,1-.56,2.38,4.37,4.37,0,0,1-4,2,7.55,7.55,0,0,1-4.13-1.23l.89-2A5.62,5.62,0,0,0,107.56,32a2,2,0,0,0,2.17-2.1v-.82a3.34,3.34,0,0,1-2.63,1.14,4.34,4.34,0,0,1-4.17-4.61,4.31,4.31,0,0,1,4.2-4.54,3.32,3.32,0,0,1,2.72,1.26l.21-1.05h2.09Zm-2.42-5.62a2.57,2.57,0,0,0-2.07-1,2.31,2.31,0,0,0-2.26,2.53,2.29,2.29,0,0,0,2.22,2.46A2.34,2.34,0,0,0,109.73,27Z" fill="#c2384a"/><path d="M119.85,30.25l-.19-.77a3,3,0,0,1-2.43,1A2.93,2.93,0,0,1,114,27.61c0-2.19,2-2.89,3.89-2.89a8.08,8.08,0,0,1,1.62.19v-.14c0-1.12-.46-1.8-1.77-1.8a5.88,5.88,0,0,0-2.71.79L114.41,22a8.94,8.94,0,0,1,3.84-.92c2.48,0,3.69,1.45,3.69,3.78v5.37Zm-.32-3.89a5.26,5.26,0,0,0-1.23-.16c-.88,0-1.92.33-1.92,1.38a1.23,1.23,0,0,0,1.36,1.19,2.66,2.66,0,0,0,1.79-.77Z" fill="#c2384a"/><path d="M126.29,21.31l.19,1.22a3.37,3.37,0,0,1,2.77-1.43,3,3,0,0,1,2.38,1.18,5.22,5.22,0,0,1,.8,3.33v4.64H130V25.73a4.52,4.52,0,0,0-.27-1.92,1.21,1.21,0,0,0-1.19-.63,2.36,2.36,0,0,0-1.94,1.14v5.93H124.2V21.31Z" fill="#c2384a"/><path d="M134.71,20.07V18h2.41v2.06Zm0,10.18V21.31h2.41v8.94Z" fill="#c2384a"/><path d="M142.54,23.31H139v-2h6.76v1.1l-3.43,5.83H146v2h-6.87V29.13Z" fill="#c2384a"/><path d="M153.1,30.25l-.19-.77a3,3,0,0,1-2.43,1,2.94,2.94,0,0,1-3.21-2.84c0-2.19,2-2.89,3.89-2.89a7.92,7.92,0,0,1,1.62.19v-.14c0-1.12-.46-1.8-1.77-1.8a5.8,5.8,0,0,0-2.7.79L147.66,22a9,9,0,0,1,3.84-.92c2.48,0,3.69,1.45,3.69,3.78v5.37Zm-.32-3.89a5.19,5.19,0,0,0-1.23-.16c-.88,0-1.92.33-1.92,1.38A1.23,1.23,0,0,0,151,28.77a2.64,2.64,0,0,0,1.79-.77Z" fill="#c2384a"/><path d="M160,23.31v3.47a6.52,6.52,0,0,0,0,.77c.07.52.27.85.78.85a2.06,2.06,0,0,0,1-.26l.75,1.79a4.52,4.52,0,0,1-2.12.52,2.58,2.58,0,0,1-2.66-1.92,5.44,5.44,0,0,1-.17-1.49V23.31h-1.07v-2h1.07l.38-2h2v2h2.28v2Z" fill="#c2384a"/><path d="M163.88,20.07V18h2.41v2.06Zm0,10.18V21.31h2.41v8.94Z" fill="#c2384a"/><path d="M177.39,25.78a4.68,4.68,0,1,1-4.67-4.68A4.55,4.55,0,0,1,177.39,25.78Zm-4.67-2.6a2.36,2.36,0,0,0-2.23,2.6,2.25,2.25,0,1,0,4.44,0A2.35,2.35,0,0,0,172.72,23.18Z" fill="#c2384a"/><path d="M181.22,21.31l.18,1.22a3.39,3.39,0,0,1,2.77-1.43,3,3,0,0,1,2.38,1.18,5.22,5.22,0,0,1,.8,3.33v4.64h-2.41V25.73a4.68,4.68,0,0,0-.27-1.92,1.22,1.22,0,0,0-1.19-.63,2.33,2.33,0,0,0-1.94,1.14v5.93h-2.41V21.31Z" fill="#c2384a"/></g><rect x="0.44" y="41.89" width="388.57" height="1" fill="#c2384a"/><g style="isolation:isolate"><g style="isolation:isolate"><path d="M2.83,162.46l.65.74-.78.51-.4-.92-.59.92L1,163.2l.79-.74-1-.18.36-.84.86.44,0-1h.88l-.23,1,1-.44.18.84Z" fill="#c2384a"/></g><g style="isolation:isolate"><path d="M7.82,166.54H4.35l.08-.77a27.51,27.51,0,0,0,2-2.16,2.17,2.17,0,0,0,.53-1c0-.39-.26-.62-.65-.62a.8.8,0,0,0-.78.77l-.94-.17a1.86,1.86,0,0,1,1.84-1.44A1.37,1.37,0,0,1,8,162.59a2.89,2.89,0,0,1-.71,1.47,17.28,17.28,0,0,1-1.55,1.65H7.9Z" fill="#c2384a"/></g><g style="isolation:isolate"><path d="M12.53,163.9c-.18,1.69-1,2.73-2.22,2.73s-1.82-1-1.65-2.73,1-2.75,2.21-2.75S12.7,162.19,12.53,163.9Zm-2.88,0c-.13,1.26.15,1.89.75,1.89s1-.63,1.14-1.89-.15-1.9-.76-1.9S9.78,162.62,9.65,163.9Z" fill="#c2384a"/><path d="M13.71,166.54l.42-4.15c-.25.11-.59.23-.81.33l.09-.88,1.17-.59h.63l-.53,5.29Z" fill="#c2384a"/><path d="M16.4,166.07a3.67,3.67,0,0,0,2.11-1.81,1.58,1.58,0,0,1-1.05.39A1.45,1.45,0,0,1,16,163a2,2,0,0,1,2-1.81,1.79,1.79,0,0,1,1.79,2.15,4.52,4.52,0,0,1-3.08,3.56ZM17.93,162a1,1,0,0,0-.94.94.75.75,0,0,0,.77.91,1.25,1.25,0,0,0,1-.55C18.85,162.61,18.65,162,17.93,162Z" fill="#c2384a"/><path d="M26.17,166.54h-.89V166a1.69,1.69,0,0,1-1.35.62,1.81,1.81,0,0,1-1.75-2.15,2.32,2.32,0,0,1,2.2-2.13,1.55,1.55,0,0,1,1.18.51l.23-2.29h1Zm-.69-2.83a1.17,1.17,0,0,0-1-.52,1.36,1.36,0,0,0-1.32,1.31,1.08,1.08,0,0,0,1,1.29,1.32,1.32,0,0,0,1.12-.64Z" fill="#c2384a"/><path d="M29.83,166.54v-.38a1.56,1.56,0,0,1-1.21.47c-.77,0-1.44-.42-1.35-1.28.1-1,1.08-1.33,1.94-1.33a3.87,3.87,0,0,1,.77.08V164c.05-.56-.16-.89-.79-.89a3,3,0,0,0-1.3.36l-.19-.73a4.3,4.3,0,0,1,1.74-.4c1.17,0,1.6.65,1.5,1.71l-.25,2.48Zm.08-1.82a3.1,3.1,0,0,0-.63-.07c-.45,0-1,.14-1.07.67s.27.6.64.6a1.61,1.61,0,0,0,1-.41Z" fill="#c2384a"/><path d="M33.16,163.25,33,165c0,.12,0,.21,0,.34,0,.32.09.5.39.5a1,1,0,0,0,.47-.11l.21.73a2,2,0,0,1-.91.22,1,1,0,0,1-1.1-.78,2.38,2.38,0,0,1,0-.76l.18-1.84h-.51l.09-.81h.5l.2-.94h.87l-.09.94h1.08l-.08.81Z" fill="#c2384a"/><path d="M37.19,166.54v-.38a1.56,1.56,0,0,1-1.21.47c-.77,0-1.43-.42-1.35-1.28.11-1,1.08-1.33,2-1.33a3.85,3.85,0,0,1,.76.08V164c.06-.56-.16-.89-.79-.89a3,3,0,0,0-1.3.36l-.19-.73a4.31,4.31,0,0,1,1.75-.4c1.16,0,1.6.65,1.49,1.71l-.25,2.48Zm.08-1.82a3,3,0,0,0-.62-.07c-.46,0-1,.14-1.08.67s.27.6.65.6a1.58,1.58,0,0,0,1-.41Z" fill="#c2384a"/></g><g style="isolation:isolate"><path d="M42.06,164.73a1,1,0,0,0,1,1.12,1.34,1.34,0,0,0,1.2-.64l.61.44a2.25,2.25,0,0,1-1.94,1,1.77,1.77,0,0,1-1.85-2.11,2.35,2.35,0,0,1,2.28-2.17,1.66,1.66,0,0,1,1.75,1.9,4,4,0,0,1-.09.48Zm1.28-1.61a1.2,1.2,0,0,0-1.15.92h2A.82.82,0,0,0,43.34,163.12Z" fill="#c2384a"/></g><g style="isolation:isolate"><path d="M48,164.46l1.31,2.08H48.11l-.78-1.35-1.07,1.35H45.05l1.79-2.07-1.26-2h1.23l.74,1.3,1-1.3h1.19Z" fill="#c2384a"/></g><g style="isolation:isolate"><path d="M53.06,166.17a2.27,2.27,0,0,1-1.43.46,1.81,1.81,0,0,1-1.87-2.14,2.35,2.35,0,0,1,2.34-2.14,2,2,0,0,1,1.28.43l-.55.72a1.12,1.12,0,0,0-.79-.31,1.39,1.39,0,0,0-1.3,1.3,1.08,1.08,0,0,0,1,1.3,1.39,1.39,0,0,0,.86-.3Z" fill="#c2384a"/><path d="M54.76,166.54h-1l.6-6h1Z" fill="#c2384a"/><path d="M58.77,166.54v-.61a1.76,1.76,0,0,1-1.38.7,1.23,1.23,0,0,1-1.07-.52,2.33,2.33,0,0,1-.22-1.54l.22-2.13h1l-.2,2.06a1.86,1.86,0,0,0,.06,1,.57.57,0,0,0,.59.31,1.44,1.44,0,0,0,1.08-.63l.27-2.72h1l-.42,4.1Z" fill="#c2384a"/><path d="M64.71,166.54h-.88V166a1.7,1.7,0,0,1-1.35.62,1.81,1.81,0,0,1-1.75-2.15,2.31,2.31,0,0,1,2.2-2.13,1.51,1.51,0,0,1,1.17.51l.24-2.29h1ZM64,163.71a1.17,1.17,0,0,0-1-.52,1.36,1.36,0,0,0-1.32,1.31,1.07,1.07,0,0,0,1,1.29,1.32,1.32,0,0,0,1.12-.64Z" fill="#c2384a"/><path d="M66.76,164.73a1,1,0,0,0,1,1.12,1.34,1.34,0,0,0,1.2-.64l.61.44a2.26,2.26,0,0,1-1.94,1,1.76,1.76,0,0,1-1.85-2.11,2.35,2.35,0,0,1,2.28-2.17,1.65,1.65,0,0,1,1.74,1.9,2.7,2.7,0,0,1-.09.48ZM68,163.12a1.22,1.22,0,0,0-1.16.92h2A.82.82,0,0,0,68,163.12Z" fill="#c2384a"/><path d="M73,163.44a1.18,1.18,0,0,0-.78-.32.48.48,0,0,0-.53.39c0,.28.3.43.65.58.51.2,1.15.48,1.07,1.24a1.52,1.52,0,0,1-1.68,1.3A1.84,1.84,0,0,1,70.2,166l.64-.56a1.18,1.18,0,0,0,.9.46.61.61,0,0,0,.66-.47c0-.28-.36-.44-.71-.59s-1.06-.48-1-1.21a1.42,1.42,0,0,1,1.53-1.24,1.79,1.79,0,0,1,1.31.5Z" fill="#c2384a"/><path d="M79.41,166.17a2.25,2.25,0,0,1-1.43.46,1.81,1.81,0,0,1-1.87-2.14,2.36,2.36,0,0,1,2.34-2.14,2,2,0,0,1,1.28.43l-.55.72a1.11,1.11,0,0,0-.78-.31,1.39,1.39,0,0,0-1.31,1.3,1.08,1.08,0,0,0,1,1.3,1.38,1.38,0,0,0,.85-.3Z" fill="#c2384a"/><path d="M84.31,164.49A2.36,2.36,0,0,1,82,166.63a1.86,1.86,0,0,1-1.91-2.14,2.36,2.36,0,0,1,2.34-2.14A1.86,1.86,0,0,1,84.31,164.49Zm-2-1.3a1.36,1.36,0,0,0-1.28,1.3,1.07,1.07,0,0,0,1,1.3,1.36,1.36,0,0,0,1.28-1.3A1.08,1.08,0,0,0,82.32,163.19Z" fill="#c2384a"/><path d="M86.28,162.44v.61a1.75,1.75,0,0,1,1.37-.7,1.22,1.22,0,0,1,1.08.52,2.33,2.33,0,0,1,.22,1.54l-.22,2.13h-1l.2-2.06a1.86,1.86,0,0,0-.06-1,.58.58,0,0,0-.59-.31,1.44,1.44,0,0,0-1.08.63L86,166.54H85l.42-4.1Z" fill="#c2384a"/><path d="M92.33,163.44a1.16,1.16,0,0,0-.78-.32.49.49,0,0,0-.53.39c0,.28.3.43.65.58.51.2,1.15.48,1.07,1.24a1.52,1.52,0,0,1-1.68,1.3,1.84,1.84,0,0,1-1.48-.67l.64-.56a1.18,1.18,0,0,0,.9.46c.29,0,.63-.14.66-.47s-.35-.44-.7-.59-1.06-.48-1-1.21a1.42,1.42,0,0,1,1.53-1.24,1.79,1.79,0,0,1,1.31.5Z" fill="#c2384a"/><path d="M96.41,166.54v-.61a1.76,1.76,0,0,1-1.38.7,1.23,1.23,0,0,1-1.07-.52,2.39,2.39,0,0,1-.22-1.54l.22-2.13h1l-.2,2.06a1.86,1.86,0,0,0,.06,1,.57.57,0,0,0,.59.31,1.44,1.44,0,0,0,1.08-.63l.27-2.72h1l-.42,4.1Z" fill="#c2384a"/><path d="M103.72,166.54l.2-2.06a2,2,0,0,0,0-1,.58.58,0,0,0-.58-.31,1.36,1.36,0,0,0-1,.56,5,5,0,0,1,0,.66l-.22,2.13h-1l.2-2.06a1.94,1.94,0,0,0,0-1,.56.56,0,0,0-.55-.29,1.47,1.47,0,0,0-1,.55l-.28,2.8h-1l.41-4.1h.88V163a1.73,1.73,0,0,1,1.29-.64,1.19,1.19,0,0,1,1,.55.77.77,0,0,1,.07.16,1.84,1.84,0,0,1,1.47-.71,1.22,1.22,0,0,1,1,.5,2.38,2.38,0,0,1,.21,1.56l-.21,2.13Z" fill="#c2384a"/><path d="M107.13,162.44V163a1.7,1.7,0,0,1,1.34-.62,1.8,1.8,0,0,1,1.75,2.15,2.31,2.31,0,0,1-2.19,2.13,1.55,1.55,0,0,1-1.19-.51l-.24,2.41h-1l.61-6.09Zm-.2,2.83a1.17,1.17,0,0,0,1,.52,1.38,1.38,0,0,0,1.32-1.31,1.08,1.08,0,0,0-1-1.29,1.33,1.33,0,0,0-1.13.64Z" fill="#c2384a"/><path d="M112.23,163.25l-.17,1.7c0,.12,0,.21,0,.34,0,.32.09.5.39.5a1,1,0,0,0,.47-.11l.21.73a2,2,0,0,1-.91.22,1,1,0,0,1-1.09-.78,2.11,2.11,0,0,1,0-.76l.18-1.84h-.51l.09-.81h.51l.19-.94h.87l-.09.94h1.08l-.08.81Z" fill="#c2384a"/><path d="M113.79,166.54l.41-4.1h1l-.42,4.1Zm.48-4.77.09-.9h1l-.1.9Z" fill="#c2384a"/><path d="M120.1,164.49a2.36,2.36,0,0,1-2.34,2.14,1.86,1.86,0,0,1-1.91-2.14,2.36,2.36,0,0,1,2.34-2.14A1.86,1.86,0,0,1,120.1,164.49Zm-2-1.3a1.36,1.36,0,0,0-1.28,1.3,1.08,1.08,0,0,0,1,1.3,1.35,1.35,0,0,0,1.27-1.3A1.07,1.07,0,0,0,118.11,163.19Z" fill="#c2384a"/><path d="M122.08,162.44l0,.61a1.79,1.79,0,0,1,1.38-.7,1.23,1.23,0,0,1,1.08.52,2.39,2.39,0,0,1,.21,1.54l-.22,2.13h-1l.21-2.06a2.09,2.09,0,0,0-.06-1,.59.59,0,0,0-.59-.31,1.44,1.44,0,0,0-1.09.63l-.27,2.72h-1l.41-4.1Z" fill="#c2384a"/><path d="M130.36,161.45a1.13,1.13,0,0,0-.54-.13.56.56,0,0,0-.4.13,1,1,0,0,0-.21.63l0,.36h1.06l-.09.81h-1l-.34,3.29h-1l.33-3.29h-.45l.08-.81h.45l.05-.44a1.84,1.84,0,0,1,.39-1.08,1.44,1.44,0,0,1,1.17-.44,2.1,2.1,0,0,1,.91.21Z" fill="#c2384a"/><path d="M131.72,163a1.36,1.36,0,0,1,1.06-.67,1.49,1.49,0,0,1,.49.07l-.31.9a.67.67,0,0,0-.38-.09,1.1,1.1,0,0,0-.9.55l-.28,2.76h-1l.42-4.1h.88Z" fill="#c2384a"/><path d="M137.51,164.49a2.36,2.36,0,0,1-2.34,2.14,1.86,1.86,0,0,1-1.91-2.14,2.36,2.36,0,0,1,2.34-2.14A1.86,1.86,0,0,1,137.51,164.49Zm-2-1.3a1.36,1.36,0,0,0-1.28,1.3,1.07,1.07,0,0,0,1,1.3,1.36,1.36,0,0,0,1.28-1.3A1.07,1.07,0,0,0,135.52,163.19Z" fill="#c2384a"/><path d="M143.43,166.54l.21-2.06a2,2,0,0,0,0-1,.58.58,0,0,0-.58-.31,1.36,1.36,0,0,0-1,.56,3.81,3.81,0,0,1,0,.66l-.21,2.13h-1l.21-2.06a1.84,1.84,0,0,0-.06-1,.53.53,0,0,0-.54-.29,1.47,1.47,0,0,0-1,.55l-.28,2.8h-1l.42-4.1h.88V163a1.73,1.73,0,0,1,1.29-.64,1.2,1.2,0,0,1,1,.55l.07.16a1.84,1.84,0,0,1,1.47-.71,1.2,1.2,0,0,1,1,.5,2.38,2.38,0,0,1,.22,1.56l-.21,2.13Z" fill="#c2384a"/><path d="M150,161.73a.81.81,0,0,0-.9.65c0,.44.49.61.92.76.79.28,1.68.65,1.57,1.77a2.08,2.08,0,0,1-2.22,1.72,2.49,2.49,0,0,1-2-.89l.73-.64a1.68,1.68,0,0,0,1.36.68,1,1,0,0,0,1.07-.82c.05-.53-.49-.73-1-.94-.72-.27-1.48-.63-1.38-1.6a1.78,1.78,0,0,1,1.92-1.55,2.59,2.59,0,0,1,1.73.63l-.65.7A1.69,1.69,0,0,0,150,161.73Z" fill="#c2384a"/><path d="M153.71,163a1.75,1.75,0,0,1,1.34-.65,1.21,1.21,0,0,1,1.07.52,2.33,2.33,0,0,1,.22,1.54l-.22,2.13h-1l.21-2.06a2,2,0,0,0-.07-1,.57.57,0,0,0-.59-.31,1.44,1.44,0,0,0-1.08.63l-.27,2.72h-1l.61-6h1Z" fill="#c2384a"/><path d="M161.43,164.49a2.36,2.36,0,0,1-2.34,2.14,1.86,1.86,0,0,1-1.91-2.14,2.36,2.36,0,0,1,2.34-2.14A1.86,1.86,0,0,1,161.43,164.49Zm-2-1.3a1.35,1.35,0,0,0-1.27,1.3,1.07,1.07,0,0,0,1,1.3,1.36,1.36,0,0,0,1.28-1.3A1.08,1.08,0,0,0,159.43,163.19Z" fill="#c2384a"/><path d="M163.4,162.44V163a1.7,1.7,0,0,1,1.35-.62,1.81,1.81,0,0,1,1.75,2.15,2.32,2.32,0,0,1-2.2,2.13,1.52,1.52,0,0,1-1.18-.51l-.25,2.41h-1l.62-6.09Zm-.2,2.83a1.19,1.19,0,0,0,1,.52,1.36,1.36,0,0,0,1.32-1.31,1.08,1.08,0,0,0-1-1.29,1.33,1.33,0,0,0-1.13.64Z" fill="#c2384a"/><path d="M170.91,165.23h0l1-2.78h1l-1.6,4.09h-1l-.47-2.68h0l-1,2.68h-1.06l-.71-4.09h1l.39,2.79h0l1.06-2.79h.91Z" fill="#c2384a"/><path d="M173.15,166.54l.41-4.1h1l-.41,4.1Zm.48-4.77.09-.9h1l-.09.9Z" fill="#c2384a"/><path d="M177.76,163.44a1.14,1.14,0,0,0-.78-.32.47.47,0,0,0-.52.39c0,.28.3.43.65.58s1.14.48,1.07,1.24a1.52,1.52,0,0,1-1.68,1.3A1.84,1.84,0,0,1,175,166l.64-.56a1.17,1.17,0,0,0,.89.46.61.61,0,0,0,.67-.47c0-.28-.36-.44-.71-.59s-1.06-.48-1-1.21a1.42,1.42,0,0,1,1.53-1.24,1.79,1.79,0,0,1,1.31.5Z" fill="#c2384a"/><path d="M179.88,164.73a1,1,0,0,0,1,1.12,1.33,1.33,0,0,0,1.19-.64l.61.44a2.24,2.24,0,0,1-1.94,1,1.77,1.77,0,0,1-1.85-2.11,2.36,2.36,0,0,1,2.29-2.17,1.65,1.65,0,0,1,1.74,1.9,4,4,0,0,1-.09.48Zm1.28-1.61A1.2,1.2,0,0,0,180,164h2A.82.82,0,0,0,181.16,163.12Z" fill="#c2384a"/><path d="M188.08,166.54v-.38a1.56,1.56,0,0,1-1.21.47c-.77,0-1.43-.42-1.35-1.28.11-1,1.08-1.33,2-1.33a3.85,3.85,0,0,1,.76.08V164c.06-.56-.16-.89-.79-.89a3,3,0,0,0-1.3.36l-.19-.73a4.31,4.31,0,0,1,1.75-.4c1.16,0,1.59.65,1.49,1.71l-.25,2.48Zm.08-1.82a3,3,0,0,0-.62-.07c-.46,0-1,.14-1.08.67s.27.6.64.6a1.61,1.61,0,0,0,1-.41Z" fill="#c2384a"/><path d="M191.38,162.44v.61a1.75,1.75,0,0,1,1.37-.7,1.22,1.22,0,0,1,1.08.52,2.39,2.39,0,0,1,.21,1.54l-.21,2.13h-1l.21-2.06a2,2,0,0,0-.06-1,.59.59,0,0,0-.59-.31,1.43,1.43,0,0,0-1.08.63l-.28,2.72h-1l.41-4.1Z" fill="#c2384a"/><path d="M198.85,166.54H198V166a1.69,1.69,0,0,1-1.35.62,1.81,1.81,0,0,1-1.75-2.15,2.32,2.32,0,0,1,2.2-2.13,1.55,1.55,0,0,1,1.18.51l.23-2.29h1Zm-.69-2.83a1.17,1.17,0,0,0-1-.52,1.37,1.37,0,0,0-1.32,1.31,1.08,1.08,0,0,0,1,1.29,1.35,1.35,0,0,0,1.13-.64Z" fill="#c2384a"/></g></g><g style="isolation:isolate"><g style="isolation:isolate"><path d="M2.86,172.81l-.48,4.73h-1l.48-4.73H.51L.6,172H4.29l-.08.84Z" fill="#c2384a"/><path d="M5.76,174a1.71,1.71,0,0,1,1.33-.65,1.22,1.22,0,0,1,1.08.52,2.39,2.39,0,0,1,.21,1.54l-.21,2.13h-1l.21-2.06a2,2,0,0,0-.06-1,.59.59,0,0,0-.59-.31,1.43,1.43,0,0,0-1.08.63l-.28,2.72h-1l.6-6H6Z" fill="#c2384a"/><path d="M10.17,175.73a1,1,0,0,0,1,1.12,1.34,1.34,0,0,0,1.2-.64l.61.44a2.25,2.25,0,0,1-1.94,1,1.77,1.77,0,0,1-1.85-2.11,2.35,2.35,0,0,1,2.28-2.17,1.65,1.65,0,0,1,1.74,1.9,4,4,0,0,1-.08.48Zm1.28-1.61a1.23,1.23,0,0,0-1.16.92h2A.82.82,0,0,0,11.45,174.12Z" fill="#c2384a"/><path d="M19.38,177.54h-.7l-1.28-4.35L17,177.54H16l.56-5.57H18l1.17,4.08,2-4.08h1.47l-.56,5.57h-1l.44-4.33Z" fill="#c2384a"/><path d="M25.87,177.54v-.38a1.56,1.56,0,0,1-1.21.47c-.77,0-1.43-.42-1.35-1.28.11-1,1.08-1.33,1.95-1.33a3.85,3.85,0,0,1,.76.08V175c.05-.56-.16-.89-.79-.89a3,3,0,0,0-1.3.36l-.19-.73a4.3,4.3,0,0,1,1.74-.4c1.17,0,1.6.65,1.5,1.71l-.25,2.48Zm.08-1.82a3.08,3.08,0,0,0-.62-.07c-.46,0-1,.14-1.08.67s.27.6.64.6a1.61,1.61,0,0,0,1-.41Z" fill="#c2384a"/><path d="M29.17,174a1.34,1.34,0,0,1,1.06-.67,1.49,1.49,0,0,1,.49.07l-.31.9a.67.67,0,0,0-.38-.09,1.09,1.09,0,0,0-.9.55l-.28,2.76h-1l.41-4.1h.89Z" fill="#c2384a"/></g><g style="isolation:isolate"><path d="M33.31,177.54l-.87-1.65-.56.58-.1,1.07h-1l.61-6h1L32,175.25h0l1.65-1.82h1.12l-1.62,1.7,1.32,2.4Z" fill="#c2384a"/></g><g style="isolation:isolate"><path d="M35.79,175.73a1,1,0,0,0,1,1.12,1.33,1.33,0,0,0,1.19-.64l.61.44a2.25,2.25,0,0,1-1.94,1,1.77,1.77,0,0,1-1.85-2.11,2.36,2.36,0,0,1,2.29-2.17,1.65,1.65,0,0,1,1.74,1.9,4,4,0,0,1-.09.48Zm1.28-1.61a1.22,1.22,0,0,0-1.15.92h2A.82.82,0,0,0,37.07,174.12Z" fill="#c2384a"/><path d="M40.85,174.25l-.17,1.7c0,.12,0,.21,0,.34,0,.32.09.5.39.5a1,1,0,0,0,.47-.11l.21.73a2,2,0,0,1-.91.22,1,1,0,0,1-1.1-.78,2.38,2.38,0,0,1,0-.76l.18-1.84h-.51l.09-.81H40l.2-.94H41l-.09.94H42l-.08.81Z" fill="#c2384a"/><path d="M43.7,173.44V174a1.7,1.7,0,0,1,1.35-.62,1.81,1.81,0,0,1,1.75,2.15,2.32,2.32,0,0,1-2.2,2.13,1.55,1.55,0,0,1-1.19-.51l-.24,2.41h-1l.61-6.09Zm-.2,2.83a1.17,1.17,0,0,0,1,.52,1.38,1.38,0,0,0,1.32-1.31,1.08,1.08,0,0,0-1-1.29,1.33,1.33,0,0,0-1.13.64Z" fill="#c2384a"/><path d="M48.44,177.54h-1l.6-6h1Z" fill="#c2384a"/><path d="M52.1,177.54v-.38a1.58,1.58,0,0,1-1.22.47c-.76,0-1.43-.42-1.34-1.28.1-1,1.08-1.33,1.94-1.33a3.87,3.87,0,0,1,.77.08V175c.05-.56-.16-.89-.79-.89a3,3,0,0,0-1.3.36l-.19-.73a4.27,4.27,0,0,1,1.74-.4c1.17,0,1.6.65,1.49,1.71L53,177.54Zm.08-1.82a2.94,2.94,0,0,0-.62-.07c-.45,0-1,.14-1.07.67s.27.6.64.6a1.56,1.56,0,0,0,1-.41Z" fill="#c2384a"/><path d="M57.32,177.17a2.25,2.25,0,0,1-1.43.46A1.81,1.81,0,0,1,54,175.49a2.36,2.36,0,0,1,2.34-2.14,2,2,0,0,1,1.28.43l-.55.72a1.11,1.11,0,0,0-.78-.31,1.39,1.39,0,0,0-1.31,1.3,1.08,1.08,0,0,0,1,1.3,1.36,1.36,0,0,0,.85-.3Z" fill="#c2384a"/><path d="M58.92,175.73a1,1,0,0,0,1,1.12,1.36,1.36,0,0,0,1.2-.64l.6.44a2.24,2.24,0,0,1-1.94,1A1.76,1.76,0,0,1,58,175.52a2.35,2.35,0,0,1,2.28-2.17,1.65,1.65,0,0,1,1.74,1.9,2.7,2.7,0,0,1-.09.48Zm1.27-1.61A1.22,1.22,0,0,0,59,175h2A.82.82,0,0,0,60.19,174.12Z" fill="#c2384a"/><path d="M68.52,177.54h-.89V177a1.69,1.69,0,0,1-1.35.62,1.81,1.81,0,0,1-1.75-2.15,2.32,2.32,0,0,1,2.2-2.13,1.55,1.55,0,0,1,1.18.51l.23-2.29h1Zm-.69-2.83a1.16,1.16,0,0,0-1-.52,1.37,1.37,0,0,0-1.32,1.31,1.08,1.08,0,0,0,1,1.29,1.35,1.35,0,0,0,1.13-.64Z" fill="#c2384a"/><path d="M72.52,177.54v-.61a1.75,1.75,0,0,1-1.37.7,1.24,1.24,0,0,1-1.08-.52,2.39,2.39,0,0,1-.21-1.54l.21-2.13h1l-.21,2.06a1.86,1.86,0,0,0,.06,1,.58.58,0,0,0,.59.31,1.44,1.44,0,0,0,1.08-.63l.28-2.72h1l-.41,4.1Z" fill="#c2384a"/><path d="M75.44,175.73a1,1,0,0,0,1,1.12,1.34,1.34,0,0,0,1.2-.64l.61.44a2.25,2.25,0,0,1-1.94,1,1.77,1.77,0,0,1-1.85-2.11,2.35,2.35,0,0,1,2.28-2.17,1.66,1.66,0,0,1,1.75,1.9,4,4,0,0,1-.09.48Zm1.28-1.61a1.22,1.22,0,0,0-1.15.92h2A.82.82,0,0,0,76.72,174.12Z" fill="#c2384a"/><path d="M82.49,174.25l-.17,1.7c0,.12,0,.21,0,.34,0,.32.09.5.4.5a1,1,0,0,0,.46-.11l.22.73a2.08,2.08,0,0,1-.92.22,1,1,0,0,1-1.09-.78,2.36,2.36,0,0,1,0-.76l.19-1.84H81l.08-.81h.51l.2-.94h.87l-.1.94h1.09l-.09.81Z" fill="#c2384a"/><path d="M88.2,175.49a2.36,2.36,0,0,1-2.34,2.14A1.86,1.86,0,0,1,84,175.49a2.36,2.36,0,0,1,2.34-2.14A1.86,1.86,0,0,1,88.2,175.49Zm-2-1.3a1.36,1.36,0,0,0-1.28,1.3,1.07,1.07,0,0,0,1,1.3,1.36,1.36,0,0,0,1.28-1.3A1.07,1.07,0,0,0,86.21,174.19Z" fill="#c2384a"/><path d="M92.2,174.25,92,176c0,.12,0,.21,0,.34,0,.32.1.5.4.5a1,1,0,0,0,.46-.11l.22.73a2,2,0,0,1-.92.22,1,1,0,0,1-1.09-.78,2.36,2.36,0,0,1,0-.76l.19-1.84h-.51l.08-.81h.51l.2-.94h.87l-.1.94h1.09l-.09.81Z" fill="#c2384a"/><path d="M95.08,174a1.71,1.71,0,0,1,1.33-.65,1.24,1.24,0,0,1,1.08.52,2.39,2.39,0,0,1,.21,1.54l-.22,2.13h-1l.21-2.06a2.09,2.09,0,0,0-.06-1,.59.59,0,0,0-.59-.31,1.44,1.44,0,0,0-1.09.63l-.27,2.72h-1l.61-6h1Z" fill="#c2384a"/><path d="M99.49,175.73a1,1,0,0,0,1,1.12,1.33,1.33,0,0,0,1.19-.64l.61.44a2.24,2.24,0,0,1-1.94,1,1.76,1.76,0,0,1-1.84-2.11,2.35,2.35,0,0,1,2.28-2.17,1.65,1.65,0,0,1,1.74,1.9,4,4,0,0,1-.09.48Zm1.27-1.61a1.22,1.22,0,0,0-1.15.92h2A.82.82,0,0,0,100.76,174.12Z" fill="#c2384a"/><path d="M108,177.54v-.61a1.75,1.75,0,0,1-1.37.7,1.24,1.24,0,0,1-1.08-.52,2.39,2.39,0,0,1-.21-1.54l.21-2.13h1l-.21,2.06a1.86,1.86,0,0,0,.06,1,.58.58,0,0,0,.59.31,1.44,1.44,0,0,0,1.08-.63l.28-2.72h1l-.41,4.1Z" fill="#c2384a"/><path d="M111.38,173.44l0,.61a1.79,1.79,0,0,1,1.38-.7,1.23,1.23,0,0,1,1.08.52,2.39,2.39,0,0,1,.21,1.54l-.21,2.13h-1l.21-2.06a2.09,2.09,0,0,0-.06-1,.59.59,0,0,0-.59-.31,1.43,1.43,0,0,0-1.08.63l-.28,2.72h-1l.41-4.1Z" fill="#c2384a"/><path d="M117.44,177.54v-.38a1.57,1.57,0,0,1-1.22.47c-.76,0-1.43-.42-1.34-1.28.1-1,1.08-1.33,1.94-1.33a3.87,3.87,0,0,1,.77.08V175c0-.56-.16-.89-.79-.89a3,3,0,0,0-1.3.36l-.19-.73a4.27,4.27,0,0,1,1.74-.4c1.17,0,1.6.65,1.5,1.71l-.25,2.48Zm.08-1.82a3.1,3.1,0,0,0-.63-.07c-.45,0-1,.14-1.07.67s.27.6.64.6a1.61,1.61,0,0,0,1-.41Z" fill="#c2384a"/><path d="M123.31,173.44l-2.06,4.1h-.81l-1.14-4.1h1.07l.65,2.8h0l1.22-2.8Z" fill="#c2384a"/><path d="M126,177.54v-.38a1.56,1.56,0,0,1-1.21.47c-.77,0-1.43-.42-1.35-1.28.11-1,1.08-1.33,2-1.33a3.85,3.85,0,0,1,.76.08V175c.06-.56-.16-.89-.79-.89a3,3,0,0,0-1.3.36l-.19-.73a4.31,4.31,0,0,1,1.75-.4c1.16,0,1.6.65,1.49,1.71l-.25,2.48Zm.08-1.82a3,3,0,0,0-.62-.07c-.46,0-1,.14-1.08.67s.27.6.65.6a1.58,1.58,0,0,0,1-.41Z" fill="#c2384a"/><path d="M128,177.54l.41-4.1h1l-.42,4.1Zm.48-4.77.09-.9h1l-.09.9Z" fill="#c2384a"/><path d="M131.14,177.54h-1l.6-6h1Z" fill="#c2384a"/><path d="M134.8,177.54v-.38a1.56,1.56,0,0,1-1.21.47c-.76,0-1.43-.42-1.34-1.28.1-1,1.07-1.33,1.94-1.33a3.87,3.87,0,0,1,.77.08V175c0-.56-.16-.89-.79-.89a2.93,2.93,0,0,0-1.3.36l-.19-.73a4.27,4.27,0,0,1,1.74-.4c1.16,0,1.6.65,1.49,1.71l-.25,2.48Zm.08-1.82a3,3,0,0,0-.62-.07c-.45,0-1,.14-1.07.67s.27.6.64.6a1.56,1.56,0,0,0,1-.41Z" fill="#c2384a"/><path d="M138.38,171.57l-.23,2.34a1.77,1.77,0,0,1,1.3-.56,1.81,1.81,0,0,1,1.75,2.15,2.32,2.32,0,0,1-2.2,2.13,1.44,1.44,0,0,1-1.21-.57l-.1.48h-.87l.6-6Zm-.47,4.7a1.16,1.16,0,0,0,1,.52,1.38,1.38,0,0,0,1.32-1.31,1.09,1.09,0,0,0-1-1.29,1.34,1.34,0,0,0-1.14.64Z" fill="#c2384a"/><path d="M141.89,177.54l.41-4.1h1l-.41,4.1Zm.48-4.77.09-.9h1l-.09.9Z" fill="#c2384a"/><path d="M145,177.54h-1l.61-6h1Z" fill="#c2384a"/><path d="M146.2,177.54l.41-4.1h1l-.42,4.1Zm.48-4.77.09-.9h1l-.09.9Z" fill="#c2384a"/></g><g style="isolation:isolate"><path d="M149.74,174.25l-.17,1.7c0,.12,0,.21,0,.34,0,.32.1.5.4.5a1,1,0,0,0,.47-.11l.21.73a2,2,0,0,1-.91.22,1,1,0,0,1-1.1-.78,2.38,2.38,0,0,1,0-.76l.18-1.84h-.51l.08-.81h.51l.2-.94h.87l-.09.94h1.08l-.08.81Z" fill="#c2384a"/></g><g style="isolation:isolate"><path d="M152.32,173.44l.65,2.71h0l1.21-2.71h1.05l-2.91,6-.82-.33.82-1.72-1.08-3.91Z" fill="#c2384a"/><path d="M161.61,175.49a2.36,2.36,0,0,1-2.34,2.14,1.86,1.86,0,0,1-1.91-2.14,2.36,2.36,0,0,1,2.34-2.14A1.86,1.86,0,0,1,161.61,175.49Zm-2-1.3a1.36,1.36,0,0,0-1.28,1.3,1.08,1.08,0,0,0,1,1.3,1.35,1.35,0,0,0,1.27-1.3A1.07,1.07,0,0,0,159.62,174.19Z" fill="#c2384a"/><path d="M165,172.45a1.13,1.13,0,0,0-.54-.13.52.52,0,0,0-.4.14.9.9,0,0,0-.21.62l0,.36h1.06l-.08.81h-1.06l-.33,3.29h-1l.33-3.29h-.45l.08-.81h.46l0-.44a1.91,1.91,0,0,1,.39-1.08,1.46,1.46,0,0,1,1.17-.44,2.1,2.1,0,0,1,.91.21Z" fill="#c2384a"/><path d="M170.94,177.54h-.88V177a1.68,1.68,0,0,1-1.34.62,1.81,1.81,0,0,1-1.75-2.15,2.31,2.31,0,0,1,2.2-2.13,1.51,1.51,0,0,1,1.17.51l.23-2.29h1Zm-.68-2.83a1.18,1.18,0,0,0-1-.52A1.36,1.36,0,0,0,168,175.5a1.07,1.07,0,0,0,1,1.29,1.34,1.34,0,0,0,1.12-.64Z" fill="#c2384a"/><path d="M174.6,177.54v-.38a1.56,1.56,0,0,1-1.21.47c-.76,0-1.43-.42-1.34-1.28.1-1,1.07-1.33,1.94-1.33a3.87,3.87,0,0,1,.77.08V175c.05-.56-.16-.89-.79-.89a3,3,0,0,0-1.3.36l-.19-.73a4.27,4.27,0,0,1,1.74-.4c1.16,0,1.6.65,1.49,1.71l-.25,2.48Zm.08-1.82a2.94,2.94,0,0,0-.62-.07c-.45,0-1,.14-1.07.67s.27.6.64.6a1.56,1.56,0,0,0,1-.41Z" fill="#c2384a"/><path d="M177.94,174.25l-.17,1.7c0,.12,0,.21,0,.34,0,.32.1.5.4.5a1,1,0,0,0,.47-.11l.21.73a2,2,0,0,1-.92.22,1,1,0,0,1-1.09-.78,2.12,2.12,0,0,1,0-.76l.18-1.84h-.51l.08-.81h.51l.2-.94h.87l-.1.94h1.09l-.08.81Z" fill="#c2384a"/><path d="M182,177.54v-.38a1.56,1.56,0,0,1-1.21.47c-.77,0-1.44-.42-1.35-1.28.1-1,1.08-1.33,1.94-1.33a3.87,3.87,0,0,1,.77.08V175c0-.56-.16-.89-.79-.89a3,3,0,0,0-1.3.36l-.19-.73a4.3,4.3,0,0,1,1.74-.4c1.17,0,1.6.65,1.5,1.71l-.25,2.48Zm.07-1.82a2.94,2.94,0,0,0-.62-.07c-.45,0-1,.14-1.07.67s.27.6.64.6a1.61,1.61,0,0,0,1-.41Z" fill="#c2384a"/><path d="M183.84,177.54l.11-1.08H185l-.11,1.08Z" fill="#c2384a"/></g></g></svg>