<svg id="Layer_1" data-name="Layer 1" xmlns="http://www.w3.org/2000/svg" xmlns:xlink="http://www.w3.org/1999/xlink" viewBox="0 0 80.39 80.39"><defs><style>.cls-1{fill:none;}.cls-2{clip-path:url(#clip-path);}.cls-3{fill:#fff;}.cls-4{fill:#ab2e2b;}.cls-5{fill:#c2384a;}.cls-6{fill:#fff0f0;}.cls-7{fill:#eb94a6;}</style><clipPath id="clip-path"><rect class="cls-1" width="80.39" height="80.39"/></clipPath></defs><g class="cls-2"><path class="cls-3" d="M40.19,80.39A40.2,40.2,0,1,0,0,40.19a40.2,40.2,0,0,0,40.19,40.2"/></g><polygon class="cls-4" points="31.97 68.69 46.78 68.69 39.38 54.91 31.97 68.69"/><rect class="cls-5" x="5.13" y="15.78" width="68.49" height="43.64"/><rect class="cls-6" x="9.62" y="20.29" width="59.51" height="34.62"/><g class="cls-2"><path class="cls-7" d="M77.54,33.9V66.83a1.87,1.87,0,0,1-1.87,1.86h-22a1.86,1.86,0,0,1-1.86-1.86V33.9A1.87,1.87,0,0,1,53.67,32h22a1.87,1.87,0,0,1,1.87,1.87"/></g><rect class="cls-6" x="53.39" y="34.73" width="22.58" height="29.48"/><g class="cls-2"><path class="cls-5" d="M65.63,66.55a1,1,0,1,0-1,1,1,1,0,0,0,1-1"/></g></svg>