<svg id="Layer_1" data-name="Layer 1" xmlns="http://www.w3.org/2000/svg" xmlns:xlink="http://www.w3.org/1999/xlink" viewBox="0 0 77.67 77.67"><defs><style>.cls-1{fill:none;}.cls-2{clip-path:url(#clip-path);}.cls-3{fill:#fff;}.cls-4{clip-path:url(#clip-path-2);}.cls-5{fill:#fcdede;}.cls-6{fill:#ea94a7;}.cls-7{fill:#c2404e;}</style><clipPath id="clip-path"><rect class="cls-1" width="77.67" height="77.67"/></clipPath><clipPath id="clip-path-2"><path class="cls-1" d="M38.84,0A38.84,38.84,0,1,0,77.67,38.83,38.84,38.84,0,0,0,38.84,0Z"/></clipPath></defs><g class="cls-2"><path class="cls-3" d="M38.51,77.67A38.52,38.52,0,1,0,0,39.15,38.52,38.52,0,0,0,38.51,77.67"/></g><g class="cls-4"><rect class="cls-5" x="12.05" y="31.23" width="52.72" height="29.75"/><path class="cls-5" d="M51.74,26.13a1.34,1.34,0,0,1-1.35-1.34V11.4H26.27V24.79a1.35,1.35,0,0,1-2.7,0V10.05A1.34,1.34,0,0,1,24.92,8.7H51.74a1.35,1.35,0,0,1,1.35,1.35V24.79a1.35,1.35,0,0,1-1.35,1.34"/><rect class="cls-6" x="8.5" y="19.51" width="59.5" height="25.01"/><rect class="cls-7" x="23.14" y="41.85" width="3.57" height="6.79"/><rect class="cls-7" x="49.95" y="41.85" width="3.57" height="6.79"/></g></svg>