<svg id="Layer_1" data-name="Layer 1" xmlns="http://www.w3.org/2000/svg" xmlns:xlink="http://www.w3.org/1999/xlink" viewBox="0 0 77.67 78.05"><defs><style>.cls-1{fill:none;}.cls-2{clip-path:url(#clip-path);}.cls-3{fill:#fff;}.cls-4{clip-path:url(#clip-path-2);}.cls-5{fill:#fcdede;}.cls-6{fill:#ea94a7;}</style><clipPath id="clip-path"><rect class="cls-1" width="77.67" height="78.05"/></clipPath><clipPath id="clip-path-2"><path class="cls-1" d="M0,39.21A38.84,38.84,0,1,0,38.83.38,38.84,38.84,0,0,0,0,39.21"/></clipPath></defs><g class="cls-2"><path class="cls-3" d="M39.06,77A38.52,38.52,0,1,0,.54,38.51,38.52,38.52,0,0,0,39.06,77"/></g><g class="cls-4"><path class="cls-5" d="M66.81,37.24c-1.68-1.55-4.71-4-6.56-5.35l-8.35-6A5.3,5.3,0,0,0,49,25.07a5.11,5.11,0,0,0-2.51.61l-3,1.82a6.37,6.37,0,0,1-3.26.88A6.51,6.51,0,0,1,35,25.83l-.66-.89h0a5.83,5.83,0,0,1,1.33-8.27l5-3.55-1.32-.66a7.77,7.77,0,0,0-3.26-.63,8,8,0,0,0-3.06.54l-5,2.11a12,12,0,0,1-4.64.83,12.08,12.08,0,0,1-4.65-.83l-4.94-2.11a3.88,3.88,0,0,0-1.54-.29,5.26,5.26,0,0,0-2,.39,4.08,4.08,0,0,0-1.5,1l-9,10.1a2.66,2.66,0,0,0-.67,1.74,2.62,2.62,0,0,0,.93,2l8.54,7.29,1.93-2A6,6,0,0,1,19,32.4l.81.77h0a5.93,5.93,0,0,1,1.83,4.12c.17,0,.34,0,.51,0a6,6,0,0,1,4.13,1.64l.81.78A5.92,5.92,0,0,1,28.92,44a6.1,6.1,0,0,1-.35,2,6,6,0,0,1,3,1.53l.81.77s1.85,2.75,1.85,4.31c0,0,0,.06,0,.09s.23,0,.34,0a6,6,0,0,1,4.13,1.64l.81.77a5.87,5.87,0,0,1,1.18,7l5,4.6a2.73,2.73,0,0,0,3.84-.14l.76-.82A2.68,2.68,0,0,0,51,63.82,2.64,2.64,0,0,0,50.2,62l-5.7-5.27,0,0h0l2.21-2.38h0L58.06,64.77a2.73,2.73,0,0,0,3.84-.14l.77-.82A2.71,2.71,0,0,0,62.56,60L51.15,49.48l2.22-2.38L66.22,59a2.73,2.73,0,0,0,3.84-.14l.76-.82a2.7,2.7,0,0,0-.14-3.83L56.93,41.45l2.22-2.38L72,51a2.73,2.73,0,0,0,3.84-.14l.77-.82a2.72,2.72,0,0,0-.14-3.83Z"/><path class="cls-6" d="M25.65,44a2.68,2.68,0,0,0-.84-2L24,41.23a2.67,2.67,0,0,0-1.87-.74,2.7,2.7,0,0,0-1.89.76c-.09.11-11,11.45-11,11.45a2.65,2.65,0,0,0-.74,1.86,2.69,2.69,0,0,0,.83,2h0l.82.77A2.72,2.72,0,0,0,14,57.2l10.9-11.37A2.72,2.72,0,0,0,25.65,44"/><path class="cls-6" d="M17.88,39a2.75,2.75,0,0,0,.49-1.53,5.27,5.27,0,0,0-.84-2l-.81-.77A2.73,2.73,0,0,0,14.85,34a2.69,2.69,0,0,0-2,.84L4.7,43.36a2.72,2.72,0,0,0,.1,3.83l.81.77a2.74,2.74,0,0,0,3.45.24L17.88,39"/><path class="cls-6" d="M31,52.55a2.68,2.68,0,0,0-.84-2l-.81-.77a2.72,2.72,0,0,0-3.69,0L18,57.7a2.7,2.7,0,0,0-.6,1.68,2.66,2.66,0,0,0,.84,2l.81.77A2.73,2.73,0,0,0,22.94,62l7.29-7.6A2.72,2.72,0,0,0,31,52.55"/><path class="cls-6" d="M36.44,56.59a2.67,2.67,0,0,0-1.87-.74,2.72,2.72,0,0,0-2,.83L28,61.49a2.69,2.69,0,0,0,.09,3.82l.81.77A2.73,2.73,0,0,0,32.75,66l4.6-4.8a2.67,2.67,0,0,0,.74-1.87,2.71,2.71,0,0,0-.83-2Z"/><path class="cls-6" d="M80.3,11.74a3.3,3.3,0,0,0-2.58-1.19,3,3,0,0,0-1.63.45l-7.42,4.61a9.88,9.88,0,0,1-5.14,1.33,9.56,9.56,0,0,1-4-.84l-7.26-3.52a5.48,5.48,0,0,0-2.36-.47,6.25,6.25,0,0,0-3.45.94L37.5,19.32a2.58,2.58,0,0,0-1.11,2.12A2.55,2.55,0,0,0,36.91,23h0l.66.89a3.24,3.24,0,0,0,2.59,1.24,3,3,0,0,0,1.58-.42l3-1.81A8.25,8.25,0,0,1,49,21.82a8.5,8.5,0,0,1,4.86,1.44l8.34,6A84,84,0,0,1,69,34.86l5.85,5.4L87.74,26a3.63,3.63,0,0,0,.86-2.4,3.56,3.56,0,0,0-.7-2.16Z"/></g></svg>