<svg id="Layer_1" data-name="Layer 1" xmlns="http://www.w3.org/2000/svg" xmlns:xlink="http://www.w3.org/1999/xlink" viewBox="0 0 77.03 77.03"><defs><style>.cls-1{fill:none;}.cls-2{clip-path:url(#clip-path);}.cls-3{fill:#ae2d2a;}.cls-4{fill:#fcdede;}.cls-5{fill:#fff;}.cls-6{fill:#ea94a7;}</style><clipPath id="clip-path"><rect class="cls-1" width="77.03" height="77.03"/></clipPath></defs><g class="cls-2"><path class="cls-3" d="M38.51,77A38.52,38.52,0,1,0,0,38.51,38.53,38.53,0,0,0,38.51,77"/><path class="cls-4" d="M47.41,53.65A19.24,19.24,0,0,1,53,44.78a23.76,23.76,0,0,0,8-17.91C61,13.56,50.35,2.64,37.31,3.33c-11.58.51-21,10.74-21.36,22.85a23.88,23.88,0,0,0,8,18.6,18.32,18.32,0,0,1,5.71,8.87Z"/><path class="cls-5" d="M36.33,54H37.8L31.27,28.57h.49a3.18,3.18,0,0,0,2.29-1,1.53,1.53,0,0,1,2.28,0,2.71,2.71,0,0,0,4.24,0A1.44,1.44,0,0,1,41.71,27a1.74,1.74,0,0,1,1.14.51,2.89,2.89,0,0,0,2.28,1h.49L39.26,54h1.47l6.68-26.61c0-.34,0-.68-.32-.86a.69.69,0,0,0-.82.18,1.37,1.37,0,0,1-1,.51A2.13,2.13,0,0,1,44,26.7a2.7,2.7,0,0,0-4.24,0,1.53,1.53,0,0,1-2.28,0,2.7,2.7,0,0,0-4.24,0,1.79,1.79,0,0,1-1.3.51,1.14,1.14,0,0,1-1-.51.69.69,0,0,0-.82-.18.64.64,0,0,0-.32.86Z"/><path class="cls-6" d="M33.39,69.34a5.36,5.36,0,0,0,10.11,0Z"/><path class="cls-6" d="M44.48,69.51H32.58a3,3,0,0,1-2.94-3.07v-13H47.41v13a3,3,0,0,1-2.93,3.07"/><path class="cls-4" d="M47.25,60H29.65a1.88,1.88,0,0,1,0-3.76h17.6a1.88,1.88,0,0,1,0,3.76"/><path class="cls-4" d="M47.25,65.93H29.65a1.88,1.88,0,0,1,0-3.76h17.6a1.88,1.88,0,0,1,0,3.76"/></g></svg>