<svg id="Layer_1" data-name="Layer 1" xmlns="http://www.w3.org/2000/svg" xmlns:xlink="http://www.w3.org/1999/xlink" viewBox="0 0 81.27 80.39"><defs><style>.cls-1{fill:none;}.cls-2{clip-path:url(#clip-path);}.cls-3{fill:#fff;}.cls-4{fill:#c2384a;}.cls-5{fill:#eb94a6;}.cls-6{fill:#ffdede;}</style><clipPath id="clip-path"><rect class="cls-1" x="0.89" width="80.39" height="80.39"/></clipPath></defs><g class="cls-2"><path class="cls-3" d="M41.08,80.39A40.2,40.2,0,1,0,.89,40.19a40.19,40.19,0,0,0,40.19,40.2"/><path class="cls-4" d="M32.25,45.19H15.93a11.88,11.88,0,1,1,0-23.75H32"/><path class="cls-5" d="M32,21.44h16.1a11.88,11.88,0,0,1,0,23.75H32.25"/><path class="cls-4" d="M49.08,63.56H65.4a11.88,11.88,0,0,0,0-23.75H49.3"/><path class="cls-6" d="M49.3,39.81H33.21a11.88,11.88,0,1,0,0,23.75H49.08"/></g></svg>