<svg id="Layer_1" data-name="Layer 1" xmlns="http://www.w3.org/2000/svg" xmlns:xlink="http://www.w3.org/1999/xlink" viewBox="0 0 80.39 80.39"><defs><style>.cls-1,.cls-5,.cls-7{fill:none;}.cls-2{clip-path:url(#clip-path);}.cls-3{fill:#fff;}.cls-4{fill:#c2384a;}.cls-5{stroke:#c2384a;}.cls-5,.cls-7{stroke-linecap:round;stroke-linejoin:round;stroke-width:2.88px;}.cls-6{fill:#eb94a6;}.cls-7{stroke:#eb94a6;}</style><clipPath id="clip-path"><rect class="cls-1" width="80.39" height="80.39"/></clipPath></defs><g class="cls-2"><path class="cls-3" d="M40.19,80.39A40.2,40.2,0,1,0,0,40.19a40.2,40.2,0,0,0,40.19,40.2"/></g><polygon class="cls-4" points="74.34 68.65 29.01 68.65 31.41 22.99 71.94 22.99 74.34 68.65"/><g class="cls-2"><path class="cls-5" d="M62.64,29.79S68.26,5.45,50.82,5.86M40.35,29.79S34.72,5.45,52.17,5.86"/></g><polygon class="cls-6" points="50.28 73.57 4.95 73.57 7.35 27.91 47.88 27.91 50.28 73.57"/><g class="cls-2"><path class="cls-7" d="M38.58,34.71S44.2,10.37,26.76,10.78M16.29,34.71S10.66,10.37,28.11,10.78"/></g></svg>