<svg id="Layer_1" data-name="Layer 1" xmlns="http://www.w3.org/2000/svg" xmlns:xlink="http://www.w3.org/1999/xlink" viewBox="0 0 1277.56 1423.8"><defs><style>.cls-1{fill:none;}.cls-2{clip-path:url(#clip-path);}.cls-3{fill:#c2384a;}.cls-4{fill:#fff;}.cls-5{fill:#ffdede;}</style><clipPath id="clip-path"><rect class="cls-1" width="1277.56" height="1423.8"/></clipPath></defs><g class="cls-2"><path class="cls-3" d="M691,1423.8c324,0,586.56-262.61,586.56-586.55S1015,250.69,691,250.69,104.45,513.3,104.45,837.25,367.06,1423.8,691,1423.8"/><path class="cls-4" d="M400.83,1274.86c221.38,0,400.84-179.46,400.84-400.83S622.21,473.19,400.83,473.19,0,652.65,0,874s179.46,400.83,400.83,400.83"/><path class="cls-5" d="M363.07,600.81c165.91,0,300.4-134.49,300.4-300.4S529,0,363.07,0,62.66,134.5,62.66,300.41s134.5,300.4,300.41,300.4"/></g></svg>