<svg id="Layer_1" data-name="Layer 1" xmlns="http://www.w3.org/2000/svg" xmlns:xlink="http://www.w3.org/1999/xlink" viewBox="0 0 77.03 77.03"><defs><style>.cls-1{fill:none;}.cls-2{clip-path:url(#clip-path);}.cls-3{fill:#fff;}.cls-4{clip-path:url(#clip-path-2);}.cls-5{fill:#32121a;}.cls-6{fill:#ea94a7;}.cls-7{fill:#fcdede;}</style><clipPath id="clip-path"><rect class="cls-1" width="77.03" height="77.03"/></clipPath><clipPath id="clip-path-2"><path class="cls-1" d="M38.51,0A38.52,38.52,0,1,0,77,38.51,38.51,38.51,0,0,0,38.51,0Z"/></clipPath></defs><g class="cls-2"><path class="cls-3" d="M38.51,77A38.52,38.52,0,1,0,0,38.51,38.53,38.53,0,0,0,38.51,77"/></g><g class="cls-4"><path class="cls-5" d="M52.73,33.78a1.32,1.32,0,0,1-1.32-1.32V16.55a8.58,8.58,0,1,0-17.15,0V32.46a1.33,1.33,0,0,1-2.65,0V16.55a11.22,11.22,0,0,1,22.44,0V32.46a1.32,1.32,0,0,1-1.32,1.32"/><rect class="cls-6" x="22.13" y="26.08" width="44.66" height="52.66"/><rect class="cls-7" x="10.27" y="26.08" width="44.66" height="52.66"/><path class="cls-6" d="M42.06,33.78a1.32,1.32,0,0,1-1.32-1.32V16.55a8.58,8.58,0,1,0-17.15,0V32.46a1.32,1.32,0,1,1-2.64,0V16.55a11.22,11.22,0,1,1,22.43,0V32.46a1.32,1.32,0,0,1-1.32,1.32"/></g></svg>