<svg id="Layer_1" data-name="Layer 1" xmlns="http://www.w3.org/2000/svg" xmlns:xlink="http://www.w3.org/1999/xlink" viewBox="0 0 77.43 77.43"><defs><style>.cls-1{fill:none;}.cls-2{clip-path:url(#clip-path);}.cls-3{fill:#ae2d2a;}.cls-4{clip-path:url(#clip-path-2);}.cls-5{fill:#fcdede;}.cls-6{fill:#ea94a7;}.cls-7{fill:#fef0f0;}</style><clipPath id="clip-path"><rect class="cls-1" width="77.43" height="77.43"/></clipPath><clipPath id="clip-path-2"><path class="cls-1" d="M0,38.72A38.72,38.72,0,1,0,38.72,0,38.71,38.71,0,0,0,0,38.72"/></clipPath></defs><g class="cls-2"><path class="cls-3" d="M38.51,77.24A38.52,38.52,0,1,0,0,38.72,38.52,38.52,0,0,0,38.51,77.24"/></g><g class="cls-4"><polygon class="cls-5" points="44.13 25.35 12.94 13.28 12.94 82.36 44.13 82.36 44.13 25.35"/><polygon class="cls-6" points="69.65 47.82 44.13 44.35 44.13 82.36 69.65 82.36 69.65 47.82"/><rect class="cls-7" x="23.44" y="63.36" width="10.38" height="19"/><rect class="cls-7" x="51.7" y="70.19" width="10.38" height="12.17"/><rect class="cls-6" x="16.75" y="29.13" width="23.5" height="3.06"/><rect class="cls-6" x="16.75" y="35.24" width="23.5" height="3.06"/><rect class="cls-6" x="16.75" y="41.69" width="23.5" height="3.06"/><rect class="cls-6" x="16.75" y="47.8" width="23.5" height="3.06"/><rect class="cls-6" x="16.75" y="54" width="23.5" height="3.06"/><rect class="cls-5" x="48.66" y="51.77" width="16.46" height="3.06"/><rect class="cls-5" x="48.66" y="57.88" width="16.46" height="3.06"/><rect class="cls-5" x="48.66" y="64.07" width="16.46" height="3.06"/></g></svg>