<svg id="Layer_1" data-name="Layer 1" xmlns="http://www.w3.org/2000/svg" xmlns:xlink="http://www.w3.org/1999/xlink" viewBox="0 0 80.39 83.79"><defs><style>.cls-1,.cls-4{fill:none;}.cls-2{clip-path:url(#clip-path);}.cls-3{fill:#fff;}.cls-4{stroke:#c2384a;stroke-linecap:round;stroke-linejoin:round;stroke-width:2.93px;}.cls-5{fill:#eb94a6;}</style><clipPath id="clip-path"><rect class="cls-1" width="80.39" height="83.79"/></clipPath></defs><g class="cls-2"><path class="cls-3" d="M40.19,83.79A40.2,40.2,0,1,0,0,43.6,40.19,40.19,0,0,0,40.19,83.79"/><path class="cls-4" d="M39.79,12.45a5.21,5.21,0,0,1,.8-4c.73-1,1.46-1,2-2a3.54,3.54,0,0,0-.42-3.85A3.7,3.7,0,0,0,38,1.73a3.8,3.8,0,0,0-2.15,2.35M18.73,20.63H60.84L39.79,12.45Z"/><path class="cls-5" d="M64.5,18.78a9.43,9.43,0,0,0-8.07-4.56H49.07a4.48,4.48,0,0,1,0,.64c0,3.47-4.25,6.28-9.49,6.28s-9.49-2.81-9.49-6.28a4.48,4.48,0,0,1,.05-.64H23.71a9.06,9.06,0,0,0-7.63,4.17L6,34l12.56,4.81.18-.2V72.31h43v-34l12.14-3.94Z"/></g></svg>