<svg id="Layer_1" data-name="Layer 1" xmlns="http://www.w3.org/2000/svg" xmlns:xlink="http://www.w3.org/1999/xlink" viewBox="0 0 80.39 80.39"><defs><style>.cls-1{fill:none;}.cls-2{clip-path:url(#clip-path);}.cls-3{fill:#fff;}.cls-4{fill:#ab2e2b;}.cls-5{fill:#c2384a;}.cls-6{fill:#eb94a6;}</style><clipPath id="clip-path"><rect class="cls-1" width="80.39" height="80.39"/></clipPath></defs><g class="cls-2"><path class="cls-3" d="M40.19,80.39A40.2,40.2,0,1,0,0,40.19a40.2,40.2,0,0,0,40.19,40.2"/></g><polygon class="cls-4" points="67.54 64.31 13.93 64.31 5.11 29.27 76 29.27 67.54 64.31"/><g class="cls-2"><path class="cls-5" d="M76.39,29.27H4.73a3,3,0,0,1,0-6H76.39a3,3,0,0,1,0,6"/><path class="cls-6" d="M41.8,11.22,15.54,37.48a3,3,0,0,1-4.24-4.24L37.56,7a3,3,0,0,1,4.24,4.24"/><path class="cls-6" d="M39,11.22,65.25,37.48a3,3,0,1,0,4.24-4.24L43.23,7A3,3,0,0,0,39,11.22"/></g></svg>