<svg id="Layer_1" data-name="Layer 1" xmlns="http://www.w3.org/2000/svg" xmlns:xlink="http://www.w3.org/1999/xlink" viewBox="0 0 80.39 75.33"><defs><style>.cls-1{fill:none;}.cls-2{clip-path:url(#clip-path);}.cls-3{fill:#fff;}.cls-4{fill:#eb94a6;}.cls-5{fill:#c2384a;}</style><clipPath id="clip-path"><rect class="cls-1" x="0.8" y="0.46" width="77.58" height="74.87"/></clipPath></defs><g class="cls-2"><path class="cls-3" d="M41,75.33A37.44,37.44,0,1,0,3.52,37.89,37.44,37.44,0,0,0,41,75.33"/><path class="cls-4" d="M62.28,55.94h-32a6.17,6.17,0,0,1,0-12.33h2.27a1.72,1.72,0,0,1,0,3.43H30.31a2.74,2.74,0,1,0,0,5.47h32a1.72,1.72,0,1,1,0,3.43"/></g><polygon class="cls-5" points="62.7 47.15 21.88 47.15 15.17 20.47 69.15 20.47 62.7 47.15"/><g class="cls-2"><path class="cls-5" d="M36.24,59.64a4.63,4.63,0,1,0-4.63,4.62,4.62,4.62,0,0,0,4.63-4.62"/><path class="cls-5" d="M62.28,59.64a4.62,4.62,0,1,0-4.62,4.62,4.62,4.62,0,0,0,4.62-4.62"/><path class="cls-5" d="M21.88,47.15a1.73,1.73,0,0,1-1.66-1.28L11,10.39a1.72,1.72,0,0,1,3.32-.87L23.54,45a1.72,1.72,0,0,1-1.22,2.09,1.7,1.7,0,0,1-.44,0"/><path class="cls-4" d="M12.61,11.67a1.69,1.69,0,0,1-.53-.09L2,8.31A1.71,1.71,0,0,1,3.05,5.05L13.14,8.32a1.72,1.72,0,0,1-.53,3.35"/></g></svg>