<svg id="Layer_1" data-name="Layer 1" xmlns="http://www.w3.org/2000/svg" xmlns:xlink="http://www.w3.org/1999/xlink" viewBox="0 0 77.03 77.03"><defs><style>.cls-1{fill:none;}.cls-2{clip-path:url(#clip-path);}.cls-3{fill:#ae2d2a;}.cls-4{fill:#fcdede;}.cls-5{fill:#ea94a7;}</style><clipPath id="clip-path"><rect class="cls-1" width="77.03" height="77.03"/></clipPath></defs><g class="cls-2"><path class="cls-3" d="M38.51,77A38.52,38.52,0,1,0,0,38.51,38.53,38.53,0,0,0,38.51,77"/><path class="cls-4" d="M61.05,60H34.19a5.18,5.18,0,1,1,0-10.35H36.1a1.44,1.44,0,0,1,0,2.88H34.19a2.3,2.3,0,1,0,0,4.59H61.05a1.44,1.44,0,1,1,0,2.88"/></g><polygon class="cls-5" points="61.41 52.57 27.11 52.57 21.47 30.15 66.82 30.15 61.41 52.57"/><g class="cls-2"><path class="cls-5" d="M39.17,63.06A3.89,3.89,0,1,0,35.29,67a3.88,3.88,0,0,0,3.88-3.89"/><path class="cls-5" d="M61.05,63.06A3.89,3.89,0,1,0,57.17,67a3.88,3.88,0,0,0,3.88-3.89"/><path class="cls-5" d="M27.11,52.57a1.44,1.44,0,0,1-1.39-1.07L17.93,21.68a1.43,1.43,0,0,1,1-1.75,1.45,1.45,0,0,1,1.76,1L28.5,50.77a1.44,1.44,0,0,1-1,1.76,1.61,1.61,0,0,1-.37,0"/><path class="cls-4" d="M19.32,22a1.39,1.39,0,0,1-.44-.07L10.4,19.17a1.44,1.44,0,0,1-.93-1.81,1.45,1.45,0,0,1,1.82-.93l8.48,2.75A1.44,1.44,0,0,1,19.32,22"/></g></svg>