<svg id="Layer_1" data-name="Layer 1" xmlns="http://www.w3.org/2000/svg" xmlns:xlink="http://www.w3.org/1999/xlink" viewBox="0 0 80.39 80.39"><defs><style>.cls-1{fill:none;}.cls-2{clip-path:url(#clip-path);}.cls-3{fill:#fff;}.cls-4{fill:#c2384a;}.cls-5{fill:#eb94a6;}.cls-6{fill:#ffdede;}.cls-7{fill:#fcdede;}.cls-8{fill:#ab2e2b;}</style><clipPath id="clip-path"><rect class="cls-1" width="80.39" height="80.39"/></clipPath></defs><g class="cls-2"><path class="cls-3" d="M40.19,80.39A40.2,40.2,0,1,0,0,40.19a40.2,40.2,0,0,0,40.19,40.2"/></g><rect class="cls-4" x="12.31" y="20.18" width="3.91" height="44.94"/><rect class="cls-4" x="65.07" y="20.18" width="3.91" height="44.94"/><rect class="cls-4" x="16.22" y="24.09" width="48.85" height="3.91"/><g class="cls-2"><path class="cls-5" d="M26,54.37H23.08l-1.46-2.44,1.46-2.44H26l1.46,2.44Zm1.92-7.79V23.46a7.85,7.85,0,0,1,.9-3.71c.92-1.72,2-2.9,2-4.95a6.35,6.35,0,0,0-6.44-6.35,6.15,6.15,0,0,0-2.24.47l3.1,3.1a1,1,0,0,1,0,1.39l-2.07,2.07a1,1,0,0,1-1.38,0L18.7,12.34a6.13,6.13,0,0,0-.52,2.8A8.46,8.46,0,0,0,19.76,19a8.24,8.24,0,0,1,1.34,4.39V46.58a6.36,6.36,0,1,0,6.84,0"/></g><rect class="cls-6" x="23.48" y="22.13" width="1.95" height="24.42"/><polygon class="cls-5" points="38.69 31.9 34.78 31.9 34.78 15.29 33.8 12.36 34.78 8.45 38.69 8.45 39.66 12.36 38.69 15.29 38.69 31.9"/><g class="cls-2"><path class="cls-7" d="M31.85,31.9v3.91H33.8l-1.95,3.91V57.3a4.89,4.89,0,1,0,9.77,0V39.72l-2-3.91h2V31.9Z"/></g><rect class="cls-4" x="16.22" y="39.72" width="48.85" height="25.4"/><rect class="cls-5" x="45.53" y="8.45" width="7.82" height="31.26"/><rect class="cls-6" x="45.53" y="11.38" width="3.91" height="1.95"/><rect class="cls-6" x="45.53" y="15.29" width="3.91" height="1.95"/><rect class="cls-6" x="45.53" y="19.2" width="3.91" height="1.95"/><rect class="cls-6" x="45.53" y="23.11" width="3.91" height="1.95"/><rect class="cls-6" x="45.53" y="27.02" width="3.91" height="1.95"/><rect class="cls-6" x="45.53" y="30.92" width="3.91" height="1.95"/><rect class="cls-6" x="45.53" y="34.83" width="3.91" height="1.95"/><polygon class="cls-7" points="59.2 13.34 58.03 16.27 60.38 16.27 59.2 13.34"/><polygon class="cls-5" points="58.03 16.27 57.25 18.22 57.25 39.72 61.16 39.72 61.16 18.22 60.38 16.27 58.03 16.27"/><rect class="cls-8" x="16.22" y="39.72" width="1.95" height="25.4"/><rect class="cls-8" x="63.11" y="39.72" width="1.95" height="25.4"/><rect class="cls-8" x="16.22" y="24.09" width="1.95" height="3.91"/><rect class="cls-8" x="63.11" y="24.09" width="1.95" height="3.91"/></svg>