<?xml version="1.0" encoding="utf-8"?>
<!-- Generator: Adobe Illustrator 25.2.1, SVG Export Plug-In . SVG Version: 6.00 Build 0)  -->
<svg version="1.1" id="Layer_1" xmlns="http://www.w3.org/2000/svg" xmlns:xlink="http://www.w3.org/1999/xlink" x="0px" y="0px"
	 viewBox="0 0 730.8 301.8" style="enable-background:new 0 0 730.8 301.8;" xml:space="preserve">
<style type="text/css">
	.st0{fill:#EEE9D8;}
	.st1{clip-path:url(#SVGID_2_);}
	.st2{fill:#FEF0F0;}
	.st3{enable-background:new    ;}
	.st4{fill:#165726;}
	.st5{clip-path:url(#SVGID_4_);}
	.st6{fill:#17701F;}
	.st7{fill:#175726;}
	.st8{fill:#7D4F2E;}
</style>
<g>
	<rect x="143.2" y="118.9" class="st0" width="481.5" height="102.4"/>
</g>
<g>
	<defs>
		<rect id="SVGID_1_" width="730.8" height="301.8"/>
	</defs>
	<clipPath id="SVGID_2_">
		<use xlink:href="#SVGID_1_"  style="overflow:visible;"/>
	</clipPath>
	<g class="st1">
		<g>
			<path class="st2" d="M579.9,301.8c83.3,0,150.9-67.5,150.9-150.9S663.3,0,580,0S429.1,67.5,429.1,150.9c0,0,0,0,0,0
				C429.1,234.2,496.6,301.7,579.9,301.8"/>
		</g>
	</g>
</g>
<g class="st3">
	<path class="st4" d="M199.2,164.6h-18.7v-4.2c3.3-3.4,7.2-7.9,9.8-11.7c1.1-1.5,2.3-3.6,2.3-5.4c0-2.1-1.8-3.4-3.8-3.4
		c-2.2,0-3.7,1.6-3.8,4.2l-5.2-0.9c0.4-4.7,4.6-7.8,9.2-7.8c4.6,0,9,2.9,9,7.8c0,2.8-1.3,5.6-3,8c-2.2,3.1-4.9,6.1-7.5,8.9h11.7
		V164.6z"/>
</g>
<g class="st3">
	<path class="st4" d="M223.2,150.3c0,9.2-3.7,14.8-10.4,14.8c-6.7,0-10.4-5.6-10.4-14.8c0-9.2,3.7-14.8,10.4-14.8
		C219.4,135.5,223.2,141.1,223.2,150.3z M207.6,150.3c0,6.8,1.8,10.2,5.1,10.2c3.3,0,5.1-3.4,5.1-10.2c0-6.9-1.8-10.2-5.1-10.2
		C209.5,140.1,207.6,143.5,207.6,150.3z"/>
</g>
<g class="st3">
	<path class="st4" d="M244.5,141.4c0,4.1-3.3,7.1-7.3,7.1c-4,0-7.3-3.1-7.3-7.1s3.3-7.1,7.3-7.1
		C241.3,134.3,244.5,137.3,244.5,141.4z M258.2,135.9l-21.4,29.4l-2.8-2l21.4-29.4L258.2,135.9z M234.1,141.4c0,1.9,1.3,3.4,3.1,3.4
		c1.8,0,3.1-1.4,3.1-3.4c0-1.9-1.3-3.4-3.1-3.4C235.5,138,234.1,139.5,234.1,141.4z M262.2,157.7c0,4.1-3.3,7.1-7.3,7.1
		c-4,0-7.3-3.1-7.3-7.1s3.3-7.1,7.3-7.1C258.9,150.6,262.2,153.7,262.2,157.7z M251.8,157.7c0,1.9,1.3,3.4,3.1,3.4
		c1.8,0,3.1-1.4,3.1-3.4s-1.3-3.4-3.1-3.4C253.1,154.4,251.8,155.8,251.8,157.7z"/>
</g>
<g class="st3">
	<path class="st4" d="M330.1,164.6v-22.4c-1.3,0.6-3,1.3-4.2,1.8v-4.8c1.8-0.9,4-2.1,6-3.2h3.4v28.6H330.1z"/>
</g>
<g class="st3">
	<path class="st4" d="M361.4,150.3c0,9.2-3.7,14.8-10.4,14.8c-6.7,0-10.4-5.6-10.4-14.8c0-9.2,3.7-14.8,10.4-14.8
		C357.6,135.5,361.4,141.1,361.4,150.3z M345.9,150.3c0,6.8,1.8,10.2,5.1,10.2c3.3,0,5.1-3.4,5.1-10.2c0-6.9-1.8-10.2-5.1-10.2
		C347.7,140.1,345.9,143.5,345.9,150.3z"/>
</g>
<g class="st3">
	<path class="st4" d="M382.7,141.4c0,4.1-3.3,7.1-7.3,7.1c-4,0-7.3-3.1-7.3-7.1s3.3-7.1,7.3-7.1
		C379.5,134.3,382.7,137.3,382.7,141.4z M396.4,135.9L375,165.3l-2.8-2l21.4-29.4L396.4,135.9z M372.3,141.4c0,1.9,1.3,3.4,3.1,3.4
		c1.8,0,3.1-1.4,3.1-3.4c0-1.9-1.3-3.4-3.1-3.4C373.7,138,372.3,139.5,372.3,141.4z M400.4,157.7c0,4.1-3.3,7.1-7.3,7.1
		c-4,0-7.3-3.1-7.3-7.1s3.3-7.1,7.3-7.1C397.1,150.6,400.4,153.7,400.4,157.7z M390,157.7c0,1.9,1.3,3.4,3.1,3.4
		c1.8,0,3.1-1.4,3.1-3.4s-1.3-3.4-3.1-3.4C391.3,154.4,390,155.8,390,157.7z"/>
</g>
<g class="st3">
	<path class="st4" d="M184.6,184.5v-1.1h3.6v3.5c-0.9,1.1-2.2,1.7-3.7,1.7c-2.8,0-4.9-1.9-4.9-4.7c0-2.7,2.2-4.7,4.9-4.7
		c1.4,0,2.7,0.6,3.5,1.6l-0.9,0.7c-0.6-0.7-1.6-1.2-2.6-1.2c-2.1,0-3.6,1.5-3.6,3.6c0,2.2,1.5,3.6,3.6,3.6c1,0,1.8-0.3,2.5-0.9v-2
		H184.6z"/>
	<path class="st4" d="M196.5,188.5v-4.1h-4.8v4.1h-1.2v-9.1h1.2v3.8h4.8v-3.8h1.2v9.1H196.5z"/>
	<path class="st4" d="M204.8,184.5v-1.1h3.6v3.5c-0.9,1.1-2.2,1.7-3.7,1.7c-2.8,0-4.9-1.9-4.9-4.7c0-2.7,2.2-4.7,4.9-4.7
		c1.4,0,2.7,0.6,3.5,1.6l-0.9,0.7c-0.6-0.7-1.6-1.2-2.6-1.2c-2.1,0-3.6,1.5-3.6,3.6c0,2.2,1.5,3.6,3.6,3.6c1,0,1.8-0.3,2.5-0.9v-2
		H204.8z"/>
	<path class="st4" d="M213.8,180.7v-1.3h1.2v1.3H213.8z M213.8,188.5V182h1.2v6.5H213.8z"/>
	<path class="st4" d="M218.3,182v1.1c0.5-0.8,1.2-1.2,2.1-1.2c0.9,0,1.5,0.3,1.9,0.8c0.4,0.6,0.6,1.5,0.6,2.5v3.4h-1.2v-3.2
		c0-0.6,0-1.3-0.3-1.8c-0.2-0.3-0.6-0.5-1.1-0.5c-0.8,0-1.5,0.5-1.9,1.2v4.3h-1.2V182H218.3z"/>
	<path class="st4" d="M226.3,183v2.9c0,0.2,0,0.3,0,0.5c0,0.7,0.3,1.1,0.9,1.1c0.3,0,0.5-0.1,0.7-0.2l0.3,0.9
		c-0.3,0.2-0.8,0.3-1.2,0.3c-0.9,0-1.5-0.4-1.7-1c-0.2-0.4-0.2-0.8-0.2-1.4V183h-0.9v-1h0.9v-1.6h1.2v1.6h1.8v1H226.3z"/>
	<path class="st4" d="M230.1,185.5c0.1,1.1,0.8,2.1,2.1,2.1c0.9,0,1.5-0.3,1.9-1.1l0.9,0.5c-0.6,1-1.5,1.5-2.8,1.5
		c-2.1,0-3.2-1.5-3.2-3.4c0-1.9,1.4-3.4,3.2-3.4c1.7,0,3,1.3,3,3c0,0.2,0,0.5-0.1,0.7H230.1z M230.2,184.6h3.7
		c-0.1-0.9-0.8-1.7-1.7-1.7C231.1,182.8,230.5,183.6,230.2,184.6z"/>
	<path class="st4" d="M238,182v1.1c0.5-0.8,1.2-1.2,2.1-1.2c0.9,0,1.5,0.3,1.9,0.8c0.4,0.6,0.6,1.5,0.6,2.5v3.4h-1.2v-3.2
		c0-0.6,0-1.3-0.3-1.8c-0.2-0.3-0.6-0.5-1.1-0.5c-0.8,0-1.5,0.5-1.9,1.2v4.3h-1.2V182H238z"/>
	<path class="st4" d="M247.8,183.3c-0.3-0.3-0.8-0.5-1.3-0.5c-0.6,0-1,0.4-1,0.9c0,0.5,0.6,0.7,1.2,1c0.8,0.3,1.9,0.8,1.9,1.9
		c0,1.5-1.1,2-2.4,2c-0.9,0-1.7-0.4-2.2-1l0.8-0.7c0.4,0.5,0.9,0.7,1.4,0.7c0.6,0,1.2-0.3,1.2-1c0-0.5-0.6-0.7-1.2-1
		c-0.9-0.3-1.9-0.7-1.9-1.9c0-1.3,1-1.9,2.1-1.9c0.7,0,1.5,0.2,2,0.7L247.8,183.3z"/>
	<path class="st4" d="M250.5,180.7v-1.3h1.2v1.3H250.5z M250.5,188.5V182h1.2v6.5H250.5z"/>
</g>
<g class="st3">
	<path class="st4" d="M255.1,183v2.9c0,0.2,0,0.3,0,0.5c0,0.7,0.3,1.1,0.9,1.1c0.3,0,0.5-0.1,0.7-0.2l0.3,0.9
		c-0.3,0.2-0.8,0.3-1.2,0.3c-0.9,0-1.5-0.4-1.7-1c-0.2-0.4-0.2-0.8-0.2-1.4V183h-0.9v-1h0.9v-1.6h1.2v1.6h1.8v1H255.1z"/>
</g>
<g class="st3">
	<path class="st4" d="M258.9,182l1.7,4.9h0l1.7-4.9h1.3l-3.7,9.4l-1-0.4l1-2.7l-2.4-6.3H258.9z"/>
</g>
<g class="st3">
	<path class="st4" d="M170.2,198c0.4-0.7,1-1.2,1.7-1.2c0.3,0,0.5,0,0.7,0.1l-0.2,1.3c-0.2-0.1-0.4-0.1-0.6-0.1
		c-0.7,0-1.1,0.4-1.5,1.1v4.4H169V197h1.2V198z"/>
	<path class="st4" d="M174.3,200.5c0.1,1.1,0.8,2.1,2.1,2.1c0.9,0,1.5-0.3,1.9-1.1l0.9,0.5c-0.6,1-1.5,1.5-2.8,1.5
		c-2.1,0-3.2-1.5-3.2-3.4c0-1.9,1.4-3.4,3.2-3.4c1.7,0,3,1.3,3,3c0,0.2,0,0.5-0.1,0.7H174.3z M174.4,199.6h3.7
		c-0.1-0.9-0.8-1.7-1.7-1.7C175.3,197.8,174.6,198.6,174.4,199.6z"/>
	<path class="st4" d="M180.4,200.2c0-1.7,1.3-3.4,3.3-3.4c0.8,0,1.5,0.3,2,0.9v-4h1.2v9.8h-1.2v-0.9c-0.5,0.7-1.3,1-2.1,1
		C181.8,203.6,180.4,202.1,180.4,200.2z M185.7,201.3v-2.4c-0.5-0.6-1.2-1-1.9-1c-1.5,0-2.2,1.2-2.2,2.3c0,1.2,0.8,2.3,2.2,2.3
		C184.5,202.5,185.4,202.1,185.7,201.3z"/>
	<path class="st4" d="M193.6,202.4c-0.5,0.8-1.2,1.2-2.1,1.2c-0.9,0-1.5-0.3-1.9-0.8c-0.4-0.6-0.6-1.5-0.6-2.5V197h1.2v3.2
		c0,0.6,0,1.3,0.3,1.8c0.2,0.3,0.6,0.5,1.1,0.5c0.8,0,1.5-0.5,1.9-1.2V197h1.2v6.5h-1.2V202.4z"/>
</g>
<g class="st3">
	<path class="st4" d="M201.8,203c-0.5,0.4-1.2,0.6-2,0.6c-1.9,0-3.3-1.4-3.3-3.4c0-1.9,1.5-3.4,3.4-3.4c0.7,0,1.3,0.2,1.8,0.6
		l-0.6,1c-0.4-0.3-0.9-0.4-1.3-0.4c-1.2,0-2.1,1-2.1,2.3c0,1.4,1,2.3,2.1,2.3c0.4,0,1-0.2,1.4-0.5L201.8,203z"/>
</g>
<g class="st3">
	<path class="st4" d="M204.6,198v2.9c0,0.2,0,0.3,0,0.5c0,0.7,0.3,1.1,0.9,1.1c0.3,0,0.5-0.1,0.7-0.2l0.3,0.9
		c-0.3,0.2-0.8,0.3-1.2,0.3c-0.9,0-1.5-0.4-1.7-1c-0.2-0.4-0.2-0.8-0.2-1.4V198h-0.9v-1h0.9v-1.6h1.2v1.6h1.8v1H204.6z"/>
	<path class="st4" d="M207.8,195.7v-1.3h1.2v1.3H207.8z M207.8,203.5V197h1.2v6.5H207.8z"/>
	<path class="st4" d="M217.3,200.2c0,1.9-1.4,3.4-3.3,3.4c-1.9,0-3.3-1.5-3.3-3.4s1.4-3.4,3.3-3.4
		C215.9,196.8,217.3,198.3,217.3,200.2z M214,197.9c-1.2,0-2.1,1.1-2.1,2.3s0.9,2.3,2.1,2.3c1.2,0,2.1-1.1,2.1-2.3
		S215.2,197.9,214,197.9z"/>
	<path class="st4" d="M220.1,197v1.1c0.5-0.8,1.2-1.2,2.1-1.2c0.9,0,1.5,0.3,1.9,0.8c0.4,0.6,0.6,1.5,0.6,2.5v3.4h-1.2v-3.2
		c0-0.6,0-1.3-0.3-1.8c-0.2-0.3-0.6-0.5-1.1-0.5c-0.8,0-1.5,0.5-1.9,1.2v4.3h-1.2V197H220.1z"/>
	<path class="st4" d="M231.2,193.7v4.1c0.5-0.7,1.3-1,2.1-1c1.9,0,3.2,1.5,3.2,3.4c0,1.7-1.3,3.4-3.3,3.4c-0.8,0-1.5-0.3-2-0.9v0.7
		h-1.2v-9.8H231.2z M231.2,201.5c0.4,0.6,1.2,1,1.9,1c1.5,0,2.2-1.2,2.2-2.3c0-1.2-0.8-2.3-2.2-2.3c-0.7,0-1.6,0.4-1.9,1.2V201.5z"
		/>
	<path class="st4" d="M238.5,197l1.7,4.9h0l1.7-4.9h1.3l-3.7,9.4l-1-0.4l1-2.7l-2.4-6.3H238.5z"/>
</g>
<g class="st3">
	<path class="st4" d="M247.3,203.5v-1.1c1-1.1,2.2-2.4,3-3.6c0.4-0.5,0.8-1.2,0.8-1.8c0-0.8-0.7-1.2-1.4-1.2c-0.7,0-1.4,0.5-1.4,1.3
		l-1.2-0.2c0.1-1.3,1.4-2.2,2.6-2.2c1.4,0,2.6,0.9,2.6,2.3c0,0.8-0.4,1.7-0.9,2.4c-0.7,1.1-1.6,2.1-2.5,3h3.8v1.1H247.3z"/>
</g>
<g class="st3">
	<path class="st4" d="M259.9,199.2c0,2.8-1.1,4.5-3.1,4.5s-3.1-1.7-3.1-4.5c0-2.8,1.1-4.5,3.1-4.5S259.9,196.4,259.9,199.2z
		 M255.1,199.2c0,2.2,0.7,3.4,1.8,3.4s1.8-1.1,1.8-3.4s-0.7-3.4-1.8-3.4S255.1,196.9,255.1,199.2z"/>
</g>
<g class="st3">
	<path class="st4" d="M262.4,198.4c0.5,0,0.9,0,1.2-0.1c0.7-0.2,1.2-0.7,1.2-1.3c0-0.7-0.6-1.2-1.4-1.2c-0.6,0-1.2,0.3-1.4,0.9
		l-1-0.4c0.3-0.9,1.3-1.6,2.5-1.6c1.6,0,2.7,0.9,2.7,2.3c0,0.8-0.4,1.5-1.1,1.8c0.9,0.3,1.5,1.1,1.5,2.1c0,1.7-1.3,2.7-2.9,2.7
		c-1.1,0-2.2-0.5-2.7-1.4l1-0.5c0.4,0.6,1,0.9,1.7,0.9c0.9,0,1.7-0.5,1.7-1.5c0-0.9-0.8-1.5-1.8-1.5c-0.3,0-0.6,0-1,0.1V198.4z"/>
</g>
<g class="st3">
	<path class="st4" d="M274,199.2c0,2.8-1.1,4.5-3.1,4.5s-3.1-1.7-3.1-4.5c0-2.8,1.1-4.5,3.1-4.5S274,196.4,274,199.2z M269.1,199.2
		c0,2.2,0.7,3.4,1.8,3.4s1.8-1.1,1.8-3.4s-0.7-3.4-1.8-3.4S269.1,196.9,269.1,199.2z"/>
</g>
<g class="st3">
	<path class="st4" d="M316.5,188.5v-9.1h5.5v1.1h-4.2v2.7h4.2v1.1h-4.2v3h4.2v1.1H316.5z"/>
	<path class="st4" d="M325.1,182v1.1c0.5-0.8,1.2-1.2,2.1-1.2c0.9,0,1.5,0.3,1.9,0.8c0.4,0.6,0.6,1.5,0.6,2.5v3.4h-1.2v-3.2
		c0-0.6,0-1.3-0.3-1.8c-0.2-0.3-0.6-0.5-1.1-0.5c-0.8,0-1.5,0.5-1.9,1.2v4.3h-1.2V182H325.1z"/>
	<path class="st4" d="M332.4,185.5c0.1,1.1,0.8,2.1,2.1,2.1c0.9,0,1.5-0.3,1.9-1.1l0.9,0.5c-0.6,1-1.5,1.5-2.8,1.5
		c-2.1,0-3.2-1.5-3.2-3.4c0-1.9,1.4-3.4,3.2-3.4c1.7,0,3,1.3,3,3c0,0.2,0,0.5-0.1,0.7H332.4z M332.5,184.6h3.7
		c-0.1-0.9-0.8-1.7-1.7-1.7C333.4,182.8,332.7,183.6,332.5,184.6z"/>
	<path class="st4" d="M340.2,183c0.4-0.7,1-1.2,1.7-1.2c0.3,0,0.5,0,0.7,0.1l-0.2,1.3c-0.2-0.1-0.4-0.1-0.6-0.1
		c-0.7,0-1.1,0.4-1.5,1.1v4.4h-1.2V182h1.2V183z"/>
	<path class="st4" d="M349.7,188.1c0,0.7-0.1,1.2-0.3,1.7c-0.6,1.1-1.7,1.5-2.9,1.5c-1,0-2.1-0.3-2.9-0.9l0.5-1
		c0.6,0.4,1.6,0.8,2.4,0.8c1.1,0,2.1-0.5,2.1-1.9v-0.9c-0.5,0.7-1.3,1-2.1,1c-1.8,0-3.2-1.5-3.2-3.3c0-1.7,1.3-3.3,3.3-3.3
		c0.8,0,1.5,0.3,2,0.9V182h1.2V188.1z M348.5,183.9c-0.5-0.6-1.2-1-1.9-1c-1.5,0-2.2,1.2-2.2,2.3c0,1.2,0.9,2.2,2.2,2.2
		c0.7,0,1.6-0.4,1.9-1.2V183.9z"/>
	<path class="st4" d="M352.1,182l1.7,4.9h0l1.7-4.9h1.3l-3.7,9.4l-1-0.4l1-2.7l-2.4-6.3H352.1z"/>
	<path class="st4" d="M361.2,180.7v-1.3h1.2v1.3H361.2z M361.2,188.5V182h1.2v6.5H361.2z"/>
	<path class="st4" d="M365.8,182v1.1c0.5-0.8,1.2-1.2,2.1-1.2c0.9,0,1.5,0.3,1.9,0.8c0.4,0.6,0.6,1.5,0.6,2.5v3.4h-1.2v-3.2
		c0-0.6,0-1.3-0.3-1.8c-0.2-0.3-0.6-0.5-1.1-0.5c-0.8,0-1.5,0.5-1.9,1.2v4.3h-1.2V182H365.8z"/>
	<path class="st4" d="M373.7,183v2.9c0,0.2,0,0.3,0,0.5c0,0.7,0.3,1.1,0.9,1.1c0.3,0,0.5-0.1,0.7-0.2l0.3,0.9
		c-0.3,0.2-0.8,0.3-1.2,0.3c-0.9,0-1.5-0.4-1.7-1c-0.2-0.4-0.2-0.8-0.2-1.4V183h-0.9v-1h0.9v-1.6h1.2v1.6h1.8v1H373.7z"/>
	<path class="st4" d="M377.6,185.5c0.1,1.1,0.8,2.1,2.1,2.1c0.9,0,1.5-0.3,1.9-1.1l0.9,0.5c-0.6,1-1.5,1.5-2.8,1.5
		c-2.1,0-3.2-1.5-3.2-3.4c0-1.9,1.4-3.4,3.2-3.4c1.7,0,3,1.3,3,3c0,0.2,0,0.5-0.1,0.7H377.6z M377.7,184.6h3.7
		c-0.1-0.9-0.8-1.7-1.7-1.7C378.6,182.8,377.9,183.6,377.7,184.6z"/>
	<path class="st4" d="M385.4,182v1.1c0.5-0.8,1.2-1.2,2.1-1.2c0.9,0,1.5,0.3,1.9,0.8c0.4,0.6,0.6,1.5,0.6,2.5v3.4h-1.2v-3.2
		c0-0.6,0-1.3-0.3-1.8c-0.2-0.3-0.6-0.5-1.1-0.5c-0.8,0-1.5,0.5-1.9,1.2v4.3h-1.2V182H385.4z"/>
	<path class="st4" d="M395.3,183.3c-0.3-0.3-0.8-0.5-1.3-0.5c-0.6,0-1,0.4-1,0.9c0,0.5,0.6,0.7,1.2,1c0.8,0.3,1.9,0.8,1.9,1.9
		c0,1.5-1.1,2-2.4,2c-0.9,0-1.7-0.4-2.2-1l0.8-0.7c0.4,0.5,0.9,0.7,1.4,0.7c0.6,0,1.2-0.3,1.2-1c0-0.5-0.6-0.7-1.2-1
		c-0.9-0.3-1.9-0.7-1.9-1.9c0-1.3,1-1.9,2.1-1.9c0.7,0,1.5,0.2,2,0.7L395.3,183.3z"/>
	<path class="st4" d="M398,180.7v-1.3h1.2v1.3H398z M398,188.5V182h1.2v6.5H398z"/>
</g>
<g class="st3">
	<path class="st4" d="M402.6,183v2.9c0,0.2,0,0.3,0,0.5c0,0.7,0.3,1.1,0.9,1.1c0.3,0,0.5-0.1,0.7-0.2l0.3,0.9
		c-0.3,0.2-0.8,0.3-1.2,0.3c-0.9,0-1.5-0.4-1.7-1c-0.2-0.4-0.2-0.8-0.2-1.4V183h-0.9v-1h0.9v-1.6h1.2v1.6h1.8v1H402.6z"/>
</g>
<g class="st3">
	<path class="st4" d="M406.3,182l1.7,4.9h0l1.7-4.9h1.3l-3.7,9.4l-1-0.4l1-2.7L405,182H406.3z"/>
</g>
<g class="st3">
	<path class="st4" d="M312.2,198c0.4-0.7,1-1.2,1.7-1.2c0.3,0,0.5,0,0.7,0.1l-0.2,1.3c-0.2-0.1-0.4-0.1-0.6-0.1
		c-0.7,0-1.1,0.4-1.5,1.1v4.4H311V197h1.2V198z"/>
	<path class="st4" d="M316.3,200.5c0.1,1.1,0.8,2.1,2.1,2.1c0.9,0,1.5-0.3,1.9-1.1l0.9,0.5c-0.6,1-1.5,1.5-2.8,1.5
		c-2.1,0-3.2-1.5-3.2-3.4c0-1.9,1.4-3.4,3.2-3.4c1.7,0,3,1.3,3,3c0,0.2,0,0.5-0.1,0.7H316.3z M316.4,199.6h3.7
		c-0.1-0.9-0.8-1.7-1.7-1.7C317.3,197.8,316.6,198.6,316.4,199.6z"/>
	<path class="st4" d="M322.4,200.2c0-1.7,1.3-3.4,3.3-3.4c0.8,0,1.5,0.3,2,0.9v-4h1.2v9.8h-1.2v-0.9c-0.5,0.7-1.3,1-2.1,1
		C323.8,203.6,322.4,202.1,322.4,200.2z M327.7,201.3v-2.4c-0.5-0.6-1.2-1-1.9-1c-1.5,0-2.2,1.2-2.2,2.3c0,1.2,0.8,2.3,2.2,2.3
		C326.5,202.5,327.4,202.1,327.7,201.3z"/>
	<path class="st4" d="M335.6,202.4c-0.5,0.8-1.2,1.2-2.1,1.2c-0.9,0-1.5-0.3-1.9-0.8c-0.4-0.6-0.6-1.5-0.6-2.5V197h1.2v3.2
		c0,0.6,0,1.3,0.3,1.8c0.2,0.3,0.6,0.5,1.1,0.5c0.8,0,1.5-0.5,1.9-1.2V197h1.2v6.5h-1.2V202.4z"/>
</g>
<g class="st3">
	<path class="st4" d="M343.7,203c-0.5,0.4-1.2,0.6-2,0.6c-1.9,0-3.3-1.4-3.3-3.4c0-1.9,1.5-3.4,3.4-3.4c0.7,0,1.3,0.2,1.8,0.6
		l-0.6,1c-0.4-0.3-0.9-0.4-1.3-0.4c-1.2,0-2.1,1-2.1,2.3c0,1.4,1,2.3,2.1,2.3c0.4,0,1-0.2,1.4-0.5L343.7,203z"/>
</g>
<g class="st3">
	<path class="st4" d="M346.6,198v2.9c0,0.2,0,0.3,0,0.5c0,0.7,0.3,1.1,0.9,1.1c0.3,0,0.5-0.1,0.7-0.2l0.3,0.9
		c-0.3,0.2-0.8,0.3-1.2,0.3c-0.9,0-1.5-0.4-1.7-1c-0.2-0.4-0.2-0.8-0.2-1.4V198h-0.9v-1h0.9v-1.6h1.2v1.6h1.8v1H346.6z"/>
	<path class="st4" d="M349.8,195.7v-1.3h1.2v1.3H349.8z M349.8,203.5V197h1.2v6.5H349.8z"/>
	<path class="st4" d="M359.3,200.2c0,1.9-1.4,3.4-3.3,3.4s-3.3-1.5-3.3-3.4s1.4-3.4,3.3-3.4S359.3,198.3,359.3,200.2z M356,197.9
		c-1.2,0-2.1,1.1-2.1,2.3s0.9,2.3,2.1,2.3s2.1-1.1,2.1-2.3S357.2,197.9,356,197.9z"/>
	<path class="st4" d="M362.1,197v1.1c0.5-0.8,1.2-1.2,2.1-1.2c0.9,0,1.5,0.3,1.9,0.8c0.4,0.6,0.6,1.5,0.6,2.5v3.4h-1.2v-3.2
		c0-0.6,0-1.3-0.3-1.8c-0.2-0.3-0.6-0.5-1.1-0.5c-0.8,0-1.5,0.5-1.9,1.2v4.3h-1.2V197H362.1z"/>
	<path class="st4" d="M373.2,193.7v4.1c0.5-0.7,1.3-1,2.1-1c1.9,0,3.2,1.5,3.2,3.4c0,1.7-1.3,3.4-3.3,3.4c-0.8,0-1.5-0.3-2-0.9v0.7
		H372v-9.8H373.2z M373.2,201.5c0.4,0.6,1.2,1,1.9,1c1.5,0,2.2-1.2,2.2-2.3c0-1.2-0.8-2.3-2.2-2.3c-0.7,0-1.6,0.4-1.9,1.2V201.5z"/>
	<path class="st4" d="M380.5,197l1.7,4.9h0l1.7-4.9h1.3l-3.7,9.4l-1-0.4l1-2.7l-2.4-6.3H380.5z"/>
</g>
<g class="st3">
	<path class="st4" d="M389.3,203.5v-1.1c1-1.1,2.2-2.4,3-3.6c0.4-0.5,0.8-1.2,0.8-1.8c0-0.8-0.7-1.2-1.4-1.2c-0.7,0-1.4,0.5-1.4,1.3
		l-1.2-0.2c0.1-1.3,1.4-2.2,2.6-2.2c1.4,0,2.6,0.9,2.6,2.3c0,0.8-0.4,1.7-0.9,2.4c-0.7,1.1-1.6,2.1-2.5,3h3.8v1.1H389.3z"/>
</g>
<g class="st3">
	<path class="st4" d="M401.9,199.2c0,2.8-1.1,4.5-3.1,4.5s-3.1-1.7-3.1-4.5c0-2.8,1.1-4.5,3.1-4.5S401.9,196.4,401.9,199.2z
		 M397,199.2c0,2.2,0.7,3.4,1.8,3.4c1.1,0,1.8-1.1,1.8-3.4s-0.7-3.4-1.8-3.4C397.7,195.8,397,196.9,397,199.2z"/>
</g>
<g class="st3">
	<path class="st4" d="M404.4,198.4c0.5,0,0.9,0,1.2-0.1c0.7-0.2,1.2-0.7,1.2-1.3c0-0.7-0.6-1.2-1.4-1.2c-0.6,0-1.2,0.3-1.4,0.9
		l-1-0.4c0.3-0.9,1.3-1.6,2.5-1.6c1.6,0,2.7,0.9,2.7,2.3c0,0.8-0.4,1.5-1.1,1.8c0.9,0.3,1.5,1.1,1.5,2.1c0,1.7-1.3,2.7-2.9,2.7
		c-1.1,0-2.2-0.5-2.7-1.4l1-0.5c0.4,0.6,1,0.9,1.7,0.9c0.9,0,1.7-0.5,1.7-1.5c0-0.9-0.8-1.5-1.8-1.5c-0.3,0-0.6,0-1,0.1V198.4z"/>
</g>
<g class="st3">
	<path class="st4" d="M416,199.2c0,2.8-1.1,4.5-3.1,4.5s-3.1-1.7-3.1-4.5c0-2.8,1.1-4.5,3.1-4.5S416,196.4,416,199.2z M411.1,199.2
		c0,2.2,0.7,3.4,1.8,3.4c1.1,0,1.8-1.1,1.8-3.4s-0.7-3.4-1.8-3.4C411.8,195.8,411.1,196.9,411.1,199.2z"/>
</g>
<g class="st3">
	<path class="st4" d="M485.7,119.9h-1.4v3.4h-1.2v-8.4h2.5c1.4,0,3,0.7,3,2.5C488.7,119.2,487.1,119.9,485.7,119.9z M485.6,115.9
		h-1.3v3h1.1c1.2,0,2-0.4,2-1.5C487.4,116.5,486.7,115.9,485.6,115.9z"/>
	<path class="st4" d="M491.1,118.3c0.4-0.6,0.9-1.1,1.5-1.1c0.3,0,0.4,0,0.6,0.1l-0.2,1.2c-0.2-0.1-0.3-0.1-0.6-0.1
		c-0.6,0-1.1,0.4-1.4,1v4H490v-6h1.1V118.3z"/>
	<path class="st4" d="M499.9,120.3c0,1.8-1.3,3.1-3.1,3.1s-3.1-1.4-3.1-3.1s1.3-3.1,3.1-3.1S499.9,118.5,499.9,120.3z M496.9,118.1
		c-1.1,0-1.9,1-1.9,2.1c0,1.2,0.8,2.1,1.9,2.1c1.1,0,1.9-1,1.9-2.1C498.8,119.1,498,118.1,496.9,118.1z"/>
	<path class="st4" d="M509.4,123.3v-3c0-0.6,0-1.2-0.3-1.7c-0.2-0.3-0.5-0.5-1-0.5c-0.6,0-1.2,0.4-1.7,1c0,0.3,0.1,0.7,0.1,1v3.1
		h-1.1v-3c0-0.6,0-1.3-0.3-1.7c-0.2-0.3-0.5-0.4-0.9-0.4c-0.6,0-1.3,0.6-1.7,1.1v4h-1.1v-6h1.1v0.9c0.4-0.6,1.2-1.1,1.9-1.1
		c0.7,0,1.3,0.3,1.7,0.8c0.1,0.1,0.1,0.2,0.1,0.3c0.5-0.7,1.3-1.1,2.1-1.1c0.8,0,1.3,0.3,1.7,0.7c0.4,0.6,0.6,1.4,0.6,2.3v3.1H509.4
		z"/>
	<path class="st4" d="M518.1,120.3c0,1.8-1.3,3.1-3.1,3.1s-3.1-1.4-3.1-3.1s1.3-3.1,3.1-3.1S518.1,118.5,518.1,120.3z M515,118.1
		c-1.1,0-1.9,1-1.9,2.1c0,1.2,0.8,2.1,1.9,2.1c1.1,0,1.9-1,1.9-2.1C517,119.1,516.2,118.1,515,118.1z"/>
	<path class="st4" d="M520.7,118.2v2.7c0,0.2,0,0.3,0,0.5c0,0.6,0.2,1,0.8,1c0.2,0,0.5-0.1,0.7-0.2l0.3,0.9
		c-0.3,0.2-0.7,0.3-1.1,0.3c-0.8,0-1.4-0.4-1.6-0.9c-0.1-0.3-0.2-0.8-0.2-1.2v-3h-0.8v-1h0.8v-1.4h1.1v1.4h1.7v1H520.7z"/>
	<path class="st4" d="M524.3,120.5c0.1,1,0.8,1.9,1.9,1.9c0.8,0,1.4-0.3,1.8-1l0.8,0.5c-0.6,1-1.4,1.4-2.6,1.4c-1.9,0-3-1.4-3-3.1
		c0-1.8,1.3-3.1,3-3.1c1.6,0,2.7,1.2,2.7,2.8c0,0.2,0,0.5,0,0.6H524.3z M524.4,119.7h3.4c0-0.9-0.7-1.6-1.6-1.6
		C525.3,118.1,524.6,118.8,524.4,119.7z"/>
</g>
<g class="st3">
	<path class="st4" d="M477,130.8c-0.9,0-1.5,0.4-1.5,1.2c0,0.7,0.8,1,1.8,1.3c1.2,0.4,2.5,1,2.5,2.5c0,1.9-1.7,2.6-3,2.6
		c-1.2,0-2.1-0.4-3-1.3l0.8-0.8c0.8,0.8,1.4,1,2.2,1c0.9,0,1.7-0.4,1.7-1.5c0-0.9-0.9-1.2-1.9-1.6c-1.1-0.4-2.4-1-2.4-2.3
		c0-1.6,1.2-2.3,2.5-2.3c1,0,1.8,0.3,2.6,0.9l-0.7,0.8C478.4,131.1,477.7,130.8,477,130.8z"/>
	<path class="st4" d="M485.8,137.3c-0.4,0.7-1.2,1.1-2,1.1c-0.8,0-1.4-0.3-1.7-0.8c-0.4-0.6-0.5-1.4-0.5-2.3v-3.1h1.1v3
		c0,0.6,0,1.2,0.3,1.7c0.2,0.3,0.5,0.5,1,0.5c0.7,0,1.4-0.5,1.8-1.2v-4h1.1v6h-1.1V137.3z"/>
	<path class="st4" d="M491.8,133.5c-0.3-0.2-0.8-0.4-1.2-0.4c-0.6,0-0.9,0.3-0.9,0.8c0,0.5,0.6,0.7,1.2,0.9c0.8,0.3,1.8,0.7,1.8,1.8
		c0,1.3-1,1.9-2.2,1.9c-0.8,0-1.6-0.3-2.1-0.9l0.8-0.6c0.4,0.4,0.8,0.6,1.3,0.6c0.6,0,1.1-0.3,1.1-0.9c0-0.5-0.6-0.7-1.2-0.9
		c-0.8-0.3-1.7-0.7-1.7-1.7c0-1.2,0.9-1.8,1.9-1.8c0.7,0,1.4,0.2,1.8,0.7L491.8,133.5z"/>
	<path class="st4" d="M495.4,133.2v2.7c0,0.2,0,0.3,0,0.5c0,0.6,0.2,1,0.8,1c0.2,0,0.5-0.1,0.7-0.2l0.3,0.9
		c-0.3,0.2-0.7,0.3-1.1,0.3c-0.8,0-1.4-0.4-1.6-0.9c-0.1-0.3-0.2-0.8-0.2-1.2v-3h-0.8v-1h0.8v-1.4h1.1v1.4h1.7v1H495.4z"/>
	<path class="st4" d="M502,138.3v-0.6c-0.5,0.6-1,0.8-1.8,0.8c-1.1,0-2.1-0.5-2.1-1.8c0-1.5,1.4-2,2.7-2c0.3,0,0.7,0,1.2,0.1v-0.2
		c0-0.9-0.4-1.4-1.4-1.4c-0.7,0-1.4,0.3-1.9,0.5l-0.3-0.9c0.6-0.3,1.5-0.6,2.4-0.6c1.7,0,2.4,0.9,2.4,2.5v3.6H502z M501.9,135.5
		c-0.4-0.1-0.8-0.1-1.1-0.1c-0.7,0-1.7,0.2-1.7,1.1c0,0.7,0.6,1,1.2,1c0.6,0,1.1-0.3,1.6-0.7V135.5z"/>
	<path class="st4" d="M505,131.1v-1.2h1.1v1.2H505z M505,138.3v-6h1.1v6H505z"/>
	<path class="st4" d="M509.2,132.3v1c0.4-0.7,1.2-1.1,2-1.1c0.8,0,1.4,0.3,1.7,0.8c0.4,0.6,0.5,1.4,0.5,2.3v3.1h-1.1v-3
		c0-0.6,0-1.2-0.3-1.7c-0.2-0.3-0.5-0.5-1-0.5c-0.7,0-1.4,0.5-1.8,1.2v4h-1.1v-6H509.2z"/>
	<path class="st4" d="M518.9,138.3v-0.6c-0.5,0.6-1,0.8-1.8,0.8c-1.1,0-2.1-0.5-2.1-1.8c0-1.5,1.4-2,2.7-2c0.3,0,0.7,0,1.2,0.1v-0.2
		c0-0.9-0.4-1.4-1.4-1.4c-0.7,0-1.4,0.3-1.9,0.5l-0.3-0.9c0.6-0.3,1.5-0.6,2.4-0.6c1.7,0,2.4,0.9,2.4,2.5v3.6H518.9z M518.9,135.5
		c-0.4-0.1-0.8-0.1-1.1-0.1c-0.7,0-1.7,0.2-1.7,1.1c0,0.7,0.6,1,1.2,1c0.6,0,1.1-0.3,1.6-0.7V135.5z"/>
	<path class="st4" d="M523,129.3v3.8c0.4-0.6,1.2-0.9,1.9-0.9c1.7,0,3,1.4,3,3.2c0,1.6-1.2,3.1-3,3.1c-0.7,0-1.4-0.3-1.9-0.8v0.6
		h-1.1v-9H523z M523,136.5c0.4,0.6,1.1,0.9,1.7,0.9c1.4,0,2.1-1.1,2.1-2.1c0-1.1-0.8-2.1-2-2.1c-0.6,0-1.5,0.4-1.8,1.1V136.5z"/>
	<path class="st4" d="M530.5,138.3h-1.1v-9h1.1V138.3z"/>
	<path class="st4" d="M533.1,135.5c0.1,1,0.8,1.9,1.9,1.9c0.8,0,1.4-0.3,1.8-1l0.8,0.5c-0.6,1-1.4,1.4-2.6,1.4c-1.9,0-3-1.4-3-3.1
		c0-1.8,1.3-3.1,3-3.1c1.6,0,2.7,1.2,2.7,2.8c0,0.2,0,0.5,0,0.6H533.1z M533.2,134.7h3.4c0-0.9-0.7-1.6-1.6-1.6
		C534,133.1,533.4,133.8,533.2,134.7z"/>
</g>
<g class="st3">
	<path class="st4" d="M455.6,149.7v3.6h-1.2v-8.4h4.3v1h-3.1v2.7h3.1v1H455.6z"/>
	<path class="st4" d="M463.8,153.3v-0.6c-0.5,0.6-1,0.8-1.8,0.8c-1.1,0-2.1-0.5-2.1-1.8c0-1.5,1.4-2,2.7-2c0.3,0,0.7,0,1.2,0.1v-0.2
		c0-0.9-0.4-1.4-1.4-1.4c-0.7,0-1.4,0.3-1.9,0.5l-0.3-0.9c0.6-0.3,1.5-0.6,2.4-0.6c1.7,0,2.4,0.9,2.4,2.5v3.6H463.8z M463.7,150.5
		c-0.4-0.1-0.8-0.1-1.1-0.1c-0.7,0-1.7,0.2-1.7,1.1c0,0.7,0.6,1,1.2,1c0.6,0,1.1-0.3,1.6-0.7V150.5z"/>
	<path class="st4" d="M467.9,148.3c0.4-0.6,0.9-1.1,1.5-1.1c0.3,0,0.4,0,0.6,0.1l-0.2,1.2c-0.2-0.1-0.3-0.1-0.6-0.1
		c-0.6,0-1.1,0.4-1.4,1v4h-1.1v-6h1.1V148.3z"/>
	<path class="st4" d="M479,153.3v-3c0-0.6,0-1.2-0.3-1.7c-0.2-0.3-0.5-0.5-1-0.5c-0.6,0-1.2,0.4-1.7,1c0,0.3,0.1,0.7,0.1,1v3.1H475
		v-3c0-0.6,0-1.3-0.3-1.7c-0.2-0.3-0.5-0.4-0.9-0.4c-0.6,0-1.3,0.6-1.7,1.1v4H471v-6h1.1v0.9c0.4-0.6,1.2-1.1,1.9-1.1
		s1.3,0.3,1.7,0.8c0.1,0.1,0.1,0.2,0.1,0.3c0.5-0.7,1.3-1.1,2.1-1.1c0.8,0,1.3,0.3,1.7,0.7c0.4,0.6,0.6,1.4,0.6,2.3v3.1H479z"/>
	<path class="st4" d="M482.1,146.1v-1.2h1.1v1.2H482.1z M482.1,153.3v-6h1.1v6H482.1z"/>
	<path class="st4" d="M486.3,147.3v1c0.4-0.7,1.2-1.1,2-1.1c0.8,0,1.4,0.3,1.7,0.8c0.4,0.6,0.5,1.4,0.5,2.3v3.1h-1.1v-3
		c0-0.6,0-1.2-0.3-1.7c-0.2-0.3-0.5-0.5-1-0.5c-0.7,0-1.4,0.5-1.8,1.2v4h-1.1v-6H486.3z"/>
	<path class="st4" d="M497.9,152.9c0,0.6-0.1,1.2-0.3,1.6c-0.5,1-1.6,1.4-2.7,1.4c-0.9,0-1.9-0.3-2.7-0.8l0.4-0.9
		c0.6,0.4,1.5,0.7,2.2,0.7c1,0,2-0.5,2-1.8v-0.8c-0.4,0.6-1.2,0.9-1.9,0.9c-1.7,0-3-1.3-3-3.1c0-1.6,1.2-3.1,3-3.1
		c0.7,0,1.4,0.3,1.9,0.8v-0.7h1.1V152.9z M496.9,149c-0.4-0.6-1.1-0.9-1.7-0.9c-1.4,0-2.1,1.1-2.1,2.1c0,1.1,0.8,2,2,2
		c0.6,0,1.5-0.4,1.8-1.1V149z"/>
</g>
<g class="st3">
</g>
<g class="st3">
	<path class="st4" d="M503.8,144.3v3.8c0.4-0.6,1.2-0.9,1.9-0.9c1.7,0,3,1.4,3,3.2c0,1.6-1.2,3.1-3,3.1c-0.7,0-1.4-0.3-1.9-0.8v0.6
		h-1.1v-9H503.8z M503.8,151.5c0.4,0.6,1.1,0.9,1.7,0.9c1.4,0,2.1-1.1,2.1-2.1c0-1.1-0.8-2.1-2-2.1c-0.6,0-1.5,0.4-1.8,1.1V151.5z"
		/>
	<path class="st4" d="M510.5,147.3l1.6,4.5h0l1.6-4.5h1.2l-3.4,8.7l-1-0.4l0.9-2.5l-2.2-5.8H510.5z"/>
</g>
<g class="st3">
</g>
<g class="st3">
	<path class="st4" d="M524,153.3l-0.7-1.8h-3.6l-0.6,1.8h-1.3l3.3-8.4h1l3.2,8.4H524z M520.2,150.5h2.8l-1.4-3.8h0L520.2,150.5z"/>
</g>
<g class="st3">
	<path class="st4" d="M526,150.3c0-1.6,1.2-3.1,3-3.1c0.7,0,1.4,0.3,1.9,0.8v-3.7h1.1v9h-1.1v-0.8c-0.4,0.6-1.2,0.9-1.9,0.9
		C527.2,153.4,526,152,526,150.3z M530.9,151.3V149c-0.4-0.6-1.1-0.9-1.7-0.9c-1.4,0-2.1,1.1-2.1,2.2c0,1.1,0.8,2.1,2,2.1
		C529.7,152.4,530.5,152,530.9,151.3z"/>
	<path class="st4" d="M533.5,150.3c0-1.6,1.2-3.1,3-3.1c0.7,0,1.4,0.3,1.9,0.8v-3.7h1.1v9h-1.1v-0.8c-0.4,0.6-1.2,0.9-1.9,0.9
		C534.7,153.4,533.5,152,533.5,150.3z M538.4,151.3V149c-0.4-0.6-1.1-0.9-1.7-0.9c-1.4,0-2.1,1.1-2.1,2.2c0,1.1,0.8,2.1,2,2.1
		C537.3,152.4,538.1,152,538.4,151.3z"/>
	<path class="st4" d="M541.5,146.1v-1.2h1.1v1.2H541.5z M541.5,153.3v-6h1.1v6H541.5z"/>
	<path class="st4" d="M545.7,147.3v1c0.4-0.7,1.2-1.1,2-1.1c0.8,0,1.4,0.3,1.7,0.8c0.4,0.6,0.5,1.4,0.5,2.3v3.1h-1.1v-3
		c0-0.6,0-1.2-0.3-1.7c-0.2-0.3-0.5-0.5-1-0.5c-0.7,0-1.4,0.5-1.8,1.2v4h-1.1v-6H545.7z"/>
	<path class="st4" d="M557.4,152.9c0,0.6-0.1,1.2-0.3,1.6c-0.5,1-1.6,1.4-2.7,1.4c-0.9,0-1.9-0.3-2.7-0.8l0.4-0.9
		c0.6,0.4,1.5,0.7,2.2,0.7c1,0,2-0.5,2-1.8v-0.8c-0.4,0.6-1.2,0.9-1.9,0.9c-1.7,0-3-1.3-3-3.1c0-1.6,1.2-3.1,3-3.1
		c0.7,0,1.4,0.3,1.9,0.8v-0.7h1.1V152.9z M556.3,149c-0.4-0.6-1.1-0.9-1.7-0.9c-1.4,0-2.1,1.1-2.1,2.1c0,1.1,0.8,2,2,2
		c0.6,0,1.5-0.4,1.8-1.1V149z"/>
</g>
<g class="st3">
	<path class="st4" d="M469.1,168.3v-6.6c-0.4,0.2-0.9,0.4-1.2,0.5v-1.1c0.5-0.2,1.1-0.5,1.6-0.8h0.7v8H469.1z"/>
</g>
<g class="st3">
	<path class="st4" d="M477.5,164.3c0,2.6-1,4.1-2.8,4.1c-1.8,0-2.8-1.6-2.8-4.1s1-4.1,2.8-4.1C476.4,160.2,477.5,161.7,477.5,164.3z
		 M473,164.3c0,2.1,0.6,3.1,1.7,3.1c1.1,0,1.7-1,1.7-3.1c0-2.1-0.6-3.1-1.7-3.1C473.6,161.2,473,162.2,473,164.3z"/>
</g>
<g class="st3">
	<path class="st4" d="M484.2,164.3c0,2.6-1,4.1-2.8,4.1s-2.8-1.6-2.8-4.1s1-4.1,2.8-4.1S484.2,161.7,484.2,164.3z M479.8,164.3
		c0,2.1,0.6,3.1,1.7,3.1s1.7-1,1.7-3.1c0-2.1-0.6-3.1-1.7-3.1S479.8,162.2,479.8,164.3z"/>
	<path class="st4" d="M491.8,160.3c-0.2-0.1-0.5-0.2-0.7-0.2c-0.3,0-0.5,0.1-0.7,0.2c-0.3,0.2-0.3,0.6-0.3,1.2v0.8h1.6v1H490v5H489
		v-5h-0.7v-1h0.7v-0.9c0-0.6,0.1-1.2,0.4-1.6c0.3-0.4,0.8-0.7,1.6-0.7c0.4,0,0.8,0.1,1.2,0.3L491.8,160.3z"/>
	<path class="st4" d="M496.3,168.3v-0.6c-0.5,0.6-1,0.8-1.8,0.8c-1.1,0-2.1-0.5-2.1-1.8c0-1.5,1.4-2,2.7-2c0.3,0,0.7,0,1.2,0.1v-0.2
		c0-0.9-0.4-1.4-1.4-1.4c-0.7,0-1.4,0.3-1.9,0.5l-0.3-0.9c0.6-0.3,1.5-0.6,2.4-0.6c1.7,0,2.4,0.9,2.4,2.5v3.6H496.3z M496.3,165.5
		c-0.4-0.1-0.8-0.1-1.1-0.1c-0.7,0-1.7,0.2-1.7,1.1c0,0.7,0.6,1,1.2,1c0.6,0,1.1-0.3,1.6-0.7V165.5z"/>
	<path class="st4" d="M500.4,163.3c0.4-0.6,0.9-1.1,1.5-1.1c0.3,0,0.4,0,0.6,0.1l-0.2,1.2c-0.2-0.1-0.3-0.1-0.6-0.1
		c-0.6,0-1.1,0.4-1.4,1v4h-1.1v-6h1.1V163.3z"/>
	<path class="st4" d="M511.6,168.3v-3c0-0.6,0-1.2-0.3-1.7c-0.2-0.3-0.5-0.5-1-0.5c-0.6,0-1.2,0.4-1.7,1c0,0.3,0.1,0.7,0.1,1v3.1
		h-1.1v-3c0-0.6,0-1.3-0.3-1.7c-0.2-0.3-0.5-0.4-0.9-0.4c-0.6,0-1.3,0.6-1.7,1.1v4h-1.1v-6h1.1v0.9c0.4-0.6,1.2-1.1,1.9-1.1
		s1.3,0.3,1.7,0.8c0.1,0.1,0.1,0.2,0.1,0.3c0.5-0.7,1.3-1.1,2.1-1.1c0.8,0,1.3,0.3,1.7,0.7c0.4,0.6,0.6,1.4,0.6,2.3v3.1H511.6z"/>
	<path class="st4" d="M515.2,165.5c0.1,1,0.8,1.9,1.9,1.9c0.8,0,1.4-0.3,1.8-1l0.8,0.5c-0.6,1-1.4,1.4-2.6,1.4c-1.9,0-3-1.4-3-3.1
		c0-1.8,1.3-3.1,3-3.1c1.6,0,2.7,1.2,2.7,2.8c0,0.2,0,0.5,0,0.6H515.2z M515.3,164.7h3.4c0-0.9-0.7-1.6-1.6-1.6
		C516.1,163.1,515.5,163.8,515.3,164.7z"/>
	<path class="st4" d="M522.4,163.3c0.4-0.6,0.9-1.1,1.5-1.1c0.3,0,0.4,0,0.6,0.1l-0.2,1.2c-0.2-0.1-0.3-0.1-0.6-0.1
		c-0.6,0-1.1,0.4-1.4,1v4h-1.1v-6h1.1V163.3z"/>
	<path class="st4" d="M528.6,163.5c-0.3-0.2-0.8-0.4-1.2-0.4c-0.6,0-0.9,0.3-0.9,0.8c0,0.5,0.6,0.7,1.2,0.9c0.8,0.3,1.8,0.7,1.8,1.8
		c0,1.3-1,1.9-2.2,1.9c-0.8,0-1.6-0.3-2.1-0.9l0.8-0.6c0.4,0.4,0.8,0.6,1.3,0.6c0.6,0,1.1-0.3,1.1-0.9c0-0.5-0.6-0.7-1.2-0.9
		c-0.8-0.3-1.7-0.7-1.7-1.7c0-1.2,0.9-1.8,1.9-1.8c0.7,0,1.4,0.2,1.8,0.7L528.6,163.5z"/>
	<path class="st4" d="M535.2,163.2v2.7c0,0.2,0,0.3,0,0.5c0,0.6,0.2,1,0.8,1c0.2,0,0.5-0.1,0.7-0.2l0.3,0.9
		c-0.3,0.2-0.7,0.3-1.1,0.3c-0.8,0-1.4-0.4-1.6-0.9c-0.1-0.3-0.2-0.8-0.2-1.2v-3h-0.8v-1h0.8v-1.4h1.1v1.4h1.7v1H535.2z"/>
	<path class="st4" d="M543.8,165.3c0,1.8-1.3,3.1-3.1,3.1s-3.1-1.4-3.1-3.1c0-1.8,1.3-3.1,3.1-3.1S543.8,163.5,543.8,165.3z
		 M540.8,163.1c-1.1,0-1.9,1-1.9,2.1s0.8,2.1,1.9,2.1c1.1,0,1.9-1,1.9-2.1S541.9,163.1,540.8,163.1z"/>
</g>
<g class="st3">
	<path class="st4" d="M460.2,178.2v2.7c0,0.2,0,0.3,0,0.5c0,0.6,0.2,1,0.8,1c0.2,0,0.5-0.1,0.7-0.2l0.3,0.9
		c-0.3,0.2-0.7,0.3-1.1,0.3c-0.8,0-1.4-0.4-1.6-0.9c-0.1-0.3-0.2-0.8-0.2-1.2v-3h-0.8v-1h0.8v-1.4h1.1v1.4h1.7v1H460.2z"/>
	<path class="st4" d="M464.3,178.3c0.4-0.7,1.2-1.1,2-1.1c0.8,0,1.4,0.3,1.7,0.8c0.4,0.6,0.5,1.4,0.5,2.3v3.1h-1.1v-3
		c0-0.6,0-1.2-0.3-1.7c-0.2-0.3-0.5-0.5-1-0.5c-0.7,0-1.4,0.5-1.8,1.2v4h-1.1v-9h1.1V178.3z"/>
	<path class="st4" d="M471.1,180.5c0.1,1,0.8,1.9,1.9,1.9c0.8,0,1.4-0.3,1.8-1l0.8,0.5c-0.6,1-1.4,1.4-2.6,1.4c-1.9,0-3-1.4-3-3.1
		c0-1.8,1.3-3.1,3-3.1c1.6,0,2.7,1.2,2.7,2.8c0,0.2,0,0.5,0,0.6H471.1z M471.2,179.7h3.4c0-0.9-0.7-1.6-1.6-1.6
		C472,178.1,471.4,178.8,471.2,179.7z"/>
	<path class="st4" d="M481.5,179.7v3.6h-1.2v-8.4h4.3v1h-3.1v2.7h3.1v1H481.5z"/>
	<path class="st4" d="M489.7,183.3v-0.6c-0.5,0.6-1,0.8-1.8,0.8c-1.1,0-2.1-0.5-2.1-1.8c0-1.5,1.4-2,2.7-2c0.3,0,0.7,0,1.2,0.1v-0.2
		c0-0.9-0.4-1.4-1.4-1.4c-0.7,0-1.4,0.3-1.9,0.5l-0.3-0.9c0.6-0.3,1.5-0.6,2.4-0.6c1.7,0,2.4,0.9,2.4,2.5v3.6H489.7z M489.7,180.5
		c-0.4-0.1-0.8-0.1-1.1-0.1c-0.7,0-1.7,0.2-1.7,1.1c0,0.7,0.6,1,1.2,1c0.6,0,1.1-0.3,1.6-0.7V180.5z"/>
	<path class="st4" d="M493.8,178.3c0.4-0.6,0.9-1.1,1.5-1.1c0.3,0,0.4,0,0.6,0.1l-0.2,1.2c-0.2-0.1-0.3-0.1-0.6-0.1
		c-0.6,0-1.1,0.4-1.4,1v4h-1.1v-6h1.1V178.3z"/>
	<path class="st4" d="M505,183.3v-3c0-0.6,0-1.2-0.3-1.7c-0.2-0.3-0.5-0.5-1-0.5c-0.6,0-1.2,0.4-1.7,1c0,0.3,0.1,0.7,0.1,1v3.1H501
		v-3c0-0.6,0-1.3-0.3-1.7c-0.2-0.3-0.5-0.4-0.9-0.4c-0.6,0-1.3,0.6-1.7,1.1v4H497v-6h1.1v0.9c0.4-0.6,1.2-1.1,1.9-1.1
		c0.7,0,1.3,0.3,1.7,0.8c0.1,0.1,0.1,0.2,0.1,0.3c0.5-0.7,1.3-1.1,2.1-1.1c0.8,0,1.3,0.3,1.7,0.7c0.4,0.6,0.6,1.4,0.6,2.3v3.1H505z"
		/>
	<path class="st4" d="M512.2,178.2v2.7c0,0.2,0,0.3,0,0.5c0,0.6,0.2,1,0.8,1c0.2,0,0.5-0.1,0.7-0.2l0.3,0.9
		c-0.3,0.2-0.7,0.3-1.1,0.3c-0.8,0-1.4-0.4-1.6-0.9c-0.1-0.3-0.2-0.8-0.2-1.2v-3h-0.8v-1h0.8v-1.4h1.1v1.4h1.7v1H512.2z"/>
	<path class="st4" d="M520.8,180.3c0,1.8-1.3,3.1-3.1,3.1s-3.1-1.4-3.1-3.1c0-1.8,1.3-3.1,3.1-3.1S520.8,178.5,520.8,180.3z
		 M517.7,178.1c-1.1,0-1.9,1-1.9,2.1s0.8,2.1,1.9,2.1c1.1,0,1.9-1,1.9-2.1S518.9,178.1,517.7,178.1z"/>
</g>
<g class="st3">
	<path class="st4" d="M527.8,175.9v7.4h-1.2v-7.4h-2.1v-1h5.4v1H527.8z"/>
</g>
<g class="st3">
	<path class="st4" d="M534.1,183.3v-0.6c-0.5,0.6-1,0.8-1.8,0.8c-1.1,0-2.1-0.5-2.1-1.8c0-1.5,1.4-2,2.7-2c0.3,0,0.7,0,1.2,0.1v-0.2
		c0-0.9-0.4-1.4-1.4-1.4c-0.7,0-1.4,0.3-1.9,0.5l-0.3-0.9c0.6-0.3,1.5-0.6,2.4-0.6c1.7,0,2.4,0.9,2.4,2.5v3.6H534.1z M534.1,180.5
		c-0.4-0.1-0.8-0.1-1.1-0.1c-0.7,0-1.7,0.2-1.7,1.1c0,0.7,0.6,1,1.2,1c0.6,0,1.1-0.3,1.6-0.7V180.5z"/>
	<path class="st4" d="M538.2,174.3v3.8c0.4-0.6,1.2-0.9,1.9-0.9c1.7,0,3,1.4,3,3.2c0,1.6-1.2,3.1-3,3.1c-0.7,0-1.4-0.3-1.9-0.8v0.6
		h-1.1v-9H538.2z M538.2,181.5c0.4,0.6,1.1,0.9,1.7,0.9c1.4,0,2.1-1.1,2.1-2.1c0-1.1-0.8-2.1-2-2.1c-0.6,0-1.5,0.4-1.8,1.1V181.5z"
		/>
	<path class="st4" d="M545.7,183.3h-1.1v-9h1.1V183.3z"/>
	<path class="st4" d="M548.3,180.5c0.1,1,0.8,1.9,1.9,1.9c0.8,0,1.4-0.3,1.8-1l0.8,0.5c-0.6,1-1.4,1.4-2.6,1.4c-1.9,0-3-1.4-3-3.1
		c0-1.8,1.3-3.1,3-3.1c1.6,0,2.7,1.2,2.7,2.8c0,0.2,0,0.5,0,0.6H548.3z M548.4,179.7h3.4c0-0.9-0.7-1.6-1.6-1.6
		C549.2,178.1,548.6,178.8,548.4,179.7z"/>
</g>
<g class="st3">
	<path class="st4" d="M477.4,194.9h-1.4v3.4h-1.2v-8.4h2.5c1.4,0,3,0.7,3,2.5C480.4,194.2,478.8,194.9,477.4,194.9z M477.4,190.9
		h-1.3v3h1.1c1.2,0,2-0.4,2-1.5C479.2,191.5,478.4,190.9,477.4,190.9z"/>
	<path class="st4" d="M482.9,193.3c0.4-0.6,0.9-1.1,1.5-1.1c0.3,0,0.4,0,0.6,0.1l-0.2,1.2c-0.2-0.1-0.3-0.1-0.6-0.1
		c-0.6,0-1.1,0.4-1.4,1v4h-1.1v-6h1.1V193.3z"/>
	<path class="st4" d="M491.7,195.3c0,1.8-1.3,3.1-3.1,3.1s-3.1-1.4-3.1-3.1c0-1.8,1.3-3.1,3.1-3.1S491.7,193.5,491.7,195.3z
		 M488.6,193.1c-1.1,0-1.9,1-1.9,2.1s0.8,2.1,1.9,2.1c1.1,0,1.9-1,1.9-2.1S489.7,193.1,488.6,193.1z"/>
	<path class="st4" d="M498.7,197.9c0,0.6-0.1,1.2-0.3,1.6c-0.5,1-1.6,1.4-2.7,1.4c-0.9,0-1.9-0.3-2.7-0.8l0.4-0.9
		c0.6,0.4,1.5,0.7,2.2,0.7c1,0,2-0.5,2-1.8v-0.8c-0.4,0.6-1.2,0.9-1.9,0.9c-1.7,0-3-1.3-3-3.1c0-1.6,1.2-3.1,3-3.1
		c0.7,0,1.4,0.3,1.9,0.8v-0.7h1.1V197.9z M497.6,194c-0.4-0.6-1.1-0.9-1.7-0.9c-1.4,0-2.1,1.1-2.1,2.1c0,1.1,0.8,2,2,2
		c0.6,0,1.5-0.4,1.8-1.1V194z"/>
	<path class="st4" d="M501.7,193.3c0.4-0.6,0.9-1.1,1.5-1.1c0.3,0,0.4,0,0.6,0.1l-0.2,1.2c-0.2-0.1-0.3-0.1-0.6-0.1
		c-0.6,0-1.1,0.4-1.4,1v4h-1.1v-6h1.1V193.3z"/>
	<path class="st4" d="M508.5,198.3v-0.6c-0.5,0.6-1,0.8-1.8,0.8c-1.1,0-2.1-0.5-2.1-1.8c0-1.5,1.4-2,2.7-2c0.3,0,0.7,0,1.2,0.1v-0.2
		c0-0.9-0.4-1.4-1.4-1.4c-0.7,0-1.4,0.3-1.9,0.5l-0.3-0.9c0.6-0.3,1.5-0.6,2.4-0.6c1.7,0,2.4,0.9,2.4,2.5v3.6H508.5z M508.4,195.5
		c-0.4-0.1-0.8-0.1-1.1-0.1c-0.7,0-1.7,0.2-1.7,1.1c0,0.7,0.6,1,1.2,1c0.6,0,1.1-0.3,1.6-0.7V195.5z"/>
	<path class="st4" d="M519.4,198.3v-3c0-0.6,0-1.2-0.3-1.7c-0.2-0.3-0.5-0.5-1-0.5c-0.6,0-1.2,0.4-1.7,1c0,0.3,0.1,0.7,0.1,1v3.1
		h-1.1v-3c0-0.6,0-1.3-0.3-1.7c-0.2-0.3-0.5-0.4-0.9-0.4c-0.6,0-1.3,0.6-1.7,1.1v4h-1.1v-6h1.1v0.9c0.4-0.6,1.2-1.1,1.9-1.1
		c0.7,0,1.3,0.3,1.7,0.8c0.1,0.1,0.1,0.2,0.1,0.3c0.5-0.7,1.3-1.1,2.1-1.1c0.8,0,1.3,0.3,1.7,0.7c0.4,0.6,0.6,1.4,0.6,2.3v3.1H519.4
		z"/>
	<path class="st4" d="M526.6,189.3v3.8c0.4-0.6,1.2-0.9,1.9-0.9c1.7,0,3,1.4,3,3.2c0,1.6-1.2,3.1-3,3.1c-0.7,0-1.4-0.3-1.9-0.8v0.6
		h-1.1v-9H526.6z M526.6,196.5c0.4,0.6,1.1,0.9,1.7,0.9c1.4,0,2.1-1.1,2.1-2.1c0-1.1-0.8-2.1-2-2.1c-0.6,0-1.5,0.4-1.8,1.1V196.5z"
		/>
	<path class="st4" d="M533.3,192.3l1.6,4.5h0l1.6-4.5h1.2l-3.4,8.7l-1-0.4l0.9-2.5l-2.2-5.8H533.3z"/>
</g>
<g class="st3">
	<path class="st4" d="M483.6,210.5c0.1,1,0.8,1.9,1.9,1.9c0.8,0,1.4-0.3,1.8-1l0.8,0.5c-0.6,1-1.4,1.4-2.6,1.4c-1.9,0-3-1.4-3-3.1
		c0-1.8,1.3-3.1,3-3.1c1.6,0,2.7,1.2,2.7,2.8c0,0.2,0,0.5,0,0.6H483.6z M483.7,209.7h3.4c0-0.9-0.7-1.6-1.6-1.6
		C484.5,208.1,483.9,208.8,483.7,209.7z"/>
	<path class="st4" d="M490.8,207.3v1c0.4-0.7,1.2-1.1,2-1.1c0.8,0,1.4,0.3,1.7,0.8c0.4,0.6,0.5,1.4,0.5,2.3v3.1h-1.1v-3
		c0-0.6,0-1.2-0.3-1.7c-0.2-0.3-0.5-0.5-1-0.5c-0.7,0-1.4,0.5-1.8,1.2v4h-1.1v-6H490.8z"/>
	<path class="st4" d="M496.5,210.3c0-1.6,1.2-3.1,3-3.1c0.7,0,1.4,0.3,1.9,0.8v-3.7h1.1v9h-1.1v-0.8c-0.4,0.6-1.2,0.9-1.9,0.9
		C497.7,213.4,496.5,212,496.5,210.3z M501.4,211.3V209c-0.4-0.6-1.1-0.9-1.7-0.9c-1.4,0-2.1,1.1-2.1,2.2c0,1.1,0.8,2.1,2,2.1
		C500.3,212.4,501.1,212,501.4,211.3z"/>
</g>
<g class="st3">
	<path class="st4" d="M507.2,213.3v-1c0.9-1,2.1-2.2,2.8-3.3c0.3-0.5,0.7-1.1,0.7-1.7c0-0.7-0.7-1.1-1.3-1.1c-0.7,0-1.2,0.5-1.3,1.2
		l-1.1-0.2c0.1-1.2,1.3-2,2.4-2c1.2,0,2.4,0.8,2.4,2.1c0,0.7-0.4,1.5-0.9,2.2c-0.7,1-1.5,1.9-2.3,2.8h3.5v1H507.2z"/>
</g>
<g class="st3">
	<path class="st4" d="M518.8,209.3c0,2.6-1,4.1-2.8,4.1c-1.8,0-2.8-1.6-2.8-4.1s1-4.1,2.8-4.1C517.8,205.2,518.8,206.7,518.8,209.3z
		 M514.3,209.3c0,2.1,0.6,3.1,1.7,3.1c1.1,0,1.7-1,1.7-3.1c0-2.1-0.6-3.1-1.7-3.1C515,206.2,514.3,207.2,514.3,209.3z"/>
	<path class="st4" d="M520,213.3v-1c0.9-1,2.1-2.2,2.8-3.3c0.3-0.5,0.7-1.1,0.7-1.7c0-0.7-0.7-1.1-1.3-1.1c-0.7,0-1.2,0.5-1.3,1.2
		l-1.1-0.2c0.1-1.2,1.3-2,2.4-2c1.2,0,2.4,0.8,2.4,2.1c0,0.7-0.4,1.5-0.9,2.2c-0.7,1-1.5,1.9-2.3,2.8h3.5v1H520z"/>
	<path class="st4" d="M527.3,213.3v-6.6c-0.4,0.2-0.9,0.4-1.2,0.5v-1.1c0.5-0.2,1.1-0.5,1.6-0.8h0.7v8H527.3z"/>
</g>
<g>
	<defs>
		<rect id="SVGID_3_" width="730.8" height="301.8"/>
	</defs>
	<clipPath id="SVGID_4_">
		<use xlink:href="#SVGID_3_"  style="overflow:visible;"/>
	</clipPath>
	<g class="st5">
		<g>
			<path class="st6" d="M51.9,170.7c-1.6-1.5-3.7-2.2-5.9-2.1c-0.2-0.9-0.6-1.7-1.3-2.4c-0.5-0.5-1.2-0.8-1.9-0.9
				c0-4.9-3.7-9.8-8.1-11.6c-4.1-1.7-8.9-1.1-12.4,1.8c-2.4-1.4-6.2-0.1-8,1.7c-1.7,1.8-2.5,4.4-1.9,6.9c-0.8-0.2-1.7,0.2-2.1,0.9
				c-0.3,0.4-0.4,1-0.4,1.5c-4.3-0.7-8.5,4.2-9.5,8c-0.9,3.5,0.6,8.3,4.2,9.4c0.6,2.3,2.1,4.2,4.2,5.2c2,0.7,4.3,0.4,6.1-0.8
				c0.5,1,1.5,1.6,2.6,1.6c0.5-0.1,1-0.4,1.4-0.7c1,0.7,2.1,1.2,3.3,1.6c2.6,0.9,5.4,0.9,8,0.1c0.2,0.2,0.5,0.4,0.8,0.5
				c1.3,0.6,2.8,0.1,3.7-1.1c1,0.8,2.2,1.1,3.4,0.9c2-0.4,3.7-1.8,4.3-3.8c4.6,0.8,9.7-2.3,11.5-6.9C55.3,177,54.5,173.2,51.9,170.7
				"/>
		</g>
		<g>
			<path class="st6" d="M52.3,183c-3.7,1.9-6.9-0.9-6.9-0.9c-3.9,3.4-7.7-0.4-7.7-0.4c-3.3,1.7-5.5-2.3-5.5-2.3
				c-7.2,4.4-9.4-2.1-9.4-2.1s-3.8,3.5-6.4-1.2s2.5-7.6,2.5-7.6s-3.4,0.4-4.2-6.1c-0.6-3.3,1.4-6.6,4.7-7.6
				c-1.9,0.1-3.8,0.9-5.2,2.3c-1.7,1.8-2.5,4.4-1.9,6.9c-0.8-0.2-1.7,0.2-2.1,0.9c-0.3,0.4-0.4,1-0.4,1.5c-4.3-0.7-8.5,4.2-9.5,8
				c-0.9,3.5,0.6,8.3,4.2,9.4c0.6,2.3,2.1,4.2,4.2,5.2c2,0.7,4.3,0.4,6.1-0.8c0.5,1,1.5,1.6,2.6,1.6c0.5-0.1,1-0.4,1.4-0.7
				c1,0.7,2.1,1.2,3.3,1.6c2.6,0.9,5.4,0.9,8,0.1c0.2,0.2,0.5,0.4,0.8,0.5c1.3,0.6,2.8,0.1,3.7-1.1c1,0.8,2.2,1.1,3.4,0.9
				c2-0.4,3.7-1.8,4.3-3.8C46.2,187.7,50,186.1,52.3,183"/>
		</g>
		<g>
			<path class="st7" d="M15.8,179.6c0.7-0.2,1.4-0.4,2.2-0.4c0.6,0.1,1.2,0.4,1.7,0.8c1.7,2.2,3.8,4,4.7,6.7c1.2,3.6,0,8-0.5,11.6
				c-0.6,3.9-1.5,7.7-2.3,11.5c-0.3,1.6-0.6,3.3-0.9,4.9c-0.3,1.4-0.4,2.8-0.3,4.1h8.9c0.3-1.5-0.4-3.1-0.5-4.7
				c-0.2-1.8-0.2-3.6-0.2-5.4c0-3.8,0.3-7.5,0.1-11.3c0-0.6,0-1.3-0.1-1.9s0.1-1.2,0.2-1.8l0,0c0.3-2.1,1.2-4.2,2.5-5.8
				c1.5-1.7,2.9-3.6,3.9-5.7c0.5-0.7,1-1.5,1.5-2.2c1.2-1.8,2.9-2.3,4.9-2.7c2.2-0.4,4.6-1,5.2-3.5c0-0.1-0.2-0.3-0.3-0.1
				c-1.6,3.1-5.7,2-8.4,3.2c-0.4,0.2-0.7,0.4-1.1,0.7c0.9-2.5,1.5-5,1.9-7.6c0-0.2-0.3-0.4-0.4-0.1c-1.7,6.2-4.8,11.9-9.2,16.7
				c-0.6,0.6-1.1,1.2-1.6,1.9c-0.1-0.5-0.1-1.1-0.2-1.6c-0.3-1.9-0.6-3.8-0.8-5.6c-0.1-0.9-0.1-1.7,0-2.6c0.1-0.5,0.3-0.9,0.6-1.3
				c1.1-1.7,2.8-2.9,3.9-4.6c1.1-1.8,1.9-3.8,2.4-5.8c0-0.1,0-0.2-0.1-0.2s-0.2,0-0.2,0.1c-0.6,1.6-1.5,3.1-2.5,4.4
				c0-0.1,0-0.1,0-0.2c0.3-2.6-0.4-4.9,0.5-7.4c0.1-0.2-0.2-0.2-0.3-0.1c-1.1,1.5-1.3,3.5-1.4,5.2c0,1.1-0.1,2.2-0.3,3.3
				c-0.2,0.5-0.4,1-0.6,1.4c-1.2,0.9-2.2,2-3,3.3c-0.1-1.2-0.5-2.4-0.5-3.6c-0.1-1.4,0-2.9,0.3-4.3c0.5-2.4,2.4-4.7,2.3-7.3
				c0-0.2-0.3-0.2-0.3,0c-0.5,1.6-1.2,3.1-2.2,4.4c-0.7,1.3-1.2,2.7-1.4,4.1c-0.1,0.4-0.1,0.9-0.1,1.4c0-0.1-0.1-0.1-0.1-0.2
				c-1.5-2.1-4.2-3.3-5.1-5.9c0-0.1-0.2-0.1-0.2-0.1c-0.1,0-0.1,0.1-0.1,0.2c0.5,2.3,2.3,3.6,3.7,5.3c1.8,2.3,1.9,5.2,2.7,7.9
				c0.1,1.6,0.2,3.2,0.3,4.9c-0.6-1-1.4-2-2.2-2.9c-2.2-2.6-4.1-5.3-4.7-8.7c0-0.2-0.4-0.1-0.4,0.1c0.2,2.1,0.7,4.2,1.7,6.1
				c-0.5-0.3-1.1-0.4-1.6-0.4c-0.9,0.1-1.7,0.4-2.5,0.7c-0.8-0.5-1.6-1.1-2.4-1.7c-0.8-0.8-1.6-1.6-2.3-2.5c0,0-0.1,0-0.1,0
				c0.7,1.8,2,3.4,3.6,4.5c-1.5,0.3-3,0.1-4.4-0.4c-0.1,0-0.1,0-0.1,0.1c0,0,0,0.1,0,0.1C11.6,179.6,13.7,179.9,15.8,179.6"/>
		</g>
		<g>
			<path class="st7" d="M24.8,178.8c0.1,1.6,0.2,3.2,0.3,4.9l-0.1-0.1l0.1,0.4l0.9,1.3c0,0,0.1-2.1,0-3.8c-0.3-2.4-0.8-4.8-1.5-7.1
				c-0.5-1.9-1.6-3.5-3.1-4.7c-1.2-1.1-2.2-2.4-2.9-3.9c0.5,2.2,2.3,3.5,3.6,5.2C23.9,173.2,23.9,176.2,24.8,178.8"/>
		</g>
		<g>
			<path class="st7" d="M25.7,187.2c-1.4-2.7-3.1-5.2-5-7.5c-0.8-0.7-1.8-1.4-4.6-0.4c-1.8,0.5-3.8,0.4-5.6-0.2
				c1.6,0.7,3.5,0.9,5.2,0.5c0.7-0.2,1.4-0.4,2.2-0.4c0.6,0.1,1.2,0.4,1.7,0.8c1.7,2.2,3.8,4,4.7,6.7c1.2,3.6,0,8-0.5,11.6
				c-0.6,3.9-1.5,7.7-2.3,11.5c-0.3,1.6-0.6,3.3-0.8,4.9c-0.3,1.4-0.4,2.8-0.3,4.1h5.9c-0.7-7.6-0.8-15.3-0.2-22.9
				C26.5,191.5,26.3,188.8,25.7,187.2"/>
		</g>
		<g>
			<path class="st7" d="M38.8,171.8c-0.1,0.1-0.2,0.2-0.3,0.3l0.5-2.4c-0.1,0-0.1,0.1-0.2,0.1c-1.7,6.2-4.8,11.9-9.2,16.7
				c-0.6,0.6-1.1,1.3-1.6,1.9l0.3,1.7c0,0,5.5-6.5,6.7-9s2.8-6.8,3.7-8.5C38.7,172.4,38.7,172.1,38.8,171.8"/>
		</g>
		<g>
			<path class="st7" d="M46.9,173.7c-0.3,0.7-0.8,1.3-1.4,1.9c-1,0.7-3.3,0.6-4.9,1.6s-3.1,0.2-4.2,3.6l0,0l0.5-0.7
				c1.2-1.8,2.9-2.3,4.9-2.7c2.2-0.4,4.6-1,5.2-3.5C47,173.8,47,173.7,46.9,173.7"/>
		</g>
		<g>
			<path class="st7" d="M25.2,167.8c0.5-1.4,1.2-2.8,2.1-4c0.4-0.7,0.6-1.6,0.6-2.4c-0.1,0-0.2,0-0.2,0.1c0,0,0,0,0,0
				c-0.5,1.6-1.2,3.1-2.2,4.5c-0.7,1.3-1.2,2.7-1.4,4.1c-0.1,0.5-0.1,0.9-0.1,1.4l0.6,0.8C24.6,170.8,24.9,169.3,25.2,167.8"/>
		</g>
		<g>
			<path class="st7" d="M33.9,166.8c0-0.1,0-0.2-0.1-0.2c-0.2,1.4-0.8,2.8-1.5,4c-1.4,2.1-3.7,4.3-4.6,5.5s-0.6,3.3-0.6,3.3l0,0
				c0-0.2,0-0.5,0.1-0.7c0.1-0.5,0.3-0.9,0.6-1.3c1.1-1.7,2.8-2.9,3.9-4.6C32.7,170.9,33.5,169,33.9,166.8"/>
		</g>
		<g>
			<path class="st7" d="M30.6,169.1c0.1-2.2-0.1-3.9,0.6-5.5c-0.9,1.5-1.3,3.3-1.2,5c0,1.1-0.1,2.2-0.3,3.3
				c-0.1,0.4-0.3,0.9-0.5,1.3l1.3-2L30.6,169.1z"/>
		</g>
		<g>
			<path class="st6" d="M98.9,164.1c-1-3.1-3.9-5.3-7.2-5.3c-0.4-1-1-1.8-1.9-2.4c-0.2-0.1-0.5-0.3-0.8-0.3c0-1.6-1-3-2.5-3.6
				c-0.8-0.2-1.7-0.2-2.6,0.1c-2.4-3.4-8.8-1.9-11.5,0.3c-2.8,2.4-4.2,6.1-3.7,9.8c-0.7,0.2-1.3,0.6-1.8,1.2
				c-0.7,1.1-0.9,2.5-0.5,3.7c-2.1,1.2-2.4,4.5-1.8,6.8c0.8,2.9,3.6,4.2,6.1,3c0.4,1.7,1.7,3.1,3.4,3.5c2.2,0.6,4.9,0.5,6.1-1.6
				c2.6,3.7,8.9,2.4,10.2-2.1c0.9,0.6,2.5,0.1,3.2-0.5c0.7-0.5,1.1-1.3,1.1-2.2c0-0.2,0-0.4-0.1-0.6
				C98.2,172.8,100.1,167.6,98.9,164.1"/>
		</g>
		<g>
			<path class="st6" d="M98.1,170.8c-2.3,2.1-6.2,2.3-6.2,2.3c-0.5,3.3-4,2.2-4,2.2c-4.6,3-6-4.2-6-4.2c-3.4,2-4.4-4.8-4.4-4.8
				s-3.8,0.2-5.6-6.3c-1.5-5.3,3.3-8.3,5-9.2c-1.6,0.3-3.1,1-4.5,2c-2.8,2.4-4.2,6.1-3.7,9.8c-0.7,0.2-1.3,0.7-1.8,1.3
				c-0.7,1.1-0.9,2.5-0.5,3.7c-2.1,1.2-2.4,4.5-1.8,6.8c0.8,2.9,3.6,4.2,6.1,3c0.4,1.7,1.7,3.1,3.4,3.5c2.2,0.6,4.9,0.5,6.1-1.6
				c2.6,3.7,8.9,2.4,10.2-2.1c0.9,0.6,2.5,0.1,3.2-0.5c0.7-0.5,1.1-1.3,1.1-2.2c0-0.2-0.1-0.4-0.1-0.6
				C96.2,173.4,97.4,172.3,98.1,170.8"/>
		</g>
		<g>
			<path class="st6" d="M81,183.2c-1-1.1-2.4-1.8-3.8-2c0.3-1.4-0.3-2.7-1.6-3.4c-1-0.3-2.1-0.2-3,0.2c-1-2.2-3.5-3.2-5.8-2.4
				c-1.4,0.4-2.5,1.5-3.1,2.8c-1.1,0-2.1,0.2-3,0.8c-1.5,1-2,3-2.4,4.7c-0.6,2.5,0.2,5.1,2.1,6.8c-0.6,0.7-0.7,1.8-0.3,2.6
				c0.7,1.5,2.3,1.5,3.5,0.8c0,1,0.4,2,1,2.7c1.1,1.7,3.1,2.4,5.1,2c2-0.1,3.8-1.3,4.8-3c0.2-0.5,0.4-1,0.4-1.6
				c3.1,0.1,5.9-2.6,6.7-5.8C82.2,186.9,82.2,184.7,81,183.2"/>
		</g>
		<g>
			<path class="st6" d="M63.8,178.4c-1.1,0-2.1,0.2-3,0.8c-1.5,1-2.6,2.6-3,4.4c-0.4,2.7,0.7,5.4,2.7,7.1c-0.6,0.7-0.7,1.8-0.3,2.6
				c0.7,1.5,2.3,1.5,3.5,0.8c0,1,0.4,2,1,2.7c1.1,1.7,3.1,2.4,5.1,2c2-0.1,3.8-1.2,4.8-3c0.2-0.5,0.4-1,0.4-1.6
				c2.4,0.1,4.7-1.6,5.9-3.9c-2.1,0.3-4.3-2.8-4.3-2.8s-0.1,3.5-1.7,4.7s-3.7-1.7-3.7-1.7c-1,1.2-2.6,1.6-4,1.1
				c-2.7-0.8-1.9-4.4-1.9-4.4s-2.4,0.4-4.3-2.9S63.8,178.4,63.8,178.4"/>
		</g>
		<g>
			<path class="st8" d="M77.6,198.9c-0.3,2.2-0.6,4.5-0.6,6.8c-0.1,2.7-0.4,5.4-0.9,8.1c-0.5,2.2-0.7,4.5-0.4,6.8h8.7
				c-2.6-6.8-2.3-13.8-2.2-21c0-3.5-0.2-7-0.6-10.5c-0.2-2.8-0.2-5.6,0.2-8.3c0.5-1.8,1.3-3.5,2.3-5.1c1.3-1.9,2.8-3.6,4.6-5.1
				c1.3-1.1,2.8-2.5,3.3-4.1c0.1-0.2-0.2-0.3-0.3-0.1c-1.5,2-3.5,3.1-5.3,4.8c0.8-1.5,1.4-3.1,1.5-4.8c0-0.2-0.3-0.2-0.4,0
				c-0.7,4.3-4.5,7.2-6.5,10.9c-0.4,0.7-0.7,1.4-1,2.1c0-0.2-0.1-0.4-0.1-0.6c-0.2-1.1-0.4-2.3-0.6-3.4c0-0.2,0-0.4,0-0.6
				c0.2-5.4,0-10.9-0.6-16.3c0-0.1-0.1-0.2-0.2-0.1c-0.1,0-0.1,0.1-0.1,0.1c0,3.6-0.1,7.1-0.2,10.6c-0.9-2.7-2.7-4.9-3.5-7.6
				c0-0.1-0.1-0.1-0.2-0.1c-0.1,0-0.1,0.1-0.1,0.2c0.5,2.8,2,5.2,2.7,8c0.5,2,0.8,4.1,0.8,6.2c-0.2,2.3-0.2,4.7-0.1,7
				c0.4,2.6,0.7,5.3,0.8,8c-0.1,1.9-0.3,3.8-0.5,5.7c-1.3-1.4-2.6-2.7-3.8-4c-0.7-1.4-1.2-3-1.4-4.6c-0.4-2.5-0.8-5-2.1-7.2
				c0,0-0.1,0-0.1,0c0,0,0,0,0,0.1c0.5,2.5,0.5,5.9,1.2,8.9c-1.2-1.6-2.5-3.1-3.9-4.5l0,0c1,2.6,2.9,5.1,4.4,7.3
				C73.9,194.7,75.7,196.9,77.6,198.9"/>
		</g>
		<g>
			<path class="st7" d="M77.6,199c-0.4,2.2-0.6,4.5-0.7,6.8c-0.1,2.7-0.4,5.4-0.9,8.1c-0.5,2.2-0.7,4.5-0.4,6.8h8.7
				c-2.6-6.8-2.3-13.8-2.2-21c0-3.5-0.1-7.1-0.6-10.6c-0.2-2.8-0.2-5.6,0.2-8.3c0.5-1.8,1.3-3.5,2.3-5.1c1.3-1.9,2.8-3.6,4.6-5.1
				c1.3-1.1,2.8-2.5,3.3-4.1c0.1-0.2-0.2-0.3-0.3-0.1c-1.5,2-3.5,3.1-5.3,4.8c0.8-1.5,1.4-3.1,1.5-4.8c0-0.2-0.3-0.2-0.4-0.1
				c-0.7,4.3-4.5,7.2-6.5,10.9c-0.4,0.7-0.7,1.4-1,2.1c0-0.2-0.1-0.4-0.1-0.6c-0.2-1.1-0.4-2.3-0.6-3.4c0-0.2,0-0.4,0-0.6
				c0.2-5.4,0-10.9-0.6-16.3c0-0.1-0.1-0.2-0.2-0.1c-0.1,0-0.1,0.1-0.1,0.1c0,3.6-0.1,7.1-0.2,10.6c-0.9-2.7-2.7-4.9-3.5-7.6
				c0-0.1-0.1-0.1-0.2-0.1c-0.1,0-0.1,0.1-0.1,0.2c0.5,2.8,2,5.2,2.7,8c0.5,2,0.8,4.1,0.8,6.2c-0.2,2.3-0.2,4.7-0.1,7
				c0.4,2.6,0.7,5.3,0.8,8c-0.1,1.9-0.2,3.8-0.5,5.7c-1.3-1.3-2.6-2.7-3.8-4c-0.7-1.4-1.2-3-1.4-4.6c-0.4-2.5-0.8-5-2.1-7.2
				c0,0-0.1,0-0.1,0c0,0,0,0,0,0c0.5,2.5,0.5,5.9,1.2,8.9c-1.2-1.6-2.5-3-3.9-4.4l0,0c1,2.6,2.9,5.1,4.4,7.3
				C73.9,194.7,75.6,196.9,77.6,199"/>
		</g>
		<g>
			<path class="st7" d="M89.5,169.3c-1.9,1.4-3.7,2.9-5.2,4.7c-1.3,1.8-2.8,4.3-3.1,5.6c-0.1,2,0,4,0.2,6l0,0c0-1.6,0.2-3.2,0.3-4.8
				c0.5-1.8,1.3-3.5,2.3-5.1c1.3-1.9,2.8-3.6,4.6-5.1c1.3-1.1,2.8-2.5,3.3-4.1c0,0,0,0,0-0.1C91.3,167.5,90.4,168.5,89.5,169.3
				 M80.5,220.6h-4.9c-0.3-2.3-0.1-4.5,0.4-6.8c0.6-2.7,0.9-5.4,1-8.1c0.1-2.3,0.3-4.5,0.7-6.8c-2-2.1-3.8-4.3-5.4-6.6
				c-1.6-2.2-3.5-4.7-4.4-7.3l0,0c0,0,3,4.4,4.3,5.8l-0.4-1.4c-0.6-3-0.6-6.3-1.1-8.8l0.1-0.2c0.5,1.6,0.9,3.2,1.1,4.9
				c0.2,1.8,0.5,5.4,1.2,6.5c0.5,0.9,1.2,1.7,2,2.4c0.9,0.7,2.9,2.9,2.9,2.9l0.1-0.9c0.3-1.9,0.5-3.8,0.5-5.7
				c-0.1-2.7-0.3-5.4-0.8-8c-0.2-2.3-0.1-4.7,0.1-7c-0.1-2.1-0.4-4.2-0.8-6.2c-0.7-2.7-2.2-5.2-2.7-8c0-0.1,0-0.2,0.1-0.2
				c0.2,1,0.5,1.9,0.9,2.8c1,1.9,2.7,6.4,2.7,6.4v-1.4c0.1-3.5,0.1-7.1,0.2-10.6c0,0,0.1,16.5,0.6,19.7s0.9,13,1,21.2
				C80,206,78.5,212.6,80.5,220.6"/>
		</g>
		<g>
			<path class="st6" d="M134.5,197.4c0.9-0.5,1.3-1.5,1.1-2.5c-0.2-0.6-0.7-1.1-1.3-1.3c0.1-0.5,0.1-1-0.1-1.5
				c-0.3-1.4-1-2.7-2.1-3.7c-1.5-1.2-3.7-1-4.9,0.5c-0.5-0.3-1.1-0.4-1.7-0.3c-0.7,0.2-1.3,0.6-1.7,1.2c-1.5-0.9-3.4-0.9-4.8,0.1
				c-1.7,1.1-2.6,3-2.5,5c-2.7,1.2-3.9,6-3.2,8.4c0.6,2.5,3,4.2,5.5,4c0.3,2.7,2.7,4.7,5.4,4.6c3.4,0,5.9-2.5,5.8-5.4
				c0.8,0,1.6-0.2,2.3-0.6c1.5-0.7,2.6-2,3.2-3.6C135.8,200.7,135.5,198.9,134.5,197.4"/>
		</g>
		<g>
			<path class="st6" d="M118.7,207.3c0.3,2.7,2.7,4.7,5.4,4.6c3.4,0,5.9-2.5,5.8-5.4c0.8,0,1.6-0.2,2.3-0.6c1.5-0.7,2.6-2,3.2-3.6
				c0-0.2,0.1-0.4,0.1-0.6c-2,1.2-3.9-1.5-3.9-1.5s-0.7,3.4-3.7,3.1s-3.4-5.2-3.4-5.2s-2.7,0.8-2.8-4.3c-0.1-1.5,0.3-3.1,1-4.4
				c-1.3-0.4-2.8-0.2-3.9,0.5c-1.7,1.1-2.6,3-2.5,5c-2.7,1.2-3.9,6-3.2,8.4C113.8,205.8,116.2,207.5,118.7,207.3"/>
		</g>
		<g>
			<path class="st6" d="M122,184.1c-1.3-1.3-3-2.2-4.8-2.4c-0.3,0-0.6,0-0.9,0c-1.3-2.7-5.9-5.1-7.9-1.6c-0.5-0.2-1-0.3-1.5-0.1
				c-1.2,0.3-1.4,1.4-1.2,2.4c-1.6,0.4-3,1.5-3.8,3c-0.8,2.3-0.1,4.9,1.8,6.4c-0.9,2.1-0.2,4.4,2,6.2c1.4,1.1,3.3,1.2,4.7,0.3
				c0.6,1.1,2,1.5,3.2,0.9c0.5,0.5,1.2,0.8,1.9,1c2.2,0.4,4.4-0.4,5.8-2.1c1.8-1.8,2.2-4.6,1.1-6.9C124.1,189.1,124,186,122,184.1"
				/>
		</g>
		<g>
			<path class="st6" d="M121.2,198c0.9-0.9,1.4-2.1,1.6-3.4c-4,2.3-5.7-2.9-5.7-2.9c-0.1,2-1.9,3.6-4,3.4c-0.2,0-0.4,0-0.6-0.1
				c-4.3-0.6-3-5.8-3-5.8s-1.7,1.4-5-1.2c-2.4-1.9-1.5-3.8-0.7-5c-0.9,0.6-1.5,1.3-2,2.2c-0.8,2.3-0.1,4.9,1.8,6.4
				c-0.9,2.1-0.2,4.4,2,6.2c1.4,1.1,3.3,1.2,4.7,0.3c0.6,1.1,2,1.5,3.2,0.9c0.5,0.5,1.2,0.8,1.9,1c0.1,0,0.3,0.1,0.4,0.1
				c0.5,0,1,0,1.5,0C118.8,199.9,120.2,199.1,121.2,198"/>
		</g>
		<g>
			<path class="st6" d="M134.2,162.3c-0.7-1.5-1.9-2.8-3.4-3.4c-0.3-3.1-2.2-5.8-5.6-6.1c-1.7-0.1-3.4,0.4-4.6,1.5
				c-0.5-1.1-1.8-1.7-3-1.2c-0.1,0-0.2,0.1-0.3,0.2c-0.8,0.5-1.3,1.3-1.4,2.2c-2.7-1-6.7,1.9-7.9,3.9c-1.4,2.3-1.8,6.3-0.2,8.7
				c-0.6,1.1-0.5,2.5,0.1,3.6c0.4,1,1.3,1.8,2.3,2.1c0.5,0.1,1,0,1.4-0.2c0.3,1,0.9,1.9,1.8,2.5c1.2,0.7,2.7,0.8,4,0.3
				c0.7,0.8,1.6,1.3,2.7,1.3c1,0.1,1.9-0.3,2.6-1c0.6,0.8,1.5,1.4,2.5,1.7c2.1,0.5,4.1-0.8,5.6-2.1c1.7-1.5,2.3-4,1.5-6.1
				c0-0.1-0.1-0.2-0.1-0.4C134.6,168.2,135.4,165,134.2,162.3"/>
		</g>
		<g>
			<path class="st6" d="M122.6,176.8c0.6,0.8,1.5,1.4,2.5,1.7c2.1,0.5,4.1-0.8,5.6-2.1c1.1-0.9,1.7-2.2,1.8-3.6
				c-0.9,0.7-2.1,1.1-3.2,0.9c-3.6-0.3-3.9-6.3-3.9-6.3s-1.3,3.8-5.9,2.1s-3-5.4-3-5.4s-3.4,1.9-5.7-2.1c-1.3-2.3,0.1-4.7,1.6-6.3
				c-1.9,0.7-3.5,2-4.6,3.7c-1.4,2.3-1.8,6.3-0.2,8.7c-0.6,1.1-0.5,2.5,0.1,3.6c0.4,1,1.3,1.8,2.3,2.1c0.5,0.1,1,0,1.4-0.2
				c0.3,1,0.9,1.9,1.8,2.5c1.2,0.7,2.7,0.8,4,0.3c0.7,0.8,1.6,1.3,2.7,1.3C121,177.9,122,177.5,122.6,176.8"/>
		</g>
		<g>
			<path class="st7" d="M130.1,197.3c-1.3,1-2.9,1.4-4,2.6l-0.2-0.1c0.9-2.3,1.7-4.7,2.5-7c0.1-0.2-0.2-0.3-0.3-0.1
				c-1.7,3.4-3.5,6.8-5,10.3c-0.4,1-0.9,2.1-1.4,3.1c-0.1-1.1-0.3-2.2-0.4-3.2c-0.2-3.8-0.5-7.7-0.6-11.5c0-1.1-0.1-2.2-0.1-3.3
				c-0.1-1.6,0.2-3.2,0.7-4.7c0.4-1,0.8-1.9,1.2-2.9c1.9-3.7,4.4-6.9,5.4-11c0-0.1-0.1-0.1-0.1-0.1c0,0-0.1,0-0.1,0.1
				c-0.6,1.8-1.5,3.5-2.6,5c-0.1-1.7-0.4-3.4-0.8-5c0-0.1-0.2-0.1-0.2,0c0,1.2,0,2.5,0.1,3.7l0,0c0.1,1.6-0.4,3.1-1.3,4.4
				c-0.8,1.1-1.5,2.3-2.1,3.6c-0.1,0.2-0.2,0.5-0.3,0.8l-0.1-3.9c0-1.1,0-2.3,0-3.4v-0.9c0-1.9,0.2-3.7,0.5-5.6
				c0.6-3,2.1-5.7,2.6-8.7c0-0.1-0.2-0.2-0.2-0.1c-0.6,1.8-1.7,3.2-2.4,4.9c-0.3,0.6-0.5,1.2-0.7,1.9c-0.2-1.8-0.4-3.7-0.7-5.5
				c0,0-0.1-0.1-0.1,0c0,0,0,0,0,0c-0.2,3.1-0.3,6.2-0.3,9.4c-0.4-0.6-0.7-1.2-1.2-1.7c-1.6-2-3.3-3.9-5.1-5.8c0,0-0.1,0-0.1,0
				c1,1.5,2.1,3,3.1,4.5c-1.3-0.6-3-0.4-4.5-0.5c-0.1,0-0.1,0.1,0,0.1c1.9,0.4,3.8,0.5,5.2,2c0.5,0.6,1,1.2,1.4,1.9
				c0.2,0.4,0.4,0.9,0.6,1.4l0.2,0.6c0.2,1.7,0.4,3.5,0.4,5.2c-0.5,6.2-1.2,12.4-1.7,18.6c-0.4-0.8-0.8-1.5-1.2-2.2s-0.9-1.4-1.3-2
				c0,0,0-0.1-0.1-0.1c-2-2.7-4.3-5.1-5.9-8c0-0.1-0.1,0-0.1,0c0.9,1.8,1.9,3.6,3,5.3c0.2,0.4,0.5,0.8,0.7,1.2
				c-0.3-0.2-0.6-0.3-0.9-0.5c-1.5-0.5-3.1-1-4.7-1.4c0,0-0.1,0-0.1,0.1s0,0.1,0.1,0.1c1.4,0.7,2.9,1.3,4.4,2
				c0.3,0.1,0.5,0.3,0.7,0.5c1.2,0.9,2.1,2,2.8,3.3l0.3,0.6c0.3,0.6,0.6,1.2,0.9,1.7c0.7,1.4,1.1,2.9,1,4.5
				c-0.1,1.5-0.1,3.1-0.1,4.6c-0.4,4.8-0.5,9.5-0.1,14.3h7.6c0-0.1-0.1-0.1-0.1-0.2c-0.6-3.3-1.3-6.6-1.9-10l0,0
				c-0.1-0.4,0-0.9,0.1-1.3c0.7-1.8,1.3-3.5,2-5.2l0,0c0.6-1.5,1.7-2.8,3-3.8l0.3-0.3C128.6,198.8,129.3,198,130.1,197.3
				C130.2,197.3,130.2,197.3,130.1,197.3"/>
		</g>
		<g>
			<path class="st7" d="M130.1,197.3c-1.3,1-2.9,1.4-4,2.6l-0.1-0.1l0,0l-0.1-0.1c0.9-2.3,1.7-4.7,2.5-7c0,0,0-0.1,0-0.1
				c-0.7,1.5-2.4,5.5-3,7.1c-0.8,2-2.7,6.4-2.7,6.4c-0.3,1.1-0.5,2.2-0.6,3.4l0,0c0-0.3,0.1-0.5,0.2-0.8c0.7-1.8,1.3-3.5,2-5.2l0,0
				c0.6-1.5,1.7-2.8,3-3.8l0.3-0.3C128.6,198.8,129.3,198,130.1,197.3C130.1,197.4,130.1,197.3,130.1,197.3 M126,199.9L126,199.9
				 M123,178.6c0.9-1.2,1.4-2.6,1.5-4.1c0-1.7-0.2-3.3-0.4-5c0,0-0.1,0-0.1,0.1c0,1.2,0,2.5,0.1,3.7l0,0c0.1,1.6-0.4,3.1-1.3,4.4
				c-0.8,1.1-1.5,2.3-2.1,3.6c-0.1,0.2-0.2,0.5-0.3,0.8l0.2,1.4C121.2,181.8,122,180.2,123,178.6 M120.4,182L120.4,182 M121.8,220.3
				h-5.1c-0.4-4.8-0.3-9.5,0.1-14.3c0-1.5,0-3.1,0.1-4.6c0.1-1.5-0.3-3.1-1-4.5c-0.3-0.6-0.6-1.2-0.9-1.8l-0.3-0.6
				c-0.7-1.3-1.7-2.4-2.8-3.3c-0.2-0.2-0.5-0.3-0.7-0.5c-1.4-0.7-2.9-1.3-4.4-2c-0.1,0,0-0.1,0-0.1c1.6,0.4,3.1,0.8,4.7,1.4
				c0.3,0.1,0.6,0.3,0.9,0.5c-0.2-0.4-0.5-0.8-0.7-1.2c-1.1-1.7-2.1-3.4-3-5.3c0-0.1,0.1-0.1,0.1-0.1c0.2,0.4,0.5,0.9,0.8,1.3
				c0.6,1.2,1.3,2.4,2.2,3.5c1.4,1.7,2.7,3.4,3.7,5.3c0.8,1.4,2,4.3,2,4.3c-0.1-0.7-0.2-1.4-0.2-2.1l0,0c0.4-6.2,1.2-12.4,1.7-18.6
				c0-1.8-0.1-3.5-0.4-5.2l-0.2-0.6c-0.2-0.5-0.4-0.9-0.6-1.4c-0.4-0.6-0.9-1.2-1.4-1.8c-1.3-1.5-3.3-1.5-5.2-2c0,0-0.1-0.1,0-0.1
				c0,0,0,0,0,0c1.5,0,3.1-0.2,4.5,0.5c-1-1.5-2.1-3-3.1-4.5c0,0,0-0.1,0.1,0l0.5,0.5c1.1,1.4,2.7,3.4,3.1,4c1.1,1.4,2,2.9,2.8,4.5
				l-0.1-1.6c0-3,0.1-6,0.3-9c0.1,2,0.3,4.7,0.4,6.2c0.1,2.7,0.2,12.7-0.2,15.4s-1.2,13.9-0.3,21.9c0.7,5.3,1.6,10.5,2.8,15.7"/>
		</g>
	</g>
</g>
<g>
	<rect y="218.6" class="st7" width="143.2" height="2.8"/>
</g>
</svg>
