<?xml version="1.0" encoding="utf-8"?>
<!-- Generator: Adobe Illustrator 25.2.1, SVG Export Plug-In . SVG Version: 6.00 Build 0)  -->
<svg version="1.1" id="Layer_1" xmlns="http://www.w3.org/2000/svg" xmlns:xlink="http://www.w3.org/1999/xlink" x="0px" y="0px"
	 viewBox="0 0 47.73 47.84" style="enable-background:new 0 0 47.73 47.84;" xml:space="preserve">
<style type="text/css">
	.st0{clip-path:url(#SVGID_2_);fill:#FFFFFF;}
	.st1{fill:#EB94A6;}
	.st2{clip-path:url(#SVGID_4_);fill:#C2384A;}
	.st3{clip-path:url(#SVGID_6_);fill:#EB94A6;}
	.st4{clip-path:url(#SVGID_6_);fill:#C2384A;}
	.st5{fill:#C2384A;}
	.st6{clip-path:url(#SVGID_8_);fill:none;stroke:#C2384A;stroke-width:0.706;stroke-miterlimit:10;}
	.st7{clip-path:url(#SVGID_10_);fill:#EB94A6;}
	.st8{clip-path:url(#SVGID_10_);fill:#DEEDF0;}
	.st9{clip-path:url(#SVGID_10_);fill:#C2384A;}
	.st10{clip-path:url(#SVGID_10_);fill:#FFFFFF;}
	.st11{fill:#FFDEDE;}
	.st12{clip-path:url(#SVGID_12_);fill:#EB94A6;}
	.st13{clip-path:url(#SVGID_12_);fill:#C2384A;}
	.st14{clip-path:url(#SVGID_12_);fill:#FFFFFF;}
	.st15{fill:none;stroke:#C2384A;stroke-width:0.754;stroke-miterlimit:10;}
	.st16{clip-path:url(#SVGID_14_);fill:#C2384A;}
	.st17{fill:none;stroke:#C2384A;stroke-width:0.963;stroke-linecap:round;stroke-linejoin:round;stroke-miterlimit:10;}
	.st18{clip-path:url(#SVGID_16_);fill:#C2384A;}
	.st19{clip-path:url(#SVGID_16_);fill:#FFFFFF;}
	.st20{clip-path:url(#SVGID_16_);fill:none;stroke:#C2384A;stroke-width:0.803;stroke-miterlimit:10;}
	.st21{fill:none;stroke:#C2384A;stroke-width:0.803;stroke-linecap:round;stroke-linejoin:round;stroke-miterlimit:10;}
	.st22{clip-path:url(#SVGID_18_);fill:#C2384A;}
	.st23{clip-path:url(#SVGID_20_);fill:#C2384A;}
	.st24{clip-path:url(#SVGID_22_);fill:#C2384A;}
	.st25{fill:#DEEDF0;}
	.st26{clip-path:url(#SVGID_24_);fill:#EB94A6;}
	.st27{clip-path:url(#SVGID_24_);fill:#C2384A;}
	.st28{clip-path:url(#SVGID_26_);fill:#C2384A;}
	.st29{clip-path:url(#SVGID_28_);fill:none;stroke:#C2384A;stroke-width:0.618;stroke-miterlimit:10;}
</style>
<g>
	<defs>
		<rect id="SVGID_1_" x="-397.18" y="-246.89" width="625.5" height="357.06"/>
	</defs>
	<clipPath id="SVGID_2_">
		<use xlink:href="#SVGID_1_"  style="overflow:visible;"/>
	</clipPath>
	<path class="st0" d="M24.02,47.38c13.11,0,23.73-10.62,23.73-23.73S37.13-0.08,24.02-0.08c-13.11,0-23.73,10.62-23.73,23.73
		S10.91,47.38,24.02,47.38"/>
</g>
<g>
	<defs>
		<rect id="SVGID_3_" x="-397.18" y="-246.89" width="625.5" height="357.06"/>
	</defs>
	<clipPath id="SVGID_4_">
		<use xlink:href="#SVGID_3_"  style="overflow:visible;"/>
	</clipPath>
</g>
<g>
	<defs>
		<rect id="SVGID_5_" x="-397.18" y="-246.89" width="625.5" height="357.06"/>
	</defs>
	<clipPath id="SVGID_6_">
		<use xlink:href="#SVGID_5_"  style="overflow:visible;"/>
	</clipPath>
</g>
<g>
	<defs>
		<rect id="SVGID_7_" x="-397.18" y="-246.89" width="625.5" height="357.06"/>
	</defs>
	<clipPath id="SVGID_8_">
		<use xlink:href="#SVGID_7_"  style="overflow:visible;"/>
	</clipPath>
</g>
<g>
	<defs>
		<rect id="SVGID_9_" x="-397.18" y="-246.89" width="625.5" height="357.06"/>
	</defs>
	<clipPath id="SVGID_10_">
		<use xlink:href="#SVGID_9_"  style="overflow:visible;"/>
	</clipPath>
</g>
<g>
	<defs>
		<rect id="SVGID_11_" x="-397.18" y="-246.89" width="625.5" height="357.06"/>
	</defs>
	<clipPath id="SVGID_12_">
		<use xlink:href="#SVGID_11_"  style="overflow:visible;"/>
	</clipPath>
</g>
<g>
	<defs>
		<rect id="SVGID_13_" x="-397.18" y="-246.89" width="625.5" height="357.06"/>
	</defs>
	<clipPath id="SVGID_14_">
		<use xlink:href="#SVGID_13_"  style="overflow:visible;"/>
	</clipPath>
</g>
<g>
	<defs>
		<rect id="SVGID_15_" x="-397.18" y="-246.89" width="625.5" height="357.06"/>
	</defs>
	<clipPath id="SVGID_16_">
		<use xlink:href="#SVGID_15_"  style="overflow:visible;"/>
	</clipPath>
</g>
<g>
	<defs>
		<rect id="SVGID_17_" x="-397.18" y="-246.89" width="625.5" height="357.06"/>
	</defs>
	<clipPath id="SVGID_18_">
		<use xlink:href="#SVGID_17_"  style="overflow:visible;"/>
	</clipPath>
</g>
<g>
	<defs>
		<rect id="SVGID_19_" x="-397.18" y="-246.89" width="625.5" height="357.06"/>
	</defs>
	<clipPath id="SVGID_20_">
		<use xlink:href="#SVGID_19_"  style="overflow:visible;"/>
	</clipPath>
</g>
<g>
	<defs>
		<rect id="SVGID_21_" x="-397.18" y="-246.89" width="625.5" height="357.06"/>
	</defs>
	<clipPath id="SVGID_22_">
		<use xlink:href="#SVGID_21_"  style="overflow:visible;"/>
	</clipPath>
</g>
<g>
	<defs>
		<rect id="SVGID_23_" x="-397.18" y="-246.89" width="625.5" height="357.06"/>
	</defs>
	<clipPath id="SVGID_24_">
		<use xlink:href="#SVGID_23_"  style="overflow:visible;"/>
	</clipPath>
	<path class="st27" d="M25.28,23.57c3.25,0,4.88-1.41,4.88-4.23c0-1.38-0.41-2.36-1.24-2.93c-0.83-0.57-2.04-0.85-3.64-0.85h-3.33
		v8.01H25.28z M15.97,10.81h9.68c1.44,0,2.79,0.14,4.05,0.43c1.26,0.28,2.36,0.76,3.29,1.42c0.93,0.67,1.67,1.54,2.21,2.64
		s0.81,2.45,0.81,4.05c0,1.54-0.28,2.89-0.83,4.03c-0.56,1.14-1.31,2.07-2.26,2.81c-0.95,0.73-2.05,1.27-3.29,1.63
		c-1.25,0.35-2.57,0.53-3.98,0.53h-3.7v8.99h-5.98V10.81z"/>
</g>
<rect x="10.94" y="16.7" class="st5" width="30.15" height="2.4"/>
<rect x="10.94" y="20.23" class="st5" width="30.15" height="2.4"/>
<g>
	<defs>
		<rect id="SVGID_25_" x="-397.18" y="-246.89" width="625.5" height="357.06"/>
	</defs>
	<clipPath id="SVGID_26_">
		<use xlink:href="#SVGID_25_"  style="overflow:visible;"/>
	</clipPath>
</g>
<g>
	<defs>
		<rect id="SVGID_27_" x="-397.18" y="-246.89" width="625.5" height="357.06"/>
	</defs>
	<clipPath id="SVGID_28_">
		<use xlink:href="#SVGID_27_"  style="overflow:visible;"/>
	</clipPath>
</g>
</svg>
