<?xml version="1.0" encoding="utf-8"?>
<!-- Generator: Adobe Illustrator 25.2.1, SVG Export Plug-In . SVG Version: 6.00 Build 0)  -->
<svg version="1.1" id="Layer_1" xmlns="http://www.w3.org/2000/svg" xmlns:xlink="http://www.w3.org/1999/xlink" x="0px" y="0px"
	 viewBox="0 0 47.65 47.84" style="enable-background:new 0 0 47.65 47.84;" xml:space="preserve">
<style type="text/css">
	.st0{clip-path:url(#SVGID_2_);fill:#FFFFFF;}
	.st1{fill:#EB94A6;}
	.st2{clip-path:url(#SVGID_4_);fill:#C2384A;}
	.st3{clip-path:url(#SVGID_6_);fill:#EB94A6;}
	.st4{clip-path:url(#SVGID_6_);fill:#C2384A;}
	.st5{fill:#C2384A;}
	.st6{clip-path:url(#SVGID_8_);fill:none;stroke:#C2384A;stroke-width:0.706;stroke-miterlimit:10;}
	.st7{clip-path:url(#SVGID_10_);fill:#EB94A6;}
	.st8{clip-path:url(#SVGID_10_);fill:#DEEDF0;}
	.st9{clip-path:url(#SVGID_10_);fill:#C2384A;}
	.st10{clip-path:url(#SVGID_10_);fill:#FFFFFF;}
	.st11{fill:#FFDEDE;}
	.st12{clip-path:url(#SVGID_12_);fill:#EB94A6;}
	.st13{clip-path:url(#SVGID_12_);fill:#C2384A;}
	.st14{clip-path:url(#SVGID_12_);fill:#FFFFFF;}
	.st15{fill:none;stroke:#C2384A;stroke-width:0.754;stroke-miterlimit:10;}
	.st16{clip-path:url(#SVGID_14_);fill:#C2384A;}
	.st17{fill:none;stroke:#C2384A;stroke-width:0.963;stroke-linecap:round;stroke-linejoin:round;stroke-miterlimit:10;}
	.st18{clip-path:url(#SVGID_16_);fill:#C2384A;}
	.st19{clip-path:url(#SVGID_16_);fill:#FFFFFF;}
	.st20{clip-path:url(#SVGID_16_);fill:none;stroke:#C2384A;stroke-width:0.803;stroke-miterlimit:10;}
	.st21{fill:none;stroke:#C2384A;stroke-width:0.803;stroke-linecap:round;stroke-linejoin:round;stroke-miterlimit:10;}
	.st22{clip-path:url(#SVGID_18_);fill:#C2384A;}
	.st23{clip-path:url(#SVGID_20_);fill:#C2384A;}
	.st24{clip-path:url(#SVGID_22_);fill:#C2384A;}
	.st25{fill:#DEEDF0;}
	.st26{clip-path:url(#SVGID_24_);fill:#EB94A6;}
	.st27{clip-path:url(#SVGID_24_);fill:#C2384A;}
	.st28{clip-path:url(#SVGID_26_);fill:#C2384A;}
	.st29{clip-path:url(#SVGID_28_);fill:none;stroke:#C2384A;stroke-width:0.618;stroke-miterlimit:10;}
</style>
<g>
	<defs>
		<rect id="SVGID_1_" x="-489.59" y="-246.89" width="625.5" height="357.06"/>
	</defs>
	<clipPath id="SVGID_2_">
		<use xlink:href="#SVGID_1_"  style="overflow:visible;"/>
	</clipPath>
	<path class="st0" d="M23.78,47.38c13.11,0,23.73-10.62,23.73-23.73S36.88-0.08,23.78-0.08c-13.11,0-23.73,10.62-23.73,23.73
		S10.67,47.38,23.78,47.38"/>
</g>
<g>
	<defs>
		<rect id="SVGID_3_" x="-489.59" y="-246.89" width="625.5" height="357.06"/>
	</defs>
	<clipPath id="SVGID_4_">
		<use xlink:href="#SVGID_3_"  style="overflow:visible;"/>
	</clipPath>
</g>
<g>
	<defs>
		<rect id="SVGID_5_" x="-489.59" y="-246.89" width="625.5" height="357.06"/>
	</defs>
	<clipPath id="SVGID_6_">
		<use xlink:href="#SVGID_5_"  style="overflow:visible;"/>
	</clipPath>
</g>
<g>
	<defs>
		<rect id="SVGID_7_" x="-489.59" y="-246.89" width="625.5" height="357.06"/>
	</defs>
	<clipPath id="SVGID_8_">
		<use xlink:href="#SVGID_7_"  style="overflow:visible;"/>
	</clipPath>
</g>
<g>
	<defs>
		<rect id="SVGID_9_" x="-489.59" y="-246.89" width="625.5" height="357.06"/>
	</defs>
	<clipPath id="SVGID_10_">
		<use xlink:href="#SVGID_9_"  style="overflow:visible;"/>
	</clipPath>
</g>
<g>
	<defs>
		<rect id="SVGID_11_" x="-489.59" y="-246.89" width="625.5" height="357.06"/>
	</defs>
	<clipPath id="SVGID_12_">
		<use xlink:href="#SVGID_11_"  style="overflow:visible;"/>
	</clipPath>
</g>
<g>
	<defs>
		<rect id="SVGID_13_" x="-489.59" y="-246.89" width="625.5" height="357.06"/>
	</defs>
	<clipPath id="SVGID_14_">
		<use xlink:href="#SVGID_13_"  style="overflow:visible;"/>
	</clipPath>
</g>
<g>
	<defs>
		<rect id="SVGID_15_" x="-489.59" y="-246.89" width="625.5" height="357.06"/>
	</defs>
	<clipPath id="SVGID_16_">
		<use xlink:href="#SVGID_15_"  style="overflow:visible;"/>
	</clipPath>
</g>
<g>
	<defs>
		<rect id="SVGID_17_" x="-489.59" y="-246.89" width="625.5" height="357.06"/>
	</defs>
	<clipPath id="SVGID_18_">
		<use xlink:href="#SVGID_17_"  style="overflow:visible;"/>
	</clipPath>
</g>
<g>
	<defs>
		<rect id="SVGID_19_" x="-489.59" y="-246.89" width="625.5" height="357.06"/>
	</defs>
	<clipPath id="SVGID_20_">
		<use xlink:href="#SVGID_19_"  style="overflow:visible;"/>
	</clipPath>
</g>
<g>
	<defs>
		<rect id="SVGID_21_" x="-489.59" y="-246.89" width="625.5" height="357.06"/>
	</defs>
	<clipPath id="SVGID_22_">
		<use xlink:href="#SVGID_21_"  style="overflow:visible;"/>
	</clipPath>
</g>
<g>
	<defs>
		<rect id="SVGID_23_" x="-489.59" y="-246.89" width="625.5" height="357.06"/>
	</defs>
	<clipPath id="SVGID_24_">
		<use xlink:href="#SVGID_23_"  style="overflow:visible;"/>
	</clipPath>
</g>
<g>
	<defs>
		<rect id="SVGID_25_" x="-489.59" y="-246.89" width="625.5" height="357.06"/>
	</defs>
	<clipPath id="SVGID_26_">
		<use xlink:href="#SVGID_25_"  style="overflow:visible;"/>
	</clipPath>
	<path class="st28" d="M24.75,23.66c2.46,0,3.69-1.07,3.69-3.2c0-1.05-0.31-1.79-0.94-2.22c-0.63-0.43-1.54-0.64-2.75-0.64h-2.52
		v6.06H24.75z M17.71,13.99h7.32c1.09,0,2.11,0.11,3.06,0.32c0.95,0.21,1.78,0.57,2.49,1.08c0.71,0.5,1.27,1.17,1.68,2
		c0.41,0.83,0.62,1.85,0.62,3.06c0,1.17-0.21,2.18-0.63,3.05c-0.42,0.86-0.99,1.57-1.71,2.12c-0.72,0.55-1.55,0.96-2.49,1.23
		c-0.94,0.27-1.95,0.4-3.02,0.4h-2.8v6.8h-4.52V13.99z"/>
</g>
<rect x="13.9" y="18.45" class="st5" width="22.82" height="1.81"/>
<rect x="13.9" y="21.13" class="st5" width="22.82" height="1.81"/>
<g>
	<defs>
		<rect id="SVGID_27_" x="-489.59" y="-246.89" width="625.5" height="357.06"/>
	</defs>
	<clipPath id="SVGID_28_">
		<use xlink:href="#SVGID_27_"  style="overflow:visible;"/>
	</clipPath>
	<path class="st29" d="M2.31,27.42l1.91-2.5l2.5,1.91 M43.24,25.09c-1,9.86-9.33,17.55-19.45,17.55c-10.07,0-18.36-7.61-19.44-17.4
		 M45.24,20.45l-1.91,2.5l-2.5-1.91 M4.31,22.78c1-9.86,9.33-17.55,19.45-17.55c10.07,0,18.36,7.61,19.44,17.4"/>
</g>
</svg>
