<?xml version="1.0" encoding="utf-8"?>
<!-- Generator: Adobe Illustrator 25.2.1, SVG Export Plug-In . SVG Version: 6.00 Build 0)  -->
<svg version="1.1" id="Layer_1" xmlns="http://www.w3.org/2000/svg" xmlns:xlink="http://www.w3.org/1999/xlink" x="0px" y="0px"
	 viewBox="0 0 47.21 47.62" style="enable-background:new 0 0 47.21 47.62;" xml:space="preserve">
<style type="text/css">
	.st0{clip-path:url(#SVGID_2_);fill:#FFFFFF;}
	.st1{fill:#EB94A6;}
	.st2{clip-path:url(#SVGID_4_);fill:#C2384A;}
	.st3{clip-path:url(#SVGID_6_);fill:#EB94A6;}
	.st4{clip-path:url(#SVGID_6_);fill:#C2384A;}
	.st5{fill:#C2384A;}
	.st6{clip-path:url(#SVGID_8_);fill:none;stroke:#C2384A;stroke-width:0.706;stroke-miterlimit:10;}
	.st7{clip-path:url(#SVGID_10_);fill:#EB94A6;}
	.st8{clip-path:url(#SVGID_10_);fill:#DEEDF0;}
	.st9{clip-path:url(#SVGID_10_);fill:#C2384A;}
	.st10{clip-path:url(#SVGID_10_);fill:#FFFFFF;}
	.st11{fill:#FFDEDE;}
	.st12{clip-path:url(#SVGID_12_);fill:#EB94A6;}
	.st13{clip-path:url(#SVGID_12_);fill:#C2384A;}
	.st14{clip-path:url(#SVGID_12_);fill:#FFFFFF;}
	.st15{fill:none;stroke:#C2384A;stroke-width:0.754;stroke-miterlimit:10;}
	.st16{clip-path:url(#SVGID_14_);fill:#C2384A;}
	.st17{fill:none;stroke:#C2384A;stroke-width:0.963;stroke-linecap:round;stroke-linejoin:round;stroke-miterlimit:10;}
	.st18{clip-path:url(#SVGID_16_);fill:#C2384A;}
	.st19{clip-path:url(#SVGID_16_);fill:#FFFFFF;}
	.st20{clip-path:url(#SVGID_16_);fill:none;stroke:#C2384A;stroke-width:0.803;stroke-miterlimit:10;}
	.st21{fill:none;stroke:#C2384A;stroke-width:0.803;stroke-linecap:round;stroke-linejoin:round;stroke-miterlimit:10;}
	.st22{clip-path:url(#SVGID_18_);fill:#C2384A;}
	.st23{clip-path:url(#SVGID_20_);fill:#C2384A;}
	.st24{clip-path:url(#SVGID_22_);fill:#C2384A;}
	.st25{fill:#DEEDF0;}
	.st26{clip-path:url(#SVGID_24_);fill:#EB94A6;}
	.st27{clip-path:url(#SVGID_24_);fill:#C2384A;}
	.st28{clip-path:url(#SVGID_26_);fill:#C2384A;}
	.st29{clip-path:url(#SVGID_28_);fill:none;stroke:#C2384A;stroke-width:0.618;stroke-miterlimit:10;}
</style>
<g>
	<defs>
		<rect id="SVGID_1_" x="-306.15" y="-246.64" width="625.5" height="357.06"/>
	</defs>
	<clipPath id="SVGID_2_">
		<use xlink:href="#SVGID_1_"  style="overflow:visible;"/>
	</clipPath>
	<path class="st0" d="M23.73,47.62c13.11,0,23.73-10.62,23.73-23.73S36.84,0.16,23.73,0.16C10.62,0.16,0,10.78,0,23.89
		S10.62,47.62,23.73,47.62"/>
</g>
<g>
	<defs>
		<rect id="SVGID_3_" x="-306.15" y="-246.64" width="625.5" height="357.06"/>
	</defs>
	<clipPath id="SVGID_4_">
		<use xlink:href="#SVGID_3_"  style="overflow:visible;"/>
	</clipPath>
</g>
<g>
	<defs>
		<rect id="SVGID_5_" x="-306.15" y="-246.64" width="625.5" height="357.06"/>
	</defs>
	<clipPath id="SVGID_6_">
		<use xlink:href="#SVGID_5_"  style="overflow:visible;"/>
	</clipPath>
</g>
<g>
	<defs>
		<rect id="SVGID_7_" x="-306.15" y="-246.64" width="625.5" height="357.06"/>
	</defs>
	<clipPath id="SVGID_8_">
		<use xlink:href="#SVGID_7_"  style="overflow:visible;"/>
	</clipPath>
</g>
<g>
	<defs>
		<rect id="SVGID_9_" x="-306.15" y="-246.64" width="625.5" height="357.06"/>
	</defs>
	<clipPath id="SVGID_10_">
		<use xlink:href="#SVGID_9_"  style="overflow:visible;"/>
	</clipPath>
</g>
<g>
	<defs>
		<rect id="SVGID_11_" x="-306.15" y="-246.64" width="625.5" height="357.06"/>
	</defs>
	<clipPath id="SVGID_12_">
		<use xlink:href="#SVGID_11_"  style="overflow:visible;"/>
	</clipPath>
</g>
<g>
	<defs>
		<rect id="SVGID_13_" x="-306.15" y="-246.64" width="625.5" height="357.06"/>
	</defs>
	<clipPath id="SVGID_14_">
		<use xlink:href="#SVGID_13_"  style="overflow:visible;"/>
	</clipPath>
</g>
<g>
	<defs>
		<rect id="SVGID_15_" x="-306.15" y="-246.64" width="625.5" height="357.06"/>
	</defs>
	<clipPath id="SVGID_16_">
		<use xlink:href="#SVGID_15_"  style="overflow:visible;"/>
	</clipPath>
</g>
<g>
	<defs>
		<rect id="SVGID_17_" x="-306.15" y="-246.64" width="625.5" height="357.06"/>
	</defs>
	<clipPath id="SVGID_18_">
		<use xlink:href="#SVGID_17_"  style="overflow:visible;"/>
	</clipPath>
</g>
<g>
	<defs>
		<rect id="SVGID_19_" x="-306.15" y="-246.64" width="625.5" height="357.06"/>
	</defs>
	<clipPath id="SVGID_20_">
		<use xlink:href="#SVGID_19_"  style="overflow:visible;"/>
	</clipPath>
</g>
<g>
	<defs>
		<rect id="SVGID_21_" x="-306.15" y="-246.64" width="625.5" height="357.06"/>
	</defs>
	<clipPath id="SVGID_22_">
		<use xlink:href="#SVGID_21_"  style="overflow:visible;"/>
	</clipPath>
	<path class="st24" d="M35.21,41.74H12.25c-1.44,0-2.6-1.16-2.6-2.6V8.96c0-1.44,1.17-2.6,2.6-2.6h22.97c1.44,0,2.6,1.17,2.6,2.6
		v30.17C37.82,40.57,36.65,41.74,35.21,41.74"/>
</g>
<rect x="12.34" y="9.14" class="st25" width="23.41" height="6.55"/>
<g>
	<defs>
		<rect id="SVGID_23_" x="-306.15" y="-246.64" width="625.5" height="357.06"/>
	</defs>
	<clipPath id="SVGID_24_">
		<use xlink:href="#SVGID_23_"  style="overflow:visible;"/>
	</clipPath>
	<path class="st26" d="M18.24,22.59h-4.78c-0.47,0-0.85-0.38-0.85-0.85v-3.68c0-0.47,0.38-0.86,0.85-0.86h4.78
		c0.47,0,0.85,0.38,0.85,0.86v3.68C19.09,22.21,18.71,22.59,18.24,22.59"/>
	<path class="st26" d="M18.24,29.83h-4.78c-0.47,0-0.85-0.38-0.85-0.85v-3.68c0-0.47,0.38-0.86,0.85-0.86h4.78
		c0.47,0,0.85,0.38,0.85,0.86v3.68C19.09,29.45,18.71,29.83,18.24,29.83"/>
	<path class="st26" d="M18.24,37.07h-4.78c-0.47,0-0.85-0.38-0.85-0.85v-3.68c0-0.47,0.38-0.86,0.85-0.86h4.78
		c0.47,0,0.85,0.38,0.85,0.86v3.68C19.09,36.69,18.71,37.07,18.24,37.07"/>
	<path class="st26" d="M26.49,22.59h-4.78c-0.47,0-0.85-0.38-0.85-0.85v-3.68c0-0.47,0.38-0.86,0.85-0.86h4.78
		c0.47,0,0.85,0.38,0.85,0.86v3.68C27.34,22.21,26.96,22.59,26.49,22.59"/>
	<path class="st26" d="M26.49,29.83h-4.78c-0.47,0-0.85-0.38-0.85-0.85v-3.68c0-0.47,0.38-0.86,0.85-0.86h4.78
		c0.47,0,0.85,0.38,0.85,0.86v3.68C27.34,29.45,26.96,29.83,26.49,29.83"/>
	<path class="st26" d="M26.49,37.07h-4.78c-0.47,0-0.85-0.38-0.85-0.85v-3.68c0-0.47,0.38-0.86,0.85-0.86h4.78
		c0.47,0,0.85,0.38,0.85,0.86v3.68C27.34,36.69,26.96,37.07,26.49,37.07"/>
	<path class="st26" d="M34.62,22.59h-4.78c-0.47,0-0.85-0.38-0.85-0.85v-3.68c0-0.47,0.38-0.86,0.85-0.86h4.78
		c0.47,0,0.85,0.38,0.85,0.86v3.68C35.48,22.21,35.1,22.59,34.62,22.59"/>
	<path class="st26" d="M34.62,37.07h-4.78c-0.47,0-0.85-0.38-0.85-0.85V25.29c0-0.47,0.38-0.85,0.85-0.85h4.78
		c0.47,0,0.85,0.38,0.85,0.85v10.92C35.48,36.69,35.1,37.07,34.62,37.07"/>
</g>
<g>
	<defs>
		<rect id="SVGID_25_" x="-306.15" y="-246.64" width="625.5" height="357.06"/>
	</defs>
	<clipPath id="SVGID_26_">
		<use xlink:href="#SVGID_25_"  style="overflow:visible;"/>
	</clipPath>
</g>
<g>
	<defs>
		<rect id="SVGID_27_" x="-306.15" y="-246.64" width="625.5" height="357.06"/>
	</defs>
	<clipPath id="SVGID_28_">
		<use xlink:href="#SVGID_27_"  style="overflow:visible;"/>
	</clipPath>
</g>
</svg>
