<svg id="Layer_1" data-name="Layer 1" xmlns="http://www.w3.org/2000/svg" xmlns:xlink="http://www.w3.org/1999/xlink" viewBox="0 0 436.15 259.16"><defs><style>.cls-1,.cls-2{fill:none;}.cls-2{stroke:#f0e85e;stroke-width:4.25px;}.cls-3{clip-path:url(#clip-path);}.cls-4{font-size:15px;}.cls-10,.cls-4,.cls-7{fill:#c2384a;}.cls-10,.cls-4{font-family:Soleil-Bold, Soleil;font-weight:700;}.cls-5{letter-spacing:0.02em;}.cls-6{letter-spacing:-0.01em;}.cls-7{font-size:10px;font-family:SoleilSb, Soleil;}.cls-8{letter-spacing:0.01em;}.cls-9{letter-spacing:0.01em;}.cls-10{font-size:12px;}.cls-11{letter-spacing:0.05em;}</style><clipPath id="clip-path"><rect class="cls-1" width="436.15" height="259.16"/></clipPath></defs><line class="cls-2" x1="125.91" y1="54.08" x2="165.06" y2="54.08"/><line class="cls-2" x1="273.59" y1="54.08" x2="312.74" y2="54.08"/><line class="cls-2" x1="366.45" y1="109.18" x2="366.45" y2="148.33"/><line class="cls-2" x1="271.59" y1="200.83" x2="310.74" y2="200.83"/><g class="cls-3"><circle class="cls-2" cx="69.7" cy="56.21" r="54.08"/><circle class="cls-2" cx="366.45" cy="56.21" r="54.08"/><circle class="cls-2" cx="366.45" cy="202.96" r="54.08" transform="translate(-36.18 318.56) rotate(-45)"/><circle class="cls-2" cx="218.86" cy="56.21" r="54.08" transform="translate(24.36 171.22) rotate(-45)"/><circle class="cls-2" cx="218.86" cy="202.96" r="54.08" transform="translate(-79.41 214.2) rotate(-45)"/></g><text class="cls-4" transform="translate(48.5 50.04)">Board</text><text class="cls-4" transform="translate(27.98 67.03)">of Dire<tspan class="cls-5" x="47.73" y="0">c</tspan><tspan x="55.68" y="0">tors</tspan></text><text class="cls-4" transform="translate(180.17 207.78)">Employees</text><text class="cls-4" transform="translate(184.82 43.03)">President</text><text class="cls-4" transform="translate(196.15 60.03)">&amp; CEO</text><text class="cls-4" transform="translate(330.23 43.03)"><tspan class="cls-6">C</tspan><tspan x="9.92" y="0">orporate</tspan></text><text class="cls-4" transform="translate(334.8 60.03)">Planning</text><text class="cls-7" transform="translate(186.87 76.2)">Sustainabili<tspan class="cls-8" x="55.12" y="0">t</tspan><tspan x="58.88" y="0">y </tspan></text><text class="cls-7" transform="translate(194.34 87.2)">Champion</text><text class="cls-7" transform="translate(347.8 76.2)">Head of</text><text class="cls-7" transform="translate(334.45 87.2)">Sustainabili<tspan class="cls-9" x="55.12" y="0">t</tspan><tspan x="58.88" y="0">y</tspan></text><text class="cls-10" transform="translate(328.94 186.54)">Business Unit </text><text class="cls-10" transform="translate(336.69 201.54)">Heads and </text><text class="cls-10" transform="translate(321.31 216.54)">Shared Se<tspan class="cls-11" x="58.26" y="0">r</tspan><tspan x="63.34" y="0">vices </tspan></text><text class="cls-10" transform="translate(349.21 231.54)">Heads</text></svg>