<?xml version="1.0" encoding="utf-8"?>
<!-- Generator: Adobe Illustrator 25.2.1, SVG Export Plug-In . SVG Version: 6.00 Build 0)  -->
<svg version="1.1" id="Layer_1" xmlns="http://www.w3.org/2000/svg" xmlns:xlink="http://www.w3.org/1999/xlink" x="0px" y="0px"
	 viewBox="0 0 46.79 47.78" style="enable-background:new 0 0 46.79 47.78;" xml:space="preserve">
<style type="text/css">
	.st0{clip-path:url(#SVGID_2_);fill:#FFFFFF;}
	.st1{fill:#EB94A6;}
	.st2{clip-path:url(#SVGID_4_);fill:#C2384A;}
	.st3{clip-path:url(#SVGID_6_);fill:#EB94A6;}
	.st4{clip-path:url(#SVGID_6_);fill:#C2384A;}
	.st5{fill:#C2384A;}
	.st6{clip-path:url(#SVGID_8_);fill:none;stroke:#C2384A;stroke-width:0.706;stroke-miterlimit:10;}
	.st7{clip-path:url(#SVGID_10_);fill:#EB94A6;}
	.st8{clip-path:url(#SVGID_10_);fill:#DEEDF0;}
	.st9{clip-path:url(#SVGID_10_);fill:#C2384A;}
	.st10{clip-path:url(#SVGID_10_);fill:#FFFFFF;}
	.st11{fill:#FFDEDE;}
	.st12{clip-path:url(#SVGID_12_);fill:#EB94A6;}
	.st13{clip-path:url(#SVGID_12_);fill:#C2384A;}
	.st14{clip-path:url(#SVGID_12_);fill:#FFFFFF;}
	.st15{fill:none;stroke:#C2384A;stroke-width:0.754;stroke-miterlimit:10;}
	.st16{clip-path:url(#SVGID_14_);fill:#C2384A;}
	.st17{fill:none;stroke:#C2384A;stroke-width:0.963;stroke-linecap:round;stroke-linejoin:round;stroke-miterlimit:10;}
	.st18{clip-path:url(#SVGID_16_);fill:#C2384A;}
	.st19{clip-path:url(#SVGID_16_);fill:#FFFFFF;}
	.st20{clip-path:url(#SVGID_16_);fill:none;stroke:#C2384A;stroke-width:0.803;stroke-miterlimit:10;}
	.st21{fill:none;stroke:#C2384A;stroke-width:0.803;stroke-linecap:round;stroke-linejoin:round;stroke-miterlimit:10;}
	.st22{clip-path:url(#SVGID_18_);fill:#C2384A;}
	.st23{clip-path:url(#SVGID_20_);fill:#C2384A;}
	.st24{clip-path:url(#SVGID_22_);fill:#C2384A;}
	.st25{fill:#DEEDF0;}
	.st26{clip-path:url(#SVGID_24_);fill:#EB94A6;}
	.st27{clip-path:url(#SVGID_24_);fill:#C2384A;}
	.st28{clip-path:url(#SVGID_26_);fill:#C2384A;}
	.st29{clip-path:url(#SVGID_28_);fill:none;stroke:#C2384A;stroke-width:0.618;stroke-miterlimit:10;}
</style>
<g>
	<defs>
		<rect id="SVGID_1_" x="-68.03" y="-140.68" width="625.5" height="357.06"/>
	</defs>
	<clipPath id="SVGID_2_">
		<use xlink:href="#SVGID_1_"  style="overflow:visible;"/>
	</clipPath>
	<path class="st0" d="M23.7,47.55c13.11,0,23.73-10.62,23.73-23.73S36.81,0.09,23.7,0.09S-0.03,10.71-0.03,23.82
		S10.59,47.55,23.7,47.55"/>
</g>
<rect x="5.9" y="20.47" class="st1" width="6.24" height="16.38"/>
<rect x="15.21" y="14.55" class="st1" width="6.24" height="22.3"/>
<rect x="33.76" y="9.35" class="st1" width="6.24" height="27.5"/>
<rect x="25.28" y="20.47" class="st1" width="6.24" height="16.38"/>
<g>
	<defs>
		<rect id="SVGID_3_" x="-68.03" y="-140.68" width="625.5" height="357.06"/>
	</defs>
	<clipPath id="SVGID_4_">
		<use xlink:href="#SVGID_3_"  style="overflow:visible;"/>
	</clipPath>
	<path class="st2" d="M31.23,29.65c0.16,0,0.29-0.06,0.4-0.18c3.68-4.25,7.97-8.43,13.86-13.53l-0.03,0.18
		c-0.13,0.7-0.27,1.42-0.29,2.16c0,0.18,0.05,0.33,0.15,0.44c0.11,0.12,0.26,0.19,0.43,0.19c0.29,0,0.59-0.21,0.6-0.62
		c0.02-0.7,0.15-1.4,0.28-2.08c0.13-0.69,0.27-1.4,0.29-2.12c0-0.16-0.06-0.32-0.17-0.45c-0.11-0.12-0.26-0.19-0.42-0.19h0
		c-1.37,0.06-2.75,0.34-4.21,0.86c-0.33,0.12-0.44,0.45-0.4,0.73c0.05,0.32,0.26,0.54,0.53,0.54c0.06,0,0.12-0.01,0.19-0.04
		c0.82-0.29,1.61-0.5,2.37-0.64c-4.05,3.5-7.28,6.51-10.13,9.44c-0.35,0.37-0.7,0.76-1.04,1.15c-0.54,0.61-1.09,1.24-1.68,1.76
		c-0.5,0.43-0.87,0.62-1.26,0.62c-0.4,0-0.81-0.2-1.38-0.48l-0.36-0.17c-2.16-1.03-4.36-2.04-6.55-3c-0.47-0.21-0.98-0.47-1.51-0.74
		c-1.4-0.72-2.99-1.54-4.41-1.57c-1.28,0-2.4,1.12-3.39,2.1c-0.25,0.26-0.5,0.5-0.74,0.71c-3.84,3.45-7.76,7.17-11.67,11.05
		c-0.18,0.18-0.23,0.41-0.15,0.64c0.09,0.26,0.34,0.44,0.58,0.44c0.14,0,0.28-0.06,0.39-0.17c4.01-3.99,8.06-7.81,12.02-11.36
		c1.26-1.13,2.43-1.68,3.59-1.68c0.5,0,1,0.1,1.49,0.31c1.3,0.55,2.6,1.11,3.89,1.68c2.69,1.19,5.45,2.48,8.43,3.93
		C31.03,29.62,31.13,29.65,31.23,29.65"/>
</g>
<g>
	<defs>
		<rect id="SVGID_5_" x="-68.03" y="-140.68" width="625.5" height="357.06"/>
	</defs>
	<clipPath id="SVGID_6_">
		<use xlink:href="#SVGID_5_"  style="overflow:visible;"/>
	</clipPath>
</g>
<g>
	<defs>
		<rect id="SVGID_7_" x="-68.03" y="-140.68" width="625.5" height="357.06"/>
	</defs>
	<clipPath id="SVGID_8_">
		<use xlink:href="#SVGID_7_"  style="overflow:visible;"/>
	</clipPath>
</g>
<g>
	<defs>
		<rect id="SVGID_9_" x="-68.03" y="-140.68" width="625.5" height="357.06"/>
	</defs>
	<clipPath id="SVGID_10_">
		<use xlink:href="#SVGID_9_"  style="overflow:visible;"/>
	</clipPath>
</g>
<g>
	<defs>
		<rect id="SVGID_11_" x="-68.03" y="-140.68" width="625.5" height="357.06"/>
	</defs>
	<clipPath id="SVGID_12_">
		<use xlink:href="#SVGID_11_"  style="overflow:visible;"/>
	</clipPath>
</g>
<g>
	<defs>
		<rect id="SVGID_13_" x="-68.03" y="-140.68" width="625.5" height="357.06"/>
	</defs>
	<clipPath id="SVGID_14_">
		<use xlink:href="#SVGID_13_"  style="overflow:visible;"/>
	</clipPath>
</g>
<g>
	<defs>
		<rect id="SVGID_15_" x="-68.03" y="-140.68" width="625.5" height="357.06"/>
	</defs>
	<clipPath id="SVGID_16_">
		<use xlink:href="#SVGID_15_"  style="overflow:visible;"/>
	</clipPath>
</g>
<g>
	<defs>
		<rect id="SVGID_17_" x="-68.03" y="-140.68" width="625.5" height="357.06"/>
	</defs>
	<clipPath id="SVGID_18_">
		<use xlink:href="#SVGID_17_"  style="overflow:visible;"/>
	</clipPath>
</g>
<g>
	<defs>
		<rect id="SVGID_19_" x="-68.03" y="-140.68" width="625.5" height="357.06"/>
	</defs>
	<clipPath id="SVGID_20_">
		<use xlink:href="#SVGID_19_"  style="overflow:visible;"/>
	</clipPath>
</g>
<g>
	<defs>
		<rect id="SVGID_21_" x="-68.03" y="-140.68" width="625.5" height="357.06"/>
	</defs>
	<clipPath id="SVGID_22_">
		<use xlink:href="#SVGID_21_"  style="overflow:visible;"/>
	</clipPath>
</g>
<g>
	<defs>
		<rect id="SVGID_23_" x="-68.03" y="-140.68" width="625.5" height="357.06"/>
	</defs>
	<clipPath id="SVGID_24_">
		<use xlink:href="#SVGID_23_"  style="overflow:visible;"/>
	</clipPath>
</g>
<g>
	<defs>
		<rect id="SVGID_25_" x="-68.03" y="-140.68" width="625.5" height="357.06"/>
	</defs>
	<clipPath id="SVGID_26_">
		<use xlink:href="#SVGID_25_"  style="overflow:visible;"/>
	</clipPath>
</g>
<g>
	<defs>
		<rect id="SVGID_27_" x="-68.03" y="-140.68" width="625.5" height="357.06"/>
	</defs>
	<clipPath id="SVGID_28_">
		<use xlink:href="#SVGID_27_"  style="overflow:visible;"/>
	</clipPath>
</g>
</svg>
