<?xml version="1.0" encoding="utf-8"?>
<!-- Generator: Adobe Illustrator 24.1.0, SVG Export Plug-In . SVG Version: 6.00 Build 0)  -->
<svg version="1.1" xmlns="http://www.w3.org/2000/svg" xmlns:xlink="http://www.w3.org/1999/xlink" x="0px" y="0px"
	 viewBox="0 0 418.37 76.86" style="enable-background:new 0 0 418.37 76.86;" xml:space="preserve">
<style type="text/css">
	.Arched_x0020_Green{fill:url(#SVGID_1_);stroke:#FFFFFF;stroke-width:0.25;stroke-miterlimit:1;}
	.st0{fill-rule:evenodd;clip-rule:evenodd;fill:#D31245;}
	.st1{fill:#FFFFFF;}
</style>
<linearGradient id="SVGID_1_" gradientUnits="userSpaceOnUse" x1="-191.1436" y1="343.6069" x2="-190.4365" y2="342.8998">
	<stop  offset="0" style="stop-color:#20AC4B"/>
	<stop  offset="0.9831" style="stop-color:#19361A"/>
</linearGradient>
<g id="Layer_1">
	<g>
		<g>
			<path d="M78.26,35.88c-0.17,0-0.44,0.02-0.44,0.13c0,4.16-1.59,11.13-12.23,11.13h-6.31c-0.31,0-0.37-0.07-0.37-0.19l-0.04-19.41
				H61c4.23,0,6.85,2.51,6.85,6.56c0,0.25,0.83,0.25,0.83,0V19.97c0-0.11-0.26-0.12-0.42-0.12c-0.15,0-0.42,0.02-0.42,0.12
				c0,4.11-2.56,6.56-6.85,6.56l-2.1,0.04V8.22c0-0.13,0.06-0.19,0.37-0.19h6.14c8.59,0,9.51,6.98,9.51,9.98
				c0,0.16,0.39,0.17,0.47,0.17c0.08,0,0.47-0.01,0.47-0.17V7.23c0-0.08-0.07-0.21-0.21-0.21H47.4c-0.1,0-0.13,0.27-0.13,0.5
				c0,0.23,0.02,0.5,0.13,0.5h4.81c0.26,0,0.31,0.08,0.31,0.19v38.73c0,0.12-0.05,0.19-0.31,0.19H47.4c-0.1,0-0.13,0.28-0.13,0.5
				c0,0.23,0.02,0.5,0.13,0.5h31.09c0.14,0,0.21-0.08,0.21-0.21V36.01C78.7,35.9,78.42,35.88,78.26,35.88z"/>
			<path d="M95.22,47.14h-3.18c-0.31,0-0.37-0.07-0.37-0.19V5.73c0-0.08-0.07-0.21-0.21-0.21h-8.34c-0.16,0-0.17,0.38-0.17,0.5
				c0,0.12,0.01,0.5,0.17,0.5h3.18c0.31,0,0.37,0.07,0.37,0.19v40.24c0,0.13-0.06,0.19-0.37,0.19h-3.18c-0.16,0-0.17,0.38-0.17,0.5
				c0,0.12,0.01,0.5,0.17,0.5h12.1c0.1,0,0.13-0.27,0.13-0.5C95.35,47.41,95.32,47.14,95.22,47.14z"/>
			<path d="M105.53,12.71c1.81,0,3.28-1.52,3.28-3.39c0-1.91-1.47-3.46-3.28-3.46c-1.78,0-3.22,1.55-3.22,3.46
				C102.3,11.22,103.72,12.71,105.53,12.71z"/>
			<path d="M111.6,47.14h-3.24c-0.26,0-0.31-0.07-0.31-0.19V23.62c0-0.14-0.08-0.21-0.21-0.21h-8.39c-0.1,0-0.12,0.27-0.12,0.5
				c0,0.23,0.02,0.5,0.12,0.5h3.18c0.35,0,0.37,0.06,0.37,0.19v22.35c0,0.13-0.01,0.19-0.37,0.19h-3.18c-0.1,0-0.12,0.28-0.12,0.5
				c0,0.23,0.02,0.5,0.12,0.5h12.16c0.1,0,0.13-0.27,0.13-0.5C111.73,47.41,111.71,47.14,111.6,47.14z"/>
			<path d="M136.33,39.82c-0.17,0-0.44,0.01-0.44,0.12c0,5.11-2.29,7.2-7.89,7.2h-5.96c-0.21,0-0.26-0.03-0.26-0.11l14.65-23.17
				c0.05-0.21,0.05-0.34,0-0.41h-0.08c-0.01,0-0.01-0.01-0.02-0.01h-3.35l-14.94-0.04c-0.14,0-0.21,0.08-0.21,0.21v7.24
				c0,0.21,0.95,0.21,0.95,0c0-4.76,1.84-6.45,7.02-6.45h4.63c0.27,0,0.29,0.05,0.26,0.11l-14.53,23.16
				c-0.09,0.12-0.12,0.25-0.07,0.34c0.04,0.08,0.12,0.12,0.22,0.12h20.26c0.2,0,0.21-0.08,0.21-0.21v-7.99
				C136.77,39.83,136.49,39.82,136.33,39.82z"/>
			<path d="M164.64,45.85c-0.03-0.02-0.05-0.02-0.06-0.01c-0.01,0-0.03-0.01-0.04-0.01c-0.24,0.6-0.93,1.25-1.87,1.25
				c-0.82,0-1.29-0.71-1.29-1.93V33.4c0-6.98-3.13-10.52-9.3-10.52c-4.6,0-7.04,2.65-7.04,4.56c0,1.31,0.73,2.64,2.35,2.64
				c1.91,0,2.59-1.14,2.59-2.12c0-0.43-0.12-0.71-0.25-1.01c-0.13-0.31-0.27-0.63-0.27-1.13c0-1.31,0.83-1.93,2.62-1.93
				c2.13,0,4.3,0.61,4.3,5.17v4.4c0,1.11-3.07,1.38-6.04,1.65l-0.59,0.05c-2.82,0.29-7.56,1.63-7.56,7.39
				c0,3.83,2.94,6.12,7.85,6.12c2.84,0,4.92-1.46,5.99-3.16c0.23-0.35,0.44-0.72,0.58-1.1c0.47,2.59,2.25,4.27,4.54,4.27
				c2.17,0,3.67-1.18,3.97-2.28c0.02-0.04,0.01-0.08-0.03-0.14C165.02,46.11,164.8,45.9,164.64,45.85z M156.38,34.98v6.82
				c0,2.67-2.17,5.63-5.29,5.63c-2.62,0-3.95-1.64-3.95-4.88c0-5.25,1.76-6.04,3.73-6.45c0.46-0.08,0.99-0.14,1.55-0.2
				C153.82,35.75,155.4,35.58,156.38,34.98z M156.65,44.34c0.07,0.42,0.2,0.82,0.35,1.21c-0.15-0.37-0.28-0.75-0.37-1.17
				C156.63,44.37,156.64,44.36,156.65,44.34z"/>
			<path d="M181.95,22.88c-1.85,0-3.4,0.58-4.7,1.76c-0.22,0.19-0.44,0.4-0.64,0.62V5.73c0-0.05,0-0.21-0.21-0.21h-8.34
				c-0.1,0-0.12,0.27-0.12,0.5c0,0.23,0.02,0.5,0.12,0.5h3.24c0.24,0,0.37,0.06,0.37,0.19v40.24c0,0.05,0,0.19-0.37,0.19h-3.24
				c-0.1,0-0.12,0.28-0.12,0.5c0,0.23,0.02,0.5,0.12,0.5h8.34c0.2,0,0.21-0.08,0.21-0.21l-0.04-1.15v-0.82
				c1.51,1.62,3.92,2.7,6.02,2.7c6.88,0,11.5-6.57,11.5-12.71C194.09,29.78,188.89,22.88,181.95,22.88z M181.95,23.89
				c1.08,0,3.07,0.16,4.32,1.21c1.8,1.52,2.71,5.17,2.71,10.86c0,5.61-0.86,8.95-2.71,10.51c-1.04,0.88-2.04,1.21-3.68,1.21
				c-2.16,0-4.95-1.15-5.98-3.67l0-17.06C177.48,24.93,179.96,23.89,181.95,23.89z M176.59,25.27c-0.01,0.01-0.02,0.02-0.03,0.03
				v-8.27L176.59,25.27z M176.56,45.9c0.23,0.25,0.5,0.5,0.79,0.73c-0.28-0.22-0.55-0.45-0.79-0.69V45.9z"/>
			<path d="M209.96,22.88c-6.68,0-11.91,5.66-11.91,12.89c0,7.23,5.23,12.89,11.91,12.89c3.88,0,7.45-2.03,9.82-5.58l-0.02-0.13
				c-0.09-0.15-0.4-0.39-0.56-0.37c-2.2,3.27-5.48,5.08-9.23,5.08c-1.8,0-3.14-0.4-4.2-1.26c-1.81-1.53-2.36-4.01-2.36-10.62
				c0-0.44,0-0.88-0.09-1.24c0-0.02,0-0.04,0-0.05h16.79c0.14,0,0.21-0.08,0.21-0.21C220.3,30.7,217.7,22.88,209.96,22.88z
				 M203.3,33.52c0-0.08,0.01-0.15,0.01-0.23C203.31,33.37,203.31,33.44,203.3,33.52L203.3,33.52z M203.34,33.52
				c0.24-4.91,0.85-7.02,2.42-8.36c1.07-0.86,2.4-1.27,4.2-1.27c1.44,0,2.53,0.41,3.33,1.26c1.37,1.32,1.88,3.41,2.05,8.19
				c0,0.05,0,0.09,0,0.14l-11.14,0.04H203.34z M215.34,33.51C215.34,33.51,215.34,33.52,215.34,33.51l-0.57,0L215.34,33.51z
				 M203.3,34.44h2.47H203.3C203.3,34.45,203.3,34.44,203.3,34.44z"/>
			<path d="M236.79,43.12c-0.66,2.45-1.96,3.91-3.49,3.91c-1.01,0-1.58-0.6-1.58-1.64V24.6c0-0.12,0.05-0.19,0.31-0.19h4.81
				c0.1,0,0.12-0.27,0.12-0.5c0-0.23-0.02-0.5-0.12-0.5h-4.81c-0.26,0-0.31-0.07-0.31-0.19v-9.73c0-0.1-0.48-0.11-0.57-0.11
				c-0.33,0-0.37,0.05-0.37,0.09c-0.73,2.11-2.1,3.33-4.11,3.66v6.08c0,0.13-0.02,0.19-0.37,0.19h-4c-0.1,0-0.13,0.27-0.13,0.5
				c0,0.23,0.02,0.5,0.13,0.5h4c0.35,0,0.37,0.06,0.37,0.19v18.35c0,3.79,1.67,5.71,4.96,5.71c3,0,4.96-1.72,5.83-5.13
				C237.44,43.39,237,43.08,236.79,43.12z"/>
			<path d="M268.2,47.14h-3.18c-0.28,0-0.31-0.05-0.31-0.19V32.59c0-6.08-3.61-9.71-9.65-9.71c-1.88,0-4.09,0.7-5.5,2.53
				c-0.43,0.54-0.79,1.19-1.06,1.94V5.73c0-0.05,0-0.21-0.21-0.21h-8.34c-0.1,0-0.13,0.27-0.13,0.5c0,0.23,0.02,0.5,0.13,0.5h3.24
				c0.24,0,0.37,0.06,0.37,0.19v40.24c0,0.05,0,0.19-0.37,0.19h-3.24c-0.1,0-0.13,0.28-0.13,0.5c0,0.23,0.02,0.5,0.13,0.5h12.1
				c0.1,0,0.12-0.27,0.12-0.5c0-0.23-0.02-0.5-0.12-0.5h-3.18c-0.37,0-0.37-0.15-0.37-0.19l0-17.59c1.28-3.84,3.24-5.47,6.56-5.47
				c1.75,0,4.54,1.59,4.54,5.87v17.19c0,0.14-0.08,0.19-0.25,0.19h-3.19c-0.16,0-0.17,0.38-0.17,0.5c0,0.12,0.01,0.5,0.17,0.5h12.04
				c0.1,0,0.12-0.27,0.12-0.5C268.33,47.41,268.31,47.14,268.2,47.14z M248.5,27.35c-0.01,0.03-0.03,0.05-0.04,0.08V16.8
				L248.5,27.35z"/>
			<path d="M312.03,47.14h-4.81c-0.21,0-0.36-0.1-0.37-0.15L292.2,6.24c-0.05-0.15-0.5-0.16-0.63-0.16c-0.14,0-0.59,0.01-0.63,0.16
				l-13.26,38.5c-0.69,2.26-0.81,2.4-1.3,2.4h-3.95c-0.03,0-0.08,0-0.08,0.5c0,0.5,0.05,0.5,0.08,0.5h10.83
				c0.1,0,0.13-0.27,0.13-0.5c0-0.23-0.02-0.5-0.13-0.5h-4.8c-0.06,0-0.09-0.02-0.1-0.04c-0.11-0.15,0.1-0.84,0.6-2.34l3.5-10.16
				l13.22-0.02l4.3,12.48c-0.02,0.04-0.1,0.09-0.21,0.09h-4.98c-0.1,0-0.13,0.28-0.13,0.5c0,0.23,0.02,0.5,0.13,0.5h17.25
				c0.1,0,0.12-0.27,0.12-0.5C312.15,47.41,312.13,47.14,312.03,47.14z M295.47,33.63h-3.28l3.27-0.01L295.47,33.63z M282.73,33.63
				l1.62-4.71l-1.6,4.71H282.73z M282.77,33.63l6.38-18.58l4.83,14.19l1.47,4.35l-9.09,0.04H282.77z M299.99,47.05
				c0,0.02-0.01,0.03-0.03,0.05C299.98,47.08,299.99,47.06,299.99,47.05z"/>
			<path d="M327.95,22.88c-2.59,0-4.2,0.9-5.24,2.99c-0.23,0.44-0.44,0.91-0.63,1.47v-3.72c0-0.13-0.01-0.21-0.21-0.21h-8.34
				c-0.1,0-0.13,0.27-0.13,0.5c0,0.23,0.02,0.5,0.13,0.5h3.18c0.31,0,0.37,0.07,0.37,0.19v22.35c0,0.13-0.06,0.19-0.37,0.19h-3.18
				c-0.1,0-0.13,0.28-0.13,0.5c0,0.23,0.02,0.5,0.13,0.5h12.1c0.1,0,0.13-0.27,0.13-0.5c0-0.23-0.02-0.5-0.13-0.5h-3.24
				c-0.26,0-0.31-0.07-0.31-0.19V29.82c0.92-3.74,2.23-5.41,4.25-5.41c0.9,0,1.46,0.56,1.46,1.47c0,0.45-0.15,0.71-0.3,0.99
				c-0.18,0.33-0.39,0.71-0.39,1.44c0,1.2,1.11,2.07,2.64,2.07c1.29,0,2.59-1,2.59-3.22C332.33,25.02,330.97,22.88,327.95,22.88z
				 M322.08,27.35c-0.01,0.03-0.02,0.06-0.04,0.09v-1.88L322.08,27.35z"/>
			<path d="M361.53,47.14h-3.18c-0.31,0-0.37-0.07-0.37-0.19V5.73c0-0.07-0.07-0.21-0.15-0.21h-8.34c-0.1,0-0.12,0.27-0.12,0.5
				c0,0.23,0.02,0.5,0.12,0.5h3.19c0.26,0,0.31,0.08,0.31,0.19l0.04,10.49v8.04c-1.42-1.58-3.18-2.36-5.39-2.36
				c-6.95,0-12.14,6.9-12.14,13.07c0,6.14,4.65,12.71,11.56,12.71c2.88,0,4.82-1.43,5.58-2.59c0.16-0.22,0.28-0.43,0.34-0.61v2.47
				c0,0.14,0.08,0.21,0.21,0.21h8.34c0.16,0,0.17-0.42,0.17-0.5S361.69,47.14,361.53,47.14z M340.66,35.95
				c0-5.78,0.9-9.33,2.77-10.86c1.18-1,2.94-1.21,4.2-1.21c2.08,0,4.58,1.04,5.35,3.03v15.92c0,2.4-1.83,4.82-5.92,4.82
				c-1.62,0-2.56-0.32-3.62-1.21C341.54,44.91,340.66,41.57,340.66,35.95z M353.02,25.26v0.04c-0.22-0.25-0.45-0.47-0.69-0.68
				C352.56,24.81,352.79,25.02,353.02,25.26z M353.02,45.38v1.25l-0.04-1.17C352.99,45.43,353.01,45.4,353.02,45.38z"/>
			<path d="M375.93,22.88c-6.68,0-11.91,5.66-11.91,12.89c0,7.23,5.23,12.89,11.91,12.89c3.88,0,7.45-2.03,9.82-5.58l-0.02-0.13
				c-0.09-0.15-0.41-0.39-0.56-0.37c-2.2,3.27-5.48,5.08-9.23,5.08c-1.8,0-3.14-0.4-4.2-1.26c-1.81-1.53-2.36-4.01-2.36-10.62
				c0-0.44,0-0.88-0.09-1.24c0-0.02,0-0.04,0-0.05h16.79c0.14,0,0.21-0.08,0.21-0.21C386.28,30.7,383.67,22.88,375.93,22.88z
				 M369.27,33.52c0-0.08,0.01-0.15,0.01-0.23C369.28,33.36,369.28,33.44,369.27,33.52L369.27,33.52z M369.31,33.52
				c0.24-4.91,0.85-7.02,2.42-8.36c1.06-0.86,2.4-1.27,4.2-1.27c1.44,0,2.53,0.41,3.33,1.26c1.37,1.32,1.89,3.41,2.05,8.19
				c0,0.05,0,0.09,0,0.14l-11.14,0.04H369.31z M381.32,33.51C381.32,33.51,381.32,33.52,381.32,33.51l-0.57,0L381.32,33.51z
				 M369.27,34.44h2.47H369.27C369.28,34.45,369.28,34.44,369.27,34.44z"/>
			<path d="M418.2,47.14h-3.19c-0.28,0-0.31-0.05-0.31-0.19V32.59c0-6.08-3.58-9.71-9.59-9.71c-2.34,0-4.28,0.9-5.52,2.47
				c0,0-0.01,0.01-0.01,0.01c-0.16,0.2-0.29,0.41-0.42,0.63c-0.26,0.41-0.49,0.85-0.66,1.35v-3.73c0-0.13-0.01-0.21-0.21-0.21h-8.34
				c-0.1,0-0.12,0.27-0.12,0.5c0,0.23,0.02,0.5,0.12,0.5h3.24c0.37,0,0.37,0.14,0.37,0.19v22.35c0,0.05,0,0.19-0.37,0.19h-3.24
				c-0.1,0-0.12,0.28-0.12,0.5c0,0.23,0.02,0.5,0.12,0.5h12.1c0.1,0,0.12-0.27,0.12-0.5c0-0.23-0.02-0.5-0.12-0.5h-3.18
				c-0.37,0-0.37-0.15-0.37-0.19l0-17.59c1.28-3.84,3.26-5.47,6.62-5.47c1.75,0,4.54,1.59,4.54,5.87v17.19
				c0,0.12-0.05,0.19-0.31,0.19h-3.19c-0.06,0-0.09,0.1-0.1,0.18c-0.01,0.09-0.02,0.21-0.02,0.32c0,0.23,0.02,0.5,0.12,0.5h12.04
				c0.16,0,0.17-0.42,0.17-0.5S418.36,47.14,418.2,47.14z M398.49,27.36c-0.01,0.03-0.03,0.05-0.04,0.08v-1.87L398.49,27.36z"/>
		</g>
		<path d="M278.39,70.01c-0.45-0.49-1.08-1.28-1.08-1.28s0.12,0.95,0.12,1.65v6.32h-1.65V65.13h0.24l6.32,6.79
			c0.44,0.47,1.06,1.28,1.06,1.28s-0.12-1.01-0.12-1.65v-6.3h1.65v11.58h-0.22L278.39,70.01z"/>
		<path d="M296.66,65.24h7.28v1.56h-5.5v4.45h4.87v1.53h-4.87v2.34h5.73v1.57h-7.52V65.24z"/>
		<path d="M314.45,65.24h1.87l2.02,6.1c0.22,0.64,0.44,1.64,0.44,1.64s0.29-0.98,0.56-1.64l2.63-6.22h0.22l2.65,6.22
			c0.27,0.64,0.54,1.64,0.54,1.64s0.23-1,0.45-1.64l2.03-6.1h1.73l-3.96,11.58h-0.22l-2.85-6.83c-0.24-0.56-0.47-1.4-0.47-1.4
			s-0.27,0.84-0.51,1.4l-2.92,6.83h-0.22L314.45,65.24z"/>
		<path d="M349.84,73.08l-4.35-7.83h1.97l2.6,4.72c0.35,0.64,0.69,1.65,0.69,1.65s0.36-1.01,0.69-1.65l2.51-4.72h1.84l-4.16,7.74
			v3.72h-1.79V73.08z"/>
		<path d="M365.07,70.97c0-3.42,2.63-5.88,5.92-5.88c3.27,0,5.9,2.46,5.9,5.88c0,3.42-2.63,5.88-5.9,5.88
			C367.7,76.86,365.07,74.39,365.07,70.97z M375.07,70.97c0-2.45-1.68-4.29-4.08-4.29s-4.1,1.84-4.1,4.29s1.7,4.28,4.1,4.28
			S375.07,73.42,375.07,70.97z"/>
		<path d="M396.03,76.7h-2.06l-2.06-3.02c-0.32,0.04-0.64,0.07-0.96,0.07h-1.08v2.95h-1.79V65.24h2.87c3.17,0,4.94,1.65,4.94,4.28
			c0,1.77-0.79,2.99-2.29,3.64L396.03,76.7z M390.89,72.22c2.28,0,3.19-0.99,3.19-2.7c0-1.72-0.94-2.71-3.19-2.71h-1.01v5.41H390.89
			z"/>
		<path d="M409.78,70.1l3.71-4.85h2.02l-4.06,5.36l4.52,6.1h-2.16l-3.54-4.79l-1.23,1.5v3.28h-1.79V65.24h1.79v4.72
			c0,0.52-0.07,1.21-0.13,1.68C409.16,71.13,409.5,70.49,409.78,70.1z"/>
		<g>
			<path class="st0" d="M0,0v55.19h28.08V0H0z"/>
		</g>
		<g>
			<path class="st1" d="M24.77,30.91h-9.6v-6.95h9.6V30.91L24.77,30.91z M16.38,29.7h7.18v-4.54h-7.18V29.7L16.38,29.7z"/>
		</g>
		<g>
			<path class="st1" d="M12.88,30.91h-9.6v-6.95h9.6V30.91L12.88,30.91z M4.49,29.7h7.18v-4.54H4.49V29.7L4.49,29.7z"/>
		</g>
		<g>
			<path class="st1" d="M24.77,21.89h-9.6V3.3h9.6V21.89L24.77,21.89z M16.38,20.68h7.18V4.51h-7.18V20.68L16.38,20.68z"/>
		</g>
		<g>
			<path class="st1" d="M12.88,21.89h-9.6V3.3h9.6V21.89L12.88,21.89z M4.49,20.68h7.18V4.51H4.49V20.68L4.49,20.68z"/>
		</g>
		<g>
			<path class="st1" d="M24.77,51.59h-9.6V33h9.6V51.59L24.77,51.59z M16.38,50.38h7.18V34.21h-7.18V50.38L16.38,50.38z"/>
		</g>
		<g>
			<path class="st1" d="M12.88,51.59h-9.6V33h9.6V51.59L12.88,51.59z M4.49,50.38h7.18V34.21H4.49V50.38L4.49,50.38z"/>
		</g>
	</g>
</g>
<g id="Layer_2">
</g>
</svg>
