<?xml version="1.0" encoding="utf-8"?>
<!-- Generator: Adobe Illustrator 25.2.1, SVG Export Plug-In . SVG Version: 6.00 Build 0)  -->
<svg version="1.1" id="Layer_1" xmlns="http://www.w3.org/2000/svg" xmlns:xlink="http://www.w3.org/1999/xlink" x="0px" y="0px"
	 viewBox="0 0 577.4 233.4" style="enable-background:new 0 0 577.4 233.4;" xml:space="preserve">
<style type="text/css">
	.st0{fill:#730526;}
	.st1{fill:#C2384A;}
	.st2{enable-background:new    ;}
	.st3{clip-path:url(#SVGID_2_);}
	.st4{fill:#32121A;}
	.st5{clip-path:url(#SVGID_4_);}
	.st6{clip-path:url(#SVGID_6_);}
</style>
<g>
	<g>
		<rect x="208.3" y="70.3" class="st0" width="66.6" height="1"/>
	</g>
	<g>
		<rect x="208.7" y="203.6" class="st0" width="66.6" height="1"/>
	</g>
	<g>
		<rect x="395.1" y="81.9" class="st0" width="66.6" height="1"/>
	</g>
	<g>
		<rect x="374.4" y="217.2" class="st0" width="86.6" height="1"/>
	</g>
	<g>
		<rect x="208.3" y="44.6" class="st1" width="66.6" height="1"/>
	</g>
	<g>
		<rect x="208.7" y="172.9" class="st1" width="66.6" height="1"/>
	</g>
	<g>
		<rect x="395.1" y="44.2" class="st1" width="66.6" height="1"/>
	</g>
	<g>
		<rect x="394.4" y="179.5" class="st1" width="66.6" height="1"/>
	</g>
	<g class="st2">
		<path class="st0" d="M236.3,63.8v-1.1c1-1.1,2.2-2.4,3-3.6c0.4-0.5,0.8-1.2,0.8-1.8c0-0.8-0.7-1.2-1.4-1.2s-1.4,0.5-1.4,1.3
			l-1.2-0.2c0.1-1.3,1.4-2.2,2.6-2.2c1.4,0,2.6,0.9,2.6,2.3c0,0.8-0.4,1.7-0.9,2.4c-0.7,1.1-1.6,2.1-2.5,3h3.8v1.1H236.3z"/>
	</g>
	<g class="st2">
		<path class="st0" d="M243.9,63.2c1.6-0.7,2.9-1.7,3.3-3.4c-0.5,0.5-1.2,0.8-2,0.8c-1.5,0-2.5-1.2-2.5-2.8s1.2-2.8,2.7-2.8
			c2,0,3.2,1.6,3.2,3.4c0,2.8-1.9,4.9-4.3,5.8L243.9,63.2z M247.4,58.5c0-1.2-0.5-2.3-1.8-2.3c-1,0-1.6,0.8-1.6,1.8s0.6,1.7,1.5,1.7
			C246.3,59.6,247,59.1,247.4,58.5z"/>
		<path class="st0" d="M250.1,63.8v-1.5h1.4v1.5H250.1z"/>
	</g>
	<g class="st2">
		<path class="st0" d="M258,56.1c-1.1,2.2-2.7,5.8-3.6,8l-1.1-0.5c1.2-2.7,2.7-5.8,3.4-7.3h-4.1v-1.1h5.5L258,56.1L258,56.1z"/>
	</g>
	<g class="st2">
		<path class="st0" d="M264.3,56.7c0,1.1-0.9,2.1-2.1,2.1s-2.1-0.9-2.1-2.1c0-1.2,0.9-2.1,2.1-2.1C263.4,54.6,264.3,55.6,264.3,56.7
			z M261.2,56.7c0,0.7,0.5,1.2,1.1,1.2s1.1-0.5,1.1-1.2s-0.5-1.1-1.1-1.1C261.6,55.6,261.2,56.1,261.2,56.7z M268.6,55.1l-6.5,8.9
			l-0.7-0.5l6.5-8.9L268.6,55.1z M269.7,61.8c0,1.1-0.9,2.1-2.1,2.1s-2.1-0.9-2.1-2.1c0-1.2,0.9-2.1,2.1-2.1
			C268.8,59.8,269.7,60.7,269.7,61.8z M266.6,61.8c0,0.7,0.5,1.2,1.1,1.2s1.1-0.5,1.1-1.2s-0.5-1.1-1.1-1.1
			C267,60.7,266.6,61.2,266.6,61.8z"/>
	</g>
	<g class="st2">
		<path class="st0" d="M240.2,197.1v-2.2h-3.9v-1.3c1.1-1.4,2.7-3.5,3.8-5.1h1.3v5.4h1.3v1.1h-1.3v2.2L240.2,197.1L240.2,197.1z
			 M240.2,193.8v-3.7c-0.8,1.2-2,2.8-2.6,3.7H240.2z"/>
	</g>
	<g class="st2">
		<path class="st0" d="M248.4,189c-1.6,0.7-2.9,1.7-3.3,3.4c0.5-0.5,1.2-0.8,2-0.8c1.5,0,2.5,1.2,2.5,2.8s-1.2,2.8-2.7,2.8
			c-2,0-3.2-1.6-3.2-3.4c0-2.8,1.9-4.9,4.3-5.8L248.4,189z M244.9,193.8c0,1.2,0.5,2.3,1.8,2.3c1,0,1.6-0.8,1.6-1.8
			s-0.6-1.7-1.5-1.7C246,192.7,245.2,193.1,244.9,193.8z"/>
		<path class="st0" d="M251,197.1v-1.5h1.4v1.5H251z"/>
	</g>
	<g class="st2">
		<path class="st0" d="M254,194.7c0-1,0.5-1.7,1.3-2.2c-0.7-0.4-1.1-0.9-1.1-1.9c0-1.3,1.1-2.4,2.7-2.4s2.7,1.1,2.7,2.4
			c0,0.9-0.4,1.5-1.1,1.9c0.8,0.4,1.3,1.1,1.3,2.2c0,1.4-1.2,2.5-2.9,2.5S254,196.1,254,194.7z M255.3,194.6c0,0.9,0.8,1.5,1.7,1.5
			c0.9,0,1.7-0.6,1.7-1.5c0-0.8-0.8-1.5-1.7-1.5C256,193.1,255.3,193.8,255.3,194.6z M255.5,190.7c0,0.7,0.7,1.3,1.4,1.3
			s1.4-0.6,1.4-1.3c0-0.8-0.6-1.3-1.4-1.3S255.5,189.9,255.5,190.7z"/>
	</g>
	<g class="st2">
		<path class="st0" d="M266.4,190c0,1.1-0.9,2.1-2.1,2.1s-2.1-0.9-2.1-2.1s0.9-2.1,2.1-2.1S266.4,188.8,266.4,190z M263.2,190
			c0,0.7,0.5,1.2,1.1,1.2s1.1-0.5,1.1-1.2c0-0.7-0.5-1.1-1.1-1.1C263.7,188.8,263.2,189.3,263.2,190z M270.6,188.3l-6.5,8.9
			l-0.7-0.5l6.5-8.9L270.6,188.3z M271.8,195.1c0,1.1-0.9,2.1-2.1,2.1s-2.1-0.9-2.1-2.1s0.9-2.1,2.1-2.1
			C270.9,193,271.8,193.9,271.8,195.1z M268.6,195.1c0,0.7,0.5,1.2,1.1,1.2s1.1-0.5,1.1-1.2c0-0.7-0.5-1.1-1.1-1.1
			C269.1,193.9,268.6,194.4,268.6,195.1z"/>
	</g>
	<g class="st2">
		<path class="st0" d="M424.3,70.4c0.5,0,0.9,0,1.2-0.1c0.7-0.2,1.2-0.7,1.2-1.3c0-0.7-0.6-1.2-1.4-1.2c-0.6,0-1.2,0.3-1.4,0.9
			l-1-0.4c0.3-0.9,1.3-1.6,2.5-1.6c1.6,0,2.7,0.9,2.7,2.3c0,0.8-0.4,1.5-1.1,1.8c0.9,0.3,1.5,1.1,1.5,2.1c0,1.7-1.3,2.7-2.9,2.7
			c-1.1,0-2.2-0.5-2.7-1.4l1-0.5c0.4,0.6,1,0.9,1.7,0.9c0.9,0,1.7-0.5,1.7-1.5c0-0.9-0.8-1.5-1.8-1.5c-0.3,0-0.6,0-1,0.1v-1.3H424.3
			z"/>
	</g>
	<g class="st2">
		<path class="st0" d="M434.7,67.7c-1.1,2.2-2.7,5.8-3.6,8l-1.1-0.5c1.2-2.7,2.7-5.8,3.4-7.3h-4.1v-1.1h5.5L434.7,67.7L434.7,67.7z"
			/>
	</g>
	<g class="st2">
		<path class="st0" d="M434.9,75.4v-1.5h1.4v1.5H434.9z"/>
	</g>
	<g class="st2">
		<path class="st0" d="M438.1,75.4v-1.1c1-1.1,2.2-2.4,3-3.6c0.4-0.5,0.8-1.2,0.8-1.8c0-0.8-0.7-1.2-1.4-1.2c-0.7,0-1.4,0.5-1.4,1.3
			l-1.2-0.2c0.1-1.3,1.4-2.2,2.6-2.2c1.4,0,2.6,0.9,2.6,2.3c0,0.8-0.4,1.7-0.9,2.4c-0.7,1.1-1.6,2.1-2.5,3h3.8v1.1L438.1,75.4
			L438.1,75.4z"/>
	</g>
	<g class="st2">
		<path class="st0" d="M449.8,68.3c0,1.1-0.9,2.1-2.1,2.1s-2.1-0.9-2.1-2.1s0.9-2.1,2.1-2.1C448.9,66.3,449.8,67.2,449.8,68.3z
			 M446.6,68.3c0,0.7,0.5,1.2,1.1,1.2s1.1-0.5,1.1-1.2s-0.5-1.1-1.1-1.1S446.6,67.7,446.6,68.3z M454,66.7l-6.5,8.9l-0.7-0.5
			l6.5-8.9L454,66.7z M455.2,73.4c0,1.1-0.9,2.1-2.1,2.1s-2.1-0.9-2.1-2.1s0.9-2.1,2.1-2.1S455.2,72.3,455.2,73.4z M452,73.4
			c0,0.7,0.5,1.2,1.1,1.2s1.1-0.5,1.1-1.2s-0.5-1.1-1.1-1.1C452.5,72.3,452,72.8,452,73.4z"/>
	</g>
	<g class="st2">
		<path class="st0" d="M422.4,210.7v-1.1c1-1.1,2.2-2.4,3-3.6c0.4-0.5,0.8-1.2,0.8-1.8c0-0.8-0.7-1.2-1.4-1.2
			c-0.7,0-1.4,0.5-1.4,1.3l-1.2-0.2c0.1-1.3,1.4-2.2,2.6-2.2c1.4,0,2.6,0.9,2.6,2.3c0,0.8-0.4,1.7-0.9,2.4c-0.7,1.1-1.6,2.1-2.5,3
			h3.8v1.1H422.4z"/>
		<path class="st0" d="M433.5,202.7c-1.6,0.7-2.9,1.7-3.3,3.4c0.5-0.5,1.2-0.8,2-0.8c1.5,0,2.5,1.2,2.5,2.8s-1.2,2.8-2.7,2.8
			c-2,0-3.2-1.6-3.2-3.4c0-2.8,1.9-4.9,4.3-5.8L433.5,202.7z M430,207.4c0,1.2,0.5,2.3,1.8,2.3c1,0,1.6-0.8,1.6-1.8
			s-0.6-1.7-1.5-1.7C431.1,206.3,430.4,206.8,430,207.4z"/>
		<path class="st0" d="M436.1,210.7v-1.5h1.4v1.5H436.1z"/>
	</g>
	<g class="st2">
		<path class="st0" d="M445.1,206.4c0,2.8-1.1,4.5-3.1,4.5s-3.1-1.7-3.1-4.5c0-2.8,1.1-4.5,3.1-4.5S445.1,203.6,445.1,206.4z
			 M440.2,206.4c0,2.2,0.7,3.4,1.8,3.4c1.1,0,1.8-1.1,1.8-3.4s-0.7-3.4-1.8-3.4C440.9,203,440.2,204.1,440.2,206.4z"/>
	</g>
	<g class="st2">
		<path class="st0" d="M451.4,203.6c0,1.1-0.9,2.1-2.1,2.1s-2.1-0.9-2.1-2.1s0.9-2.1,2.1-2.1S451.4,202.5,451.4,203.6z M448.2,203.6
			c0,0.7,0.5,1.2,1.1,1.2s1.1-0.5,1.1-1.2c0-0.7-0.5-1.1-1.1-1.1S448.2,202.9,448.2,203.6z M455.6,202l-6.5,8.9l-0.7-0.5l6.5-8.9
			L455.6,202z M456.8,208.7c0,1.1-0.9,2.1-2.1,2.1s-2.1-0.9-2.1-2.1s0.9-2.1,2.1-2.1C455.9,206.6,456.8,207.6,456.8,208.7z
			 M453.6,208.7c0,0.7,0.5,1.2,1.1,1.2s1.1-0.5,1.1-1.2c0-0.7-0.5-1.1-1.1-1.1S453.6,208.1,453.6,208.7z"/>
	</g>
	<g class="st2">
		<path class="st1" d="M241.1,30.4c-1.1,2.2-2.7,5.8-3.6,8l-1.1-0.5c1.2-2.7,2.7-5.8,3.4-7.3h-4.1v-1.1h5.5L241.1,30.4L241.1,30.4z"
			/>
	</g>
	<g class="st2">
		<path class="st1" d="M248,33.8c0,2.8-1.1,4.5-3.1,4.5s-3.1-1.7-3.1-4.5s1.1-4.5,3.1-4.5S248,31,248,33.8z M243.1,33.8
			c0,2.2,0.7,3.4,1.8,3.4s1.8-1.1,1.8-3.4s-0.7-3.4-1.8-3.4S243.1,31.6,243.1,33.8z"/>
		<path class="st1" d="M249.4,38.1v-1.5h1.4v1.5H249.4z"/>
	</g>
	<g class="st2">
		<path class="st1" d="M253.7,33.1c0.5,0,0.9,0,1.2-0.1c0.7-0.2,1.2-0.7,1.2-1.3c0-0.7-0.6-1.2-1.4-1.2c-0.6,0-1.2,0.3-1.4,0.9
			l-1-0.4c0.3-0.9,1.3-1.6,2.5-1.6c1.6,0,2.7,0.9,2.7,2.3c0,0.8-0.4,1.5-1.1,1.8c0.9,0.3,1.5,1.1,1.5,2.1c0,1.7-1.3,2.7-2.9,2.7
			c-1.1,0-2.2-0.5-2.7-1.4l1-0.5c0.4,0.6,1,0.9,1.7,0.9c0.9,0,1.7-0.5,1.7-1.5c0-0.9-0.8-1.5-1.8-1.5c-0.3,0-0.6,0-1,0.1v-1.3H253.7
			z"/>
	</g>
	<g class="st2">
		<path class="st1" d="M264.3,31c0,1.1-0.9,2.1-2.1,2.1s-2.1-0.9-2.1-2.1c0-1.2,0.9-2.1,2.1-2.1C263.4,28.9,264.3,29.9,264.3,31z
			 M261.1,31c0,0.7,0.5,1.2,1.1,1.2s1.1-0.5,1.1-1.2s-0.5-1.1-1.1-1.1S261.1,30.4,261.1,31z M268.5,29.4l-6.5,8.9l-0.7-0.5l6.5-8.9
			L268.5,29.4z M269.7,36.1c0,1.1-0.9,2.1-2.1,2.1s-2.1-0.9-2.1-2.1c0-1.2,0.9-2.1,2.1-2.1C268.8,34.1,269.7,35,269.7,36.1z
			 M266.5,36.1c0,0.7,0.5,1.2,1.1,1.2s1.1-0.5,1.1-1.2s-0.5-1.1-1.1-1.1S266.5,35.5,266.5,36.1z"/>
	</g>
	<g class="st2">
		<path class="st1" d="M241.5,158.8h-3.3c0,0.8-0.1,1.7-0.2,2.4c0.4-0.2,0.8-0.2,1.3-0.2c1.4,0,2.6,1.1,2.6,2.7
			c0,1.6-1.2,2.9-2.9,2.9c-1.1,0-2.3-0.6-2.7-1.4l1-0.5c0.3,0.6,0.9,0.9,1.6,0.9c1.1,0,1.8-0.8,1.8-1.7s-0.7-1.6-1.7-1.6
			c-0.5,0-1,0.2-1.3,0.5l-0.9-0.5c0.1-1.3,0.2-3.2,0.3-4.4h4.4L241.5,158.8L241.5,158.8z"/>
	</g>
	<g class="st2">
		<path class="st1" d="M244.5,161.3c0.5,0,0.9,0,1.2-0.1c0.7-0.2,1.2-0.7,1.2-1.3c0-0.7-0.6-1.2-1.4-1.2c-0.6,0-1.2,0.3-1.4,0.9
			l-1-0.4c0.3-0.9,1.3-1.6,2.5-1.6c1.6,0,2.7,0.9,2.7,2.3c0,0.8-0.4,1.5-1.1,1.8c0.9,0.3,1.5,1.1,1.5,2.1c0,1.7-1.3,2.7-2.9,2.7
			c-1.1,0-2.2-0.5-2.7-1.4l1-0.5c0.4,0.6,1,0.9,1.7,0.9c0.9,0,1.7-0.5,1.7-1.5c0-0.9-0.8-1.5-1.8-1.5c-0.3,0-0.6,0-1,0.1v-1.3H244.5
			z"/>
	</g>
	<g class="st2">
		<path class="st1" d="M250.2,166.4v-1.5h1.4v1.5H250.2z"/>
	</g>
	<g class="st2">
		<path class="st1" d="M253.4,166.4v-1.1c1-1.1,2.2-2.4,3-3.6c0.4-0.5,0.8-1.2,0.8-1.8c0-0.8-0.7-1.2-1.4-1.2
			c-0.7,0-1.4,0.5-1.4,1.3l-1.2-0.2c0.1-1.3,1.4-2.2,2.6-2.2c1.4,0,2.6,0.9,2.6,2.3c0,0.8-0.4,1.7-0.9,2.4c-0.7,1.1-1.6,2.1-2.5,3
			h3.8v1.1H253.4z"/>
	</g>
	<g class="st2">
		<path class="st1" d="M265.1,159.3c0,1.1-0.9,2.1-2.1,2.1s-2.1-0.9-2.1-2.1c0-1.2,0.9-2.1,2.1-2.1
			C264.2,157.2,265.1,158.1,265.1,159.3z M262,159.3c0,0.7,0.5,1.2,1.1,1.2s1.1-0.5,1.1-1.2c0-0.7-0.5-1.1-1.1-1.1
			C262.5,158.1,262,158.6,262,159.3z M269.4,157.6l-6.5,8.9l-0.7-0.5l6.5-8.9L269.4,157.6z M270.5,164.4c0,1.1-0.9,2.1-2.1,2.1
			s-2.1-0.9-2.1-2.1c0-1.2,0.9-2.1,2.1-2.1S270.5,163.2,270.5,164.4z M267.4,164.4c0,0.7,0.5,1.2,1.1,1.2s1.1-0.5,1.1-1.2
			c0-0.7-0.5-1.1-1.1-1.1C267.8,163.2,267.4,163.7,267.4,164.4z"/>
	</g>
	<g class="st2">
		<path class="st1" d="M427.6,29.7c-1.6,0.7-2.9,1.7-3.3,3.4c0.5-0.5,1.2-0.8,2-0.8c1.5,0,2.5,1.2,2.5,2.8s-1.2,2.8-2.7,2.8
			c-2,0-3.2-1.6-3.2-3.4c0-2.8,1.9-4.9,4.3-5.8L427.6,29.7z M424.1,34.4c0,1.2,0.5,2.3,1.8,2.3c1,0,1.6-0.8,1.6-1.8
			s-0.6-1.7-1.5-1.7C425.2,33.4,424.4,33.8,424.1,34.4z"/>
		<path class="st1" d="M430,37.7v-1.1c1-1.1,2.2-2.4,3-3.6c0.3-0.5,0.8-1.2,0.8-1.8c0-0.8-0.7-1.2-1.4-1.2c-0.7,0-1.4,0.5-1.4,1.3
			l-1.2-0.2c0.1-1.3,1.4-2.2,2.6-2.2c1.4,0,2.6,0.9,2.6,2.3c0,0.8-0.4,1.7-0.9,2.4c-0.7,1.1-1.6,2.1-2.5,3h3.8v1.1H430z"/>
		<path class="st1" d="M436.8,37.7v-1.5h1.4v1.5H436.8z"/>
	</g>
	<g class="st2">
		<path class="st1" d="M439.9,35.3c0-1,0.5-1.7,1.3-2.2c-0.7-0.4-1.1-0.9-1.1-1.9c0-1.3,1.1-2.4,2.7-2.4s2.7,1.1,2.7,2.4
			c0,0.9-0.4,1.5-1.1,1.9c0.8,0.4,1.3,1.1,1.3,2.2c0,1.4-1.2,2.5-2.9,2.5S439.9,36.8,439.9,35.3z M441.1,35.3c0,0.9,0.8,1.5,1.7,1.5
			c0.9,0,1.7-0.6,1.7-1.5c0-0.8-0.8-1.5-1.7-1.5S441.1,34.5,441.1,35.3z M441.3,31.4c0,0.7,0.7,1.3,1.4,1.3s1.4-0.6,1.4-1.3
			c0-0.8-0.7-1.3-1.4-1.3S441.3,30.6,441.3,31.4z"/>
	</g>
	<g class="st2">
		<path class="st1" d="M452.2,30.6c0,1.1-0.9,2.1-2.1,2.1s-2-0.9-2-2.1s0.9-2.1,2.1-2.1S452.2,29.5,452.2,30.6z M449.1,30.6
			c0,0.7,0.5,1.2,1.1,1.2s1.1-0.5,1.1-1.2s-0.5-1.1-1.1-1.1S449.1,30,449.1,30.6z M456.5,29l-6.5,8.9l-0.7-0.5l6.5-8.9L456.5,29z
			 M457.6,35.7c0,1.1-0.9,2.1-2.1,2.1s-2.1-0.9-2.1-2.1c0-1.2,0.9-2.1,2.1-2.1C456.7,33.7,457.6,34.6,457.6,35.7z M454.5,35.7
			c0,0.7,0.5,1.2,1.1,1.2s1.1-0.5,1.1-1.2s-0.5-1.1-1.1-1.1C454.9,34.6,454.5,35.1,454.5,35.7z"/>
	</g>
	<g class="st2">
		<path class="st1" d="M427.2,165.3c-1.1,2.2-2.7,5.8-3.6,8l-1.1-0.5c1.2-2.7,2.7-5.8,3.4-7.3h-4.1v-1.1h5.5L427.2,165.3
			L427.2,165.3z"/>
	</g>
	<g class="st2">
		<path class="st1" d="M431.4,173v-2.2h-3.9v-1.3c1.1-1.4,2.7-3.5,3.8-5.1h1.3v5.4h1.3v1.1h-1.3v2.2L431.4,173L431.4,173z
			 M431.4,169.7V166c-0.8,1.2-2,2.8-2.6,3.7H431.4z"/>
		<path class="st1" d="M435.1,173v-1.5h1.4v1.5H435.1z"/>
	</g>
	<g class="st2">
		<path class="st1" d="M444.1,168.7c0,2.8-1.1,4.5-3.1,4.5s-3.1-1.7-3.1-4.5c0-2.8,1.1-4.5,3.1-4.5S444.1,165.9,444.1,168.7z
			 M439.2,168.7c0,2.2,0.7,3.4,1.8,3.4c1.1,0,1.8-1.1,1.8-3.4s-0.7-3.4-1.8-3.4C439.9,165.3,439.2,166.4,439.2,168.7z"/>
	</g>
	<g class="st2">
		<path class="st1" d="M450.4,165.9c0,1.1-0.9,2.1-2.1,2.1s-2.1-0.9-2.1-2.1c0-1.2,0.9-2.1,2.1-2.1S450.4,164.7,450.4,165.9z
			 M447.2,165.9c0,0.7,0.5,1.2,1.1,1.2s1.1-0.5,1.1-1.2c0-0.7-0.5-1.1-1.1-1.1C447.7,164.7,447.2,165.2,447.2,165.9z M454.6,164.3
			l-6.5,8.9l-0.7-0.5l6.5-8.9L454.6,164.3z M455.8,171c0,1.1-0.9,2.1-2.1,2.1s-2.1-0.9-2.1-2.1s0.9-2.1,2.1-2.1
			S455.8,169.9,455.8,171z M452.6,171c0,0.7,0.5,1.2,1.1,1.2s1.1-0.5,1.1-1.2c0-0.7-0.5-1.1-1.1-1.1S452.6,170.3,452.6,171z"/>
	</g>
	<g>
		<g>
			<defs>
				<rect id="SVGID_1_" x="-1.9" y="0.6" width="602.9" height="232.2"/>
			</defs>
			<clipPath id="SVGID_2_">
				<use xlink:href="#SVGID_1_"  style="overflow:visible;"/>
			</clipPath>
			<g class="st3">
				<g>
					<path class="st1" d="M165.5,107.9c-2.8,0-5.6-0.2-8.5-0.7c-14.1-2.2-26.4-9.8-34.8-21.3s-11.7-25.6-9.5-39.7l0,0
						c4.6-29,31.9-48.9,60.9-44.3h0.1c14.1,2.2,26.4,9.8,34.8,21.3c8.4,11.5,11.7,25.6,9.5,39.7s-9.8,26.4-21.3,34.8
						C187.5,104.4,176.6,107.9,165.5,107.9z M127.5,48.6c-3.3,20.9,11,40.5,31.8,43.8c10.1,1.6,20.2-0.8,28.5-6.8s13.7-14.9,15.3-25
						s-0.8-20.2-6.8-28.5s-14.9-13.7-25-15.3h-0.1C150.4,13.5,130.8,27.8,127.5,48.6L127.5,48.6z"/>
				</g>
				<g>
					<path class="st0" d="M165.4,229.1c-29.4,0-53.3-23.9-53.3-53.3c0-29.4,23.9-53.3,53.3-53.3s53.3,23.9,53.3,53.3
						C218.7,205.2,194.8,229.1,165.4,229.1z M165.4,137.5c-21.1,0-38.3,17.2-38.3,38.3s17.2,38.3,38.3,38.3s38.3-17.2,38.3-38.3
						S186.5,137.5,165.4,137.5z"/>
				</g>
				<g>
					<path class="st0" d="M352.1,107.5c-10.5,0-20.8-3.1-29.8-9.2c-11.8-8-19.8-20.1-22.5-34.1s0.2-28.2,8.2-40
						c8.1-11.7,20.1-19.7,34.1-22.4s28.2,0.2,40,8.2s19.8,20.1,22.5,34.1s-0.2,28.2-8.2,40s-20.1,19.8-34.1,22.5
						C358.9,107.2,355.5,107.5,352.1,107.5z M352.3,15.9c-2.4,0-4.9,0.2-7.3,0.7c-10,1.9-18.7,7.7-24.5,16.1
						c-5.7,8.5-7.8,18.7-5.9,28.7s7.7,18.7,16.1,24.5c8.5,5.7,18.7,7.8,28.7,5.9s18.7-7.7,24.5-16.1s7.8-18.7,5.9-28.7
						s-7.7-18.7-16.1-24.5C367.3,18.1,359.9,15.9,352.3,15.9z"/>
				</g>
				<g>
					<path class="st0" d="M351.5,232.8c-24.2,0-46.1-16.6-51.9-41.1c-6.8-28.6,11-57.4,39.6-64.1c13.9-3.3,28.2-1,40.3,6.5
						c12.1,7.5,20.6,19.2,23.9,33.1c6.8,28.6-11,57.4-39.6,64.1C359.7,232.3,355.6,232.8,351.5,232.8z M351.6,141.1
						c-3,0-5.9,0.3-8.9,1l0,0c-20.6,4.9-33.3,25.5-28.5,46.1c4.9,20.6,25.5,33.3,46.1,28.5c20.6-4.9,33.3-25.5,28.5-46.1
						c-2.4-10-8.4-18.4-17.1-23.8C365.5,143.1,358.6,141.1,351.6,141.1z"/>
				</g>
			</g>
		</g>
	</g>
	<g class="st2">
		<path class="st0" d="M142,44.5c0,0.9-0.7,1.5-1.5,1.5s-1.5-0.6-1.5-1.5s0.7-1.5,1.5-1.5S142,43.6,142,44.5z M144.9,43.3l-4.5,6.1
			l-0.6-0.4l4.5-6.1L144.9,43.3z M139.8,44.5c0,0.4,0.3,0.7,0.7,0.7s0.6-0.3,0.6-0.7s-0.3-0.7-0.6-0.7
			C140.1,43.8,139.8,44.1,139.8,44.5z M145.7,47.9c0,0.9-0.7,1.5-1.5,1.5s-1.5-0.6-1.5-1.5s0.7-1.5,1.5-1.5
			C145,46.4,145.7,47,145.7,47.9z M143.5,47.9c0,0.4,0.3,0.7,0.7,0.7s0.6-0.3,0.6-0.7s-0.3-0.7-0.6-0.7
			C143.8,47.2,143.5,47.5,143.5,47.9z"/>
		<path class="st0" d="M153.5,47c0,1.4-1,2.4-2.4,2.4s-2.4-1.1-2.4-2.4c0-1.4,1-2.4,2.4-2.4S153.5,45.6,153.5,47z M151.1,45.5
			c-0.8,0-1.3,0.7-1.3,1.5s0.5,1.5,1.3,1.5s1.3-0.7,1.3-1.5C152.4,46.2,151.9,45.5,151.1,45.5z"/>
		<path class="st0" d="M157,43.6c-0.2-0.1-0.4-0.1-0.6-0.1c-0.2,0-0.4,0.1-0.4,0.2c-0.1,0.1-0.2,0.4-0.2,0.7v0.4h1.2v0.8h-1.2v3.7
			h-1.1v-3.7h-0.5v-0.9h0.5v-0.5c0-0.5,0.1-0.9,0.3-1.2s0.6-0.5,1.3-0.5c0.4,0,0.7,0.1,1.1,0.2L157,43.6z"/>
	</g>
	<g class="st2">
		<path class="st0" d="M164,47.8L164,47.8l0.8-3.2h1.1l-1.3,4.6h-1.1l-0.8-3l0,0l-0.9,3h-1.2l-1.3-4.6h1.2l0.8,3.2l0,0l0.9-3.2h1
			L164,47.8z"/>
	</g>
	<g class="st2">
		<path class="st0" d="M171.1,47c0,1.4-1,2.4-2.4,2.4s-2.4-1.1-2.4-2.4c0-1.4,1-2.4,2.4-2.4S171.1,45.6,171.1,47z M168.7,45.5
			c-0.8,0-1.3,0.7-1.3,1.5s0.5,1.5,1.3,1.5s1.3-0.7,1.3-1.5C170,46.2,169.5,45.5,168.7,45.5z"/>
		<path class="st0" d="M173.2,45.3c0.3-0.5,0.6-0.8,1.1-0.8c0.2,0,0.4,0,0.6,0.1l-0.2,1c-0.1-0.1-0.3-0.1-0.4-0.1
			c-0.4,0-0.7,0.2-1,0.6v3.1h-1.2v-4.6h1L173.2,45.3z"/>
	</g>
	<g class="st2">
		<path class="st0" d="M178.3,49.3l-1.2-1.9l-0.6,0.7v1.2h-1.1v-6.7h1.1v4.2l0,0l1.6-2.1h1.3l-1.6,1.9l1.8,2.7
			C179.6,49.3,178.3,49.3,178.3,49.3z"/>
	</g>
	<g class="st2">
		<path class="st0" d="M180.9,47.3c0.1,0.7,0.5,1.3,1.3,1.3c0.6,0,1-0.2,1.3-0.7l0.7,0.5c-0.5,0.8-1.1,1.1-2.1,1.1
			c-1.4,0-2.3-1-2.3-2.4s1-2.5,2.3-2.5s2.2,0.9,2.2,2.2c0,0.2,0,0.4,0,0.5C184.3,47.3,180.9,47.3,180.9,47.3z M182.1,45.4
			c-0.7,0-1.1,0.5-1.2,1h2.2C183.1,45.9,182.7,45.4,182.1,45.4z"/>
		<path class="st0" d="M186.3,45.3c0.3-0.5,0.6-0.8,1.1-0.8c0.2,0,0.4,0,0.6,0.1l-0.2,1c-0.1-0.1-0.3-0.1-0.4-0.1
			c-0.4,0-0.7,0.2-1,0.6v3.1h-1.1v-4.6h1L186.3,45.3z"/>
		<path class="st0" d="M191,45.8c-0.2-0.2-0.6-0.4-0.9-0.4c-0.3,0-0.5,0.2-0.5,0.5s0.4,0.5,0.8,0.6c0.6,0.2,1.4,0.5,1.4,1.4
			c0,1-0.8,1.5-1.7,1.5c-0.7,0-1.3-0.3-1.8-0.8L189,48c0.3,0.3,0.6,0.5,1.1,0.5c0.3,0,0.7-0.2,0.7-0.5s-0.5-0.5-0.9-0.7
			c-0.5-0.2-1.3-0.5-1.3-1.4s0.8-1.4,1.6-1.4c0.6,0,1.1,0.2,1.5,0.6L191,45.8z"/>
	</g>
	<g class="st2">
		<path class="st0" d="M131.8,53.9v-1h1.1v1H131.8z M131.8,59.3v-4.6h1.1v4.6H131.8z"/>
		<path class="st0" d="M135.2,54.7l0.1,0.7c0.4-0.5,0.9-0.8,1.5-0.8s1,0.2,1.3,0.6c0.3,0.5,0.4,1.1,0.4,1.7v2.4h-1.1V57
			c0-0.4,0-0.8-0.2-1.1c-0.1-0.2-0.4-0.4-0.7-0.4c-0.4,0-0.9,0.3-1.2,0.7v3.1h-1.1v-4.6C134.2,54.7,135.2,54.7,135.2,54.7z"/>
		<path class="st0" d="M143.1,55.6v1.9c0,0.1,0,0.2,0,0.4c0,0.4,0.2,0.6,0.5,0.6c0.2,0,0.4,0,0.5-0.1l0.3,0.8
			c-0.3,0.2-0.7,0.2-1,0.2c-0.7,0-1.1-0.4-1.3-0.9c-0.1-0.2-0.1-0.5-0.1-0.9v-2h-0.6v-0.9h0.6l0.1-1.1h1v1.1h1.2v0.9H143.1z"/>
		<path class="st0" d="M146.4,55.3c0.4-0.5,0.9-0.7,1.4-0.7c0.6,0,1,0.2,1.3,0.6c0.3,0.5,0.4,1.1,0.4,1.7v2.4h-1.1V57
			c0-0.4,0-0.8-0.2-1.1c-0.1-0.2-0.4-0.4-0.7-0.4c-0.4,0-0.9,0.3-1.2,0.7v3.1h-1.1v-6.7h1.1v2.7H146.4z"/>
		<path class="st0" d="M151.6,57.3c0.1,0.7,0.5,1.3,1.3,1.3c0.6,0,1-0.2,1.3-0.7l0.7,0.5c-0.5,0.8-1.1,1.1-2.1,1.1
			c-1.4,0-2.3-1-2.3-2.4s1-2.5,2.3-2.5s2.2,0.9,2.2,2.2c0,0.2,0,0.4,0,0.5C155,57.3,151.6,57.3,151.6,57.3z M152.8,55.4
			c-0.7,0-1.1,0.5-1.2,1h2.2C153.8,55.9,153.4,55.4,152.8,55.4z"/>
	</g>
	<g class="st2">
		<path class="st0" d="M162.3,57.8L162.3,57.8l0.8-3.2h1.1l-1.3,4.6h-1.1l-0.8-3l0,0l-0.9,3h-1.2l-1.3-4.6h1.2l0.8,3.2l0,0l0.9-3.2
			h1L162.3,57.8z"/>
	</g>
	<g class="st2">
		<path class="st0" d="M169.4,57c0,1.4-1,2.4-2.4,2.4s-2.4-1.1-2.4-2.4c0-1.4,1-2.4,2.4-2.4S169.4,55.6,169.4,57z M167,55.5
			c-0.8,0-1.3,0.7-1.3,1.5s0.5,1.5,1.3,1.5s1.3-0.7,1.3-1.5C168.3,56.2,167.8,55.5,167,55.5z"/>
		<path class="st0" d="M171.5,55.3c0.3-0.5,0.6-0.8,1.1-0.8c0.2,0,0.4,0,0.6,0.1l-0.2,1c-0.1-0.1-0.3-0.1-0.4-0.1
			c-0.4,0-0.7,0.2-1,0.6v3.1h-1.1v-4.6h1L171.5,55.3z"/>
		<path class="st0" d="M176.5,59.3l-1.2-1.9l-0.6,0.7v1.2h-1.1v-6.7h1.1v4.2l0,0l1.6-2.1h1.3l-1.5,1.9l1.8,2.7H176.5z"/>
		<path class="st0" d="M181,53.6c-0.2-0.1-0.4-0.1-0.6-0.1c-0.2,0-0.4,0.1-0.4,0.2c-0.1,0.1-0.2,0.4-0.2,0.7v0.4h1.2v0.8h-1.2v3.7
			h-1.1v-3.7h-0.5v-0.9h0.5v-0.5c0-0.5,0.1-0.9,0.3-1.2s0.6-0.5,1.3-0.5c0.4,0,0.7,0.1,1.1,0.2L181,53.6z"/>
		<path class="st0" d="M186.2,57c0,1.4-1,2.4-2.4,2.4s-2.4-1.1-2.4-2.4c0-1.4,1-2.4,2.4-2.4S186.2,55.6,186.2,57z M183.8,55.5
			c-0.8,0-1.3,0.7-1.3,1.5s0.5,1.5,1.3,1.5s1.3-0.7,1.3-1.5C185.1,56.2,184.5,55.5,183.8,55.5z"/>
		<path class="st0" d="M188.2,55.3c0.3-0.5,0.6-0.8,1.1-0.8c0.2,0,0.4,0,0.6,0.1l-0.2,1c-0.1-0.1-0.3-0.1-0.4-0.1
			c-0.4,0-0.7,0.2-1,0.6v3.1h-1.1v-4.6h1L188.2,55.3z"/>
		<path class="st0" d="M194.1,58.9c-0.4,0.4-0.9,0.5-1.6,0.5c-1.4,0-2.4-1-2.4-2.4s1-2.4,2.4-2.4c0.6,0,1.1,0.2,1.5,0.5l-0.5,0.8
			c-0.3-0.2-0.6-0.4-0.9-0.4c-0.8,0-1.3,0.7-1.3,1.5c0,0.9,0.6,1.5,1.3,1.5c0.3,0,0.7-0.1,0.9-0.3L194.1,58.9z"/>
		<path class="st0" d="M195.7,57.3c0.1,0.7,0.5,1.3,1.3,1.3c0.6,0,1-0.2,1.3-0.7l0.7,0.5c-0.5,0.8-1.1,1.1-2.1,1.1
			c-1.4,0-2.3-1-2.3-2.4s1-2.5,2.3-2.5s2.2,0.9,2.2,2.2c0,0.2,0,0.4,0,0.5C199.1,57.3,195.7,57.3,195.7,57.3z M197,55.4
			c-0.7,0-1.1,0.5-1.2,1h2.2C198,55.9,197.5,55.4,197,55.4z"/>
	</g>
	<g class="st2">
		<path class="st0" d="M142.4,161.7c0,0.9-0.7,1.5-1.5,1.5s-1.5-0.6-1.5-1.5s0.7-1.5,1.5-1.5S142.4,160.8,142.4,161.7z M145.3,160.5
			l-4.5,6.1l-0.6-0.4l4.5-6.1L145.3,160.5z M140.2,161.7c0,0.4,0.3,0.7,0.7,0.7s0.6-0.3,0.6-0.7s-0.3-0.7-0.6-0.7
			C140.5,161,140.2,161.3,140.2,161.7z M146.1,165.1c0,0.9-0.7,1.5-1.5,1.5s-1.5-0.6-1.5-1.5s0.7-1.5,1.5-1.5
			S146.1,164.3,146.1,165.1z M143.9,165.1c0,0.4,0.3,0.7,0.7,0.7s0.6-0.3,0.6-0.7s-0.3-0.7-0.6-0.7
			C144.2,164.4,143.9,164.7,143.9,165.1z"/>
		<path class="st0" d="M153.9,164.2c0,1.4-1,2.4-2.4,2.4s-2.4-1.1-2.4-2.4c0-1.4,1-2.4,2.4-2.4S153.9,162.9,153.9,164.2z
			 M151.5,162.8c-0.8,0-1.3,0.7-1.3,1.5c0,0.8,0.5,1.5,1.3,1.5s1.3-0.7,1.3-1.5C152.8,163.4,152.3,162.8,151.5,162.8z"/>
		<path class="st0" d="M157.4,160.8c-0.2-0.1-0.4-0.1-0.6-0.1c-0.2,0-0.4,0.1-0.4,0.2c-0.1,0.1-0.2,0.4-0.2,0.7v0.4h1.2v0.9h-1.2
			v3.7h-1.1v-3.7h-0.5V162h0.5v-0.5c0-0.5,0.1-0.9,0.3-1.2c0.2-0.3,0.6-0.5,1.3-0.5c0.4,0,0.7,0.1,1.1,0.2L157.4,160.8z"/>
	</g>
	<g class="st2">
		<path class="st0" d="M164.4,165.1L164.4,165.1l0.8-3.2h1.1l-1.3,4.6h-1.1l-0.8-3l0,0l-0.9,3H161l-1.3-4.6h1.2l0.8,3.2l0,0l0.9-3.2
			h1L164.4,165.1z"/>
	</g>
	<g class="st2">
		<path class="st0" d="M171.5,164.2c0,1.4-1,2.4-2.4,2.4s-2.4-1.1-2.4-2.4c0-1.4,1-2.4,2.4-2.4S171.5,162.9,171.5,164.2z
			 M169.1,162.8c-0.8,0-1.3,0.7-1.3,1.5c0,0.8,0.5,1.5,1.3,1.5s1.3-0.7,1.3-1.5C170.4,163.4,169.9,162.8,169.1,162.8z"/>
		<path class="st0" d="M173.6,162.6c0.3-0.5,0.6-0.8,1.1-0.8c0.2,0,0.4,0,0.6,0.1l-0.2,1c-0.1-0.1-0.3-0.1-0.4-0.1
			c-0.4,0-0.7,0.2-1,0.6v3.1h-1.1v-4.6h1L173.6,162.6z"/>
	</g>
	<g class="st2">
		<path class="st0" d="M178.7,166.6l-1.2-1.9l-0.6,0.7v1.2h-1.1v-6.8h1.1v4.2l0,0l1.6-2.1h1.3l-1.6,1.9l1.8,2.7h-1.3V166.6z"/>
	</g>
	<g class="st2">
		<path class="st0" d="M181.2,164.5c0.1,0.7,0.5,1.3,1.3,1.3c0.6,0,1-0.2,1.3-0.7l0.7,0.5c-0.5,0.8-1.1,1.1-2.1,1.1
			c-1.4,0-2.3-1-2.3-2.4s1-2.5,2.3-2.5s2.2,0.9,2.2,2.2c0,0.2,0,0.4,0,0.5H181.2L181.2,164.5z M182.5,162.7c-0.7,0-1.1,0.5-1.2,1
			h2.2C183.5,163.1,183.1,162.7,182.5,162.7z"/>
		<path class="st0" d="M186.7,162.6c0.3-0.5,0.6-0.8,1.1-0.8c0.2,0,0.4,0,0.6,0.1l-0.2,1c-0.1-0.1-0.3-0.1-0.4-0.1
			c-0.4,0-0.7,0.2-1,0.6v3.1h-1.1v-4.6h1L186.7,162.6z"/>
		<path class="st0" d="M191.4,163c-0.2-0.2-0.6-0.4-0.9-0.4c-0.3,0-0.5,0.2-0.5,0.5c0,0.3,0.4,0.5,0.8,0.6c0.6,0.2,1.4,0.5,1.4,1.4
			c0,1-0.8,1.5-1.7,1.5c-0.7,0-1.3-0.3-1.8-0.8l0.7-0.6c0.3,0.3,0.6,0.5,1.1,0.5c0.3,0,0.7-0.2,0.7-0.5c0-0.3-0.5-0.5-0.9-0.7
			c-0.5-0.2-1.3-0.5-1.3-1.4s0.8-1.4,1.6-1.4c0.6,0,1.1,0.2,1.5,0.6L191.4,163z"/>
	</g>
	<g class="st2">
		<path class="st0" d="M141.1,171.2v-1h1.1v1H141.1z M141.1,176.6V172h1.1v4.6H141.1z"/>
		<path class="st0" d="M144.5,171.9l0.1,0.7c0.4-0.5,0.9-0.8,1.5-0.8s1,0.2,1.3,0.6c0.3,0.5,0.4,1.1,0.4,1.7v2.4h-1.1v-2.3
			c0-0.4,0-0.8-0.2-1.1c-0.1-0.2-0.4-0.4-0.7-0.4c-0.4,0-0.9,0.3-1.2,0.7v3.1h-1.1v-4.6H144.5L144.5,171.9z"/>
	</g>
	<g class="st2">
		<path class="st0" d="M152,174.5c0.1,0.7,0.5,1.3,1.3,1.3c0.6,0,1-0.2,1.3-0.7l0.7,0.5c-0.5,0.8-1.1,1.1-2.1,1.1
			c-1.4,0-2.3-1-2.3-2.4s1-2.5,2.3-2.5s2.2,0.9,2.2,2.2c0,0.2,0,0.4,0,0.5H152L152,174.5z M153.3,172.7c-0.7,0-1.1,0.5-1.2,1h2.2
			C154.3,173.1,153.9,172.7,153.3,172.7z"/>
	</g>
	<g class="st2">
		<path class="st0" d="M158.7,174.2l1.7,2.3h-1.3l-1-1.5l-1.1,1.5h-1.4l1.8-2.3l-1.7-2.3h1.4l1,1.5l1-1.5h1.3L158.7,174.2z"/>
	</g>
	<g class="st2">
		<path class="st0" d="M161.8,174.5c0.1,0.7,0.5,1.3,1.3,1.3c0.6,0,1-0.2,1.3-0.7l0.7,0.5c-0.5,0.8-1.1,1.1-2.1,1.1
			c-1.4,0-2.3-1-2.3-2.4s1-2.5,2.3-2.5s2.2,0.9,2.2,2.2c0,0.2,0,0.4,0,0.5H161.8L161.8,174.5z M163.1,172.7c-0.7,0-1.1,0.5-1.2,1
			h2.2C164.1,173.1,163.6,172.7,163.1,172.7z"/>
		<path class="st0" d="M169.8,176.1c-0.4,0.4-0.9,0.5-1.6,0.5c-1.4,0-2.4-1-2.4-2.4s1-2.4,2.4-2.4c0.6,0,1.1,0.2,1.5,0.5l-0.5,0.8
			c-0.3-0.2-0.6-0.4-0.9-0.4c-0.8,0-1.3,0.7-1.3,1.5c0,0.9,0.6,1.5,1.3,1.5c0.3,0,0.7-0.1,0.9-0.3L169.8,176.1z"/>
		<path class="st0" d="M173.9,176.6l-0.1-0.7c-0.4,0.5-0.9,0.8-1.5,0.8s-1-0.2-1.3-0.6c-0.3-0.5-0.4-1.1-0.4-1.7V172h1.1v2.3
			c0,0.4,0,0.8,0.2,1.1c0.1,0.2,0.4,0.4,0.7,0.4c0.4,0,0.9-0.3,1.2-0.7V172h1.1v4.6H173.9L173.9,176.6z"/>
		<path class="st0" d="M177.3,172.8v1.9c0,0.1,0,0.2,0,0.4c0,0.4,0.2,0.6,0.5,0.6c0.2,0,0.4,0,0.5-0.1l0.3,0.8
			c-0.3,0.2-0.7,0.2-1,0.2c-0.7,0-1.1-0.4-1.3-0.9c-0.1-0.2-0.1-0.5-0.1-0.9v-2.1h-0.6v-0.9h0.6l0.1-1.1h1v1.1h1.2v0.9h-1.2V172.8z"
			/>
		<path class="st0" d="M179.5,171.2v-1h1.1v1H179.5z M179.5,176.6V172h1.1v4.6H179.5z"/>
	</g>
	<g class="st2">
		<path class="st0" d="M185.8,171.9l-1.9,4.6H183l-1.8-4.6h1.2l1.1,3.2l0,0l1.1-3.2H185.8z"/>
	</g>
	<g class="st2">
		<path class="st0" d="M187.3,174.5c0.1,0.7,0.5,1.3,1.3,1.3c0.6,0,1-0.2,1.3-0.7l0.7,0.5c-0.5,0.8-1.1,1.1-2.1,1.1
			c-1.4,0-2.3-1-2.3-2.4s1-2.5,2.3-2.5s2.2,0.9,2.2,2.2c0,0.2,0,0.4,0,0.5H187.3L187.3,174.5z M188.5,172.7c-0.7,0-1.1,0.5-1.2,1
			h2.2C189.5,173.1,189.1,172.7,188.5,172.7z"/>
	</g>
	<g class="st2">
		<path class="st0" d="M137,186.6h-1.1v-6.8h1.1V186.6z"/>
		<path class="st0" d="M139.1,184.5c0.1,0.7,0.5,1.3,1.3,1.3c0.6,0,1-0.2,1.3-0.7l0.7,0.5c-0.5,0.8-1.1,1.1-2.1,1.1
			c-1.4,0-2.3-1-2.3-2.4s1-2.5,2.3-2.5s2.2,0.9,2.2,2.2c0,0.2,0,0.4,0,0.5H139.1L139.1,184.5z M140.4,182.7c-0.7,0-1.1,0.5-1.2,1
			h2.2C141.4,183.1,141,182.7,140.4,182.7z"/>
	</g>
	<g class="st2">
		<path class="st0" d="M147.5,181.9l-1.9,4.6h-0.9l-1.8-4.6h1.2l1.1,3.2l0,0l1.1-3.2H147.5z"/>
	</g>
	<g class="st2">
		<path class="st0" d="M148.9,184.5c0.1,0.7,0.5,1.3,1.3,1.3c0.6,0,1-0.2,1.3-0.7l0.7,0.5c-0.5,0.8-1.1,1.1-2.1,1.1
			c-1.4,0-2.3-1-2.3-2.4s1-2.5,2.3-2.5s2.2,0.9,2.2,2.2c0,0.2,0,0.4,0,0.5H148.9L148.9,184.5z M150.2,182.7c-0.7,0-1.1,0.5-1.2,1
			h2.2C151.2,183.1,150.7,182.7,150.2,182.7z"/>
		<path class="st0" d="M154.4,186.6h-1.1v-6.8h1.1V186.6z"/>
		<path class="st0" d="M159,181.9l0.1,0.6c0.3-0.5,0.9-0.7,1.4-0.7c1.3,0,2.2,1.1,2.2,2.4s-0.9,2.4-2.2,2.4c-0.5,0-1-0.2-1.4-0.6
			v2.7H158v-6.9h1V181.9z M159.1,185.1c0.3,0.4,0.8,0.6,1.2,0.6c0.9,0,1.3-0.8,1.3-1.5c0-0.8-0.5-1.5-1.3-1.5
			c-0.4,0-0.9,0.2-1.2,0.7V185.1z"/>
		<path class="st0" d="M168.2,184.2c0,1.4-1,2.4-2.4,2.4s-2.4-1.1-2.4-2.4c0-1.4,1-2.4,2.4-2.4S168.2,182.9,168.2,184.2z
			 M165.8,182.8c-0.8,0-1.3,0.7-1.3,1.5c0,0.8,0.5,1.5,1.3,1.5s1.3-0.7,1.3-1.5C167.1,183.4,166.6,182.8,165.8,182.8z"/>
		<path class="st0" d="M171.7,183c-0.2-0.2-0.6-0.4-0.9-0.4c-0.3,0-0.5,0.2-0.5,0.5c0,0.3,0.4,0.5,0.8,0.6c0.6,0.2,1.4,0.5,1.4,1.4
			c0,1-0.8,1.5-1.7,1.5c-0.7,0-1.3-0.3-1.8-0.8l0.7-0.6c0.3,0.3,0.6,0.5,1.1,0.5c0.3,0,0.7-0.2,0.7-0.5c0-0.3-0.5-0.5-0.9-0.7
			c-0.5-0.2-1.3-0.5-1.3-1.4s0.8-1.4,1.6-1.4c0.6,0,1.1,0.2,1.5,0.6L171.7,183z"/>
		<path class="st0" d="M173.4,181.2v-1h1.1v1H173.4z M173.4,186.6V182h1.1v4.6H173.4z"/>
		<path class="st0" d="M177,182.8v1.9c0,0.1,0,0.2,0,0.4c0,0.4,0.2,0.6,0.5,0.6c0.2,0,0.4,0,0.5-0.1l0.3,0.8c-0.3,0.2-0.7,0.2-1,0.2
			c-0.7,0-1.1-0.4-1.3-0.9c-0.1-0.2-0.1-0.5-0.1-0.9v-2.1h-0.6v-0.9h0.6l0.1-1.1h1v1.1h1.2v0.9H177V182.8z"/>
		<path class="st0" d="M179.1,181.2v-1h1.1v1H179.1z M179.1,186.6V182h1.1v4.6H179.1z"/>
		<path class="st0" d="M186,184.2c0,1.4-1,2.4-2.4,2.4s-2.4-1.1-2.4-2.4c0-1.4,1-2.4,2.4-2.4S186,182.9,186,184.2z M183.6,182.8
			c-0.8,0-1.3,0.7-1.3,1.5c0,0.8,0.5,1.5,1.3,1.5s1.3-0.7,1.3-1.5C184.9,183.4,184.4,182.8,183.6,182.8z"/>
		<path class="st0" d="M188,181.9l0.1,0.7c0.4-0.5,0.9-0.8,1.5-0.8s1,0.2,1.3,0.6c0.3,0.5,0.4,1.1,0.4,1.7v2.4h-1.1v-2.3
			c0-0.4,0-0.8-0.2-1.1c-0.1-0.2-0.4-0.4-0.7-0.4c-0.4,0-0.9,0.3-1.2,0.7v3.1h-1v-4.6H188L188,181.9z"/>
		<path class="st0" d="M195,183c-0.2-0.2-0.6-0.4-0.9-0.4c-0.3,0-0.5,0.2-0.5,0.5c0,0.3,0.4,0.5,0.8,0.6c0.6,0.2,1.4,0.5,1.4,1.4
			c0,1-0.8,1.5-1.7,1.5c-0.7,0-1.3-0.3-1.8-0.8l0.7-0.6c0.3,0.3,0.6,0.5,1.1,0.5c0.3,0,0.7-0.2,0.7-0.5c0-0.3-0.5-0.5-0.9-0.7
			c-0.5-0.2-1.3-0.5-1.3-1.4s0.8-1.4,1.6-1.4c0.6,0,1.1,0.2,1.5,0.6L195,183z"/>
	</g>
	<g class="st2">
		<path class="st0" d="M328.8,38c0,0.9-0.7,1.5-1.5,1.5s-1.5-0.6-1.5-1.5s0.7-1.5,1.5-1.5C328.1,36.6,328.8,37.2,328.8,38z
			 M331.7,36.9l-4.5,6.1l-0.6-0.4l4.5-6.1L331.7,36.9z M326.6,38c0,0.4,0.3,0.7,0.7,0.7c0.4,0,0.6-0.3,0.6-0.7s-0.3-0.7-0.6-0.7
			C326.9,37.3,326.6,37.6,326.6,38z M332.5,41.5c0,0.9-0.7,1.5-1.5,1.5s-1.5-0.6-1.5-1.5s0.7-1.5,1.5-1.5
			C331.8,40,332.5,40.6,332.5,41.5z M330.3,41.5c0,0.4,0.3,0.7,0.7,0.7c0.4,0,0.6-0.3,0.6-0.7s-0.3-0.7-0.6-0.7
			C330.6,40.8,330.3,41.1,330.3,41.5z"/>
		<path class="st0" d="M340.3,40.6c0,1.4-1,2.4-2.4,2.4s-2.4-1.1-2.4-2.4c0-1.4,1-2.4,2.4-2.4S340.3,39.2,340.3,40.6z M337.9,39.1
			c-0.8,0-1.3,0.7-1.3,1.5s0.5,1.5,1.3,1.5s1.3-0.7,1.3-1.5C339.2,39.8,338.7,39.1,337.9,39.1z"/>
		<path class="st0" d="M343.8,37.1c-0.2-0.1-0.4-0.1-0.6-0.1s-0.4,0.1-0.4,0.2c-0.1,0.1-0.2,0.4-0.2,0.7v0.4h1.2v0.9h-1.2v3.7h-1.1
			v-3.7H341v-0.9h0.5v-0.5c0-0.5,0.1-0.9,0.3-1.2c0.2-0.3,0.6-0.5,1.3-0.5c0.4,0,0.7,0.1,1.1,0.2L343.8,37.1z"/>
	</g>
	<g class="st2">
		<path class="st0" d="M350.8,41.4L350.8,41.4l0.8-3.2h1.1l-1.3,4.6h-1.1l-0.8-3l0,0l-0.9,3h-1.2l-1.3-4.6h1.2l0.8,3.2l0,0l0.9-3.2
			h1L350.8,41.4z"/>
	</g>
	<g class="st2">
		<path class="st0" d="M357.9,40.6c0,1.4-1,2.4-2.4,2.4s-2.4-1.1-2.4-2.4c0-1.4,1-2.4,2.4-2.4S357.9,39.2,357.9,40.6z M355.5,39.1
			c-0.8,0-1.3,0.7-1.3,1.5s0.5,1.5,1.3,1.5s1.3-0.7,1.3-1.5C356.8,39.8,356.3,39.1,355.5,39.1z"/>
		<path class="st0" d="M360,38.9c0.3-0.5,0.6-0.8,1.1-0.8c0.2,0,0.4,0,0.6,0.1l-0.2,1c-0.1-0.1-0.3-0.1-0.4-0.1
			c-0.4,0-0.7,0.2-1,0.6v3.1H359v-4.6h1V38.9z"/>
	</g>
	<g class="st2">
		<path class="st0" d="M365,42.9l-1.2-1.9l-0.6,0.7v1.2h-1.1v-6.8h1.1v4.2l0,0l1.6-2.1h1.3l-1.6,1.9l1.8,2.7L365,42.9L365,42.9z"/>
	</g>
	<g class="st2">
		<path class="st0" d="M367.6,40.9c0.1,0.7,0.5,1.3,1.3,1.3c0.6,0,1-0.2,1.3-0.7l0.7,0.5c-0.5,0.8-1.1,1.1-2.1,1.1
			c-1.4,0-2.3-1-2.3-2.4s1-2.5,2.3-2.5s2.2,0.9,2.2,2.2c0,0.2,0,0.4,0,0.5C371,40.9,367.6,40.9,367.6,40.9z M368.9,39
			c-0.7,0-1.1,0.5-1.2,1h2.2C369.9,39.5,369.5,39,368.9,39z"/>
		<path class="st0" d="M373.1,38.9c0.3-0.5,0.6-0.8,1.1-0.8c0.2,0,0.4,0,0.6,0.1l-0.2,1c-0.1-0.1-0.3-0.1-0.4-0.1
			c-0.4,0-0.7,0.2-1,0.6v3.1h-1.1v-4.6h1V38.9z"/>
		<path class="st0" d="M377.8,39.4c-0.2-0.2-0.6-0.4-0.9-0.4s-0.5,0.2-0.5,0.5s0.4,0.5,0.8,0.6c0.6,0.2,1.4,0.5,1.4,1.4
			c0,1-0.8,1.5-1.7,1.5c-0.7,0-1.3-0.3-1.8-0.8l0.7-0.6c0.3,0.3,0.6,0.5,1.1,0.5c0.3,0,0.7-0.2,0.7-0.5s-0.5-0.5-0.9-0.7
			c-0.5-0.2-1.3-0.5-1.3-1.4s0.8-1.4,1.6-1.4c0.6,0,1.1,0.2,1.5,0.6L377.8,39.4z"/>
	</g>
	<g class="st2">
		<path class="st0" d="M323.6,47.5v-1h1.1v1H323.6z M323.6,52.9v-4.6h1.1v4.6H323.6z"/>
		<path class="st0" d="M327,48.3l0.1,0.7c0.4-0.5,0.9-0.8,1.5-0.8s1,0.2,1.3,0.6c0.3,0.5,0.4,1.1,0.4,1.7v2.4h-1.1v-2.3
			c0-0.4,0-0.8-0.2-1.1c-0.1-0.2-0.4-0.4-0.7-0.4c-0.4,0-0.9,0.3-1.2,0.7v3.1h-1v-4.6H327z"/>
		<path class="st0" d="M339.7,52.9v-2.3c0-0.4,0-0.8-0.2-1.1c-0.1-0.2-0.4-0.4-0.7-0.4c-0.4,0-0.8,0.2-1.1,0.6c0,0.2,0,0.5,0,0.7
			v2.4h-1.1v-2.2c0-0.4,0-0.8-0.2-1.1c-0.1-0.2-0.4-0.3-0.6-0.3c-0.4,0-0.8,0.3-1,0.6V53h-1.1v-4.6h1V49c0.4-0.5,0.9-0.7,1.4-0.7
			s1,0.2,1.3,0.6c0,0.1,0.1,0.1,0.1,0.2c0.4-0.6,1-0.8,1.6-0.8c0.5,0,1,0.2,1.2,0.6c0.4,0.5,0.4,1.1,0.4,1.8v2.4h-1V52.9z"/>
		<path class="st0" d="M344.9,52.9l-0.1-0.4c-0.3,0.4-0.8,0.5-1.3,0.5c-0.9,0-1.7-0.5-1.7-1.5c0-1.2,1.1-1.5,2-1.5
			c0.2,0,0.5,0,0.9,0.1V50c0-0.6-0.3-1-1-1c-0.5,0-1,0.2-1.4,0.4l-0.2-0.8c0.5-0.3,1.3-0.5,1.9-0.5c1.3,0,1.9,0.7,1.9,1.9v2.8
			L344.9,52.9L344.9,52.9z M344.8,50.9c-0.3-0.1-0.5-0.1-0.7-0.1c-0.5,0-1.1,0.2-1.1,0.8c0,0.5,0.4,0.7,0.8,0.7s0.7-0.2,1.1-0.5
			L344.8,50.9L344.8,50.9z"/>
		<path class="st0" d="M348.2,48.3l0.1,0.7c0.4-0.5,0.9-0.8,1.5-0.8s1,0.2,1.3,0.6c0.3,0.5,0.4,1.1,0.4,1.7v2.4h-1.1v-2.3
			c0-0.4,0-0.8-0.2-1.1c-0.1-0.2-0.4-0.4-0.7-0.4c-0.4,0-0.9,0.3-1.2,0.7v3.1h-1.1v-4.6H348.2z"/>
		<path class="st0" d="M355.5,52.9l-0.1-0.4c-0.3,0.4-0.8,0.5-1.3,0.5c-0.9,0-1.7-0.5-1.7-1.5c0-1.2,1.1-1.5,2-1.5
			c0.2,0,0.5,0,0.9,0.1V50c0-0.6-0.3-1-1-1c-0.5,0-1,0.2-1.4,0.4l-0.3-0.8c0.5-0.3,1.3-0.5,1.9-0.5c1.3,0,1.9,0.7,1.9,1.9v2.8
			L355.5,52.9L355.5,52.9z M355.4,50.9c-0.3-0.1-0.5-0.1-0.7-0.1c-0.5,0-1.1,0.2-1.1,0.8c0,0.5,0.4,0.7,0.8,0.7s0.7-0.2,1.1-0.5
			L355.4,50.9L355.4,50.9z"/>
		<path class="st0" d="M362.2,52.7c0,0.5-0.1,0.9-0.3,1.2c-0.4,0.8-1.2,1.1-2.1,1.1c-0.7,0-1.5-0.2-2.1-0.6l0.4-0.9
			c0.5,0.4,1.2,0.6,1.7,0.6c0.7,0,1.3-0.4,1.3-1.2v-0.5c-0.3,0.5-0.9,0.6-1.4,0.6c-1.3,0-2.2-1-2.2-2.4c0-1.3,0.9-2.4,2.2-2.4
			c0.5,0,1.1,0.2,1.4,0.6l0.1-0.5h1V52.7z M361.1,49.7c-0.3-0.4-0.8-0.6-1.2-0.6c-0.9,0-1.3,0.7-1.3,1.4s0.5,1.4,1.3,1.4
			c0.4,0,0.9-0.2,1.2-0.7V49.7z"/>
		<path class="st0" d="M364.2,50.9c0.1,0.7,0.5,1.3,1.3,1.3c0.6,0,1-0.2,1.3-0.7l0.7,0.5c-0.5,0.8-1.1,1.1-2.1,1.1
			c-1.4,0-2.3-1-2.3-2.4s1-2.5,2.3-2.5s2.2,0.9,2.2,2.2c0,0.2,0,0.4,0,0.5C367.6,50.9,364.2,50.9,364.2,50.9z M365.5,49
			c-0.7,0-1.1,0.5-1.2,1h2.2C366.5,49.5,366.1,49,365.5,49z"/>
		<path class="st0" d="M369.7,48.9c0.3-0.5,0.6-0.8,1.1-0.8c0.2,0,0.4,0,0.6,0.1l-0.2,1c-0.1-0.1-0.3-0.1-0.4-0.1
			c-0.4,0-0.7,0.2-1,0.6v3.1h-1.1v-4.6h1V48.9z"/>
		<path class="st0" d="M372,47.5v-1h1.1v1H372z M372,52.9v-4.6h1.1v4.6H372z"/>
		<path class="st0" d="M377.2,52.9l-0.1-0.4c-0.3,0.4-0.8,0.5-1.3,0.5c-0.9,0-1.7-0.5-1.7-1.5c0-1.2,1.1-1.5,2-1.5
			c0.2,0,0.5,0,0.9,0.1V50c0-0.6-0.3-1-1-1c-0.5,0-1,0.2-1.4,0.4l-0.3-0.8c0.5-0.3,1.3-0.5,1.9-0.5c1.3,0,1.9,0.7,1.9,1.9v2.8
			L377.2,52.9L377.2,52.9z M377.1,50.9c-0.3-0.1-0.5-0.1-0.7-0.1c-0.5,0-1.1,0.2-1.1,0.8c0,0.5,0.4,0.7,0.8,0.7s0.7-0.2,1.1-0.5
			L377.1,50.9L377.1,50.9z"/>
		<path class="st0" d="M380.6,52.9h-1.1v-6.8h1.1V52.9z"/>
	</g>
	<g class="st2">
		<path class="st0" d="M328.8,63.1l-1.1-1c-0.5,0.6-1.1,0.9-1.9,0.9c-1.2,0-2.2-0.9-2.2-2c0-0.7,0.4-1.3,1-1.7
			c-0.4-0.4-0.6-0.8-0.6-1.3c0-1,0.9-1.6,1.9-1.6c0.9,0,1.5,0.5,1.7,1.3l-1,0.3c-0.1-0.4-0.4-0.6-0.8-0.6s-0.8,0.3-0.8,0.7
			s0.3,0.7,1,1.3l-0.6,0.7l-0.2-0.2c-0.4,0.2-0.6,0.6-0.6,1c0,0.6,0.5,1.1,1.2,1.1c0.5,0,0.8-0.2,1.1-0.6l-0.7-0.6l0.6-0.7l2.5,2.2
			L328.8,63.1z"/>
		<path class="st0" d="M334.7,59.4c-0.2-0.2-0.6-0.4-0.9-0.4s-0.5,0.2-0.5,0.5s0.4,0.5,0.8,0.6c0.6,0.2,1.4,0.5,1.4,1.4
			c0,1-0.8,1.5-1.7,1.5c-0.7,0-1.3-0.3-1.8-0.8l0.7-0.6c0.3,0.3,0.6,0.5,1.1,0.5c0.3,0,0.7-0.2,0.7-0.5s-0.5-0.5-0.9-0.7
			c-0.5-0.2-1.3-0.5-1.3-1.4s0.8-1.4,1.6-1.4c0.6,0,1.1,0.2,1.5,0.6L334.7,59.4z"/>
		<path class="st0" d="M339.6,62.9l-0.1-0.7c-0.4,0.5-0.9,0.8-1.5,0.8s-1-0.2-1.3-0.6c-0.3-0.5-0.4-1.1-0.4-1.7v-2.4h1.1v2.3
			c0,0.4,0,0.8,0.2,1.1c0.1,0.2,0.4,0.4,0.7,0.4c0.4,0,0.9-0.3,1.2-0.7v-3.1h1.1v4.6H339.6z"/>
		<path class="st0" d="M343,58.3l0.1,0.6c0.3-0.5,0.9-0.7,1.4-0.7c1.3,0,2.2,1.1,2.2,2.4c0,1.3-0.9,2.4-2.2,2.4
			c-0.5,0-1-0.2-1.4-0.6v2.7H342v-6.9h1V58.3z M343.1,61.5c0.3,0.4,0.8,0.6,1.2,0.6c0.9,0,1.3-0.8,1.3-1.5c0-0.8-0.5-1.5-1.3-1.5
			c-0.4,0-0.9,0.2-1.2,0.7V61.5z"/>
		<path class="st0" d="M348.5,60.9c0.1,0.7,0.5,1.3,1.3,1.3c0.6,0,1-0.2,1.3-0.7l0.7,0.5c-0.5,0.8-1.1,1.1-2.1,1.1
			c-1.4,0-2.3-1-2.3-2.4s1-2.5,2.3-2.5s2.2,0.9,2.2,2.2c0,0.2,0,0.4,0,0.5C351.9,60.9,348.5,60.9,348.5,60.9z M349.7,59
			c-0.7,0-1.1,0.5-1.2,1h2.2C350.7,59.5,350.3,59,349.7,59z"/>
	</g>
	<g class="st2">
		<path class="st0" d="M353.9,58.9c0.3-0.5,0.6-0.8,1.1-0.8c0.2,0,0.4,0,0.6,0.1l-0.2,1c-0.1-0.1-0.3-0.1-0.4-0.1
			c-0.4,0-0.7,0.2-1,0.6v3.1h-1.1v-4.6h1V58.9z"/>
	</g>
	<g class="st2">
		<path class="st0" d="M360.5,58.3l-1.9,4.6h-0.9l-1.8-4.6h1.2l1.1,3.2l0,0l1.1-3.2H360.5z"/>
		<path class="st0" d="M361.3,57.5v-1h1.1v1H361.3z M361.3,62.9v-4.6h1.1v4.6H361.3z"/>
		<path class="st0" d="M366.1,59.4c-0.2-0.2-0.6-0.4-0.9-0.4s-0.5,0.2-0.5,0.5s0.4,0.5,0.8,0.6c0.6,0.2,1.4,0.5,1.4,1.4
			c0,1-0.8,1.5-1.7,1.5c-0.7,0-1.3-0.3-1.8-0.8l0.7-0.6c0.3,0.3,0.6,0.5,1.1,0.5c0.3,0,0.7-0.2,0.7-0.5s-0.5-0.5-0.9-0.7
			c-0.5-0.2-1.3-0.5-1.3-1.4s0.8-1.4,1.6-1.4c0.6,0,1.1,0.2,1.5,0.6L366.1,59.4z"/>
		<path class="st0" d="M372.4,60.6c0,1.4-1,2.4-2.4,2.4s-2.4-1.1-2.4-2.4c0-1.4,1-2.4,2.4-2.4C371.3,58.2,372.4,59.2,372.4,60.6z
			 M370,59.1c-0.8,0-1.3,0.7-1.3,1.5s0.5,1.5,1.3,1.5s1.3-0.7,1.3-1.5C371.3,59.8,370.7,59.1,370,59.1z"/>
	</g>
	<g class="st2">
		<path class="st0" d="M374.4,58.9c0.3-0.5,0.6-0.8,1.1-0.8c0.2,0,0.4,0,0.6,0.1l-0.2,1c-0.1-0.1-0.3-0.1-0.4-0.1
			c-0.4,0-0.7,0.2-1,0.6v3.1h-1.1v-4.6h1V58.9z"/>
	</g>
	<g class="st2">
		<path class="st0" d="M377.7,58.3l1,3.1l0,0l1.1-3.1h1.2l-2.6,6.7l-1-0.4l0.7-2l-1.7-4.4h1.3V58.3z"/>
	</g>
	<g class="st2">
		<path class="st0" d="M343.5,68.9c0.3-0.5,0.6-0.8,1.1-0.8c0.2,0,0.4,0,0.6,0.1l-0.2,1c-0.1-0.1-0.3-0.1-0.4-0.1
			c-0.4,0-0.7,0.2-1,0.6v3.1h-1.1v-4.6h1V68.9z"/>
		<path class="st0" d="M350.2,70.6c0,1.4-1,2.4-2.4,2.4s-2.4-1.1-2.4-2.4c0-1.4,1-2.4,2.4-2.4S350.2,69.2,350.2,70.6z M347.8,69.1
			c-0.8,0-1.3,0.7-1.3,1.5s0.5,1.5,1.3,1.5s1.3-0.7,1.3-1.5S348.6,69.1,347.8,69.1z"/>
		<path class="st0" d="M352.3,72.9h-1.1v-6.8h1.1V72.9z"/>
		<path class="st0" d="M354.4,70.9c0.1,0.7,0.5,1.3,1.3,1.3c0.6,0,1-0.2,1.3-0.7l0.7,0.5c-0.5,0.8-1.1,1.1-2.1,1.1
			c-1.4,0-2.3-1-2.3-2.4s1-2.5,2.3-2.5s2.2,0.9,2.2,2.2c0,0.2,0,0.4,0,0.5H354.4z M355.7,69c-0.7,0-1.1,0.5-1.2,1h2.2
			C356.7,69.5,356.3,69,355.7,69z"/>
		<path class="st0" d="M361.3,69.4c-0.2-0.2-0.6-0.4-0.9-0.4s-0.5,0.2-0.5,0.5s0.4,0.5,0.8,0.6c0.6,0.2,1.4,0.5,1.4,1.4
			c0,1-0.8,1.5-1.7,1.5c-0.7,0-1.3-0.3-1.8-0.8l0.5-0.6c0.3,0.3,0.6,0.5,1.1,0.5c0.3,0,0.7-0.2,0.7-0.5s-0.5-0.5-0.9-0.7
			c-0.5-0.2-1.3-0.5-1.3-1.4s0.8-1.4,1.6-1.4c0.6,0,1.1,0.2,1.5,0.6L361.3,69.4z"/>
	</g>
	<g class="st2">
		<path class="st0" d="M328.4,167.4c0,0.9-0.7,1.5-1.5,1.5s-1.5-0.6-1.5-1.5s0.7-1.5,1.5-1.5C327.7,166,328.4,166.6,328.4,167.4z
			 M331.3,166.3l-4.5,6.1l-0.6-0.4l4.5-6.1L331.3,166.3z M326.2,167.4c0,0.4,0.3,0.7,0.7,0.7c0.4,0,0.6-0.3,0.6-0.7
			s-0.3-0.7-0.6-0.7C326.5,166.7,326.2,167,326.2,167.4z M332.1,170.9c0,0.9-0.7,1.5-1.5,1.5s-1.5-0.6-1.5-1.5s0.7-1.5,1.5-1.5
			S332.1,170,332.1,170.9z M329.9,170.9c0,0.4,0.3,0.7,0.7,0.7c0.4,0,0.6-0.3,0.6-0.7s-0.3-0.7-0.6-0.7
			C330.2,170.2,329.9,170.5,329.9,170.9z"/>
		<path class="st0" d="M339.9,170c0,1.4-1,2.4-2.4,2.4s-2.4-1.1-2.4-2.4c0-1.4,1-2.4,2.4-2.4S339.9,168.6,339.9,170z M337.5,168.5
			c-0.8,0-1.3,0.7-1.3,1.5c0,0.8,0.5,1.5,1.3,1.5s1.3-0.7,1.3-1.5C338.8,169.2,338.3,168.5,337.5,168.5z"/>
		<path class="st0" d="M343.4,166.5c-0.2-0.1-0.4-0.1-0.6-0.1s-0.4,0.1-0.4,0.2c-0.1,0.1-0.2,0.4-0.2,0.7v0.4h1.2v0.9h-1.2v3.7h-1.1
			v-3.7h-0.5v-0.9h0.5v-0.5c0-0.5,0.1-0.9,0.3-1.2c0.2-0.3,0.6-0.5,1.3-0.5c0.4,0,0.7,0.1,1.1,0.2L343.4,166.5z"/>
	</g>
	<g class="st2">
		<path class="st0" d="M350.4,170.8L350.4,170.8l0.8-3.2h1.1l-1.3,4.6h-1.1l-0.8-3l0,0l-0.9,3H347l-1.3-4.6h1.2l0.8,3.2l0,0l0.9-3.2
			h1L350.4,170.8z"/>
	</g>
	<g class="st2">
		<path class="st0" d="M357.5,170c0,1.4-1,2.4-2.4,2.4s-2.4-1.1-2.4-2.4c0-1.4,1-2.4,2.4-2.4S357.5,168.6,357.5,170z M355.1,168.5
			c-0.8,0-1.3,0.7-1.3,1.5c0,0.8,0.5,1.5,1.3,1.5s1.3-0.7,1.3-1.5S355.9,168.5,355.1,168.5z"/>
		<path class="st0" d="M359.6,168.3c0.3-0.5,0.6-0.8,1.1-0.8c0.2,0,0.4,0,0.6,0.1l-0.2,1c-0.1-0.1-0.3-0.1-0.4-0.1
			c-0.4,0-0.7,0.2-1,0.6v3.1h-1.1v-4.6h1V168.3z"/>
	</g>
	<g class="st2">
		<path class="st0" d="M364.6,172.3l-1.2-1.9l-0.6,0.7v1.2h-1.1v-6.7h1.1v4.2l0,0l1.6-2.1h1.3l-1.6,1.9l1.8,2.7H364.6L364.6,172.3z"
			/>
	</g>
	<g class="st2">
		<path class="st0" d="M367.2,170.3c0.1,0.7,0.5,1.3,1.3,1.3c0.6,0,1-0.2,1.3-0.7l0.7,0.5c-0.5,0.8-1.1,1.1-2.1,1.1
			c-1.4,0-2.3-1-2.3-2.4s1-2.5,2.3-2.5s2.2,0.9,2.2,2.2c0,0.2,0,0.4,0,0.5L367.2,170.3L367.2,170.3z M368.5,168.4
			c-0.7,0-1.1,0.5-1.2,1h2.2C369.5,168.9,369.1,168.4,368.5,168.4z"/>
		<path class="st0" d="M372.7,168.3c0.3-0.5,0.6-0.8,1.1-0.8c0.2,0,0.4,0,0.6,0.1l-0.2,1c-0.1-0.1-0.3-0.1-0.4-0.1
			c-0.4,0-0.7,0.2-1,0.6v3.1h-1.1v-4.6h1V168.3z"/>
		<path class="st0" d="M377.4,168.8c-0.2-0.2-0.6-0.4-0.9-0.4s-0.5,0.2-0.5,0.5c0,0.3,0.4,0.5,0.8,0.6c0.6,0.2,1.4,0.5,1.4,1.4
			c0,1-0.8,1.5-1.7,1.5c-0.7,0-1.3-0.3-1.8-0.8l0.7-0.6c0.3,0.3,0.6,0.5,1.1,0.5c0.3,0,0.7-0.2,0.7-0.5c0-0.3-0.5-0.5-0.9-0.7
			c-0.5-0.2-1.3-0.5-1.3-1.4s0.8-1.4,1.6-1.4c0.6,0,1.1,0.2,1.5,0.6L377.4,168.8z"/>
	</g>
	<g class="st2">
		<path class="st0" d="M325.9,176.9v-1h1.1v1H325.9z M325.9,182.3v-4.6h1.1v4.6H325.9z"/>
		<path class="st0" d="M329.4,177.7l0.1,0.7c0.4-0.5,0.9-0.8,1.5-0.8s1,0.2,1.3,0.6c0.3,0.5,0.4,1.1,0.4,1.7v2.4h-1.1V180
			c0-0.4,0-0.8-0.2-1.1c-0.1-0.2-0.4-0.4-0.7-0.4c-0.4,0-0.9,0.3-1.2,0.7v3.1h-1.1v-4.6L329.4,177.7L329.4,177.7z"/>
		<path class="st0" d="M337.2,178.3c0.3-0.5,0.6-0.8,1.1-0.8c0.2,0,0.4,0,0.6,0.1l-0.2,1c-0.1-0.1-0.3-0.1-0.4-0.1
			c-0.4,0-0.7,0.2-1,0.6v3.1h-1.1v-4.6h1V178.3z"/>
		<path class="st0" d="M342.2,182.3l-0.1-0.4c-0.3,0.4-0.8,0.5-1.3,0.5c-0.9,0-1.7-0.5-1.7-1.5c0-1.2,1.1-1.5,2-1.5
			c0.2,0,0.5,0,0.9,0.1v-0.1c0-0.6-0.3-1-1-1c-0.5,0-1,0.2-1.4,0.4l-0.3-0.8c0.5-0.3,1.3-0.5,1.9-0.5c1.3,0,1.9,0.7,1.9,1.9v2.8
			h-0.9V182.3z M342.1,180.3c-0.3-0.1-0.5-0.1-0.7-0.1c-0.5,0-1.1,0.2-1.1,0.8c0,0.5,0.4,0.7,0.8,0.7s0.7-0.2,1.1-0.5L342.1,180.3
			L342.1,180.3z"/>
		<path class="st0" d="M345.5,177.7l0.1,0.7c0.4-0.5,0.9-0.8,1.5-0.8s1,0.2,1.3,0.6c0.3,0.5,0.4,1.1,0.4,1.7v2.4h-1.1V180
			c0-0.4,0-0.8-0.2-1.1c-0.1-0.2-0.4-0.4-0.7-0.4c-0.4,0-0.9,0.3-1.2,0.7v3.1h-1.1v-4.6L345.5,177.7L345.5,177.7z"/>
		<path class="st0" d="M352.9,182.3l-1.2-1.9l-0.6,0.7v1.2H350v-6.7h1.1v4.2l0,0l1.6-2.1h1.3l-1.6,1.9l1.8,2.7H352.9L352.9,182.3z"
			/>
		<path class="st0" d="M362.1,182.5l-1.1-1c-0.5,0.6-1.1,0.9-1.9,0.9c-1.2,0-2.2-0.9-2.2-2c0-0.7,0.4-1.3,1-1.7
			c-0.4-0.4-0.6-0.8-0.6-1.3c0-1,0.9-1.6,1.9-1.6c0.9,0,1.5,0.5,1.7,1.3l-1,0.3c-0.1-0.4-0.4-0.6-0.8-0.6s-0.8,0.3-0.8,0.7
			s0.3,0.7,1,1.3l-0.6,0.7l-0.2-0.2c-0.4,0.2-0.6,0.6-0.6,1c0,0.6,0.5,1.1,1.2,1.1c0.5,0,0.8-0.2,1.1-0.6l-0.7-0.6l0.6-0.7l2.5,2.2
			L362.1,182.5z"/>
		<path class="st0" d="M366.8,178.6v3.7h-1.1v-3.7h-0.5v-0.9h0.5v-0.5c0-0.5,0.1-0.9,0.3-1.2c0.2-0.3,0.6-0.5,1.3-0.5
			c0.3,0,0.5,0,0.8,0.1l-0.2,0.9c-0.1-0.1-0.3-0.1-0.5-0.1s-0.4,0.1-0.4,0.2c-0.1,0.1-0.2,0.4-0.2,0.7v0.4h1.2v0.9L366.8,178.6
			L366.8,178.6z M368.7,176.9v-1h1.1v1H368.7z M368.7,182.3v-4.6h1.1v4.6H368.7z"/>
		<path class="st0" d="M372.2,182.3h-1.1v-6.7h1.1V182.3z"/>
		<path class="st0" d="M374.3,180.3c0.1,0.7,0.5,1.3,1.3,1.3c0.6,0,1-0.2,1.3-0.7l0.7,0.5c-0.5,0.8-1.1,1.1-2.1,1.1
			c-1.4,0-2.3-1-2.3-2.4s1-2.5,2.3-2.5s2.2,0.9,2.2,2.2c0,0.2,0,0.4,0,0.5L374.3,180.3L374.3,180.3z M375.6,178.4
			c-0.7,0-1.1,0.5-1.2,1h2.2C376.6,178.9,376.2,178.4,375.6,178.4z"/>
	</g>
	<g class="st2">
		<path class="st0" d="M334,187.7l0.1,0.6c0.3-0.5,0.9-0.7,1.4-0.7c1.3,0,2.2,1.1,2.2,2.4c0,1.3-0.9,2.4-2.2,2.4
			c-0.5,0-1-0.2-1.4-0.6v2.7H333v-6.9h1V187.7z M334.1,190.9c0.3,0.4,0.8,0.6,1.2,0.6c0.9,0,1.3-0.8,1.3-1.5c0-0.8-0.5-1.5-1.3-1.5
			c-0.4,0-0.9,0.2-1.2,0.7V190.9z"/>
		<path class="st0" d="M343.2,190c0,1.4-1,2.4-2.4,2.4s-2.4-1.1-2.4-2.4c0-1.4,1-2.4,2.4-2.4S343.2,188.6,343.2,190z M340.8,188.5
			c-0.8,0-1.3,0.7-1.3,1.5c0,0.8,0.5,1.5,1.3,1.5s1.3-0.7,1.3-1.5S341.5,188.5,340.8,188.5z"/>
		<path class="st0" d="M346.6,188.8c-0.2-0.2-0.6-0.4-0.9-0.4s-0.5,0.2-0.5,0.5c0,0.3,0.4,0.5,0.8,0.6c0.6,0.2,1.4,0.5,1.4,1.4
			c0,1-0.8,1.5-1.7,1.5c-0.7,0-1.3-0.3-1.8-0.8l0.7-0.6c0.3,0.3,0.6,0.5,1.1,0.5c0.3,0,0.7-0.2,0.7-0.5c0-0.3-0.5-0.5-0.9-0.7
			c-0.5-0.2-1.3-0.5-1.3-1.4s0.8-1.4,1.6-1.4c0.6,0,1.1,0.2,1.5,0.6L346.6,188.8z"/>
		<path class="st0" d="M348.4,186.9v-1h1.1v1H348.4z M348.4,192.3v-4.6h1.1v4.6H348.4z"/>
		<path class="st0" d="M352,188.6v1.9c0,0.1,0,0.2,0,0.4c0,0.4,0.2,0.6,0.5,0.6c0.2,0,0.4,0,0.5-0.1l0.3,0.8c-0.3,0.2-0.7,0.2-1,0.2
			c-0.7,0-1.1-0.4-1.3-0.9c-0.1-0.2-0.1-0.5-0.1-0.9v-2h-0.6v-0.9h0.6l0.1-1.1h1v1.1h1.2v0.9H352z"/>
		<path class="st0" d="M354.1,186.9v-1h1.1v1H354.1z M354.1,192.3v-4.6h1.1v4.6H354.1z"/>
		<path class="st0" d="M361,190c0,1.4-1,2.4-2.4,2.4s-2.4-1.1-2.4-2.4c0-1.4,1-2.4,2.4-2.4S361,188.6,361,190z M358.6,188.5
			c-0.8,0-1.3,0.7-1.3,1.5c0,0.8,0.5,1.5,1.3,1.5s1.3-0.7,1.3-1.5S359.3,188.5,358.6,188.5z"/>
		<path class="st0" d="M363,187.7l0.1,0.7c0.4-0.5,0.9-0.8,1.5-0.8s1,0.2,1.3,0.6c0.3,0.5,0.4,1.1,0.4,1.7v2.4h-1.2V190
			c0-0.4,0-0.8-0.2-1.1c-0.1-0.2-0.4-0.4-0.7-0.4c-0.4,0-0.9,0.3-1.2,0.7v3.1h-1.1v-4.6L363,187.7L363,187.7z"/>
		<path class="st0" d="M369.9,188.8c-0.2-0.2-0.6-0.4-0.9-0.4s-0.5,0.2-0.5,0.5c0,0.3,0.4,0.5,0.8,0.6c0.6,0.2,1.4,0.5,1.4,1.4
			c0,1-0.8,1.5-1.7,1.5c-0.7,0-1.3-0.3-1.8-0.8l0.7-0.6c0.3,0.3,0.6,0.5,1.1,0.5c0.3,0,0.7-0.2,0.7-0.5c0-0.3-0.5-0.5-0.9-0.7
			c-0.5-0.2-1.3-0.5-1.3-1.4s0.8-1.4,1.6-1.4c0.6,0,1.1,0.2,1.5,0.6L369.9,188.8z"/>
	</g>
	<g class="st2">
		<path class="st4" d="M486.8,137.4l-2.8-3.8v3.8h-1v-5.6h0.9l2.8,3.8v-3.8h1v5.6H486.8z"/>
		<path class="st4" d="M491.7,137.4v-0.6c-0.3,0.5-0.8,0.7-1.3,0.7s-0.9-0.2-1.1-0.5c-0.3-0.4-0.4-0.9-0.4-1.5v-2.1h1v2.1
			c0,0.3,0,0.7,0.2,1c0.1,0.2,0.3,0.3,0.6,0.3c0.4,0,0.8-0.2,1-0.6v-2.7h1v4.1h-1V137.4z"/>
		<path class="st4" d="M499.1,137.4v-2.1c0-0.3,0-0.7-0.1-1c-0.1-0.2-0.3-0.3-0.6-0.3c-0.3,0-0.7,0.2-0.9,0.6c0,0.2,0,0.4,0,0.7v2.1
			h-1v-2.1c0-0.3,0-0.8-0.2-1c-0.1-0.2-0.3-0.3-0.6-0.3c-0.3,0-0.7,0.3-0.9,0.6v2.8h-1v-4.1h0.9v0.6c0.3-0.4,0.8-0.6,1.2-0.6
			c0.4,0,0.8,0.2,1.1,0.6c0,0,0.1,0.1,0.1,0.2c0.4-0.5,0.9-0.7,1.4-0.7s0.9,0.2,1.1,0.5c0.3,0.4,0.4,1,0.4,1.6v2.1h-0.9V137.4z"/>
		<path class="st4" d="M502.2,131.4v2.4c0.3-0.4,0.8-0.6,1.3-0.6c1.1,0,2,1,2,2.2c0,1.1-0.8,2.1-2,2.1c-0.4,0-1-0.2-1.3-0.6v0.5
			h-0.9v-6H502.2L502.2,131.4z M502.2,136.1c0.3,0.4,0.7,0.5,1.1,0.5c0.8,0,1.2-0.7,1.2-1.3c0-0.7-0.5-1.3-1.2-1.3
			c-0.4,0-0.8,0.2-1.1,0.6V136.1z"/>
		<path class="st4" d="M507,135.5c0.1,0.6,0.5,1.1,1.2,1.1c0.5,0,0.9-0.2,1.1-0.6l0.7,0.4c-0.5,0.7-1,1-1.8,1
			c-1.3,0-2.1-0.9-2.1-2.1s0.9-2.2,2.1-2.2c1.1,0,1.9,0.8,1.9,1.9c0,0.2,0,0.3,0,0.5L507,135.5L507,135.5z M508.1,133.9
			c-0.6,0-0.9,0.4-1.1,0.9h2C509,134.3,508.6,133.9,508.1,133.9z"/>
		<path class="st4" d="M511.9,133.8c0.2-0.4,0.6-0.7,1-0.7c0.2,0,0.3,0,0.5,0.1l-0.2,0.9c-0.1-0.1-0.2-0.1-0.4-0.1
			c-0.4,0-0.6,0.2-0.8,0.6v2.8h-1v-4.1h0.9V133.8z"/>
		<path class="st4" d="M519.8,135.3c0,1.2-0.9,2.2-2.1,2.2s-2.1-1-2.1-2.2c0-1.2,0.9-2.2,2.1-2.2S519.8,134.1,519.8,135.3z
			 M517.7,134c-0.7,0-1.2,0.6-1.2,1.3c0,0.7,0.5,1.3,1.2,1.3s1.2-0.6,1.2-1.3C518.9,134.6,518.4,134,517.7,134z"/>
		<path class="st4" d="M522.9,132.2c-0.2-0.1-0.3-0.1-0.6-0.1c-0.2,0-0.3,0-0.4,0.1c-0.1,0.1-0.2,0.4-0.2,0.6v0.4h1.1v0.8h-1.1v3.3
			h-1V134h-0.5v-0.8h0.5v-0.4c0-0.5,0.1-0.8,0.3-1.1c0.2-0.3,0.6-0.4,1.1-0.4c0.3,0,0.7,0.1,0.9,0.2L522.9,132.2z"/>
	</g>
	<g class="st2">
		<path class="st4" d="M483.6,145.5c0.1,0.6,0.5,1.1,1.2,1.1c0.5,0,0.9-0.2,1.1-0.6l0.7,0.4c-0.5,0.7-1,1-1.8,1
			c-1.3,0-2.1-0.9-2.1-2.1s0.9-2.2,2.1-2.2c1.1,0,1.9,0.8,1.9,1.9c0,0.2,0,0.3,0,0.5L483.6,145.5L483.6,145.5z M484.7,143.9
			c-0.6,0-0.9,0.4-1.1,0.9h2C485.6,144.3,485.2,143.9,484.7,143.9z"/>
		<path class="st4" d="M492.8,147.4v-2.1c0-0.3,0-0.7-0.1-1c-0.1-0.2-0.3-0.3-0.6-0.3c-0.3,0-0.7,0.2-0.9,0.6c0,0.2,0,0.4,0,0.7v2.1
			h-1v-2.1c0-0.3,0-0.8-0.2-1c-0.1-0.2-0.3-0.3-0.6-0.3c-0.3,0-0.7,0.3-0.9,0.6v2.8h-1v-4.1h0.9v0.6c0.3-0.4,0.8-0.6,1.2-0.6
			c0.4,0,0.8,0.2,1.1,0.6c0,0,0.1,0.1,0.1,0.2c0.4-0.5,0.9-0.7,1.4-0.7s0.9,0.2,1.1,0.5c0.3,0.4,0.4,1,0.4,1.6v2.1h-0.9V147.4z"/>
		<path class="st4" d="M495.8,143.2l0.1,0.5c0.3-0.4,0.8-0.6,1.3-0.6c1.1,0,2,1,2,2.2c0,1.1-0.8,2.1-2,2.1c-0.4,0-0.9-0.2-1.2-0.5
			v2.4h-1v-6.1L495.8,143.2L495.8,143.2z M495.9,146.1c0.3,0.4,0.7,0.5,1.1,0.5c0.8,0,1.2-0.7,1.2-1.3c0-0.7-0.5-1.3-1.2-1.3
			c-0.4,0-0.8,0.2-1.1,0.6V146.1z"/>
		<path class="st4" d="M501,147.4h-1v-6h1V147.4z"/>
		<path class="st4" d="M506.2,145.3c0,1.2-0.9,2.2-2.1,2.2s-2.1-1-2.1-2.2c0-1.2,0.9-2.2,2.1-2.2S506.2,144.1,506.2,145.3z M504,144
			c-0.7,0-1.2,0.6-1.2,1.3c0,0.7,0.5,1.3,1.2,1.3s1.2-0.6,1.2-1.3C505.2,144.6,504.7,144,504,144z"/>
		<path class="st4" d="M507.6,143.2l0.9,2.7l0,0l0.9-2.7h1.1l-2.3,6l-0.9-0.3l0.7-1.7l-1.5-3.9h1.1V143.2z"/>
		<path class="st4" d="M511.8,145.5c0.1,0.6,0.5,1.1,1.2,1.1c0.5,0,0.9-0.2,1.1-0.6l0.7,0.4c-0.5,0.7-1,1-1.8,1
			c-1.3,0-2.1-0.9-2.1-2.1s0.9-2.2,2.1-2.2c1.1,0,1.9,0.8,1.9,1.9c0,0.2,0,0.3,0,0.5L511.8,145.5L511.8,145.5z M512.9,143.9
			c-0.6,0-0.9,0.4-1.1,0.9h2C513.8,144.3,513.4,143.9,512.9,143.9z"/>
		<path class="st4" d="M516.4,145.5c0.1,0.6,0.5,1.1,1.2,1.1c0.5,0,0.9-0.2,1.1-0.6l0.7,0.4c-0.5,0.7-1,1-1.8,1
			c-1.3,0-2.1-0.9-2.1-2.1s0.9-2.2,2.1-2.2c1.1,0,1.9,0.8,1.9,1.9c0,0.2,0,0.3,0,0.5L516.4,145.5L516.4,145.5z M517.5,143.9
			c-0.6,0-0.9,0.4-1.1,0.9h2C518.4,144.3,518,143.9,517.5,143.9z"/>
		<path class="st4" d="M522.5,144.2c-0.2-0.2-0.5-0.3-0.8-0.3s-0.5,0.2-0.5,0.4c0,0.3,0.3,0.4,0.7,0.6c0.5,0.2,1.2,0.5,1.2,1.2
			c0,0.9-0.8,1.3-1.6,1.3c-0.6,0-1.2-0.2-1.6-0.7l0.6-0.6c0.3,0.3,0.6,0.5,0.9,0.5c0.3,0,0.6-0.1,0.6-0.5c0-0.3-0.4-0.4-0.8-0.6
			c-0.5-0.2-1.1-0.5-1.1-1.2c0-0.8,0.7-1.2,1.4-1.2c0.5,0,1,0.2,1.4,0.5L522.5,144.2z"/>
		<path class="st4" d="M528.3,142.2c-0.2-0.1-0.3-0.1-0.6-0.1c-0.2,0-0.3,0-0.4,0.1c-0.1,0.1-0.2,0.4-0.2,0.6v0.4h1.1v0.8h-1.1v3.3
			h-1V144h-0.5v-0.8h0.5v-0.4c0-0.5,0.1-0.8,0.3-1.1c0.2-0.3,0.6-0.4,1.1-0.4c0.3,0,0.7,0.1,0.9,0.2L528.3,142.2z"/>
		<path class="st4" d="M529.8,143.8c0.2-0.4,0.6-0.7,1-0.7c0.2,0,0.3,0,0.5,0.1l-0.2,0.9c-0.1-0.1-0.2-0.1-0.4-0.1
			c-0.4,0-0.6,0.2-0.8,0.6v2.8h-1v-4.1h0.9V143.8z"/>
		<path class="st4" d="M535.8,145.3c0,1.2-0.9,2.2-2.1,2.2s-2.1-1-2.1-2.2c0-1.2,0.9-2.2,2.1-2.2S535.8,144.1,535.8,145.3z
			 M533.6,144c-0.7,0-1.2,0.6-1.2,1.3c0,0.7,0.5,1.3,1.2,1.3s1.2-0.6,1.2-1.3C534.8,144.6,534.3,144,533.6,144z"/>
		<path class="st4" d="M541.9,147.4v-2.1c0-0.3,0-0.7-0.1-1c-0.1-0.2-0.3-0.3-0.6-0.3s-0.7,0.2-0.9,0.6c0,0.2,0,0.4,0,0.7v2.1h-1
			v-2.1c0-0.3,0-0.8-0.2-1c-0.1-0.2-0.3-0.3-0.6-0.3s-0.7,0.3-0.9,0.6v2.8h-1v-4.1h0.9v0.6c0.3-0.4,0.8-0.6,1.2-0.6s0.8,0.2,1.1,0.6
			c0,0,0.1,0.1,0.1,0.2c0.4-0.5,0.9-0.7,1.4-0.7s0.9,0.2,1.1,0.5c0.3,0.4,0.4,1,0.4,1.6v2.1h-0.9V147.4z"/>
	</g>
	<g class="st2">
		<path class="st4" d="M482.9,152.6v-0.9h1v0.9H482.9z M482.9,157.4v-4.1h1v4.1H482.9z"/>
		<path class="st4" d="M486,153.2v0.6c0.3-0.5,0.8-0.7,1.3-0.7s0.9,0.2,1.1,0.5c0.3,0.4,0.4,0.9,0.4,1.5v2.1h-1v-2.1
			c0-0.3,0-0.7-0.2-1c-0.1-0.2-0.3-0.3-0.6-0.3c-0.4,0-0.8,0.2-1,0.6v2.7h-1V153h1V153.2z"/>
		<path class="st4" d="M493.9,157.4H493v-0.5c-0.3,0.4-0.8,0.6-1.3,0.6c-1.1,0-2-1-2-2.2c0-1.1,0.8-2.1,2-2.1c0.4,0,0.9,0.2,1.2,0.5
			v-2.3h1L493.9,157.4L493.9,157.4z M492.9,154.5c-0.3-0.4-0.7-0.5-1-0.5c-0.8,0-1.2,0.7-1.2,1.3c0,0.7,0.4,1.3,1.2,1.3
			c0.4,0,0.8-0.2,1.1-0.6v-1.5H492.9z"/>
		<path class="st4" d="M495.1,152.6v-0.9h1v0.9H495.1z M495.1,157.4v-4.1h1v4.1H495.1z"/>
		<path class="st4" d="M501.1,157.1c0,0.4-0.1,0.8-0.2,1.1c-0.4,0.7-1.1,0.9-1.8,0.9c-0.6,0-1.3-0.2-1.9-0.6l0.4-0.8
			c0.4,0.3,1,0.5,1.5,0.5c0.6,0,1.1-0.3,1.1-1.1v-0.5c-0.3,0.4-0.8,0.6-1.3,0.6c-1.1,0-2-0.9-2-2.1c0-1.1,0.8-2.1,2-2.1
			c0.4,0,1,0.2,1.3,0.6v-0.5h0.9V157.1z M500.2,154.5c-0.3-0.4-0.7-0.5-1-0.5c-0.8,0-1.2,0.6-1.2,1.3c0,0.7,0.5,1.2,1.2,1.2
			c0.4,0,0.8-0.2,1.1-0.6v-1.4H500.2z"/>
		<path class="st4" d="M503,155.5c0.1,0.6,0.5,1.1,1.2,1.1c0.5,0,0.9-0.2,1.1-0.6l0.7,0.4c-0.5,0.7-1,1-1.8,1
			c-1.3,0-2.1-0.9-2.1-2.1s0.9-2.2,2.1-2.2c1.1,0,1.9,0.8,1.9,1.9c0,0.2,0,0.3,0,0.5L503,155.5L503,155.5z M504.1,153.9
			c-0.6,0-0.9,0.4-1.1,0.9h2C505,154.3,504.6,153.9,504.1,153.9z"/>
		<path class="st4" d="M507.8,153.2v0.6c0.3-0.5,0.8-0.7,1.3-0.7s0.9,0.2,1.1,0.5c0.3,0.4,0.4,0.9,0.4,1.5v2.1h-1v-2.1
			c0-0.3,0-0.7-0.2-1c-0.1-0.2-0.3-0.3-0.6-0.3c-0.4,0-0.8,0.2-1,0.6v2.7h-1V153h1V153.2z"/>
		<path class="st4" d="M515.8,155.3c0,1.2-0.9,2.2-2.1,2.2s-2.1-1-2.1-2.2c0-1.2,0.9-2.2,2.1-2.2S515.8,154.1,515.8,155.3z
			 M513.6,154c-0.7,0-1.2,0.6-1.2,1.3c0,0.7,0.5,1.3,1.2,1.3s1.2-0.6,1.2-1.3C514.8,154.6,514.3,154,513.6,154z"/>
		<path class="st4" d="M519.5,157.4v-0.6c-0.3,0.5-0.8,0.7-1.3,0.7s-0.9-0.2-1.1-0.5c-0.3-0.4-0.4-0.9-0.4-1.5v-2.1h1v2.1
			c0,0.3,0,0.7,0.2,1c0.1,0.2,0.3,0.3,0.6,0.3c0.4,0,0.8-0.2,1-0.6v-2.7h1v4.1h-1V157.4z"/>
		<path class="st4" d="M523.7,154.2c-0.2-0.2-0.5-0.3-0.8-0.3s-0.5,0.2-0.5,0.4c0,0.3,0.3,0.4,0.7,0.6c0.5,0.2,1.2,0.5,1.2,1.2
			c0,0.9-0.8,1.3-1.6,1.3c-0.6,0-1.2-0.2-1.6-0.7l0.6-0.6c0.3,0.3,0.6,0.5,0.9,0.5c0.3,0,0.6-0.1,0.6-0.5c0-0.3-0.4-0.4-0.8-0.6
			c-0.5-0.2-1.1-0.5-1.1-1.2c0-0.8,0.7-1.2,1.4-1.2c0.5,0,1,0.2,1.4,0.5L523.7,154.2z"/>
	</g>
	<g class="st2">
		<path class="st4" d="M486.1,167c-0.4,0.3-0.8,0.5-1.4,0.5c-1.2,0-2.1-0.9-2.1-2.2c0-1.2,0.9-2.2,2.1-2.2c0.5,0,1,0.2,1.3,0.4
			l-0.5,0.7c-0.2-0.2-0.5-0.3-0.8-0.3c-0.7,0-1.2,0.6-1.2,1.3c0,0.8,0.5,1.3,1.2,1.3c0.3,0,0.6-0.1,0.8-0.3L486.1,167z"/>
		<path class="st4" d="M490.9,165.3c0,1.2-0.9,2.2-2.1,2.2s-2.1-1-2.1-2.2c0-1.2,0.9-2.2,2.1-2.2S490.9,164.1,490.9,165.3z
			 M488.7,164c-0.7,0-1.2,0.6-1.2,1.3c0,0.7,0.5,1.3,1.2,1.3s1.2-0.6,1.2-1.3C489.9,164.6,489.4,164,488.7,164z"/>
		<path class="st4" d="M497,167.4v-2.1c0-0.3,0-0.7-0.1-1c-0.1-0.2-0.3-0.3-0.6-0.3c-0.3,0-0.7,0.2-0.9,0.6c0,0.2,0,0.4,0,0.7v2.1
			h-1v-2.1c0-0.3,0-0.8-0.2-1c-0.1-0.2-0.3-0.3-0.6-0.3c-0.3,0-0.7,0.3-0.9,0.6v2.8h-1v-4.1h0.9v0.6c0.3-0.4,0.8-0.6,1.2-0.6
			c0.4,0,0.8,0.2,1.1,0.6c0,0,0.1,0.1,0.1,0.2c0.4-0.5,0.9-0.7,1.4-0.7s0.9,0.2,1.1,0.5c0.3,0.4,0.4,1,0.4,1.6v2.1H497V167.4z"/>
		<path class="st4" d="M504.4,167.4v-2.1c0-0.3,0-0.7-0.1-1c-0.1-0.2-0.3-0.3-0.6-0.3c-0.3,0-0.7,0.2-0.9,0.6c0,0.2,0,0.4,0,0.7v2.1
			h-1v-2.1c0-0.3,0-0.8-0.2-1c-0.1-0.2-0.3-0.3-0.6-0.3c-0.3,0-0.7,0.3-0.9,0.6v2.8h-1v-4.1h0.9v0.6c0.3-0.4,0.8-0.6,1.2-0.6
			c0.4,0,0.8,0.2,1.1,0.6c0,0,0.1,0.1,0.1,0.2c0.4-0.5,0.9-0.7,1.4-0.7s0.9,0.2,1.1,0.5c0.3,0.4,0.4,1,0.4,1.6v2.1h-0.9V167.4z"/>
		<path class="st4" d="M509.4,167.4v-0.6c-0.3,0.5-0.8,0.7-1.3,0.7s-0.9-0.2-1.1-0.5c-0.3-0.4-0.4-0.9-0.4-1.5v-2.1h1v2.1
			c0,0.3,0,0.7,0.2,1c0.1,0.2,0.3,0.3,0.6,0.3c0.4,0,0.8-0.2,1-0.6v-2.7h1v4.1h-1V167.4z"/>
		<path class="st4" d="M512.3,163.2v0.6c0.3-0.5,0.8-0.7,1.3-0.7s0.9,0.2,1.1,0.5c0.3,0.4,0.4,0.9,0.4,1.5v2.1h-1v-2.1
			c0-0.3,0-0.7-0.2-1c-0.1-0.2-0.3-0.3-0.6-0.3c-0.4,0-0.8,0.2-1,0.6v2.7h-1V163h1V163.2z"/>
		<path class="st4" d="M516.4,162.6v-0.9h1v0.9H516.4z M516.4,167.4v-4.1h1v4.1H516.4z"/>
		<path class="st4" d="M519.5,164v1.7c0,0.1,0,0.2,0,0.3c0,0.3,0.1,0.5,0.4,0.5c0.2,0,0.3,0,0.5-0.1l0.3,0.7
			c-0.2,0.1-0.6,0.2-0.9,0.2c-0.6,0-1-0.3-1.2-0.8c-0.1-0.2-0.1-0.5-0.1-0.8v-1.8H518v-0.8h0.5l0.1-0.9h0.9v0.9h1.1v0.8h-1.1V164z"
			/>
		<path class="st4" d="M521.4,162.6v-0.9h1v0.9H521.4z M521.4,167.4v-4.1h1v4.1H521.4z"/>
		<path class="st4" d="M524.3,165.5c0.1,0.6,0.5,1.1,1.2,1.1c0.5,0,0.9-0.2,1.1-0.6l0.7,0.4c-0.5,0.7-1,1-1.8,1
			c-1.3,0-2.1-0.9-2.1-2.1s0.9-2.2,2.1-2.2c1.1,0,1.9,0.8,1.9,1.9c0,0.2,0,0.3,0,0.5L524.3,165.5L524.3,165.5z M525.4,163.9
			c-0.6,0-0.9,0.4-1.1,0.9h2C526.3,164.3,525.9,163.9,525.4,163.9z"/>
		<path class="st4" d="M530.3,164.2c-0.2-0.2-0.5-0.3-0.8-0.3s-0.5,0.2-0.5,0.4c0,0.3,0.3,0.4,0.7,0.6c0.5,0.2,1.2,0.5,1.2,1.2
			c0,0.9-0.8,1.3-1.6,1.3c-0.6,0-1.2-0.2-1.6-0.7l0.6-0.6c0.3,0.3,0.6,0.5,0.9,0.5c0.3,0,0.6-0.1,0.6-0.5c0-0.3-0.4-0.4-0.8-0.6
			c-0.5-0.2-1.1-0.5-1.1-1.2c0-0.8,0.7-1.2,1.4-1.2c0.5,0,1,0.2,1.4,0.5L530.3,164.2z"/>
		<path class="st4" d="M536.4,167.4V167c-0.3,0.4-0.7,0.5-1.2,0.5c-0.8,0-1.5-0.4-1.5-1.3c0-1,0.9-1.3,1.8-1.3c0.2,0,0.5,0,0.8,0.1
			v-0.1c0-0.6-0.2-0.9-0.9-0.9c-0.5,0-0.9,0.2-1.3,0.4l-0.3-0.7c0.5-0.2,1.1-0.4,1.7-0.4c1.2,0,1.7,0.7,1.7,1.7v2.5h-0.8V167.4z
			 M536.3,165.5c-0.2-0.1-0.4-0.1-0.6-0.1c-0.5,0-1,0.1-1,0.7c0,0.4,0.3,0.6,0.7,0.6s0.7-0.2,0.9-0.4L536.3,165.5L536.3,165.5z"/>
		<path class="st4" d="M539.3,163.2v0.6c0.3-0.5,0.8-0.7,1.3-0.7s0.9,0.2,1.1,0.5c0.3,0.4,0.4,0.9,0.4,1.5v2.1h-1v-2.1
			c0-0.3,0-0.7-0.2-1c-0.1-0.2-0.3-0.3-0.6-0.3c-0.4,0-0.8,0.2-1,0.6v2.7h-1V163h1V163.2z"/>
	</g>
	<g class="st2">
		<path class="st4" d="M547.2,167.4h-0.9v-0.5c-0.3,0.4-0.8,0.6-1.3,0.6c-1.1,0-2-1-2-2.2c0-1.1,0.8-2.1,2-2.1
			c0.4,0,0.9,0.2,1.2,0.5v-2.3h1V167.4z M546.3,164.5c-0.3-0.4-0.7-0.5-1-0.5c-0.8,0-1.2,0.7-1.2,1.3c0,0.7,0.4,1.3,1.2,1.3
			c0.4,0,0.8-0.2,1.1-0.6L546.3,164.5L546.3,164.5z"/>
	</g>
	<g class="st2">
		<path class="st4" d="M548.9,167.8l-0.8-0.3l2.3-6.3l0.8,0.3L548.9,167.8z"/>
	</g>
	<g class="st2">
		<path class="st4" d="M555.5,165.3c0,1.2-0.9,2.2-2.1,2.2s-2.1-1-2.1-2.2c0-1.2,0.9-2.2,2.1-2.2S555.5,164.1,555.5,165.3z
			 M553.4,164c-0.7,0-1.2,0.6-1.2,1.3c0,0.7,0.5,1.3,1.2,1.3s1.2-0.6,1.2-1.3C554.5,164.6,554.1,164,553.4,164z"/>
		<path class="st4" d="M557.3,163.8c0.2-0.4,0.6-0.7,1-0.7c0.2,0,0.3,0,0.5,0.1l-0.2,0.9c-0.1-0.1-0.2-0.1-0.4-0.1
			c-0.4,0-0.6,0.2-0.8,0.6v2.8h-1v-4.1h0.9V163.8z"/>
	</g>
	<g class="st2">
		<path class="st4" d="M486.4,173.2l-1.7,4.1h-0.8l-1.6-4.1h1.1l0.9,2.8l0,0l0.9-2.8H486.4z"/>
		<path class="st4" d="M489.9,177.4v-0.6c-0.3,0.5-0.8,0.7-1.3,0.7s-0.9-0.2-1.1-0.5c-0.3-0.4-0.4-0.9-0.4-1.5v-2.1h1v2.1
			c0,0.3,0,0.7,0.2,1c0.1,0.2,0.3,0.3,0.6,0.3c0.4,0,0.8-0.2,1-0.6v-2.7h1v4.1h-1V177.4z"/>
		<path class="st4" d="M492.9,177.4h-1v-6h1V177.4z"/>
		<path class="st4" d="M495,173.2v0.6c0.3-0.5,0.8-0.7,1.3-0.7s0.9,0.2,1.1,0.5c0.3,0.4,0.4,0.9,0.4,1.5v2.1h-1v-2.1
			c0-0.3,0-0.7-0.2-1c-0.1-0.2-0.3-0.3-0.6-0.3c-0.4,0-0.8,0.2-1,0.6v2.7h-1V173h1V173.2z"/>
		<path class="st4" d="M499.7,175.5c0.1,0.6,0.5,1.1,1.2,1.1c0.5,0,0.9-0.2,1.1-0.6l0.7,0.4c-0.5,0.7-1,1-1.8,1
			c-1.3,0-2.1-0.9-2.1-2.1s0.9-2.2,2.1-2.2c1.1,0,1.9,0.8,1.9,1.9c0,0.2,0,0.3,0,0.5L499.7,175.5L499.7,175.5z M500.8,173.9
			c-0.6,0-0.9,0.4-1.1,0.9h2C501.7,174.3,501.3,173.9,500.8,173.9z"/>
		<path class="st4" d="M504.6,173.8c0.2-0.4,0.6-0.7,1-0.7c0.2,0,0.3,0,0.5,0.1l-0.2,0.9c-0.1-0.1-0.2-0.1-0.4-0.1
			c-0.4,0-0.6,0.2-0.8,0.6v2.8h-1v-4.1h0.9V173.8z"/>
		<path class="st4" d="M509,177.4V177c-0.3,0.4-0.7,0.5-1.2,0.5c-0.8,0-1.5-0.4-1.5-1.3c0-1,0.9-1.3,1.8-1.3c0.2,0,0.5,0,0.8,0.1
			v-0.1c0-0.6-0.2-0.9-0.9-0.9c-0.5,0-0.9,0.2-1.3,0.4l-0.3-0.7c0.5-0.2,1.1-0.4,1.7-0.4c1.2,0,1.7,0.7,1.7,1.7v2.5H509V177.4z
			 M508.9,175.5c-0.2-0.1-0.4-0.1-0.6-0.1c-0.5,0-1,0.1-1,0.7c0,0.4,0.3,0.6,0.7,0.6c0.4,0,0.7-0.2,0.9-0.4V175.5z"/>
		<path class="st4" d="M512,171.4v2.4c0.3-0.4,0.8-0.6,1.3-0.6c1.1,0,2,1,2,2.2c0,1.1-0.8,2.1-2,2.1c-0.4,0-1-0.2-1.3-0.6v0.5h-0.9
			v-6H512L512,171.4z M512,176.1c0.3,0.4,0.7,0.5,1.1,0.5c0.8,0,1.2-0.7,1.2-1.3c0-0.7-0.5-1.3-1.2-1.3c-0.4,0-0.8,0.2-1.1,0.6
			V176.1z"/>
		<path class="st4" d="M517.1,177.4h-1v-6h1V177.4z"/>
		<path class="st4" d="M519,175.5c0.1,0.6,0.5,1.1,1.2,1.1c0.5,0,0.9-0.2,1.1-0.6l0.7,0.4c-0.5,0.7-1,1-1.8,1
			c-1.3,0-2.1-0.9-2.1-2.1s0.9-2.2,2.1-2.2c1.1,0,1.9,0.8,1.9,1.9c0,0.2,0,0.3,0,0.5L519,175.5L519,175.5z M520.1,173.9
			c-0.6,0-0.9,0.4-1.1,0.9h2C521,174.3,520.6,173.9,520.1,173.9z"/>
		<path class="st4" d="M527.1,174.2c-0.2-0.2-0.5-0.3-0.8-0.3s-0.5,0.2-0.5,0.4c0,0.3,0.3,0.4,0.7,0.6c0.5,0.2,1.2,0.5,1.2,1.2
			c0,0.9-0.8,1.3-1.6,1.3c-0.6,0-1.2-0.2-1.6-0.7l0.6-0.6c0.3,0.3,0.6,0.5,0.9,0.5c0.3,0,0.6-0.1,0.6-0.5c0-0.3-0.4-0.4-0.8-0.6
			c-0.5-0.2-1.1-0.5-1.1-1.2c0-0.8,0.7-1.2,1.4-1.2c0.5,0,1,0.2,1.4,0.5L527.1,174.2z"/>
		<path class="st4" d="M529.3,175.5c0.1,0.6,0.5,1.1,1.2,1.1c0.5,0,0.9-0.2,1.1-0.6l0.7,0.4c-0.5,0.7-1,1-1.8,1
			c-1.3,0-2.1-0.9-2.1-2.1s0.9-2.2,2.1-2.2c1.1,0,1.9,0.8,1.9,1.9c0,0.2,0,0.3,0,0.5L529.3,175.5L529.3,175.5z M530.5,173.9
			c-0.6,0-0.9,0.4-1.1,0.9h2C531.4,174.3,531,173.9,530.5,173.9z"/>
	</g>
	<g class="st2">
		<path class="st4" d="M536.5,177c-0.4,0.3-0.8,0.5-1.4,0.5c-1.2,0-2.1-0.9-2.1-2.2c0-1.2,0.9-2.2,2.1-2.2c0.5,0,1,0.2,1.3,0.4
			l-0.5,0.7c-0.2-0.2-0.5-0.3-0.8-0.3c-0.7,0-1.2,0.6-1.2,1.3c0,0.8,0.5,1.3,1.2,1.3c0.3,0,0.6-0.1,0.8-0.3L536.5,177z"/>
	</g>
	<g class="st2">
		<path class="st4" d="M538.4,174v1.7c0,0.1,0,0.2,0,0.3c0,0.3,0.1,0.5,0.4,0.5c0.2,0,0.3,0,0.5-0.1l0.3,0.7
			c-0.2,0.1-0.6,0.2-0.9,0.2c-0.6,0-1-0.3-1.2-0.8c-0.1-0.2-0.1-0.5-0.1-0.8v-1.8h-0.5v-0.8h0.5l0.1-0.9h0.9v0.9h1.1v0.8h-1.1V174z"
			/>
		<path class="st4" d="M544.3,175.3c0,1.2-0.9,2.2-2.1,2.2s-2.1-1-2.1-2.2c0-1.2,0.9-2.2,2.1-2.2S544.3,174.1,544.3,175.3z
			 M542.1,174c-0.7,0-1.2,0.6-1.2,1.3c0,0.7,0.5,1.3,1.2,1.3s1.2-0.6,1.2-1.3C543.3,174.6,542.8,174,542.1,174z"/>
	</g>
	<g class="st2">
		<path class="st4" d="M546.1,173.8c0.2-0.4,0.6-0.7,1-0.7c0.2,0,0.3,0,0.5,0.1l-0.2,0.9c-0.1-0.1-0.2-0.1-0.4-0.1
			c-0.4,0-0.6,0.2-0.8,0.6v2.8h-1v-4.1h0.9V173.8z"/>
	</g>
	<g class="st2">
		<path class="st4" d="M550.3,173.2l0.7,0.7l-0.7,0.5l-0.5-0.9l-0.5,0.9l-0.7-0.5l0.7-0.7l-1-0.2l0.3-0.8l0.9,0.4l-0.1-1h0.9l-0.1,1
			l0.9-0.4l0.3,0.8L550.3,173.2z"/>
	</g>
	<g>
		<g>
			<defs>
				<rect id="SVGID_3_" x="-1.9" y="0.6" width="602.9" height="232.2"/>
			</defs>
			<clipPath id="SVGID_4_">
				<use xlink:href="#SVGID_3_"  style="overflow:visible;"/>
			</clipPath>
			<g class="st5">
				<g>
					<rect x="-1.9" y="36.1" width="98.6" height="1"/>
				</g>
			</g>
		</g>
	</g>
	<g class="st2">
		<path d="M38.1,28.6v-2.1c1.9-2,4.3-4.5,5.8-6.8c0.7-1,1.5-2.3,1.5-3.5c0-1.5-1.4-2.3-2.7-2.3c-1.4,0-2.6,1-2.6,2.6L37.8,16
			c0.2-2.5,2.7-4.2,5-4.2c2.6,0,5,1.7,5,4.4c0,1.5-0.8,3.2-1.8,4.6c-1.4,2-3.1,4-4.9,5.8h7.4v2H38.1z"/>
	</g>
	<g class="st2">
		<path d="M62.4,20.3c0,5.3-2.1,8.6-5.9,8.6c-3.7,0-5.9-3.3-5.9-8.6s2.1-8.6,5.9-8.6C60.3,11.7,62.4,15,62.4,20.3z M53,20.3
			c0,4.3,1.3,6.4,3.5,6.4s3.5-2.1,3.5-6.4s-1.3-6.4-3.5-6.4C54.3,13.9,53,16,53,20.3z"/>
		<path d="M67.3,28.6V14.9c-0.8,0.4-1.8,0.8-2.5,1.1v-2.2c1-0.5,2.2-1.1,3.3-1.7h1.5v16.5H67.3z"/>
		<path d="M75.2,27.4c3-1.4,5.5-3.2,6.4-6.4c-1,1-2.2,1.5-3.7,1.5c-2.9,0-4.9-2.4-4.9-5.3c0-3.1,2.2-5.4,5.3-5.4
			c3.8,0,6.1,3.1,6.1,6.6c0,5.3-3.7,9.4-8.2,11.2L75.2,27.4z M82,18.3c0-2.3-1-4.5-3.5-4.5c-1.9,0-3.1,1.5-3.1,3.4
			c0,1.8,1.1,3.2,3,3.2C79.8,20.4,81.3,19.6,82,18.3z"/>
	</g>
	<g>
		<g>
			<defs>
				<rect id="SVGID_5_" x="-1.9" y="0.6" width="602.9" height="232.2"/>
			</defs>
			<clipPath id="SVGID_6_">
				<use xlink:href="#SVGID_5_"  style="overflow:visible;"/>
			</clipPath>
			<g class="st6">
				<g>
					<path class="st0" d="M165.3,107.9c-2.8,0-5.5-0.2-8.3-0.7c-1.4-0.2-2.7-0.5-3.9-0.8l3.4-14.6c0.9,0.2,1.9,0.4,2.9,0.6
						c20.8,3.3,40.5-11,43.8-31.9c0.2-1.1,0.3-2.2,0.4-3.4l15,1.2c-0.1,1.5-0.3,3.1-0.5,4.6C213.8,89.1,191.1,107.9,165.3,107.9z"/>
				</g>
				<g>
					<path class="st1" d="M217.5,187l-14.7-3c0.2-1.2,0.4-2.2,0.5-3.2c1.3-10.2-1.5-20.2-7.7-28.3c-6.3-8.1-15.3-13.3-25.5-14.5
						c-21-2.7-40.2,12.2-42.8,33.2c-0.2,1.8-0.3,3.6-0.3,5.5l-15,0.3c0-2.5,0.1-5.1,0.4-7.6c3.7-29.2,30.4-49.9,59.6-46.2
						c14.1,1.8,26.7,9,35.4,20.2c8.7,11.3,12.5,25.2,10.8,39.4C218.1,184,217.9,185.4,217.5,187z"/>
				</g>
				<g>
					<path class="st1" d="M401,75.8l-13.7-6.1c0.5-1.1,0.9-2.1,1.2-3.2c3.3-9.7,2.6-20.1-1.9-29.3s-12.4-16-22.1-19.3
						s-20.1-2.6-29.3,1.9c-9.2,4.5-16,12.4-19.3,22.1c-1.3,4-2,8.1-2,12.3h-15c0-5.8,1-11.6,2.8-17.1c9.4-27.8,39.8-42.8,67.6-33.4
						c13.5,4.6,24.4,14.1,30.7,26.9c6.3,12.8,7.3,27.2,2.7,40.7C402.2,72.8,401.6,74.3,401,75.8z"/>
				</g>
				<g>
					<path class="st1" d="M394.4,211.1l-12.1-8.9c6.1-8.2,8.6-18.3,7.1-28.5c-1.5-10.1-6.9-19-15.1-25.1c-17-12.6-41-8.9-53.6,8
						c-4.8,6.5-7.5,14.6-7.5,22.8h-15c0-11.3,3.7-22.6,10.4-31.7c17.5-23.6,50.9-28.7,74.6-11.2c11.5,8.5,18.9,20.9,21,35
						C406.4,185.6,402.9,199.7,394.4,211.1z"/>
				</g>
			</g>
		</g>
	</g>
	<g class="st2">
		<path class="st4" d="M497.6,121.8h-13.5v-3c2.4-2.5,5.2-5.7,7.1-8.4c0.8-1.1,1.7-2.6,1.7-3.9c0-1.5-1.3-2.4-2.8-2.4
			c-1.6,0-2.7,1.2-2.7,3l-3.8-0.7c0.3-3.4,3.3-5.6,6.6-5.6c3.3,0,6.5,2.1,6.5,5.6c0,2-1,4-2.2,5.7c-1.6,2.2-3.5,4.4-5.4,6.4h8.5
			L497.6,121.8L497.6,121.8z"/>
		<path class="st4" d="M513.6,121.8h-13.5v-3c2.4-2.5,5.2-5.7,7.1-8.4c0.8-1.1,1.7-2.6,1.7-3.9c0-1.5-1.3-2.4-2.8-2.4
			c-1.6,0-2.7,1.2-2.7,3l-3.8-0.7c0.3-3.4,3.3-5.6,6.6-5.6c3.3,0,6.5,2.1,6.5,5.6c0,2-1,4-2.2,5.7c-1.6,2.2-3.5,4.4-5.4,6.4h8.5
			V121.8z"/>
	</g>
</g>
</svg>
