<?xml version="1.0" encoding="utf-8"?>
<!-- Generator: Adobe Illustrator 25.2.1, SVG Export Plug-In . SVG Version: 6.00 Build 0)  -->
<svg version="1.1" id="Layer_1" xmlns="http://www.w3.org/2000/svg" xmlns:xlink="http://www.w3.org/1999/xlink" x="0px" y="0px"
	 viewBox="0 0 577.4 233.4" style="enable-background:new 0 0 577.4 233.4;" xml:space="preserve">
<style type="text/css">
	.st0{fill:#730526;}
	.st1{fill:#C2384A;}
	.st2{enable-background:new    ;}
	.st3{clip-path:url(#SVGID_2_);}
	.st4{fill:#32121A;}
	.st5{clip-path:url(#SVGID_4_);}
	.st6{clip-path:url(#SVGID_6_);}
</style>
<g>
	<rect x="208.2" y="70.9" class="st0" width="66.6" height="1"/>
</g>
<g>
	<rect x="208.6" y="204.2" class="st0" width="66.6" height="1"/>
</g>
<g>
	<rect x="395" y="82.5" class="st0" width="66.6" height="1"/>
</g>
<g>
	<rect x="374.3" y="217.8" class="st0" width="86.6" height="1"/>
</g>
<g>
	<rect x="208.2" y="45.2" class="st1" width="66.6" height="1"/>
</g>
<g>
	<rect x="208.6" y="173.5" class="st1" width="66.6" height="1"/>
</g>
<g>
	<rect x="395" y="44.8" class="st1" width="66.6" height="1"/>
</g>
<g>
	<rect x="394.3" y="180.1" class="st1" width="66.6" height="1"/>
</g>
<g class="st2">
	<path class="st0" d="M236.2,64.4v-1.1c1-1.1,2.2-2.4,3-3.6c0.4-0.5,0.8-1.2,0.8-1.8c0-0.8-0.7-1.2-1.4-1.2c-0.7,0-1.4,0.5-1.4,1.3
		l-1.2-0.2c0.1-1.3,1.4-2.2,2.6-2.2c1.4,0,2.6,0.9,2.6,2.3c0,0.8-0.4,1.7-0.9,2.4c-0.7,1.1-1.6,2.1-2.5,3h3.8v1.1H236.2z"/>
</g>
<g class="st2">
	<path class="st0" d="M243.8,63.8c1.6-0.7,2.9-1.7,3.3-3.4c-0.5,0.5-1.2,0.8-2,0.8c-1.5,0-2.5-1.2-2.5-2.8c0-1.6,1.2-2.8,2.7-2.8
		c2,0,3.2,1.6,3.2,3.4c0,2.8-1.9,4.9-4.3,5.8L243.8,63.8z M247.3,59.1c0-1.2-0.5-2.3-1.8-2.3c-1,0-1.6,0.8-1.6,1.8
		c0,1,0.6,1.7,1.5,1.7C246.2,60.2,246.9,59.7,247.3,59.1z"/>
</g>
<g class="st2">
	<path class="st0" d="M250,64.4v-1.5h1.4v1.5H250z"/>
</g>
<g class="st2">
	<path class="st0" d="M253.9,64.4v-7.2c-0.4,0.2-0.9,0.4-1.3,0.6v-1.1c0.5-0.3,1.2-0.6,1.7-0.9h0.8v8.6H253.9z"/>
</g>
<g class="st2">
	<path class="st0" d="M262.1,57.3c0,1.1-0.9,2.1-2.1,2.1c-1.2,0-2.1-0.9-2.1-2.1c0-1.2,0.9-2.1,2.1-2.1
		C261.2,55.2,262.1,56.2,262.1,57.3z M258.9,57.3c0,0.7,0.5,1.2,1.1,1.2c0.6,0,1.1-0.5,1.1-1.2c0-0.7-0.5-1.1-1.1-1.1
		C259.4,56.2,258.9,56.7,258.9,57.3z M266.3,55.7l-6.5,8.9l-0.7-0.5l6.5-8.9L266.3,55.7z M267.5,62.4c0,1.1-0.9,2.1-2.1,2.1
		c-1.2,0-2.1-0.9-2.1-2.1c0-1.2,0.9-2.1,2.1-2.1C266.6,60.4,267.5,61.3,267.5,62.4z M264.3,62.4c0,0.7,0.5,1.2,1.1,1.2
		c0.6,0,1.1-0.5,1.1-1.2c0-0.7-0.5-1.1-1.1-1.1C264.8,61.3,264.3,61.8,264.3,62.4z"/>
</g>
<g class="st2">
	<path class="st0" d="M240.1,197.7v-2.2h-3.9v-1.3c1.1-1.4,2.7-3.5,3.8-5.1h1.3v5.4h1.3v1.1h-1.3v2.2H240.1z M240.1,194.4v-3.7
		c-0.8,1.2-2,2.8-2.6,3.7H240.1z"/>
	<path class="st0" d="M243.6,197.7v-1.1c1-1.1,2.2-2.4,3-3.6c0.4-0.5,0.8-1.2,0.8-1.8c0-0.8-0.7-1.2-1.4-1.2c-0.7,0-1.4,0.5-1.4,1.3
		l-1.2-0.2c0.1-1.3,1.4-2.2,2.6-2.2c1.4,0,2.6,0.9,2.6,2.3c0,0.8-0.4,1.7-0.9,2.4c-0.7,1.1-1.6,2.1-2.5,3h3.8v1.1H243.6z"/>
	<path class="st0" d="M250.4,197.7v-1.5h1.4v1.5H250.4z"/>
</g>
<g class="st2">
	<path class="st0" d="M254.4,197.1c1.6-0.7,2.9-1.7,3.3-3.4c-0.5,0.5-1.2,0.8-2,0.8c-1.5,0-2.5-1.2-2.5-2.8c0-1.6,1.2-2.8,2.7-2.8
		c2,0,3.2,1.6,3.2,3.4c0,2.8-1.9,4.9-4.3,5.8L254.4,197.1z M257.9,192.3c0-1.2-0.5-2.3-1.8-2.3c-1,0-1.6,0.8-1.6,1.8
		c0,1,0.6,1.7,1.5,1.7C256.8,193.4,257.5,193,257.9,192.3z"/>
</g>
<g class="st2">
	<path class="st0" d="M265.6,190.6c0,1.1-0.9,2.1-2.1,2.1c-1.2,0-2.1-0.9-2.1-2.1c0-1.2,0.9-2.1,2.1-2.1
		C264.6,188.5,265.6,189.4,265.6,190.6z M262.4,190.6c0,0.7,0.5,1.2,1.1,1.2c0.6,0,1.1-0.5,1.1-1.2c0-0.7-0.5-1.1-1.1-1.1
		C262.9,189.4,262.4,189.9,262.4,190.6z M269.8,188.9l-6.5,8.9l-0.7-0.5l6.5-8.9L269.8,188.9z M270.9,195.7c0,1.1-0.9,2.1-2.1,2.1
		c-1.2,0-2.1-0.9-2.1-2.1c0-1.2,0.9-2.1,2.1-2.1C270,193.6,270.9,194.5,270.9,195.7z M267.8,195.7c0,0.7,0.5,1.2,1.1,1.2
		c0.6,0,1.1-0.5,1.1-1.2c0-0.7-0.5-1.1-1.1-1.1C268.3,194.5,267.8,195,267.8,195.7z"/>
</g>
<g class="st2">
	<path class="st0" d="M424.2,71c0.5,0,0.9,0,1.2-0.1c0.7-0.2,1.2-0.7,1.2-1.3c0-0.7-0.6-1.2-1.4-1.2c-0.6,0-1.2,0.3-1.4,0.9l-1-0.4
		c0.3-0.9,1.3-1.6,2.5-1.6c1.6,0,2.7,0.9,2.7,2.3c0,0.8-0.4,1.5-1.1,1.8c0.9,0.3,1.5,1.1,1.5,2.1c0,1.7-1.3,2.7-2.9,2.7
		c-1.1,0-2.2-0.5-2.7-1.4l1-0.5c0.4,0.6,1,0.9,1.7,0.9c0.9,0,1.7-0.5,1.7-1.5c0-0.9-0.8-1.5-1.8-1.5c-0.3,0-0.6,0-1,0.1V71z"/>
</g>
<g class="st2">
	<path class="st0" d="M434.7,68.5h-3.3c0,0.8-0.1,1.7-0.2,2.4c0.4-0.2,0.8-0.2,1.3-0.2c1.4,0,2.6,1.1,2.6,2.7c0,1.6-1.2,2.9-2.9,2.9
		c-1.1,0-2.3-0.6-2.7-1.4l1-0.5c0.3,0.6,0.9,0.9,1.6,0.9c1.1,0,1.8-0.8,1.8-1.7c0-1-0.7-1.6-1.7-1.6c-0.5,0-1,0.2-1.3,0.5l-0.9-0.5
		c0.1-1.3,0.2-3.2,0.3-4.4h4.4V68.5z"/>
</g>
<g class="st2">
	<path class="st0" d="M436.5,76v-1.5h1.4V76H436.5z"/>
</g>
<g class="st2">
	<path class="st0" d="M439.7,76v-1.1c1-1.1,2.2-2.4,3-3.6c0.4-0.5,0.8-1.2,0.8-1.8c0-0.8-0.7-1.2-1.4-1.2c-0.7,0-1.4,0.5-1.4,1.3
		l-1.2-0.2c0.1-1.3,1.4-2.2,2.6-2.2c1.4,0,2.6,0.9,2.6,2.3c0,0.8-0.4,1.7-0.9,2.4c-0.7,1.1-1.6,2.1-2.5,3h3.8V76H439.7z"/>
</g>
<g class="st2">
	<path class="st0" d="M451.5,68.9c0,1.1-0.9,2.1-2.1,2.1c-1.2,0-2.1-0.9-2.1-2.1c0-1.2,0.9-2.1,2.1-2.1
		C450.5,66.9,451.5,67.8,451.5,68.9z M448.3,68.9c0,0.7,0.5,1.2,1.1,1.2c0.6,0,1.1-0.5,1.1-1.2c0-0.7-0.5-1.1-1.1-1.1
		C448.8,67.8,448.3,68.3,448.3,68.9z M455.7,67.3l-6.5,8.9l-0.7-0.5l6.5-8.9L455.7,67.3z M456.8,74c0,1.1-0.9,2.1-2.1,2.1
		s-2.1-0.9-2.1-2.1c0-1.2,0.9-2.1,2.1-2.1S456.8,72.9,456.8,74z M453.7,74c0,0.7,0.5,1.2,1.1,1.2c0.6,0,1.1-0.5,1.1-1.2
		c0-0.7-0.5-1.1-1.1-1.1C454.2,72.9,453.7,73.4,453.7,74z"/>
</g>
<g class="st2">
	<path class="st0" d="M422.3,211.3v-1.1c1-1.1,2.2-2.4,3-3.6c0.4-0.5,0.8-1.2,0.8-1.8c0-0.8-0.7-1.2-1.4-1.2c-0.7,0-1.4,0.5-1.4,1.3
		l-1.2-0.2c0.1-1.3,1.4-2.2,2.6-2.2c1.4,0,2.6,0.9,2.6,2.3c0,0.8-0.4,1.7-0.9,2.4c-0.7,1.1-1.6,2.1-2.5,3h3.8v1.1H422.3z"/>
</g>
<g class="st2">
	<path class="st0" d="M433.9,203.8h-3.3c0,0.8-0.1,1.7-0.2,2.4c0.4-0.2,0.8-0.2,1.3-0.2c1.4,0,2.6,1.1,2.6,2.7
		c0,1.6-1.2,2.9-2.9,2.9c-1.1,0-2.3-0.6-2.7-1.4l1-0.5c0.3,0.6,0.9,0.9,1.6,0.9c1.1,0,1.8-0.8,1.8-1.7c0-1-0.7-1.6-1.7-1.6
		c-0.5,0-1,0.2-1.3,0.5l-0.9-0.5c0.1-1.3,0.2-3.2,0.3-4.4h4.4V203.8z"/>
	<path class="st0" d="M435.7,211.3v-1.5h1.4v1.5H435.7z"/>
</g>
<g class="st2">
	<path class="st0" d="M440,206.3c0.5,0,0.9,0,1.2-0.1c0.7-0.2,1.2-0.7,1.2-1.3c0-0.7-0.6-1.2-1.4-1.2c-0.6,0-1.2,0.3-1.4,0.9l-1-0.4
		c0.3-0.9,1.3-1.6,2.5-1.6c1.6,0,2.7,0.9,2.7,2.3c0,0.8-0.4,1.5-1.1,1.8c0.9,0.3,1.5,1.1,1.5,2.1c0,1.7-1.3,2.7-2.9,2.7
		c-1.1,0-2.2-0.5-2.7-1.4l1-0.5c0.4,0.6,1,0.9,1.7,0.9c0.9,0,1.7-0.5,1.7-1.5c0-0.9-0.8-1.5-1.8-1.5c-0.3,0-0.6,0-1,0.1V206.3z"/>
</g>
<g class="st2">
	<path class="st0" d="M450.5,204.2c0,1.1-0.9,2.1-2.1,2.1c-1.2,0-2.1-0.9-2.1-2.1c0-1.2,0.9-2.1,2.1-2.1
		C449.6,202.1,450.5,203.1,450.5,204.2z M447.4,204.2c0,0.7,0.5,1.2,1.1,1.2c0.6,0,1.1-0.5,1.1-1.2c0-0.7-0.5-1.1-1.1-1.1
		C447.8,203.1,447.4,203.5,447.4,204.2z M454.8,202.6l-6.5,8.9l-0.7-0.5l6.5-8.9L454.8,202.6z M455.9,209.3c0,1.1-0.9,2.1-2.1,2.1
		s-2.1-0.9-2.1-2.1c0-1.2,0.9-2.1,2.1-2.1S455.9,208.2,455.9,209.3z M452.8,209.3c0,0.7,0.5,1.2,1.1,1.2c0.6,0,1.1-0.5,1.1-1.2
		c0-0.7-0.5-1.1-1.1-1.1C453.2,208.2,452.8,208.7,452.8,209.3z"/>
</g>
<g class="st2">
	<path class="st1" d="M241,31c-1.1,2.2-2.7,5.8-3.6,8l-1.1-0.5c1.2-2.7,2.7-5.8,3.4-7.3h-4.1v-1.1h5.5V31z"/>
</g>
<g class="st2">
	<path class="st1" d="M247.9,34.4c0,2.8-1.1,4.5-3.1,4.5s-3.1-1.7-3.1-4.5c0-2.8,1.1-4.5,3.1-4.5S247.9,31.6,247.9,34.4z M243,34.4
		c0,2.2,0.7,3.4,1.8,3.4s1.8-1.1,1.8-3.4s-0.7-3.4-1.8-3.4S243,32.2,243,34.4z"/>
	<path class="st1" d="M249.3,38.7v-1.5h1.4v1.5H249.3z"/>
</g>
<g class="st2">
	<path class="st1" d="M253.3,38.1c1.6-0.7,2.9-1.7,3.3-3.4c-0.5,0.5-1.2,0.8-2,0.8c-1.5,0-2.5-1.2-2.5-2.8c0-1.6,1.2-2.8,2.7-2.8
		c2,0,3.2,1.6,3.2,3.4c0,2.8-1.9,4.9-4.3,5.8L253.3,38.1z M256.8,33.4c0-1.2-0.5-2.3-1.8-2.3c-1,0-1.6,0.8-1.6,1.8
		c0,1,0.6,1.7,1.5,1.7C255.7,34.5,256.5,34,256.8,33.4z"/>
</g>
<g class="st2">
	<path class="st1" d="M264.5,31.6c0,1.1-0.9,2.1-2.1,2.1c-1.2,0-2.1-0.9-2.1-2.1c0-1.2,0.9-2.1,2.1-2.1
		C263.6,29.5,264.5,30.5,264.5,31.6z M261.3,31.6c0,0.7,0.5,1.2,1.1,1.2c0.6,0,1.1-0.5,1.1-1.2c0-0.7-0.5-1.1-1.1-1.1
		C261.8,30.5,261.3,31,261.3,31.6z M268.7,30l-6.5,8.9l-0.7-0.5l6.5-8.9L268.7,30z M269.9,36.7c0,1.1-0.9,2.1-2.1,2.1
		c-1.2,0-2.1-0.9-2.1-2.1c0-1.2,0.9-2.1,2.1-2.1C269,34.7,269.9,35.6,269.9,36.7z M266.7,36.7c0,0.7,0.5,1.2,1.1,1.2
		c0.6,0,1.1-0.5,1.1-1.2c0-0.7-0.5-1.1-1.1-1.1C267.2,35.6,266.7,36.1,266.7,36.7z"/>
</g>
<g class="st2">
	<path class="st1" d="M241.4,159.4h-3.3c0,0.8-0.1,1.7-0.2,2.4c0.4-0.2,0.8-0.2,1.3-0.2c1.4,0,2.6,1.1,2.6,2.7
		c0,1.6-1.2,2.9-2.9,2.9c-1.1,0-2.3-0.6-2.7-1.4l1-0.5c0.3,0.6,0.9,0.9,1.6,0.9c1.1,0,1.8-0.8,1.8-1.7c0-1-0.7-1.6-1.7-1.6
		c-0.5,0-1,0.2-1.3,0.5l-0.9-0.5c0.1-1.3,0.2-3.2,0.3-4.4h4.4V159.4z"/>
</g>
<g class="st2">
	<path class="st1" d="M248.2,159.2c-1.1,2.2-2.7,5.8-3.6,8l-1.1-0.5c1.2-2.7,2.7-5.8,3.4-7.3h-4.1v-1.1h5.5V159.2z"/>
</g>
<g class="st2">
	<path class="st1" d="M248.3,167v-1.5h1.4v1.5H248.3z"/>
</g>
<g class="st2">
	<path class="st1" d="M252.2,167v-7.2c-0.4,0.2-0.9,0.4-1.3,0.6v-1.1c0.5-0.3,1.2-0.6,1.7-0.9h0.8v8.6H252.2z"/>
</g>
<g class="st2">
	<path class="st1" d="M260.5,159.9c0,1.1-0.9,2.1-2.1,2.1c-1.2,0-2.1-0.9-2.1-2.1c0-1.2,0.9-2.1,2.1-2.1
		C259.6,157.8,260.5,158.7,260.5,159.9z M257.3,159.9c0,0.7,0.5,1.2,1.1,1.2c0.6,0,1.1-0.5,1.1-1.2c0-0.7-0.5-1.1-1.1-1.1
		C257.8,158.7,257.3,159.2,257.3,159.9z M264.7,158.2l-6.5,8.9l-0.7-0.5l6.5-8.9L264.7,158.2z M265.9,165c0,1.1-0.9,2.1-2.1,2.1
		c-1.2,0-2.1-0.9-2.1-2.1c0-1.2,0.9-2.1,2.1-2.1C265,162.9,265.9,163.8,265.9,165z M262.7,165c0,0.7,0.5,1.2,1.1,1.2
		c0.6,0,1.1-0.5,1.1-1.2c0-0.7-0.5-1.1-1.1-1.1C263.2,163.8,262.7,164.3,262.7,165z"/>
</g>
<g class="st2">
	<path class="st1" d="M427.5,30.3c-1.6,0.7-2.9,1.7-3.3,3.4c0.5-0.5,1.2-0.8,2-0.8c1.5,0,2.5,1.2,2.5,2.8c0,1.6-1.2,2.8-2.7,2.8
		c-2,0-3.2-1.6-3.2-3.4c0-2.8,1.9-4.9,4.3-5.8L427.5,30.3z M424,35c0,1.2,0.5,2.3,1.8,2.3c1,0,1.6-0.8,1.6-1.8c0-1-0.6-1.7-1.5-1.7
		C425.1,34,424.3,34.4,424,35z"/>
</g>
<g class="st2">
	<path class="st1" d="M433.5,38.3v-2.2h-3.9v-1.3c1.1-1.4,2.7-3.5,3.8-5.1h1.3v5.4h1.3v1.1h-1.3v2.2H433.5z M433.5,35.1v-3.7
		c-0.8,1.2-2,2.8-2.6,3.7H433.5z"/>
	<path class="st1" d="M437.2,38.3v-1.5h1.4v1.5H437.2z"/>
</g>
<g class="st2">
	<path class="st1" d="M440.2,35.9c0-1,0.5-1.7,1.3-2.2c-0.7-0.4-1.1-0.9-1.1-1.9c0-1.3,1.1-2.4,2.7-2.4c1.6,0,2.7,1.1,2.7,2.4
		c0,0.9-0.4,1.5-1.1,1.9c0.8,0.4,1.3,1.1,1.3,2.2c0,1.4-1.2,2.5-2.9,2.5S440.2,37.4,440.2,35.9z M441.5,35.9c0,0.9,0.8,1.5,1.7,1.5
		c0.9,0,1.7-0.6,1.7-1.5c0-0.8-0.8-1.5-1.7-1.5C442.2,34.4,441.5,35.1,441.5,35.9z M441.7,31.9c0,0.7,0.7,1.3,1.4,1.3
		s1.4-0.6,1.4-1.3c0-0.8-0.7-1.3-1.4-1.3S441.7,31.2,441.7,31.9z"/>
</g>
<g class="st2">
	<path class="st1" d="M452.6,31.2c0,1.1-0.9,2.1-2.1,2.1c-1.2,0-2.1-0.9-2.1-2.1c0-1.2,0.9-2.1,2.1-2.1
		C451.7,29.1,452.6,30.1,452.6,31.2z M449.4,31.2c0,0.7,0.5,1.2,1.1,1.2c0.6,0,1.1-0.5,1.1-1.2c0-0.7-0.5-1.1-1.1-1.1
		C449.9,30.1,449.4,30.6,449.4,31.2z M456.8,29.6l-6.5,8.9l-0.7-0.5l6.5-8.9L456.8,29.6z M458,36.3c0,1.1-0.9,2.1-2.1,2.1
		s-2.1-0.9-2.1-2.1c0-1.2,0.9-2.1,2.1-2.1S458,35.2,458,36.3z M454.8,36.3c0,0.7,0.5,1.2,1.1,1.2c0.6,0,1.1-0.5,1.1-1.2
		c0-0.7-0.5-1.1-1.1-1.1C455.3,35.2,454.8,35.7,454.8,36.3z"/>
</g>
<g class="st2">
	<path class="st1" d="M427.1,165.9c-1.1,2.2-2.7,5.8-3.6,8l-1.1-0.5c1.2-2.7,2.7-5.8,3.4-7.3h-4.1V165h5.5V165.9z"/>
</g>
<g class="st2">
	<path class="st1" d="M431.3,173.6v-2.2h-3.9v-1.3c1.1-1.4,2.7-3.5,3.8-5.1h1.3v5.4h1.3v1.1h-1.3v2.2H431.3z M431.3,170.3v-3.7
		c-0.8,1.2-2,2.8-2.6,3.7H431.3z"/>
	<path class="st1" d="M435,173.6v-1.5h1.4v1.5H435z"/>
</g>
<g class="st2">
	<path class="st1" d="M442.9,165.9c-1.1,2.2-2.7,5.8-3.6,8l-1.1-0.5c1.2-2.7,2.7-5.8,3.4-7.3h-4.1V165h5.5V165.9z"/>
</g>
<g class="st2">
	<path class="st1" d="M449.3,166.5c0,1.1-0.9,2.1-2.1,2.1s-2.1-0.9-2.1-2.1c0-1.2,0.9-2.1,2.1-2.1S449.3,165.3,449.3,166.5z
		 M446.1,166.5c0,0.7,0.5,1.2,1.1,1.2c0.6,0,1.1-0.5,1.1-1.2c0-0.7-0.5-1.1-1.1-1.1C446.6,165.3,446.1,165.8,446.1,166.5z
		 M453.5,164.9l-6.5,8.9l-0.7-0.5l6.5-8.9L453.5,164.9z M454.7,171.6c0,1.1-0.9,2.1-2.1,2.1c-1.2,0-2.1-0.9-2.1-2.1
		c0-1.2,0.9-2.1,2.1-2.1C453.8,169.5,454.7,170.5,454.7,171.6z M451.5,171.6c0,0.7,0.5,1.2,1.1,1.2c0.6,0,1.1-0.5,1.1-1.2
		c0-0.7-0.5-1.1-1.1-1.1C452,170.5,451.5,170.9,451.5,171.6z"/>
</g>
<g>
	<defs>
		<rect id="SVGID_1_" width="577.4" height="233.4"/>
	</defs>
	<clipPath id="SVGID_2_">
		<use xlink:href="#SVGID_1_"  style="overflow:visible;"/>
	</clipPath>
	<g class="st3">
		<g>
			<path class="st1" d="M165.4,108.5c-2.8,0-5.7-0.2-8.5-0.7c-29-4.6-48.9-32-44.3-61l0,0c4.6-29,31.9-48.8,60.9-44.3
				c29.1,4.6,49,32,44.4,61c-2.2,14.1-9.8,26.4-21.3,34.8C187.3,105,176.5,108.5,165.4,108.5z M127.4,49.2
				c-3.3,20.9,11,40.5,31.8,43.9c20.9,3.3,40.5-11,43.9-31.8c3.3-20.9-11-40.5-31.8-43.9C150.4,14.1,130.7,28.4,127.4,49.2
				L127.4,49.2z"/>
		</g>
		<g>
			<path class="st0" d="M165.3,229.7c-29.4,0-53.3-23.9-53.3-53.3c0-29.4,23.9-53.3,53.3-53.3s53.3,23.9,53.3,53.3
				C218.6,205.8,194.7,229.7,165.3,229.7z M165.3,138.1c-21.1,0-38.3,17.2-38.3,38.3s17.2,38.3,38.3,38.3s38.3-17.2,38.3-38.3
				S186.4,138.1,165.3,138.1z"/>
		</g>
		<g>
			<path class="st0" d="M352,108.1c-10.5,0-20.8-3.1-29.8-9.2c-11.8-8-19.8-20.1-22.5-34.1C294.2,36,313.2,8,342,2.4
				c14-2.7,28.2,0.2,40,8.2c11.8,8,19.8,20.1,22.5,34.1c2.7,14-0.2,28.2-8.2,40c-8,11.8-20.1,19.8-34.1,22.5
				C358.8,107.8,355.4,108.1,352,108.1z M352.2,16.5c-2.4,0-4.9,0.2-7.3,0.7c-10,1.9-18.7,7.7-24.5,16.1c-5.7,8.5-7.8,18.7-5.9,28.7
				c1.9,10,7.7,18.7,16.1,24.5c8.5,5.7,18.7,7.8,28.7,5.9c10-1.9,18.7-7.7,24.5-16.1s7.8-18.7,5.9-28.7c-1.9-10-7.7-18.7-16.1-24.5
				C367.2,18.7,359.8,16.5,352.2,16.5z"/>
		</g>
		<g>
			<path class="st0" d="M351.4,233.4c-24.2,0-46.1-16.6-51.9-41.1c-6.8-28.6,11-57.4,39.6-64.1c13.9-3.3,28.2-0.9,40.3,6.5
				c12.1,7.5,20.6,19.2,23.9,33.1c3.3,13.9,0.9,28.2-6.5,40.3c-7.5,12.1-19.2,20.6-33.1,23.9C359.6,232.9,355.5,233.4,351.4,233.4z
				 M351.5,141.8c-3,0-5.9,0.3-8.9,1l0,0c-20.6,4.9-33.3,25.5-28.5,46.1c4.9,20.6,25.5,33.3,46.1,28.5c10-2.4,18.4-8.4,23.8-17.1
				c5.4-8.7,7-19,4.7-28.9s-8.4-18.4-17.1-23.8C365.4,143.7,358.5,141.8,351.5,141.8z"/>
		</g>
	</g>
</g>
<g class="st2">
	<path class="st0" d="M141.9,45.1c0,0.9-0.7,1.5-1.5,1.5c-0.8,0-1.5-0.6-1.5-1.5s0.7-1.5,1.5-1.5C141.2,43.6,141.9,44.2,141.9,45.1z
		 M144.8,43.9l-4.5,6.1l-0.6-0.4l4.5-6.1L144.8,43.9z M139.7,45.1c0,0.4,0.3,0.7,0.7,0.7c0.4,0,0.6-0.3,0.6-0.7s-0.3-0.7-0.6-0.7
		C140,44.4,139.7,44.7,139.7,45.1z M145.6,48.5c0,0.9-0.7,1.5-1.5,1.5c-0.8,0-1.5-0.6-1.5-1.5s0.7-1.5,1.5-1.5
		C144.9,47,145.6,47.6,145.6,48.5z M143.4,48.5c0,0.4,0.3,0.7,0.7,0.7c0.4,0,0.6-0.3,0.6-0.7s-0.3-0.7-0.6-0.7
		C143.7,47.8,143.4,48.1,143.4,48.5z"/>
	<path class="st0" d="M153.4,47.6c0,1.4-1,2.4-2.4,2.4s-2.4-1.1-2.4-2.4c0-1.4,1-2.4,2.4-2.4S153.4,46.2,153.4,47.6z M151,46.1
		c-0.8,0-1.3,0.7-1.3,1.5c0,0.8,0.5,1.5,1.3,1.5s1.3-0.7,1.3-1.5C152.3,46.8,151.8,46.1,151,46.1z"/>
	<path class="st0" d="M156.9,44.2c-0.2-0.1-0.4-0.1-0.6-0.1c-0.2,0-0.4,0.1-0.4,0.2c-0.1,0.1-0.2,0.4-0.2,0.7v0.4h1.2v0.9h-1.2v3.7
		h-1.1v-3.7h-0.5v-0.9h0.5v-0.5c0-0.5,0.1-0.9,0.3-1.2c0.2-0.3,0.6-0.5,1.3-0.5c0.4,0,0.7,0.1,1.1,0.2L156.9,44.2z"/>
</g>
<g class="st2">
	<path class="st0" d="M163.9,48.4L163.9,48.4l0.8-3.2h1.1l-1.3,4.6h-1.1l-0.8-3h0l-0.9,3h-1.2l-1.3-4.6h1.2l0.8,3.2h0l0.9-3.2h1
		L163.9,48.4z"/>
</g>
<g class="st2">
	<path class="st0" d="M171,47.6c0,1.4-1,2.4-2.4,2.4s-2.4-1.1-2.4-2.4c0-1.4,1-2.4,2.4-2.4S171,46.2,171,47.6z M168.6,46.1
		c-0.8,0-1.3,0.7-1.3,1.5c0,0.8,0.5,1.5,1.3,1.5s1.3-0.7,1.3-1.5C169.9,46.8,169.4,46.1,168.6,46.1z"/>
	<path class="st0" d="M173.1,45.9c0.3-0.5,0.6-0.8,1.1-0.8c0.2,0,0.4,0,0.6,0.1l-0.2,1c-0.1-0.1-0.3-0.1-0.4-0.1
		c-0.4,0-0.7,0.2-1,0.6v3.1H172v-4.6h1L173.1,45.9z"/>
</g>
<g class="st2">
	<path class="st0" d="M178.2,49.9l-1.2-1.9l-0.6,0.7v1.2h-1.1v-6.8h1.1v4.2l0,0l1.6-2.1h1.3l-1.6,1.9l1.8,2.7H178.2z"/>
</g>
<g class="st2">
	<path class="st0" d="M180.8,47.9c0.1,0.7,0.5,1.3,1.3,1.3c0.6,0,1-0.2,1.3-0.7l0.7,0.5c-0.5,0.8-1.1,1.1-2.1,1.1
		c-1.4,0-2.3-1-2.3-2.4c0-1.4,1-2.5,2.3-2.5c1.3,0,2.2,0.9,2.2,2.2c0,0.2,0,0.4,0,0.5H180.8z M182,46c-0.7,0-1.1,0.5-1.2,1h2.2
		C183,46.5,182.6,46,182,46z"/>
	<path class="st0" d="M186.2,45.9c0.3-0.5,0.6-0.8,1.1-0.8c0.2,0,0.4,0,0.6,0.1l-0.2,1c-0.1-0.1-0.3-0.1-0.4-0.1
		c-0.4,0-0.7,0.2-1,0.6v3.1h-1.1v-4.6h1L186.2,45.9z"/>
	<path class="st0" d="M190.9,46.4c-0.2-0.2-0.6-0.4-0.9-0.4c-0.3,0-0.5,0.2-0.5,0.5c0,0.3,0.4,0.5,0.8,0.6c0.6,0.2,1.4,0.5,1.4,1.4
		c0,1-0.8,1.5-1.7,1.5c-0.7,0-1.3-0.3-1.8-0.8l0.7-0.6c0.3,0.3,0.6,0.5,1.1,0.5c0.3,0,0.7-0.2,0.7-0.5c0-0.3-0.5-0.5-0.9-0.7
		c-0.5-0.2-1.3-0.5-1.3-1.4c0-0.9,0.8-1.4,1.6-1.4c0.6,0,1.1,0.2,1.5,0.6L190.9,46.4z"/>
</g>
<g class="st2">
	<path class="st0" d="M131.7,54.5v-1h1.1v1H131.7z M131.7,59.9v-4.6h1.1v4.6H131.7z"/>
	<path class="st0" d="M135.1,55.3l0.1,0.7c0.4-0.5,0.9-0.8,1.5-0.8s1,0.2,1.3,0.6c0.3,0.5,0.4,1.1,0.4,1.7v2.4h-1.1v-2.3
		c0-0.4,0-0.8-0.2-1.1c-0.1-0.2-0.4-0.4-0.7-0.4c-0.4,0-0.9,0.3-1.2,0.7v3.1h-1.1v-4.6H135.1z"/>
	<path class="st0" d="M143,56.2v1.9c0,0.1,0,0.2,0,0.4c0,0.4,0.2,0.6,0.5,0.6c0.2,0,0.4,0,0.5-0.1l0.3,0.8c-0.3,0.2-0.7,0.2-1,0.2
		c-0.7,0-1.1-0.4-1.3-0.9c-0.1-0.2-0.1-0.5-0.1-0.9v-2.1h-0.6v-0.9h0.6l0.1-1.1h1v1.1h1.2v0.9H143z"/>
	<path class="st0" d="M146.3,55.9c0.4-0.5,0.9-0.7,1.4-0.7c0.6,0,1,0.2,1.3,0.6c0.3,0.5,0.4,1.1,0.4,1.7v2.4h-1.1v-2.3
		c0-0.4,0-0.8-0.2-1.1c-0.1-0.2-0.4-0.4-0.7-0.4c-0.4,0-0.9,0.3-1.2,0.7v3.1h-1.1v-6.8h1.1V55.9z"/>
	<path class="st0" d="M151.5,57.9c0.1,0.7,0.5,1.3,1.3,1.3c0.6,0,1-0.2,1.3-0.7l0.7,0.5c-0.5,0.8-1.1,1.1-2.1,1.1
		c-1.4,0-2.3-1-2.3-2.4c0-1.4,1-2.5,2.3-2.5c1.3,0,2.2,0.9,2.2,2.2c0,0.2,0,0.4,0,0.5H151.5z M152.7,56c-0.7,0-1.1,0.5-1.2,1h2.2
		C153.7,56.5,153.3,56,152.7,56z"/>
</g>
<g class="st2">
	<path class="st0" d="M162.2,58.4L162.2,58.4l0.8-3.2h1.1l-1.3,4.6h-1.1l-0.8-3h0l-0.9,3h-1.2l-1.3-4.6h1.2l0.8,3.2h0l0.9-3.2h1
		L162.2,58.4z"/>
</g>
<g class="st2">
	<path class="st0" d="M169.3,57.6c0,1.4-1,2.4-2.4,2.4s-2.4-1.1-2.4-2.4c0-1.4,1-2.4,2.4-2.4S169.3,56.2,169.3,57.6z M166.9,56.1
		c-0.8,0-1.3,0.7-1.3,1.5c0,0.8,0.5,1.5,1.3,1.5s1.3-0.7,1.3-1.5C168.2,56.8,167.7,56.1,166.9,56.1z"/>
	<path class="st0" d="M171.4,55.9c0.3-0.5,0.6-0.8,1.1-0.8c0.2,0,0.4,0,0.6,0.1l-0.2,1c-0.1-0.1-0.3-0.1-0.4-0.1
		c-0.4,0-0.7,0.2-1,0.6v3.1h-1.1v-4.6h1L171.4,55.9z"/>
	<path class="st0" d="M176.4,59.9l-1.2-1.9l-0.6,0.7v1.2h-1.1v-6.8h1.1v4.2l0,0l1.6-2.1h1.3l-1.6,1.9l1.8,2.7H176.4z"/>
	<path class="st0" d="M180.9,54.2c-0.2-0.1-0.4-0.1-0.6-0.1c-0.2,0-0.4,0.1-0.4,0.2c-0.1,0.1-0.2,0.4-0.2,0.7v0.4h1.2v0.9h-1.2v3.7
		h-1.1v-3.7h-0.5v-0.9h0.5v-0.5c0-0.5,0.1-0.9,0.3-1.2c0.2-0.3,0.6-0.5,1.3-0.5c0.4,0,0.7,0.1,1.1,0.2L180.9,54.2z"/>
	<path class="st0" d="M186.1,57.6c0,1.4-1,2.4-2.4,2.4s-2.4-1.1-2.4-2.4c0-1.4,1-2.4,2.4-2.4S186.1,56.2,186.1,57.6z M183.7,56.1
		c-0.8,0-1.3,0.7-1.3,1.5c0,0.8,0.5,1.5,1.3,1.5s1.3-0.7,1.3-1.5C185,56.8,184.4,56.1,183.7,56.1z"/>
	<path class="st0" d="M188.1,55.9c0.3-0.5,0.6-0.8,1.1-0.8c0.2,0,0.4,0,0.6,0.1l-0.2,1c-0.1-0.1-0.3-0.1-0.4-0.1
		c-0.4,0-0.7,0.2-1,0.6v3.1h-1.1v-4.6h1L188.1,55.9z"/>
	<path class="st0" d="M194,59.5c-0.4,0.4-0.9,0.5-1.6,0.5c-1.4,0-2.4-1-2.4-2.4c0-1.4,1-2.4,2.4-2.4c0.6,0,1.1,0.2,1.5,0.5l-0.5,0.8
		c-0.3-0.2-0.6-0.4-0.9-0.4c-0.8,0-1.3,0.7-1.3,1.5c0,0.9,0.6,1.5,1.3,1.5c0.3,0,0.7-0.1,0.9-0.3L194,59.5z"/>
	<path class="st0" d="M195.6,57.9c0.1,0.7,0.5,1.3,1.3,1.3c0.6,0,1-0.2,1.3-0.7l0.7,0.5c-0.5,0.8-1.1,1.1-2.1,1.1
		c-1.4,0-2.3-1-2.3-2.4c0-1.4,1-2.5,2.3-2.5c1.3,0,2.2,0.9,2.2,2.2c0,0.2,0,0.4,0,0.5H195.6z M196.9,56c-0.7,0-1.1,0.5-1.2,1h2.2
		C197.9,56.5,197.4,56,196.9,56z"/>
</g>
<g class="st2">
	<path class="st0" d="M142.3,162.3c0,0.9-0.7,1.5-1.5,1.5c-0.8,0-1.5-0.6-1.5-1.5s0.7-1.5,1.5-1.5
		C141.6,160.8,142.3,161.4,142.3,162.3z M145.2,161.1l-4.5,6.1l-0.6-0.4l4.5-6.1L145.2,161.1z M140.1,162.3c0,0.4,0.3,0.7,0.7,0.7
		c0.4,0,0.6-0.3,0.6-0.7s-0.3-0.7-0.6-0.7C140.4,161.6,140.1,161.9,140.1,162.3z M146,165.7c0,0.9-0.7,1.5-1.5,1.5
		c-0.8,0-1.5-0.6-1.5-1.5s0.7-1.5,1.5-1.5C145.3,164.2,146,164.9,146,165.7z M143.8,165.7c0,0.4,0.3,0.7,0.7,0.7
		c0.4,0,0.6-0.3,0.6-0.7s-0.3-0.7-0.6-0.7C144.1,165,143.8,165.3,143.8,165.7z"/>
	<path class="st0" d="M153.8,164.8c0,1.4-1,2.4-2.4,2.4s-2.4-1.1-2.4-2.4c0-1.4,1-2.4,2.4-2.4S153.8,163.5,153.8,164.8z
		 M151.4,163.4c-0.8,0-1.3,0.7-1.3,1.5c0,0.8,0.5,1.5,1.3,1.5s1.3-0.7,1.3-1.5C152.7,164,152.2,163.4,151.4,163.4z"/>
	<path class="st0" d="M157.3,161.4c-0.2-0.1-0.4-0.1-0.6-0.1c-0.2,0-0.4,0.1-0.4,0.2c-0.1,0.1-0.2,0.4-0.2,0.7v0.4h1.2v0.9h-1.2v3.7
		H155v-3.7h-0.5v-0.9h0.5V162c0-0.5,0.1-0.9,0.3-1.2c0.2-0.3,0.6-0.5,1.3-0.5c0.4,0,0.7,0.1,1.1,0.2L157.3,161.4z"/>
</g>
<g class="st2">
	<path class="st0" d="M164.3,165.7L164.3,165.7l0.8-3.2h1.1l-1.3,4.6h-1.1l-0.8-3h0l-0.9,3h-1.2l-1.3-4.6h1.2l0.8,3.2h0l0.9-3.2h1
		L164.3,165.7z"/>
</g>
<g class="st2">
	<path class="st0" d="M171.4,164.8c0,1.4-1,2.4-2.4,2.4s-2.4-1.1-2.4-2.4c0-1.4,1-2.4,2.4-2.4S171.4,163.5,171.4,164.8z M169,163.4
		c-0.8,0-1.3,0.7-1.3,1.5c0,0.8,0.5,1.5,1.3,1.5s1.3-0.7,1.3-1.5C170.3,164,169.8,163.4,169,163.4z"/>
	<path class="st0" d="M173.5,163.2c0.3-0.5,0.6-0.8,1.1-0.8c0.2,0,0.4,0,0.6,0.1l-0.2,1c-0.1-0.1-0.3-0.1-0.4-0.1
		c-0.4,0-0.7,0.2-1,0.6v3.1h-1.1v-4.6h1L173.5,163.2z"/>
</g>
<g class="st2">
	<path class="st0" d="M178.6,167.2l-1.2-1.9l-0.6,0.7v1.2h-1.1v-6.8h1.1v4.2l0,0l1.6-2.1h1.3l-1.6,1.9l1.8,2.7H178.6z"/>
</g>
<g class="st2">
	<path class="st0" d="M181.1,165.1c0.1,0.7,0.5,1.3,1.3,1.3c0.6,0,1-0.2,1.3-0.7l0.7,0.5c-0.5,0.8-1.1,1.1-2.1,1.1
		c-1.4,0-2.3-1-2.3-2.4c0-1.4,1-2.5,2.3-2.5c1.3,0,2.2,0.9,2.2,2.2c0,0.2,0,0.4,0,0.5H181.1z M182.4,163.3c-0.7,0-1.1,0.5-1.2,1h2.2
		C183.4,163.7,183,163.3,182.4,163.3z"/>
	<path class="st0" d="M186.6,163.2c0.3-0.5,0.6-0.8,1.1-0.8c0.2,0,0.4,0,0.6,0.1l-0.2,1c-0.1-0.1-0.3-0.1-0.4-0.1
		c-0.4,0-0.7,0.2-1,0.6v3.1h-1.1v-4.6h1L186.6,163.2z"/>
	<path class="st0" d="M191.3,163.6c-0.2-0.2-0.6-0.4-0.9-0.4c-0.3,0-0.5,0.2-0.5,0.5c0,0.3,0.4,0.5,0.8,0.6c0.6,0.2,1.4,0.5,1.4,1.4
		c0,1-0.8,1.5-1.7,1.5c-0.7,0-1.3-0.3-1.8-0.8l0.7-0.6c0.3,0.3,0.6,0.5,1.1,0.5c0.3,0,0.7-0.2,0.7-0.5c0-0.3-0.5-0.5-0.9-0.7
		c-0.5-0.2-1.3-0.5-1.3-1.4c0-0.9,0.8-1.4,1.6-1.4c0.6,0,1.1,0.2,1.5,0.6L191.3,163.6z"/>
</g>
<g class="st2">
	<path class="st0" d="M141,171.8v-1h1.1v1H141z M141,177.2v-4.6h1.1v4.6H141z"/>
	<path class="st0" d="M144.4,172.5l0.1,0.7c0.4-0.5,0.9-0.8,1.5-0.8s1,0.2,1.3,0.6c0.3,0.5,0.4,1.1,0.4,1.7v2.4h-1.1v-2.3
		c0-0.4,0-0.8-0.2-1.1c-0.1-0.2-0.4-0.4-0.7-0.4c-0.4,0-0.9,0.3-1.2,0.7v3.1h-1.1v-4.6H144.4z"/>
</g>
<g class="st2">
	<path class="st0" d="M151.9,175.1c0.1,0.7,0.5,1.3,1.3,1.3c0.6,0,1-0.2,1.3-0.7l0.7,0.5c-0.5,0.8-1.1,1.1-2.1,1.1
		c-1.4,0-2.3-1-2.3-2.4c0-1.4,1-2.5,2.3-2.5c1.3,0,2.2,0.9,2.2,2.2c0,0.2,0,0.4,0,0.5H151.9z M153.2,173.3c-0.7,0-1.1,0.5-1.2,1h2.2
		C154.2,173.7,153.8,173.3,153.2,173.3z"/>
</g>
<g class="st2">
	<path class="st0" d="M158.6,174.8l1.7,2.3H159l-1-1.5l-1.1,1.5h-1.4l1.8-2.3l-1.7-2.3h1.4l1,1.5l1-1.5h1.3L158.6,174.8z"/>
</g>
<g class="st2">
	<path class="st0" d="M161.7,175.1c0.1,0.7,0.5,1.3,1.3,1.3c0.6,0,1-0.2,1.3-0.7l0.7,0.5c-0.5,0.8-1.1,1.1-2.1,1.1
		c-1.4,0-2.3-1-2.3-2.4c0-1.4,1-2.5,2.3-2.5c1.3,0,2.2,0.9,2.2,2.2c0,0.2,0,0.4,0,0.5H161.7z M163,173.3c-0.7,0-1.1,0.5-1.2,1h2.2
		C164,173.7,163.5,173.3,163,173.3z"/>
	<path class="st0" d="M169.7,176.7c-0.4,0.4-0.9,0.5-1.6,0.5c-1.4,0-2.4-1-2.4-2.4c0-1.4,1-2.4,2.4-2.4c0.6,0,1.1,0.2,1.5,0.5
		l-0.5,0.8c-0.3-0.2-0.6-0.4-0.9-0.4c-0.8,0-1.3,0.7-1.3,1.5c0,0.9,0.6,1.5,1.3,1.5c0.3,0,0.7-0.1,0.9-0.3L169.7,176.7z"/>
	<path class="st0" d="M173.8,177.2l-0.1-0.7c-0.4,0.5-0.9,0.8-1.5,0.8s-1-0.2-1.3-0.6c-0.3-0.5-0.4-1.1-0.4-1.7v-2.4h1.1v2.3
		c0,0.4,0,0.8,0.2,1.1c0.1,0.2,0.4,0.4,0.7,0.4c0.4,0,0.9-0.3,1.2-0.7v-3.1h1.1v4.6H173.8z"/>
	<path class="st0" d="M177.2,173.4v1.9c0,0.1,0,0.2,0,0.4c0,0.4,0.2,0.6,0.5,0.6c0.2,0,0.4,0,0.5-0.1l0.3,0.8
		c-0.3,0.2-0.7,0.2-1,0.2c-0.7,0-1.1-0.4-1.3-0.9c-0.1-0.2-0.1-0.5-0.1-0.9v-2.1h-0.6v-0.9h0.6l0.1-1.1h1v1.1h1.2v0.9H177.2z"/>
	<path class="st0" d="M179.4,171.8v-1h1.1v1H179.4z M179.4,177.2v-4.6h1.1v4.6H179.4z"/>
</g>
<g class="st2">
	<path class="st0" d="M185.7,172.5l-1.9,4.6h-0.9l-1.8-4.6h1.2l1.1,3.2h0l1.1-3.2H185.7z"/>
</g>
<g class="st2">
	<path class="st0" d="M187.2,175.1c0.1,0.7,0.5,1.3,1.3,1.3c0.6,0,1-0.2,1.3-0.7l0.7,0.5c-0.5,0.8-1.1,1.1-2.1,1.1
		c-1.4,0-2.3-1-2.3-2.4c0-1.4,1-2.5,2.3-2.5c1.3,0,2.2,0.9,2.2,2.2c0,0.2,0,0.4,0,0.5H187.2z M188.4,173.3c-0.7,0-1.1,0.5-1.2,1h2.2
		C189.4,173.7,189,173.3,188.4,173.3z"/>
</g>
<g class="st2">
	<path class="st0" d="M136.9,187.2h-1.1v-6.8h1.1V187.2z"/>
	<path class="st0" d="M139,185.1c0.1,0.7,0.5,1.3,1.3,1.3c0.6,0,1-0.2,1.3-0.7l0.7,0.5c-0.5,0.8-1.1,1.1-2.1,1.1
		c-1.4,0-2.3-1-2.3-2.4c0-1.4,1-2.5,2.3-2.5c1.3,0,2.2,0.9,2.2,2.2c0,0.2,0,0.4,0,0.5H139z M140.3,183.3c-0.7,0-1.1,0.5-1.2,1h2.2
		C141.3,183.7,140.9,183.3,140.3,183.3z"/>
</g>
<g class="st2">
	<path class="st0" d="M147.4,182.5l-1.9,4.6h-0.9l-1.8-4.6h1.2l1.1,3.2h0l1.1-3.2H147.4z"/>
</g>
<g class="st2">
	<path class="st0" d="M148.8,185.1c0.1,0.7,0.5,1.3,1.3,1.3c0.6,0,1-0.2,1.3-0.7l0.7,0.5c-0.5,0.8-1.1,1.1-2.1,1.1
		c-1.4,0-2.3-1-2.3-2.4c0-1.4,1-2.5,2.3-2.5c1.3,0,2.2,0.9,2.2,2.2c0,0.2,0,0.4,0,0.5H148.8z M150.1,183.3c-0.7,0-1.1,0.5-1.2,1h2.2
		C151.1,183.7,150.6,183.3,150.1,183.3z"/>
	<path class="st0" d="M154.3,187.2h-1.1v-6.8h1.1V187.2z"/>
	<path class="st0" d="M158.9,182.5l0.1,0.6c0.3-0.5,0.9-0.7,1.4-0.7c1.3,0,2.2,1.1,2.2,2.4c0,1.3-0.9,2.4-2.2,2.4
		c-0.5,0-1-0.2-1.4-0.6v2.7h-1.1v-6.9H158.9z M159,185.7c0.3,0.4,0.8,0.6,1.2,0.6c0.9,0,1.3-0.8,1.3-1.5c0-0.8-0.5-1.5-1.3-1.5
		c-0.4,0-0.9,0.2-1.2,0.7V185.7z"/>
	<path class="st0" d="M168.1,184.8c0,1.4-1,2.4-2.4,2.4s-2.4-1.1-2.4-2.4c0-1.4,1-2.4,2.4-2.4S168.1,183.5,168.1,184.8z
		 M165.7,183.4c-0.8,0-1.3,0.7-1.3,1.5c0,0.8,0.5,1.5,1.3,1.5s1.3-0.7,1.3-1.5C167,184,166.5,183.4,165.7,183.4z"/>
	<path class="st0" d="M171.6,183.6c-0.2-0.2-0.6-0.4-0.9-0.4c-0.3,0-0.5,0.2-0.5,0.5c0,0.3,0.4,0.5,0.8,0.6c0.6,0.2,1.4,0.5,1.4,1.4
		c0,1-0.8,1.5-1.7,1.5c-0.7,0-1.3-0.3-1.8-0.8l0.7-0.6c0.3,0.3,0.6,0.5,1.1,0.5c0.3,0,0.7-0.2,0.7-0.5c0-0.3-0.5-0.5-0.9-0.7
		c-0.5-0.2-1.3-0.5-1.3-1.4c0-0.9,0.8-1.4,1.6-1.4c0.6,0,1.1,0.2,1.5,0.6L171.6,183.6z"/>
	<path class="st0" d="M173.3,181.8v-1h1.1v1H173.3z M173.3,187.2v-4.6h1.1v4.6H173.3z"/>
	<path class="st0" d="M176.9,183.4v1.9c0,0.1,0,0.2,0,0.4c0,0.4,0.2,0.6,0.5,0.6c0.2,0,0.4,0,0.5-0.1l0.3,0.8
		c-0.3,0.2-0.7,0.2-1,0.2c-0.7,0-1.1-0.4-1.3-0.9c-0.1-0.2-0.1-0.5-0.1-0.9v-2.1h-0.6v-0.9h0.6l0.1-1.1h1v1.1h1.2v0.9H176.9z"/>
	<path class="st0" d="M179,181.8v-1h1.1v1H179z M179,187.2v-4.6h1.1v4.6H179z"/>
	<path class="st0" d="M185.9,184.8c0,1.4-1,2.4-2.4,2.4s-2.4-1.1-2.4-2.4c0-1.4,1-2.4,2.4-2.4S185.9,183.5,185.9,184.8z
		 M183.5,183.4c-0.8,0-1.3,0.7-1.3,1.5c0,0.8,0.5,1.5,1.3,1.5s1.3-0.7,1.3-1.5C184.8,184,184.3,183.4,183.5,183.4z"/>
	<path class="st0" d="M187.9,182.5l0.1,0.7c0.4-0.5,0.9-0.8,1.5-0.8s1,0.2,1.3,0.6c0.3,0.5,0.4,1.1,0.4,1.7v2.4h-1.1v-2.3
		c0-0.4,0-0.8-0.2-1.1c-0.1-0.2-0.4-0.4-0.7-0.4c-0.4,0-0.9,0.3-1.2,0.7v3.1H187v-4.6H187.9z"/>
	<path class="st0" d="M194.9,183.6c-0.2-0.2-0.6-0.4-0.9-0.4c-0.3,0-0.5,0.2-0.5,0.5c0,0.3,0.4,0.5,0.8,0.6c0.6,0.2,1.4,0.5,1.4,1.4
		c0,1-0.8,1.5-1.7,1.5c-0.7,0-1.3-0.3-1.8-0.8l0.7-0.6c0.3,0.3,0.6,0.5,1.1,0.5c0.3,0,0.7-0.2,0.7-0.5c0-0.3-0.5-0.5-0.9-0.7
		c-0.5-0.2-1.3-0.5-1.3-1.4c0-0.9,0.8-1.4,1.6-1.4c0.6,0,1.1,0.2,1.5,0.6L194.9,183.6z"/>
</g>
<g class="st2">
	<path class="st0" d="M328.7,38.6c0,0.9-0.7,1.5-1.5,1.5c-0.8,0-1.5-0.6-1.5-1.5s0.7-1.5,1.5-1.5C328,37.2,328.7,37.8,328.7,38.6z
		 M331.6,37.5l-4.5,6.1l-0.6-0.4l4.5-6.1L331.6,37.5z M326.5,38.6c0,0.4,0.3,0.7,0.7,0.7c0.4,0,0.6-0.3,0.6-0.7s-0.3-0.7-0.6-0.7
		C326.8,37.9,326.5,38.2,326.5,38.6z M332.4,42.1c0,0.9-0.7,1.5-1.5,1.5c-0.8,0-1.5-0.6-1.5-1.5s0.7-1.5,1.5-1.5
		C331.7,40.6,332.4,41.2,332.4,42.1z M330.2,42.1c0,0.4,0.3,0.7,0.7,0.7c0.4,0,0.6-0.3,0.6-0.7s-0.3-0.7-0.6-0.7
		C330.5,41.4,330.2,41.7,330.2,42.1z"/>
	<path class="st0" d="M340.2,41.2c0,1.4-1,2.4-2.4,2.4c-1.4,0-2.4-1.1-2.4-2.4c0-1.4,1-2.4,2.4-2.4
		C339.2,38.8,340.2,39.8,340.2,41.2z M337.8,39.7c-0.8,0-1.3,0.7-1.3,1.5c0,0.8,0.5,1.5,1.3,1.5c0.8,0,1.3-0.7,1.3-1.5
		C339.1,40.4,338.6,39.7,337.8,39.7z"/>
	<path class="st0" d="M343.7,37.7c-0.2-0.1-0.4-0.1-0.6-0.1c-0.2,0-0.4,0.1-0.4,0.2c-0.1,0.1-0.2,0.4-0.2,0.7v0.4h1.2v0.9h-1.2v3.7
		h-1.1v-3.7h-0.5v-0.9h0.5v-0.5c0-0.5,0.1-0.9,0.3-1.2c0.2-0.3,0.6-0.5,1.3-0.5c0.4,0,0.7,0.1,1.1,0.2L343.7,37.7z"/>
</g>
<g class="st2">
	<path class="st0" d="M350.7,42L350.7,42l0.8-3.2h1.1l-1.3,4.6h-1.1l-0.8-3h0l-0.9,3h-1.2l-1.3-4.6h1.2l0.8,3.2h0l0.9-3.2h1
		L350.7,42z"/>
</g>
<g class="st2">
	<path class="st0" d="M357.8,41.2c0,1.4-1,2.4-2.4,2.4c-1.4,0-2.4-1.1-2.4-2.4c0-1.4,1-2.4,2.4-2.4
		C356.8,38.8,357.8,39.8,357.8,41.2z M355.4,39.7c-0.8,0-1.3,0.7-1.3,1.5c0,0.8,0.5,1.5,1.3,1.5c0.8,0,1.3-0.7,1.3-1.5
		C356.7,40.4,356.2,39.7,355.4,39.7z"/>
	<path class="st0" d="M359.9,39.5c0.3-0.5,0.6-0.8,1.1-0.8c0.2,0,0.4,0,0.6,0.1l-0.2,1c-0.1-0.1-0.3-0.1-0.4-0.1
		c-0.4,0-0.7,0.2-1,0.6v3.1h-1.1v-4.6h1L359.9,39.5z"/>
</g>
<g class="st2">
	<path class="st0" d="M364.9,43.5l-1.2-1.9l-0.6,0.7v1.2h-1.1v-6.8h1.1v4.2l0,0l1.6-2.1h1.3l-1.6,1.9l1.8,2.7H364.9z"/>
</g>
<g class="st2">
	<path class="st0" d="M367.5,41.5c0.1,0.7,0.5,1.3,1.3,1.3c0.6,0,1-0.2,1.3-0.7l0.7,0.5c-0.5,0.8-1.1,1.1-2.1,1.1
		c-1.4,0-2.3-1-2.3-2.4c0-1.4,1-2.5,2.3-2.5c1.3,0,2.2,0.9,2.2,2.2c0,0.2,0,0.4,0,0.5H367.5z M368.8,39.6c-0.7,0-1.1,0.5-1.2,1h2.2
		C369.8,40.1,369.4,39.6,368.8,39.6z"/>
	<path class="st0" d="M373,39.5c0.3-0.5,0.6-0.8,1.1-0.8c0.2,0,0.4,0,0.6,0.1l-0.2,1c-0.1-0.1-0.3-0.1-0.4-0.1c-0.4,0-0.7,0.2-1,0.6
		v3.1H372v-4.6h1L373,39.5z"/>
	<path class="st0" d="M377.7,40c-0.2-0.2-0.6-0.4-0.9-0.4c-0.3,0-0.5,0.2-0.5,0.5c0,0.3,0.4,0.5,0.8,0.6c0.6,0.2,1.4,0.5,1.4,1.4
		c0,1-0.8,1.5-1.7,1.5c-0.7,0-1.3-0.3-1.8-0.8l0.7-0.6c0.3,0.3,0.6,0.5,1.1,0.5c0.3,0,0.7-0.2,0.7-0.5c0-0.3-0.5-0.5-0.9-0.7
		c-0.5-0.2-1.3-0.5-1.3-1.4c0-0.9,0.8-1.4,1.6-1.4c0.6,0,1.1,0.2,1.5,0.6L377.7,40z"/>
</g>
<g class="st2">
	<path class="st0" d="M323.5,48.1v-1h1.1v1H323.5z M323.5,53.5v-4.6h1.1v4.6H323.5z"/>
	<path class="st0" d="M326.9,48.9l0.1,0.7c0.4-0.5,0.9-0.8,1.5-0.8c0.6,0,1,0.2,1.3,0.6c0.3,0.5,0.4,1.1,0.4,1.7v2.4h-1.1v-2.3
		c0-0.4,0-0.8-0.2-1.1c-0.1-0.2-0.4-0.4-0.7-0.4c-0.4,0-0.9,0.3-1.2,0.7v3.1H326v-4.6H326.9z"/>
	<path class="st0" d="M339.6,53.5v-2.3c0-0.4,0-0.8-0.2-1.1c-0.1-0.2-0.4-0.4-0.7-0.4c-0.4,0-0.8,0.2-1.1,0.6c0,0.2,0,0.5,0,0.7v2.4
		h-1.1v-2.3c0-0.4,0-0.8-0.2-1.1c-0.1-0.2-0.4-0.3-0.6-0.3c-0.4,0-0.8,0.3-1,0.6v3.2h-1.1v-4.6h1l0,0.6c0.4-0.5,0.9-0.7,1.4-0.7
		c0.5,0,1,0.2,1.3,0.6c0,0.1,0.1,0.1,0.1,0.2c0.4-0.6,1-0.8,1.6-0.8c0.5,0,1,0.2,1.2,0.6c0.4,0.5,0.4,1.1,0.4,1.8v2.4H339.6z"/>
	<path class="st0" d="M344.8,53.5l-0.1-0.4c-0.3,0.4-0.8,0.5-1.3,0.5c-0.9,0-1.7-0.5-1.7-1.5c0-1.2,1.1-1.5,2-1.5
		c0.2,0,0.5,0,0.9,0.1v-0.1c0-0.6-0.3-1-1-1c-0.5,0-1,0.2-1.4,0.4l-0.3-0.8c0.5-0.3,1.3-0.5,1.9-0.5c1.3,0,1.9,0.7,1.9,1.9v2.8
		H344.8z M344.7,51.5c-0.3-0.1-0.5-0.1-0.7-0.1c-0.5,0-1.1,0.2-1.1,0.8c0,0.5,0.4,0.7,0.8,0.7c0.4,0,0.7-0.2,1.1-0.5V51.5z"/>
	<path class="st0" d="M348.1,48.9l0.1,0.7c0.4-0.5,0.9-0.8,1.5-0.8c0.6,0,1,0.2,1.3,0.6c0.3,0.5,0.4,1.1,0.4,1.7v2.4h-1.1v-2.3
		c0-0.4,0-0.8-0.2-1.1c-0.1-0.2-0.4-0.4-0.7-0.4c-0.4,0-0.9,0.3-1.2,0.7v3.1h-1.1v-4.6H348.1z"/>
	<path class="st0" d="M355.4,53.5l-0.1-0.4c-0.3,0.4-0.8,0.5-1.3,0.5c-0.9,0-1.7-0.5-1.7-1.5c0-1.2,1.1-1.5,2-1.5
		c0.2,0,0.5,0,0.9,0.1v-0.1c0-0.6-0.3-1-1-1c-0.5,0-1,0.2-1.4,0.4l-0.3-0.8c0.5-0.3,1.3-0.5,1.9-0.5c1.3,0,1.9,0.7,1.9,1.9v2.8
		H355.4z M355.3,51.5c-0.3-0.1-0.5-0.1-0.7-0.1c-0.5,0-1.1,0.2-1.1,0.8c0,0.5,0.4,0.7,0.8,0.7c0.4,0,0.7-0.2,1.1-0.5V51.5z"/>
	<path class="st0" d="M362.1,53.3c0,0.5-0.1,0.9-0.3,1.2c-0.4,0.8-1.2,1.1-2.1,1.1c-0.7,0-1.5-0.2-2.1-0.6L358,54
		c0.5,0.4,1.2,0.6,1.7,0.6c0.7,0,1.3-0.4,1.3-1.2v-0.5c-0.3,0.5-0.9,0.6-1.4,0.6c-1.3,0-2.2-1-2.2-2.4c0-1.3,0.9-2.4,2.2-2.4
		c0.5,0,1.1,0.2,1.4,0.6l0.1-0.5h1V53.3z M361,50.3c-0.3-0.4-0.8-0.6-1.2-0.6c-0.9,0-1.3,0.7-1.3,1.4c0,0.7,0.5,1.4,1.3,1.4
		c0.4,0,0.9-0.2,1.2-0.7V50.3z"/>
	<path class="st0" d="M364.1,51.5c0.1,0.7,0.5,1.3,1.3,1.3c0.6,0,1-0.2,1.3-0.7l0.7,0.5c-0.5,0.8-1.1,1.1-2.1,1.1
		c-1.4,0-2.3-1-2.3-2.4c0-1.4,1-2.5,2.3-2.5c1.3,0,2.2,0.9,2.2,2.2c0,0.2,0,0.4,0,0.5H364.1z M365.4,49.6c-0.7,0-1.1,0.5-1.2,1h2.2
		C366.4,50.1,366,49.6,365.4,49.6z"/>
	<path class="st0" d="M369.6,49.5c0.3-0.5,0.6-0.8,1.1-0.8c0.2,0,0.4,0,0.6,0.1l-0.2,1c-0.1-0.1-0.3-0.1-0.4-0.1
		c-0.4,0-0.7,0.2-1,0.6v3.1h-1.1v-4.6h1L369.6,49.5z"/>
	<path class="st0" d="M371.9,48.1v-1h1.1v1H371.9z M371.9,53.5v-4.6h1.1v4.6H371.9z"/>
	<path class="st0" d="M377.1,53.5l-0.1-0.4c-0.3,0.4-0.8,0.5-1.3,0.5c-0.9,0-1.7-0.5-1.7-1.5c0-1.2,1.1-1.5,2-1.5
		c0.2,0,0.5,0,0.9,0.1v-0.1c0-0.6-0.3-1-1-1c-0.5,0-1,0.2-1.4,0.4l-0.3-0.8c0.5-0.3,1.3-0.5,1.9-0.5c1.3,0,1.9,0.7,1.9,1.9v2.8
		H377.1z M377,51.5c-0.3-0.1-0.5-0.1-0.7-0.1c-0.5,0-1.1,0.2-1.1,0.8c0,0.5,0.4,0.7,0.8,0.7c0.4,0,0.7-0.2,1.1-0.5V51.5z"/>
	<path class="st0" d="M380.5,53.5h-1.1v-6.8h1.1V53.5z"/>
</g>
<g class="st2">
	<path class="st0" d="M328.7,63.7l-1.1-1c-0.5,0.6-1.1,0.9-1.9,0.9c-1.2,0-2.2-0.9-2.2-2c0-0.7,0.4-1.3,1-1.7
		c-0.4-0.4-0.6-0.8-0.6-1.3c0-1,0.9-1.6,1.9-1.6c0.9,0,1.5,0.5,1.7,1.3l-1,0.3c-0.1-0.4-0.4-0.6-0.8-0.6c-0.4,0-0.8,0.3-0.8,0.7
		c0,0.4,0.3,0.7,1,1.3l-0.6,0.7l-0.2-0.2c-0.4,0.2-0.6,0.6-0.6,1c0,0.6,0.5,1.1,1.2,1.1c0.5,0,0.8-0.2,1.1-0.6l-0.7-0.6l0.6-0.7
		l2.5,2.2L328.7,63.7z"/>
	<path class="st0" d="M334.6,60c-0.2-0.2-0.6-0.4-0.9-0.4c-0.3,0-0.5,0.2-0.5,0.5c0,0.3,0.4,0.5,0.8,0.6c0.6,0.2,1.4,0.5,1.4,1.4
		c0,1-0.8,1.5-1.7,1.5c-0.7,0-1.3-0.3-1.8-0.8l0.7-0.6c0.3,0.3,0.6,0.5,1.1,0.5c0.3,0,0.7-0.2,0.7-0.5c0-0.3-0.5-0.5-0.9-0.7
		c-0.5-0.2-1.3-0.5-1.3-1.4c0-0.9,0.8-1.4,1.6-1.4c0.6,0,1.1,0.2,1.5,0.6L334.6,60z"/>
	<path class="st0" d="M339.5,63.5l-0.1-0.7c-0.4,0.5-0.9,0.8-1.5,0.8c-0.6,0-1-0.2-1.3-0.6c-0.3-0.5-0.4-1.1-0.4-1.7v-2.4h1.1v2.3
		c0,0.4,0,0.8,0.2,1.1c0.1,0.2,0.4,0.4,0.7,0.4c0.4,0,0.9-0.3,1.2-0.7v-3.1h1.1v4.6H339.5z"/>
	<path class="st0" d="M342.9,58.9l0.1,0.6c0.3-0.5,0.9-0.7,1.4-0.7c1.3,0,2.2,1.1,2.2,2.4c0,1.3-0.9,2.4-2.2,2.4
		c-0.5,0-1-0.2-1.4-0.6v2.7h-1.1v-6.9H342.9z M343,62.1c0.3,0.4,0.8,0.6,1.2,0.6c0.9,0,1.3-0.8,1.3-1.5c0-0.8-0.5-1.5-1.3-1.5
		c-0.4,0-0.9,0.2-1.2,0.7V62.1z"/>
	<path class="st0" d="M348.4,61.5c0.1,0.7,0.5,1.3,1.3,1.3c0.6,0,1-0.2,1.3-0.7l0.7,0.5c-0.5,0.8-1.1,1.1-2.1,1.1
		c-1.4,0-2.3-1-2.3-2.4c0-1.4,1-2.5,2.3-2.5c1.3,0,2.2,0.9,2.2,2.2c0,0.2,0,0.4,0,0.5H348.4z M349.6,59.6c-0.7,0-1.1,0.5-1.2,1h2.2
		C350.6,60.1,350.2,59.6,349.6,59.6z"/>
</g>
<g class="st2">
	<path class="st0" d="M353.8,59.5c0.3-0.5,0.6-0.8,1.1-0.8c0.2,0,0.4,0,0.6,0.1l-0.2,1c-0.1-0.1-0.3-0.1-0.4-0.1
		c-0.4,0-0.7,0.2-1,0.6v3.1h-1.1v-4.6h1L353.8,59.5z"/>
</g>
<g class="st2">
	<path class="st0" d="M360.4,58.9l-1.9,4.6h-0.9l-1.8-4.6h1.2l1.1,3.2h0l1.1-3.2H360.4z"/>
	<path class="st0" d="M361.2,58.1v-1h1.1v1H361.2z M361.2,63.5v-4.6h1.1v4.6H361.2z"/>
	<path class="st0" d="M366,60c-0.2-0.2-0.6-0.4-0.9-0.4c-0.3,0-0.5,0.2-0.5,0.5c0,0.3,0.4,0.5,0.8,0.6c0.6,0.2,1.4,0.5,1.4,1.4
		c0,1-0.8,1.5-1.7,1.5c-0.7,0-1.3-0.3-1.8-0.8l0.7-0.6c0.3,0.3,0.6,0.5,1.1,0.5c0.3,0,0.7-0.2,0.7-0.5c0-0.3-0.5-0.5-0.9-0.7
		c-0.5-0.2-1.3-0.5-1.3-1.4c0-0.9,0.8-1.4,1.6-1.4c0.6,0,1.1,0.2,1.5,0.6L366,60z"/>
	<path class="st0" d="M372.3,61.2c0,1.4-1,2.4-2.4,2.4c-1.4,0-2.4-1.1-2.4-2.4c0-1.4,1-2.4,2.4-2.4
		C371.2,58.8,372.3,59.8,372.3,61.2z M369.9,59.7c-0.8,0-1.3,0.7-1.3,1.5c0,0.8,0.5,1.5,1.3,1.5c0.8,0,1.3-0.7,1.3-1.5
		C371.2,60.4,370.6,59.7,369.9,59.7z"/>
</g>
<g class="st2">
	<path class="st0" d="M374.3,59.5c0.3-0.5,0.6-0.8,1.1-0.8c0.2,0,0.4,0,0.6,0.1l-0.2,1c-0.1-0.1-0.3-0.1-0.4-0.1
		c-0.4,0-0.7,0.2-1,0.6v3.1h-1.1v-4.6h1L374.3,59.5z"/>
</g>
<g class="st2">
	<path class="st0" d="M377.6,58.9l1,3.1h0l1.1-3.1h1.2l-2.6,6.7l-1-0.4l0.7-2l-1.7-4.4H377.6z"/>
</g>
<g class="st2">
	<path class="st0" d="M343.4,69.5c0.3-0.5,0.6-0.8,1.1-0.8c0.2,0,0.4,0,0.6,0.1l-0.2,1c-0.1-0.1-0.3-0.1-0.4-0.1
		c-0.4,0-0.7,0.2-1,0.6v3.1h-1.1v-4.6h1L343.4,69.5z"/>
	<path class="st0" d="M350.1,71.2c0,1.4-1,2.4-2.4,2.4c-1.4,0-2.4-1.1-2.4-2.4c0-1.4,1-2.4,2.4-2.4
		C349.1,68.8,350.1,69.8,350.1,71.2z M347.7,69.7c-0.8,0-1.3,0.7-1.3,1.5c0,0.8,0.5,1.5,1.3,1.5c0.8,0,1.3-0.7,1.3-1.5
		C349,70.4,348.5,69.7,347.7,69.7z"/>
	<path class="st0" d="M352.2,73.5h-1.1v-6.8h1.1V73.5z"/>
	<path class="st0" d="M354.3,71.5c0.1,0.7,0.5,1.3,1.3,1.3c0.6,0,1-0.2,1.3-0.7l0.7,0.5c-0.5,0.8-1.1,1.1-2.1,1.1
		c-1.4,0-2.3-1-2.3-2.4c0-1.4,1-2.5,2.3-2.5c1.3,0,2.2,0.9,2.2,2.2c0,0.2,0,0.4,0,0.5H354.3z M355.6,69.6c-0.7,0-1.1,0.5-1.2,1h2.2
		C356.6,70.1,356.2,69.6,355.6,69.6z"/>
	<path class="st0" d="M361.2,70c-0.2-0.2-0.6-0.4-0.9-0.4c-0.3,0-0.5,0.2-0.5,0.5c0,0.3,0.4,0.5,0.8,0.6c0.6,0.2,1.4,0.5,1.4,1.4
		c0,1-0.8,1.5-1.7,1.5c-0.7,0-1.3-0.3-1.8-0.8l0.7-0.6c0.3,0.3,0.6,0.5,1.1,0.5c0.3,0,0.7-0.2,0.7-0.5c0-0.3-0.5-0.5-0.9-0.7
		c-0.5-0.2-1.3-0.5-1.3-1.4c0-0.9,0.8-1.4,1.6-1.4c0.6,0,1.1,0.2,1.5,0.6L361.2,70z"/>
</g>
<g class="st2">
	<path class="st0" d="M328.3,168c0,0.9-0.7,1.5-1.5,1.5c-0.8,0-1.5-0.6-1.5-1.5s0.7-1.5,1.5-1.5C327.6,166.6,328.3,167.2,328.3,168z
		 M331.2,166.9l-4.5,6.1l-0.6-0.4l4.5-6.1L331.2,166.9z M326.1,168c0,0.4,0.3,0.7,0.7,0.7c0.4,0,0.6-0.3,0.6-0.7s-0.3-0.7-0.6-0.7
		C326.4,167.3,326.1,167.6,326.1,168z M332,171.5c0,0.9-0.7,1.5-1.5,1.5c-0.8,0-1.5-0.6-1.5-1.5s0.7-1.5,1.5-1.5
		C331.3,170,332,170.6,332,171.5z M329.8,171.5c0,0.4,0.3,0.7,0.7,0.7c0.4,0,0.6-0.3,0.6-0.7s-0.3-0.7-0.6-0.7
		C330.1,170.8,329.8,171.1,329.8,171.5z"/>
	<path class="st0" d="M339.8,170.6c0,1.4-1,2.4-2.4,2.4s-2.4-1.1-2.4-2.4c0-1.4,1-2.4,2.4-2.4S339.8,169.2,339.8,170.6z
		 M337.4,169.1c-0.8,0-1.3,0.7-1.3,1.5c0,0.8,0.5,1.5,1.3,1.5s1.3-0.7,1.3-1.5C338.7,169.8,338.2,169.1,337.4,169.1z"/>
	<path class="st0" d="M343.3,167.1c-0.2-0.1-0.4-0.1-0.6-0.1c-0.2,0-0.4,0.1-0.4,0.2c-0.1,0.1-0.2,0.4-0.2,0.7v0.4h1.2v0.9h-1.2v3.7
		H341v-3.7h-0.5v-0.9h0.5v-0.5c0-0.5,0.1-0.9,0.3-1.2c0.2-0.3,0.6-0.5,1.3-0.5c0.4,0,0.7,0.1,1.1,0.2L343.3,167.1z"/>
</g>
<g class="st2">
	<path class="st0" d="M350.3,171.4L350.3,171.4l0.8-3.2h1.1l-1.3,4.6h-1.1l-0.8-3h0l-0.9,3h-1.2l-1.3-4.6h1.2l0.8,3.2h0l0.9-3.2h1
		L350.3,171.4z"/>
</g>
<g class="st2">
	<path class="st0" d="M357.4,170.6c0,1.4-1,2.4-2.4,2.4s-2.4-1.1-2.4-2.4c0-1.4,1-2.4,2.4-2.4S357.4,169.2,357.4,170.6z M355,169.1
		c-0.8,0-1.3,0.7-1.3,1.5c0,0.8,0.5,1.5,1.3,1.5s1.3-0.7,1.3-1.5C356.3,169.8,355.8,169.1,355,169.1z"/>
	<path class="st0" d="M359.5,168.9c0.3-0.5,0.6-0.8,1.1-0.8c0.2,0,0.4,0,0.6,0.1l-0.2,1c-0.1-0.1-0.3-0.1-0.4-0.1
		c-0.4,0-0.7,0.2-1,0.6v3.1h-1.1v-4.6h1L359.5,168.9z"/>
</g>
<g class="st2">
	<path class="st0" d="M364.5,172.9l-1.2-1.9l-0.6,0.7v1.2h-1.1v-6.8h1.1v4.2l0,0l1.6-2.1h1.3l-1.6,1.9l1.8,2.7H364.5z"/>
</g>
<g class="st2">
	<path class="st0" d="M367.1,170.9c0.1,0.7,0.5,1.3,1.3,1.3c0.6,0,1-0.2,1.3-0.7l0.7,0.5c-0.5,0.8-1.1,1.1-2.1,1.1
		c-1.4,0-2.3-1-2.3-2.4c0-1.4,1-2.5,2.3-2.5c1.3,0,2.2,0.9,2.2,2.2c0,0.2,0,0.4,0,0.5H367.1z M368.4,169c-0.7,0-1.1,0.5-1.2,1h2.2
		C369.4,169.5,369,169,368.4,169z"/>
	<path class="st0" d="M372.6,168.9c0.3-0.5,0.6-0.8,1.1-0.8c0.2,0,0.4,0,0.6,0.1l-0.2,1c-0.1-0.1-0.3-0.1-0.4-0.1
		c-0.4,0-0.7,0.2-1,0.6v3.1h-1.1v-4.6h1L372.6,168.9z"/>
	<path class="st0" d="M377.3,169.4c-0.2-0.2-0.6-0.4-0.9-0.4c-0.3,0-0.5,0.2-0.5,0.5c0,0.3,0.4,0.5,0.8,0.6c0.6,0.2,1.4,0.5,1.4,1.4
		c0,1-0.8,1.5-1.7,1.5c-0.7,0-1.3-0.3-1.8-0.8l0.7-0.6c0.3,0.3,0.6,0.5,1.1,0.5c0.3,0,0.7-0.2,0.7-0.5c0-0.3-0.5-0.5-0.9-0.7
		c-0.5-0.2-1.3-0.5-1.3-1.4c0-0.9,0.8-1.4,1.6-1.4c0.6,0,1.1,0.2,1.5,0.6L377.3,169.4z"/>
</g>
<g class="st2">
	<path class="st0" d="M325.8,177.5v-1h1.1v1H325.8z M325.8,182.9v-4.6h1.1v4.6H325.8z"/>
	<path class="st0" d="M329.3,178.3l0.1,0.7c0.4-0.5,0.9-0.8,1.5-0.8c0.6,0,1,0.2,1.3,0.6c0.3,0.5,0.4,1.1,0.4,1.7v2.4h-1.1v-2.3
		c0-0.4,0-0.8-0.2-1.1c-0.1-0.2-0.4-0.4-0.7-0.4c-0.4,0-0.9,0.3-1.2,0.7v3.1h-1.1v-4.6H329.3z"/>
	<path class="st0" d="M337.1,178.9c0.3-0.5,0.6-0.8,1.1-0.8c0.2,0,0.4,0,0.6,0.1l-0.2,1c-0.1-0.1-0.3-0.1-0.4-0.1
		c-0.4,0-0.7,0.2-1,0.6v3.1h-1.1v-4.6h1L337.1,178.9z"/>
	<path class="st0" d="M342.1,182.9l-0.1-0.4c-0.3,0.4-0.8,0.5-1.3,0.5c-0.9,0-1.7-0.5-1.7-1.5c0-1.2,1.1-1.5,2-1.5
		c0.2,0,0.5,0,0.9,0.1V180c0-0.6-0.3-1-1-1c-0.5,0-1,0.2-1.4,0.4l-0.3-0.8c0.5-0.3,1.3-0.5,1.9-0.5c1.3,0,1.9,0.7,1.9,1.9v2.8H342.1
		z M342,180.9c-0.3-0.1-0.5-0.1-0.7-0.1c-0.5,0-1.1,0.2-1.1,0.8c0,0.5,0.4,0.7,0.8,0.7c0.4,0,0.7-0.2,1.1-0.5V180.9z"/>
	<path class="st0" d="M345.4,178.3l0.1,0.7c0.4-0.5,0.9-0.8,1.5-0.8c0.6,0,1,0.2,1.3,0.6c0.3,0.5,0.4,1.1,0.4,1.7v2.4h-1.1v-2.3
		c0-0.4,0-0.8-0.2-1.1c-0.1-0.2-0.4-0.4-0.7-0.4c-0.4,0-0.9,0.3-1.2,0.7v3.1h-1.1v-4.6H345.4z"/>
	<path class="st0" d="M352.8,182.9l-1.2-1.9l-0.6,0.7v1.2h-1.1v-6.8h1.1v4.2l0,0l1.6-2.1h1.3l-1.6,1.9l1.8,2.7H352.8z"/>
	<path class="st0" d="M362,183.1l-1.1-1c-0.5,0.6-1.1,0.9-1.9,0.9c-1.2,0-2.2-0.9-2.2-2c0-0.7,0.4-1.3,1-1.7
		c-0.4-0.4-0.6-0.8-0.6-1.3c0-1,0.9-1.6,1.9-1.6c0.9,0,1.5,0.5,1.7,1.3l-1,0.3c-0.1-0.4-0.4-0.6-0.8-0.6c-0.4,0-0.8,0.3-0.8,0.7
		c0,0.4,0.3,0.7,1,1.3l-0.6,0.7l-0.2-0.2c-0.4,0.2-0.6,0.6-0.6,1c0,0.6,0.5,1.1,1.2,1.1c0.5,0,0.8-0.2,1.1-0.6l-0.7-0.6l0.6-0.7
		l2.5,2.2L362,183.1z"/>
	<path class="st0" d="M366.7,179.2v3.7h-1.1v-3.7h-0.5v-0.9h0.5v-0.5c0-0.5,0.1-0.9,0.3-1.2c0.2-0.3,0.6-0.5,1.3-0.5
		c0.3,0,0.5,0,0.8,0.1l-0.2,0.9c-0.1-0.1-0.3-0.1-0.5-0.1c-0.2,0-0.4,0.1-0.4,0.2c-0.1,0.1-0.2,0.4-0.2,0.7v0.4h1.2v0.9H366.7z
		 M368.6,177.5v-1h1.1v1H368.6z M368.6,182.9v-4.6h1.1v4.6H368.6z"/>
	<path class="st0" d="M372.1,182.9H371v-6.8h1.1V182.9z"/>
	<path class="st0" d="M374.2,180.9c0.1,0.7,0.5,1.3,1.3,1.3c0.6,0,1-0.2,1.3-0.7l0.7,0.5c-0.5,0.8-1.1,1.1-2.1,1.1
		c-1.4,0-2.3-1-2.3-2.4c0-1.4,1-2.5,2.3-2.5c1.3,0,2.2,0.9,2.2,2.2c0,0.2,0,0.4,0,0.5H374.2z M375.5,179c-0.7,0-1.1,0.5-1.2,1h2.2
		C376.5,179.5,376.1,179,375.5,179z"/>
</g>
<g class="st2">
	<path class="st0" d="M333.9,188.3l0.1,0.6c0.3-0.5,0.9-0.7,1.4-0.7c1.3,0,2.2,1.1,2.2,2.4c0,1.3-0.9,2.4-2.2,2.4
		c-0.5,0-1-0.2-1.4-0.6v2.7h-1.1v-6.9H333.9z M334,191.5c0.3,0.4,0.8,0.6,1.2,0.6c0.9,0,1.3-0.8,1.3-1.5c0-0.8-0.5-1.5-1.3-1.5
		c-0.4,0-0.9,0.2-1.2,0.7V191.5z"/>
	<path class="st0" d="M343.1,190.6c0,1.4-1,2.4-2.4,2.4c-1.4,0-2.4-1.1-2.4-2.4c0-1.4,1-2.4,2.4-2.4
		C342.1,188.2,343.1,189.2,343.1,190.6z M340.7,189.1c-0.8,0-1.3,0.7-1.3,1.5c0,0.8,0.5,1.5,1.3,1.5c0.8,0,1.3-0.7,1.3-1.5
		C342,189.8,341.4,189.1,340.7,189.1z"/>
	<path class="st0" d="M346.5,189.4c-0.2-0.2-0.6-0.4-0.9-0.4c-0.3,0-0.5,0.2-0.5,0.5c0,0.3,0.4,0.5,0.8,0.6c0.6,0.2,1.4,0.5,1.4,1.4
		c0,1-0.8,1.5-1.7,1.5c-0.7,0-1.3-0.3-1.8-0.8l0.7-0.6c0.3,0.3,0.6,0.5,1.1,0.5c0.3,0,0.7-0.2,0.7-0.5c0-0.3-0.5-0.5-0.9-0.7
		c-0.5-0.2-1.3-0.5-1.3-1.4c0-0.9,0.8-1.4,1.6-1.4c0.6,0,1.1,0.2,1.5,0.6L346.5,189.4z"/>
	<path class="st0" d="M348.3,187.5v-1h1.1v1H348.3z M348.3,192.9v-4.6h1.1v4.6H348.3z"/>
	<path class="st0" d="M351.9,189.2v1.9c0,0.1,0,0.2,0,0.4c0,0.4,0.2,0.6,0.5,0.6c0.2,0,0.4,0,0.5-0.1l0.3,0.8
		c-0.3,0.2-0.7,0.2-1,0.2c-0.7,0-1.1-0.4-1.3-0.9c-0.1-0.2-0.1-0.5-0.1-0.9v-2.1h-0.6v-0.9h0.6l0.1-1.1h1v1.1h1.2v0.9H351.9z"/>
	<path class="st0" d="M354,187.5v-1h1.1v1H354z M354,192.9v-4.6h1.1v4.6H354z"/>
	<path class="st0" d="M360.9,190.6c0,1.4-1,2.4-2.4,2.4c-1.4,0-2.4-1.1-2.4-2.4c0-1.4,1-2.4,2.4-2.4
		C359.9,188.2,360.9,189.2,360.9,190.6z M358.5,189.1c-0.8,0-1.3,0.7-1.3,1.5c0,0.8,0.5,1.5,1.3,1.5c0.8,0,1.3-0.7,1.3-1.5
		C359.8,189.8,359.2,189.1,358.5,189.1z"/>
	<path class="st0" d="M362.9,188.3l0.1,0.7c0.4-0.5,0.9-0.8,1.5-0.8c0.6,0,1,0.2,1.3,0.6c0.3,0.5,0.4,1.1,0.4,1.7v2.4H365v-2.3
		c0-0.4,0-0.8-0.2-1.1c-0.1-0.2-0.4-0.4-0.7-0.4c-0.4,0-0.9,0.3-1.2,0.7v3.1h-1.1v-4.6H362.9z"/>
	<path class="st0" d="M369.8,189.4c-0.2-0.2-0.6-0.4-0.9-0.4c-0.3,0-0.5,0.2-0.5,0.5c0,0.3,0.4,0.5,0.8,0.6c0.6,0.2,1.4,0.5,1.4,1.4
		c0,1-0.8,1.5-1.7,1.5c-0.7,0-1.3-0.3-1.8-0.8l0.7-0.6c0.3,0.3,0.6,0.5,1.1,0.5c0.3,0,0.7-0.2,0.7-0.5c0-0.3-0.5-0.5-0.9-0.7
		c-0.5-0.2-1.3-0.5-1.3-1.4c0-0.9,0.8-1.4,1.6-1.4c0.6,0,1.1,0.2,1.5,0.6L369.8,189.4z"/>
</g>
<g class="st2">
	<path class="st4" d="M486.7,137.4l-2.8-3.8v3.8h-1v-5.6h0.9l2.8,3.8v-3.8h1v5.6H486.7z"/>
	<path class="st4" d="M491.6,137.4l0-0.6c-0.3,0.5-0.8,0.7-1.3,0.7c-0.5,0-0.9-0.2-1.1-0.5c-0.3-0.4-0.4-0.9-0.4-1.5v-2.1h1v2.1
		c0,0.3,0,0.7,0.2,1c0.1,0.2,0.3,0.3,0.6,0.3c0.4,0,0.8-0.2,1-0.6v-2.7h1v4.1H491.6z"/>
	<path class="st4" d="M499,137.4v-2.1c0-0.3,0-0.7-0.1-1c-0.1-0.2-0.3-0.3-0.6-0.3c-0.3,0-0.7,0.2-0.9,0.6c0,0.2,0,0.4,0,0.7v2.1h-1
		v-2.1c0-0.3,0-0.8-0.2-1c-0.1-0.2-0.3-0.3-0.6-0.3c-0.3,0-0.7,0.3-0.9,0.6v2.8h-1v-4.1h0.9l0,0.6c0.3-0.4,0.8-0.6,1.2-0.6
		c0.4,0,0.8,0.2,1.1,0.6c0,0,0.1,0.1,0.1,0.2c0.4-0.5,0.9-0.7,1.4-0.7c0.5,0,0.9,0.2,1.1,0.5c0.3,0.4,0.4,1,0.4,1.6v2.1H499z"/>
	<path class="st4" d="M502.1,131.4v2.4c0.3-0.4,0.8-0.6,1.3-0.6c1.1,0,2,1,2,2.2c0,1.1-0.8,2.1-2,2.1c-0.4,0-1-0.2-1.3-0.6l0,0.5
		h-0.9v-6H502.1z M502.1,136.1c0.3,0.4,0.7,0.5,1.1,0.5c0.8,0,1.2-0.7,1.2-1.3c0-0.7-0.5-1.3-1.2-1.3c-0.4,0-0.8,0.2-1.1,0.6V136.1z
		"/>
	<path class="st4" d="M506.9,135.5c0.1,0.6,0.5,1.1,1.2,1.1c0.5,0,0.9-0.2,1.1-0.6l0.7,0.4c-0.5,0.7-1,1-1.8,1
		c-1.3,0-2.1-0.9-2.1-2.1c0-1.2,0.9-2.2,2.1-2.2c1.1,0,1.9,0.8,1.9,1.9c0,0.2,0,0.3,0,0.5H506.9z M508,133.9c-0.6,0-0.9,0.4-1.1,0.9
		h2C508.9,134.3,508.5,133.9,508,133.9z"/>
	<path class="st4" d="M511.8,133.8c0.2-0.4,0.6-0.7,1-0.7c0.2,0,0.3,0,0.5,0.1l-0.2,0.9c-0.1-0.1-0.2-0.1-0.4-0.1
		c-0.4,0-0.6,0.2-0.8,0.6v2.8h-1v-4.1h0.9L511.8,133.8z"/>
	<path class="st4" d="M519.7,135.3c0,1.2-0.9,2.2-2.1,2.2s-2.1-1-2.1-2.2c0-1.2,0.9-2.2,2.1-2.2S519.7,134.1,519.7,135.3z
		 M517.6,134c-0.7,0-1.2,0.6-1.2,1.3c0,0.7,0.5,1.3,1.2,1.3c0.7,0,1.2-0.6,1.2-1.3C518.8,134.6,518.3,134,517.6,134z"/>
	<path class="st4" d="M522.8,132.2c-0.2-0.1-0.3-0.1-0.6-0.1c-0.2,0-0.3,0-0.4,0.1c-0.1,0.1-0.2,0.4-0.2,0.6v0.4h1.1v0.8h-1.1v3.3
		h-1v-3.3h-0.5v-0.8h0.5v-0.4c0-0.5,0.1-0.8,0.3-1.1c0.2-0.3,0.6-0.4,1.1-0.4c0.3,0,0.7,0.1,0.9,0.2L522.8,132.2z"/>
	<path class="st4" d="M526.1,135.5c0.1,0.6,0.5,1.1,1.2,1.1c0.5,0,0.9-0.2,1.1-0.6l0.7,0.4c-0.5,0.7-1,1-1.8,1
		c-1.3,0-2.1-0.9-2.1-2.1c0-1.2,0.9-2.2,2.1-2.2c1.1,0,1.9,0.8,1.9,1.9c0,0.2,0,0.3,0,0.5H526.1z M527.2,133.9
		c-0.6,0-0.9,0.4-1.1,0.9h2C528.1,134.3,527.7,133.9,527.2,133.9z"/>
	<path class="st4" d="M535.3,137.4v-2.1c0-0.3,0-0.7-0.1-1c-0.1-0.2-0.3-0.3-0.6-0.3c-0.3,0-0.7,0.2-0.9,0.6c0,0.2,0,0.4,0,0.7v2.1
		h-1v-2.1c0-0.3,0-0.8-0.2-1c-0.1-0.2-0.3-0.3-0.6-0.3c-0.3,0-0.7,0.3-0.9,0.6v2.8h-1v-4.1h0.9l0,0.6c0.3-0.4,0.8-0.6,1.2-0.6
		c0.4,0,0.8,0.2,1.1,0.6c0,0,0.1,0.1,0.1,0.2c0.4-0.5,0.9-0.7,1.4-0.7c0.5,0,0.9,0.2,1.1,0.5c0.3,0.4,0.4,1,0.4,1.6v2.1H535.3z"/>
	<path class="st4" d="M538.3,133.2l0.1,0.5c0.3-0.4,0.8-0.6,1.3-0.6c1.1,0,2,1,2,2.2c0,1.1-0.8,2.1-2,2.1c-0.4,0-0.9-0.2-1.2-0.5
		v2.4h-1v-6.1H538.3z M538.4,136.1c0.3,0.4,0.7,0.5,1.1,0.5c0.8,0,1.2-0.7,1.2-1.3c0-0.7-0.5-1.3-1.2-1.3c-0.4,0-0.8,0.2-1.1,0.6
		V136.1z"/>
	<path class="st4" d="M543.5,137.4h-1v-6h1V137.4z"/>
	<path class="st4" d="M548.7,135.3c0,1.2-0.9,2.2-2.1,2.2s-2.1-1-2.1-2.2c0-1.2,0.9-2.2,2.1-2.2S548.7,134.1,548.7,135.3z
		 M546.5,134c-0.7,0-1.2,0.6-1.2,1.3c0,0.7,0.5,1.3,1.2,1.3s1.2-0.6,1.2-1.3C547.7,134.6,547.2,134,546.5,134z"/>
	<path class="st4" d="M550.1,133.2l0.9,2.7h0l0.9-2.7h1.1l-2.3,6l-0.9-0.3l0.7-1.7l-1.5-3.9H550.1z"/>
	<path class="st4" d="M554.3,135.5c0.1,0.6,0.5,1.1,1.2,1.1c0.5,0,0.9-0.2,1.1-0.6l0.7,0.4c-0.5,0.7-1,1-1.8,1
		c-1.3,0-2.1-0.9-2.1-2.1c0-1.2,0.9-2.2,2.1-2.2c1.1,0,1.9,0.8,1.9,1.9c0,0.2,0,0.3,0,0.5H554.3z M555.4,133.9
		c-0.6,0-0.9,0.4-1.1,0.9h2C556.3,134.3,555.9,133.9,555.4,133.9z"/>
	<path class="st4" d="M558.9,135.5c0.1,0.6,0.5,1.1,1.2,1.1c0.5,0,0.9-0.2,1.1-0.6l0.7,0.4c-0.5,0.7-1,1-1.8,1
		c-1.3,0-2.1-0.9-2.1-2.1c0-1.2,0.9-2.2,2.1-2.2c1.1,0,1.9,0.8,1.9,1.9c0,0.2,0,0.3,0,0.5H558.9z M560,133.9c-0.6,0-0.9,0.4-1.1,0.9
		h2C560.9,134.3,560.5,133.9,560,133.9z"/>
	<path class="st4" d="M565,134.2c-0.2-0.2-0.5-0.3-0.8-0.3c-0.3,0-0.5,0.2-0.5,0.4c0,0.3,0.3,0.4,0.7,0.6c0.5,0.2,1.2,0.5,1.2,1.2
		c0,0.9-0.8,1.3-1.6,1.3c-0.6,0-1.2-0.2-1.6-0.7l0.6-0.6c0.3,0.3,0.6,0.5,0.9,0.5c0.3,0,0.6-0.1,0.6-0.5c0-0.3-0.4-0.4-0.8-0.6
		c-0.5-0.2-1.1-0.5-1.1-1.2c0-0.8,0.7-1.2,1.4-1.2c0.5,0,1,0.2,1.4,0.5L565,134.2z"/>
</g>
<g class="st2">
	<path class="st4" d="M485,142.2c-0.2-0.1-0.3-0.1-0.6-0.1c-0.2,0-0.3,0-0.4,0.1c-0.1,0.1-0.2,0.4-0.2,0.6v0.4h1.1v0.8h-1.1v3.3h-1
		v-3.3h-0.5v-0.8h0.5v-0.4c0-0.5,0.1-0.8,0.3-1.1c0.2-0.3,0.6-0.4,1.1-0.4c0.3,0,0.7,0.1,0.9,0.2L485,142.2z"/>
	<path class="st4" d="M486.5,143.8c0.2-0.4,0.6-0.7,1-0.7c0.2,0,0.3,0,0.5,0.1l-0.2,0.9c-0.1-0.1-0.2-0.1-0.4-0.1
		c-0.4,0-0.6,0.2-0.8,0.6v2.8h-1v-4.1h0.9L486.5,143.8z"/>
	<path class="st4" d="M492.5,145.3c0,1.2-0.9,2.2-2.1,2.2s-2.1-1-2.1-2.2c0-1.2,0.9-2.2,2.1-2.2S492.5,144.1,492.5,145.3z
		 M490.4,144c-0.7,0-1.2,0.6-1.2,1.3c0,0.7,0.5,1.3,1.2,1.3c0.7,0,1.2-0.6,1.2-1.3C491.5,144.6,491,144,490.4,144z"/>
	<path class="st4" d="M498.7,147.4v-2.1c0-0.3,0-0.7-0.1-1c-0.1-0.2-0.3-0.3-0.6-0.3c-0.3,0-0.7,0.2-0.9,0.6c0,0.2,0,0.4,0,0.7v2.1
		h-1v-2.1c0-0.3,0-0.8-0.2-1c-0.1-0.2-0.3-0.3-0.6-0.3c-0.3,0-0.7,0.3-0.9,0.6v2.8h-1v-4.1h0.9l0,0.6c0.3-0.4,0.8-0.6,1.2-0.6
		c0.4,0,0.8,0.2,1.1,0.6c0,0,0.1,0.1,0.1,0.2c0.4-0.5,0.9-0.7,1.4-0.7c0.5,0,0.9,0.2,1.1,0.5c0.3,0.4,0.4,1,0.4,1.6v2.1H498.7z"/>
	<path class="st4" d="M502.8,142.6v-0.9h1v0.9H502.8z M502.8,147.4v-4.1h1v4.1H502.8z"/>
	<path class="st4" d="M505.9,143.2l0,0.6c0.3-0.5,0.8-0.7,1.3-0.7c0.5,0,0.9,0.2,1.1,0.5c0.3,0.4,0.4,0.9,0.4,1.5v2.1h-1v-2.1
		c0-0.3,0-0.7-0.2-1c-0.1-0.2-0.3-0.3-0.6-0.3c-0.4,0-0.8,0.2-1,0.6v2.7h-1v-4.1H505.9z"/>
	<path class="st4" d="M513.8,147.4h-0.9l0-0.5c-0.3,0.4-0.8,0.6-1.3,0.6c-1.1,0-2-1-2-2.2c0-1.1,0.8-2.1,2-2.1
		c0.4,0,0.9,0.2,1.2,0.5v-2.3h1V147.4z M512.8,144.5c-0.3-0.4-0.7-0.5-1-0.5c-0.8,0-1.2,0.7-1.2,1.3c0,0.7,0.4,1.3,1.2,1.3
		c0.4,0,0.8-0.2,1.1-0.6V144.5z"/>
	<path class="st4" d="M515,142.6v-0.9h1v0.9H515z M515,147.4v-4.1h1v4.1H515z"/>
	<path class="st4" d="M521,147.1c0,0.4-0.1,0.8-0.2,1.1c-0.4,0.7-1.1,0.9-1.8,0.9c-0.6,0-1.3-0.2-1.9-0.6l0.4-0.8
		c0.4,0.3,1,0.5,1.5,0.5c0.6,0,1.1-0.3,1.1-1.1v-0.5c-0.3,0.4-0.8,0.6-1.3,0.6c-1.1,0-2-0.9-2-2.1c0-1.1,0.8-2.1,2-2.1
		c0.4,0,1,0.2,1.3,0.6l0-0.5h0.9V147.1z M520.1,144.5c-0.3-0.4-0.7-0.5-1-0.5c-0.8,0-1.2,0.6-1.2,1.3c0,0.7,0.5,1.2,1.2,1.2
		c0.4,0,0.8-0.2,1.1-0.6V144.5z"/>
	<path class="st4" d="M522.9,145.5c0.1,0.6,0.5,1.1,1.2,1.1c0.5,0,0.9-0.2,1.1-0.6l0.7,0.4c-0.5,0.7-1,1-1.8,1
		c-1.3,0-2.1-0.9-2.1-2.1c0-1.2,0.9-2.2,2.1-2.2c1.1,0,1.9,0.8,1.9,1.9c0,0.2,0,0.3,0,0.5H522.9z M524,143.9c-0.6,0-0.9,0.4-1.1,0.9
		h2C524.9,144.3,524.5,143.9,524,143.9z"/>
	<path class="st4" d="M527.7,143.2l0,0.6c0.3-0.5,0.8-0.7,1.3-0.7c0.5,0,0.9,0.2,1.1,0.5c0.3,0.4,0.4,0.9,0.4,1.5v2.1h-1v-2.1
		c0-0.3,0-0.7-0.2-1c-0.1-0.2-0.3-0.3-0.6-0.3c-0.4,0-0.8,0.2-1,0.6v2.7h-1v-4.1H527.7z"/>
	<path class="st4" d="M535.7,145.3c0,1.2-0.9,2.2-2.1,2.2s-2.1-1-2.1-2.2c0-1.2,0.9-2.2,2.1-2.2S535.7,144.1,535.7,145.3z
		 M533.5,144c-0.7,0-1.2,0.6-1.2,1.3c0,0.7,0.5,1.3,1.2,1.3c0.7,0,1.2-0.6,1.2-1.3C534.7,144.6,534.2,144,533.5,144z"/>
	<path class="st4" d="M539.4,147.4l0-0.6c-0.3,0.5-0.8,0.7-1.3,0.7c-0.5,0-0.9-0.2-1.1-0.5c-0.3-0.4-0.4-0.9-0.4-1.5v-2.1h1v2.1
		c0,0.3,0,0.7,0.2,1c0.1,0.2,0.3,0.3,0.6,0.3c0.4,0,0.8-0.2,1-0.6v-2.7h1v4.1H539.4z"/>
	<path class="st4" d="M543.6,144.2c-0.2-0.2-0.5-0.3-0.8-0.3c-0.3,0-0.5,0.2-0.5,0.4c0,0.3,0.3,0.4,0.7,0.6c0.5,0.2,1.2,0.5,1.2,1.2
		c0,0.9-0.8,1.3-1.6,1.3c-0.6,0-1.2-0.2-1.6-0.7l0.6-0.6c0.3,0.3,0.6,0.5,0.9,0.5c0.3,0,0.6-0.1,0.6-0.5c0-0.3-0.4-0.4-0.8-0.6
		c-0.5-0.2-1.1-0.5-1.1-1.2c0-0.8,0.7-1.2,1.4-1.2c0.5,0,1,0.2,1.4,0.5L543.6,144.2z"/>
</g>
<g class="st2">
	<path class="st4" d="M486,157c-0.4,0.3-0.8,0.5-1.4,0.5c-1.2,0-2.1-0.9-2.1-2.2c0-1.2,0.9-2.2,2.1-2.2c0.5,0,1,0.2,1.3,0.4
		l-0.5,0.7c-0.2-0.2-0.5-0.3-0.8-0.3c-0.7,0-1.2,0.6-1.2,1.3c0,0.8,0.5,1.3,1.2,1.3c0.3,0,0.6-0.1,0.8-0.3L486,157z"/>
	<path class="st4" d="M490.8,155.3c0,1.2-0.9,2.2-2.1,2.2s-2.1-1-2.1-2.2c0-1.2,0.9-2.2,2.1-2.2S490.8,154.1,490.8,155.3z
		 M488.6,154c-0.7,0-1.2,0.6-1.2,1.3c0,0.7,0.5,1.3,1.2,1.3s1.2-0.6,1.2-1.3C489.8,154.6,489.3,154,488.6,154z"/>
	<path class="st4" d="M496.9,157.4v-2.1c0-0.3,0-0.7-0.1-1c-0.1-0.2-0.3-0.3-0.6-0.3c-0.3,0-0.7,0.2-0.9,0.6c0,0.2,0,0.4,0,0.7v2.1
		h-1v-2.1c0-0.3,0-0.8-0.2-1c-0.1-0.2-0.3-0.3-0.6-0.3c-0.3,0-0.7,0.3-0.9,0.6v2.8h-1v-4.1h0.9l0,0.6c0.3-0.4,0.8-0.6,1.2-0.6
		c0.4,0,0.8,0.2,1.1,0.6c0,0,0.1,0.1,0.1,0.2c0.4-0.5,0.9-0.7,1.4-0.7c0.5,0,0.9,0.2,1.1,0.5c0.3,0.4,0.4,1,0.4,1.6v2.1H496.9z"/>
	<path class="st4" d="M504.3,157.4v-2.1c0-0.3,0-0.7-0.1-1c-0.1-0.2-0.3-0.3-0.6-0.3c-0.3,0-0.7,0.2-0.9,0.6c0,0.2,0,0.4,0,0.7v2.1
		h-1v-2.1c0-0.3,0-0.8-0.2-1c-0.1-0.2-0.3-0.3-0.6-0.3c-0.3,0-0.7,0.3-0.9,0.6v2.8h-1v-4.1h0.9l0,0.6c0.3-0.4,0.8-0.6,1.2-0.6
		c0.4,0,0.8,0.2,1.1,0.6c0,0,0.1,0.1,0.1,0.2c0.4-0.5,0.9-0.7,1.4-0.7c0.5,0,0.9,0.2,1.1,0.5c0.3,0.4,0.4,1,0.4,1.6v2.1H504.3z"/>
	<path class="st4" d="M509.3,157.4l0-0.6c-0.3,0.5-0.8,0.7-1.3,0.7c-0.5,0-0.9-0.2-1.1-0.5c-0.3-0.4-0.4-0.9-0.4-1.5v-2.1h1v2.1
		c0,0.3,0,0.7,0.2,1c0.1,0.2,0.3,0.3,0.6,0.3c0.4,0,0.8-0.2,1-0.6v-2.7h1v4.1H509.3z"/>
	<path class="st4" d="M512.2,153.2l0,0.6c0.3-0.5,0.8-0.7,1.3-0.7c0.5,0,0.9,0.2,1.1,0.5c0.3,0.4,0.4,0.9,0.4,1.5v2.1h-1v-2.1
		c0-0.3,0-0.7-0.2-1c-0.1-0.2-0.3-0.3-0.6-0.3c-0.4,0-0.8,0.2-1,0.6v2.7h-1v-4.1H512.2z"/>
	<path class="st4" d="M516.3,152.6v-0.9h1v0.9H516.3z M516.3,157.4v-4.1h1v4.1H516.3z"/>
	<path class="st4" d="M519.4,154.1v1.7c0,0.1,0,0.2,0,0.3c0,0.3,0.1,0.5,0.4,0.5c0.2,0,0.3,0,0.5-0.1l0.3,0.7
		c-0.2,0.1-0.6,0.2-0.9,0.2c-0.6,0-1-0.3-1.2-0.8c-0.1-0.2-0.1-0.5-0.1-0.8v-1.8h-0.5v-0.8h0.5l0.1-0.9h0.9v0.9h1.1v0.8H519.4z"/>
	<path class="st4" d="M521.3,152.6v-0.9h1v0.9H521.3z M521.3,157.4v-4.1h1v4.1H521.3z"/>
	<path class="st4" d="M524.2,155.5c0.1,0.6,0.5,1.1,1.2,1.1c0.5,0,0.9-0.2,1.1-0.6l0.7,0.4c-0.5,0.7-1,1-1.8,1
		c-1.3,0-2.1-0.9-2.1-2.1c0-1.2,0.9-2.2,2.1-2.2c1.1,0,1.9,0.8,1.9,1.9c0,0.2,0,0.3,0,0.5H524.2z M525.3,153.9
		c-0.6,0-0.9,0.4-1.1,0.9h2C526.2,154.3,525.8,153.9,525.3,153.9z"/>
	<path class="st4" d="M530.2,154.2c-0.2-0.2-0.5-0.3-0.8-0.3c-0.3,0-0.5,0.2-0.5,0.4c0,0.3,0.3,0.4,0.7,0.6c0.5,0.2,1.2,0.5,1.2,1.2
		c0,0.9-0.8,1.3-1.6,1.3c-0.6,0-1.2-0.2-1.6-0.7l0.6-0.6c0.3,0.3,0.6,0.5,0.9,0.5c0.3,0,0.6-0.1,0.6-0.5c0-0.3-0.4-0.4-0.8-0.6
		c-0.5-0.2-1.1-0.5-1.1-1.2c0-0.8,0.7-1.2,1.4-1.2c0.5,0,1,0.2,1.4,0.5L530.2,154.2z"/>
	<path class="st4" d="M536.3,157.4l0-0.4c-0.3,0.4-0.7,0.5-1.2,0.5c-0.8,0-1.5-0.4-1.5-1.3c0-1,0.9-1.3,1.8-1.3c0.2,0,0.5,0,0.8,0.1
		v-0.1c0-0.6-0.2-0.9-0.9-0.9c-0.5,0-0.9,0.2-1.3,0.4l-0.3-0.7c0.5-0.2,1.1-0.4,1.7-0.4c1.2,0,1.7,0.7,1.7,1.7v2.5H536.3z
		 M536.2,155.5c-0.2-0.1-0.4-0.1-0.6-0.1c-0.5,0-1,0.1-1,0.7c0,0.4,0.3,0.6,0.7,0.6c0.4,0,0.7-0.2,0.9-0.4V155.5z"/>
	<path class="st4" d="M539.2,153.2l0,0.6c0.3-0.5,0.8-0.7,1.3-0.7c0.5,0,0.9,0.2,1.1,0.5c0.3,0.4,0.4,0.9,0.4,1.5v2.1h-1v-2.1
		c0-0.3,0-0.7-0.2-1c-0.1-0.2-0.3-0.3-0.6-0.3c-0.4,0-0.8,0.2-1,0.6v2.7h-1v-4.1H539.2z"/>
</g>
<g class="st2">
	<path class="st4" d="M547.1,157.4h-0.9l0-0.5c-0.3,0.4-0.8,0.6-1.3,0.6c-1.1,0-2-1-2-2.2c0-1.1,0.8-2.1,2-2.1
		c0.4,0,0.9,0.2,1.2,0.5v-2.3h1V157.4z M546.2,154.5c-0.3-0.4-0.7-0.5-1-0.5c-0.8,0-1.2,0.7-1.2,1.3c0,0.7,0.4,1.3,1.2,1.3
		c0.4,0,0.8-0.2,1.1-0.6V154.5z"/>
</g>
<g class="st2">
	<path class="st4" d="M548.8,157.8l-0.8-0.3l2.3-6.3l0.8,0.3L548.8,157.8z"/>
</g>
<g class="st2">
	<path class="st4" d="M555.4,155.3c0,1.2-0.9,2.2-2.1,2.2s-2.1-1-2.1-2.2c0-1.2,0.9-2.2,2.1-2.2S555.4,154.1,555.4,155.3z
		 M553.3,154c-0.7,0-1.2,0.6-1.2,1.3c0,0.7,0.5,1.3,1.2,1.3s1.2-0.6,1.2-1.3C554.4,154.6,554,154,553.3,154z"/>
	<path class="st4" d="M557.2,153.8c0.2-0.4,0.6-0.7,1-0.7c0.2,0,0.3,0,0.5,0.1l-0.2,0.9c-0.1-0.1-0.2-0.1-0.4-0.1
		c-0.4,0-0.6,0.2-0.8,0.6v2.8h-1v-4.1h0.9L557.2,153.8z"/>
</g>
<g class="st2">
	<path class="st4" d="M486.3,163.2l-1.7,4.1h-0.8l-1.6-4.1h1.1l0.9,2.8h0l0.9-2.8H486.3z"/>
	<path class="st4" d="M489.8,167.4l0-0.6c-0.3,0.5-0.8,0.7-1.3,0.7s-0.9-0.2-1.1-0.5c-0.3-0.4-0.4-0.9-0.4-1.5v-2.1h1v2.1
		c0,0.3,0,0.7,0.2,1c0.1,0.2,0.3,0.3,0.6,0.3c0.4,0,0.8-0.2,1-0.6v-2.7h1v4.1H489.8z"/>
	<path class="st4" d="M492.8,167.4h-1v-6h1V167.4z"/>
	<path class="st4" d="M494.9,163.2l0,0.6c0.3-0.5,0.8-0.7,1.3-0.7c0.5,0,0.9,0.2,1.1,0.5c0.3,0.4,0.4,0.9,0.4,1.5v2.1h-1v-2.1
		c0-0.3,0-0.7-0.2-1c-0.1-0.2-0.3-0.3-0.6-0.3c-0.4,0-0.8,0.2-1,0.6v2.7h-1v-4.1H494.9z"/>
	<path class="st4" d="M499.6,165.5c0.1,0.6,0.5,1.1,1.2,1.1c0.5,0,0.9-0.2,1.1-0.6l0.7,0.4c-0.5,0.7-1,1-1.8,1
		c-1.3,0-2.1-0.9-2.1-2.1c0-1.2,0.9-2.2,2.1-2.2c1.1,0,1.9,0.8,1.9,1.9c0,0.2,0,0.3,0,0.5H499.6z M500.7,163.9
		c-0.6,0-0.9,0.4-1.1,0.9h2C501.6,164.3,501.2,163.9,500.7,163.9z"/>
	<path class="st4" d="M504.5,163.8c0.2-0.4,0.6-0.7,1-0.7c0.2,0,0.3,0,0.5,0.1l-0.2,0.9c-0.1-0.1-0.2-0.1-0.4-0.1
		c-0.4,0-0.6,0.2-0.8,0.6v2.8h-1v-4.1h0.9L504.5,163.8z"/>
	<path class="st4" d="M508.9,167.4l0-0.4c-0.3,0.4-0.7,0.5-1.2,0.5c-0.8,0-1.5-0.4-1.5-1.3c0-1,0.9-1.3,1.8-1.3c0.2,0,0.5,0,0.8,0.1
		v-0.1c0-0.6-0.2-0.9-0.9-0.9c-0.5,0-0.9,0.2-1.3,0.4l-0.3-0.7c0.5-0.2,1.1-0.4,1.7-0.4c1.2,0,1.7,0.7,1.7,1.7v2.5H508.9z
		 M508.8,165.5c-0.2-0.1-0.4-0.1-0.6-0.1c-0.5,0-1,0.1-1,0.7c0,0.4,0.3,0.6,0.7,0.6c0.4,0,0.7-0.2,0.9-0.4V165.5z"/>
	<path class="st4" d="M511.9,161.4v2.4c0.3-0.4,0.8-0.6,1.3-0.6c1.1,0,2,1,2,2.2c0,1.1-0.8,2.1-2,2.1c-0.4,0-1-0.2-1.3-0.6l0,0.5
		H511v-6H511.9z M511.9,166.1c0.3,0.4,0.7,0.5,1.1,0.5c0.8,0,1.2-0.7,1.2-1.3c0-0.7-0.5-1.3-1.2-1.3c-0.4,0-0.8,0.2-1.1,0.6V166.1z"
		/>
	<path class="st4" d="M517,167.4h-1v-6h1V167.4z"/>
	<path class="st4" d="M518.9,165.5c0.1,0.6,0.5,1.1,1.2,1.1c0.5,0,0.9-0.2,1.1-0.6l0.7,0.4c-0.5,0.7-1,1-1.8,1
		c-1.3,0-2.1-0.9-2.1-2.1c0-1.2,0.9-2.2,2.1-2.2c1.1,0,1.9,0.8,1.9,1.9c0,0.2,0,0.3,0,0.5H518.9z M520,163.9c-0.6,0-0.9,0.4-1.1,0.9
		h2C520.9,164.3,520.5,163.9,520,163.9z"/>
	<path class="st4" d="M527,164.2c-0.2-0.2-0.5-0.3-0.8-0.3c-0.3,0-0.5,0.2-0.5,0.4c0,0.3,0.3,0.4,0.7,0.6c0.5,0.2,1.2,0.5,1.2,1.2
		c0,0.9-0.8,1.3-1.6,1.3c-0.6,0-1.2-0.2-1.6-0.7l0.6-0.6c0.3,0.3,0.6,0.5,0.9,0.5c0.3,0,0.6-0.1,0.6-0.5c0-0.3-0.4-0.4-0.8-0.6
		c-0.5-0.2-1.1-0.5-1.1-1.2c0-0.8,0.7-1.2,1.4-1.2c0.5,0,1,0.2,1.4,0.5L527,164.2z"/>
	<path class="st4" d="M529.2,165.5c0.1,0.6,0.5,1.1,1.2,1.1c0.5,0,0.9-0.2,1.1-0.6l0.7,0.4c-0.5,0.7-1,1-1.8,1
		c-1.3,0-2.1-0.9-2.1-2.1c0-1.2,0.9-2.2,2.1-2.2c1.1,0,1.9,0.8,1.9,1.9c0,0.2,0,0.3,0,0.5H529.2z M530.4,163.9
		c-0.6,0-0.9,0.4-1.1,0.9h2C531.3,164.3,530.9,163.9,530.4,163.9z"/>
</g>
<g class="st2">
	<path class="st4" d="M536.4,167c-0.4,0.3-0.8,0.5-1.4,0.5c-1.2,0-2.1-0.9-2.1-2.2c0-1.2,0.9-2.2,2.1-2.2c0.5,0,1,0.2,1.3,0.4
		l-0.5,0.7c-0.2-0.2-0.5-0.3-0.8-0.3c-0.7,0-1.2,0.6-1.2,1.3c0,0.8,0.5,1.3,1.2,1.3c0.3,0,0.6-0.1,0.8-0.3L536.4,167z"/>
</g>
<g class="st2">
	<path class="st4" d="M538.3,164.1v1.7c0,0.1,0,0.2,0,0.3c0,0.3,0.1,0.5,0.4,0.5c0.2,0,0.3,0,0.5-0.1l0.3,0.7
		c-0.2,0.1-0.6,0.2-0.9,0.2c-0.6,0-1-0.3-1.2-0.8c-0.1-0.2-0.1-0.5-0.1-0.8v-1.8h-0.5v-0.8h0.5l0.1-0.9h0.9v0.9h1.1v0.8H538.3z"/>
	<path class="st4" d="M544.2,165.3c0,1.2-0.9,2.2-2.1,2.2s-2.1-1-2.1-2.2c0-1.2,0.9-2.2,2.1-2.2S544.2,164.1,544.2,165.3z M542,164
		c-0.7,0-1.2,0.6-1.2,1.3c0,0.7,0.5,1.3,1.2,1.3c0.7,0,1.2-0.6,1.2-1.3C543.2,164.6,542.7,164,542,164z"/>
</g>
<g class="st2">
	<path class="st4" d="M546,163.8c0.2-0.4,0.6-0.7,1-0.7c0.2,0,0.3,0,0.5,0.1l-0.2,0.9c-0.1-0.1-0.2-0.1-0.4-0.1
		c-0.4,0-0.6,0.2-0.8,0.6v2.8h-1v-4.1h0.9L546,163.8z"/>
</g>
<g class="st2">
	<path class="st4" d="M550.2,163.3l0.7,0.7l-0.7,0.5l-0.5-0.9l-0.5,0.9l-0.7-0.5l0.7-0.7l-1-0.2l0.3-0.8l0.9,0.4l-0.1-1h0.9l-0.1,1
		l0.9-0.4l0.3,0.8L550.2,163.3z"/>
</g>
<g>
	<defs>
		<rect id="SVGID_3_" width="577.4" height="233.4"/>
	</defs>
	<clipPath id="SVGID_4_">
		<use xlink:href="#SVGID_3_"  style="overflow:visible;"/>
	</clipPath>
	<g class="st5">
		<g>
			<rect y="36.7" width="98.6" height="1"/>
		</g>
	</g>
</g>
<g class="st2">
	<path d="M51.1,29.2H39.9v-2.6c1.9-2,4.2-4.6,5.6-6.7c0.6-0.9,1.2-2,1.2-2.9c0-1-0.8-1.7-1.8-1.7c-1.2,0-1.9,0.9-1.9,2.3L39.5,17
		c0.2-2.9,2.7-4.7,5.5-4.7c2.7,0,5.4,1.6,5.4,4.6c0,1.6-0.7,3.2-1.7,4.6c-1.2,1.7-2.6,3.2-4,4.7h6.4V29.2z"/>
</g>
<g class="st2">
	<path d="M65.1,20.9c0,5.3-2.2,8.6-6.2,8.6c-4,0-6.2-3.2-6.2-8.6s2.2-8.6,6.2-8.6C62.9,12.3,65.1,15.6,65.1,20.9z M56.3,20.9
		c0,3.7,0.9,5.6,2.6,5.6c1.6,0,2.6-1.8,2.6-5.6s-0.9-5.6-2.6-5.6C57.3,15.3,56.3,17.2,56.3,20.9z"/>
</g>
<g class="st2">
	<path d="M78.5,29.2H67.3v-2.6c1.9-2,4.2-4.6,5.6-6.7c0.6-0.9,1.2-2,1.2-2.9c0-1-0.8-1.7-1.8-1.7c-1.2,0-1.9,0.9-1.9,2.3L66.9,17
		c0.2-2.9,2.7-4.7,5.5-4.7c2.7,0,5.4,1.6,5.4,4.6c0,1.6-0.7,3.2-1.7,4.6c-1.2,1.7-2.6,3.2-4,4.7h6.4V29.2z"/>
</g>
<g class="st2">
	<path d="M92.5,20.9c0,5.3-2.2,8.6-6.2,8.6c-4,0-6.2-3.2-6.2-8.6s2.2-8.6,6.2-8.6C90.3,12.3,92.5,15.6,92.5,20.9z M83.7,20.9
		c0,3.7,0.9,5.6,2.6,5.6c1.6,0,2.6-1.8,2.6-5.6s-0.9-5.6-2.6-5.6C84.7,15.3,83.7,17.2,83.7,20.9z"/>
</g>
<g>
	<defs>
		<rect id="SVGID_5_" width="577.4" height="233.4"/>
	</defs>
	<clipPath id="SVGID_6_">
		<use xlink:href="#SVGID_5_"  style="overflow:visible;"/>
	</clipPath>
	<g class="st6">
		<g>
			<path class="st0" d="M165.2,108.5c-2.8,0-5.5-0.2-8.3-0.7c-1.4-0.2-2.7-0.5-3.9-0.8l3.4-14.6c0.9,0.2,1.9,0.4,2.9,0.6
				c20.8,3.3,40.5-11,43.8-31.9l14.8,2.4C213.7,89.7,191,108.5,165.2,108.5z"/>
		</g>
		<g>
			<path class="st1" d="M217.4,187.6l-14.7-3c0.2-1.2,0.4-2.2,0.5-3.2c2.7-21-12.2-40.2-33.2-42.8c-21-2.7-40.2,12.2-42.8,33.2
				c-0.2,1.8-0.3,3.6-0.3,5.5l-15,0.3c0-2.5,0.1-5.1,0.4-7.6c3.7-29.2,30.4-49.9,59.6-46.2c29.2,3.7,49.9,30.4,46.2,59.6
				C218,184.6,217.8,186,217.4,187.6z"/>
		</g>
		<g>
			<path class="st1" d="M400.9,76.3l-13.7-6.1c0.5-1.1,0.9-2.1,1.2-3.2c6.8-20-4-41.8-24-48.6c-9.7-3.3-20.1-2.6-29.3,1.9
				s-16,12.4-19.3,22.1c-1.3,4-2,8.1-2,12.3l-15,0c0-5.8,1-11.6,2.8-17.1c4.6-13.5,14.1-24.4,26.9-30.7c12.8-6.3,27.2-7.3,40.7-2.7
				c27.8,9.4,42.8,39.7,33.4,67.6C402.1,73.4,401.5,74.9,400.9,76.3z"/>
		</g>
		<g>
			<path class="st1" d="M394.3,211.7l-12.1-8.9c12.6-17,8.9-41-8-53.6c-17-12.6-41-9-53.6,8c-4.8,6.5-7.5,14.6-7.5,22.8h-15
				c0-11.3,3.7-22.6,10.4-31.7c17.5-23.6,50.9-28.7,74.6-11.2C406.7,154.7,411.8,188.1,394.3,211.7z"/>
		</g>
	</g>
</g>
<g class="st2">
	<path class="st4" d="M497.5,120.4H484v-3c2.4-2.5,5.2-5.7,7.1-8.4c0.8-1.1,1.7-2.6,1.7-3.9c0-1.5-1.3-2.4-2.8-2.4
		c-1.6,0-2.7,1.2-2.7,3l-3.8-0.7c0.3-3.4,3.3-5.6,6.6-5.6c3.3,0,6.5,2.1,6.5,5.6c0,2-1,4-2.2,5.7c-1.6,2.2-3.5,4.4-5.4,6.4h8.5
		V120.4z"/>
</g>
<g class="st2">
	<path class="st4" d="M503.9,108.2c1.1,0,2-0.1,2.6-0.2c1.4-0.4,2.4-1.4,2.4-2.7c0-1.5-1.1-2.6-2.9-2.6c-1.4,0-2.5,0.8-2.9,2.2
		l-3.2-1.4c0.8-2.5,3.3-4,6.1-4c3.7,0,6.7,2.1,6.7,5.5c0,1.8-1,3.6-2.5,4.4c2.1,0.7,3.5,2.8,3.5,5.1c0,4-3.3,6.4-7.2,6.4
		c-2.8,0-5.6-1.3-6.9-4l3.1-1.5c0.7,1.5,2.1,2.3,3.7,2.3c1.8,0,3.4-1,3.4-3s-1.7-3.2-4-3.2c-0.5,0-1.2,0-2,0.2V108.2z"/>
</g>
</svg>
