<?xml version="1.0" encoding="utf-8"?>
<!-- Generator: Adobe Illustrator 25.2.1, SVG Export Plug-In . SVG Version: 6.00 Build 0)  -->
<svg version="1.1" id="Layer_1" xmlns="http://www.w3.org/2000/svg" xmlns:xlink="http://www.w3.org/1999/xlink" x="0px" y="0px"
	 viewBox="0 0 516.1 135.1" style="enable-background:new 0 0 516.1 135.1;" xml:space="preserve">
<style type="text/css">
	.st0{fill:#16701E;}
	.st1{fill:#165726;}
	.st2{enable-background:new    ;}
	.st3{fill:#FFFFFF;}
</style>
<g>
	<g>
		<rect x="188.1" class="st0" width="156.6" height="20.4"/>
	</g>
	<g>
		<rect x="187.4" y="81.8" class="st0" width="283.1" height="20.4"/>
	</g>
	<g>
		<rect x="188.1" y="27.7" class="st1" width="328" height="20.4"/>
	</g>
	<g>
		<rect x="187.4" y="109.6" class="st1" width="304.6" height="20.4"/>
	</g>
	<g class="st2">
		<path class="st3" d="M216.1,6.5h-2.9c0,0.6-0.1,1.3-0.1,1.9c0.3-0.1,0.7-0.2,1-0.2c1.3,0,2.4,1.1,2.4,2.4c0,1.6-1.2,2.7-2.7,2.7
			c-1.1,0-2.1-0.5-2.6-1.5l1.2-0.6c0.3,0.6,0.8,0.9,1.3,0.9c0.8,0,1.3-0.6,1.3-1.4c0-0.8-0.6-1.3-1.3-1.3c-0.4,0-0.8,0.1-1.1,0.5
			l-1-0.6c0.1-1.2,0.2-2.9,0.3-4h4.3V6.5z"/>
		<path class="st3" d="M218.6,13.2V6.9c-0.4,0.2-0.8,0.4-1.2,0.5V6.1c0.5-0.3,1.1-0.6,1.7-0.9h1v8H218.6z"/>
		<path class="st3" d="M227,13.2h-5.2V12c0.9-1,2-2.2,2.7-3.3c0.3-0.4,0.6-1,0.6-1.5c0-0.6-0.5-0.9-1.1-0.9c-0.6,0-1,0.5-1.1,1.2
			l-1.5-0.3c0.1-1.3,1.3-2.2,2.6-2.2c1.3,0,2.5,0.8,2.5,2.2c0,0.8-0.4,1.6-0.8,2.2c-0.6,0.9-1.4,1.7-2.1,2.5h3.3V13.2z"/>
		<path class="st3" d="M228.8,14.7h-1.4l0.6-3.2h1.6L228.8,14.7z"/>
	</g>
	<g class="st2">
		<path class="st3" d="M235.4,5.9c-1.4,0.6-2.5,1.4-2.9,2.7c0.4-0.4,0.9-0.6,1.5-0.6c1.4,0,2.4,1.1,2.4,2.5c0,1.5-1.1,2.7-2.7,2.7
			c-1.9,0-3-1.5-3-3.2c0-2.6,1.9-4.5,4.1-5.4L235.4,5.9z M233.7,12.1c0.8,0,1.3-0.6,1.3-1.4c0-0.8-0.5-1.4-1.3-1.4
			c-0.6,0-1.2,0.3-1.5,0.8C232.2,11.1,232.6,12.1,233.7,12.1z"/>
	</g>
	<g class="st2">
		<path class="st3" d="M243.1,11c0,1.3-1.1,2.4-2.8,2.4c-1.6,0-2.8-1-2.8-2.4c0-0.9,0.5-1.5,1.2-2c-0.6-0.4-1-0.9-1-1.7
			c0-1.2,1-2.2,2.5-2.2c1.5,0,2.5,1,2.5,2.2c0,0.8-0.3,1.3-1,1.7C242.7,9.4,243.1,10,243.1,11z M239.1,10.9c0,0.7,0.6,1.2,1.3,1.2
			c0.7,0,1.3-0.5,1.3-1.2c0-0.7-0.6-1.2-1.3-1.2C239.6,9.7,239.1,10.2,239.1,10.9z M239.3,7.4c0,0.6,0.5,1.1,1.1,1.1
			c0.6,0,1.1-0.5,1.1-1.1c0-0.6-0.5-1-1.1-1C239.7,6.3,239.3,6.7,239.3,7.4z"/>
	</g>
	<g class="st2">
		<path class="st3" d="M245.4,13.2V6.9c-0.4,0.2-0.8,0.4-1.2,0.5V6.1c0.5-0.3,1.1-0.6,1.7-0.9h1v8H245.4z"/>
	</g>
	<g class="st2">
		<path class="st3" d="M254.5,6.1v7.1h-1.5V6.1h-2V4.8h5.6v1.3H254.5z"/>
	</g>
	<g class="st2">
		<path class="st3" d="M262.9,10.1c0,1.8-1.4,3.2-3.2,3.2c-1.8,0-3.2-1.4-3.2-3.2c0-1.8,1.4-3.2,3.2-3.2
			C261.5,6.9,262.9,8.3,262.9,10.1z M259.7,8.1c-1,0-1.7,0.9-1.7,2c0,1.1,0.7,2,1.7,2c1,0,1.7-0.9,1.7-2
			C261.4,9,260.7,8.1,259.7,8.1z"/>
		<path class="st3" d="M265.6,7l0.1,0.9c0.5-0.7,1.2-1.1,2-1.1c0.7,0,1.3,0.3,1.7,0.8c0.5,0.6,0.6,1.4,0.6,2.3v3.2h-1.5v-3.1
			c0-0.5,0-1.1-0.2-1.5c-0.2-0.3-0.5-0.5-0.9-0.5c-0.6,0-1.2,0.4-1.5,0.9v4.1h-1.5V7H265.6z"/>
		<path class="st3" d="M272.9,7l0.1,0.9c0.5-0.7,1.2-1.1,2-1.1c0.7,0,1.3,0.3,1.7,0.8c0.5,0.6,0.6,1.4,0.6,2.3v3.2h-1.5v-3.1
			c0-0.5,0-1.1-0.2-1.5c-0.2-0.3-0.5-0.5-0.9-0.5c-0.6,0-1.2,0.4-1.5,0.9v4.1h-1.5V7H272.9z"/>
		<path class="st3" d="M280,10.5c0.1,0.9,0.7,1.7,1.7,1.7c0.8,0,1.3-0.3,1.7-1l1,0.7c-0.7,1-1.5,1.5-2.8,1.5c-1.9,0-3.1-1.4-3.1-3.2
			c0-1.9,1.4-3.3,3.1-3.3c1.7,0,2.9,1.2,2.9,2.9c0,0.2,0,0.5-0.1,0.7H280z M281.6,8c-0.9,0-1.4,0.6-1.6,1.4h3
			C283,8.6,282.4,8,281.6,8z"/>
		<path class="st3" d="M289.1,8.5c-0.3-0.3-0.8-0.5-1.2-0.5c-0.4,0-0.7,0.2-0.7,0.6c0,0.4,0.5,0.6,1.1,0.9c0.8,0.3,1.8,0.7,1.8,1.9
			c0,1.4-1.1,2-2.3,2c-0.9,0-1.7-0.4-2.3-1l0.9-0.8c0.4,0.4,0.9,0.7,1.4,0.7c0.4,0,0.9-0.2,0.9-0.7c0-0.4-0.6-0.7-1.2-0.9
			c-0.7-0.3-1.7-0.7-1.7-1.8c0-1.3,1-1.9,2.1-1.9c0.8,0,1.5,0.3,2,0.8L289.1,8.5z"/>
	</g>
	<g class="st2">
		<path class="st3" d="M298.7,12c0.6,0,1.3-0.2,1.8-0.6l0.8,1.1c-0.8,0.6-1.7,0.9-2.7,0.9c-2.5,0-4.5-1.7-4.5-4.3
			c0-2.5,2-4.3,4.5-4.3c0.9,0,1.7,0.3,2.4,0.7l-0.7,1.2c-0.5-0.4-1.1-0.6-1.7-0.6c-1.7,0-2.9,1.3-2.9,3
			C295.8,10.8,296.9,12,298.7,12z"/>
	</g>
	<g class="st2">
		<path class="st3" d="M306.1,13.3c-2.5,0-4.4-1.9-4.4-4.3c0-2.4,1.9-4.3,4.4-4.3c2.5,0,4.4,1.9,4.4,4.3
			C310.5,11.4,308.6,13.3,306.1,13.3z M306.1,6c-1.6,0-2.8,1.3-2.8,3s1.2,3,2.8,3c1.6,0,2.8-1.3,2.8-3S307.7,6,306.1,6z"/>
	</g>
	<g class="st2">
		<path class="st3" d="M314.7,8.6c0,0.1,0,0.2,0,0.3S314.6,9,314.6,9h-2.8c0,0-0.1,0-0.1,0s-0.1,0-0.1,0s0-0.1,0-0.1s0-0.1,0-0.2
			c0-0.1,0-0.1,0-0.2s0-0.1,0-0.1s0-0.1,0.1-0.1s0.1-0.1,0.1-0.1l0.9-0.9c0.2-0.2,0.4-0.4,0.5-0.5s0.2-0.3,0.3-0.4s0.1-0.2,0.1-0.3
			s0-0.2,0-0.3c0-0.2-0.1-0.3-0.2-0.5s-0.3-0.2-0.5-0.2c-0.1,0-0.3,0-0.4,0.1s-0.2,0.1-0.3,0.1s-0.2,0.1-0.2,0.1s-0.1,0.1-0.1,0.1
			c0,0,0,0,0,0s0,0,0-0.1s0-0.1,0-0.1s0-0.1,0-0.2c0-0.1,0-0.2,0-0.2s0-0.1,0.1-0.1s0.1-0.1,0.2-0.1s0.2-0.1,0.3-0.1
			s0.2-0.1,0.4-0.1s0.3,0,0.4,0c0.2,0,0.5,0,0.6,0.1s0.3,0.1,0.5,0.3s0.2,0.2,0.3,0.4s0.1,0.3,0.1,0.5c0,0.1,0,0.3,0,0.4
			s-0.1,0.3-0.2,0.5s-0.2,0.4-0.4,0.6s-0.4,0.4-0.7,0.7l-0.6,0.6h2c0,0,0.1,0,0.1,0.1S314.7,8.5,314.7,8.6z"/>
	</g>
	<g class="st2">
		<path class="st3" d="M317.1,10.5c0.1,0.9,0.7,1.7,1.7,1.7c0.8,0,1.3-0.3,1.7-1l1,0.7c-0.7,1-1.5,1.5-2.8,1.5
			c-1.9,0-3.1-1.4-3.1-3.2c0-1.9,1.4-3.3,3.1-3.3c1.7,0,2.9,1.2,2.9,2.9c0,0.2,0,0.5-0.1,0.7H317.1z M318.8,8
			c-0.9,0-1.4,0.6-1.6,1.4h3C320.1,8.6,319.5,8,318.8,8z"/>
	</g>
	<g class="st2">
		<path class="st3" d="M277.4,90.3c0.4,0,0.8,0,1-0.1c0.6-0.1,0.9-0.5,0.9-1.1c0-0.6-0.4-1-1.1-1c-0.5,0-1,0.3-1.1,0.8l-1.2-0.5
			c0.3-1,1.3-1.6,2.4-1.6c1.4,0,2.6,0.8,2.6,2.1c0,0.7-0.4,1.4-1,1.7c0.8,0.3,1.4,1.1,1.4,2c0,1.5-1.3,2.5-2.8,2.5
			c-1.1,0-2.2-0.5-2.7-1.5L277,93c0.3,0.6,0.8,0.9,1.4,0.9c0.7,0,1.3-0.4,1.3-1.2s-0.7-1.2-1.5-1.2c-0.2,0-0.5,0-0.8,0.1V90.3z"/>
		<path class="st3" d="M283.2,96.6h-1.4l0.6-3.2h1.6L283.2,96.6z"/>
	</g>
	<g class="st2">
		<path class="st3" d="M289.8,87.8c-1.4,0.6-2.5,1.4-2.9,2.7c0.4-0.4,0.9-0.6,1.5-0.6c1.4,0,2.4,1.1,2.4,2.5c0,1.5-1.1,2.7-2.7,2.7
			c-1.9,0-3-1.5-3-3.2c0-2.6,1.9-4.5,4.1-5.4L289.8,87.8z M288.1,93.9c0.8,0,1.3-0.6,1.3-1.4c0-0.8-0.5-1.4-1.3-1.4
			c-0.6,0-1.2,0.3-1.5,0.8C286.6,93,287,93.9,288.1,93.9z"/>
	</g>
	<g class="st2">
		<path class="st3" d="M296.5,87.8c-1.4,0.6-2.5,1.4-2.9,2.7c0.4-0.4,0.9-0.6,1.5-0.6c1.4,0,2.4,1.1,2.4,2.5c0,1.5-1.1,2.7-2.7,2.7
			c-1.9,0-3-1.5-3-3.2c0-2.6,1.9-4.5,4.1-5.4L296.5,87.8z M294.8,93.9c0.8,0,1.3-0.6,1.3-1.4c0-0.8-0.5-1.4-1.3-1.4
			c-0.6,0-1.2,0.3-1.5,0.8C293.3,93,293.7,93.9,294.8,93.9z"/>
		<path class="st3" d="M303.9,95h-5.2v-1.2c0.9-1,2-2.2,2.7-3.3c0.3-0.4,0.6-1,0.6-1.5c0-0.6-0.5-0.9-1.1-0.9c-0.6,0-1,0.5-1.1,1.2
			l-1.5-0.3c0.1-1.3,1.3-2.2,2.6-2.2c1.3,0,2.5,0.8,2.5,2.2c0,0.8-0.4,1.6-0.8,2.2c-0.6,0.9-1.4,1.7-2.1,2.5h3.3V95z"/>
	</g>
	<g class="st2">
		<path class="st3" d="M310.9,87.9V95h-1.5v-7.1h-2v-1.3h5.6v1.3H310.9z"/>
	</g>
	<g class="st2">
		<path class="st3" d="M319.2,91.9c0,1.8-1.4,3.2-3.2,3.2c-1.8,0-3.2-1.4-3.2-3.2c0-1.8,1.4-3.2,3.2-3.2
			C317.8,88.7,319.2,90.1,319.2,91.9z M316,90c-1,0-1.7,0.9-1.7,2c0,1.1,0.7,2,1.7,2c1,0,1.7-0.9,1.7-2C317.7,90.9,317,90,316,90z"
			/>
		<path class="st3" d="M321.9,88.9l0.1,0.9c0.5-0.7,1.2-1.1,2-1.1c0.7,0,1.3,0.3,1.7,0.8c0.5,0.6,0.6,1.4,0.6,2.3V95h-1.5v-3.1
			c0-0.5,0-1.1-0.2-1.5c-0.2-0.3-0.5-0.5-0.9-0.5c-0.6,0-1.2,0.4-1.5,0.9V95h-1.5v-6.2H321.9z"/>
		<path class="st3" d="M329.2,88.9l0.1,0.9c0.5-0.7,1.2-1.1,2-1.1c0.7,0,1.3,0.3,1.7,0.8c0.5,0.6,0.6,1.4,0.6,2.3V95h-1.5v-3.1
			c0-0.5,0-1.1-0.2-1.5c-0.2-0.3-0.5-0.5-0.9-0.5c-0.6,0-1.2,0.4-1.5,0.9V95h-1.5v-6.2H329.2z"/>
		<path class="st3" d="M336.3,92.3c0.1,0.9,0.7,1.7,1.7,1.7c0.8,0,1.3-0.3,1.7-1l1,0.7c-0.7,1-1.5,1.5-2.8,1.5
			c-1.9,0-3.1-1.4-3.1-3.2c0-1.9,1.4-3.3,3.1-3.3c1.7,0,2.9,1.2,2.9,2.9c0,0.2,0,0.5-0.1,0.7H336.3z M337.9,89.9
			c-0.9,0-1.4,0.6-1.6,1.4h3C339.3,90.5,338.7,89.9,337.9,89.9z"/>
		<path class="st3" d="M345.4,90.4c-0.3-0.3-0.8-0.5-1.2-0.5c-0.4,0-0.7,0.2-0.7,0.6c0,0.4,0.5,0.6,1.1,0.9c0.8,0.3,1.8,0.7,1.8,1.9
			c0,1.4-1.1,2-2.3,2c-0.9,0-1.7-0.4-2.3-1l0.9-0.8c0.4,0.4,0.9,0.7,1.4,0.7c0.4,0,0.9-0.2,0.9-0.7c0-0.4-0.6-0.7-1.2-0.9
			c-0.7-0.3-1.7-0.7-1.7-1.8c0-1.3,1-1.9,2.1-1.9c0.8,0,1.5,0.3,2,0.8L345.4,90.4z"/>
	</g>
	<g class="st2">
		<path class="st3" d="M355,93.9c0.6,0,1.3-0.2,1.8-0.6l0.8,1.1c-0.8,0.6-1.7,0.9-2.7,0.9c-2.5,0-4.4-1.7-4.4-4.3
			c0-2.5,2-4.3,4.5-4.3c0.9,0,1.7,0.3,2.4,0.7l-0.7,1.2c-0.5-0.4-1.1-0.6-1.7-0.6c-1.7,0-2.9,1.3-2.9,3
			C352.1,92.7,353.3,93.9,355,93.9z"/>
	</g>
	<g class="st2">
		<path class="st3" d="M362.4,95.2c-2.5,0-4.4-1.9-4.4-4.3c0-2.4,1.9-4.3,4.4-4.3c2.5,0,4.4,1.9,4.4,4.3
			C366.8,93.2,364.9,95.2,362.4,95.2z M362.4,87.8c-1.6,0-2.8,1.3-2.8,3s1.2,3,2.8,3c1.6,0,2.8-1.3,2.8-3S364,87.8,362.4,87.8z"/>
	</g>
	<g class="st2">
		<path class="st3" d="M371,90.5c0,0.1,0,0.2,0,0.3s-0.1,0.1-0.1,0.1h-2.8c0,0-0.1,0-0.1,0s-0.1,0-0.1,0s0-0.1,0-0.1s0-0.1,0-0.2
			c0-0.1,0-0.1,0-0.2s0-0.1,0-0.1s0-0.1,0.1-0.1s0.1-0.1,0.1-0.1l0.9-0.9c0.2-0.2,0.4-0.4,0.5-0.5s0.2-0.3,0.3-0.4s0.1-0.2,0.1-0.3
			s0-0.2,0-0.3c0-0.2-0.1-0.3-0.2-0.5s-0.3-0.2-0.5-0.2c-0.1,0-0.3,0-0.4,0.1s-0.2,0.1-0.3,0.1s-0.2,0.1-0.2,0.1s-0.1,0.1-0.1,0.1
			c0,0,0,0,0,0s0,0,0-0.1s0-0.1,0-0.1s0-0.1,0-0.2c0-0.1,0-0.2,0-0.2s0-0.1,0.1-0.1s0.1-0.1,0.2-0.1s0.2-0.1,0.3-0.1
			s0.2-0.1,0.4-0.1s0.3,0,0.4,0c0.2,0,0.5,0,0.6,0.1s0.3,0.1,0.5,0.3s0.2,0.2,0.3,0.4s0.1,0.3,0.1,0.5c0,0.1,0,0.3,0,0.4
			s-0.1,0.3-0.2,0.5s-0.2,0.4-0.4,0.6s-0.4,0.4-0.7,0.7l-0.6,0.6h2c0,0,0.1,0,0.1,0.1S371,90.4,371,90.5z"/>
	</g>
	<g class="st2">
		<path class="st3" d="M373.4,92.3c0.1,0.9,0.7,1.7,1.7,1.7c0.8,0,1.3-0.3,1.7-1l1,0.7c-0.7,1-1.5,1.5-2.8,1.5
			c-1.9,0-3.1-1.4-3.1-3.2c0-1.9,1.4-3.3,3.1-3.3c1.7,0,2.9,1.2,2.9,2.9c0,0.2,0,0.5-0.1,0.7H373.4z M375.1,89.9
			c-0.9,0-1.4,0.6-1.6,1.4h3C376.4,90.5,375.8,89.9,375.1,89.9z"/>
	</g>
	<g class="st2">
		<path class="st3" d="M289.4,40.9v-6.3c-0.4,0.2-0.8,0.4-1.2,0.5v-1.3c0.5-0.3,1.1-0.6,1.7-0.9h1v8H289.4z"/>
	</g>
	<g class="st2">
		<path class="st3" d="M297.1,33.6c-1.4,0.6-2.5,1.4-2.9,2.7c0.4-0.4,0.9-0.6,1.5-0.6c1.4,0,2.4,1.1,2.4,2.5c0,1.5-1.1,2.7-2.7,2.7
			c-1.9,0-3-1.5-3-3.2c0-2.6,1.9-4.5,4.1-5.4L297.1,33.6z M295.4,39.8c0.8,0,1.3-0.6,1.3-1.4c0-0.8-0.5-1.4-1.3-1.4
			c-0.6,0-1.2,0.3-1.5,0.8C293.9,38.9,294.3,39.8,295.4,39.8z"/>
	</g>
	<g class="st2">
		<path class="st3" d="M302.4,40.9v-2h-3.5v-1.4c1-1.3,2.4-3.2,3.4-4.7h1.5v4.8h1.2v1.2h-1.2v2H302.4z M302.4,37.7v-2.8
			c-0.6,0.9-1.5,2.2-1.9,2.8H302.4z"/>
		<path class="st3" d="M306.7,42.5h-1.4l0.6-3.2h1.6L306.7,42.5z"/>
		<path class="st3" d="M313.3,33.6c-1.4,0.6-2.5,1.4-2.9,2.7c0.4-0.4,0.9-0.6,1.5-0.6c1.4,0,2.4,1.1,2.4,2.5c0,1.5-1.1,2.7-2.7,2.7
			c-1.9,0-3-1.5-3-3.2c0-2.6,1.9-4.5,4.1-5.4L313.3,33.6z M311.6,39.8c0.8,0,1.3-0.6,1.3-1.4c0-0.8-0.5-1.4-1.3-1.4
			c-0.6,0-1.2,0.3-1.5,0.8C310.1,38.9,310.5,39.8,311.6,39.8z"/>
	</g>
	<g class="st2">
		<path class="st3" d="M320.7,40.9h-5.2v-1.2c0.9-1,2-2.2,2.7-3.3c0.3-0.4,0.6-1,0.6-1.5c0-0.6-0.5-0.9-1.1-0.9
			c-0.6,0-1,0.5-1.1,1.2l-1.5-0.3c0.1-1.3,1.3-2.2,2.6-2.2c1.3,0,2.5,0.8,2.5,2.2c0,0.8-0.4,1.6-0.8,2.2c-0.6,0.9-1.4,1.7-2.1,2.5
			h3.3V40.9z"/>
	</g>
	<g class="st2">
		<path class="st3" d="M326.5,33.9c-1,2.1-2.4,5.3-3.3,7.3l-1.3-0.6c1.1-2.5,2.4-5,3-6.4h-3.6v-1.3h5.3V33.9z"/>
	</g>
	<g class="st2">
		<path class="st3" d="M326.4,40.9v-1.6h1.6v1.6H326.4z"/>
	</g>
	<g class="st2">
		<path class="st3" d="M334.8,40.9h-5.2v-1.2c0.9-1,2-2.2,2.7-3.3c0.3-0.4,0.6-1,0.6-1.5c0-0.6-0.5-0.9-1.1-0.9
			c-0.6,0-1,0.5-1.1,1.2l-1.5-0.3c0.1-1.3,1.3-2.2,2.6-2.2c1.3,0,2.5,0.8,2.5,2.2c0,0.8-0.4,1.6-0.8,2.2c-0.6,0.9-1.4,1.7-2.1,2.5
			h3.3V40.9z"/>
	</g>
	<g class="st2">
		<path class="st3" d="M341.4,36.9c0,2.6-1,4.1-2.9,4.1c-1.9,0-2.9-1.6-2.9-4.1c0-2.6,1-4.1,2.9-4.1
			C340.4,32.8,341.4,34.4,341.4,36.9z M337.1,36.9c0,1.9,0.5,2.9,1.4,2.9c0.9,0,1.4-0.9,1.4-2.9c0-1.9-0.5-2.9-1.4-2.9
			C337.6,34.1,337.1,35,337.1,36.9z"/>
	</g>
	<g class="st2">
		<path class="st3" d="M348.6,33.8v7.1h-1.5v-7.1h-2v-1.3h5.6v1.3H348.6z"/>
	</g>
	<g class="st2">
		<path class="st3" d="M356.9,37.8c0,1.8-1.4,3.2-3.2,3.2c-1.8,0-3.2-1.4-3.2-3.2c0-1.8,1.4-3.2,3.2-3.2
			C355.5,34.6,356.9,36,356.9,37.8z M353.7,35.9c-1,0-1.7,0.9-1.7,2c0,1.1,0.7,2,1.7,2c1,0,1.7-0.9,1.7-2
			C355.4,36.7,354.7,35.9,353.7,35.9z"/>
		<path class="st3" d="M359.6,34.7l0.1,0.9c0.5-0.7,1.2-1.1,2-1.1c0.7,0,1.3,0.3,1.7,0.8c0.5,0.6,0.6,1.4,0.6,2.3v3.2h-1.5v-3.1
			c0-0.5,0-1.1-0.2-1.5c-0.2-0.3-0.5-0.5-0.9-0.5c-0.6,0-1.2,0.4-1.5,0.9v4.1h-1.5v-6.2H359.6z"/>
		<path class="st3" d="M366.9,34.7l0.1,0.9c0.5-0.7,1.2-1.1,2-1.1c0.7,0,1.3,0.3,1.7,0.8c0.5,0.6,0.6,1.4,0.6,2.3v3.2h-1.5v-3.1
			c0-0.5,0-1.1-0.2-1.5c-0.2-0.3-0.5-0.5-0.9-0.5c-0.6,0-1.2,0.4-1.5,0.9v4.1h-1.5v-6.2H366.9z"/>
		<path class="st3" d="M374,38.2c0.1,0.9,0.7,1.7,1.7,1.7c0.8,0,1.3-0.3,1.7-1l1,0.7c-0.7,1-1.5,1.5-2.8,1.5c-1.9,0-3.1-1.4-3.1-3.2
			c0-1.9,1.4-3.3,3.1-3.3c1.7,0,2.9,1.2,2.9,2.9c0,0.2,0,0.5-0.1,0.7H374z M375.6,35.8c-0.9,0-1.4,0.6-1.6,1.4h3
			C377,36.3,376.4,35.8,375.6,35.8z"/>
		<path class="st3" d="M383.1,36.2c-0.3-0.3-0.8-0.5-1.2-0.5c-0.4,0-0.7,0.2-0.7,0.6c0,0.4,0.5,0.6,1.1,0.9c0.8,0.3,1.8,0.7,1.8,1.9
			c0,1.4-1.1,2-2.3,2c-0.9,0-1.7-0.4-2.3-1l0.9-0.8c0.4,0.4,0.9,0.7,1.4,0.7c0.4,0,0.9-0.2,0.9-0.7c0-0.4-0.6-0.7-1.2-0.9
			c-0.7-0.3-1.7-0.7-1.7-1.8c0-1.3,1-1.9,2.1-1.9c0.8,0,1.5,0.3,2,0.8L383.1,36.2z"/>
	</g>
	<g class="st2">
		<path class="st3" d="M392.7,39.7c0.6,0,1.3-0.2,1.8-0.6l0.8,1.1c-0.8,0.6-1.7,0.9-2.7,0.9c-2.5,0-4.4-1.7-4.4-4.3
			c0-2.5,2-4.3,4.5-4.3c0.9,0,1.7,0.3,2.4,0.7l-0.7,1.2c-0.5-0.4-1.1-0.6-1.7-0.6c-1.7,0-2.9,1.3-2.9,3
			C389.8,38.5,391,39.7,392.7,39.7z"/>
	</g>
	<g class="st2">
		<path class="st3" d="M400.1,41.1c-2.5,0-4.4-1.9-4.4-4.3c0-2.4,1.9-4.3,4.4-4.3c2.5,0,4.4,1.9,4.4,4.3
			C404.5,39.1,402.6,41.1,400.1,41.1z M400.1,33.7c-1.6,0-2.8,1.3-2.8,3s1.2,3,2.8,3c1.6,0,2.8-1.3,2.8-3S401.7,33.7,400.1,33.7z"/>
	</g>
	<g class="st2">
		<path class="st3" d="M408.8,36.3c0,0.1,0,0.2,0,0.3s-0.1,0.1-0.1,0.1h-2.8c0,0-0.1,0-0.1,0s-0.1,0-0.1,0s0-0.1,0-0.1s0-0.1,0-0.2
			c0-0.1,0-0.1,0-0.2s0-0.1,0-0.1s0-0.1,0.1-0.1s0.1-0.1,0.1-0.1l0.9-0.9c0.2-0.2,0.4-0.4,0.5-0.5s0.2-0.3,0.3-0.4s0.1-0.2,0.1-0.3
			s0-0.2,0-0.3c0-0.2-0.1-0.3-0.2-0.5s-0.3-0.2-0.5-0.2c-0.1,0-0.3,0-0.4,0.1s-0.2,0.1-0.3,0.1s-0.2,0.1-0.2,0.1s-0.1,0.1-0.1,0.1
			c0,0,0,0,0,0s0,0,0-0.1s0-0.1,0-0.1s0-0.1,0-0.2c0-0.1,0-0.2,0-0.2s0-0.1,0.1-0.1s0.1-0.1,0.2-0.1s0.2-0.1,0.3-0.1
			s0.2-0.1,0.4-0.1s0.3,0,0.4,0c0.2,0,0.5,0,0.6,0.1s0.3,0.1,0.5,0.3s0.2,0.2,0.3,0.4s0.1,0.3,0.1,0.5c0,0.1,0,0.3,0,0.4
			s-0.1,0.3-0.2,0.5s-0.2,0.4-0.4,0.6s-0.4,0.4-0.7,0.7l-0.6,0.6h2c0,0,0.1,0,0.1,0.1S408.8,36.2,408.8,36.3z"/>
	</g>
	<g class="st2">
		<path class="st3" d="M411.1,38.2c0.1,0.9,0.7,1.7,1.7,1.7c0.8,0,1.3-0.3,1.7-1l1,0.7c-0.7,1-1.5,1.5-2.8,1.5
			c-1.9,0-3.1-1.4-3.1-3.2c0-1.9,1.4-3.3,3.1-3.3c1.7,0,2.9,1.2,2.9,2.9c0,0.2,0,0.5-0.1,0.7H411.1z M412.8,35.8
			c-0.9,0-1.4,0.6-1.6,1.4h3C414.1,36.3,413.6,35.8,412.8,35.8z"/>
	</g>
	<g class="st2">
		<path class="st3" d="M293.5,116h-2.9c0,0.6-0.1,1.3-0.1,1.9c0.3-0.1,0.7-0.2,1-0.2c1.3,0,2.4,1.1,2.4,2.4c0,1.6-1.2,2.7-2.7,2.7
			c-1.1,0-2.1-0.5-2.6-1.5l1.2-0.6c0.3,0.6,0.8,0.9,1.3,0.9c0.8,0,1.3-0.6,1.3-1.4c0-0.8-0.6-1.3-1.3-1.3c-0.4,0-0.8,0.1-1.1,0.5
			l-1-0.6c0.1-1.2,0.2-2.9,0.3-4h4.3V116z"/>
	</g>
	<g class="st2">
		<path class="st3" d="M295.7,124.3h-1.4l0.6-3.2h1.6L295.7,124.3z"/>
	</g>
	<g class="st2">
		<path class="st3" d="M303.3,122.8h-5.2v-1.2c0.9-1,2-2.2,2.7-3.3c0.3-0.4,0.6-1,0.6-1.5c0-0.6-0.5-0.9-1.1-0.9
			c-0.6,0-1,0.5-1.1,1.2l-1.5-0.3c0.1-1.3,1.3-2.2,2.6-2.2c1.3,0,2.5,0.8,2.5,2.2c0,0.8-0.4,1.6-0.8,2.2c-0.6,0.9-1.4,1.7-2.1,2.5
			h3.3V122.8z"/>
		<path class="st3" d="M309.8,120.5c0,1.3-1.1,2.4-2.8,2.4c-1.6,0-2.8-1-2.8-2.4c0-0.9,0.5-1.5,1.2-2c-0.6-0.4-1-0.9-1-1.7
			c0-1.2,1-2.2,2.5-2.2c1.5,0,2.5,1,2.5,2.2c0,0.8-0.3,1.3-1,1.7C309.3,119,309.8,119.6,309.8,120.5z M305.7,120.4
			c0,0.7,0.6,1.2,1.3,1.2c0.7,0,1.3-0.5,1.3-1.2c0-0.7-0.6-1.2-1.3-1.2C306.2,119.2,305.7,119.8,305.7,120.4z M305.9,116.9
			c0,0.6,0.5,1.1,1.1,1.1c0.6,0,1.1-0.5,1.1-1.1c0-0.6-0.5-1-1.1-1C306.3,115.9,305.9,116.3,305.9,116.9z"/>
		<path class="st3" d="M315.7,116h-2.9c0,0.6-0.1,1.3-0.1,1.9c0.3-0.1,0.7-0.2,1-0.2c1.3,0,2.4,1.1,2.4,2.4c0,1.6-1.2,2.7-2.7,2.7
			c-1.1,0-2.1-0.5-2.6-1.5l1.2-0.6c0.3,0.6,0.8,0.9,1.3,0.9c0.8,0,1.3-0.6,1.3-1.4c0-0.8-0.6-1.3-1.3-1.3c-0.4,0-0.8,0.1-1.1,0.5
			l-1-0.6c0.1-1.2,0.2-2.9,0.3-4h4.3V116z"/>
	</g>
	<g class="st2">
		<path class="st3" d="M323.1,115.6v7.1h-1.5v-7.1h-2v-1.3h5.6v1.3H323.1z"/>
	</g>
	<g class="st2">
		<path class="st3" d="M331.5,119.7c0,1.8-1.4,3.2-3.2,3.2c-1.8,0-3.2-1.4-3.2-3.2c0-1.8,1.4-3.2,3.2-3.2
			C330.1,116.4,331.5,117.9,331.5,119.7z M328.3,117.7c-1,0-1.7,0.9-1.7,2c0,1.1,0.7,2,1.7,2c1,0,1.7-0.9,1.7-2
			C330,118.6,329.3,117.7,328.3,117.7z"/>
		<path class="st3" d="M334.1,116.6l0.1,0.9c0.5-0.7,1.2-1.1,2-1.1c0.7,0,1.3,0.3,1.7,0.8c0.5,0.6,0.6,1.4,0.6,2.3v3.2H337v-3.1
			c0-0.5,0-1.1-0.2-1.5c-0.2-0.3-0.5-0.5-0.9-0.5c-0.6,0-1.2,0.4-1.5,0.9v4.1h-1.5v-6.2H334.1z"/>
		<path class="st3" d="M341.5,116.6l0.1,0.9c0.5-0.7,1.2-1.1,2-1.1c0.7,0,1.3,0.3,1.7,0.8c0.5,0.6,0.6,1.4,0.6,2.3v3.2h-1.5v-3.1
			c0-0.5,0-1.1-0.2-1.5c-0.2-0.3-0.5-0.5-0.9-0.5c-0.6,0-1.2,0.4-1.5,0.9v4.1h-1.5v-6.2H341.5z"/>
		<path class="st3" d="M348.5,120c0.1,0.9,0.7,1.7,1.7,1.7c0.8,0,1.3-0.3,1.7-1l1,0.7c-0.7,1-1.5,1.5-2.8,1.5
			c-1.9,0-3.1-1.4-3.1-3.2c0-1.9,1.4-3.3,3.1-3.3c1.7,0,2.9,1.2,2.9,2.9c0,0.2,0,0.5-0.1,0.7H348.5z M350.2,117.6
			c-0.9,0-1.4,0.6-1.6,1.4h3C351.6,118.2,351,117.6,350.2,117.6z"/>
		<path class="st3" d="M357.7,118.1c-0.3-0.3-0.8-0.5-1.2-0.5c-0.4,0-0.7,0.2-0.7,0.6c0,0.4,0.5,0.6,1.1,0.9
			c0.8,0.3,1.8,0.7,1.8,1.9c0,1.4-1.1,2-2.3,2c-0.9,0-1.7-0.4-2.3-1l0.9-0.8c0.4,0.4,0.9,0.7,1.4,0.7c0.4,0,0.9-0.2,0.9-0.7
			c0-0.4-0.6-0.7-1.2-0.9c-0.7-0.3-1.7-0.7-1.7-1.8c0-1.3,1-1.9,2.1-1.9c0.8,0,1.5,0.3,2,0.8L357.7,118.1z"/>
	</g>
	<g class="st2">
		<path class="st3" d="M367.3,121.6c0.6,0,1.3-0.2,1.8-0.6l0.8,1.1c-0.8,0.6-1.7,0.9-2.7,0.9c-2.5,0-4.4-1.7-4.4-4.3
			c0-2.5,2-4.3,4.5-4.3c0.9,0,1.7,0.3,2.4,0.7l-0.7,1.2c-0.5-0.4-1.1-0.6-1.7-0.6c-1.7,0-2.9,1.3-2.9,3
			C364.4,120.4,365.5,121.6,367.3,121.6z"/>
	</g>
	<g class="st2">
		<path class="st3" d="M374.7,122.9c-2.5,0-4.4-1.9-4.4-4.3c0-2.4,1.9-4.3,4.4-4.3c2.5,0,4.4,1.9,4.4,4.3
			C379.1,121,377.2,122.9,374.7,122.9z M374.7,115.5c-1.6,0-2.8,1.3-2.8,3s1.2,3,2.8,3c1.6,0,2.8-1.3,2.8-3S376.3,115.5,374.7,115.5
			z"/>
	</g>
	<g class="st2">
		<path class="st3" d="M383.3,118.2c0,0.1,0,0.2,0,0.3s-0.1,0.1-0.1,0.1h-2.8c0,0-0.1,0-0.1,0s-0.1,0-0.1,0s0-0.1,0-0.1s0-0.1,0-0.2
			c0-0.1,0-0.1,0-0.2s0-0.1,0-0.1s0-0.1,0.1-0.1s0.1-0.1,0.1-0.1l0.9-0.9c0.2-0.2,0.4-0.4,0.5-0.5s0.2-0.3,0.3-0.4s0.1-0.2,0.1-0.3
			s0-0.2,0-0.3c0-0.2-0.1-0.3-0.2-0.5s-0.3-0.2-0.5-0.2c-0.1,0-0.3,0-0.4,0.1s-0.2,0.1-0.3,0.1s-0.2,0.1-0.2,0.1s-0.1,0.1-0.1,0.1
			c0,0,0,0,0,0s0,0,0-0.1s0-0.1,0-0.1s0-0.1,0-0.2c0-0.1,0-0.2,0-0.2s0-0.1,0.1-0.1s0.1-0.1,0.2-0.1s0.2-0.1,0.3-0.1
			s0.2-0.1,0.4-0.1s0.3,0,0.4,0c0.2,0,0.5,0,0.6,0.1s0.3,0.1,0.5,0.3s0.2,0.2,0.3,0.4s0.1,0.3,0.1,0.5c0,0.1,0,0.3,0,0.4
			s-0.1,0.3-0.2,0.5s-0.2,0.4-0.4,0.6s-0.4,0.4-0.7,0.7l-0.6,0.6h2c0,0,0.1,0,0.1,0.1S383.3,118.1,383.3,118.2z"/>
	</g>
	<g class="st2">
		<path class="st3" d="M385.7,120c0.1,0.9,0.7,1.7,1.7,1.7c0.8,0,1.3-0.3,1.7-1l1,0.7c-0.7,1-1.5,1.5-2.8,1.5
			c-1.9,0-3.1-1.4-3.1-3.2c0-1.9,1.4-3.3,3.1-3.3c1.7,0,2.9,1.2,2.9,2.9c0,0.2,0,0.5-0.1,0.7H385.7z M387.4,117.6
			c-0.9,0-1.4,0.6-1.6,1.4h3C388.7,118.2,388.1,117.6,387.4,117.6z"/>
	</g>
	<g class="st2">
		<path class="st1" d="M137.8,13.1v-1.6c1.5-1.5,3.2-3.5,4.4-5.2c0.5-0.7,1.2-1.8,1.2-2.7c0-1.1-1-1.7-2.1-1.7c-1,0-2,0.8-2,2
			l-1.8-0.4c0.2-1.9,2.1-3.2,3.8-3.2c2,0,3.8,1.3,3.8,3.3c0,1.2-0.6,2.5-1.3,3.5c-1.1,1.5-2.4,3-3.7,4.4h5.6v1.6H137.8z"/>
	</g>
	<g class="st2">
		<path class="st1" d="M156.2,6.7c0,4-1.6,6.5-4.5,6.5s-4.5-2.5-4.5-6.5c0-4,1.6-6.5,4.5-6.5S156.2,2.7,156.2,6.7z M149.1,6.7
			c0,3.3,1,4.9,2.6,4.9s2.6-1.6,2.6-4.9c0-3.3-1-4.9-2.6-4.9S149.1,3.5,149.1,6.7z"/>
		<path class="st1" d="M159.9,13.1V2.6c-0.6,0.3-1.4,0.6-1.9,0.8V1.8c0.8-0.4,1.7-0.9,2.5-1.3h1.2v12.6H159.9z"/>
		<path class="st1" d="M166,12.2c2.3-1,4.2-2.5,4.9-4.9c-0.8,0.8-1.7,1.2-2.8,1.2c-2.2,0-3.7-1.8-3.7-4.1c0-2.3,1.7-4.1,4-4.1
			c2.9,0,4.6,2.4,4.6,5c0,4-2.8,7.1-6.2,8.5L166,12.2z M171.1,5.2c0-1.7-0.7-3.4-2.7-3.4c-1.4,0-2.3,1.1-2.3,2.6
			c0,1.4,0.9,2.4,2.3,2.4C169.5,6.8,170.6,6.2,171.1,5.2z"/>
	</g>
	<g class="st2">
		<path class="st1" d="M137,94.9v-1.6c1.5-1.5,3.2-3.5,4.4-5.2c0.5-0.7,1.2-1.8,1.2-2.7c0-1.1-1-1.7-2.1-1.7c-1,0-2,0.8-2,2
			l-1.8-0.4c0.2-1.9,2.1-3.2,3.8-3.2c2,0,3.8,1.3,3.8,3.3c0,1.2-0.6,2.5-1.3,3.5c-1.1,1.5-2.4,3-3.7,4.4h5.6v1.6H137z"/>
	</g>
	<g class="st2">
		<path class="st1" d="M155.5,88.6c0,4-1.6,6.5-4.5,6.5s-4.5-2.5-4.5-6.5c0-4,1.6-6.5,4.5-6.5S155.5,84.5,155.5,88.6z M148.3,88.6
			c0,3.3,1,4.9,2.6,4.9s2.6-1.6,2.6-4.9c0-3.3-1-4.9-2.6-4.9S148.3,85.3,148.3,88.6z"/>
		<path class="st1" d="M159.2,94.9V84.5c-0.6,0.3-1.4,0.6-1.9,0.8v-1.7c0.8-0.4,1.7-0.9,2.5-1.3h1.2v12.6H159.2z"/>
		<path class="st1" d="M165.2,94c2.3-1,4.2-2.5,4.9-4.9c-0.8,0.8-1.7,1.2-2.8,1.2c-2.2,0-3.7-1.8-3.7-4.1c0-2.3,1.7-4.1,4-4.1
			c2.9,0,4.6,2.4,4.6,5c0,4-2.8,7.1-6.2,8.5L165.2,94z M170.3,87.1c0-1.7-0.7-3.4-2.7-3.4c-1.4,0-2.3,1.1-2.3,2.6
			c0,1.4,0.9,2.4,2.3,2.4C168.7,88.7,169.8,88.1,170.3,87.1z"/>
	</g>
	<g class="st2">
		<path class="st1" d="M146,40.8h-8.3v-1.8c1.5-1.5,3.2-3.5,4.4-5.1c0.5-0.7,1-1.6,1-2.4c0-0.9-0.8-1.5-1.7-1.5
			c-1,0-1.7,0.7-1.7,1.8l-2.3-0.4c0.2-2.1,2.1-3.4,4-3.4c2,0,4,1.3,4,3.4c0,1.2-0.6,2.5-1.3,3.5c-1,1.4-2.2,2.7-3.3,3.9h5.2V40.8z"
			/>
	</g>
	<g class="st2">
		<path class="st1" d="M156.6,34.5c0,4-1.7,6.5-4.6,6.5c-2.9,0-4.6-2.5-4.6-6.5c0-4.1,1.7-6.6,4.6-6.6
			C155,27.9,156.6,30.4,156.6,34.5z M149.8,34.5c0,3,0.8,4.5,2.2,4.5c1.4,0,2.3-1.5,2.3-4.5c0-3-0.8-4.5-2.3-4.5
			C150.6,29.9,149.8,31.4,149.8,34.5z"/>
	</g>
	<g class="st2">
		<path class="st1" d="M166.6,40.8h-8.3v-1.8c1.5-1.5,3.2-3.5,4.4-5.1c0.5-0.7,1-1.6,1-2.4c0-0.9-0.8-1.5-1.7-1.5
			c-1,0-1.7,0.7-1.7,1.8l-2.3-0.4c0.2-2.1,2.1-3.4,4-3.4c2,0,4,1.3,4,3.4c0,1.2-0.6,2.5-1.3,3.5c-1,1.4-2.2,2.7-3.3,3.9h5.2V40.8z"
			/>
	</g>
	<g class="st2">
		<path class="st1" d="M177.2,34.5c0,4-1.7,6.5-4.6,6.5c-2.9,0-4.6-2.5-4.6-6.5c0-4.1,1.7-6.6,4.6-6.6
			C175.6,27.9,177.2,30.4,177.2,34.5z M170.4,34.5c0,3,0.8,4.5,2.2,4.5c1.4,0,2.3-1.5,2.3-4.5c0-3-0.8-4.5-2.3-4.5
			C171.2,29.9,170.4,31.4,170.4,34.5z"/>
	</g>
	<g class="st2">
		<path class="st1" d="M145.3,122.6H137v-1.8c1.5-1.5,3.2-3.5,4.4-5.1c0.5-0.7,1-1.6,1-2.4c0-0.9-0.8-1.5-1.7-1.5
			c-1,0-1.7,0.7-1.7,1.8l-2.3-0.4c0.2-2.1,2.1-3.4,4-3.4c2,0,4,1.3,4,3.4c0,1.2-0.6,2.5-1.3,3.5c-1,1.4-2.2,2.7-3.3,3.9h5.2V122.6z"
			/>
	</g>
	<g class="st2">
		<path class="st1" d="M155.8,116.3c0,4-1.7,6.5-4.6,6.5c-2.9,0-4.6-2.5-4.6-6.5c0-4.1,1.7-6.6,4.6-6.6
			C154.2,109.8,155.8,112.2,155.8,116.3z M149,116.3c0,3,0.8,4.5,2.2,4.5c1.4,0,2.3-1.5,2.3-4.5c0-3-0.8-4.5-2.3-4.5
			C149.8,111.8,149,113.3,149,116.3z"/>
	</g>
	<g class="st2">
		<path class="st1" d="M165.9,122.6h-8.3v-1.8c1.5-1.5,3.2-3.5,4.4-5.1c0.5-0.7,1-1.6,1-2.4c0-0.9-0.8-1.5-1.7-1.5
			c-1,0-1.7,0.7-1.7,1.8l-2.3-0.4c0.2-2.1,2.1-3.4,4-3.4c2,0,4,1.3,4,3.4c0,1.2-0.6,2.5-1.3,3.5c-1,1.4-2.2,2.7-3.3,3.9h5.2V122.6z"
			/>
	</g>
	<g class="st2">
		<path class="st1" d="M176.5,116.3c0,4-1.7,6.5-4.6,6.5c-2.9,0-4.6-2.5-4.6-6.5c0-4.1,1.7-6.6,4.6-6.6
			C174.8,109.8,176.5,112.2,176.5,116.3z M169.6,116.3c0,3,0.8,4.5,2.2,4.5c1.4,0,2.3-1.5,2.3-4.5c0-3-0.8-4.5-2.3-4.5
			C170.4,111.8,169.6,113.3,169.6,116.3z"/>
	</g>
	<g class="st2">
		<path class="st1" d="M4.5,2.6C3.6,2.6,3,3,3,3.7c0,0.8,1,1.1,1.8,1.4c1.5,0.5,3.2,1.2,3.2,3.2c0,2.2-2,3.1-3.7,3.1
			c-1.5,0-2.7-0.5-3.8-1.6l1.2-1.2c0.9,0.9,1.6,1.2,2.6,1.2C5.1,9.9,6,9.5,6,8.5c0-1-1-1.3-2.1-1.7C2.6,6.2,1.2,5.6,1.2,3.8
			C1.2,1.9,2.7,1,4.4,1c1.3,0,2.3,0.4,3.3,1.1L6.6,3.4C6.1,3,5.2,2.6,4.5,2.6z"/>
		<path class="st1" d="M15.5,10.7c-0.7,0.6-1.5,0.8-2.5,0.8c-2.2,0-3.8-1.6-3.8-3.9c0-2.2,1.6-3.9,3.9-3.9c0.9,0,1.7,0.3,2.4,0.8
			l-0.9,1.3c-0.4-0.4-0.9-0.6-1.5-0.6c-1.2,0-2.1,1.1-2.1,2.4C11,9,12,10,13.1,10c0.5,0,1.1-0.2,1.5-0.6L15.5,10.7z"/>
		<path class="st1" d="M24.2,7.6c0,2.2-1.6,3.9-3.9,3.9s-3.9-1.7-3.9-3.9c0-2.2,1.6-3.9,3.9-3.9S24.2,5.4,24.2,7.6z M20.3,5.2
			c-1.2,0-2.1,1.1-2.1,2.4c0,1.3,0.9,2.4,2.1,2.4s2.1-1.1,2.1-2.4C22.4,6.3,21.5,5.2,20.3,5.2z"/>
		<path class="st1" d="M27.4,3.9l0.1,1C28,4,29,3.7,29.8,3.7c2,0,3.6,1.7,3.6,3.9c0,2-1.5,3.9-3.6,3.9c-0.8,0-1.7-0.3-2.2-0.9v4.4
			h-1.8V3.9H27.4z M27.5,9C28,9.7,28.8,10,29.4,10c1.5,0,2.2-1.2,2.2-2.4c0-1.2-0.8-2.3-2.1-2.3c-0.7,0-1.5,0.3-1.9,1.2V9z"/>
		<path class="st1" d="M36.2,8c0.1,1.1,0.9,2,2.1,2c1,0,1.6-0.4,2.1-1.2l1.2,0.8c-0.8,1.2-1.8,1.8-3.3,1.8c-2.3,0-3.8-1.6-3.8-3.9
			c0-2.2,1.6-4,3.8-4c2,0,3.5,1.5,3.5,3.5c0,0.3,0,0.6-0.1,0.9H36.2z M38.3,5.1c-1.1,0-1.7,0.7-1.9,1.7h3.6
			C39.9,5.8,39.2,5.1,38.3,5.1z"/>
		<path class="st1" d="M53,11.3h-6.3V9.9C47.8,8.8,49.1,7.2,50,6c0.4-0.5,0.8-1.2,0.8-1.8c0-0.7-0.6-1.1-1.3-1.1
			c-0.7,0-1.3,0.6-1.3,1.4l-1.8-0.3c0.1-1.6,1.6-2.6,3.1-2.6c1.6,0,3,1,3,2.6c0,0.9-0.4,1.9-1,2.7c-0.7,1-1.7,2.1-2.5,3h4V11.3z"/>
		<path class="st1" d="M63.3,7.1V5.6h4.3v3.9c-1,1.3-2.6,2-4.3,2c-3.1,0-5.4-2.1-5.4-5.2c0-3,2.4-5.2,5.4-5.2c1.7,0,3.1,0.7,4.1,1.9
			L66.1,4c-0.7-0.8-1.7-1.4-2.9-1.4c-2,0-3.5,1.6-3.5,3.7c0,2.2,1.4,3.7,3.5,3.7c0.9,0,1.8-0.3,2.5-1V7.1H63.3z"/>
		<path class="st1" d="M76.4,11.3V6.9h-4.7v4.5h-1.8V1.2h1.8v4.2h4.7V1.2h1.8v10.1H76.4z"/>
		<path class="st1" d="M85.6,7.1V5.6h4.3v3.9c-1,1.3-2.6,2-4.3,2c-3.1,0-5.4-2.1-5.4-5.2c0-3,2.4-5.2,5.4-5.2c1.7,0,3.1,0.7,4.1,1.9
			L88.5,4c-0.7-0.8-1.7-1.4-2.9-1.4c-2,0-3.5,1.6-3.5,3.7c0,2.2,1.4,3.7,3.5,3.7c0.9,0,1.8-0.3,2.5-1V7.1H85.6z"/>
	</g>
	<g class="st2">
		<path class="st1" d="M1.1,26.3V16.2h6.3v1.5H2.9v2.6h4.5v1.5H2.9v2.9h4.5v1.5H1.1z"/>
		<path class="st1" d="M18.9,26.3v-3.8c0-0.6,0-1.3-0.3-1.8c-0.2-0.4-0.6-0.6-1.1-0.6c-0.6,0-1.3,0.4-1.7,1c0.1,0.4,0.1,0.8,0.1,1.2
			v3.9h-1.8v-3.8c0-0.6,0-1.4-0.3-1.8c-0.2-0.3-0.6-0.5-1-0.5c-0.6,0-1.3,0.5-1.7,1v5.1H9.4v-7.5H11l0.1,1c0.6-0.8,1.4-1.2,2.2-1.2
			c0.8,0,1.5,0.3,2,1c0.1,0.1,0.1,0.2,0.2,0.3c0.7-1,1.6-1.3,2.5-1.3c0.9,0,1.6,0.3,2,0.9c0.6,0.7,0.7,1.7,0.7,2.8v3.9H18.9z"/>
		<path class="st1" d="M22.8,17.6V16h1.8v1.6H22.8z M22.8,26.3v-7.5h1.8v7.5H22.8z"/>
		<path class="st1" d="M30.6,20.7c-0.4-0.3-0.9-0.6-1.5-0.6c-0.5,0-0.9,0.3-0.9,0.7c0,0.5,0.6,0.8,1.3,1c1,0.4,2.2,0.9,2.2,2.3
			c0,1.7-1.4,2.4-2.8,2.4c-1.1,0-2.1-0.4-2.8-1.2l1.1-1c0.5,0.5,1,0.8,1.7,0.8c0.5,0,1.1-0.3,1.1-0.9c0-0.5-0.7-0.8-1.4-1.1
			c-0.9-0.4-2-0.9-2-2.2c0-1.5,1.2-2.3,2.6-2.3c0.9,0,1.8,0.3,2.5,0.9L30.6,20.7z"/>
		<path class="st1" d="M37.4,20.7c-0.4-0.3-0.9-0.6-1.5-0.6c-0.5,0-0.9,0.3-0.9,0.7c0,0.5,0.6,0.8,1.3,1c1,0.4,2.2,0.9,2.2,2.3
			c0,1.7-1.4,2.4-2.8,2.4c-1.1,0-2.1-0.4-2.8-1.2l1.1-1c0.5,0.5,1,0.8,1.7,0.8c0.5,0,1.1-0.3,1.1-0.9c0-0.5-0.7-0.8-1.4-1.1
			c-0.9-0.4-2-0.9-2-2.2c0-1.5,1.2-2.3,2.6-2.3c0.9,0,1.8,0.3,2.5,0.9L37.4,20.7z"/>
		<path class="st1" d="M40.3,17.6V16H42v1.6H40.3z M40.3,26.3v-7.5H42v7.5H40.3z"/>
		<path class="st1" d="M51.4,22.6c0,2.2-1.6,3.9-3.9,3.9s-3.9-1.7-3.9-3.9c0-2.2,1.6-3.9,3.9-3.9S51.4,20.4,51.4,22.6z M47.5,20.2
			c-1.2,0-2.1,1.1-2.1,2.4c0,1.3,0.9,2.4,2.1,2.4s2.1-1.1,2.1-2.4C49.6,21.3,48.7,20.2,47.5,20.2z"/>
		<path class="st1" d="M54.6,18.8l0.1,1.1c0.6-0.9,1.5-1.3,2.4-1.3s1.6,0.4,2.1,1c0.6,0.7,0.7,1.7,0.7,2.8v3.9H58v-3.8
			c0-0.6,0-1.3-0.3-1.8c-0.2-0.4-0.6-0.6-1.1-0.6c-0.7,0-1.4,0.4-1.9,1.1v5H53v-7.5H54.6z"/>
		<path class="st1" d="M65.8,20.7c-0.4-0.3-0.9-0.6-1.5-0.6c-0.5,0-0.9,0.3-0.9,0.7c0,0.5,0.6,0.8,1.3,1c1,0.4,2.2,0.9,2.2,2.3
			c0,1.7-1.4,2.4-2.8,2.4c-1.1,0-2.1-0.4-2.8-1.2l1.1-1c0.5,0.5,1,0.8,1.7,0.8c0.5,0,1.1-0.3,1.1-0.9c0-0.5-0.7-0.8-1.4-1.1
			c-0.9-0.4-2-0.9-2-2.2c0-1.5,1.2-2.3,2.6-2.3c0.9,0,1.8,0.3,2.5,0.9L65.8,20.7z"/>
	</g>
	<g class="st2">
		<path class="st1" d="M4.5,43.8c-2.3-1.4-4.1-3.5-4.1-7c0-3.4,1.8-5.5,4-7l0.7,1.2c-1.6,1-3,2.8-3,5.7s1.4,4.7,3,5.7L4.5,43.8z"/>
	</g>
	<g class="st2">
		<path class="st1" d="M7,38c0.1,1.1,0.9,2,2.1,2c1,0,1.6-0.4,2.1-1.2l1.2,0.8c-0.8,1.2-1.8,1.8-3.3,1.8c-2.3,0-3.8-1.6-3.8-3.9
			c0-2.2,1.6-4,3.8-4c2,0,3.5,1.5,3.5,3.5c0,0.3,0,0.6-0.1,0.9H7z M9.1,35.1c-1.1,0-1.7,0.7-1.9,1.7h3.6C10.7,35.8,10,35.1,9.1,35.1
			z"/>
		<path class="st1" d="M15.9,41.3h-1.8V30.4h1.8V41.3z"/>
		<path class="st1" d="M19.3,38c0.1,1.1,0.9,2,2.1,2c1,0,1.6-0.4,2.1-1.2l1.2,0.8c-0.8,1.2-1.8,1.8-3.3,1.8c-2.3,0-3.8-1.6-3.8-3.9
			c0-2.2,1.6-4,3.8-4c2,0,3.5,1.5,3.5,3.5c0,0.3,0,0.6-0.1,0.9H19.3z M21.4,35.1c-1.1,0-1.7,0.7-1.9,1.7H23
			C23,35.8,22.3,35.1,21.4,35.1z"/>
	</g>
	<g class="st2">
		<path class="st1" d="M32.2,40.6c-0.7,0.6-1.5,0.8-2.5,0.8c-2.2,0-3.8-1.6-3.8-3.9c0-2.2,1.6-3.9,3.9-3.9c0.9,0,1.7,0.3,2.4,0.8
			l-0.9,1.3c-0.4-0.4-0.9-0.6-1.5-0.6c-1.2,0-2.1,1.1-2.1,2.4c0,1.4,1,2.4,2.1,2.4c0.5,0,1.1-0.2,1.5-0.6L32.2,40.6z"/>
	</g>
	<g class="st2">
		<path class="st1" d="M35.8,35.3v3.1c0,0.2,0,0.4,0,0.6c0.1,0.6,0.3,0.9,0.8,0.9c0.3,0,0.6-0.1,0.8-0.2l0.5,1.3
			c-0.4,0.2-1.1,0.4-1.6,0.4c-1.1,0-1.8-0.6-2.1-1.4C34,39.6,34,39.2,34,38.7v-3.3h-0.9v-1.5H34l0.2-1.7h1.6v1.7h2v1.5H35.8z"/>
		<path class="st1" d="M40.9,34.9c0.4-0.7,1-1.2,1.8-1.2c0.3,0,0.6,0,0.9,0.1l-0.4,1.6c-0.2-0.1-0.4-0.2-0.7-0.2
			c-0.6,0-1.2,0.4-1.5,1v5h-1.8v-7.5h1.6L40.9,34.9z"/>
		<path class="st1" d="M44.5,32.6V31h1.8v1.6H44.5z M44.5,41.3v-7.5h1.8v7.5H44.5z"/>
		<path class="st1" d="M54.2,40.6c-0.7,0.6-1.5,0.8-2.5,0.8c-2.2,0-3.8-1.6-3.8-3.9c0-2.2,1.6-3.9,3.9-3.9c0.9,0,1.7,0.3,2.4,0.8
			l-0.9,1.3c-0.4-0.4-0.9-0.6-1.5-0.6c-1.2,0-2.1,1.1-2.1,2.4c0,1.4,1,2.4,2.1,2.4c0.5,0,1.1-0.2,1.5-0.6L54.2,40.6z"/>
		<path class="st1" d="M55.6,32.6V31h1.8v1.6H55.6z M55.6,41.3v-7.5h1.8v7.5H55.6z"/>
	</g>
	<g class="st2">
		<path class="st1" d="M61.4,35.3v3.1c0,0.2,0,0.4,0,0.6c0.1,0.6,0.3,0.9,0.8,0.9c0.3,0,0.6-0.1,0.8-0.2l0.5,1.3
			c-0.4,0.2-1.1,0.4-1.6,0.4c-1.1,0-1.8-0.6-2.1-1.4c-0.1-0.4-0.2-0.9-0.2-1.4v-3.3h-0.9v-1.5h0.9l0.2-1.7h1.6v1.7h2v1.5H61.4z"/>
	</g>
	<g class="st2">
		<path class="st1" d="M65.9,33.8l1.7,4.9h0l1.7-4.9h1.9l-4.2,10.9l-1.6-0.6l1.2-3.1L64,33.8H65.9z"/>
		<path class="st1" d="M71.9,43.8l-0.7-1.2c1.6-1,3-2.8,3-5.7s-1.4-4.7-3-5.7l0.7-1.2c2.3,1.4,4,3.5,4,7
			C76,40.3,74.2,42.4,71.9,43.8z"/>
	</g>
	<g class="st2">
		<path class="st1" d="M4.1,77.7c-0.8,0-1.5,0.4-1.5,1.2c0,0.8,1,1.1,1.8,1.4c1.5,0.5,3.2,1.2,3.2,3.2c0,2.2-2,3.1-3.7,3.1
			c-1.5,0-2.7-0.5-3.8-1.6l1.2-1.2c0.9,0.9,1.6,1.2,2.6,1.2c0.9,0,1.8-0.4,1.8-1.5c0-1-1-1.3-2.1-1.7c-1.4-0.5-2.8-1.2-2.8-2.9
			c0-1.9,1.5-2.8,3.2-2.8c1.3,0,2.3,0.4,3.3,1.1l-1.1,1.3C5.7,78.1,4.9,77.7,4.1,77.7z"/>
		<path class="st1" d="M15.2,85.8c-0.7,0.6-1.5,0.8-2.5,0.8c-2.2,0-3.8-1.6-3.8-3.9c0-2.2,1.6-3.9,3.9-3.9c0.9,0,1.7,0.3,2.4,0.8
			l-0.9,1.3c-0.4-0.4-0.9-0.6-1.5-0.6c-1.2,0-2.1,1.1-2.1,2.4c0,1.4,1,2.4,2.1,2.4c0.5,0,1.1-0.2,1.5-0.6L15.2,85.8z"/>
		<path class="st1" d="M23.8,82.7c0,2.2-1.6,3.9-3.9,3.9S16,84.9,16,82.7c0-2.2,1.6-3.9,3.9-3.9S23.8,80.6,23.8,82.7z M19.9,80.4
			c-1.2,0-2.1,1.1-2.1,2.4c0,1.3,0.9,2.4,2.1,2.4S22,84,22,82.7C22,81.4,21.1,80.4,19.9,80.4z"/>
		<path class="st1" d="M27,79l0.1,1c0.5-0.8,1.5-1.1,2.3-1.1c2,0,3.6,1.7,3.6,3.9c0,2-1.5,3.9-3.6,3.9c-0.8,0-1.7-0.3-2.2-0.9v4.4
			h-1.8V79H27z M27.1,84.2c0.5,0.7,1.2,0.9,1.9,0.9c1.5,0,2.2-1.2,2.2-2.4c0-1.2-0.8-2.3-2.1-2.3c-0.7,0-1.5,0.3-1.9,1.2V84.2z"/>
		<path class="st1" d="M35.8,83.2c0.1,1.1,0.9,2,2.1,2c1,0,1.6-0.4,2.1-1.2l1.2,0.8c-0.8,1.2-1.8,1.8-3.3,1.8
			c-2.3,0-3.8-1.6-3.8-3.9c0-2.2,1.6-4,3.8-4c2,0,3.5,1.5,3.5,3.5c0,0.3,0,0.6-0.1,0.9H35.8z M37.9,80.2c-1.1,0-1.7,0.7-1.9,1.7h3.6
			C39.5,80.9,38.8,80.2,37.9,80.2z"/>
		<path class="st1" d="M47.9,80.8c0.5,0,0.9,0,1.2-0.1c0.7-0.2,1.1-0.7,1.1-1.3c0-0.7-0.5-1.2-1.4-1.2c-0.6,0-1.2,0.4-1.3,1
			l-1.5-0.7c0.4-1.2,1.5-1.9,2.8-1.9c1.7,0,3.1,1,3.1,2.6c0,0.8-0.5,1.7-1.2,2.1c1,0.3,1.7,1.3,1.7,2.4c0,1.9-1.5,3-3.4,3
			c-1.3,0-2.6-0.6-3.2-1.9l1.4-0.7c0.3,0.7,1,1.1,1.7,1.1c0.8,0,1.6-0.5,1.6-1.4s-0.8-1.5-1.9-1.5c-0.2,0-0.6,0-0.9,0.1V80.8z"/>
		<path class="st1" d="M63,82.3v-1.5h4.3v3.9c-1,1.3-2.6,2-4.3,2c-3.1,0-5.4-2.1-5.4-5.2c0-3,2.4-5.2,5.4-5.2c1.7,0,3.1,0.7,4.1,1.9
			l-1.3,1.1c-0.7-0.8-1.7-1.4-2.9-1.4c-2,0-3.5,1.6-3.5,3.7c0,2.2,1.4,3.7,3.5,3.7c0.9,0,1.8-0.3,2.5-1v-1.8H63z"/>
		<path class="st1" d="M76.1,86.5V82h-4.7v4.5h-1.8V76.3h1.8v4.2h4.7v-4.2h1.8v10.1H76.1z"/>
		<path class="st1" d="M85.4,82.3v-1.5h4.3v3.9c-1,1.3-2.6,2-4.3,2c-3.1,0-5.4-2.1-5.4-5.2c0-3,2.4-5.2,5.4-5.2
			c1.7,0,3.1,0.7,4.1,1.9l-1.3,1.1c-0.7-0.8-1.7-1.4-2.9-1.4c-2,0-3.5,1.6-3.5,3.7c0,2.2,1.4,3.7,3.5,3.7c0.9,0,1.8-0.3,2.5-1v-1.8
			H85.4z"/>
	</g>
	<g class="st2">
		<path class="st1" d="M0.7,101.5V91.3H7v1.5H2.5v2.6H7V97H2.5v2.9H7v1.5H0.7z"/>
		<path class="st1" d="M18.5,101.5v-3.8c0-0.6,0-1.3-0.3-1.8c-0.2-0.4-0.6-0.6-1.1-0.6c-0.6,0-1.3,0.4-1.7,1
			c0.1,0.4,0.1,0.8,0.1,1.2v3.9h-1.8v-3.8c0-0.6,0-1.4-0.3-1.8c-0.2-0.3-0.6-0.5-1-0.5c-0.6,0-1.3,0.5-1.7,1v5.1H9V94h1.6l0.1,1
			c0.6-0.8,1.4-1.2,2.2-1.2c0.8,0,1.5,0.3,2,1c0.1,0.1,0.1,0.2,0.2,0.3c0.7-1,1.6-1.3,2.5-1.3c0.9,0,1.6,0.3,2,0.9
			c0.6,0.7,0.7,1.7,0.7,2.8v3.9H18.5z"/>
		<path class="st1" d="M22.4,92.8v-1.6h1.8v1.6H22.4z M22.4,101.5V94h1.8v7.5H22.4z"/>
		<path class="st1" d="M30.2,95.8c-0.4-0.3-0.9-0.6-1.5-0.6c-0.5,0-0.9,0.3-0.9,0.7c0,0.5,0.6,0.8,1.3,1c1,0.4,2.2,0.9,2.2,2.3
			c0,1.7-1.4,2.4-2.8,2.4c-1.1,0-2.1-0.4-2.8-1.2l1.1-1c0.5,0.5,1,0.8,1.7,0.8c0.5,0,1.1-0.3,1.1-0.9c0-0.5-0.7-0.8-1.4-1.1
			c-0.9-0.4-2-0.9-2-2.2c0-1.5,1.2-2.3,2.6-2.3c0.9,0,1.8,0.3,2.5,0.9L30.2,95.8z"/>
		<path class="st1" d="M37,95.8c-0.4-0.3-0.9-0.6-1.5-0.6c-0.5,0-0.9,0.3-0.9,0.7c0,0.5,0.6,0.8,1.3,1c1,0.4,2.2,0.9,2.2,2.3
			c0,1.7-1.4,2.4-2.8,2.4c-1.1,0-2.1-0.4-2.8-1.2l1.1-1c0.5,0.5,1,0.8,1.7,0.8c0.5,0,1.1-0.3,1.1-0.9c0-0.5-0.7-0.8-1.4-1.1
			c-0.9-0.4-2-0.9-2-2.2c0-1.5,1.2-2.3,2.6-2.3c0.9,0,1.8,0.3,2.5,0.9L37,95.8z"/>
		<path class="st1" d="M39.9,92.8v-1.6h1.8v1.6H39.9z M39.9,101.5V94h1.8v7.5H39.9z"/>
		<path class="st1" d="M51,97.7c0,2.2-1.6,3.9-3.9,3.9s-3.9-1.7-3.9-3.9c0-2.2,1.6-3.9,3.9-3.9S51,95.5,51,97.7z M47.1,95.4
			c-1.2,0-2.1,1.1-2.1,2.4c0,1.3,0.9,2.4,2.1,2.4s2.1-1.1,2.1-2.4C49.2,96.4,48.3,95.4,47.1,95.4z"/>
		<path class="st1" d="M54.2,94l0.1,1.1c0.6-0.9,1.5-1.3,2.4-1.3s1.6,0.4,2.1,1c0.6,0.7,0.7,1.7,0.7,2.8v3.9h-1.8v-3.8
			c0-0.6,0-1.3-0.3-1.8c-0.2-0.4-0.6-0.6-1.1-0.6c-0.7,0-1.4,0.4-1.9,1.1v5h-1.8V94H54.2z"/>
		<path class="st1" d="M65.4,95.8c-0.4-0.3-0.9-0.6-1.5-0.6c-0.5,0-0.9,0.3-0.9,0.7c0,0.5,0.6,0.8,1.3,1c1,0.4,2.2,0.9,2.2,2.3
			c0,1.7-1.4,2.4-2.8,2.4c-1.1,0-2.1-0.4-2.8-1.2l1.1-1c0.5,0.5,1,0.8,1.7,0.8c0.5,0,1.1-0.3,1.1-0.9c0-0.5-0.7-0.8-1.4-1.1
			c-0.9-0.4-2-0.9-2-2.2c0-1.5,1.2-2.3,2.6-2.3c0.9,0,1.8,0.3,2.5,0.9L65.4,95.8z"/>
	</g>
	<g class="st2">
		<path class="st1" d="M75.5,104c-2.3-1.4-4.1-3.5-4.1-7c0-3.4,1.8-5.5,4-7l0.7,1.2c-1.6,1-3,2.8-3,5.7s1.4,4.7,3,5.7L75.5,104z"/>
	</g>
	<g class="st2">
		<path class="st1" d="M79.2,95.5v3.1c0,0.2,0,0.4,0,0.6c0.1,0.6,0.3,0.9,0.8,0.9c0.3,0,0.6-0.1,0.8-0.2l0.5,1.3
			c-0.4,0.2-1.1,0.4-1.6,0.4c-1.1,0-1.8-0.6-2.1-1.4c-0.1-0.4-0.2-0.9-0.2-1.4v-3.3h-0.9V94h0.9l0.2-1.7h1.6V94h2v1.5H79.2z"/>
		<path class="st1" d="M84.4,95c0.6-0.8,1.4-1.2,2.3-1.2c0.9,0,1.6,0.4,2.1,1c0.6,0.7,0.7,1.7,0.7,2.8v3.9h-1.8v-3.8
			c0-0.6,0-1.3-0.3-1.8c-0.2-0.4-0.6-0.6-1.1-0.6c-0.7,0-1.4,0.4-1.9,1.1v5h-1.8V90.6h1.8V95z"/>
		<path class="st1" d="M91.5,92.8v-1.6h1.8v1.6H91.5z M91.5,101.5V94h1.8v7.5H91.5z"/>
		<path class="st1" d="M97.1,95.1c0.4-0.7,1-1.2,1.8-1.2c0.3,0,0.6,0,0.9,0.1l-0.4,1.6c-0.2-0.1-0.4-0.2-0.7-0.2
			c-0.6,0-1.2,0.4-1.5,1v5h-1.8V94H97L97.1,95.1z"/>
		<path class="st1" d="M107.8,101.5h-1.6l-0.1-1c-0.5,0.8-1.5,1.1-2.3,1.1c-2.1,0-3.6-1.8-3.6-3.9c0-2,1.5-3.9,3.6-3.9
			c0.8,0,1.7,0.3,2.2,0.9v-4.2h1.8V101.5z M106.1,96.3c-0.5-0.7-1.2-0.9-1.9-0.9c-1.5,0-2.2,1.2-2.2,2.4c0,1.2,0.8,2.3,2.1,2.3
			c0.7,0,1.5-0.3,1.9-1.2V96.3z"/>
	</g>
	<g class="st2">
		<path class="st1" d="M2.1,109l0.1,1c0.5-0.8,1.5-1.1,2.3-1.1c2,0,3.6,1.7,3.6,3.9c0,2-1.5,3.9-3.6,3.9c-0.8,0-1.7-0.3-2.2-0.9v4.4
			H0.6V109H2.1z M2.3,114.1c0.5,0.7,1.2,0.9,1.9,0.9c1.5,0,2.2-1.2,2.2-2.4c0-1.2-0.8-2.3-2.1-2.3c-0.7,0-1.5,0.3-1.9,1.2V114.1z"/>
		<path class="st1" d="M14.3,116.5l-0.1-0.7c-0.5,0.6-1.3,0.9-2.1,0.9c-1.4,0-2.7-0.8-2.7-2.3c0-1.9,1.7-2.4,3.3-2.4
			c0.4,0,0.9,0,1.4,0.2v-0.2c0-1-0.4-1.6-1.6-1.6c-0.8,0-1.7,0.3-2.3,0.7l-0.5-1.3c0.9-0.4,2-0.7,3.1-0.7c2.1,0,3,1.2,3,3.1v4.5
			H14.3z M14.1,113.1c-0.4-0.1-0.8-0.1-1.1-0.1c-0.8,0-1.8,0.3-1.8,1.2c0,0.8,0.6,1.1,1.3,1.1c0.7,0,1.2-0.3,1.7-0.7V113.1z"/>
	</g>
	<g class="st2">
		<path class="st1" d="M19.6,110c0.4-0.7,1-1.2,1.8-1.2c0.3,0,0.6,0,0.9,0.1l-0.4,1.6c-0.2-0.1-0.4-0.2-0.7-0.2
			c-0.6,0-1.2,0.4-1.5,1v5H18V109h1.6L19.6,110z"/>
	</g>
	<g class="st2">
		<path class="st1" d="M25.7,110.5v3.1c0,0.2,0,0.4,0,0.6c0.1,0.6,0.3,0.9,0.8,0.9c0.3,0,0.6-0.1,0.8-0.2l0.5,1.3
			c-0.4,0.2-1.1,0.4-1.6,0.4c-1.1,0-1.8-0.6-2.1-1.4c-0.1-0.4-0.2-0.9-0.2-1.4v-3.3H23V109H24l0.2-1.7h1.6v1.7h2v1.5H25.7z"/>
	</g>
	<g class="st2">
		<path class="st1" d="M30.3,109l1.7,4.9h0l1.7-4.9h1.9l-4.2,10.9l-1.6-0.6l1.2-3.1l-2.7-7.1H30.3z"/>
		<path class="st1" d="M47.5,116.5h-1.6l-0.1-1c-0.5,0.8-1.5,1.1-2.3,1.1c-2.1,0-3.6-1.8-3.6-3.9c0-2,1.5-3.9,3.6-3.9
			c0.8,0,1.7,0.3,2.2,0.9v-4.2h1.8V116.5z M45.7,111.3c-0.5-0.7-1.2-0.9-1.9-0.9c-1.5,0-2.2,1.2-2.2,2.4c0,1.2,0.8,2.3,2.1,2.3
			c0.7,0,1.5-0.3,1.9-1.2V111.3z"/>
		<path class="st1" d="M49.6,107.8v-1.6h1.8v1.6H49.6z M49.6,116.5V109h1.8v7.5H49.6z"/>
		<path class="st1" d="M54.8,113.2c0.1,1.1,0.9,2,2.1,2c1,0,1.6-0.4,2.1-1.2l1.2,0.8c-0.8,1.2-1.8,1.8-3.3,1.8
			c-2.3,0-3.8-1.6-3.8-3.9c0-2.2,1.6-4,3.8-4c2,0,3.5,1.5,3.5,3.5c0,0.3,0,0.6-0.1,0.9H54.8z M56.8,110.2c-1.1,0-1.7,0.7-1.9,1.7
			h3.6C58.4,110.9,57.7,110.2,56.8,110.2z"/>
		<path class="st1" d="M65.8,110.8c-0.4-0.3-0.9-0.6-1.5-0.6c-0.5,0-0.9,0.3-0.9,0.7c0,0.5,0.6,0.8,1.3,1c1,0.4,2.2,0.9,2.2,2.3
			c0,1.7-1.4,2.4-2.8,2.4c-1.1,0-2.1-0.4-2.8-1.2l1.1-1c0.5,0.5,1,0.8,1.7,0.8c0.5,0,1.1-0.3,1.1-0.9c0-0.5-0.7-0.8-1.4-1.1
			c-0.9-0.4-2-0.9-2-2.2c0-1.5,1.2-2.3,2.6-2.3c0.9,0,1.8,0.3,2.5,0.9L65.8,110.8z"/>
		<path class="st1" d="M69.9,113.2c0.1,1.1,0.9,2,2.1,2c1,0,1.6-0.4,2.1-1.2l1.2,0.8c-0.8,1.2-1.8,1.8-3.3,1.8
			c-2.3,0-3.8-1.6-3.8-3.9c0-2.2,1.6-4,3.8-4c2,0,3.5,1.5,3.5,3.5c0,0.3,0,0.6-0.1,0.9H69.9z M71.9,110.2c-1.1,0-1.7,0.7-1.9,1.7
			h3.6C73.6,110.9,72.9,110.2,71.9,110.2z"/>
		<path class="st1" d="M78.8,116.5h-1.8v-10.9h1.8V116.5z"/>
	</g>
	<g class="st2">
		<path class="st1" d="M6.3,130.8c-0.7,0.6-1.5,0.8-2.5,0.8c-2.2,0-3.8-1.6-3.8-3.9c0-2.2,1.6-3.9,3.9-3.9c0.9,0,1.7,0.3,2.4,0.8
			l-0.9,1.3c-0.4-0.4-0.9-0.6-1.5-0.6c-1.2,0-2.1,1.1-2.1,2.4c0,1.4,1,2.4,2.1,2.4c0.5,0,1.1-0.2,1.5-0.6L6.3,130.8z"/>
		<path class="st1" d="M14.9,127.7c0,2.2-1.6,3.9-3.9,3.9s-3.9-1.7-3.9-3.9c0-2.2,1.6-3.9,3.9-3.9S14.9,125.5,14.9,127.7z
			 M11.1,125.3c-1.2,0-2.1,1.1-2.1,2.4c0,1.3,0.9,2.4,2.1,2.4s2.1-1.1,2.1-2.4C13.1,126.4,12.3,125.3,11.1,125.3z"/>
		<path class="st1" d="M18.2,124l0.1,1.1c0.6-0.9,1.5-1.3,2.4-1.3s1.6,0.4,2.1,1c0.6,0.7,0.7,1.7,0.7,2.8v3.9h-1.8v-3.8
			c0-0.6,0-1.3-0.3-1.8c-0.2-0.4-0.6-0.6-1.1-0.6c-0.7,0-1.4,0.4-1.9,1.1v5h-1.8V124H18.2z"/>
		<path class="st1" d="M29.3,125.8c-0.4-0.3-0.9-0.6-1.5-0.6c-0.5,0-0.9,0.3-0.9,0.7c0,0.5,0.6,0.8,1.3,1c1,0.4,2.2,0.9,2.2,2.3
			c0,1.7-1.4,2.4-2.8,2.4c-1.1,0-2.1-0.4-2.8-1.2l1.1-1c0.5,0.5,1,0.8,1.7,0.8c0.5,0,1.1-0.3,1.1-0.9c0-0.5-0.7-0.8-1.4-1.1
			c-0.9-0.4-2-0.9-2-2.2c0-1.5,1.2-2.3,2.6-2.3c0.9,0,1.8,0.3,2.5,0.9L29.3,125.8z"/>
		<path class="st1" d="M37.3,131.5l-0.1-1.1c-0.6,0.9-1.5,1.3-2.4,1.3c-0.9,0-1.6-0.4-2.1-1c-0.6-0.7-0.7-1.7-0.7-2.8V124h1.8v3.8
			c0,0.6,0,1.3,0.3,1.8c0.2,0.4,0.6,0.6,1.1,0.6c0.7,0,1.4-0.4,1.9-1.1v-5h1.8v7.5H37.3z"/>
		<path class="st1" d="M50.7,131.5v-3.8c0-0.6,0-1.3-0.3-1.8c-0.2-0.4-0.6-0.6-1.1-0.6c-0.6,0-1.3,0.4-1.7,1
			c0.1,0.4,0.1,0.8,0.1,1.2v3.9h-1.8v-3.8c0-0.6,0-1.4-0.3-1.8c-0.2-0.3-0.6-0.5-1-0.5c-0.6,0-1.3,0.5-1.7,1v5.1h-1.8V124h1.6l0.1,1
			c0.6-0.8,1.4-1.2,2.2-1.2c0.8,0,1.5,0.3,2,1c0.1,0.1,0.1,0.2,0.2,0.3c0.7-1,1.6-1.3,2.5-1.3c0.9,0,1.6,0.3,2,0.9
			c0.6,0.7,0.7,1.7,0.7,2.8v3.9H50.7z"/>
		<path class="st1" d="M56.1,124l0.1,1c0.5-0.8,1.5-1.1,2.3-1.1c2,0,3.6,1.7,3.6,3.9c0,2-1.5,3.9-3.6,3.9c-0.8,0-1.7-0.3-2.2-0.9
			v4.4h-1.8V124H56.1z M56.3,129.1c0.5,0.7,1.2,0.9,1.9,0.9c1.5,0,2.2-1.2,2.2-2.4c0-1.2-0.8-2.3-2.1-2.3c-0.7,0-1.5,0.3-1.9,1.2
			V129.1z"/>
		<path class="st1" d="M65.6,125.5v3.1c0,0.2,0,0.4,0,0.6c0.1,0.6,0.3,0.9,0.8,0.9c0.3,0,0.6-0.1,0.8-0.2l0.5,1.3
			c-0.4,0.2-1.1,0.4-1.6,0.4c-1.1,0-1.8-0.6-2.1-1.4c-0.1-0.4-0.2-0.9-0.2-1.4v-3.3h-0.9V124h0.9l0.2-1.7h1.6v1.7h2v1.5H65.6z"/>
		<path class="st1" d="M69,122.8v-1.6h1.8v1.6H69z M69,131.5V124h1.8v7.5H69z"/>
		<path class="st1" d="M80.1,127.7c0,2.2-1.6,3.9-3.9,3.9s-3.9-1.7-3.9-3.9c0-2.2,1.6-3.9,3.9-3.9S80.1,125.5,80.1,127.7z
			 M76.3,125.3c-1.2,0-2.1,1.1-2.1,2.4c0,1.3,0.9,2.4,2.1,2.4s2.1-1.1,2.1-2.4C78.4,126.4,77.5,125.3,76.3,125.3z"/>
		<path class="st1" d="M83.4,124l0.1,1.1c0.6-0.9,1.5-1.3,2.4-1.3s1.6,0.4,2.1,1c0.6,0.7,0.7,1.7,0.7,2.8v3.9h-1.8v-3.8
			c0-0.6,0-1.3-0.3-1.8c-0.2-0.4-0.6-0.6-1.1-0.6c-0.7,0-1.4,0.4-1.9,1.1v5h-1.8V124H83.4z"/>
		<path class="st1" d="M90.2,134l-0.7-1.2c1.6-1,3-2.8,3-5.7s-1.4-4.7-3-5.7l0.7-1.2c2.3,1.4,4,3.5,4,7
			C94.2,130.5,92.5,132.6,90.2,134z"/>
	</g>
</g>
</svg>
