<svg xmlns="http://www.w3.org/2000/svg" viewBox="0 0 638.36 152.29"><defs><style>.cls-1{fill:#f06b37;}.cls-2{fill:#06b4a8;}</style></defs><g id="Layer_2" data-name="Layer 2"><g id="Layer_1-2" data-name="Layer 1"><path class="cls-1" d="M365.6,107l12-17.22c.81.81,1.94,1.87,3.38,3.16a44.5,44.5,0,0,0,8.41,5.15,25.8,25.8,0,0,0,11.71,3.2q6.08,0,6.08-3.89c0-1.17-1.38-2.37-4.14-3.62s-6.11-2.64-10-4.19a118.39,118.39,0,0,1-11.83-5.45,29.57,29.57,0,0,1-10.07-8.72,21.19,21.19,0,0,1-4.15-13q0-12.24,9.58-18.56t23.5-6.31a63.64,63.64,0,0,1,10.5.83,47.63,47.63,0,0,1,9.85,2.78,18.47,18.47,0,0,1,7.79,5.7,13.89,13.89,0,0,1,3,8.86v9.51H407.81v-3.8c0-1-.72-1.85-2.17-2.57a11.35,11.35,0,0,0-5.13-1.08q-7.15,0-7.15,3.73,0,2.2,4.18,4.07t10.19,3.89a105.81,105.81,0,0,1,11.91,4.84,27.72,27.72,0,0,1,10.11,8.34A20.92,20.92,0,0,1,434,95.7a22.33,22.33,0,0,1-9.28,18.78q-9.27,7-23.57,7A53.52,53.52,0,0,1,388.64,120a40.45,40.45,0,0,1-10-3.65c-2.64-1.45-5-2.9-7.08-4.32a41.12,41.12,0,0,1-4.56-3.5Z"/><path class="cls-1" d="M439.91,95.89a20.22,20.22,0,0,1,5.31-14.17,29.82,29.82,0,0,1,13.61-8.32,88.73,88.73,0,0,1,27.55-4.3h1.07v-.92q0-5.62-2.6-8c-1.73-1.6-4.3-2.39-7.71-2.39q-7,0-7,3.87v3.58H445.34V56.4q0-18.87,31.8-18.86,37.53,0,37.53,32.7V93.78q0,3.51,3.31,3.51h5.74v22.3H500.39c-3.55,0-6.19-.84-7.94-2.53a7.78,7.78,0,0,1-2.62-5.74V110h-.31a5.39,5.39,0,0,1-.73,1.24,35,35,0,0,1-2.44,2.76,25.64,25.64,0,0,1-4.12,3.52,23.7,23.7,0,0,1-6.42,2.76,31,31,0,0,1-8.82,1.23q-11.46,0-19.27-7T439.91,95.89Zm26.93-1.48a6.64,6.64,0,0,0,1.94,5,7.83,7.83,0,0,0,5.69,1.91q5.19,0,9.23-4.64a14.78,14.78,0,0,0,4.05-9.86V85.45h-2.52a33.79,33.79,0,0,0-12.86,2.26Q466.84,90,466.84,94.41Z"/><path class="cls-1" d="M522.08,62V39.36h23.8q11.42,0,11.41,10.27v4.26l-.31,4h.31A29.31,29.31,0,0,1,567,43.73,24.52,24.52,0,0,1,582.84,38l3.12.31V64.76a28,28,0,0,0-5.48-.46q-16.2,0-20.68,14a39.58,39.58,0,0,0-1.45,11v30.34H531.43V65.37Q531.43,62,528,62Z"/><path class="cls-1" d="M592.73,62V39.36h24.94c4,0,6.83.91,8.63,2.74s2.7,4.71,2.7,8.67V93.58Q629,97,632.42,97h5.94v22.58h-25q-5.92,0-8.63-2.74t-2.7-8.66V65.37q0-3.42-3.42-3.42Z"/><path class="cls-2" d="M197.41,37.4A41.89,41.89,0,1,0,239.3,79.29,41.88,41.88,0,0,0,197.41,37.4Zm0,61.51A19.62,19.62,0,1,1,217,79.29,19.62,19.62,0,0,1,197.41,98.91Z"/><circle class="cls-1" cx="615.43" cy="14.89" r="14.89"/><path class="cls-2" d="M148.41,38a24.48,24.48,0,0,0-15.81,5.74,29.33,29.33,0,0,0-9.74,14.19h-.3l.3-4V49.63q0-10.27-11.41-10.27H67.91a8.61,8.61,0,0,0-6.27,2.17,6.07,6.07,0,0,0-2.25,4.22v1.14H59l-.76-1q-8-8.35-22.48-8.36Q18.6,37.54,9.3,49T0,76.93q0,16.65,9.45,28.48t26.47,11.83q13.19,0,20.2-7.61h.31l-.15,2.92v1.2q0,15.19-18.61,15.2a48.11,48.11,0,0,1-22.36-5L7.62,145.05a63.31,63.31,0,0,0,30.21,7.24,60.59,60.59,0,0,0,16.44-2.16,48.7,48.7,0,0,0,14.39-6.77,32.18,32.18,0,0,0,10.62-12.55,41.43,41.43,0,0,0,3.92-18.52V75.76H76.36A2.37,2.37,0,0,1,74.45,72l13.2-18.16.2-.27a2.37,2.37,0,0,1,3.84,0l.56.77L105.09,72a2.37,2.37,0,0,1-1.92,3.77H97V92.67a26.93,26.93,0,0,0,26.93,26.92h0V89.25a39.61,39.61,0,0,1,1.44-11q4.49-14,20.69-14a27.85,27.85,0,0,1,5.47.46V38.3ZM52.73,90.85a14.53,14.53,0,0,1-10.41,4q-7.62,0-11.51-5.36T26.92,76q0-7.15,3.74-11.6T41.26,60q15.62,0,15.62,17.26Q56.88,86.89,52.73,90.85Z"/><path class="cls-2" d="M237.63,39.36H266l10,47.36a45,45,0,0,1,.94,8.41h.31a57.06,57.06,0,0,1,1.4-8.41l11.06-47.36h23.06l11.06,47.36A46.65,46.65,0,0,1,325,95.13h.31a54.61,54.61,0,0,1,1.09-8.41l10-47.36h28L342,119.59H311.94l-9-37.07A74.29,74.29,0,0,1,301.34,74H301a73,73,0,0,1-1.55,8.57l-9,37.07H260.06Z"/></g></g></svg>