<?xml version="1.0" encoding="utf-8"?>
<!-- Generator: Adobe Illustrator 25.2.1, SVG Export Plug-In . SVG Version: 6.00 Build 0)  -->
<svg version="1.1" id="Layer_1" xmlns="http://www.w3.org/2000/svg" xmlns:xlink="http://www.w3.org/1999/xlink" x="0px" y="0px"
	 viewBox="0 0 48.61 47.78" style="enable-background:new 0 0 48.61 47.78;" xml:space="preserve">
<style type="text/css">
	.st0{clip-path:url(#SVGID_2_);fill:#FFFFFF;}
	.st1{fill:#EB94A6;}
	.st2{clip-path:url(#SVGID_4_);fill:#C2384A;}
	.st3{clip-path:url(#SVGID_6_);fill:#EB94A6;}
	.st4{clip-path:url(#SVGID_6_);fill:#C2384A;}
	.st5{fill:#C2384A;}
	.st6{clip-path:url(#SVGID_8_);fill:none;stroke:#C2384A;stroke-width:0.706;stroke-miterlimit:10;}
	.st7{clip-path:url(#SVGID_10_);fill:#EB94A6;}
	.st8{clip-path:url(#SVGID_10_);fill:#DEEDF0;}
	.st9{clip-path:url(#SVGID_10_);fill:#C2384A;}
	.st10{clip-path:url(#SVGID_10_);fill:#FFFFFF;}
	.st11{fill:#FFDEDE;}
	.st12{clip-path:url(#SVGID_12_);fill:#EB94A6;}
	.st13{clip-path:url(#SVGID_12_);fill:#C2384A;}
	.st14{clip-path:url(#SVGID_12_);fill:#FFFFFF;}
	.st15{fill:none;stroke:#C2384A;stroke-width:0.754;stroke-miterlimit:10;}
	.st16{clip-path:url(#SVGID_14_);fill:#C2384A;}
	.st17{fill:none;stroke:#C2384A;stroke-width:0.963;stroke-linecap:round;stroke-linejoin:round;stroke-miterlimit:10;}
	.st18{clip-path:url(#SVGID_16_);fill:#C2384A;}
	.st19{clip-path:url(#SVGID_16_);fill:#FFFFFF;}
	.st20{clip-path:url(#SVGID_16_);fill:none;stroke:#C2384A;stroke-width:0.803;stroke-miterlimit:10;}
	.st21{fill:none;stroke:#C2384A;stroke-width:0.803;stroke-linecap:round;stroke-linejoin:round;stroke-miterlimit:10;}
	.st22{clip-path:url(#SVGID_18_);fill:#C2384A;}
	.st23{clip-path:url(#SVGID_20_);fill:#C2384A;}
	.st24{clip-path:url(#SVGID_22_);fill:#C2384A;}
	.st25{fill:#DEEDF0;}
	.st26{clip-path:url(#SVGID_24_);fill:#EB94A6;}
	.st27{clip-path:url(#SVGID_24_);fill:#C2384A;}
	.st28{clip-path:url(#SVGID_26_);fill:#C2384A;}
	.st29{clip-path:url(#SVGID_28_);fill:none;stroke:#C2384A;stroke-width:0.618;stroke-miterlimit:10;}
</style>
<g>
	<defs>
		<rect id="SVGID_1_" x="-536.08" y="-139.94" width="625.5" height="357.06"/>
	</defs>
	<clipPath id="SVGID_2_">
		<use xlink:href="#SVGID_1_"  style="overflow:visible;"/>
	</clipPath>
	<path class="st0" d="M24.88,47.34c13.11,0,23.73-10.62,23.73-23.73S37.99-0.12,24.88-0.12C11.77-0.12,1.15,10.5,1.15,23.61
		S11.77,47.34,24.88,47.34"/>
</g>
<g>
	<defs>
		<rect id="SVGID_3_" x="-536.08" y="-139.94" width="625.5" height="357.06"/>
	</defs>
	<clipPath id="SVGID_4_">
		<use xlink:href="#SVGID_3_"  style="overflow:visible;"/>
	</clipPath>
</g>
<g>
	<defs>
		<rect id="SVGID_5_" x="-536.08" y="-139.94" width="625.5" height="357.06"/>
	</defs>
	<clipPath id="SVGID_6_">
		<use xlink:href="#SVGID_5_"  style="overflow:visible;"/>
	</clipPath>
</g>
<g>
	<defs>
		<rect id="SVGID_7_" x="-536.08" y="-139.94" width="625.5" height="357.06"/>
	</defs>
	<clipPath id="SVGID_8_">
		<use xlink:href="#SVGID_7_"  style="overflow:visible;"/>
	</clipPath>
</g>
<g>
	<defs>
		<rect id="SVGID_9_" x="-536.08" y="-139.94" width="625.5" height="357.06"/>
	</defs>
	<clipPath id="SVGID_10_">
		<use xlink:href="#SVGID_9_"  style="overflow:visible;"/>
	</clipPath>
</g>
<g>
	<defs>
		<rect id="SVGID_11_" x="-536.08" y="-139.94" width="625.5" height="357.06"/>
	</defs>
	<clipPath id="SVGID_12_">
		<use xlink:href="#SVGID_11_"  style="overflow:visible;"/>
	</clipPath>
</g>
<g>
	<defs>
		<rect id="SVGID_13_" x="-536.08" y="-139.94" width="625.5" height="357.06"/>
	</defs>
	<clipPath id="SVGID_14_">
		<use xlink:href="#SVGID_13_"  style="overflow:visible;"/>
	</clipPath>
</g>
<g>
	<defs>
		<rect id="SVGID_15_" x="-536.08" y="-139.94" width="625.5" height="357.06"/>
	</defs>
	<clipPath id="SVGID_16_">
		<use xlink:href="#SVGID_15_"  style="overflow:visible;"/>
	</clipPath>
	<path class="st20" d="M36.7,43.43H13.06c-2.05,0-3.71-1.66-3.71-3.71V8.14c0-2.05,1.66-3.71,3.71-3.71H36.7
		c2.05,0,3.71,1.66,3.71,3.71v31.58C40.4,41.77,38.74,43.43,36.7,43.43z"/>
</g>
<rect x="17.82" y="2.83" class="st1" width="14.11" height="3.07"/>
<rect x="22.99" y="16.66" class="st5" width="14.83" height="1.55"/>
<rect x="22.99" y="21.69" class="st5" width="14.83" height="1.55"/>
<rect x="22.99" y="26.72" class="st5" width="14.83" height="1.55"/>
<rect x="22.99" y="31.75" class="st5" width="14.83" height="1.55"/>
<path class="st21" d="M13.81,34.03l1.16,1.55l4.26-3.46 M13.81,28.23l1.16,1.55l4.26-3.46 M13.81,22.62l1.16,1.55l4.26-3.46
	 M13.81,16.81l1.16,1.55l4.26-3.46"/>
<rect x="22.83" y="1.93" class="st1" width="4.1" height="1.83"/>
<g>
	<defs>
		<rect id="SVGID_17_" x="-536.08" y="-139.94" width="625.5" height="357.06"/>
	</defs>
	<clipPath id="SVGID_18_">
		<use xlink:href="#SVGID_17_"  style="overflow:visible;"/>
	</clipPath>
</g>
<g>
	<defs>
		<rect id="SVGID_19_" x="-536.08" y="-139.94" width="625.5" height="357.06"/>
	</defs>
	<clipPath id="SVGID_20_">
		<use xlink:href="#SVGID_19_"  style="overflow:visible;"/>
	</clipPath>
</g>
<g>
	<defs>
		<rect id="SVGID_21_" x="-536.08" y="-139.94" width="625.5" height="357.06"/>
	</defs>
	<clipPath id="SVGID_22_">
		<use xlink:href="#SVGID_21_"  style="overflow:visible;"/>
	</clipPath>
</g>
<g>
	<defs>
		<rect id="SVGID_23_" x="-536.08" y="-139.94" width="625.5" height="357.06"/>
	</defs>
	<clipPath id="SVGID_24_">
		<use xlink:href="#SVGID_23_"  style="overflow:visible;"/>
	</clipPath>
</g>
<g>
	<defs>
		<rect id="SVGID_25_" x="-536.08" y="-139.94" width="625.5" height="357.06"/>
	</defs>
	<clipPath id="SVGID_26_">
		<use xlink:href="#SVGID_25_"  style="overflow:visible;"/>
	</clipPath>
</g>
<g>
	<defs>
		<rect id="SVGID_27_" x="-536.08" y="-139.94" width="625.5" height="357.06"/>
	</defs>
	<clipPath id="SVGID_28_">
		<use xlink:href="#SVGID_27_"  style="overflow:visible;"/>
	</clipPath>
</g>
</svg>
