<svg id="Layer_1" data-name="Layer 1" xmlns="http://www.w3.org/2000/svg" xmlns:xlink="http://www.w3.org/1999/xlink" viewBox="0 0 90.8 91.4"><defs><style>.cls-1,.cls-4,.cls-6{fill:none;}.cls-2{clip-path:url(#clip-path);}.cls-3{fill:#c2384a;}.cls-4{stroke:#fff0f0;stroke-linecap:round;stroke-linejoin:round;stroke-width:3px;}.cls-5{fill:#ab2e2b;}.cls-6{stroke:#fff791;stroke-miterlimit:10;stroke-width:2px;}</style><clipPath id="clip-path"><rect class="cls-1" x="0.03" y="0.48" width="90.77" height="90.92"/></clipPath></defs><g class="cls-2"><path class="cls-3" d="M89,47.13A44.48,44.48,0,1,1,44.51,2.85,44.37,44.37,0,0,1,89,47.13"/><path class="cls-4" d="M49.18,37.92a10.46,10.46,0,0,0-4.67-1.1,10.31,10.31,0,1,0,10.36,10.3A10.2,10.2,0,0,0,54,43.06m-.36-11a17.53,17.53,0,1,0,6.22,6.37M59.4,25.27A26.38,26.38,0,1,0,71,47.12a26.19,26.19,0,0,0-3.75-13.53"/></g><polyline class="cls-5" points="72.71 18.04 78.97 18.04 89.33 8.16 82.3 1.86 72.71 11.31 72.71 18.04 45.29 46.73"/><g class="cls-2"><polyline class="cls-6" points="72.71 18.04 78.97 18.04 89.33 8.16 82.3 1.86 72.71 11.31 72.71 18.04 45.29 46.73"/></g></svg>