<?xml version="1.0" encoding="utf-8"?>
<!-- Generator: Adobe Illustrator 25.2.1, SVG Export Plug-In . SVG Version: 6.00 Build 0)  -->
<svg version="1.1" id="Layer_1" xmlns="http://www.w3.org/2000/svg" xmlns:xlink="http://www.w3.org/1999/xlink" x="0px" y="0px"
	 viewBox="0 0 808.7 588.6" style="enable-background:new 0 0 808.7 588.6;" xml:space="preserve">
<style type="text/css">
	.st0{clip-path:url(#SVGID_2_);}
	.st1{fill:#F2F0E9;}
	.st2{fill:#FEF0F0;}
	.st3{enable-background:new    ;}
	.st4{fill:#C2384A;}
	.st5{fill:#E34B41;}
</style>
<g>
	<defs>
		<rect id="SVGID_1_" width="808.7" height="588.6"/>
	</defs>
	<clipPath id="SVGID_2_">
		<use xlink:href="#SVGID_1_"  style="overflow:visible;"/>
	</clipPath>
	<g class="st0">
		<g>
			<path class="st1" d="M525.8,588.6c156.2,0,282.9-126.5,282.9-282.5S682.1,23.6,525.8,23.6S243,150.1,243,306.1
				S369.6,588.6,525.8,588.6"/>
		</g>
		<g>
			<path class="st2" d="M313.2,172.5c47.6,0,86.3-38.6,86.3-86.2S360.9,0,313.3,0S227,38.6,227,86.2c0,0,0,0,0,0
				C227,133.9,265.6,172.5,313.2,172.5"/>
		</g>
	</g>
</g>
<g class="st3">
	<path class="st4" d="M39.1,313.1c-12.8,0-22.5-9.9-22.5-22.1s9.8-22.1,22.5-22.1s22.5,9.9,22.5,22.1S51.8,313.1,39.1,313.1z
		 M39.1,277.4c-7,0-12,6-12,13.5s5.1,13.5,12,13.5s12-6,12-13.5S46,277.4,39.1,277.4z"/>
	<path class="st4" d="M90.1,312.3l-0.9-4.2c-2.7,3.7-6.6,4.9-10,4.9c-3.2,0-6.3-1.7-8.4-4.3c-2.7-3.4-2.9-7.6-2.9-12.1v-17h9.9v16.6
		c0,2.1,0,4.6,0.7,6.3c0.7,1.6,2.3,2.3,3.9,2.3c2.1,0,4.8-1.2,6.1-3.4v-21.7h9.9v32.7H90.1z"/>
	<path class="st4" d="M115.3,283.5c1.8-2.8,4.3-4.6,7.4-4.6c1.6,0,3.2,0.4,4.4,0.9l-2.4,8.2c-0.9-0.5-2-0.7-3.1-0.7
		c-2.2,0-4.5,1.2-5.6,3v22.1h-9.9v-32.7h8.4L115.3,283.5z"/>
	<path class="st4" d="M145.1,312.3v-42.7h9.9v34.5H172v8.2H145.1z"/>
	<path class="st4" d="M190.8,313.1c-9.7,0-16.7-6.6-16.7-16.6c0-9.9,7.2-17.6,16.7-17.6c9.2,0,16,6.3,16,15.1c0,1.3-0.2,2.9-0.4,4.5
		h-22.3c0.7,4.1,3.3,6.8,7.3,6.8c4.2,0,6-1.8,8.1-4.7l6.3,4.3C201.9,310.4,197.9,313.1,190.8,313.1z M196.9,292
		c-0.2-3.7-2.6-5.5-5.7-5.5c-3.8,0-5.8,2.3-6.6,5.5H196.9z"/>
	<path class="st4" d="M232.6,312.3l-0.9-2.6c-2,2.5-5.4,3.3-8.6,3.3c-6.1,0-11.8-3.9-11.8-10.6c0-7.9,7.5-10.4,14.2-10.4
		c1.8,0,3.8,0.2,5.6,0.7v-0.2c0-3.8-1.5-6.2-6-6.2c-3.7,0-6.8,1.3-9.7,2.8l-2.6-6.8c4.5-2.2,9.5-3.5,14.5-3.5
		c9,0,13.7,5.3,13.7,13.8v19.6H232.6z M231,298.3c-1.4-0.3-2.6-0.5-3.9-0.5c-3,0-6.2,1.3-6.2,4.8c0,2.4,2.1,4,4.5,4s4-0.9,5.7-2.4
		V298.3z"/>
	<path class="st4" d="M280.4,312.3h-8.3l-1-3.9c-2.3,3.6-6.8,4.6-9.9,4.6c-8.4,0-14.8-7.7-14.8-17.2c0-9.4,6.4-17,14.9-17
		c2.9,0,6.8,0.9,9.3,3.8v-16.1h9.9V312.3z M263.6,287.2c-4.9,0-7.3,4.7-7.3,8.9c0,4.4,2.7,8.7,7.1,8.7c2.5,0,5-0.7,7-3.7v-10.8
		C268.3,287.9,266.1,287.2,263.6,287.2z"/>
	<path class="st4" d="M302.7,313.1c-9.7,0-16.7-6.6-16.7-16.6c0-9.9,7.2-17.6,16.7-17.6c9.2,0,16,6.3,16,15.1c0,1.3-0.2,2.9-0.4,4.5
		h-22.3c0.7,4.1,3.3,6.8,7.3,6.8c4.2,0,6-1.8,8.1-4.7l6.3,4.3C313.9,310.4,309.8,313.1,302.7,313.1z M308.8,292
		c-0.2-3.7-2.6-5.5-5.7-5.5c-3.8,0-5.8,2.3-6.6,5.5H308.8z"/>
	<path class="st4" d="M333.8,283.5c1.8-2.8,4.3-4.6,7.4-4.6c1.6,0,3.2,0.4,4.4,0.9l-2.4,8.2c-0.9-0.5-2-0.7-3.1-0.7
		c-2.2,0-4.5,1.2-5.6,3v22.1h-9.9v-32.7h8.4L333.8,283.5z"/>
	<path class="st4" d="M366.2,289.3c-1.7-1.6-3.8-2.8-6.4-2.8c-1.2,0-2.6,0.6-2.6,1.8c0,1.9,2.2,2.9,4.8,4c4.1,1.7,9.5,3.7,9.5,10.1
		c0,7.2-6.3,10.6-12.8,10.6c-5.3,0-9.9-2.1-13.8-5.8l5.4-5.9c2.6,2.4,4.6,4,7.9,4c1.3,0,3.5-0.6,3.5-2.1c0-2.1-2.9-3.1-6.1-4.6
		c-3.8-1.7-7.9-4-7.9-9.7c0-6.7,5.9-10.1,12.1-10.1c4.5,0,8.5,1.5,11.7,4.6L366.2,289.3z"/>
	<path class="st4" d="M387.7,283c2.7-3,6.2-4.1,9.3-4.1c3.2,0,6.3,1.7,8.4,4.3c2.7,3.4,2.9,7.6,2.9,12.1v17h-9.9v-16.6
		c0-2.1,0-4.6-0.7-6.3c-0.7-1.6-2.3-2.3-3.9-2.3c-2.1,0-4.8,1.2-6.1,3.4v21.7h-9.9v-45.8h9.9V283z"/>
	<path class="st4" d="M415.7,275.7v-7.8h9.9v7.8H415.7z M415.7,312.3v-32.7h9.9v32.7H415.7z"/>
	<path class="st4" d="M441.6,279.6l0.9,4c2.3-3.6,6.8-4.7,10-4.7c8.4,0,14.8,7.7,14.8,17.2c0,9.4-6.4,17-14.9,17
		c-2.9,0-6.9-0.9-9.3-3.8v18.3h-9.9v-47.9H441.6z M443.2,301.7c2.1,2.4,4.3,3.1,6.9,3.1c4.9,0,7.3-4.7,7.3-8.9
		c0-4.4-2.7-8.7-7.1-8.7c-2.6,0-5,0.8-7,3.7V301.7z"/>
</g>
<g class="st3">
	<path class="st4" d="M37.7,375.3l-0.9-2.6c-2,2.5-5.4,3.3-8.6,3.3c-6.1,0-11.8-3.9-11.8-10.6c0-7.9,7.5-10.4,14.2-10.4
		c1.8,0,3.8,0.2,5.6,0.7v-0.2c0-3.8-1.5-6.2-6-6.2c-3.7,0-6.8,1.3-9.7,2.8l-2.6-6.8c4.5-2.2,9.5-3.5,14.5-3.5
		c9,0,13.7,5.3,13.7,13.8v19.6H37.7z M36.1,361.3c-1.4-0.3-2.6-0.5-3.9-0.5c-3,0-6.2,1.3-6.2,4.8c0,2.4,2.1,4,4.5,4s4-0.9,5.7-2.4
		V361.3z"/>
	<path class="st4" d="M61.7,342.6l0.9,4.2c2.7-3.7,6.6-4.9,10-4.9c3.2,0,6.3,1.7,8.4,4.3c2.7,3.4,2.9,7.6,2.9,12.1v17H74v-16.6
		c0-2.1,0-4.6-0.7-6.3c-0.7-1.6-2.3-2.3-3.9-2.3c-2.1,0-4.8,1.2-6.1,3.4v21.7h-9.9v-32.7H61.7z"/>
	<path class="st4" d="M123.4,375.3h-8.3l-1-3.9c-2.3,3.6-6.8,4.6-9.9,4.6c-8.4,0-14.8-7.7-14.8-17.2c0-9.4,6.4-17,14.9-17
		c2.9,0,6.8,0.9,9.3,3.8v-16.1h9.9V375.3z M106.6,350.2c-4.9,0-7.3,4.7-7.3,8.9c0,4.4,2.7,8.7,7.1,8.7c2.5,0,5-0.7,7-3.7v-10.8
		C111.3,350.9,109.1,350.2,106.6,350.2z"/>
</g>
<g class="st3">
	<path class="st4" d="M176.9,344c-2.6-2.1-5.6-3.6-9-3.6c-7.1,0-12.2,6-12.2,13.5c0,7.9,4.3,13.5,12.1,13.5c3.2,0,6.5-1.4,9-3.7
		l5.6,7.1c-4.4,3.4-9.5,5.2-15,5.2c-12.9,0-22.2-9.2-22.2-22.1c0-12.4,10.1-22.1,22.6-22.1c5.2,0,9.3,1.6,13.8,4.5L176.9,344z"/>
</g>
<g class="st3">
	<path class="st4" d="M219.1,359c0,9.6-7.1,17.1-17.3,17.1c-10.1,0-17.3-7.4-17.3-17.1s7.1-17.1,17.3-17.1
		C212,341.9,219.1,349.4,219.1,359z M201.9,350.2c-4.4,0-7.3,3.8-7.3,8.8c0,5,2.9,8.8,7.3,8.8c4.4,0,7.3-3.8,7.3-8.8
		C209.1,354,206.3,350.2,201.9,350.2z"/>
	<path class="st4" d="M234,346.5c1.8-2.8,4.3-4.6,7.4-4.6c1.6,0,3.2,0.4,4.4,0.9l-2.4,8.2c-0.9-0.5-2-0.7-3.1-0.7
		c-2.2,0-4.5,1.2-5.6,3v22.1h-9.9v-32.7h8.4L234,346.5z"/>
	<path class="st4" d="M256.3,342.6l0.9,4c2.3-3.6,6.8-4.7,10-4.7c8.4,0,14.8,7.7,14.8,17.2c0,9.4-6.4,17-14.9,17
		c-2.9,0-6.9-0.9-9.3-3.8v18.3H248v-47.9H256.3z M257.9,364.7c2.1,2.4,4.3,3.1,6.9,3.1c4.9,0,7.3-4.7,7.3-8.9c0-4.4-2.7-8.7-7.1-8.7
		c-2.6,0-5,0.8-7,3.7V364.7z"/>
	<path class="st4" d="M320.3,359c0,9.6-7.1,17.1-17.3,17.1c-10.1,0-17.3-7.4-17.3-17.1s7.1-17.1,17.3-17.1
		C313.1,341.9,320.3,349.4,320.3,359z M303,350.2c-4.4,0-7.3,3.8-7.3,8.8c0,5,2.9,8.8,7.3,8.8c4.4,0,7.3-3.8,7.3-8.8
		C310.3,354,307.4,350.2,303,350.2z"/>
	<path class="st4" d="M335.2,346.5c1.8-2.8,4.3-4.6,7.4-4.6c1.6,0,3.2,0.4,4.4,0.9l-2.4,8.2c-0.9-0.5-2-0.7-3.1-0.7
		c-2.2,0-4.5,1.2-5.6,3v22.1h-9.9v-32.7h8.4L335.2,346.5z"/>
	<path class="st4" d="M369.2,375.3l-0.9-2.6c-2,2.5-5.4,3.3-8.6,3.3c-6.1,0-11.8-3.9-11.8-10.6c0-7.9,7.5-10.4,14.2-10.4
		c1.8,0,3.8,0.2,5.6,0.7v-0.2c0-3.8-1.5-6.2-6-6.2c-3.7,0-6.8,1.3-9.7,2.8l-2.6-6.8c4.5-2.2,9.5-3.5,14.5-3.5
		c9,0,13.7,5.3,13.7,13.8v19.6H369.2z M367.6,361.3c-1.4-0.3-2.6-0.5-3.9-0.5c-3,0-6.2,1.3-6.2,4.8c0,2.4,2.1,4,4.5,4s4-0.9,5.7-2.4
		V361.3z"/>
	<path class="st4" d="M395.4,350.7v12c0,1,0,2,0.2,2.9c0.2,1.3,0.9,2.2,2.3,2.2c1.4,0,2.4-0.3,3.5-0.9l3.1,7.2c-2.3,1.3-5.7,2-8.4,2
		c-5.3,0-9-3-10.1-7.6c-0.4-1.6-0.4-3.4-0.4-5.1v-12.7h-3.7v-8.1h3.7l1.8-7h8.1v7h8.1v8.1H395.4z"/>
	<path class="st4" d="M423.5,376.1c-9.7,0-16.7-6.6-16.7-16.6c0-9.9,7.2-17.6,16.7-17.6c9.2,0,16,6.3,16,15.1c0,1.3-0.2,2.9-0.4,4.5
		h-22.3c0.7,4.1,3.3,6.8,7.3,6.8c4.2,0,6-1.8,8.1-4.7l6.3,4.3C434.6,373.4,430.6,376.1,423.5,376.1z M429.6,355
		c-0.2-3.7-2.6-5.5-5.7-5.5c-3.8,0-5.8,2.3-6.6,5.5H429.6z"/>
</g>
<g class="st3">
	<path class="st4" d="M38.4,421.5v-8.2h19.9v16.8c-4.6,6.3-11.5,8.9-19,8.9c-12.9,0-22.7-9-22.7-22.1c0-12.4,10.1-22.1,22.6-22.1
		c7.5,0,13.6,3,18.5,8.7l-6.8,6c-2.9-3.5-6.8-6.2-11.7-6.2c-7.1,0-12.2,6-12.2,13.5c0,7.9,4.7,13.5,12.1,13.5c3.1,0,6.6-1.3,9.2-3.8
		v-5.2H38.4z"/>
	<path class="st4" d="M98.3,422c0,9.6-7.1,17.1-17.3,17.1c-10.1,0-17.3-7.4-17.3-17.1s7.1-17.1,17.3-17.1
		C91.2,404.9,98.3,412.4,98.3,422z M81,413.2c-4.4,0-7.3,3.8-7.3,8.8c0,5,2.9,8.8,7.3,8.8c4.4,0,7.3-3.8,7.3-8.8
		C88.3,417,85.4,413.2,81,413.2z"/>
</g>
<g class="st3">
	<path class="st4" d="M134.2,405.7l-13.7,32.7h-7.9l-12.3-32.7h10.9l5.8,19h0.1l6-19H134.2z"/>
</g>
<g class="st3">
	<path class="st4" d="M152.7,439.1c-9.7,0-16.7-6.6-16.7-16.6c0-9.9,7.2-17.6,16.7-17.6c9.2,0,16,6.3,16,15.1c0,1.3-0.2,2.9-0.4,4.5
		h-22.3c0.7,4.1,3.3,6.8,7.3,6.8c4.2,0,6-1.8,8.1-4.7l6.3,4.3C163.9,436.4,159.8,439.1,152.7,439.1z M158.8,418
		c-0.2-3.7-2.6-5.5-5.7-5.5c-3.8,0-5.8,2.3-6.6,5.5H158.8z"/>
	<path class="st4" d="M183.8,409.6c1.8-2.8,4.3-4.6,7.4-4.6c1.6,0,3.2,0.4,4.4,0.9l-2.4,8.2c-0.9-0.5-2-0.7-3.1-0.7
		c-2.2,0-4.5,1.2-5.6,3v22.1h-9.9v-32.7h8.4L183.8,409.6z"/>
	<path class="st4" d="M206.1,405.7l0.9,4.2c2.7-3.7,6.6-4.9,10-4.9c3.2,0,6.3,1.7,8.4,4.3c2.7,3.4,2.9,7.6,2.9,12.1v17h-9.9v-16.6
		c0-2.1,0-4.6-0.7-6.3c-0.7-1.6-2.3-2.3-3.9-2.3c-2.1,0-4.8,1.2-6.1,3.4v21.7h-9.9v-32.7H206.1z"/>
	<path class="st4" d="M255.7,438.4l-0.9-2.6c-2,2.5-5.4,3.3-8.6,3.3c-6.1,0-11.8-3.9-11.8-10.6c0-7.9,7.5-10.4,14.2-10.4
		c1.8,0,3.8,0.2,5.6,0.7v-0.2c0-3.8-1.5-6.2-6-6.2c-3.7,0-6.8,1.3-9.7,2.8l-2.6-6.8c4.5-2.2,9.5-3.5,14.5-3.5
		c9,0,13.7,5.3,13.7,13.8v19.6H255.7z M254.1,424.3c-1.4-0.3-2.6-0.5-3.9-0.5c-3,0-6.2,1.3-6.2,4.8c0,2.4,2.1,4,4.5,4s4-0.9,5.7-2.4
		V424.3z"/>
	<path class="st4" d="M279.8,405.7l0.9,4.2c2.7-3.7,6.6-4.9,10-4.9c3.2,0,6.3,1.7,8.4,4.3c2.7,3.4,2.9,7.6,2.9,12.1v17h-9.9v-16.6
		c0-2.1,0-4.6-0.7-6.3c-0.7-1.6-2.3-2.3-3.9-2.3c-2.1,0-4.8,1.2-6.1,3.4v21.7h-9.9v-32.7H279.8z"/>
	<path class="st4" d="M336.3,434.8c-3.5,3.2-7.4,4.3-12.3,4.3c-9.8,0-16.5-7-16.5-17.1c0-9.5,6.6-17.1,16.8-17.1
		c4.8,0,8.8,1.5,12.3,4.5l-5.1,6.6c-1.8-1.8-3.7-2.8-6.2-2.8c-4.6,0-7.7,4-7.7,8.8c0,4.9,3.2,8.8,7.4,8.8c2.6,0,4.1-0.6,6-2.6
		L336.3,434.8z"/>
	<path class="st4" d="M356.1,439.1c-9.7,0-16.7-6.6-16.7-16.6c0-9.9,7.2-17.6,16.7-17.6c9.2,0,16,6.3,16,15.1c0,1.3-0.2,2.9-0.4,4.5
		h-22.3c0.7,4.1,3.3,6.8,7.3,6.8c4.2,0,6-1.8,8.1-4.7l6.3,4.3C367.2,436.4,363.2,439.1,356.1,439.1z M362.2,418
		c-0.2-3.7-2.6-5.5-5.7-5.5c-3.8,0-5.8,2.3-6.6,5.5H362.2z"/>
</g>
<g>
	<rect x="19.7" y="484.9" class="st5" width="520.3" height="9.9"/>
</g>
</svg>
