<?xml version="1.0" encoding="utf-8"?>
<!-- Generator: Adobe Illustrator 25.2.1, SVG Export Plug-In . SVG Version: 6.00 Build 0)  -->
<svg version="1.1" id="Layer_1" xmlns="http://www.w3.org/2000/svg" xmlns:xlink="http://www.w3.org/1999/xlink" x="0px" y="0px"
	 viewBox="0 0 47.94 47.78" style="enable-background:new 0 0 47.94 47.78;" xml:space="preserve">
<style type="text/css">
	.st0{clip-path:url(#SVGID_2_);fill:#FFFFFF;}
	.st1{fill:#EB94A6;}
	.st2{clip-path:url(#SVGID_4_);fill:#C2384A;}
	.st3{clip-path:url(#SVGID_6_);fill:#EB94A6;}
	.st4{clip-path:url(#SVGID_6_);fill:#C2384A;}
	.st5{fill:#C2384A;}
	.st6{clip-path:url(#SVGID_8_);fill:none;stroke:#C2384A;stroke-width:0.706;stroke-miterlimit:10;}
	.st7{clip-path:url(#SVGID_10_);fill:#EB94A6;}
	.st8{clip-path:url(#SVGID_10_);fill:#DEEDF0;}
	.st9{clip-path:url(#SVGID_10_);fill:#C2384A;}
	.st10{clip-path:url(#SVGID_10_);fill:#FFFFFF;}
	.st11{fill:#FFDEDE;}
	.st12{clip-path:url(#SVGID_12_);fill:#EB94A6;}
	.st13{clip-path:url(#SVGID_12_);fill:#C2384A;}
	.st14{clip-path:url(#SVGID_12_);fill:#FFFFFF;}
	.st15{fill:none;stroke:#C2384A;stroke-width:0.754;stroke-miterlimit:10;}
	.st16{clip-path:url(#SVGID_14_);fill:#C2384A;}
	.st17{fill:none;stroke:#C2384A;stroke-width:0.963;stroke-linecap:round;stroke-linejoin:round;stroke-miterlimit:10;}
	.st18{clip-path:url(#SVGID_16_);fill:#C2384A;}
	.st19{clip-path:url(#SVGID_16_);fill:#FFFFFF;}
	.st20{clip-path:url(#SVGID_16_);fill:none;stroke:#C2384A;stroke-width:0.803;stroke-miterlimit:10;}
	.st21{fill:none;stroke:#C2384A;stroke-width:0.803;stroke-linecap:round;stroke-linejoin:round;stroke-miterlimit:10;}
	.st22{clip-path:url(#SVGID_18_);fill:#C2384A;}
	.st23{clip-path:url(#SVGID_20_);fill:#C2384A;}
	.st24{clip-path:url(#SVGID_22_);fill:#C2384A;}
	.st25{fill:#DEEDF0;}
	.st26{clip-path:url(#SVGID_24_);fill:#EB94A6;}
	.st27{clip-path:url(#SVGID_24_);fill:#C2384A;}
	.st28{clip-path:url(#SVGID_26_);fill:#C2384A;}
	.st29{clip-path:url(#SVGID_28_);fill:none;stroke:#C2384A;stroke-width:0.618;stroke-miterlimit:10;}
</style>
<g>
	<defs>
		<rect id="SVGID_1_" x="-351.2" y="-140.68" width="625.5" height="357.06"/>
	</defs>
	<clipPath id="SVGID_2_">
		<use xlink:href="#SVGID_1_"  style="overflow:visible;"/>
	</clipPath>
	<path class="st0" d="M24.27,47.55C37.38,47.55,48,36.93,48,23.82S37.38,0.09,24.27,0.09c-13.11,0-23.73,10.62-23.73,23.73
		S11.16,47.55,24.27,47.55"/>
</g>
<g>
	<defs>
		<rect id="SVGID_3_" x="-351.2" y="-140.68" width="625.5" height="357.06"/>
	</defs>
	<clipPath id="SVGID_4_">
		<use xlink:href="#SVGID_3_"  style="overflow:visible;"/>
	</clipPath>
</g>
<g>
	<defs>
		<rect id="SVGID_5_" x="-351.2" y="-140.68" width="625.5" height="357.06"/>
	</defs>
	<clipPath id="SVGID_6_">
		<use xlink:href="#SVGID_5_"  style="overflow:visible;"/>
	</clipPath>
</g>
<g>
	<defs>
		<rect id="SVGID_7_" x="-351.2" y="-140.68" width="625.5" height="357.06"/>
	</defs>
	<clipPath id="SVGID_8_">
		<use xlink:href="#SVGID_7_"  style="overflow:visible;"/>
	</clipPath>
</g>
<g>
	<defs>
		<rect id="SVGID_9_" x="-351.2" y="-140.68" width="625.5" height="357.06"/>
	</defs>
	<clipPath id="SVGID_10_">
		<use xlink:href="#SVGID_9_"  style="overflow:visible;"/>
	</clipPath>
	<path class="st7" d="M48,25.47v8.58c0,0.5-0.21,1.01-0.63,1.39c-0.42,0.38-0.97,0.57-1.51,0.57h-4.35c0-2.62-2.33-4.74-5.19-4.74
		c-0.29,0-0.58,0.02-0.86,0.06V17.77c0,0,3.5,0.01,5.29,0.26c1.8,0.24,3.67,1.37,5.1,2.68L44.5,21.5c-0.99-0.8-2.18-1.47-3.33-1.62
		c-1.32-0.18-3.89-0.19-3.89-0.19v6.01c0,0.16,0.06,0.32,0.17,0.45c0.12,0.13,0.27,0.21,0.45,0.24l7.68,1.4
		c0.21,0.04,0.45-0.01,0.63-0.15c0.19-0.14,0.28-0.34,0.28-0.54v-1.75c0-0.32-0.04-0.63-0.1-0.94l1.47-0.22
		C47.96,24.61,48,25.04,48,25.47"/>
	<path class="st7" d="M47.87,24.19l-1.47,0.22c-0.2-0.93-0.69-1.82-1.48-2.55c-0.13-0.12-0.27-0.24-0.41-0.35l1.35-0.79
		C46.93,21.7,47.6,22.92,47.87,24.19"/>
	<path class="st8" d="M46.5,25.35v1.75c0,0.21-0.1,0.41-0.28,0.54c-0.18,0.14-0.42,0.19-0.63,0.15l-7.68-1.4
		c-0.17-0.03-0.33-0.11-0.45-0.24c-0.12-0.13-0.17-0.29-0.17-0.45v-6.01c0,0,2.57,0.01,3.89,0.19c1.15,0.16,2.35,0.82,3.33,1.62
		c0.14,0.12,0.28,0.23,0.41,0.35c0.79,0.72,1.29,1.62,1.48,2.55C46.46,24.72,46.5,25.03,46.5,25.35"/>
	<path class="st9" d="M36.32,38.11c1.27,0,2.29-0.94,2.29-2.1c0-1.16-1.03-2.1-2.29-2.1c-0.3,0-0.59,0.05-0.86,0.15
		c-0.42,0.16-0.78,0.42-1.02,0.75c-0.26,0.34-0.41,0.75-0.41,1.19C34.03,37.18,35.05,38.11,36.32,38.11 M40.76,36.01
		c0,2.24-1.98,4.06-4.43,4.06c-2.45,0-4.43-1.82-4.43-4.06c0-0.83,0.28-1.62,0.75-2.26c0.45-0.6,1.07-1.09,1.79-1.4
		c0.32-0.14,0.67-0.24,1.02-0.31c0.28-0.05,0.57-0.08,0.86-0.08C38.77,31.95,40.76,33.77,40.76,36.01"/>
	<path class="st10" d="M38.62,36.01c0,1.17-1.03,2.1-2.29,2.1c-1.27,0-2.3-0.94-2.3-2.1c0-0.44,0.15-0.85,0.41-1.19
		c0.25-0.34,0.61-0.6,1.02-0.75c0.27-0.1,0.56-0.15,0.86-0.15C37.59,33.91,38.62,34.85,38.62,36.01"/>
	<path class="st7" d="M34.44,15.11v16.48c-1.04,0.37-1.92,1.04-2.5,1.89H16.29c-0.92-1.33-2.54-2.22-4.39-2.22
		c-1.85,0-3.48,0.89-4.39,2.22H0.54V15.11H34.44z"/>
</g>
<rect x="0.54" y="14.59" class="st11" width="33.9" height="0.53"/>
<rect x="0.54" y="12.82" class="st1" width="33.9" height="1.77"/>
<g>
	<defs>
		<rect id="SVGID_11_" x="-351.2" y="-140.68" width="625.5" height="357.06"/>
	</defs>
	<clipPath id="SVGID_12_">
		<use xlink:href="#SVGID_11_"  style="overflow:visible;"/>
	</clipPath>
	<path class="st12" d="M16.69,34.19h14.84c-0.26,0.56-0.39,1.18-0.39,1.82H17.08C17.08,35.37,16.95,34.75,16.69,34.19"/>
	<path class="st13" d="M11.9,38.11c1.26,0,2.29-0.94,2.29-2.1c0-0.78-0.47-1.45-1.16-1.82c-0.34-0.18-0.72-0.28-1.14-0.28
		c-0.42,0-0.81,0.1-1.15,0.28c-0.69,0.37-1.15,1.04-1.15,1.82C9.6,37.18,10.63,38.11,11.9,38.11 M15.85,34.19
		c0.31,0.55,0.47,1.17,0.47,1.82c0,2.24-1.98,4.06-4.43,4.06c-2.45,0-4.44-1.82-4.44-4.06c0-0.65,0.17-1.27,0.48-1.82
		c0.08-0.15,0.17-0.3,0.28-0.45c0.07-0.09,0.13-0.18,0.21-0.26c0.81-0.93,2.06-1.53,3.46-1.53c1.4,0,2.65,0.6,3.46,1.53
		c0.07,0.08,0.14,0.17,0.21,0.26C15.68,33.89,15.78,34.04,15.85,34.19"/>
	<path class="st14" d="M14.2,36.01c0,1.17-1.03,2.1-2.29,2.1c-1.27,0-2.3-0.94-2.3-2.1c0-0.78,0.46-1.45,1.15-1.82
		c0.34-0.18,0.73-0.28,1.15-0.28c0.41,0,0.8,0.1,1.13,0.28C13.73,34.56,14.2,35.23,14.2,36.01"/>
	<path class="st12" d="M0.54,34.19h6.57c-0.26,0.56-0.4,1.18-0.4,1.82H1.44c-0.23,0-0.46-0.07-0.64-0.21
		c-0.17-0.15-0.26-0.33-0.26-0.52V34.19z"/>
</g>
<g>
	<defs>
		<rect id="SVGID_13_" x="-351.2" y="-140.68" width="625.5" height="357.06"/>
	</defs>
	<clipPath id="SVGID_14_">
		<use xlink:href="#SVGID_13_"  style="overflow:visible;"/>
	</clipPath>
</g>
<g>
	<defs>
		<rect id="SVGID_15_" x="-351.2" y="-140.68" width="625.5" height="357.06"/>
	</defs>
	<clipPath id="SVGID_16_">
		<use xlink:href="#SVGID_15_"  style="overflow:visible;"/>
	</clipPath>
</g>
<g>
	<defs>
		<rect id="SVGID_17_" x="-351.2" y="-140.68" width="625.5" height="357.06"/>
	</defs>
	<clipPath id="SVGID_18_">
		<use xlink:href="#SVGID_17_"  style="overflow:visible;"/>
	</clipPath>
</g>
<g>
	<defs>
		<rect id="SVGID_19_" x="-351.2" y="-140.68" width="625.5" height="357.06"/>
	</defs>
	<clipPath id="SVGID_20_">
		<use xlink:href="#SVGID_19_"  style="overflow:visible;"/>
	</clipPath>
</g>
<g>
	<defs>
		<rect id="SVGID_21_" x="-351.2" y="-140.68" width="625.5" height="357.06"/>
	</defs>
	<clipPath id="SVGID_22_">
		<use xlink:href="#SVGID_21_"  style="overflow:visible;"/>
	</clipPath>
</g>
<g>
	<defs>
		<rect id="SVGID_23_" x="-351.2" y="-140.68" width="625.5" height="357.06"/>
	</defs>
	<clipPath id="SVGID_24_">
		<use xlink:href="#SVGID_23_"  style="overflow:visible;"/>
	</clipPath>
</g>
<g>
	<defs>
		<rect id="SVGID_25_" x="-351.2" y="-140.68" width="625.5" height="357.06"/>
	</defs>
	<clipPath id="SVGID_26_">
		<use xlink:href="#SVGID_25_"  style="overflow:visible;"/>
	</clipPath>
</g>
<g>
	<defs>
		<rect id="SVGID_27_" x="-351.2" y="-140.68" width="625.5" height="357.06"/>
	</defs>
	<clipPath id="SVGID_28_">
		<use xlink:href="#SVGID_27_"  style="overflow:visible;"/>
	</clipPath>
</g>
</svg>
