<svg id="Layer_1" data-name="Layer 1" xmlns="http://www.w3.org/2000/svg" xmlns:xlink="http://www.w3.org/1999/xlink" viewBox="0 0 54.51 54.51"><defs><style>.cls-1{fill:none;}.cls-2{clip-path:url(#clip-path);}.cls-3{fill:#a60d2e;}.cls-4{fill:#ea94a7;}.cls-5{fill:#fcdede;}</style><clipPath id="clip-path"><rect class="cls-1" width="54.51" height="54.51"/></clipPath></defs><g class="cls-2"><path class="cls-3" d="M27.25,54.51A27.26,27.26,0,1,0,0,27.25,27.25,27.25,0,0,0,27.25,54.51"/><path class="cls-4" d="M16.66,41.62c-1.17-2.37-3.64-3.75-5.86-5.18s-4.5-3.35-4.79-6a1.43,1.43,0,0,1,.13-.93c.44-.74,1.56-.43,2.33-.05l4.11,2.08A41.11,41.11,0,0,1,7,16.79c-.12-.7,0-1.67.66-1.78.45-.06,1,.6,1.21.93,1.77,2.42,5.47,8.16,6.12,9.16-1.22-2.91-3.28-8.25-3.12-11.49,0-.47.08-1.61.62-1.8s1.61,1,2.07,1.57c1.05,1.33,2.75,4,4.18,9.34-.48-2.37-1.89-9.75-.92-12.18.12-.29.42-1,.92-1.09.23,0,.71.09,1.46,1.55,1.35,2.62,2.47,7.42,3,10.07.29-2.17.4-3.93.45-5.12.12-2.73,0-4.85,1-5.26a1,1,0,0,1,.47,0c1.85.25,2.21,9,3.11,14.28a45,45,0,0,0,7,17.26,44.4,44.4,0,0,0-14.45,7.63Z"/><path class="cls-5" d="M23.77,34.05c.27-2.63-1.1-5.11-2.22-7.5s-2-5.23-.88-7.61a1.55,1.55,0,0,1,.6-.73c.77-.38,1.56.47,2,1.2l2.38,3.95a41.39,41.39,0,0,1,3.08-15.5c.27-.66.86-1.44,1.51-1.16.41.18.5,1,.53,1.42.21,3,.3,9.83.31,11,.51-3.11,1.62-8.73,3.47-11.39.27-.39.92-1.32,1.48-1.2S36.87,8.24,37,9c.18,1.68.19,4.85-1.42,10.13.85-2.27,3.58-9.26,5.69-10.8.26-.19.92-.67,1.36-.45.21.11.56.46.42,2.1-.26,2.94-1.86,7.59-2.8,10.14,1.4-1.68,2.44-3.11,3.12-4.1,1.54-2.25,2.56-4.12,3.63-3.92a1,1,0,0,1,.43.2c1.44,1.2-2.89,8.76-5,13.75a45.08,45.08,0,0,0-3.23,18.35,44.58,44.58,0,0,0-16.3-1.22Z"/></g></svg>