<svg id="Layer_1" data-name="Layer 1" xmlns="http://www.w3.org/2000/svg" xmlns:xlink="http://www.w3.org/1999/xlink" viewBox="0 0 54.51 54.51"><defs><style>.cls-1{fill:none;}.cls-2{clip-path:url(#clip-path);}.cls-3{fill:#a60d2e;}.cls-4{fill:#e0e0df;}.cls-5{fill:#faf2f2;}.cls-6{fill:#ceebee;}.cls-7{fill:#8fd4d7;}</style><clipPath id="clip-path"><rect class="cls-1" width="54.51" height="54.51"/></clipPath></defs><g class="cls-2"><path class="cls-3" d="M27.25,54.51A27.26,27.26,0,1,0,0,27.25,27.25,27.25,0,0,0,27.25,54.51"/><path class="cls-4" d="M44.47,22.18c-.18-2.23-.56-5.82.56-7.86,1.3-2.38,3.53.39,3.92,1.7a13,13,0,0,1,.44,2.32c.15,1.35.18,2.73.22,4.09.08,2.75.06,5.51-.07,8.26-.11,2.13.05,10.81-4.12,9-.52-.23-1,.52-.45.75,3,1.32,4.67-1.59,5-4.11a80.4,80.4,0,0,0,.35-17.13c-.16-2.05-1.11-8.2-4.61-7.09-3,.94-2.34,7.91-2.17,10.1,0,.56.94.56.9,0"/><path class="cls-4" d="M10.76,22.18c.18-2.25.81-9-2.11-10.1C5.15,10.79,4.13,17.19,4,19.17a86,86,0,0,0,.31,16.75c.31,2.58,1.86,5.91,5.07,4.49.52-.23.07-1-.45-.75-1.54.68-2.84-.77-3.4-2a8.5,8.5,0,0,1-.41-2.62c-.13-1.29-.21-2.59-.28-3.88-.15-2.92-.19-5.84-.1-8.75,0-1.23.06-2.46.19-3.67A14,14,0,0,1,5.38,16l.56-1.41L9.22,14c.6.54.62,3.22.68,3.89a25.49,25.49,0,0,1,0,4.28c0,.56.85.56.9,0"/><path class="cls-5" d="M47,42.8a136,136,0,0,1-19.33,1.4A136.41,136.41,0,0,1,8,42.8V19.67c5.71-.46,11.86-.75,18.4-.78,7.38,0,14.27.27,20.63.78Z"/><path class="cls-6" d="M47,41.37a169.26,169.26,0,0,1-19.5,1.15A167.31,167.31,0,0,1,8,41.37V21c5.65-.5,11.77-.83,18.31-.86,7.46,0,14.39.3,20.72.86Z"/><path class="cls-7" d="M9.54,25.67a72.1,72.1,0,0,1,8.76-1.34c1.47-.15,2.95-.23,4.42-.32s3-.09,4.44-.1,3,0,4.44.1,2.95.16,4.42.32a71.51,71.51,0,0,1,8.76,1.34c-3,0-5.89-.12-8.83-.18-1.47,0-2.93-.06-4.4-.06s-2.92,0-4.39,0c-2.93,0-5.86,0-8.79.09s-5.87.15-8.83.18"/><path class="cls-7" d="M9.54,36.43c3,0,5.9.12,8.83.18s5.86.1,8.79.09c1.47,0,2.93,0,4.39,0s2.93-.06,4.4-.07c2.94-.06,5.87-.15,8.83-.18A69.63,69.63,0,0,1,36,37.77c-1.47.16-3,.24-4.42.32s-3,.09-4.44.1-3,0-4.44-.1-2.95-.16-4.42-.32a72.1,72.1,0,0,1-8.76-1.34"/><path class="cls-7" d="M9.54,30.82c2.94-.31,5.87-.47,8.81-.58,1.47-.07,2.94-.09,4.41-.13l4.4,0,4.41,0c1.46,0,2.93.06,4.4.13,2.94.11,5.88.27,8.81.58-2.93.31-5.87.47-8.81.58-1.47.07-2.94.09-4.4.13l-4.41,0-4.4,0c-1.47-.05-2.94-.06-4.41-.13-2.94-.11-5.87-.27-8.81-.58"/></g></svg>