<svg id="Layer_1" data-name="Layer 1" xmlns="http://www.w3.org/2000/svg" xmlns:xlink="http://www.w3.org/1999/xlink" viewBox="0 0 54.51 54.51"><defs><style>.cls-1{fill:none;}.cls-2{clip-path:url(#clip-path);}.cls-3{fill:#a60d2e;}.cls-4{fill:#fcdede;}.cls-5{fill:#fef0f0;}.cls-6{fill:#c2384a;}.cls-7{fill:#ea94a7;}.cls-8{fill:#fff;}</style><clipPath id="clip-path"><rect class="cls-1" width="54.51" height="54.51"/></clipPath></defs><g class="cls-2"><path class="cls-3" d="M27.25,54.51A27.26,27.26,0,1,0,0,27.25,27.25,27.25,0,0,0,27.25,54.51"/></g><rect class="cls-4" x="18.58" y="8.89" width="17.25" height="4.84"/><g class="cls-2"><path class="cls-5" d="M38,45.2H16.45a2.71,2.71,0,0,1-2.72-2.69V18.73a5.5,5.5,0,0,1,5.53-5.47h15.9a5.49,5.49,0,0,1,5.52,5.47V42.51A2.71,2.71,0,0,1,38,45.2"/></g><rect class="cls-6" x="17.13" y="7.14" width="19.95" height="4.88"/><rect class="cls-7" x="13.73" y="19.6" width="26.95" height="17.25"/><g class="cls-2"><path class="cls-8" d="M30.65,30.69l-.15.13a3.28,3.28,0,0,1-2.18.84A3,3,0,0,1,26,30.72a3.6,3.6,0,0,1-.86-2.5A3.5,3.5,0,0,1,26,25.78a3,3,0,0,1,2.3-1,3.48,3.48,0,0,1,2.14.79l.17.12,1.27-2-.16-.09a6.51,6.51,0,0,0-3.42-1.07,5.89,5.89,0,0,0-4.21,1.65,5.37,5.37,0,0,0-1.74,4.06A5.51,5.51,0,0,0,24,32.34a5.85,5.85,0,0,0,4.2,1.6A6.09,6.09,0,0,0,32,32.7l.15-.12Z"/></g></svg>