<svg id="Layer_1" data-name="Layer 1" xmlns="http://www.w3.org/2000/svg" xmlns:xlink="http://www.w3.org/1999/xlink" viewBox="0 0 54.51 54.51"><defs><style>.cls-1,.cls-6{fill:none;}.cls-2{clip-path:url(#clip-path);}.cls-3{fill:#a60d2e;}.cls-4{fill:#e0e0df;}.cls-5{fill:#faf2f2;}.cls-6{stroke:#c7c6c5;stroke-linecap:round;stroke-linejoin:round;stroke-width:5px;}</style><clipPath id="clip-path"><rect class="cls-1" width="54.51" height="54.51"/></clipPath></defs><g class="cls-2"><path class="cls-3" d="M27.25,54.51A27.26,27.26,0,1,0,0,27.25,27.25,27.25,0,0,0,27.25,54.51"/><path class="cls-4" d="M42.64,22.24a28.63,28.63,0,0,1,0-4.63A22.31,22.31,0,0,1,43,14.8c.23-1.16.59-3.81,3.22-2.05,1.89,1.26,2.11,5.11,2,7.11-.12,4.27-.33,8.54-.5,12.81-.06,1.4.09,3.37-.9,4.52-2.14,2.46-6.68,1.29-9.21.45-.49-.16-.69.59-.21.75,2.87,1,7.81,2,10.11-.8,1.36-1.68,1-4.75,1.05-6.72.1-3.11.2-6.21.36-9.31.14-2.81.17-5.65-1.32-8.16-.93-1.58-3-3.21-4.54-1.32-.87,1.08-1,2.88-1.14,4.18a28.46,28.46,0,0,0-.11,6c0,.49.83.5.79,0"/><path class="cls-4" d="M12.67,22.24a28.46,28.46,0,0,0-.1-6c-.17-1.26-.27-3-1.08-4.1-1.27-1.71-3.16-.77-4.22.63C5.57,15,5.39,18,5.52,20.72c.16,3.18.31,6.35.51,9.52.12,2-.14,5.35,1.19,7.09,1.83,2.38,5.8,1,7.93,0,.46-.2.06-.88-.39-.67-1.79.8-5.51,2.23-7,.07-.88-1.28-.75-3.49-.86-5-.29-4-.57-8.1-.66-12.14a13.26,13.26,0,0,1,.29-3.14,9.6,9.6,0,0,1,.7-2.1C8,12.94,8,12.68,9.77,13.1s1.49.33,1.77,1.7a26.7,26.7,0,0,1,.38,2.81,27.54,27.54,0,0,1,0,4.63c0,.5.75.49.79,0"/><path class="cls-5" d="M27.4,50c-5.82-.23-9.7-5.21-12.57-8.89A28.49,28.49,0,0,1,9.45,28.56c-.53-3.26-1-6.18.65-8.78.42-.65,1.2-1.66,7.64-4.61,5.32-2.43,8-3.65,10.16-3.58,1.17,0,3.71,1.08,8.73,3.16,6.18,2.56,6.81,3,7.43,3.77,2.16,2.63,1.91,6.05,1.65,9.42a24.47,24.47,0,0,1-4,12.15c-1.64,2.44-6.83,10.2-14.31,9.9"/><path class="cls-6" d="M18.39,17.05c2.07-.2,3.7-.42,4.82-.58a26.92,26.92,0,0,1,4.6-.54,26.77,26.77,0,0,1,4,.54c1.83.28,3.4.45,4.41.54"/><path class="cls-4" d="M12.51,21.13a30.81,30.81,0,0,1,3.87.77c1.26.32,2.51.7,3.74,1.11s2.45.88,3.65,1.39a29.63,29.63,0,0,1,3.52,1.76,30.79,30.79,0,0,1-3.87-.76c-1.26-.33-2.51-.7-3.74-1.12s-2.45-.89-3.65-1.4a31.15,31.15,0,0,1-3.52-1.75"/><path class="cls-4" d="M12.51,35.08a37.63,37.63,0,0,1,4,2.19c1.3.78,2.55,1.62,3.78,2.49s2.44,1.78,3.61,2.73a38.76,38.76,0,0,1,3.39,3,37.63,37.63,0,0,1-4-2.19c-1.3-.78-2.55-1.62-3.78-2.49s-2.44-1.78-3.61-2.74a40.32,40.32,0,0,1-3.39-3"/><path class="cls-4" d="M42.53,21.13A30.47,30.47,0,0,1,39,22.88c-1.19.51-2.41,1-3.64,1.4s-2.48.79-3.74,1.12a30.79,30.79,0,0,1-3.87.76,29.63,29.63,0,0,1,3.52-1.76c1.2-.51,2.42-1,3.65-1.39s2.48-.79,3.74-1.11a30.81,30.81,0,0,1,3.87-.77"/><path class="cls-4" d="M42.53,35.08a40.32,40.32,0,0,1-3.39,3c-1.17,1-2.38,1.86-3.61,2.74s-2.48,1.71-3.78,2.49a37.63,37.63,0,0,1-4,2.19,37.37,37.37,0,0,1,3.39-3q1.76-1.43,3.61-2.73c1.23-.87,2.48-1.71,3.78-2.49a37.63,37.63,0,0,1,4-2.19"/></g></svg>