<svg id="Layer_1" data-name="Layer 1" xmlns="http://www.w3.org/2000/svg" xmlns:xlink="http://www.w3.org/1999/xlink" viewBox="0 0 54.51 54.51"><defs><style>.cls-1{fill:none;}.cls-2{clip-path:url(#clip-path);}.cls-3{fill:#a60d2e;}.cls-4{fill:#eee9d8;}.cls-5{fill:#c2384a;}</style><clipPath id="clip-path"><rect class="cls-1" width="54.51" height="54.51"/></clipPath></defs><g class="cls-2"><path class="cls-3" d="M27.25,54.51A27.26,27.26,0,1,0,0,27.25,27.25,27.25,0,0,0,27.25,54.51"/><path class="cls-4" d="M9.53,26v14.1a3.73,3.73,0,0,0,3.71,3.75h25A3.73,3.73,0,0,0,42,40.06V14.69a3.73,3.73,0,0,0-3.71-3.75H23.13Z"/><path class="cls-4" d="M40.7,16.17V30.56l7.06-9.85a2.86,2.86,0,0,0-2.29-4.54Z"/></g><rect class="cls-5" x="29.8" y="8.14" width="6.49" height="2.79"/><rect class="cls-5" x="24.55" y="22.2" width="3.65" height="13.52"/><rect class="cls-5" x="19.7" y="27.11" width="13.34" height="3.7"/><g class="cls-2"><path class="cls-4" d="M11.57,29h-2v-15a3,3,0,0,1,3-3H23.13V13H14.52a3,3,0,0,0-2.95,3Z"/></g></svg>