<svg id="Layer_1" data-name="Layer 1" xmlns="http://www.w3.org/2000/svg" xmlns:xlink="http://www.w3.org/1999/xlink" viewBox="0 0 77.26 77.26"><defs><style>.cls-1{fill:none;}.cls-2{clip-path:url(#clip-path);}.cls-3{fill:#fff;}.cls-4{fill:#3950a2;}.cls-5{fill:#fdce07;}.cls-6{fill:#ab2e2b;}.cls-7{fill:#c2404e;}</style><clipPath id="clip-path"><rect class="cls-1" width="77.26" height="77.26"/></clipPath></defs><g class="cls-2"><path class="cls-3" d="M38.63,77.26A38.63,38.63,0,1,0,0,38.63,38.64,38.64,0,0,0,38.63,77.26"/></g><polygon class="cls-4" points="51.07 65.06 11.79 65.06 5.39 49.88 57.51 49.88 51.07 65.06"/><polygon class="cls-5" points="11.83 35.34 51.1 35.34 57.51 50.52 5.38 50.52 11.83 35.34"/><g class="cls-2"><path class="cls-6" d="M60.84,37.72a9.37,9.37,0,0,1-9.36-9.36v-12a2.12,2.12,0,1,1,4.23,0v12a5.13,5.13,0,1,0,10.26,0v-12a2.12,2.12,0,1,1,4.23,0v12a9.37,9.37,0,0,1-9.36,9.36"/><path class="cls-6" d="M60.84,65.45a2.12,2.12,0,0,1-2.12-2.12v-47a2.12,2.12,0,1,1,4.23,0v47a2.12,2.12,0,0,1-2.11,2.12"/><path class="cls-7" d="M55.67,23.83C55.67,29.45,52.33,34,48.2,34s-7.46-4.56-7.46-10.18,3.34-10.18,7.46-10.18,7.47,4.55,7.47,10.18"/><path class="cls-7" d="M48.2,65.45a2.12,2.12,0,0,1-2.11-2.12v-35a2.12,2.12,0,0,1,4.23,0v35a2.12,2.12,0,0,1-2.12,2.12"/></g></svg>