<svg id="Layer_1" data-name="Layer 1" xmlns="http://www.w3.org/2000/svg" xmlns:xlink="http://www.w3.org/1999/xlink" viewBox="0 0 77.26 77.26"><defs><style>.cls-1{fill:none;}.cls-2{clip-path:url(#clip-path);}.cls-3{fill:#fff;}.cls-4{fill:#fcdede;}.cls-5{fill:#ea94a7;}.cls-6{fill:#fef0f0;}.cls-7{fill:#c2384a;}</style><clipPath id="clip-path"><rect class="cls-1" width="77.26" height="77.26"/></clipPath></defs><g class="cls-2"><path class="cls-3" d="M38.63,77.26A38.63,38.63,0,1,0,0,38.63,38.64,38.64,0,0,0,38.63,77.26"/></g><rect class="cls-4" x="27.47" y="19.96" width="40.02" height="40.29"/><rect class="cls-5" x="41.77" y="51" width="11.41" height="9.25"/><rect class="cls-3" x="61.49" y="28.29" width="2.42" height="19.61"/><rect class="cls-3" x="55.73" y="28.29" width="2.42" height="19.61"/><rect class="cls-3" x="49.82" y="28.32" width="2.42" height="19.61"/><rect class="cls-3" x="43.51" y="28.32" width="2.42" height="19.61"/><rect class="cls-3" x="37.2" y="28.32" width="2.42" height="19.61"/><rect class="cls-3" x="31.49" y="28.32" width="2.42" height="19.61"/><rect class="cls-6" x="9.04" y="33.55" width="37.29" height="26.7"/><g class="cls-2"><path class="cls-6" d="M55.73,19.05a6.89,6.89,0,0,0-13.77,0,6.89,6.89,0,0,0,13.77,0"/></g><rect class="cls-7" x="47.72" y="15.04" width="2.26" height="8.01"/><rect class="cls-7" x="44.71" y="17.95" width="8.26" height="2.19"/><rect class="cls-4" x="21.63" y="51" width="11.69" height="9.25"/><rect class="cls-4" x="11.89" y="44.35" width="31.16" height="2.59"/><rect class="cls-4" x="11.89" y="38.81" width="31.16" height="2.59"/></svg>