<svg id="Layer_1" data-name="Layer 1" xmlns="http://www.w3.org/2000/svg" xmlns:xlink="http://www.w3.org/1999/xlink" viewBox="0 0 77.26 77.26"><defs><style>.cls-1{fill:none;}.cls-2{clip-path:url(#clip-path);}.cls-3{fill:#fff;}.cls-4{fill:#fcdede;}.cls-5{fill:#c2384a;}.cls-6{fill:#fdf495;}.cls-7{fill:#fef0f0;}.cls-8{fill:#ea94a7;}</style><clipPath id="clip-path"><rect class="cls-1" width="77.26" height="77.26"/></clipPath></defs><g class="cls-2"><path class="cls-3" d="M38.63,77.26A38.63,38.63,0,1,0,0,38.63,38.64,38.64,0,0,0,38.63,77.26"/><path class="cls-4" d="M14.49,65.45c-1.43-14.53,10.58-27,24.94-27.08S66,50.86,64.54,65.45Z"/><path class="cls-5" d="M44.46,38.87c12.08,2.47,21.35,13.72,20.08,26.58H14.49C13.28,53.16,21.69,42.32,33,39.24l5.92,12.92Z"/><path class="cls-6" d="M48.88,57a.7.7,0,0,1-.64-1A18,18,0,0,0,50,46.64a17.6,17.6,0,0,0-1.74-6.14.67.67,0,0,1,.34-.9.7.7,0,0,1,.93.32,18.87,18.87,0,0,1,1.87,6.6,19.29,19.29,0,0,1-1.87,10.13.71.71,0,0,1-.63.39"/><path class="cls-6" d="M29.19,50a.7.7,0,0,1-.67-.47,16.1,16.1,0,0,1-.71-5.77A15.17,15.17,0,0,1,28.53,40a.68.68,0,0,1,.87-.44.66.66,0,0,1,.46.84,14,14,0,0,0-.64,3.44,14.42,14.42,0,0,0,.65,5.29.68.68,0,0,1-.47.84.76.76,0,0,1-.21,0"/><path class="cls-6" d="M52.14,56.36a3.27,3.27,0,1,0-3.26,3.14,3.2,3.2,0,0,0,3.26-3.14"/><path class="cls-6" d="M29.15,61.53a.67.67,0,0,1-.31-.07.69.69,0,0,1-.36-.39c-.56-1.65-3.22-10,0-11.83a2.8,2.8,0,0,1,1.39-.36c1.71,0,3.28,1.66,4.67,4.85a33.09,33.09,0,0,1,1.62,4.81.68.68,0,0,1-.44.78l-1.41.51a.71.71,0,0,1-.9-.4.67.67,0,0,1,.41-.87l.82-.3c-.87-3.31-2.8-8-4.79-8a1.29,1.29,0,0,0-.64.16c-1.64,1-.68,6.14.42,9.6l.67-.23a.71.71,0,0,1,.9.41.66.66,0,0,1-.43.86l-1.36.46a.59.59,0,0,1-.23,0"/><path class="cls-7" d="M58.39,23.38C58.39,13,49.67,4.65,38.92,4.65S19.46,13,19.46,23.38s8.71,18.74,19.46,18.74,19.47-8.39,19.47-18.74"/><path class="cls-8" d="M52.26,37a26.52,26.52,0,0,1-13.57,3.74A26.72,26.72,0,0,1,25.57,37a10.93,10.93,0,0,1-5.84-10.53A34.19,34.19,0,0,0,31.06,24.6c2.65-.93,4.1-1.85,6.76-1.89,3.14,0,4.82,1.66,7.41,2.1a100.89,100.89,0,0,0,13,.73,11.74,11.74,0,0,1-1.36,6.7A12.47,12.47,0,0,1,52.26,37"/><path class="cls-8" d="M47.48,4.65H30.85A10.63,10.63,0,0,0,20,15.07v3.78a52.56,52.56,0,0,1,38.28,0V15.07A10.62,10.62,0,0,0,47.48,4.65"/></g></svg>