<svg id="Layer_1" data-name="Layer 1" xmlns="http://www.w3.org/2000/svg" xmlns:xlink="http://www.w3.org/1999/xlink" viewBox="0 0 77.26 77.26"><defs><style>.cls-1{fill:none;}.cls-2{clip-path:url(#clip-path);}.cls-3{fill:#fff;}.cls-4{fill:#fcdede;}.cls-5{fill:#fef0f0;}.cls-6{fill:#ea94a7;}</style><clipPath id="clip-path"><rect class="cls-1" width="77.26" height="77.26"/></clipPath></defs><g class="cls-2"><path class="cls-3" d="M38.63,77.26A38.63,38.63,0,1,0,0,38.63,38.64,38.64,0,0,0,38.63,77.26"/><path class="cls-4" d="M67.09,40.26C67.09,56,54,68.67,37.86,68.67S8.64,56,8.64,40.26,21.72,11.84,37.86,11.84,67.09,24.56,67.09,40.26"/><path class="cls-5" d="M62.55,40.26c0,13.25-11,24-24.69,24s-24.68-10.75-24.68-24,11.05-24,24.68-24S62.55,27,62.55,40.26"/><path class="cls-6" d="M28.07,37.71A11.39,11.39,0,0,1,16.54,26.49V12.1a2.61,2.61,0,0,1,5.21,0V26.49a6.32,6.32,0,0,0,12.64,0V12.1a2.61,2.61,0,0,1,5.22,0V26.49A11.4,11.4,0,0,1,28.07,37.71"/><path class="cls-6" d="M28.07,71a2.57,2.57,0,0,1-2.6-2.54V12.1a2.61,2.61,0,0,1,5.21,0V68.41A2.58,2.58,0,0,1,28.07,71"/><path class="cls-6" d="M59.9,18.79c0,6.74-4.12,12.2-9.2,12.2s-9.2-5.46-9.2-12.2,4.12-12.2,9.2-12.2,9.2,5.46,9.2,12.2"/><path class="cls-6" d="M50.7,68.67a2.57,2.57,0,0,1-2.61-2.53v-42a2.61,2.61,0,0,1,5.22,0v42a2.57,2.57,0,0,1-2.61,2.53"/></g></svg>