<svg id="Layer_1" data-name="Layer 1" xmlns="http://www.w3.org/2000/svg" xmlns:xlink="http://www.w3.org/1999/xlink" viewBox="0 0 54.51 54.51"><defs><style>.cls-1{fill:none;}.cls-2{clip-path:url(#clip-path);}.cls-3{fill:#a60d2e;}.cls-4{fill:#fcdede;}.cls-5{fill:#32121a;}.cls-6{fill:#c2384a;}.cls-7{fill:#a5daeb;}.cls-8{fill:#d0e9f2;}.cls-9{fill:#d3dce4;}.cls-10{fill:#69656a;}.cls-11{fill:#bc8c8b;}.cls-12{fill:#a6d8ea;}.cls-13{fill:#fdf495;}</style><clipPath id="clip-path"><rect class="cls-1" width="54.51" height="54.51"/></clipPath></defs><g class="cls-2"><path class="cls-3" d="M27.25,54.51A27.26,27.26,0,1,0,0,27.25,27.25,27.25,0,0,0,27.25,54.51"/><path class="cls-4" d="M38.74,14.61c0-7.13-5.09-12.91-11.38-12.91S16,7.48,16,14.61s5.1,12.92,11.39,12.92,11.38-5.79,11.38-12.92"/><path class="cls-5" d="M16.48,9.21C16.48,6,19.61.66,27,.66S37.81,6,37.81,9.21Z"/><path class="cls-4" d="M8.82,46.09c-1.09-11.56,8.1-21.5,19.09-21.54s20.31,9.93,19.21,21.54H8.82"/><path class="cls-6" d="M31.75,25A19.79,19.79,0,0,1,47.12,46.09H8.82A19.83,19.83,0,0,1,23,25.24l4.53,10.28Z"/><path class="cls-7" d="M35.16,24a13.88,13.88,0,0,1-7.94,2.58A14,14,0,0,1,19.54,24a6.82,6.82,0,0,1-2-2,8.9,8.9,0,0,1-1.38-5.26,17.34,17.34,0,0,0,6.63-1.29c1.56-.64,2.4-1.28,4-1.3,1.84,0,2.82,1.14,4.34,1.45a51.06,51.06,0,0,0,7.62.5,9.37,9.37,0,0,1-.8,4.61A8,8,0,0,1,35.16,24"/></g><rect class="cls-7" x="16.18" y="4.48" width="22.43" height="1.21"/><g class="cls-2"><path class="cls-8" d="M37.73,5.69h-1a7.25,7.25,0,0,1,1.08,3.52h-.1a13.45,13.45,0,0,1,.45,1.31Zm-20.23,0h-.7l-.22,2.5a8,8,0,0,1,.92-2.5M17,9.21h-.52l-.21,2.41A13.73,13.73,0,0,1,17,9.21M16,15l-.68,7.67a4.85,4.85,0,0,0,3.14,4.53,18.89,18.89,0,0,1,3.11-1.49,11.36,11.36,0,0,1-2-1.73,6.76,6.76,0,0,1-2-2,8.84,8.84,0,0,1-1.38-5.25A16.54,16.54,0,0,1,16,15m22.72,1.45a9.38,9.38,0,0,1-.82,4.25A8,8,0,0,1,35.17,24a11.29,11.29,0,0,1-1.59,1.43,19.07,19.07,0,0,1,3.28,1.41,4.81,4.81,0,0,0,2.38-4.16Z"/><path class="cls-9" d="M37.71,9.21H17a13.73,13.73,0,0,0-.73,2.41L16,15a16.13,16.13,0,0,0,.15,1.73h0a17.25,17.25,0,0,0,6.64-1.29c1.55-.64,2.39-1.28,3.95-1.3h.06c1.8,0,2.78,1.14,4.28,1.45a58,58,0,0,0,7,.53,5.07,5.07,0,0,0,.66,0l-.5-5.58c-.13-.45-.28-.88-.45-1.31M19.53,24a11.36,11.36,0,0,0,2,1.73l.65-.23A11.2,11.2,0,0,1,19.54,24h0m15.64,0h0A10.2,10.2,0,0,1,33,25.27l.55.16A11.29,11.29,0,0,0,35.17,24"/><path class="cls-10" d="M36.72,5.69H17.5a8,8,0,0,0-.92,2.5l-.09,1H37.81a7.17,7.17,0,0,0-1.09-3.52"/><path class="cls-9" d="M33,25.27h0a18.58,18.58,0,0,1,3.83,1.57,19.07,19.07,0,0,0-3.28-1.41L33,25.27m-10.84.22-.65.23a18.89,18.89,0,0,0-3.11,1.49,18.77,18.77,0,0,1,3.76-1.72m1.08.4L24,27.51h6.74l.63-1.59a12.89,12.89,0,0,1-4,.67h-.14a13.33,13.33,0,0,1-3.95-.7"/><path class="cls-11" d="M33,25.27a17.2,17.2,0,0,1-1.67.65l-.63,1.59h3.68a4.76,4.76,0,0,0,2.45-.67A18.58,18.58,0,0,0,33,25.27m-10.84.22a18.77,18.77,0,0,0-3.76,1.72,4.79,4.79,0,0,0,1.7.3H24l-.72-1.62c-.38-.13-.74-.26-1.08-.4"/><path class="cls-12" d="M26.77,14.15h-.06c-1.56,0-2.4.66-3.95,1.3a17.44,17.44,0,0,1-6.64,1.29h0A8.84,8.84,0,0,0,17.5,22a6.76,6.76,0,0,0,2,2h0a11.2,11.2,0,0,0,2.65,1.49c.34.14.7.27,1.08.4a13.33,13.33,0,0,0,3.95.7h.14a12.89,12.89,0,0,0,4-.67A15,15,0,0,0,33,25.27,10.2,10.2,0,0,0,35.16,24h0a8,8,0,0,0,2.7-3.29,9.38,9.38,0,0,0,.82-4.25l0-.36a5.07,5.07,0,0,1-.66,0,58,58,0,0,1-6.95-.53c-1.5-.31-2.48-1.45-4.28-1.45"/></g><rect class="cls-13" x="32.76" y="37.35" width="7.02" height="1"/><polyline class="cls-7" points="16 14.19 17.04 17.14 17.26 17.07 16.22 14.11"/><polyline class="cls-7" points="38.66 14.11 37.63 17.07 37.85 17.14 38.89 14.19"/></svg>