<svg id="Layer_1" data-name="Layer 1" xmlns="http://www.w3.org/2000/svg" xmlns:xlink="http://www.w3.org/1999/xlink" viewBox="0 0 54.51 54.51"><defs><style>.cls-1,.cls-6{fill:none;}.cls-2{clip-path:url(#clip-path);}.cls-3{fill:#a60d2e;}.cls-4{fill:#ea94a7;}.cls-5{fill:#fef0f0;}.cls-6{stroke:#c2384a;stroke-linecap:round;stroke-linejoin:round;stroke-width:3px;}</style><clipPath id="clip-path"><rect class="cls-1" width="54.51" height="54.51"/></clipPath></defs><g class="cls-2"><path class="cls-3" d="M27.25,54.51A27.26,27.26,0,1,0,0,27.25,27.25,27.25,0,0,0,27.25,54.51"/><path class="cls-4" d="M30,7.43h0a2.4,2.4,0,0,1,4.43.94A2.39,2.39,0,0,0,38.14,10,2.39,2.39,0,0,1,41.8,12.7a2.39,2.39,0,0,0,2.74,3.05,2.39,2.39,0,0,1,2.26,3.92,2.39,2.39,0,0,0,1.27,3.9,2.39,2.39,0,0,1,.47,4.5,2.39,2.39,0,0,0-.42,4.08,2.39,2.39,0,0,1-1.4,4.3,2.38,2.38,0,0,0-2,3.55,2.39,2.39,0,0,1-3,3.36,2.4,2.4,0,0,0-3.32,2.42,2.39,2.39,0,0,1-4.13,1.84,2.39,2.39,0,0,0-4,.85,2.39,2.39,0,0,1-4.52,0,2.38,2.38,0,0,0-4-.85,2.39,2.39,0,0,1-4.13-1.84,2.4,2.4,0,0,0-3.32-2.42,2.39,2.39,0,0,1-3-3.36,2.39,2.39,0,0,0-2.05-3.55,2.39,2.39,0,0,1-1.4-4.3,2.39,2.39,0,0,0-.43-4.08,2.39,2.39,0,0,1,.47-4.5A2.39,2.39,0,0,0,9,19.67a2.39,2.39,0,0,1,2.26-3.92A2.39,2.39,0,0,0,14,12.7,2.39,2.39,0,0,1,17.69,10a2.39,2.39,0,0,0,3.75-1.67,2.39,2.39,0,0,1,4.42-.94,2.38,2.38,0,0,0,4.1,0"/><path class="cls-5" d="M43.93,28.18a16,16,0,1,0-16,16,16,16,0,0,0,16-16"/></g><polyline class="cls-6" points="20.05 28.33 25.59 33.2 35.77 24.26"/></svg>