<?xml version="1.0" encoding="UTF-8" standalone="no"?>
<svg
   xmlns:dc="http://purl.org/dc/elements/1.1/"
   xmlns:cc="http://creativecommons.org/ns#"
   xmlns:rdf="http://www.w3.org/1999/02/22-rdf-syntax-ns#"
   xmlns:svg="http://www.w3.org/2000/svg"
   xmlns="http://www.w3.org/2000/svg"
   xmlns:sodipodi="http://sodipodi.sourceforge.net/DTD/sodipodi-0.dtd"
   xmlns:inkscape="http://www.inkscape.org/namespaces/inkscape"
   version="1.0"
   width="320"
   height="119.64069"
   viewBox="0 0 3200 1196.4069"
   preserveAspectRatio="xMidYMid meet"
   id="svg3031"
   inkscape:version="0.48.5 r10040"
   sodipodi:docname="Philippine Stock Exchange (PSE).svg">
  <title
     id="title3881">Philippine Stock Exchange (PSE)</title>
  <metadata
     id="metadata3075">
    <rdf:RDF>
      <cc:Work
         rdf:about="">
        <dc:format>image/svg+xml</dc:format>
        <dc:type
           rdf:resource="http://purl.org/dc/dcmitype/StillImage" />
        <dc:title>Philippine Stock Exchange (PSE)</dc:title>
      </cc:Work>
    </rdf:RDF>
  </metadata>
  <defs
     id="defs3073" />
  <sodipodi:namedview
     pagecolor="#ffffff"
     bordercolor="#666666"
     borderopacity="1"
     objecttolerance="10"
     gridtolerance="10"
     guidetolerance="10"
     inkscape:pageopacity="0"
     inkscape:pageshadow="2"
     inkscape:window-width="1366"
     inkscape:window-height="705"
     id="namedview3071"
     showgrid="false"
     fit-margin-top="0"
     fit-margin-left="0"
     fit-margin-right="0"
     fit-margin-bottom="0"
     inkscape:zoom="1.884375"
     inkscape:cx="168.9979"
     inkscape:cy="42.101161"
     inkscape:window-x="-8"
     inkscape:window-y="-8"
     inkscape:window-maximized="1"
     inkscape:current-layer="svg3031" />
  <g
     id="g3864">
    <path
       d="m 1963.4217,1193.31 c -61.4161,-7.9246 -115.2378,-26.7457 -158.8235,-55.4726 -82.5486,-54.4821 -133.0684,-142.97418 -141.6534,-246.98548 l -2.3114,-27.4061 124.1531,0 124.1531,0 0,9.5756 c 0,5.2831 2.9718,18.8211 6.6039,30.3779 10.2361,32.6893 30.3779,55.4727 61.7464,70.0012 13.2078,5.9435 21.4626,7.2643 52.1707,7.2643 33.6799,0 37.9724,-0.6604 58.1142,-10.236 39.9536,-18.8211 61.7464,-50.85 65.0484,-93.7752 2.9717,-41.6046 -13.8682,-80.5675 -48.8688,-113.2567 -28.7269,-27.076 -51.1802,-39.9536 -155.1914,-88.4922 -124.8135,-58.1142 -147.5969,-71.6522 -190.192,-115.8982 -50.85,-51.8405 -77.2655,-108.3038 -87.5016,-185.8995 -10.5662,-80.2373 12.2172,-173.6823 57.7841,-237.0796 16.5097,-23.1136 52.5009,-58.774599 74.6239,-73.963599 37.9724,-25.7551 90.1431,-45.897 146.6064,-56.1329997 45.2366,-8.5851 147.5969,-7.5945 191.8429,1.3207 89.8129,18.8210997 159.484,61.0859997 205.0508,125.4738987 33.6798,46.5575 57.4538,116.8889 57.4538,168.069 l 0,27.7363 -120.1908,0 -120.1907,0 -1.3208,-18.821 c -2.6416,-38.6328 -29.0571,-77.2655 -64.3879,-95.4262 -17.5003,-8.9153 -22.1231,-9.5757 -53.8217,-9.5757 -30.7081,0 -36.9818,0.9906 -53.4915,8.9153 -50.1896,23.4438 -77.2655,73.3031 -68.3503,127.7852 4.6227,30.7081 16.1795,53.4915 38.3026,76.9353 32.6892,34.3403 47.8782,42.9253 185.5693,107.3132 44.5762,20.4721 93.445,45.8971 108.6339,56.1331 71.322,47.548 116.2285,108.3038 138.3515,187.8806 8.5851,30.3779 9.2455,36.9818 8.9153,93.7753 0,51.8405 -0.9906,65.0483 -6.9341,86.5109 -39.9536,142.97418 -142.9742,226.18318 -300.8072,243.35328 -38.9629,4.2926 -97.7375,3.9624 -131.0872,0 z"
       id="path3034"
       inkscape:connector-curvature="0"
       style="fill:#131b4d;stroke:none" />
    <path
       d="m 279.43003,1082.6949 c -88.8223,-61.086 -172.6917,-119.20018 -185.899504,-129.10598 -48.20839,-36.6516 -80.89764,-82.2185 -89.8128902,-124.1532 -2.31136,-11.887 -3.30194999,-64.0577 -2.64156,-158.1631 l 0.99059,-140.0025 12.8775802,-26.4155 c 18.49089,-37.312 63.06714,-80.2373 133.398584,-128.4457 29.3873,-19.8116 53.1613,-37.3119 53.4915,-38.3025 0,-0.9906 -12.5474,-10.236 -27.7363,-20.8023 -32.0289,-21.4626 -49.199,-39.2931 -59.4351,-61.0859 -6.6038,-14.5286 -6.934,-20.8023 -7.9246,-135.0496 L 105.74773,0.97782129 136.45583,22.110321 c 206.0413,140.662799 318.6376,219.249099 339.1097,237.079599 29.0571,25.425 57.1236,64.0577 65.3785,91.7941 5.2831,16.8399 5.9435,34.3402 5.9435,166.0878 l 0,146.9365 -12.2172,24.7646 c -21.7928,43.2555 -58.7746,78.5863 -143.9648,136.7005 -23.774,16.5097 -43.2555,30.7081 -43.5857,31.6987 0,1.3208 13.2078,11.2266 29.3874,22.4532 33.6798,22.7834 44.246,34.01 56.133,59.7652 8.5851,18.1607 8.5851,19.1513 9.5757,110.61508 0.6603,50.85 0.6603,104.0113 0,118.2097 l -0.9906,25.7551 -161.7953,-111.2755 z m -84.1996,-372.45938 c 15.1889,-15.1889 53.4915,-44.246 100.3791,-76.6051 78.9165,-54.4821 104.0113,-75.2843 131.7476,-108.3038 l 16.1795,-19.8116 -9.2454,-7.5945 c -5.2831,-4.2925 -19.4815,-14.5286 -31.6987,-23.1136 l -22.4532,-15.189 -27.076,26.0854 c -16.8399,15.8493 -56.7934,46.2272 -101.6998,77.2655 -56.1331,38.6328 -81.8883,58.7746 -105.9925,82.5486 -45.897004,45.2367 -45.23661,41.9347 -10.5662,67.6899 15.8493,11.5568 30.3779,21.4626 32.3591,21.4626 1.6509,0 14.1983,-10.8964 28.0665,-24.4344 z"
       id="path3036"
       inkscape:connector-curvature="0"
       style="fill:#131b4d;stroke:none" />
    <path
       d="m 842.41153,594.33732 0,-576.189299 187.55047,0 c 196.7959,0 223.8718,1.3207 277.3633,15.1889 150.2385,37.9724 251.9384,157.832999 276.703,326.232099 7.2643,49.199 4.9529,144.9554 -4.6227,189.5316 -19.1513,87.8318 -53.8217,153.2103 -110.285,207.032 -31.3685,30.3779 -51.8405,44.9064 -87.5015,62.4067 -64.3879,32.0289 -115.8983,41.6045 -224.5322,41.6045 l -76.9354,0 0,155.19138 0,155.1914 -118.86997,0 -118.87,0 0,-576.18928 z m 361.56297,46.2272 c 70.6616,-12.5474 119.5304,-59.7652 139.342,-133.7287 7.9247,-30.0477 7.9247,-105.6623 -0.3302,-135.3798 -14.5285,-52.8311 -43.5856,-92.1242 -83.8694,-113.2567 -34.3402,-18.1607 -56.133,-22.123 -121.8417,-22.123 l -57.1237,0 0,204.7206 0,204.7205 48.8688,0 c 26.7458,-0.3302 60.4256,-2.3113 74.9542,-4.9529 z"
       id="path3038"
       inkscape:connector-curvature="0"
       style="fill:#131b4d;stroke:none" />
    <path
       d="m 2496.6858,594.33732 0,-576.189299 351.6571,0 351.6571,0 0,108.964099 0,108.9642 -232.7871,0 -232.7871,0 0,125.4739 0,125.4739 183.2579,0 183.2579,0 0,108.9642 0,108.9641 -183.2579,0 -183.2579,0 0,123.823 0,123.8229 232.7871,0 232.7871,0 0,108.96408 0,108.9642 -351.6571,0 -351.6571,0 0,-576.18928 z"
       id="path3040"
       inkscape:connector-curvature="0"
       style="fill:#131b4d;stroke:none" />
    <path
       d="m 279.43003,1082.6949 c -88.8223,-61.086 -172.6917,-119.20018 -185.899504,-129.10598 -46.88761,-35.661 -77.2655,-76.275 -88.1619202,-118.2097 -6.93408,-26.7457 -7.26428,-285.9484 -0.33019,-264.1555 7.5944702,24.4344 18.8210802,41.6045 41.6045002,65.3785 l 22.78342,23.774 0.33019,-111.6057 0,-111.6058 13.53797,-12.2172 c 7.26428,-6.9341 36.981834,-28.7269 65.708734,-48.5386 29.0571,-20.1418 52.5009,-37.3119 52.8311,-38.3025 0,-0.9906 -12.5474,-10.236 -27.7363,-20.8023 -32.0289,-21.4626 -49.199,-39.2931 -59.4351,-61.0859 -6.6038,-14.5286 -6.934,-20.8023 -7.9246,-135.0496 L 105.74773,0.97782129 136.45583,22.110321 c 206.0413,140.662799 318.6376,219.249099 339.1097,237.079599 29.0571,25.425 57.1236,64.0577 65.3785,91.7941 5.2831,16.8399 5.9435,34.3402 5.9435,166.0878 l 0,146.9365 -12.2172,24.7646 c -21.7928,43.2555 -58.7746,78.5863 -143.9648,136.7005 -23.774,16.5097 -43.2555,30.7081 -43.5857,31.6987 0,1.3208 13.2078,11.2266 29.3874,22.4532 33.6798,22.7834 44.246,34.01 56.133,59.7652 8.5851,18.1607 8.5851,19.1513 9.5757,110.61508 0.6603,50.85 0.6603,104.0113 0,118.2097 l -0.9906,25.7551 -161.7953,-111.2755 z m -84.1996,-372.45938 c 15.1889,-15.1889 53.4915,-44.246 100.3791,-76.6051 78.9165,-54.4821 104.0113,-75.2843 131.7476,-108.3038 l 16.1795,-19.8116 -9.2454,-7.5945 c -5.2831,-4.2925 -19.4815,-14.5286 -31.6987,-23.1136 l -22.4532,-15.189 -27.076,26.0854 c -16.8399,15.8493 -56.7934,46.2272 -101.6998,77.2655 -56.1331,38.6328 -81.8883,58.7746 -105.9925,82.5486 -45.897004,45.2367 -45.23661,41.9347 -10.5662,67.6899 15.8493,11.5568 30.3779,21.4626 32.3591,21.4626 1.6509,0 14.1983,-10.8964 28.0665,-24.4344 z"
       id="path3043"
       inkscape:connector-curvature="0"
       style="fill:#00458a;stroke:none" />
    <path
       d="M 279.43003,1082.6949 C 190.60773,1021.6089 106.73833,963.49472 93.530526,953.58892 62.822446,930.14512 33.765336,898.44642 20.887746,874.01202 1.4062758,837.36042 0.41568581,828.44522 0.41568581,690.09372 l 0,-125.4739 7.92466999,19.1513 c 15.5191402,37.6421 51.1801402,74.6239 119.8605742,124.1531 20.1419,14.8587 37.9724,26.7457 39.2932,26.7457 1.6509,0 13.8681,-10.8964 27.7363,-24.4344 15.1889,-15.1889 53.4915,-44.246 100.3791,-76.6051 78.9165,-54.4821 104.0113,-75.2843 131.7476,-108.3038 l 16.1795,-19.8116 -9.2454,-7.5945 c -5.2831,-4.2925 -19.4815,-14.5286 -31.6987,-23.1136 l -22.4532,-15.189 -27.076,26.0854 c -15.8493,14.8588 -56.133,45.897 -95.096,72.973 -37.3119,25.7552 -75.9447,52.8311 -85.8505,60.4256 l -18.1607,13.5379 -0.9906,-128.1154 -0.9906,-128.1155 10.8964,-9.2454 c 5.9435,-4.9529 17.1702,-13.2078 24.7646,-18.1607 7.9247,-4.9529 14.1984,-9.9058 14.1984,-10.8964 0,-0.9906 -12.5474,-10.236 -27.7363,-20.8023 -32.0289,-21.4626 -49.199,-39.2931 -59.4351,-61.0859 -6.6038,-14.5286 -6.934,-20.8023 -7.9246,-135.0496 L 105.74773,0.97782129 136.45583,22.110321 c 206.0413,140.662799 318.6376,219.249099 339.1097,237.079599 29.0571,25.425 57.1236,64.0577 65.3785,91.7941 5.2831,16.8399 5.9435,34.3402 5.9435,166.0878 l 0,146.9365 -12.2172,24.7646 c -21.7928,43.2555 -58.7746,78.5863 -143.9648,136.7005 -23.774,16.5097 -43.2555,30.7081 -43.5857,31.6987 0,1.3208 13.2078,11.2266 29.3874,22.4532 33.6798,22.7834 44.246,34.01 56.133,59.7652 8.5851,18.1607 8.5851,19.1513 9.5757,110.61508 0.6603,50.85 0.6603,104.0113 0,118.2097 l -0.9906,25.7551 -161.7953,-111.2755 z"
       id="path3046"
       inkscape:connector-curvature="0"
       style="fill:#0574c1;stroke:none" />
    <path
       d="m 269.52413,1076.091 c -83.5391,-57.4538 -153.8706,-106.32258 -156.5121,-108.63398 -3.302,-3.3019 -4.9529,-32.359 -6.9341,-139.0118 -1.3208,-74.2938 -2.3114,-135.3798 -1.651,-136.0402 0.3302,-0.3302 14.1984,8.9153 30.7081,20.8023 16.5097,11.887 31.0383,21.4626 32.6893,21.4626 1.3207,0 13.5379,-10.8964 27.4061,-24.4344 15.5191,-15.1889 52.8311,-43.5856 100.7093,-76.6051 58.1142,-39.9535 83.209,-59.435 107.6434,-83.8694 44.9064,-44.5762 44.2461,-41.9347 15.1889,-63.0671 -12.8775,-9.5756 -29.3873,-21.4626 -35.9912,-26.7458 -16.8399,-12.8775 -138.6816,-96.4167 -192.5033,-132.0777 -46.2272,-30.3779 -64.3879,-47.548 -75.6146,-71.6522 -6.6038,-14.5286 -6.934,-20.8023 -7.9246,-135.0496 L 105.74773,0.97782129 136.45583,22.110321 c 206.0413,140.662799 318.6376,219.249099 339.1097,237.079599 29.0571,25.425 57.1236,64.0577 65.3785,91.7941 5.2831,16.8399 5.9435,34.3402 5.9435,166.0878 l 0,146.9365 -12.2172,24.7646 c -21.7928,43.2555 -58.7746,78.5863 -143.9648,136.7005 -23.774,16.5097 -43.2555,30.7081 -43.5857,31.6987 0,1.3208 13.2078,11.2266 29.7175,22.4532 16.1796,11.2266 33.3497,25.425 37.9724,31.6987 l 8.5851,10.8964 1.9811,129.10598 c 1.3208,76.6051 0.6604,129.1061 -0.9905,129.1061 -1.651,0 -71.3221,-46.8877 -154.8613,-104.3415 z"
       id="path3049"
       inkscape:connector-curvature="0"
       style="fill:#cb7a08;stroke:none" />
    <path
       d="m 269.52413,1076.091 c -83.5391,-57.4538 -153.8706,-106.32258 -156.5121,-108.63398 -3.302,-3.3019 -4.9529,-32.359 -6.9341,-139.0118 -1.3208,-74.2938 -2.3114,-135.3798 -1.651,-136.0402 0.3302,-0.3302 14.1984,8.9153 30.7081,20.8023 16.5097,11.887 31.0383,21.4626 32.6893,21.4626 1.3207,0 13.5379,-10.8964 27.4061,-24.4344 15.5191,-15.1889 52.8311,-43.5856 100.7093,-76.6051 58.7746,-40.2837 83.209,-59.435 108.3038,-84.1996 l 32.0289,-32.359 -0.6604,139.0119 -0.9906,139.0118 -43.5857,30.0477 c -24.1042,16.5097 -43.5857,31.0383 -43.9159,32.0289 0,1.3208 13.2078,11.2266 29.7175,22.4532 16.1796,11.2266 33.3497,25.425 37.9724,31.6987 l 8.5851,10.8964 1.9811,129.10598 c 1.3208,76.6051 0.6604,129.1061 -0.9905,129.1061 -1.651,0 -71.3221,-46.8877 -154.8613,-104.3415 z"
       id="path3052"
       inkscape:connector-curvature="0"
       style="fill:#da9a26;stroke:none" />
    <path
       d="m 545.89693,630.65872 c -0.3302,-3.6322 -5.2831,-16.1796 -10.8964,-28.0666 -7.5945,-16.5097 -17.8305,-29.0571 -45.2366,-56.133 -41.2744,-40.9441 -107.9736,-90.1431 -271.7501,-199.7677 -73.9635,-49.5291 -91.4639,-64.7181 -103.3509,-90.4732 -6.6038,-14.5286 -6.934,-20.8023 -7.9246,-135.0496 l -0.9906,-119.8605987 20.8022,13.8681997 c 128.1155,86.841099 322.9302,222.220899 340.7607,236.749399 26.4156,21.7929 41.9347,39.2932 58.7746,67.0295 21.1325,34.6704 22.7835,49.5292 21.7929,192.8336 -0.6604,69.0106 -1.3208,122.5021 -1.9812,118.87 z"
       id="path3054"
       inkscape:connector-curvature="0"
       style="fill:#da9a26;stroke:none" />
    <path
       d="m 269.52413,1076.091 c -83.5391,-57.4538 -153.8706,-106.32258 -156.5121,-108.63398 -3.302,-3.3019 -4.9529,-32.359 -6.9341,-139.0118 -1.3208,-74.2938 -2.3114,-135.3798 -1.651,-136.0402 0.3302,-0.3302 14.1984,8.9153 30.7081,20.8023 16.5097,11.887 31.0383,21.4626 32.6893,21.4626 1.3207,0 13.5379,-10.8964 27.4061,-24.4344 14.8587,-14.5285 51.5103,-42.595 90.8035,-70.0012 36.3214,-24.7646 71.6522,-49.5292 78.5863,-55.1425 l 12.2171,-9.5756 0,130.4268 0,130.4268 -14.8587,9.5757 c -8.2549,4.9529 -14.8588,10.236 -14.8588,11.2266 0,1.3208 13.2078,11.2266 29.7175,22.4532 16.1796,11.2266 33.3497,25.425 37.9724,31.6987 l 8.5851,10.8964 1.9811,129.10598 c 1.3208,76.6051 0.6604,129.1061 -0.9905,129.1061 -1.651,0 -71.3221,-46.8877 -154.8613,-104.3415 z"
       id="path3057"
       inkscape:connector-curvature="0"
       style="fill:#35a1dc;stroke:none" />
    <path
       d="m 452.78213,508.48672 c -2.3114,-2.6415 -5.9435,-4.9529 -7.9247,-5.2831 -1.9812,0 -18.4909,-10.8964 -36.6516,-24.4344 -35.3308,-26.0853 -183.9183,-128.7758 -211.6546,-146.2761 l -17.1701,-10.8964 -1.9812,-53.4915 c -3.3019,-92.4545 -3.9623,-216.937799 -0.9906,-216.937799 2.3114,0 221.8907,149.578099 263.4952,179.625799 l 18.4909,13.538 0.3302,28.0665 c 0.3302,15.5191 1.6509,75.9447 2.6415,134.7193 2.3114,105.9925 1.651,113.5869 -8.585,101.3697 z"
       id="path3059"
       inkscape:connector-curvature="0"
       style="fill:#35a1dc;stroke:none" />
    <path
       d="m 264.24103,1072.1287 -60.7557,-41.9347 0,-43.58568 c 0,-24.1042 -0.3302,-84.86 -0.9906,-134.7193 l -0.6604,-90.4733 -15.5192,-10.5662 c -8.9152,-5.9435 -16.5097,-11.2267 -17.1701,-11.887 -4.6227,-3.6322 50.85,-52.1708 92.1243,-80.8977 26.4155,-18.4909 63.0671,-44.246 81.8882,-57.4538 l 33.6798,-24.1042 0,129.7664 0,130.0966 -16.5097,10.5662 c -16.1795,10.2361 -16.8399,10.5663 -27.0759,5.6134 -5.9435,-2.9718 -10.8964,-4.953 -11.2266,-4.6228 -0.3302,0.3302 0.3302,60.0954 1.6509,132.7382 1.3208,72.64278 2.3114,132.40798 1.9812,132.73818 -0.3302,0.6604 -27.7363,-18.1607 -61.4162,-41.2743 z"
       id="path3062"
       inkscape:connector-curvature="0"
       style="fill:#53bbe5;stroke:none" />
    <path
       d="m 452.78213,508.48672 c -2.3114,-2.6415 -5.9435,-4.9529 -7.9247,-5.2831 -1.9812,0 -18.4909,-10.8964 -36.6516,-24.4344 -35.3308,-26.0853 -183.9183,-128.7758 -211.6546,-146.2761 l -17.1701,-10.8964 -1.9812,-53.4915 c -3.3019,-92.4545 -3.9623,-216.937799 -0.9906,-216.937799 2.3114,0 221.8907,149.578099 263.4952,179.625799 l 18.4909,13.538 0.3302,28.0665 c 0.3302,15.5191 1.6509,75.9447 2.6415,134.7193 2.3114,105.9925 1.651,113.5869 -8.585,101.3697 z"
       id="path3064"
       inkscape:connector-curvature="0"
       style="fill:#53bbe5;stroke:none" />
    <path
       d="m 257.96733,800.37862 c -44.5762,-31.0382 -83.209,-57.4538 -85.8505,-59.1048 -8.2549,-4.9529 35.661,-46.2272 89.1525,-83.209 26.4155,-18.4909 63.0671,-44.246 81.8882,-57.4538 l 33.6798,-24.1042 0,129.7664 0,130.0966 -15.8493,10.2361 c -8.9152,5.6133 -17.5003,10.236 -19.1513,9.9058 -1.6509,0 -39.2931,-25.425 -83.8694,-56.1331 z"
       id="path3067"
       inkscape:connector-curvature="0"
       style="fill:#eec24d;stroke:none" />
    <path
       d="m 452.78213,508.48672 c -2.3114,-2.6415 -5.9435,-4.9529 -7.9247,-5.2831 -1.9812,0 -18.4909,-10.8964 -36.6516,-24.4344 -35.3308,-26.0853 -183.9183,-128.7758 -211.6546,-146.2761 l -17.1701,-10.8964 -1.9812,-53.4915 c -3.3019,-92.4545 -3.9623,-216.937799 -0.9906,-216.937799 2.3114,0 221.8907,149.578099 263.4952,179.625799 l 18.4909,13.538 0.3302,28.0665 c 0.3302,15.5191 1.6509,75.9447 2.6415,134.7193 2.3114,105.9925 1.651,113.5869 -8.585,101.3697 z"
       id="path3069"
       inkscape:connector-curvature="0"
       style="fill:#eec24d;stroke:none" />
  </g>
</svg>
