<?xml version="1.0" encoding="utf-8"?>
<!-- Generator: Adobe Illustrator 25.2.1, SVG Export Plug-In . SVG Version: 6.00 Build 0)  -->
<svg version="1.1" id="Layer_1" xmlns="http://www.w3.org/2000/svg" xmlns:xlink="http://www.w3.org/1999/xlink" x="0px" y="0px"
	 viewBox="0 0 51.32 47.78" style="enable-background:new 0 0 51.32 47.78;" xml:space="preserve">
<style type="text/css">
	.st0{clip-path:url(#SVGID_2_);fill:#FFFFFF;}
	.st1{fill:#EB94A6;}
	.st2{clip-path:url(#SVGID_4_);fill:#C2384A;}
	.st3{clip-path:url(#SVGID_6_);fill:#EB94A6;}
	.st4{clip-path:url(#SVGID_6_);fill:#C2384A;}
	.st5{fill:#C2384A;}
	.st6{clip-path:url(#SVGID_8_);fill:none;stroke:#C2384A;stroke-width:0.706;stroke-miterlimit:10;}
	.st7{clip-path:url(#SVGID_10_);fill:#EB94A6;}
	.st8{clip-path:url(#SVGID_10_);fill:#DEEDF0;}
	.st9{clip-path:url(#SVGID_10_);fill:#C2384A;}
	.st10{clip-path:url(#SVGID_10_);fill:#FFFFFF;}
	.st11{fill:#FFDEDE;}
	.st12{clip-path:url(#SVGID_12_);fill:#EB94A6;}
	.st13{clip-path:url(#SVGID_12_);fill:#C2384A;}
	.st14{clip-path:url(#SVGID_12_);fill:#FFFFFF;}
	.st15{fill:none;stroke:#C2384A;stroke-width:0.754;stroke-miterlimit:10;}
	.st16{clip-path:url(#SVGID_14_);fill:#C2384A;}
	.st17{fill:none;stroke:#C2384A;stroke-width:0.963;stroke-linecap:round;stroke-linejoin:round;stroke-miterlimit:10;}
	.st18{clip-path:url(#SVGID_16_);fill:#C2384A;}
	.st19{clip-path:url(#SVGID_16_);fill:#FFFFFF;}
	.st20{clip-path:url(#SVGID_16_);fill:none;stroke:#C2384A;stroke-width:0.803;stroke-miterlimit:10;}
	.st21{fill:none;stroke:#C2384A;stroke-width:0.803;stroke-linecap:round;stroke-linejoin:round;stroke-miterlimit:10;}
	.st22{clip-path:url(#SVGID_18_);fill:#C2384A;}
	.st23{clip-path:url(#SVGID_20_);fill:#C2384A;}
	.st24{clip-path:url(#SVGID_22_);fill:#C2384A;}
	.st25{fill:#DEEDF0;}
	.st26{clip-path:url(#SVGID_24_);fill:#EB94A6;}
	.st27{clip-path:url(#SVGID_24_);fill:#C2384A;}
	.st28{clip-path:url(#SVGID_26_);fill:#C2384A;}
	.st29{clip-path:url(#SVGID_28_);fill:none;stroke:#C2384A;stroke-width:0.618;stroke-miterlimit:10;}
</style>
<g>
	<defs>
		<rect id="SVGID_1_" x="-443.34" y="-140.68" width="625.5" height="357.06"/>
	</defs>
	<clipPath id="SVGID_2_">
		<use xlink:href="#SVGID_1_"  style="overflow:visible;"/>
	</clipPath>
	<path class="st0" d="M25.33,47.55c13.11,0,23.73-10.62,23.73-23.73S38.44,0.09,25.33,0.09C12.22,0.09,1.6,10.71,1.6,23.82
		S12.22,47.55,25.33,47.55"/>
</g>
<g>
	<defs>
		<rect id="SVGID_3_" x="-443.34" y="-140.68" width="625.5" height="357.06"/>
	</defs>
	<clipPath id="SVGID_4_">
		<use xlink:href="#SVGID_3_"  style="overflow:visible;"/>
	</clipPath>
</g>
<g>
	<defs>
		<rect id="SVGID_5_" x="-443.34" y="-140.68" width="625.5" height="357.06"/>
	</defs>
	<clipPath id="SVGID_6_">
		<use xlink:href="#SVGID_5_"  style="overflow:visible;"/>
	</clipPath>
</g>
<g>
	<defs>
		<rect id="SVGID_7_" x="-443.34" y="-140.68" width="625.5" height="357.06"/>
	</defs>
	<clipPath id="SVGID_8_">
		<use xlink:href="#SVGID_7_"  style="overflow:visible;"/>
	</clipPath>
</g>
<g>
	<defs>
		<rect id="SVGID_9_" x="-443.34" y="-140.68" width="625.5" height="357.06"/>
	</defs>
	<clipPath id="SVGID_10_">
		<use xlink:href="#SVGID_9_"  style="overflow:visible;"/>
	</clipPath>
</g>
<g>
	<defs>
		<rect id="SVGID_11_" x="-443.34" y="-140.68" width="625.5" height="357.06"/>
	</defs>
	<clipPath id="SVGID_12_">
		<use xlink:href="#SVGID_11_"  style="overflow:visible;"/>
	</clipPath>
</g>
<rect x="14.13" y="9.83" class="st1" width="36.98" height="32.9"/>
<rect x="20.91" y="12.05" class="st5" width="12.61" height="12.62"/>
<rect x="37.16" y="14.32" class="st5" width="12.61" height="12.62"/>
<rect x="22.42" y="28.84" class="st5" width="12.61" height="12.62"/>
<rect x="37.16" y="28.84" class="st5" width="12.61" height="12.62"/>
<path class="st15" d="M20.03,25.49h14.1 M20.03,14.31v23.26"/>
<g>
	<defs>
		<rect id="SVGID_13_" x="-443.34" y="-140.68" width="625.5" height="357.06"/>
	</defs>
	<clipPath id="SVGID_14_">
		<use xlink:href="#SVGID_13_"  style="overflow:visible;"/>
	</clipPath>
	<path class="st16" d="M16.45,41.02H3.37c-2.11,0-3.81-1.36-3.81-3.04v-7.65c0-1.68,1.71-3.04,3.81-3.04h7.8l0.01,3.08h5.18
		l0.09-1.54c2.11,0,3.81,1.36,3.81,3.04v6.11C20.26,39.66,18.55,41.02,16.45,41.02"/>
</g>
<polyline class="st17" points="3.01,28.56 3.01,19.77 14.03,19.77 19.7,32.16 "/>
<g>
	<defs>
		<rect id="SVGID_15_" x="-443.34" y="-140.68" width="625.5" height="357.06"/>
	</defs>
	<clipPath id="SVGID_16_">
		<use xlink:href="#SVGID_15_"  style="overflow:visible;"/>
	</clipPath>
	<path class="st18" d="M5.18,36.05c-0.25,0-0.49,0.03-0.72,0.07c-0.3,0.06-0.59,0.16-0.86,0.29C3,36.7,2.49,37.16,2.12,37.72
		c-0.4,0.6-0.63,1.33-0.63,2.12c0,2.1,1.65,3.79,3.69,3.79c2.04,0,3.69-1.7,3.69-3.79C8.87,37.75,7.22,36.05,5.18,36.05"/>
	<path class="st19" d="M5.18,41.8c-1.06,0-1.91-0.88-1.91-1.96c0-0.41,0.13-0.8,0.34-1.12c0.21-0.31,0.51-0.56,0.86-0.7
		c0.22-0.09,0.46-0.14,0.72-0.14c1.05,0,1.91,0.88,1.91,1.96C7.1,40.92,6.24,41.8,5.18,41.8"/>
	<path class="st18" d="M14.86,36.05c-0.25,0-0.49,0.03-0.72,0.07c-0.3,0.06-0.59,0.16-0.86,0.29c-0.61,0.29-1.12,0.75-1.49,1.31
		c-0.4,0.6-0.63,1.33-0.63,2.12c0,2.1,1.65,3.79,3.69,3.79c2.04,0,3.69-1.7,3.69-3.79C18.56,37.74,16.9,36.05,14.86,36.05"/>
	<path class="st19" d="M14.86,41.8c-1.06,0-1.91-0.88-1.91-1.96c0-0.41,0.13-0.8,0.34-1.12c0.21-0.31,0.51-0.56,0.86-0.7
		c0.22-0.09,0.46-0.14,0.72-0.14c1.05,0,1.91,0.88,1.91,1.96C16.78,40.92,15.92,41.8,14.86,41.8"/>
</g>
<g>
	<defs>
		<rect id="SVGID_17_" x="-443.34" y="-140.68" width="625.5" height="357.06"/>
	</defs>
	<clipPath id="SVGID_18_">
		<use xlink:href="#SVGID_17_"  style="overflow:visible;"/>
	</clipPath>
</g>
<g>
	<defs>
		<rect id="SVGID_19_" x="-443.34" y="-140.68" width="625.5" height="357.06"/>
	</defs>
	<clipPath id="SVGID_20_">
		<use xlink:href="#SVGID_19_"  style="overflow:visible;"/>
	</clipPath>
</g>
<g>
	<defs>
		<rect id="SVGID_21_" x="-443.34" y="-140.68" width="625.5" height="357.06"/>
	</defs>
	<clipPath id="SVGID_22_">
		<use xlink:href="#SVGID_21_"  style="overflow:visible;"/>
	</clipPath>
</g>
<g>
	<defs>
		<rect id="SVGID_23_" x="-443.34" y="-140.68" width="625.5" height="357.06"/>
	</defs>
	<clipPath id="SVGID_24_">
		<use xlink:href="#SVGID_23_"  style="overflow:visible;"/>
	</clipPath>
</g>
<g>
	<defs>
		<rect id="SVGID_25_" x="-443.34" y="-140.68" width="625.5" height="357.06"/>
	</defs>
	<clipPath id="SVGID_26_">
		<use xlink:href="#SVGID_25_"  style="overflow:visible;"/>
	</clipPath>
</g>
<g>
	<defs>
		<rect id="SVGID_27_" x="-443.34" y="-140.68" width="625.5" height="357.06"/>
	</defs>
	<clipPath id="SVGID_28_">
		<use xlink:href="#SVGID_27_"  style="overflow:visible;"/>
	</clipPath>
</g>
</svg>
