<svg xmlns="http://www.w3.org/2000/svg" width="132.85" height="132.85">
 <defs>
  <style>.cls-1,.cls-7{fill:none;}.cls-2{fill:#c2384a;}.cls-3{fill:#eb94a6;}.cls-4{clip-path:url(#clip-path);}.cls-5{fill:#ab2e2b;}.cls-6{fill:#ffdede;}.cls-7{stroke:#c2384a;stroke-width:5px;}</style>
  <clipPath id="clip-path">
   <rect id="svg_1" height="137.56" width="595.98" class="cls-1"/>
  </clipPath>
 </defs>
 <g>
  <title>Layer 1</title>
  <g id="svg_21">
   <rect id="svg_2" height="85.8" width="115.42" y="35.43" x="8.58" class="cls-2"/>
   <rect id="svg_3" height="62" width="42.07" y="59.23" x="73.63" class="cls-3"/>
   <g id="svg_4" class="cls-4">
    <path id="svg_5" d="m0,26.57l0,12.43a13.29,13.29 0 0 0 26.57,0l0,-12.43l-26.57,0z" class="cls-3"/>
    <path id="svg_6" d="m26.57,26.57l0,12.43a13.29,13.29 0 0 0 26.58,0l0,-12.43l-26.58,0z" class="cls-5"/>
    <path id="svg_7" d="m53.15,26.57l0,12.43a13.29,13.29 0 0 0 26.57,0l0,-12.43l-26.57,0z" class="cls-3"/>
    <path id="svg_8" d="m79.72,26.57l0,12.43a13.29,13.29 0 0 0 26.57,0l0,-12.43l-26.57,0z" class="cls-5"/>
    <path id="svg_9" d="m106.29,26.57l0,12.43a13.29,13.29 0 0 0 26.57,0l0,-12.43l-26.57,0z" class="cls-3"/>
   </g>
   <polygon id="svg_10" points="9.690004348754883,0 0.0000024414068775513442,26.56999921798706 26.570009231567383,26.56999921798706 32.38998794555664,0 9.690004348754883,0 " class="cls-3"/>
   <polygon id="svg_11" points="32.38998794555664,0 26.570009231567383,26.56999921798706 53.13998794555664,26.56999921798706 55.07999038696289,0 32.38998794555664,0 " class="cls-5"/>
   <polygon id="svg_12" points="55.07999038696289,0 53.13998794555664,26.56999921798706 79.719970703125,26.56999921798706 77.77996826171875,0 55.07999038696289,0 " class="cls-3"/>
   <polygon id="svg_13" points="77.77996826171875,0 79.719970703125,26.56999921798706 106.28997802734375,26.56999921798706 100.469970703125,0 77.77996826171875,0 " class="cls-5"/>
   <polygon id="svg_14" points="100.469970703125,0 106.28997802734375,26.56999921798706 132.8599853515625,26.56999921798706 123.16998291015625,0 100.469970703125,0 " class="cls-3"/>
   <rect id="svg_15" height="11.63" width="132.85" y="121.23" x="0" class="cls-5"/>
   <g id="svg_16" class="cls-4">
    <path id="svg_17" d="m83.04,86.63a3.6,3.6 0 1 1 -3.6,3.6a3.6,3.6 0 0 1 3.6,-3.6" class="cls-6"/>
   </g>
   <rect id="svg_18" height="42.07" width="46.78" y="59.23" x="16.89" class="cls-3"/>
  </g>
 </g>
</svg>