<?xml version="1.0" encoding="utf-8"?>
<!-- Generator: Adobe Illustrator 25.2.1, SVG Export Plug-In . SVG Version: 6.00 Build 0)  -->
<svg version="1.1" id="Layer_1" xmlns="http://www.w3.org/2000/svg" xmlns:xlink="http://www.w3.org/1999/xlink" x="0px" y="0px"
	 viewBox="0 0 582.3 135.1" style="enable-background:new 0 0 582.3 135.1;" xml:space="preserve">
<style type="text/css">
	.st0{clip-path:url(#SVGID_2_);}
	.st1{fill:#C2384A;}
	.st2{fill:#730526;}
	.st3{enable-background:new    ;}
	.st4{fill:#FFFFFF;}
</style>
<g>
	<g>
		<defs>
			<rect id="SVGID_1_" width="493.4" height="152.8"/>
		</defs>
		<clipPath id="SVGID_2_">
			<use xlink:href="#SVGID_1_"  style="overflow:visible;"/>
		</clipPath>
		<g class="st0">
			<g>
				<rect y="60.6" class="st1" width="158.6" height="1"/>
			</g>
			<g>
				<rect y="112.3" class="st1" width="158.6" height="1"/>
			</g>
		</g>
	</g>
</g>
<g>
	<rect x="159" y="41.6" class="st1" width="226.5" height="20.4"/>
</g>
<g>
	<rect x="384.8" y="41.6" class="st2" width="97.3" height="20.4"/>
</g>
<g>
	<rect x="159" y="93.3" class="st1" width="219.2" height="20.4"/>
</g>
<g>
	<rect x="377.8" y="93.3" class="st2" width="61.2" height="20.4"/>
</g>
<g class="st3">
	<path class="st4" d="M246.1,54.7v-6.3c-0.4,0.2-0.8,0.4-1.2,0.5v-1.3c0.5-0.3,1.1-0.6,1.7-0.9h1v8H246.1z"/>
	<path class="st4" d="M252.3,54.7v-2h-3.5v-1.4c1-1.3,2.4-3.2,3.4-4.7h1.5v4.8h1.2v1.2h-1.2v2h-1.4V54.7z M252.3,51.5v-2.8
		c-0.6,0.9-1.5,2.2-1.9,2.8H252.3z"/>
</g>
<g class="st3">
	<path class="st4" d="M260.5,47.7c-1,2.1-2.4,5.3-3.3,7.3l-1.3-0.6c1.1-2.5,2.4-5,3-6.4h-3.6v-1.3h5.3v1H260.5z"/>
</g>
<g class="st3">
	<path class="st4" d="M261.3,56.3h-1.4l0.6-3.2h1.6L261.3,56.3z"/>
</g>
<g class="st3">
	<path class="st4" d="M269,52.5c0,1.3-1.1,2.4-2.8,2.4c-1.6,0-2.8-1-2.8-2.4c0-0.9,0.5-1.5,1.2-2c-0.6-0.4-1-0.9-1-1.7
		c0-1.2,1-2.2,2.5-2.2s2.5,1,2.5,2.2c0,0.8-0.3,1.3-1,1.7C268.5,51,269,51.6,269,52.5z M264.9,52.4c0,0.7,0.6,1.2,1.3,1.2
		c0.7,0,1.3-0.5,1.3-1.2s-0.6-1.2-1.3-1.2S264.9,51.8,264.9,52.4z M265.1,48.9c0,0.6,0.5,1.1,1.1,1.1s1.1-0.5,1.1-1.1s-0.5-1-1.1-1
		S265.1,48.3,265.1,48.9z"/>
</g>
<g class="st3">
	<path class="st4" d="M271.2,54.7v-6.3c-0.4,0.2-0.8,0.4-1.2,0.5v-1.3c0.5-0.3,1.1-0.6,1.7-0.9h1v8H271.2z"/>
	<path class="st4" d="M279.1,48h-2.9c0,0.6-0.1,1.3-0.1,1.9c0.3-0.1,0.7-0.2,1-0.2c1.3,0,2.4,1.1,2.4,2.4c0,1.6-1.2,2.7-2.7,2.7
		c-1.1,0-2.1-0.5-2.6-1.5l1.2-0.6c0.3,0.6,0.8,0.9,1.3,0.9c0.8,0,1.3-0.6,1.3-1.4c0-0.8-0.6-1.3-1.3-1.3c-0.4,0-0.8,0.1-1.1,0.5
		l-1-0.6c0.1-1.2,0.2-2.9,0.3-4h4.3L279.1,48L279.1,48z"/>
	<path class="st4" d="M285.2,49.4c0.5-0.7,1.2-1,1.9-1c0.7,0,1.3,0.3,1.7,0.8c0.5,0.6,0.6,1.4,0.6,2.3v3.2h-1.5v-3.1
		c0-0.5,0-1.1-0.2-1.5c-0.2-0.3-0.5-0.5-0.9-0.5c-0.6,0-1.2,0.4-1.5,0.9v4.1h-1.5v-9h1.5v3.8H285.2z"/>
	<path class="st4" d="M292.5,49.4c0.4-0.6,0.9-1,1.5-1c0.3,0,0.5,0,0.7,0.1l-0.3,1.4c-0.2-0.1-0.4-0.1-0.6-0.1c-0.5,0-1,0.3-1.3,0.8
		v4.2H291v-6.2h1.3L292.5,49.4z"/>
	<path class="st4" d="M298.7,50.1c-0.3-0.3-0.8-0.5-1.2-0.5c-0.4,0-0.7,0.2-0.7,0.6c0,0.4,0.5,0.6,1.1,0.9c0.8,0.3,1.8,0.7,1.8,1.9
		c0,1.4-1.1,2-2.3,2c-0.9,0-1.7-0.4-2.3-1l0.9-0.8c0.4,0.4,0.9,0.7,1.4,0.7c0.4,0,0.9-0.2,0.9-0.7c0-0.4-0.6-0.7-1.2-0.9
		c-0.7-0.3-1.7-0.7-1.7-1.8c0-1.3,1-1.9,2.1-1.9c0.8,0,1.5,0.3,2,0.8L298.7,50.1z"/>
</g>
<g class="st3">
	<path class="st4" d="M243.5,105.8c1.4-0.6,2.5-1.4,2.9-2.7c-0.4,0.4-0.9,0.6-1.5,0.6c-1.4,0-2.4-1.1-2.4-2.5c0-1.5,1.1-2.7,2.7-2.7
		c1.9,0,3,1.5,3,3.2c0,2.6-1.9,4.5-4.1,5.4L243.5,105.8z M245.2,99.6c-0.8,0-1.3,0.6-1.3,1.4s0.5,1.4,1.3,1.4c0.6,0,1.2-0.3,1.5-0.8
		C246.7,100.5,246.3,99.6,245.2,99.6z"/>
</g>
<g class="st3">
	<path class="st4" d="M254,99.7h-2.9c0,0.6-0.1,1.3-0.1,1.9c0.3-0.1,0.7-0.2,1-0.2c1.3,0,2.4,1.1,2.4,2.4c0,1.6-1.2,2.7-2.7,2.7
		c-1.1,0-2.1-0.5-2.6-1.5l1.2-0.6c0.3,0.6,0.8,0.9,1.3,0.9c0.8,0,1.3-0.6,1.3-1.4s-0.6-1.3-1.3-1.3c-0.4,0-0.8,0.1-1.1,0.5l-1-0.6
		c0.1-1.2,0.2-2.9,0.3-4h4.3L254,99.7L254,99.7z"/>
	<path class="st4" d="M256.2,108h-1.4l0.6-3.2h1.6L256.2,108z"/>
	<path class="st4" d="M264,102.5c0,2.6-1,4.1-2.9,4.1s-2.9-1.6-2.9-4.1c0-2.6,1-4.1,2.9-4.1C263,98.3,264,99.9,264,102.5z
		 M259.7,102.5c0,1.9,0.5,2.9,1.4,2.9s1.4-0.9,1.4-2.9c0-1.9-0.5-2.9-1.4-2.9S259.7,100.6,259.7,102.5z"/>
	<path class="st4" d="M270.4,106.5h-5.2v-1.2c0.9-1,2-2.2,2.7-3.3c0.3-0.4,0.6-1,0.6-1.5c0-0.6-0.5-0.9-1.1-0.9s-1,0.5-1.1,1.2
		l-1.5-0.3c0.1-1.3,1.3-2.2,2.6-2.2c1.3,0,2.5,0.8,2.5,2.2c0,0.8-0.4,1.6-0.8,2.2c-0.6,0.9-1.4,1.7-2.1,2.5h3.3v1.3H270.4z"/>
	<path class="st4" d="M272.4,106.5v-6.3c-0.4,0.2-0.8,0.4-1.2,0.5v-1.3c0.5-0.3,1.1-0.6,1.7-0.9h1v8
		C273.9,106.5,272.4,106.5,272.4,106.5z"/>
	<path class="st4" d="M280.3,101.1c0.5-0.7,1.2-1,1.9-1c0.7,0,1.3,0.3,1.7,0.8c0.5,0.6,0.6,1.4,0.6,2.3v3.2H283v-3.1
		c0-0.5,0-1.1-0.2-1.5c-0.2-0.3-0.5-0.5-0.9-0.5c-0.6,0-1.2,0.4-1.5,0.9v4.1h-1.5v-9h1.5v3.8H280.3z"/>
	<path class="st4" d="M287.6,101.2c0.4-0.6,0.9-1,1.5-1c0.3,0,0.5,0,0.7,0.1l-0.3,1.4c-0.2-0.1-0.4-0.1-0.6-0.1
		c-0.5,0-1,0.3-1.3,0.8v4.2h-1.5v-6.2h1.3L287.6,101.2z"/>
	<path class="st4" d="M293.8,101.8c-0.3-0.3-0.8-0.5-1.2-0.5c-0.4,0-0.7,0.2-0.7,0.6s0.5,0.6,1.1,0.9c0.8,0.3,1.8,0.7,1.8,1.9
		c0,1.4-1.1,2-2.3,2c-0.9,0-1.7-0.4-2.3-1l0.9-0.8c0.4,0.4,0.9,0.7,1.4,0.7c0.4,0,0.9-0.2,0.9-0.7c0-0.4-0.6-0.7-1.2-0.9
		c-0.7-0.3-1.7-0.7-1.7-1.8c0-1.3,1-1.9,2.1-1.9c0.8,0,1.5,0.3,2,0.8L293.8,101.8z"/>
</g>
<g class="st3">
	<path class="st4" d="M411.7,48h-2.9c0,0.6-0.1,1.3-0.1,1.9c0.3-0.1,0.7-0.2,1-0.2c1.3,0,2.4,1.1,2.4,2.4c0,1.6-1.2,2.7-2.7,2.7
		c-1.1,0-2.1-0.5-2.6-1.5l1.2-0.6c0.3,0.6,0.8,0.9,1.3,0.9c0.8,0,1.3-0.6,1.3-1.4c0-0.8-0.6-1.3-1.3-1.3c-0.4,0-0.8,0.1-1.1,0.5
		l-1-0.6c0.1-1.2,0.2-2.9,0.3-4h4.3L411.7,48L411.7,48z"/>
</g>
<g class="st3">
	<path class="st4" d="M416.3,54.7v-2h-3.5v-1.4c1-1.3,2.4-3.2,3.4-4.7h1.5v4.8h1.2v1.2h-1.2v2h-1.4V54.7z M416.3,51.5v-2.8
		c-0.6,0.9-1.5,2.2-1.9,2.8H416.3z"/>
	<path class="st4" d="M420.5,56.3h-1.4l0.6-3.2h1.6L420.5,56.3z"/>
</g>
<g class="st3">
	<path class="st4" d="M427.5,47.7c-1,2.1-2.4,5.3-3.3,7.3l-1.3-0.6c1.1-2.5,2.4-5,3-6.4h-3.6v-1.3h5.3v1H427.5z"/>
</g>
<g class="st3">
	<path class="st4" d="M433.5,47.7c-1,2.1-2.4,5.3-3.3,7.3l-1.3-0.6c1.1-2.5,2.4-5,3-6.4h-3.6v-1.3h5.3v1H433.5z"/>
</g>
<g class="st3">
	<path class="st4" d="M438.7,47.5c-1.4,0.6-2.5,1.4-2.9,2.7c0.4-0.4,0.9-0.6,1.5-0.6c1.4,0,2.4,1.1,2.4,2.5c0,1.5-1.1,2.7-2.7,2.7
		c-1.9,0-3-1.5-3-3.2c0-2.6,1.9-4.5,4.1-5.4L438.7,47.5z M437,53.6c0.8,0,1.3-0.6,1.3-1.4c0-0.8-0.5-1.4-1.3-1.4
		c-0.6,0-1.2,0.3-1.5,0.8C435.5,52.7,435.9,53.6,437,53.6z"/>
	<path class="st4" d="M445.5,49.4c0.5-0.7,1.2-1,1.9-1c0.7,0,1.3,0.3,1.7,0.8c0.5,0.6,0.6,1.4,0.6,2.3v3.2h-1.5v-3.1
		c0-0.5,0-1.1-0.2-1.5c-0.2-0.3-0.5-0.5-0.9-0.5c-0.6,0-1.2,0.4-1.5,0.9v4.1h-1.5v-9h1.5v3.8H445.5z"/>
	<path class="st4" d="M452.8,49.4c0.4-0.6,0.9-1,1.5-1c0.3,0,0.5,0,0.7,0.1l-0.3,1.4c-0.2-0.1-0.4-0.1-0.6-0.1c-0.5,0-1,0.3-1.3,0.8
		v4.2h-1.5v-6.2h1.3L452.8,49.4z"/>
	<path class="st4" d="M459,50.1c-0.3-0.3-0.8-0.5-1.2-0.5c-0.4,0-0.7,0.2-0.7,0.6c0,0.4,0.5,0.6,1.1,0.9c0.8,0.3,1.8,0.7,1.8,1.9
		c0,1.4-1.1,2-2.3,2c-0.9,0-1.7-0.4-2.3-1l0.9-0.8c0.4,0.4,0.9,0.7,1.4,0.7c0.4,0,0.9-0.2,0.9-0.7c0-0.4-0.6-0.7-1.2-0.9
		c-0.7-0.3-1.7-0.7-1.7-1.8c0-1.3,1-1.9,2.1-1.9c0.8,0,1.5,0.3,2,0.8L459,50.1z"/>
</g>
<g class="st3">
	<path class="st4" d="M386.1,106.5h-5.2v-1.2c0.9-1,2-2.2,2.7-3.3c0.3-0.4,0.6-1,0.6-1.5c0-0.6-0.5-0.9-1.1-0.9s-1,0.5-1.1,1.2
		l-1.5-0.3c0.1-1.3,1.3-2.2,2.6-2.2c1.3,0,2.5,0.8,2.5,2.2c0,0.8-0.4,1.6-0.8,2.2c-0.6,0.9-1.4,1.7-2.1,2.5h3.3v1.3H386.1z"/>
	<path class="st4" d="M392.5,104.2c0,1.3-1.1,2.4-2.8,2.4c-1.6,0-2.8-1-2.8-2.4c0-0.9,0.5-1.5,1.2-2c-0.6-0.4-1-0.9-1-1.7
		c0-1.2,1-2.2,2.5-2.2s2.5,1,2.5,2.2c0,0.8-0.3,1.3-1,1.7C392.1,102.7,392.5,103.3,392.5,104.2z M388.5,104.1c0,0.7,0.6,1.2,1.3,1.2
		c0.7,0,1.3-0.5,1.3-1.2s-0.6-1.2-1.3-1.2C389,102.9,388.5,103.5,388.5,104.1z M388.7,100.6c0,0.6,0.5,1.1,1.1,1.1s1.1-0.5,1.1-1.1
		s-0.5-1-1.1-1C389.1,99.6,388.7,100,388.7,100.6z"/>
	<path class="st4" d="M394.6,108h-1.4l0.6-3.2h1.6L394.6,108z"/>
	<path class="st4" d="M402.3,104.2c0,1.3-1.1,2.4-2.8,2.4c-1.6,0-2.8-1-2.8-2.4c0-0.9,0.5-1.5,1.2-2c-0.6-0.4-1-0.9-1-1.7
		c0-1.2,1-2.2,2.5-2.2s2.5,1,2.5,2.2c0,0.8-0.3,1.3-1,1.7C401.8,102.7,402.3,103.3,402.3,104.2z M398.2,104.1c0,0.7,0.6,1.2,1.3,1.2
		c0.7,0,1.3-0.5,1.3-1.2s-0.6-1.2-1.3-1.2C398.8,102.9,398.2,103.5,398.2,104.1z M398.4,100.6c0,0.6,0.5,1.1,1.1,1.1
		s1.1-0.5,1.1-1.1s-0.5-1-1.1-1S398.4,100,398.4,100.6z"/>
</g>
<g class="st3">
	<path class="st4" d="M409,104.2c0,1.3-1.1,2.4-2.8,2.4c-1.6,0-2.8-1-2.8-2.4c0-0.9,0.5-1.5,1.2-2c-0.6-0.4-1-0.9-1-1.7
		c0-1.2,1-2.2,2.5-2.2s2.5,1,2.5,2.2c0,0.8-0.3,1.3-1,1.7C408.6,102.7,409,103.3,409,104.2z M405,104.1c0,0.7,0.6,1.2,1.3,1.2
		c0.7,0,1.3-0.5,1.3-1.2s-0.6-1.2-1.3-1.2C405.5,102.9,405,103.5,405,104.1z M405.2,100.6c0,0.6,0.5,1.1,1.1,1.1s1.1-0.5,1.1-1.1
		s-0.5-1-1.1-1C405.6,99.6,405.2,100,405.2,100.6z"/>
</g>
<g class="st3">
	<path class="st4" d="M413.4,106.5v-2H410v-1.4c1-1.3,2.4-3.2,3.4-4.7h1.5v4.8h1.2v1.2h-1.2v2L413.4,106.5L413.4,106.5z
		 M413.4,103.2v-2.8c-0.6,0.9-1.5,2.2-1.9,2.8H413.4z"/>
	<path class="st4" d="M421.6,101.1c0.5-0.7,1.2-1,1.9-1c0.7,0,1.3,0.3,1.7,0.8c0.5,0.6,0.6,1.4,0.6,2.3v3.2h-1.5v-3.1
		c0-0.5,0-1.1-0.2-1.5c-0.2-0.3-0.5-0.5-0.9-0.5c-0.6,0-1.2,0.4-1.5,0.9v4.1h-1.5v-9h1.5v3.8H421.6z"/>
	<path class="st4" d="M428.9,101.2c0.4-0.6,0.9-1,1.5-1c0.3,0,0.5,0,0.7,0.1l-0.3,1.4c-0.2-0.1-0.4-0.1-0.6-0.1
		c-0.5,0-1,0.3-1.3,0.8v4.2h-1.5v-6.2h1.3L428.9,101.2z"/>
	<path class="st4" d="M435.1,101.8c-0.3-0.3-0.8-0.5-1.2-0.5c-0.4,0-0.7,0.2-0.7,0.6s0.5,0.6,1.1,0.9c0.8,0.3,1.8,0.7,1.8,1.9
		c0,1.4-1.1,2-2.3,2c-0.9,0-1.7-0.4-2.3-1l0.9-0.8c0.4,0.4,0.9,0.7,1.4,0.7c0.4,0,0.9-0.2,0.9-0.7c0-0.4-0.6-0.7-1.2-0.9
		c-0.7-0.3-1.7-0.7-1.7-1.8c0-1.3,1-1.9,2.1-1.9c0.8,0,1.5,0.3,2,0.8L435.1,101.8z"/>
</g>
<g class="st3">
	<path class="st1" d="M234.5,69.7v2.6h-1.1V66h3.4v1h-2.3v1.8h2.3v1h-2.3V69.7z"/>
	<path class="st1" d="M238.6,70.2c0.1,0.7,0.5,1.3,1.3,1.3c0.6,0,1-0.2,1.3-0.7l0.7,0.5c-0.5,0.8-1.1,1.1-2.1,1.1
		c-1.4,0-2.3-1-2.3-2.4s1-2.5,2.3-2.5s2.2,0.9,2.2,2.2c0,0.2,0,0.4,0,0.5H238.6z M239.8,68.4c-0.7,0-1.1,0.5-1.2,1h2.2
		C240.8,68.8,240.4,68.4,239.8,68.4z"/>
	<path class="st1" d="M248.9,72.3V70c0-0.4,0-0.8-0.2-1.1c-0.1-0.2-0.4-0.4-0.7-0.4c-0.4,0-0.8,0.2-1.1,0.6c0,0.2,0,0.5,0,0.7v2.4
		H246v-2.3c0-0.4,0-0.8-0.2-1.1c-0.1-0.2-0.4-0.3-0.6-0.3c-0.4,0-0.8,0.3-1,0.6v3.2H243v-4.6h1v0.6c0.4-0.5,0.9-0.7,1.4-0.7
		s1,0.2,1.3,0.6c0,0.1,0.1,0.1,0.1,0.2c0.4-0.6,1-0.8,1.6-0.8c0.5,0,1,0.2,1.2,0.6c0.4,0.5,0.4,1.1,0.4,1.8v2.4L248.9,72.3
		L248.9,72.3z"/>
	<path class="st1" d="M254.1,72.3l-0.1-0.4c-0.3,0.4-0.8,0.5-1.3,0.5c-0.9,0-1.7-0.5-1.7-1.5c0-1.2,1.1-1.5,2-1.5
		c0.2,0,0.5,0,0.9,0.1v-0.1c0-0.6-0.3-1-1-1c-0.5,0-1,0.2-1.4,0.4l-0.3-0.8c0.5-0.3,1.3-0.5,1.9-0.5c1.3,0,1.9,0.7,1.9,1.9v2.8
		L254.1,72.3L254.1,72.3z M254,70.2c-0.3-0.1-0.5-0.1-0.7-0.1c-0.5,0-1.1,0.2-1.1,0.8c0,0.5,0.4,0.7,0.8,0.7c0.4,0,0.7-0.2,1.1-0.5
		v-0.9H254z"/>
	<path class="st1" d="M257.5,72.3h-1.1v-6.8h1.1V72.3z"/>
	<path class="st1" d="M259.6,70.2c0.1,0.7,0.5,1.3,1.3,1.3c0.6,0,1-0.2,1.3-0.7l0.7,0.5c-0.5,0.8-1.1,1.1-2.1,1.1
		c-1.4,0-2.3-1-2.3-2.4s1-2.5,2.3-2.5s2.2,0.9,2.2,2.2c0,0.2,0,0.4,0,0.5H259.6z M260.8,68.4c-0.7,0-1.1,0.5-1.2,1h2.2
		C261.9,68.8,261.4,68.4,260.8,68.4z"/>
	<path class="st1" d="M267,70.2c0.1,0.7,0.5,1.3,1.3,1.3c0.6,0,1-0.2,1.3-0.7l0.7,0.5c-0.5,0.8-1.1,1.1-2.1,1.1
		c-1.4,0-2.3-1-2.3-2.4s1-2.5,2.3-2.5s2.2,0.9,2.2,2.2c0,0.2,0,0.4,0,0.5H267z M268.3,68.4c-0.7,0-1.1,0.5-1.2,1h2.2
		C269.3,68.8,268.8,68.4,268.3,68.4z"/>
	<path class="st1" d="M277.4,72.3V70c0-0.4,0-0.8-0.2-1.1c-0.1-0.2-0.4-0.4-0.7-0.4c-0.4,0-0.8,0.2-1.1,0.6c0,0.2,0,0.5,0,0.7v2.4
		h-1.1v-2.3c0-0.4,0-0.8-0.2-1.1c-0.1-0.2-0.4-0.3-0.6-0.3c-0.4,0-0.8,0.3-1,0.6v3.2h-1.1v-4.6h1v0.6c0.4-0.5,0.9-0.7,1.4-0.7
		s1,0.2,1.3,0.6c0,0.1,0.1,0.1,0.1,0.2c0.4-0.6,1-0.8,1.6-0.8c0.5,0,1,0.2,1.2,0.6c0.4,0.5,0.4,1.1,0.4,1.8v2.4L277.4,72.3
		L277.4,72.3z"/>
	<path class="st1" d="M280.8,67.6l0.1,0.6c0.3-0.5,0.9-0.7,1.4-0.7c1.3,0,2.2,1.1,2.2,2.4s-0.9,2.4-2.2,2.4c-0.5,0-1-0.2-1.4-0.6
		v2.7h-1.1v-6.9L280.8,67.6L280.8,67.6z M280.9,70.8c0.3,0.4,0.8,0.6,1.2,0.6c0.9,0,1.3-0.8,1.3-1.5c0-0.8-0.5-1.5-1.3-1.5
		c-0.4,0-0.9,0.2-1.2,0.7V70.8z"/>
	<path class="st1" d="M286.6,72.3h-1.1v-6.8h1.1V72.3z"/>
	<path class="st1" d="M292.4,69.9c0,1.4-1,2.4-2.4,2.4s-2.4-1.1-2.4-2.4c0-1.4,1-2.4,2.4-2.4S292.4,68.6,292.4,69.9z M290,68.5
		c-0.8,0-1.3,0.7-1.3,1.5s0.5,1.5,1.3,1.5s1.3-0.7,1.3-1.5C291.3,69.1,290.8,68.5,290,68.5z"/>
	<path class="st1" d="M294,67.6l1,3.1l0,0l1.1-3.1h1.2l-2.6,6.7l-1-0.4l0.7-2l-1.7-4.4h1.3V67.6z"/>
	<path class="st1" d="M298.7,70.2c0.1,0.7,0.5,1.3,1.3,1.3c0.6,0,1-0.2,1.3-0.7l0.7,0.5c-0.5,0.8-1.1,1.1-2.1,1.1
		c-1.4,0-2.3-1-2.3-2.4s1-2.5,2.3-2.5s2.2,0.9,2.2,2.2c0,0.2,0,0.4,0,0.5H298.7z M300,68.4c-0.7,0-1.1,0.5-1.2,1h2.2
		C301,68.8,300.6,68.4,300,68.4z"/>
	<path class="st1" d="M303.9,70.2c0.1,0.7,0.5,1.3,1.3,1.3c0.6,0,1-0.2,1.3-0.7l0.7,0.5c-0.5,0.8-1.1,1.1-2.1,1.1
		c-1.4,0-2.3-1-2.3-2.4s1-2.5,2.3-2.5s2.2,0.9,2.2,2.2c0,0.2,0,0.4,0,0.5H303.9z M305.2,68.4c-0.7,0-1.1,0.5-1.2,1h2.2
		C306.2,68.8,305.8,68.4,305.2,68.4z"/>
	<path class="st1" d="M310.8,68.8c-0.2-0.2-0.6-0.4-0.9-0.4s-0.5,0.2-0.5,0.5s0.4,0.5,0.8,0.6c0.6,0.2,1.4,0.5,1.4,1.4
		c0,1-0.8,1.5-1.7,1.5c-0.7,0-1.3-0.3-1.8-0.8l0.7-0.6c0.3,0.3,0.6,0.5,1.1,0.5c0.3,0,0.7-0.2,0.7-0.5s-0.5-0.5-0.9-0.7
		c-0.5-0.2-1.3-0.5-1.3-1.4s0.8-1.4,1.6-1.4c0.6,0,1.1,0.2,1.5,0.6L310.8,68.8z"/>
</g>
<g class="st3">
	<path class="st1" d="M230.9,122.4v2.6h-1.1v-6.3h3.4v1h-2.3v1.8h2.3v1L230.9,122.4L230.9,122.4z"/>
	<path class="st1" d="M234.9,122.9c0.1,0.7,0.5,1.3,1.3,1.3c0.6,0,1-0.2,1.3-0.7l0.7,0.5c-0.5,0.8-1.1,1.1-2.1,1.1
		c-1.4,0-2.3-1-2.3-2.4s1-2.5,2.3-2.5s2.2,0.9,2.2,2.2c0,0.2,0,0.4,0,0.5H234.9z M236.2,121.1c-0.7,0-1.1,0.5-1.2,1h2.2
		C237.2,121.6,236.8,121.1,236.2,121.1z"/>
	<path class="st1" d="M245.3,125v-2.3c0-0.4,0-0.8-0.2-1.1c-0.1-0.2-0.4-0.4-0.7-0.4c-0.4,0-0.8,0.2-1.1,0.6c0,0.2,0,0.5,0,0.7v2.4
		h-1.1v-2.3c0-0.4,0-0.8-0.2-1.1c-0.1-0.2-0.4-0.3-0.6-0.3c-0.4,0-0.8,0.3-1,0.6v3.2h-1.1v-4.6h1v0.6c0.4-0.5,0.9-0.7,1.4-0.7
		s1,0.2,1.3,0.6c0,0.1,0.1,0.1,0.1,0.2c0.4-0.6,1-0.8,1.6-0.8c0.5,0,1,0.2,1.2,0.6c0.4,0.5,0.4,1.1,0.4,1.8v2.4L245.3,125L245.3,125
		z"/>
	<path class="st1" d="M250.5,125l-0.1-0.4c-0.3,0.4-0.8,0.5-1.3,0.5c-0.9,0-1.7-0.5-1.7-1.5c0-1.2,1.1-1.5,2-1.5
		c0.2,0,0.5,0,0.9,0.1v-0.1c0-0.6-0.3-1-1-1c-0.5,0-1,0.2-1.4,0.4l-0.3-0.8c0.5-0.3,1.3-0.5,1.9-0.5c1.3,0,1.9,0.7,1.9,1.9v2.8
		L250.5,125L250.5,125z M250.4,122.9c-0.3-0.1-0.5-0.1-0.7-0.1c-0.5,0-1.1,0.2-1.1,0.8c0,0.5,0.4,0.7,0.8,0.7c0.4,0,0.7-0.2,1.1-0.5
		v-0.9H250.4z"/>
	<path class="st1" d="M253.9,125h-1.1v-6.8h1.1V125z"/>
	<path class="st1" d="M256,122.9c0.1,0.7,0.5,1.3,1.3,1.3c0.6,0,1-0.2,1.3-0.7l0.7,0.5c-0.5,0.8-1.1,1.1-2.1,1.1
		c-1.4,0-2.3-1-2.3-2.4s1-2.5,2.3-2.5c1.3,0,2.2,0.9,2.2,2.2c0,0.2,0,0.4,0,0.5H256z M257.2,121.1c-0.7,0-1.1,0.5-1.2,1h2.2
		C258.2,121.6,257.8,121.1,257.2,121.1z"/>
	<path class="st1" d="M263.4,122.9c0.1,0.7,0.5,1.3,1.3,1.3c0.6,0,1-0.2,1.3-0.7l0.7,0.5c-0.5,0.8-1.1,1.1-2.1,1.1
		c-1.4,0-2.3-1-2.3-2.4s1-2.5,2.3-2.5s2.2,0.9,2.2,2.2c0,0.2,0,0.4,0,0.5H263.4z M264.7,121.1c-0.7,0-1.1,0.5-1.2,1h2.2
		C265.7,121.6,265.2,121.1,264.7,121.1z"/>
	<path class="st1" d="M273.7,125v-2.3c0-0.4,0-0.8-0.2-1.1c-0.1-0.2-0.4-0.4-0.7-0.4c-0.4,0-0.8,0.2-1.1,0.6c0,0.2,0,0.5,0,0.7v2.4
		h-1.1v-2.3c0-0.4,0-0.8-0.2-1.1c-0.1-0.2-0.4-0.3-0.6-0.3c-0.4,0-0.8,0.3-1,0.6v3.2h-1.1v-4.6h1v0.6c0.4-0.5,0.9-0.7,1.4-0.7
		s1,0.2,1.3,0.6c0,0.1,0.1,0.1,0.1,0.2c0.4-0.6,1-0.8,1.6-0.8c0.5,0,1,0.2,1.2,0.6c0.4,0.5,0.4,1.1,0.4,1.8v2.4L273.7,125L273.7,125
		z"/>
	<path class="st1" d="M277.1,120.4l0.1,0.6c0.3-0.5,0.9-0.7,1.4-0.7c1.3,0,2.2,1.1,2.2,2.4s-0.9,2.4-2.2,2.4c-0.5,0-1-0.2-1.4-0.6
		v2.7h-1.1v-6.9L277.1,120.4L277.1,120.4z M277.2,123.6c0.3,0.4,0.8,0.6,1.2,0.6c0.9,0,1.3-0.8,1.3-1.5c0-0.8-0.5-1.5-1.3-1.5
		c-0.4,0-0.9,0.2-1.2,0.7V123.6z"/>
	<path class="st1" d="M283,125h-1.1v-6.8h1.1V125z"/>
	<path class="st1" d="M288.8,122.7c0,1.4-1,2.4-2.4,2.4s-2.4-1.1-2.4-2.4c0-1.4,1-2.4,2.4-2.4C287.8,120.2,288.8,121.3,288.8,122.7z
		 M286.4,121.2c-0.8,0-1.3,0.7-1.3,1.5s0.5,1.5,1.3,1.5s1.3-0.7,1.3-1.5C287.7,121.9,287.1,121.2,286.4,121.2z"/>
	<path class="st1" d="M290.3,120.4l1,3.1l0,0l1.1-3.1h1.2l-2.6,6.7l-1-0.4l0.7-2l-1.7-4.4h1.3V120.4z"/>
	<path class="st1" d="M295.1,122.9c0.1,0.7,0.5,1.3,1.3,1.3c0.6,0,1-0.2,1.3-0.7l0.7,0.5c-0.5,0.8-1.1,1.1-2.1,1.1
		c-1.4,0-2.3-1-2.3-2.4s1-2.5,2.3-2.5s2.2,0.9,2.2,2.2c0,0.2,0,0.4,0,0.5H295.1z M296.4,121.1c-0.7,0-1.1,0.5-1.2,1h2.2
		C297.4,121.6,297,121.1,296.4,121.1z"/>
	<path class="st1" d="M300.3,122.9c0.1,0.7,0.5,1.3,1.3,1.3c0.6,0,1-0.2,1.3-0.7l0.7,0.5c-0.5,0.8-1.1,1.1-2.1,1.1
		c-1.4,0-2.3-1-2.3-2.4s1-2.5,2.3-2.5s2.2,0.9,2.2,2.2c0,0.2,0,0.4,0,0.5H300.3z M301.6,121.1c-0.7,0-1.1,0.5-1.2,1h2.2
		C302.6,121.6,302.1,121.1,301.6,121.1z"/>
	<path class="st1" d="M307.2,121.5c-0.2-0.2-0.6-0.4-0.9-0.4s-0.5,0.2-0.5,0.5s0.4,0.5,0.8,0.6c0.6,0.2,1.4,0.5,1.4,1.4
		c0,1-0.8,1.5-1.7,1.5c-0.7,0-1.3-0.3-1.8-0.8l0.7-0.6c0.3,0.3,0.6,0.5,1.1,0.5c0.3,0,0.7-0.2,0.7-0.5s-0.5-0.5-0.9-0.7
		c-0.5-0.2-1.3-0.5-1.3-1.4s0.8-1.4,1.6-1.4c0.6,0,1.1,0.2,1.5,0.6L307.2,121.5z"/>
</g>
<g class="st3">
	<path class="st2" d="M403.2,72.3h-0.8l-1.9-4.9v4.9h-1.1V66h1.7l1.8,4.6l1.8-4.6h1.7v6.3h-1.1v-4.9L403.2,72.3z"/>
	<path class="st2" d="M410.5,72.3l-0.1-0.4c-0.3,0.4-0.8,0.5-1.3,0.5c-0.9,0-1.7-0.5-1.7-1.5c0-1.2,1.1-1.5,2-1.5
		c0.2,0,0.5,0,0.9,0.1v-0.1c0-0.6-0.3-1-1-1c-0.5,0-1,0.2-1.4,0.4l-0.3-0.8c0.5-0.3,1.3-0.5,1.9-0.5c1.3,0,1.9,0.7,1.9,1.9v2.8
		L410.5,72.3L410.5,72.3z M410.4,70.2c-0.3-0.1-0.5-0.1-0.7-0.1c-0.5,0-1.1,0.2-1.1,0.8c0,0.5,0.4,0.7,0.8,0.7s0.7-0.2,1.1-0.5
		L410.4,70.2L410.4,70.2z"/>
	<path class="st2" d="M413.9,72.3h-1.1v-6.8h1.1V72.3z"/>
	<path class="st2" d="M416,70.2c0.1,0.7,0.5,1.3,1.3,1.3c0.6,0,1-0.2,1.3-0.7l0.7,0.5c-0.5,0.8-1.1,1.1-2.1,1.1
		c-1.4,0-2.3-1-2.3-2.4s1-2.5,2.3-2.5s2.2,0.9,2.2,2.2c0,0.2,0,0.4,0,0.5H416z M417.2,68.4c-0.7,0-1.1,0.5-1.2,1h2.2
		C418.2,68.8,417.8,68.4,417.2,68.4z"/>
	<path class="st2" d="M423.4,70.2c0.1,0.7,0.5,1.3,1.3,1.3c0.6,0,1-0.2,1.3-0.7l0.7,0.5c-0.5,0.8-1.1,1.1-2.1,1.1
		c-1.4,0-2.3-1-2.3-2.4s1-2.5,2.3-2.5s2.2,0.9,2.2,2.2c0,0.2,0,0.4,0,0.5H423.4z M424.7,68.4c-0.7,0-1.1,0.5-1.2,1h2.2
		C425.7,68.8,425.2,68.4,424.7,68.4z"/>
	<path class="st2" d="M433.8,72.3V70c0-0.4,0-0.8-0.2-1.1c-0.1-0.2-0.4-0.4-0.7-0.4c-0.4,0-0.8,0.2-1.1,0.6c0,0.2,0,0.5,0,0.7v2.4
		h-1.1v-2.3c0-0.4,0-0.8-0.2-1.1c-0.1-0.2-0.4-0.3-0.6-0.3c-0.4,0-0.8,0.3-1,0.6v3.2h-1.1v-4.6h1v0.6c0.4-0.5,0.9-0.7,1.4-0.7
		s1,0.2,1.3,0.6c0,0.1,0.1,0.1,0.1,0.2c0.4-0.6,1-0.8,1.6-0.8c0.5,0,1,0.2,1.2,0.6c0.4,0.5,0.4,1.1,0.4,1.8v2.4L433.8,72.3
		L433.8,72.3z"/>
	<path class="st2" d="M437.1,67.6l0.1,0.6c0.3-0.5,0.9-0.7,1.4-0.7c1.3,0,2.2,1.1,2.2,2.4s-0.9,2.4-2.2,2.4c-0.5,0-1-0.2-1.4-0.6
		v2.7h-1.1v-6.9L437.1,67.6L437.1,67.6z M437.2,70.8c0.3,0.4,0.8,0.6,1.2,0.6c0.9,0,1.3-0.8,1.3-1.5c0-0.8-0.5-1.5-1.3-1.5
		c-0.4,0-0.9,0.2-1.2,0.7V70.8z"/>
	<path class="st2" d="M443,72.3h-1.1v-6.8h1.1V72.3z"/>
	<path class="st2" d="M448.8,69.9c0,1.4-1,2.4-2.4,2.4s-2.4-1.1-2.4-2.4c0-1.4,1-2.4,2.4-2.4S448.8,68.6,448.8,69.9z M446.4,68.5
		c-0.8,0-1.3,0.7-1.3,1.5s0.5,1.5,1.3,1.5s1.3-0.7,1.3-1.5C447.7,69.1,447.1,68.5,446.4,68.5z"/>
	<path class="st2" d="M450.4,67.6l1,3.1l0,0l1.1-3.1h1.2l-2.6,6.7l-1-0.4l0.7-2l-1.7-4.4h1.3V67.6z"/>
	<path class="st2" d="M455.1,70.2c0.1,0.7,0.5,1.3,1.3,1.3c0.6,0,1-0.2,1.3-0.7l0.7,0.5c-0.5,0.8-1.1,1.1-2.1,1.1
		c-1.4,0-2.3-1-2.3-2.4s1-2.5,2.3-2.5s2.2,0.9,2.2,2.2c0,0.2,0,0.4,0,0.5H455.1z M456.4,68.4c-0.7,0-1.1,0.5-1.2,1h2.2
		C457.4,68.8,457,68.4,456.4,68.4z"/>
	<path class="st2" d="M460.3,70.2c0.1,0.7,0.5,1.3,1.3,1.3c0.6,0,1-0.2,1.3-0.7l0.7,0.5c-0.5,0.8-1.1,1.1-2.1,1.1
		c-1.4,0-2.3-1-2.3-2.4s1-2.5,2.3-2.5s2.2,0.9,2.2,2.2c0,0.2,0,0.4,0,0.5H460.3z M461.6,68.4c-0.7,0-1.1,0.5-1.2,1h2.2
		C462.6,68.8,462.2,68.4,461.6,68.4z"/>
	<path class="st2" d="M467.2,68.8c-0.2-0.2-0.6-0.4-0.9-0.4s-0.5,0.2-0.5,0.5s0.4,0.5,0.8,0.6c0.6,0.2,1.4,0.5,1.4,1.4
		c0,1-0.8,1.5-1.7,1.5c-0.7,0-1.3-0.3-1.8-0.8L465,71c0.3,0.3,0.6,0.5,1.1,0.5c0.3,0,0.7-0.2,0.7-0.5s-0.5-0.5-0.9-0.7
		c-0.5-0.2-1.3-0.5-1.3-1.4s0.8-1.4,1.6-1.4c0.6,0,1.1,0.2,1.5,0.6L467.2,68.8z"/>
</g>
<g class="st3">
	<path class="st2" d="M378.1,125h-0.8l-1.9-4.9v4.9h-1.1v-6.3h1.7l1.8,4.6l1.8-4.6h1.7v6.3h-1.1v-4.9L378.1,125z"/>
	<path class="st2" d="M385.5,125l-0.1-0.4c-0.3,0.4-0.8,0.5-1.3,0.5c-0.9,0-1.7-0.5-1.7-1.5c0-1.2,1.1-1.5,2-1.5
		c0.2,0,0.5,0,0.9,0.1v-0.1c0-0.6-0.3-1-1-1c-0.5,0-1,0.2-1.4,0.4l-0.3-0.8c0.5-0.3,1.3-0.5,1.9-0.5c1.3,0,1.9,0.7,1.9,1.9v2.8
		L385.5,125L385.5,125z M385.4,122.9c-0.3-0.1-0.5-0.1-0.7-0.1c-0.5,0-1.1,0.2-1.1,0.8c0,0.5,0.4,0.7,0.8,0.7s0.7-0.2,1.1-0.5
		L385.4,122.9L385.4,122.9z"/>
	<path class="st2" d="M388.8,125h-1.1v-6.8h1.1V125z"/>
	<path class="st2" d="M391,122.9c0.1,0.7,0.5,1.3,1.3,1.3c0.6,0,1-0.2,1.3-0.7l0.7,0.5c-0.5,0.8-1.1,1.1-2.1,1.1
		c-1.4,0-2.3-1-2.3-2.4s1-2.5,2.3-2.5s2.2,0.9,2.2,2.2c0,0.2,0,0.4,0,0.5H391z M392.2,121.1c-0.7,0-1.1,0.5-1.2,1h2.2
		C393.2,121.6,392.8,121.1,392.2,121.1z"/>
	<path class="st2" d="M398.4,122.9c0.1,0.7,0.5,1.3,1.3,1.3c0.6,0,1-0.2,1.3-0.7l0.7,0.5c-0.5,0.8-1.1,1.1-2.1,1.1
		c-1.4,0-2.3-1-2.3-2.4s1-2.5,2.3-2.5s2.2,0.9,2.2,2.2c0,0.2,0,0.4,0,0.5H398.4z M399.6,121.1c-0.7,0-1.1,0.5-1.2,1h2.2
		C400.7,121.6,400.2,121.1,399.6,121.1z"/>
	<path class="st2" d="M408.7,125v-2.3c0-0.4,0-0.8-0.2-1.1c-0.1-0.2-0.4-0.4-0.7-0.4c-0.4,0-0.8,0.2-1.1,0.6c0,0.2,0,0.5,0,0.7v2.4
		h-1.1v-2.3c0-0.4,0-0.8-0.2-1.1c-0.1-0.2-0.4-0.3-0.6-0.3c-0.4,0-0.8,0.3-1,0.6v3.2h-1.1v-4.6h1v0.6c0.4-0.5,0.9-0.7,1.4-0.7
		s1,0.2,1.3,0.6c0,0.1,0.1,0.1,0.1,0.2c0.4-0.6,1-0.8,1.6-0.8c0.5,0,1,0.2,1.2,0.6c0.4,0.5,0.4,1.1,0.4,1.8v2.4L408.7,125L408.7,125
		z"/>
	<path class="st2" d="M412.1,120.4l0.1,0.6c0.3-0.5,0.9-0.7,1.4-0.7c1.3,0,2.2,1.1,2.2,2.4s-0.9,2.4-2.2,2.4c-0.5,0-1-0.2-1.4-0.6
		v2.7h-1.1v-6.9L412.1,120.4L412.1,120.4z M412.2,123.6c0.3,0.4,0.8,0.6,1.2,0.6c0.9,0,1.3-0.8,1.3-1.5c0-0.8-0.5-1.5-1.3-1.5
		c-0.4,0-0.9,0.2-1.2,0.7V123.6z"/>
	<path class="st2" d="M418,125h-1.1v-6.8h1.1V125z"/>
	<path class="st2" d="M423.8,122.7c0,1.4-1,2.4-2.4,2.4s-2.4-1.1-2.4-2.4c0-1.4,1-2.4,2.4-2.4C422.8,120.2,423.8,121.3,423.8,122.7z
		 M421.4,121.2c-0.8,0-1.3,0.7-1.3,1.5s0.5,1.5,1.3,1.5s1.3-0.7,1.3-1.5C422.7,121.9,422.1,121.2,421.4,121.2z"/>
	<path class="st2" d="M425.3,120.4l1,3.1l0,0l1.1-3.1h1.2l-2.6,6.7l-1-0.4l0.7-2l-1.7-4.4h1.3V120.4z"/>
	<path class="st2" d="M430.1,122.9c0.1,0.7,0.5,1.3,1.3,1.3c0.6,0,1-0.2,1.3-0.7l0.7,0.5c-0.5,0.8-1.1,1.1-2.1,1.1
		c-1.4,0-2.3-1-2.3-2.4s1-2.5,2.3-2.5s2.2,0.9,2.2,2.2c0,0.2,0,0.4,0,0.5H430.1z M431.4,121.1c-0.7,0-1.1,0.5-1.2,1h2.2
		C432.4,121.6,432,121.1,431.4,121.1z"/>
	<path class="st2" d="M435.3,122.9c0.1,0.7,0.5,1.3,1.3,1.3c0.6,0,1-0.2,1.3-0.7l0.7,0.5c-0.5,0.8-1.1,1.1-2.1,1.1
		c-1.4,0-2.3-1-2.3-2.4s1-2.5,2.3-2.5s2.2,0.9,2.2,2.2c0,0.2,0,0.4,0,0.5H435.3z M436.6,121.1c-0.7,0-1.1,0.5-1.2,1h2.2
		C437.6,121.6,437.1,121.1,436.6,121.1z"/>
	<path class="st2" d="M442.2,121.5c-0.2-0.2-0.6-0.4-0.9-0.4s-0.5,0.2-0.5,0.5s0.4,0.5,0.8,0.6c0.6,0.2,1.4,0.5,1.4,1.4
		c0,1-0.8,1.5-1.7,1.5c-0.7,0-1.3-0.3-1.8-0.8l0.7-0.6c0.3,0.3,0.6,0.5,1.1,0.5c0.3,0,0.7-0.2,0.7-0.5s-0.5-0.5-0.9-0.7
		c-0.5-0.2-1.3-0.5-1.3-1.4s0.8-1.4,1.6-1.4c0.6,0,1.1,0.2,1.5,0.6L442.2,121.5z"/>
</g>
<g class="st3">
	<path class="st1" d="M96.9,57.6v-2c1.8-1.9,3.9-4.2,5.4-6.3c0.6-0.9,1.4-2.2,1.4-3.2c0-1.4-1.3-2.1-2.5-2.1c-1.3,0-2.4,1-2.4,2.4
		L96.7,46c0.2-2.3,2.5-3.9,4.6-3.9c2.4,0,4.6,1.6,4.6,4c0,1.4-0.8,3-1.6,4.2c-1.3,1.9-2.9,3.7-4.5,5.4h6.8v1.9
		C106.6,57.6,96.9,57.6,96.9,57.6z"/>
</g>
<g class="st3">
	<path class="st1" d="M119.2,50c0,4.9-2,7.9-5.4,7.9s-5.4-3-5.4-7.9s2-7.9,5.4-7.9S119.2,45.1,119.2,50z M110.6,50
		c0,4,1.2,5.9,3.2,5.9s3.2-2,3.2-5.9c0-4-1.2-5.9-3.2-5.9S110.6,46,110.6,50z"/>
	<path class="st1" d="M123.7,57.6V45c-0.7,0.4-1.7,0.7-2.3,1v-2c0.9-0.5,2-1,3.1-1.6h1.4v15.3h-2.2V57.6z"/>
	<path class="st1" d="M131,56.5c2.8-1.3,5.1-3,5.9-5.9c-0.9,0.9-2.1,1.4-3.4,1.4c-2.7,0-4.5-2.2-4.5-4.9c0-2.8,2-5,4.9-5
		c3.5,0,5.6,2.9,5.6,6.1c0,4.9-3.4,8.6-7.5,10.3L131,56.5z M137.2,48.1c0-2.1-0.9-4.1-3.2-4.1c-1.7,0-2.8,1.4-2.8,3.1
		c0,1.7,1,2.9,2.7,2.9C135.3,50.1,136.6,49.3,137.2,48.1z"/>
</g>
<g class="st3">
	<path class="st1" d="M106.9,109.3h-10v-2.2c1.8-1.8,3.8-4.2,5.3-6.2c0.6-0.8,1.2-1.9,1.2-2.9c0-1.1-0.9-1.8-2-1.8s-2,0.9-2,2.2
		l-2.8-0.5c0.2-2.5,2.5-4.2,4.9-4.2c2.5,0,4.8,1.6,4.8,4.2c0,1.5-0.7,3-1.6,4.3c-1.2,1.7-2.6,3.3-4,4.8h6.3v2.3H106.9z"/>
</g>
<g class="st3">
	<path class="st1" d="M119.7,101.7c0,4.9-2,7.9-5.6,7.9s-5.6-3-5.6-7.9s2-7.9,5.6-7.9C117.7,93.8,119.7,96.8,119.7,101.7z
		 M111.4,101.7c0,3.7,1,5.5,2.7,5.5s2.7-1.8,2.7-5.5s-1-5.5-2.7-5.5S111.4,98,111.4,101.7z"/>
</g>
<g class="st3">
	<path class="st1" d="M131.8,109.3h-10v-2.2c1.8-1.8,3.8-4.2,5.3-6.2c0.6-0.8,1.2-1.9,1.2-2.9c0-1.1-0.9-1.8-2-1.8s-2,0.9-2,2.2
		l-2.8-0.5c0.2-2.5,2.5-4.2,4.9-4.2c2.5,0,4.8,1.6,4.8,4.2c0,1.5-0.7,3-1.6,4.3c-1.2,1.7-2.6,3.3-4,4.8h6.3L131.8,109.3L131.8,109.3
		z"/>
</g>
<g class="st3">
	<path class="st1" d="M144.7,101.7c0,4.9-2,7.9-5.6,7.9s-5.6-3-5.6-7.9s2-7.9,5.6-7.9C142.6,93.8,144.7,96.8,144.7,101.7z
		 M136.3,101.7c0,3.7,1,5.5,2.7,5.5s2.7-1.8,2.7-5.5s-1-5.5-2.7-5.5S136.3,98,136.3,101.7z"/>
</g>
<g class="st3">
	<path class="st1" d="M40.3,9.3v8.9h-1.9V9.3h-2.6V7.8h7v1.6h-2.5V9.3z"/>
</g>
<g class="st3">
	<path class="st1" d="M50.8,14.4c0,2.3-1.7,4-4,4s-4-1.8-4-4s1.7-4,4-4C49.1,10.3,50.8,12.1,50.8,14.4z M46.8,11.9
		c-1.3,0-2.2,1.1-2.2,2.4c0,1.4,0.9,2.5,2.2,2.5s2.2-1.1,2.2-2.5C48.9,13,48,11.9,46.8,11.9z"/>
	<path class="st1" d="M54.3,12.1v3.2c0,0.2,0,0.4,0,0.6c0.1,0.6,0.3,0.9,0.8,0.9c0.3,0,0.6-0.1,0.9-0.2l0.5,1.4
		c-0.5,0.3-1.1,0.4-1.7,0.4c-1.2,0-1.9-0.6-2.2-1.5c-0.1-0.4-0.2-0.9-0.2-1.4V12h-1v-1.5h1l0.2-1.8h1.6v1.8h2V12h-1.9V12.1z"/>
	<path class="st1" d="M62.5,18.2l-0.1-0.7c-0.6,0.7-1.3,0.9-2.2,0.9c-1.4,0-2.8-0.8-2.8-2.4c0-1.9,1.8-2.5,3.4-2.5
		c0.4,0,0.9,0,1.5,0.2v-0.2c0-1-0.5-1.7-1.6-1.7c-0.9,0-1.7,0.3-2.4,0.7l-0.5-1.4c0.9-0.5,2.1-0.8,3.2-0.8c2.2,0,3.1,1.2,3.1,3.2
		v4.7H62.5z M62.3,14.8c-0.5-0.1-0.8-0.2-1.2-0.2c-0.9,0-1.9,0.3-1.9,1.3c0,0.8,0.6,1.1,1.3,1.1s1.2-0.3,1.8-0.8
		C62.3,16.2,62.3,14.8,62.3,14.8z"/>
	<path class="st1" d="M68.1,18.2h-1.8V7h1.8V18.2z"/>
	<path class="st1" d="M76,12.1v3.2c0,0.2,0,0.4,0,0.6c0.1,0.6,0.3,0.9,0.8,0.9c0.3,0,0.6-0.1,0.9-0.2l0.5,1.4
		c-0.5,0.3-1.1,0.4-1.7,0.4c-1.2,0-1.9-0.6-2.2-1.5c-0.1-0.4-0.2-0.9-0.2-1.4V12h-1v-1.5h1l0.2-1.8H76v1.8h2V12h-2V12.1z"/>
	<path class="st1" d="M81.3,11.6c0.5-0.8,1.1-1.3,1.9-1.3c0.4,0,0.6,0,0.9,0.1l-0.4,1.7c-0.2,0-0.4-0.1-0.7-0.1
		c-0.7,0-1.2,0.4-1.6,1v5.2h-1.8v-7.7h1.7L81.3,11.6z"/>
	<path class="st1" d="M89.7,18.2l-0.1-0.7c-0.6,0.7-1.3,0.9-2.2,0.9c-1.4,0-2.8-0.8-2.8-2.4c0-1.9,1.8-2.5,3.4-2.5
		c0.4,0,0.9,0,1.5,0.2v-0.2c0-1-0.5-1.7-1.6-1.7c-0.9,0-1.7,0.3-2.4,0.7L85,11.1c0.9-0.5,2.1-0.8,3.2-0.8c2.2,0,3.1,1.2,3.1,3.2v4.7
		H89.7z M89.5,14.8c-0.5-0.1-0.8-0.2-1.2-0.2c-0.9,0-1.9,0.3-1.9,1.3c0,0.8,0.6,1.1,1.3,1.1c0.7,0,1.2-0.3,1.8-0.8
		C89.5,16.2,89.5,14.8,89.5,14.8z"/>
	<path class="st1" d="M93.5,9.3V7.6h1.8v1.7H93.5z M93.5,18.2v-7.7h1.8v7.7H93.5z"/>
	<path class="st1" d="M99.2,10.5l0.1,1.1c0.6-0.9,1.5-1.3,2.5-1.3c0.9,0,1.6,0.4,2.1,1c0.6,0.8,0.7,1.8,0.7,2.9v4h-1.8v-3.9
		c0-0.6,0-1.4-0.3-1.8c-0.2-0.4-0.6-0.6-1.2-0.6c-0.7,0-1.5,0.5-1.9,1.2v5.1h-1.8v-7.7C97.6,10.5,99.2,10.5,99.2,10.5z"/>
	<path class="st1" d="M106.8,9.3V7.6h1.8v1.7H106.8z M106.8,18.2v-7.7h1.8v7.7H106.8z"/>
	<path class="st1" d="M112.5,10.5l0.1,1.1c0.6-0.9,1.5-1.3,2.5-1.3c0.9,0,1.6,0.4,2.1,1c0.6,0.8,0.7,1.8,0.7,2.9v4H116v-3.9
		c0-0.6,0-1.4-0.3-1.8c-0.2-0.4-0.6-0.6-1.2-0.6c-0.7,0-1.5,0.5-1.9,1.2v5.1h-1.8v-7.7C110.8,10.5,112.5,10.5,112.5,10.5z"/>
	<path class="st1" d="M127.3,17.8c0,0.8-0.2,1.5-0.5,2c-0.7,1.3-2,1.8-3.5,1.8c-1.2,0-2.5-0.3-3.5-1l0.7-1.5c0.8,0.6,1.9,1,2.8,1
		c1.2,0,2.1-0.6,2.1-2v-0.9c-0.6,0.8-1.5,1.1-2.4,1.1c-2.1,0-3.7-1.7-3.7-4c0-2.1,1.5-3.9,3.7-3.9c0.8,0,1.8,0.3,2.4,1.1l0.1-0.9
		h1.7v7.2H127.3z M125.5,12.9c-0.5-0.7-1.3-1-2-1c-1.5,0-2.2,1.2-2.2,2.4s0.9,2.3,2.2,2.3c0.7,0,1.6-0.4,2-1.2V12.9z"/>
	<path class="st1" d="M135.1,11.6c0.6-0.8,1.5-1.2,2.4-1.2s1.6,0.4,2.1,1c0.6,0.8,0.7,1.8,0.7,2.9v4h-1.8v-3.9c0-0.6,0-1.4-0.3-1.8
		c-0.2-0.4-0.6-0.6-1.2-0.6c-0.7,0-1.5,0.5-1.9,1.2v5.1h-1.8V7h1.8V11.6z"/>
	<path class="st1" d="M149.9,14.4c0,2.3-1.7,4-4,4s-4-1.8-4-4s1.7-4,4-4C148.2,10.3,149.9,12.1,149.9,14.4z M145.9,11.9
		c-1.3,0-2.2,1.1-2.2,2.4c0,1.4,0.9,2.5,2.2,2.5s2.2-1.1,2.2-2.5C148,13,147.1,11.9,145.9,11.9z"/>
	<path class="st1" d="M156.9,18.2l-0.1-1.1c-0.6,0.9-1.5,1.3-2.5,1.3c-0.9,0-1.6-0.4-2.1-1c-0.6-0.8-0.7-1.8-0.7-2.9v-4h1.8v3.9
		c0,0.6,0,1.4,0.3,1.8c0.2,0.4,0.6,0.6,1.2,0.6c0.7,0,1.5-0.5,1.9-1.2v-5.1h1.8v7.7H156.9z"/>
	<path class="st1" d="M162.5,11.6c0.5-0.8,1.1-1.3,1.9-1.3c0.4,0,0.6,0,0.9,0.1l-0.4,1.7c-0.2-0.1-0.5-0.2-0.7-0.2
		c-0.7,0-1.2,0.4-1.6,1v5.2h-1.8v-7.7h1.7L162.5,11.6z"/>
	<path class="st1" d="M170.3,12.4c-0.4-0.3-1-0.6-1.5-0.6s-0.9,0.3-0.9,0.8s0.6,0.8,1.3,1.1c1,0.4,2.2,0.9,2.2,2.3
		c0,1.7-1.4,2.5-2.9,2.5c-1.1,0-2.2-0.4-2.9-1.3l1.1-1c0.6,0.6,1.1,0.9,1.8,0.9c0.6,0,1.2-0.3,1.2-0.9c0-0.5-0.8-0.8-1.4-1.1
		c-0.9-0.4-2.1-0.9-2.1-2.3c0-1.6,1.3-2.3,2.7-2.3c1,0,1.9,0.3,2.5,0.9L170.3,12.4z"/>
	<path class="st1" d="M178.7,10.5l0.1,1c0.5-0.8,1.6-1.2,2.4-1.2c2.1,0,3.7,1.8,3.7,4.1c0,2.1-1.5,4-3.7,4c-0.8,0-1.7-0.3-2.3-1V22
		H177V10.5H178.7z M178.8,15.9c0.5,0.7,1.3,1,2,1c1.5,0,2.2-1.3,2.2-2.5c0-1.3-0.9-2.4-2.2-2.4c-0.7,0-1.6,0.4-2,1.2V15.9z"/>
	<path class="st1" d="M188.3,11.6c0.5-0.8,1.1-1.3,1.9-1.3c0.4,0,0.6,0,0.9,0.1l-0.4,1.7c-0.2-0.1-0.5-0.2-0.7-0.2
		c-0.7,0-1.2,0.4-1.6,1v5.2h-1.8v-7.7h1.7L188.3,11.6z"/>
	<path class="st1" d="M199.5,14.4c0,2.3-1.7,4-4,4s-4-1.8-4-4s1.7-4,4-4C197.8,10.3,199.5,12.1,199.5,14.4z M195.5,11.9
		c-1.3,0-2.2,1.1-2.2,2.4c0,1.4,0.9,2.5,2.2,2.5s2.2-1.1,2.2-2.5C197.7,13,196.8,11.9,195.5,11.9z"/>
	<path class="st1" d="M207.7,10.5l-3.1,7.7h-1.5l-2.9-7.7h2l1.8,5.3l0,0l1.8-5.3C205.8,10.5,207.7,10.5,207.7,10.5z"/>
	<path class="st1" d="M208.9,9.3V7.6h1.8v1.7H208.9z M208.9,18.2v-7.7h1.8v7.7H208.9z"/>
	<path class="st1" d="M220.3,18.2h-1.7l-0.1-1c-0.6,0.8-1.6,1.2-2.4,1.2c-2.1,0-3.7-1.8-3.7-4.1c0-2.1,1.5-4,3.7-4
		c0.8,0,1.7,0.3,2.3,1V7h1.8L220.3,18.2L220.3,18.2z M218.5,12.9c-0.5-0.7-1.3-1-2-1c-1.5,0-2.2,1.3-2.2,2.5c0,1.3,0.8,2.4,2.2,2.4
		c0.7,0,1.6-0.4,2-1.2V12.9z"/>
	<path class="st1" d="M223.8,14.8c0.1,1.2,0.9,2.1,2.2,2.1c1,0,1.6-0.4,2.1-1.2l1.2,0.8c-0.9,1.3-1.9,1.9-3.5,1.9
		c-2.4,0-3.9-1.7-3.9-4s1.7-4.1,3.9-4.1c2.1,0,3.6,1.5,3.6,3.6c0,0.3,0,0.6-0.1,0.9C229.3,14.8,223.8,14.8,223.8,14.8z M225.9,11.8
		c-1.1,0-1.8,0.8-2,1.7h3.7C227.6,12.5,226.9,11.8,225.9,11.8z"/>
	<path class="st1" d="M238.5,18.2h-1.7l-0.1-1c-0.6,0.8-1.6,1.2-2.4,1.2c-2.1,0-3.7-1.8-3.7-4.1c0-2.1,1.5-4,3.7-4
		c0.8,0,1.7,0.3,2.3,1V7h1.8L238.5,18.2L238.5,18.2z M236.7,12.9c-0.5-0.7-1.3-1-2-1c-1.5,0-2.2,1.3-2.2,2.5c0,1.3,0.8,2.4,2.2,2.4
		c0.7,0,1.6-0.4,2-1.2V12.9z"/>
	<path class="st1" d="M246.4,12.1v3.2c0,0.2,0,0.4,0,0.6c0.1,0.6,0.3,0.9,0.8,0.9c0.3,0,0.6-0.1,0.9-0.2l0.5,1.4
		c-0.5,0.3-1.1,0.4-1.7,0.4c-1.2,0-1.9-0.6-2.2-1.5c-0.1-0.4-0.2-0.9-0.2-1.4V12h-1v-1.5h1l0.2-1.8h1.6v1.8h2V12h-1.9V12.1z"/>
	<path class="st1" d="M257.4,14.4c0,2.3-1.7,4-4,4s-4-1.8-4-4s1.7-4,4-4S257.4,12.1,257.4,14.4z M253.4,11.9c-1.3,0-2.2,1.1-2.2,2.4
		c0,1.4,0.9,2.5,2.2,2.5s2.2-1.1,2.2-2.5C255.5,13,254.6,11.9,253.4,11.9z"/>
	<path class="st1" d="M264,14.8c0.1,1.2,0.9,2.1,2.2,2.1c1,0,1.6-0.4,2.1-1.2l1.2,0.8c-0.9,1.3-1.9,1.9-3.5,1.9
		c-2.4,0-3.9-1.7-3.9-4s1.7-4.1,3.9-4.1c2.1,0,3.6,1.5,3.6,3.6c0,0.3,0,0.6-0.1,0.9C269.5,14.8,264,14.8,264,14.8z M266.1,11.8
		c-1.1,0-1.8,0.8-2,1.7h3.7C267.8,12.5,267.1,11.8,266.1,11.8z"/>
	<path class="st1" d="M281.3,18.2v-3.9c0-0.6,0-1.4-0.3-1.8c-0.2-0.4-0.6-0.6-1.2-0.6s-1.3,0.4-1.8,1c0.1,0.4,0.1,0.8,0.1,1.2v4
		h-1.8v-3.9c0-0.6,0-1.4-0.3-1.9c-0.2-0.4-0.6-0.5-1.1-0.5c-0.6,0-1.3,0.5-1.7,1v5.3h-1.8v-7.7h1.7l0.1,1c0.6-0.8,1.5-1.2,2.3-1.2
		s1.6,0.4,2.1,1c0.1,0.1,0.1,0.2,0.2,0.3c0.7-1,1.7-1.3,2.6-1.3s1.6,0.4,2.1,1c0.6,0.8,0.7,1.8,0.7,2.9v4L281.3,18.2L281.3,18.2z"/>
	<path class="st1" d="M287,10.5l0.1,1c0.5-0.8,1.6-1.2,2.4-1.2c2.1,0,3.7,1.8,3.7,4.1c0,2.1-1.5,4-3.7,4c-0.8,0-1.7-0.3-2.3-1V22
		h-1.8V10.5H287z M287.1,15.9c0.5,0.7,1.3,1,2,1c1.5,0,2.2-1.3,2.2-2.5c0-1.3-0.9-2.4-2.2-2.4c-0.7,0-1.6,0.4-2,1.2V15.9z"/>
	<path class="st1" d="M296.7,18.2h-1.8V7h1.8V18.2z"/>
	<path class="st1" d="M306.4,14.4c0,2.3-1.7,4-4,4s-4-1.8-4-4s1.7-4,4-4C304.7,10.3,306.4,12.1,306.4,14.4z M302.4,11.9
		c-1.3,0-2.2,1.1-2.2,2.4c0,1.4,0.9,2.5,2.2,2.5c1.3,0,2.2-1.1,2.2-2.5C304.5,13,303.6,11.9,302.4,11.9z"/>
	<path class="st1" d="M309,10.5l1.7,5.1l0,0l1.8-5.1h2l-4.3,11.2l-1.6-0.6l1.2-3.3l-2.8-7.4L309,10.5L309,10.5z"/>
	<path class="st1" d="M316.9,14.8c0.1,1.2,0.9,2.1,2.2,2.1c1,0,1.6-0.4,2.1-1.2l1.2,0.8c-0.9,1.3-1.9,1.9-3.5,1.9
		c-2.4,0-3.9-1.7-3.9-4s1.7-4.1,3.9-4.1c2.1,0,3.6,1.5,3.6,3.6c0,0.3,0,0.6-0.1,0.9C322.4,14.8,316.9,14.8,316.9,14.8z M319,11.8
		c-1.1,0-1.8,0.8-2,1.7h3.7C320.7,12.5,320,11.8,319,11.8z"/>
	<path class="st1" d="M325.6,14.8c0.1,1.2,0.9,2.1,2.2,2.1c1,0,1.7-0.4,2.1-1.2l1.2,0.8c-0.9,1.3-1.9,1.9-3.5,1.9
		c-2.4,0-3.9-1.7-3.9-4s1.7-4.1,3.9-4.1c2.1,0,3.6,1.5,3.6,3.6c0,0.3,0,0.6-0.1,0.9C331.1,14.8,325.6,14.8,325.6,14.8z M327.7,11.8
		c-1.1,0-1.8,0.8-2,1.7h3.7C329.4,12.5,328.6,11.8,327.7,11.8z"/>
	<path class="st1" d="M337,12.4c-0.4-0.3-1-0.6-1.5-0.6s-0.9,0.3-0.9,0.8s0.6,0.8,1.3,1.1c1,0.4,2.2,0.9,2.2,2.3
		c0,1.7-1.4,2.5-2.9,2.5c-1.1,0-2.2-0.4-2.9-1.3l1.1-1c0.6,0.6,1.1,0.9,1.8,0.9c0.6,0,1.2-0.3,1.2-0.9c0-0.5-0.8-0.8-1.4-1.1
		c-0.9-0.4-2.1-0.9-2.1-2.3c0-1.6,1.3-2.3,2.7-2.3c1,0,1.9,0.3,2.5,0.9L337,12.4z"/>
</g>
</svg>
