<?xml version="1.0" encoding="utf-8"?>
<!-- Generator: Adobe Illustrator 25.2.1, SVG Export Plug-In . SVG Version: 6.00 Build 0)  -->
<svg version="1.1" id="Layer_1" xmlns="http://www.w3.org/2000/svg" xmlns:xlink="http://www.w3.org/1999/xlink" x="0px" y="0px"
	 viewBox="0 0 582.3 135.1" style="enable-background:new 0 0 582.3 135.1;" xml:space="preserve">
<style type="text/css">
	.st0{clip-path:url(#SVGID_2_);}
	.st1{fill:#C2384A;}
	.st2{fill:#730526;}
	.st3{enable-background:new    ;}
	.st4{fill:#FFFFFF;}
</style>
<g>
	<defs>
		<rect id="SVGID_1_" width="582.3" height="135.1"/>
	</defs>
	<clipPath id="SVGID_2_">
		<use xlink:href="#SVGID_1_"  style="overflow:visible;"/>
	</clipPath>
	<g class="st0">
		<g>
			<rect y="60.6" class="st1" width="158.6" height="1"/>
		</g>
		<g>
			<rect y="112.3" class="st1" width="158.6" height="1"/>
		</g>
	</g>
</g>
<g>
	<rect x="159" y="41.6" class="st1" width="250.5" height="20.4"/>
</g>
<g>
	<rect x="409.1" y="41.6" class="st2" width="133.3" height="20.4"/>
</g>
<g>
	<rect x="159" y="92.9" class="st1" width="232" height="20.4"/>
</g>
<g>
	<rect x="391" y="92.9" class="st2" width="182.3" height="20.4"/>
</g>
<g class="st3">
	<path class="st4" d="M241.6,54.7v-6.3c-0.4,0.2-0.8,0.4-1.2,0.5v-1.3c0.5-0.3,1.1-0.6,1.7-0.9h1v8H241.6z"/>
</g>
<g class="st3">
	<path class="st4" d="M249.5,47.7c-1,2.1-2.4,5.3-3.3,7.3l-1.3-0.6c1.1-2.5,2.4-5,3-6.4h-3.6v-1.3h5.3V47.7z"/>
</g>
<g class="st3">
	<path class="st4" d="M249.4,54.7v-1.6h1.6v1.6H249.4z"/>
</g>
<g class="st3">
	<path class="st4" d="M255.4,54.7v-2h-3.5v-1.4c1-1.3,2.4-3.2,3.4-4.7h1.5v4.8h1.2v1.2h-1.2v2H255.4z M255.4,51.5v-2.8
		c-0.6,0.9-1.5,2.2-1.9,2.8H255.4z"/>
	<path class="st4" d="M263.5,49.4c0.5-0.7,1.2-1,1.9-1c0.7,0,1.3,0.3,1.7,0.8c0.5,0.6,0.6,1.4,0.6,2.3v3.2h-1.5v-3.1
		c0-0.5,0-1.1-0.2-1.5c-0.2-0.3-0.5-0.5-0.9-0.5c-0.6,0-1.2,0.4-1.5,0.9v4.1h-1.5v-9h1.5V49.4z"/>
	<path class="st4" d="M270.8,49.4c0.4-0.6,0.9-1,1.5-1c0.3,0,0.5,0,0.7,0.1l-0.3,1.4c-0.2-0.1-0.4-0.1-0.6-0.1c-0.5,0-1,0.3-1.3,0.8
		v4.2h-1.5v-6.2h1.3L270.8,49.4z"/>
</g>
<g class="st3">
	<path class="st4" d="M277.1,50.1c-0.3-0.3-0.8-0.5-1.2-0.5c-0.4,0-0.7,0.2-0.7,0.6c0,0.4,0.5,0.6,1.1,0.9c0.8,0.3,1.8,0.7,1.8,1.9
		c0,1.4-1.1,2-2.3,2c-0.9,0-1.7-0.4-2.3-1l0.9-0.8c0.4,0.4,0.9,0.7,1.4,0.7c0.4,0,0.9-0.2,0.9-0.7c0-0.4-0.6-0.7-1.2-0.9
		c-0.7-0.3-1.7-0.7-1.7-1.8c0-1.3,1-1.9,2.1-1.9c0.8,0,1.5,0.3,2,0.8L277.1,50.1z"/>
</g>
<g class="st3">
	<path class="st4" d="M280,55.4l-1.2-0.5l3.5-9.4l1.2,0.5L280,55.4z"/>
</g>
<g class="st3">
	<path class="st4" d="M285,52c0.1,0.9,0.7,1.7,1.7,1.7c0.8,0,1.3-0.3,1.7-1l1,0.7c-0.7,1-1.5,1.5-2.8,1.5c-1.9,0-3.1-1.4-3.1-3.2
		c0-1.9,1.4-3.3,3.1-3.3c1.7,0,2.9,1.2,2.9,2.9c0,0.2,0,0.5-0.1,0.7H285z M286.7,49.6c-0.9,0-1.4,0.6-1.6,1.4h3
		C288,50.2,287.5,49.6,286.7,49.6z"/>
	<path class="st4" d="M298.8,54.7v-3.1c0-0.5,0-1.1-0.2-1.5c-0.2-0.3-0.5-0.5-0.9-0.5c-0.5,0-1,0.3-1.4,0.8c0,0.3,0.1,0.6,0.1,1v3.2
		h-1.5v-3.1c0-0.5,0-1.1-0.2-1.5c-0.2-0.3-0.5-0.4-0.9-0.4c-0.5,0-1,0.4-1.4,0.8v4.2h-1.5v-6.2h1.3l0.1,0.8c0.5-0.6,1.2-1,1.8-1
		c0.7,0,1.3,0.3,1.7,0.8c0,0.1,0.1,0.1,0.1,0.2c0.6-0.8,1.4-1.1,2.1-1.1c0.7,0,1.3,0.3,1.7,0.8c0.5,0.6,0.6,1.4,0.6,2.3v3.2H298.8z"
		/>
	<path class="st4" d="M303.3,48.6l0.1,0.8c0.4-0.7,1.2-0.9,1.9-0.9c1.7,0,3,1.4,3,3.2c0,1.7-1.2,3.2-3,3.2c-0.6,0-1.4-0.2-1.9-0.8
		v3.6H302v-9.2H303.3z M303.5,52.8c0.4,0.5,1,0.8,1.6,0.8c1.2,0,1.8-1,1.8-2c0-1-0.7-1.9-1.8-1.9c-0.6,0-1.3,0.3-1.6,1V52.8z"/>
	<path class="st4" d="M311.1,54.7h-1.5v-9h1.5V54.7z"/>
	<path class="st4" d="M318.9,51.6c0,1.8-1.4,3.2-3.2,3.2c-1.8,0-3.2-1.4-3.2-3.2c0-1.8,1.4-3.2,3.2-3.2
		C317.5,48.4,318.9,49.8,318.9,51.6z M315.7,49.7c-1,0-1.7,0.9-1.7,2c0,1.1,0.7,2,1.7,2c1,0,1.7-0.9,1.7-2
		C317.4,50.6,316.7,49.7,315.7,49.7z"/>
	<path class="st4" d="M320.9,48.6l1.4,4.1h0l1.4-4.1h1.6l-3.5,9l-1.3-0.5l1-2.6l-2.2-5.9H320.9z"/>
	<path class="st4" d="M327.3,52c0.1,0.9,0.7,1.7,1.7,1.7c0.8,0,1.3-0.3,1.7-1l1,0.7c-0.7,1-1.5,1.5-2.8,1.5c-1.9,0-3.1-1.4-3.1-3.2
		c0-1.9,1.4-3.3,3.1-3.3c1.7,0,2.9,1.2,2.9,2.9c0,0.2,0,0.5-0.1,0.7H327.3z M329,49.6c-0.9,0-1.4,0.6-1.6,1.4h3
		C330.4,50.2,329.8,49.6,329,49.6z"/>
	<path class="st4" d="M334.2,52c0.1,0.9,0.7,1.7,1.7,1.7c0.8,0,1.3-0.3,1.7-1l1,0.7c-0.7,1-1.5,1.5-2.8,1.5c-1.9,0-3.1-1.4-3.1-3.2
		c0-1.9,1.4-3.3,3.1-3.3c1.7,0,2.9,1.2,2.9,2.9c0,0.2,0,0.5-0.1,0.7H334.2z M335.9,49.6c-0.9,0-1.4,0.6-1.6,1.4h3
		C337.3,50.2,336.7,49.6,335.9,49.6z"/>
</g>
<g class="st3">
	<path class="st4" d="M234.7,106.5v-6.3c-0.4,0.2-0.8,0.4-1.2,0.5v-1.3c0.5-0.3,1.1-0.6,1.7-0.9h1v8H234.7z"/>
	<path class="st4" d="M240.9,106.5v-2h-3.5v-1.4c1-1.3,2.4-3.2,3.4-4.7h1.5v4.8h1.2v1.2h-1.2v2H240.9z M240.9,103.2v-2.8
		c-0.6,0.9-1.5,2.2-1.9,2.8H240.9z"/>
	<path class="st4" d="M244.4,106.5v-1.6h1.6v1.6H244.4z"/>
	<path class="st4" d="M251.8,99.2c-1.4,0.6-2.5,1.4-2.9,2.7c0.4-0.4,0.9-0.6,1.5-0.6c1.4,0,2.4,1.1,2.4,2.5c0,1.5-1.1,2.7-2.7,2.7
		c-1.9,0-3-1.5-3-3.2c0-2.6,1.9-4.5,4.1-5.4L251.8,99.2z M250.1,105.4c0.8,0,1.3-0.6,1.3-1.4c0-0.8-0.5-1.4-1.3-1.4
		c-0.6,0-1.2,0.3-1.5,0.8C248.6,104.4,249,105.4,250.1,105.4z"/>
	<path class="st4" d="M258.6,101.1c0.5-0.7,1.2-1,1.9-1c0.7,0,1.3,0.3,1.7,0.8c0.5,0.6,0.6,1.4,0.6,2.3v3.2h-1.5v-3.1
		c0-0.5,0-1.1-0.2-1.5c-0.2-0.3-0.5-0.5-0.9-0.5c-0.6,0-1.2,0.4-1.5,0.9v4.1h-1.5v-9h1.5V101.1z"/>
	<path class="st4" d="M265.9,101.2c0.4-0.6,0.9-1,1.5-1c0.3,0,0.5,0,0.7,0.1l-0.3,1.4c-0.2-0.1-0.4-0.1-0.6-0.1
		c-0.5,0-1,0.3-1.3,0.8v4.2h-1.5v-6.2h1.3L265.9,101.2z"/>
</g>
<g class="st3">
	<path class="st4" d="M272.1,101.8c-0.3-0.3-0.8-0.5-1.2-0.5c-0.4,0-0.7,0.2-0.7,0.6c0,0.4,0.5,0.6,1.1,0.9c0.8,0.3,1.8,0.7,1.8,1.9
		c0,1.4-1.1,2-2.3,2c-0.9,0-1.7-0.4-2.3-1l0.9-0.8c0.4,0.4,0.9,0.7,1.4,0.7c0.4,0,0.9-0.2,0.9-0.7c0-0.4-0.6-0.7-1.2-0.9
		c-0.7-0.3-1.7-0.7-1.7-1.8c0-1.3,1-1.9,2.1-1.9c0.8,0,1.5,0.3,2,0.8L272.1,101.8z"/>
</g>
<g class="st3">
	<path class="st4" d="M275.1,107.2l-1.2-0.5l3.5-9.4l1.2,0.5L275.1,107.2z"/>
</g>
<g class="st3">
	<path class="st4" d="M280.1,103.7c0.1,0.9,0.7,1.7,1.7,1.7c0.8,0,1.3-0.3,1.7-1l1,0.7c-0.7,1-1.5,1.5-2.8,1.5
		c-1.9,0-3.1-1.4-3.1-3.2c0-1.9,1.4-3.3,3.1-3.3c1.7,0,2.9,1.2,2.9,2.9c0,0.2,0,0.5-0.1,0.7H280.1z M281.7,101.3
		c-0.9,0-1.4,0.6-1.6,1.4h3C283.1,101.9,282.5,101.3,281.7,101.3z"/>
	<path class="st4" d="M293.9,106.5v-3.1c0-0.5,0-1.1-0.2-1.5c-0.2-0.3-0.5-0.5-0.9-0.5c-0.5,0-1,0.3-1.4,0.8c0,0.3,0.1,0.6,0.1,1
		v3.2h-1.5v-3.1c0-0.5,0-1.1-0.2-1.5c-0.2-0.3-0.5-0.4-0.9-0.4c-0.5,0-1,0.4-1.4,0.8v4.2H286v-6.2h1.3l0.1,0.8c0.5-0.6,1.2-1,1.8-1
		c0.7,0,1.3,0.3,1.7,0.8c0,0.1,0.1,0.1,0.1,0.2c0.6-0.8,1.4-1.1,2.1-1.1c0.7,0,1.3,0.3,1.7,0.8c0.5,0.6,0.6,1.4,0.6,2.3v3.2H293.9z"
		/>
	<path class="st4" d="M298.4,100.3l0.1,0.8c0.4-0.7,1.2-0.9,1.9-0.9c1.7,0,3,1.4,3,3.2c0,1.7-1.2,3.2-3,3.2c-0.6,0-1.4-0.2-1.9-0.8
		v3.6h-1.5v-9.2H298.4z M298.5,104.6c0.4,0.5,1,0.8,1.6,0.8c1.2,0,1.8-1,1.8-2c0-1-0.7-1.9-1.8-1.9c-0.6,0-1.3,0.3-1.6,1V104.6z"/>
	<path class="st4" d="M306.2,106.5h-1.5v-9h1.5V106.5z"/>
	<path class="st4" d="M313.9,103.4c0,1.8-1.4,3.2-3.2,3.2c-1.8,0-3.2-1.4-3.2-3.2c0-1.8,1.4-3.2,3.2-3.2
		C312.6,100.1,313.9,101.6,313.9,103.4z M310.7,101.4c-1,0-1.7,0.9-1.7,2c0,1.1,0.7,2,1.7,2c1,0,1.7-0.9,1.7-2
		C312.4,102.3,311.7,101.4,310.7,101.4z"/>
	<path class="st4" d="M316,100.3l1.4,4.1h0l1.4-4.1h1.6l-3.5,9l-1.3-0.5l1-2.6l-2.2-5.9H316z"/>
	<path class="st4" d="M322.4,103.7c0.1,0.9,0.7,1.7,1.7,1.7c0.8,0,1.3-0.3,1.7-1l1,0.7c-0.7,1-1.5,1.5-2.8,1.5
		c-1.9,0-3.1-1.4-3.1-3.2c0-1.9,1.4-3.3,3.1-3.3c1.7,0,2.9,1.2,2.9,2.9c0,0.2,0,0.5-0.1,0.7H322.4z M324.1,101.3
		c-0.9,0-1.4,0.6-1.6,1.4h3C325.4,101.9,324.8,101.3,324.1,101.3z"/>
	<path class="st4" d="M329.3,103.7c0.1,0.9,0.7,1.7,1.7,1.7c0.8,0,1.3-0.3,1.7-1l1,0.7c-0.7,1-1.5,1.5-2.8,1.5
		c-1.9,0-3.1-1.4-3.1-3.2c0-1.9,1.4-3.3,3.1-3.3c1.7,0,2.9,1.2,2.9,2.9c0,0.2,0,0.5-0.1,0.7H329.3z M331,101.3
		c-0.9,0-1.4,0.6-1.6,1.4h3C332.3,101.9,331.7,101.3,331,101.3z"/>
</g>
<g class="st3">
	<path class="st4" d="M430,54c1.4-0.6,2.5-1.4,2.9-2.7c-0.4,0.4-0.9,0.6-1.5,0.6c-1.4,0-2.4-1.1-2.4-2.5c0-1.5,1.1-2.7,2.7-2.7
		c1.9,0,3,1.5,3,3.2c0,2.6-1.9,4.5-4.1,5.4L430,54z M431.7,47.9c-0.8,0-1.3,0.6-1.3,1.4c0,0.8,0.5,1.4,1.3,1.4
		c0.6,0,1.2-0.3,1.5-0.8C433.1,48.8,432.8,47.9,431.7,47.9z"/>
	<path class="st4" d="M435.7,54.7v-1.6h1.6v1.6H435.7z"/>
	<path class="st4" d="M443.4,47.7c-1,2.1-2.4,5.3-3.3,7.3l-1.3-0.6c1.1-2.5,2.4-5,3-6.4h-3.6v-1.3h5.3V47.7z"/>
	<path class="st4" d="M449,49.4c0.5-0.7,1.2-1,1.9-1c0.7,0,1.3,0.3,1.7,0.8c0.5,0.6,0.6,1.4,0.6,2.3v3.2h-1.5v-3.1
		c0-0.5,0-1.1-0.2-1.5c-0.2-0.3-0.5-0.5-0.9-0.5c-0.6,0-1.2,0.4-1.5,0.9v4.1h-1.5v-9h1.5V49.4z"/>
	<path class="st4" d="M456.3,49.4c0.4-0.6,0.9-1,1.5-1c0.3,0,0.5,0,0.7,0.1l-0.3,1.4c-0.2-0.1-0.4-0.1-0.6-0.1c-0.5,0-1,0.3-1.3,0.8
		v4.2h-1.5v-6.2h1.3L456.3,49.4z"/>
</g>
<g class="st3">
	<path class="st4" d="M462.5,50.1c-0.3-0.3-0.8-0.5-1.2-0.5c-0.4,0-0.7,0.2-0.7,0.6c0,0.4,0.5,0.6,1.1,0.9c0.8,0.3,1.8,0.7,1.8,1.9
		c0,1.4-1.1,2-2.3,2c-0.9,0-1.7-0.4-2.3-1l0.9-0.8c0.4,0.4,0.9,0.7,1.4,0.7c0.4,0,0.9-0.2,0.9-0.7c0-0.4-0.6-0.7-1.2-0.9
		c-0.7-0.3-1.7-0.7-1.7-1.8c0-1.3,1-1.9,2.1-1.9c0.8,0,1.5,0.3,2,0.8L462.5,50.1z"/>
</g>
<g class="st3">
	<path class="st4" d="M465.5,55.4l-1.2-0.5l3.5-9.4l1.2,0.5L465.5,55.4z"/>
</g>
<g class="st3">
	<path class="st4" d="M470.5,52c0.1,0.9,0.7,1.7,1.7,1.7c0.8,0,1.3-0.3,1.7-1l1,0.7c-0.7,1-1.5,1.5-2.8,1.5c-1.9,0-3.1-1.4-3.1-3.2
		c0-1.9,1.4-3.3,3.1-3.3c1.7,0,2.9,1.2,2.9,2.9c0,0.2,0,0.5-0.1,0.7H470.5z M472.1,49.6c-0.9,0-1.4,0.6-1.6,1.4h3
		C473.5,50.2,472.9,49.6,472.1,49.6z"/>
	<path class="st4" d="M484.3,54.7v-3.1c0-0.5,0-1.1-0.2-1.5c-0.2-0.3-0.5-0.5-0.9-0.5c-0.5,0-1,0.3-1.4,0.8c0,0.3,0.1,0.6,0.1,1v3.2
		h-1.5v-3.1c0-0.5,0-1.1-0.2-1.5c-0.2-0.3-0.5-0.4-0.9-0.4c-0.5,0-1,0.4-1.4,0.8v4.2h-1.5v-6.2h1.3l0.1,0.8c0.5-0.6,1.2-1,1.8-1
		c0.7,0,1.3,0.3,1.7,0.8c0,0.1,0.1,0.1,0.1,0.2c0.6-0.8,1.4-1.1,2.1-1.1c0.7,0,1.3,0.3,1.7,0.8c0.5,0.6,0.6,1.4,0.6,2.3v3.2H484.3z"
		/>
	<path class="st4" d="M488.8,48.6l0.1,0.8c0.4-0.7,1.2-0.9,1.9-0.9c1.7,0,3,1.4,3,3.2c0,1.7-1.2,3.2-3,3.2c-0.6,0-1.4-0.2-1.9-0.8
		v3.6h-1.5v-9.2H488.8z M488.9,52.8c0.4,0.5,1,0.8,1.6,0.8c1.2,0,1.8-1,1.8-2c0-1-0.7-1.9-1.8-1.9c-0.6,0-1.3,0.3-1.6,1V52.8z"/>
	<path class="st4" d="M496.6,54.7h-1.5v-9h1.5V54.7z"/>
	<path class="st4" d="M504.3,51.6c0,1.8-1.4,3.2-3.2,3.2c-1.8,0-3.2-1.4-3.2-3.2c0-1.8,1.4-3.2,3.2-3.2
		C503,48.4,504.3,49.8,504.3,51.6z M501.1,49.7c-1,0-1.7,0.9-1.7,2c0,1.1,0.7,2,1.7,2c1,0,1.7-0.9,1.7-2
		C502.8,50.6,502.1,49.7,501.1,49.7z"/>
	<path class="st4" d="M506.4,48.6l1.4,4.1h0l1.4-4.1h1.6l-3.5,9l-1.3-0.5l1-2.6l-2.2-5.9H506.4z"/>
	<path class="st4" d="M512.8,52c0.1,0.9,0.7,1.7,1.7,1.7c0.8,0,1.3-0.3,1.7-1l1,0.7c-0.7,1-1.5,1.5-2.8,1.5c-1.9,0-3.1-1.4-3.1-3.2
		c0-1.9,1.4-3.3,3.1-3.3c1.7,0,2.9,1.2,2.9,2.9c0,0.2,0,0.5-0.1,0.7H512.8z M514.4,49.6c-0.9,0-1.4,0.6-1.6,1.4h3
		C515.8,50.2,515.2,49.6,514.4,49.6z"/>
	<path class="st4" d="M519.7,52c0.1,0.9,0.7,1.7,1.7,1.7c0.8,0,1.3-0.3,1.7-1l1,0.7c-0.7,1-1.5,1.5-2.8,1.5c-1.9,0-3.1-1.4-3.1-3.2
		c0-1.9,1.4-3.3,3.1-3.3c1.7,0,2.9,1.2,2.9,2.9c0,0.2,0,0.5-0.1,0.7H519.7z M521.4,49.6c-0.9,0-1.4,0.6-1.6,1.4h3
		C522.7,50.2,522.1,49.6,521.4,49.6z"/>
</g>
<g class="st3">
	<path class="st4" d="M434.7,106.5v-6.3c-0.4,0.2-0.8,0.4-1.2,0.5v-1.3c0.5-0.3,1.1-0.6,1.7-0.9h1v8H434.7z"/>
	<path class="st4" d="M439,106.5v-6.3c-0.4,0.2-0.8,0.4-1.2,0.5v-1.3c0.5-0.3,1.1-0.6,1.7-0.9h1v8H439z"/>
	<path class="st4" d="M442.1,106.5v-1.6h1.6v1.6H442.1z"/>
	<path class="st4" d="M449.8,99.5c-1,2.1-2.4,5.3-3.3,7.3l-1.3-0.6c1.1-2.5,2.4-5,3-6.4h-3.6v-1.3h5.3V99.5z"/>
	<path class="st4" d="M455.4,101.1c0.5-0.7,1.2-1,1.9-1c0.7,0,1.3,0.3,1.7,0.8c0.5,0.6,0.6,1.4,0.6,2.3v3.2h-1.5v-3.1
		c0-0.5,0-1.1-0.2-1.5c-0.2-0.3-0.5-0.5-0.9-0.5c-0.6,0-1.2,0.4-1.5,0.9v4.1h-1.5v-9h1.5V101.1z"/>
	<path class="st4" d="M462.7,101.2c0.4-0.6,0.9-1,1.5-1c0.3,0,0.5,0,0.7,0.1l-0.3,1.4c-0.2-0.1-0.4-0.1-0.6-0.1
		c-0.5,0-1,0.3-1.3,0.8v4.2h-1.5v-6.2h1.3L462.7,101.2z"/>
</g>
<g class="st3">
	<path class="st4" d="M468.9,101.8c-0.3-0.3-0.8-0.5-1.2-0.5c-0.4,0-0.7,0.2-0.7,0.6c0,0.4,0.5,0.6,1.1,0.9c0.8,0.3,1.8,0.7,1.8,1.9
		c0,1.4-1.1,2-2.3,2c-0.9,0-1.7-0.4-2.3-1l0.9-0.8c0.4,0.4,0.9,0.7,1.4,0.7c0.4,0,0.9-0.2,0.9-0.7c0-0.4-0.6-0.7-1.2-0.9
		c-0.7-0.3-1.7-0.7-1.7-1.8c0-1.3,1-1.9,2.1-1.9c0.8,0,1.5,0.3,2,0.8L468.9,101.8z"/>
</g>
<g class="st3">
	<path class="st4" d="M471.9,107.2l-1.2-0.5l3.5-9.4l1.2,0.5L471.9,107.2z"/>
</g>
<g class="st3">
	<path class="st4" d="M476.9,103.7c0.1,0.9,0.7,1.7,1.7,1.7c0.8,0,1.3-0.3,1.7-1l1,0.7c-0.7,1-1.5,1.5-2.8,1.5
		c-1.9,0-3.1-1.4-3.1-3.2c0-1.9,1.4-3.3,3.1-3.3c1.7,0,2.9,1.2,2.9,2.9c0,0.2,0,0.5-0.1,0.7H476.9z M478.5,101.3
		c-0.9,0-1.4,0.6-1.6,1.4h3C479.9,101.9,479.3,101.3,478.5,101.3z"/>
	<path class="st4" d="M490.7,106.5v-3.1c0-0.5,0-1.1-0.2-1.5c-0.2-0.3-0.5-0.5-0.9-0.5c-0.5,0-1,0.3-1.4,0.8c0,0.3,0.1,0.6,0.1,1
		v3.2h-1.5v-3.1c0-0.5,0-1.1-0.2-1.5c-0.2-0.3-0.5-0.4-0.9-0.4c-0.5,0-1,0.4-1.4,0.8v4.2h-1.5v-6.2h1.3l0.1,0.8c0.5-0.6,1.2-1,1.8-1
		c0.7,0,1.3,0.3,1.7,0.8c0,0.1,0.1,0.1,0.1,0.2c0.6-0.8,1.4-1.1,2.1-1.1c0.7,0,1.3,0.3,1.7,0.8c0.5,0.6,0.6,1.4,0.6,2.3v3.2H490.7z"
		/>
	<path class="st4" d="M495.2,100.3l0.1,0.8c0.4-0.7,1.2-0.9,1.9-0.9c1.7,0,3,1.4,3,3.2c0,1.7-1.2,3.2-3,3.2c-0.6,0-1.4-0.2-1.9-0.8
		v3.6h-1.5v-9.2H495.2z M495.3,104.6c0.4,0.5,1,0.8,1.6,0.8c1.2,0,1.8-1,1.8-2c0-1-0.7-1.9-1.8-1.9c-0.6,0-1.3,0.3-1.6,1V104.6z"/>
	<path class="st4" d="M503,106.5h-1.5v-9h1.5V106.5z"/>
	<path class="st4" d="M510.7,103.4c0,1.8-1.4,3.2-3.2,3.2s-3.2-1.4-3.2-3.2c0-1.8,1.4-3.2,3.2-3.2S510.7,101.6,510.7,103.4z
		 M507.5,101.4c-1,0-1.7,0.9-1.7,2c0,1.1,0.7,2,1.7,2s1.7-0.9,1.7-2C509.2,102.3,508.5,101.4,507.5,101.4z"/>
	<path class="st4" d="M512.8,100.3l1.4,4.1h0l1.4-4.1h1.6l-3.5,9l-1.3-0.5l1-2.6l-2.2-5.9H512.8z"/>
	<path class="st4" d="M519.2,103.7c0.1,0.9,0.7,1.7,1.7,1.7c0.8,0,1.3-0.3,1.7-1l1,0.7c-0.7,1-1.5,1.5-2.8,1.5
		c-1.9,0-3.1-1.4-3.1-3.2c0-1.9,1.4-3.3,3.1-3.3c1.7,0,2.9,1.2,2.9,2.9c0,0.2,0,0.5-0.1,0.7H519.2z M520.9,101.3
		c-0.9,0-1.4,0.6-1.6,1.4h3C522.2,101.9,521.6,101.3,520.9,101.3z"/>
	<path class="st4" d="M526.1,103.7c0.1,0.9,0.7,1.7,1.7,1.7c0.8,0,1.3-0.3,1.7-1l1,0.7c-0.7,1-1.5,1.5-2.8,1.5
		c-1.9,0-3.1-1.4-3.1-3.2c0-1.9,1.4-3.3,3.1-3.3c1.7,0,2.9,1.2,2.9,2.9c0,0.2,0,0.5-0.1,0.7H526.1z M527.8,101.3
		c-0.9,0-1.4,0.6-1.6,1.4h3C529.1,101.9,528.5,101.3,527.8,101.3z"/>
</g>
<g class="st3">
	<path class="st1" d="M251.8,69.7v2.6h-1.1V66h3.4v1h-2.3v1.8h2.3v1H251.8z"/>
	<path class="st1" d="M255.8,70.2c0.1,0.7,0.5,1.3,1.3,1.3c0.6,0,1-0.2,1.3-0.7l0.7,0.5c-0.5,0.8-1.1,1.1-2.1,1.1
		c-1.4,0-2.3-1-2.3-2.4c0-1.4,1-2.5,2.3-2.5c1.3,0,2.2,0.9,2.2,2.2c0,0.2,0,0.4,0,0.5H255.8z M257.1,68.4c-0.7,0-1.1,0.5-1.2,1h2.2
		C258.1,68.8,257.7,68.4,257.1,68.4z"/>
	<path class="st1" d="M266.2,72.3v-2.3c0-0.4,0-0.8-0.2-1.1c-0.1-0.2-0.4-0.4-0.7-0.4c-0.4,0-0.8,0.2-1.1,0.6c0,0.2,0,0.5,0,0.7v2.4
		h-1.1v-2.3c0-0.4,0-0.8-0.2-1.1c-0.1-0.2-0.4-0.3-0.6-0.3c-0.4,0-0.8,0.3-1,0.6v3.2h-1.1v-4.6h1l0,0.6c0.4-0.5,0.9-0.7,1.4-0.7
		c0.5,0,1,0.2,1.3,0.6c0,0.1,0.1,0.1,0.1,0.2c0.4-0.6,1-0.8,1.6-0.8c0.5,0,1,0.2,1.2,0.6c0.4,0.5,0.4,1.1,0.4,1.8v2.4H266.2z"/>
	<path class="st1" d="M271.4,72.3l-0.1-0.4c-0.3,0.4-0.8,0.5-1.3,0.5c-0.9,0-1.7-0.5-1.7-1.5c0-1.2,1.1-1.5,2-1.5
		c0.2,0,0.5,0,0.9,0.1v-0.1c0-0.6-0.3-1-1-1c-0.5,0-1,0.2-1.4,0.4l-0.3-0.8c0.5-0.3,1.3-0.5,1.9-0.5c1.3,0,1.9,0.7,1.9,1.9v2.8
		H271.4z M271.3,70.2c-0.3-0.1-0.5-0.1-0.7-0.1c-0.5,0-1.1,0.2-1.1,0.8c0,0.5,0.4,0.7,0.8,0.7c0.4,0,0.7-0.2,1.1-0.5V70.2z"/>
	<path class="st1" d="M274.8,72.3h-1.1v-6.8h1.1V72.3z"/>
	<path class="st1" d="M276.9,70.2c0.1,0.7,0.5,1.3,1.3,1.3c0.6,0,1-0.2,1.3-0.7l0.7,0.5c-0.5,0.8-1.1,1.1-2.1,1.1
		c-1.4,0-2.3-1-2.3-2.4c0-1.4,1-2.5,2.3-2.5c1.3,0,2.2,0.9,2.2,2.2c0,0.2,0,0.4,0,0.5H276.9z M278.1,68.4c-0.7,0-1.1,0.5-1.2,1h2.2
		C279.1,68.8,278.7,68.4,278.1,68.4z"/>
	<path class="st1" d="M284.3,70.2c0.1,0.7,0.5,1.3,1.3,1.3c0.6,0,1-0.2,1.3-0.7l0.7,0.5c-0.5,0.8-1.1,1.1-2.1,1.1
		c-1.4,0-2.3-1-2.3-2.4c0-1.4,1-2.5,2.3-2.5c1.3,0,2.2,0.9,2.2,2.2c0,0.2,0,0.4,0,0.5H284.3z M285.6,68.4c-0.7,0-1.1,0.5-1.2,1h2.2
		C286.6,68.8,286.1,68.4,285.6,68.4z"/>
	<path class="st1" d="M294.6,72.3v-2.3c0-0.4,0-0.8-0.2-1.1c-0.1-0.2-0.4-0.4-0.7-0.4c-0.4,0-0.8,0.2-1.1,0.6c0,0.2,0,0.5,0,0.7v2.4
		h-1.1v-2.3c0-0.4,0-0.8-0.2-1.1c-0.1-0.2-0.4-0.3-0.6-0.3c-0.4,0-0.8,0.3-1,0.6v3.2h-1.1v-4.6h1l0,0.6c0.4-0.5,0.9-0.7,1.4-0.7
		c0.5,0,1,0.2,1.3,0.6c0,0.1,0.1,0.1,0.1,0.2c0.4-0.6,1-0.8,1.6-0.8c0.5,0,1,0.2,1.2,0.6c0.4,0.5,0.4,1.1,0.4,1.8v2.4H294.6z"/>
	<path class="st1" d="M298,67.6l0.1,0.6c0.3-0.5,0.9-0.7,1.4-0.7c1.3,0,2.2,1.1,2.2,2.4c0,1.3-0.9,2.4-2.2,2.4c-0.5,0-1-0.2-1.4-0.6
		v2.7H297v-6.9H298z M298.1,70.8c0.3,0.4,0.8,0.6,1.2,0.6c0.9,0,1.3-0.8,1.3-1.5c0-0.8-0.5-1.5-1.3-1.5c-0.4,0-0.9,0.2-1.2,0.7V70.8
		z"/>
	<path class="st1" d="M303.9,72.3h-1.1v-6.8h1.1V72.3z"/>
	<path class="st1" d="M309.7,69.9c0,1.4-1,2.4-2.4,2.4c-1.4,0-2.4-1.1-2.4-2.4c0-1.4,1-2.4,2.4-2.4
		C308.7,67.5,309.7,68.6,309.7,69.9z M307.3,68.5c-0.8,0-1.3,0.7-1.3,1.5c0,0.8,0.5,1.5,1.3,1.5c0.8,0,1.3-0.7,1.3-1.5
		C308.6,69.1,308,68.5,307.3,68.5z"/>
	<path class="st1" d="M311.2,67.6l1,3.1h0l1.1-3.1h1.2l-2.6,6.7l-1-0.4l0.7-2l-1.7-4.4H311.2z"/>
	<path class="st1" d="M316,70.2c0.1,0.7,0.5,1.3,1.3,1.3c0.6,0,1-0.2,1.3-0.7l0.7,0.5c-0.5,0.8-1.1,1.1-2.1,1.1
		c-1.4,0-2.3-1-2.3-2.4c0-1.4,1-2.5,2.3-2.5c1.3,0,2.2,0.9,2.2,2.2c0,0.2,0,0.4,0,0.5H316z M317.3,68.4c-0.7,0-1.1,0.5-1.2,1h2.2
		C318.3,68.8,317.9,68.4,317.3,68.4z"/>
	<path class="st1" d="M321.2,70.2c0.1,0.7,0.5,1.3,1.3,1.3c0.6,0,1-0.2,1.3-0.7l0.7,0.5c-0.5,0.8-1.1,1.1-2.1,1.1
		c-1.4,0-2.3-1-2.3-2.4c0-1.4,1-2.5,2.3-2.5c1.3,0,2.2,0.9,2.2,2.2c0,0.2,0,0.4,0,0.5H321.2z M322.5,68.4c-0.7,0-1.1,0.5-1.2,1h2.2
		C323.5,68.8,323,68.4,322.5,68.4z"/>
	<path class="st1" d="M328.1,68.8c-0.2-0.2-0.6-0.4-0.9-0.4c-0.3,0-0.5,0.2-0.5,0.5c0,0.3,0.4,0.5,0.8,0.6c0.6,0.2,1.4,0.5,1.4,1.4
		c0,1-0.8,1.5-1.7,1.5c-0.7,0-1.3-0.3-1.8-0.8l0.7-0.6c0.3,0.3,0.6,0.5,1.1,0.5c0.3,0,0.7-0.2,0.7-0.5c0-0.3-0.5-0.5-0.9-0.7
		c-0.5-0.2-1.3-0.5-1.3-1.4c0-0.9,0.8-1.4,1.6-1.4c0.6,0,1.1,0.2,1.5,0.6L328.1,68.8z"/>
</g>
<g class="st3">
	<path class="st1" d="M245.9,122.4v2.6h-1.1v-6.3h3.4v1h-2.3v1.8h2.3v1H245.9z"/>
	<path class="st1" d="M249.9,122.9c0.1,0.7,0.5,1.3,1.3,1.3c0.6,0,1-0.2,1.3-0.7l0.7,0.5c-0.5,0.8-1.1,1.1-2.1,1.1
		c-1.4,0-2.3-1-2.3-2.4c0-1.4,1-2.5,2.3-2.5c1.3,0,2.2,0.9,2.2,2.2c0,0.2,0,0.4,0,0.5H249.9z M251.2,121.1c-0.7,0-1.1,0.5-1.2,1h2.2
		C252.2,121.6,251.7,121.1,251.2,121.1z"/>
	<path class="st1" d="M260.3,125v-2.3c0-0.4,0-0.8-0.2-1.1c-0.1-0.2-0.4-0.4-0.7-0.4c-0.4,0-0.8,0.2-1.1,0.6c0,0.2,0,0.5,0,0.7v2.4
		h-1.1v-2.3c0-0.4,0-0.8-0.2-1.1c-0.1-0.2-0.4-0.3-0.6-0.3c-0.4,0-0.8,0.3-1,0.6v3.2h-1.1v-4.6h1l0,0.6c0.4-0.5,0.9-0.7,1.4-0.7
		c0.5,0,1,0.2,1.3,0.6c0,0.1,0.1,0.1,0.1,0.2c0.4-0.6,1-0.8,1.6-0.8c0.5,0,1,0.2,1.2,0.6c0.4,0.5,0.4,1.1,0.4,1.8v2.4H260.3z"/>
	<path class="st1" d="M265.4,125l-0.1-0.4c-0.3,0.4-0.8,0.5-1.3,0.5c-0.9,0-1.7-0.5-1.7-1.5c0-1.2,1.1-1.5,2-1.5
		c0.2,0,0.5,0,0.9,0.1v-0.1c0-0.6-0.3-1-1-1c-0.5,0-1,0.2-1.4,0.4l-0.3-0.8c0.5-0.3,1.3-0.5,1.9-0.5c1.3,0,1.9,0.7,1.9,1.9v2.8
		H265.4z M265.3,122.9c-0.3-0.1-0.5-0.1-0.7-0.1c-0.5,0-1.1,0.2-1.1,0.8c0,0.5,0.4,0.7,0.8,0.7c0.4,0,0.7-0.2,1.1-0.5V122.9z"/>
	<path class="st1" d="M268.8,125h-1.1v-6.8h1.1V125z"/>
	<path class="st1" d="M270.9,122.9c0.1,0.7,0.5,1.3,1.3,1.3c0.6,0,1-0.2,1.3-0.7l0.7,0.5c-0.5,0.8-1.1,1.1-2.1,1.1
		c-1.4,0-2.3-1-2.3-2.4c0-1.4,1-2.5,2.3-2.5c1.3,0,2.2,0.9,2.2,2.2c0,0.2,0,0.4,0,0.5H270.9z M272.2,121.1c-0.7,0-1.1,0.5-1.2,1h2.2
		C273.2,121.6,272.8,121.1,272.2,121.1z"/>
	<path class="st1" d="M278.4,122.9c0.1,0.7,0.5,1.3,1.3,1.3c0.6,0,1-0.2,1.3-0.7l0.7,0.5c-0.5,0.8-1.1,1.1-2.1,1.1
		c-1.4,0-2.3-1-2.3-2.4c0-1.4,1-2.5,2.3-2.5c1.3,0,2.2,0.9,2.2,2.2c0,0.2,0,0.4,0,0.5H278.4z M279.6,121.1c-0.7,0-1.1,0.5-1.2,1h2.2
		C280.6,121.6,280.2,121.1,279.6,121.1z"/>
	<path class="st1" d="M288.7,125v-2.3c0-0.4,0-0.8-0.2-1.1c-0.1-0.2-0.4-0.4-0.7-0.4c-0.4,0-0.8,0.2-1.1,0.6c0,0.2,0,0.5,0,0.7v2.4
		h-1.1v-2.3c0-0.4,0-0.8-0.2-1.1c-0.1-0.2-0.4-0.3-0.6-0.3c-0.4,0-0.8,0.3-1,0.6v3.2h-1.1v-4.6h1l0,0.6c0.4-0.5,0.9-0.7,1.4-0.7
		c0.5,0,1,0.2,1.3,0.6c0,0.1,0.1,0.1,0.1,0.2c0.4-0.6,1-0.8,1.6-0.8c0.5,0,1,0.2,1.2,0.6c0.4,0.5,0.4,1.1,0.4,1.8v2.4H288.7z"/>
	<path class="st1" d="M292.1,120.4l0.1,0.6c0.3-0.5,0.9-0.7,1.4-0.7c1.3,0,2.2,1.1,2.2,2.4c0,1.3-0.9,2.4-2.2,2.4
		c-0.5,0-1-0.2-1.4-0.6v2.7h-1.1v-6.9H292.1z M292.2,123.6c0.3,0.4,0.8,0.6,1.2,0.6c0.9,0,1.3-0.8,1.3-1.5c0-0.8-0.5-1.5-1.3-1.5
		c-0.4,0-0.9,0.2-1.2,0.7V123.6z"/>
	<path class="st1" d="M297.9,125h-1.1v-6.8h1.1V125z"/>
	<path class="st1" d="M303.7,122.7c0,1.4-1,2.4-2.4,2.4c-1.4,0-2.4-1.1-2.4-2.4c0-1.4,1-2.4,2.4-2.4
		C302.7,120.2,303.7,121.3,303.7,122.7z M301.3,121.2c-0.8,0-1.3,0.7-1.3,1.5c0,0.8,0.5,1.5,1.3,1.5c0.8,0,1.3-0.7,1.3-1.5
		C302.6,121.9,302.1,121.2,301.3,121.2z"/>
	<path class="st1" d="M305.3,120.4l1,3.1h0l1.1-3.1h1.2l-2.6,6.7l-1-0.4l0.7-2l-1.7-4.4H305.3z"/>
	<path class="st1" d="M310.1,122.9c0.1,0.7,0.5,1.3,1.3,1.3c0.6,0,1-0.2,1.3-0.7l0.7,0.5c-0.5,0.8-1.1,1.1-2.1,1.1
		c-1.4,0-2.3-1-2.3-2.4c0-1.4,1-2.5,2.3-2.5c1.3,0,2.2,0.9,2.2,2.2c0,0.2,0,0.4,0,0.5H310.1z M311.3,121.1c-0.7,0-1.1,0.5-1.2,1h2.2
		C312.4,121.6,311.9,121.1,311.3,121.1z"/>
	<path class="st1" d="M315.3,122.9c0.1,0.7,0.5,1.3,1.3,1.3c0.6,0,1-0.2,1.3-0.7l0.7,0.5c-0.5,0.8-1.1,1.1-2.1,1.1
		c-1.4,0-2.3-1-2.3-2.4c0-1.4,1-2.5,2.3-2.5c1.3,0,2.2,0.9,2.2,2.2c0,0.2,0,0.4,0,0.5H315.3z M316.5,121.1c-0.7,0-1.1,0.5-1.2,1h2.2
		C317.5,121.6,317.1,121.1,316.5,121.1z"/>
	<path class="st1" d="M322.1,121.5c-0.2-0.2-0.6-0.4-0.9-0.4c-0.3,0-0.5,0.2-0.5,0.5c0,0.3,0.4,0.5,0.8,0.6c0.6,0.2,1.4,0.5,1.4,1.4
		c0,1-0.8,1.5-1.7,1.5c-0.7,0-1.3-0.3-1.8-0.8l0.7-0.6c0.3,0.3,0.6,0.5,1.1,0.5c0.3,0,0.7-0.2,0.7-0.5c0-0.3-0.5-0.5-0.9-0.7
		c-0.5-0.2-1.3-0.5-1.3-1.4c0-0.9,0.8-1.4,1.6-1.4c0.6,0,1.1,0.2,1.5,0.6L322.1,121.5z"/>
</g>
<g class="st3">
	<path class="st2" d="M446.3,72.3h-0.8l-1.9-4.9v4.9h-1.1V66h1.7l1.8,4.6l1.8-4.6h1.7v6.3h-1.1v-4.9L446.3,72.3z"/>
	<path class="st2" d="M453.7,72.3l-0.1-0.4c-0.3,0.4-0.8,0.5-1.3,0.5c-0.9,0-1.7-0.5-1.7-1.5c0-1.2,1.1-1.5,2-1.5
		c0.2,0,0.5,0,0.9,0.1v-0.1c0-0.6-0.3-1-1-1c-0.5,0-1,0.2-1.4,0.4l-0.3-0.8c0.5-0.3,1.3-0.5,1.9-0.5c1.3,0,1.9,0.7,1.9,1.9v2.8
		H453.7z M453.5,70.2c-0.3-0.1-0.5-0.1-0.7-0.1c-0.5,0-1.1,0.2-1.1,0.8c0,0.5,0.4,0.7,0.8,0.7c0.4,0,0.7-0.2,1.1-0.5V70.2z"/>
	<path class="st2" d="M457,72.3h-1.1v-6.8h1.1V72.3z"/>
	<path class="st2" d="M459.1,70.2c0.1,0.7,0.5,1.3,1.3,1.3c0.6,0,1-0.2,1.3-0.7l0.7,0.5c-0.5,0.8-1.1,1.1-2.1,1.1
		c-1.4,0-2.3-1-2.3-2.4c0-1.4,1-2.5,2.3-2.5c1.3,0,2.2,0.9,2.2,2.2c0,0.2,0,0.4,0,0.5H459.1z M460.4,68.4c-0.7,0-1.1,0.5-1.2,1h2.2
		C461.4,68.8,461,68.4,460.4,68.4z"/>
	<path class="st2" d="M466.6,70.2c0.1,0.7,0.5,1.3,1.3,1.3c0.6,0,1-0.2,1.3-0.7l0.7,0.5c-0.5,0.8-1.1,1.1-2.1,1.1
		c-1.4,0-2.3-1-2.3-2.4c0-1.4,1-2.5,2.3-2.5c1.3,0,2.2,0.9,2.2,2.2c0,0.2,0,0.4,0,0.5H466.6z M467.8,68.4c-0.7,0-1.1,0.5-1.2,1h2.2
		C468.8,68.8,468.4,68.4,467.8,68.4z"/>
	<path class="st2" d="M476.9,72.3v-2.3c0-0.4,0-0.8-0.2-1.1c-0.1-0.2-0.4-0.4-0.7-0.4c-0.4,0-0.8,0.2-1.1,0.6c0,0.2,0,0.5,0,0.7v2.4
		H474v-2.3c0-0.4,0-0.8-0.2-1.1c-0.1-0.2-0.4-0.3-0.6-0.3c-0.4,0-0.8,0.3-1,0.6v3.2H471v-4.6h1l0,0.6c0.4-0.5,0.9-0.7,1.4-0.7
		c0.5,0,1,0.2,1.3,0.6c0,0.1,0.1,0.1,0.1,0.2c0.4-0.6,1-0.8,1.6-0.8c0.5,0,1,0.2,1.2,0.6c0.4,0.5,0.4,1.1,0.4,1.8v2.4H476.9z"/>
	<path class="st2" d="M480.3,67.6l0.1,0.6c0.3-0.5,0.9-0.7,1.4-0.7c1.3,0,2.2,1.1,2.2,2.4c0,1.3-0.9,2.4-2.2,2.4
		c-0.5,0-1-0.2-1.4-0.6v2.7h-1.1v-6.9H480.3z M480.4,70.8c0.3,0.4,0.8,0.6,1.2,0.6c0.9,0,1.3-0.8,1.3-1.5c0-0.8-0.5-1.5-1.3-1.5
		c-0.4,0-0.9,0.2-1.2,0.7V70.8z"/>
	<path class="st2" d="M486.1,72.3h-1.1v-6.8h1.1V72.3z"/>
	<path class="st2" d="M492,69.9c0,1.4-1,2.4-2.4,2.4c-1.4,0-2.4-1.1-2.4-2.4c0-1.4,1-2.4,2.4-2.4C490.9,67.5,492,68.6,492,69.9z
		 M489.6,68.5c-0.8,0-1.3,0.7-1.3,1.5c0,0.8,0.5,1.5,1.3,1.5c0.8,0,1.3-0.7,1.3-1.5C490.9,69.1,490.3,68.5,489.6,68.5z"/>
	<path class="st2" d="M493.5,67.6l1,3.1h0l1.1-3.1h1.2l-2.6,6.7l-1-0.4l0.7-2l-1.7-4.4H493.5z"/>
	<path class="st2" d="M498.3,70.2c0.1,0.7,0.5,1.3,1.3,1.3c0.6,0,1-0.2,1.3-0.7l0.7,0.5c-0.5,0.8-1.1,1.1-2.1,1.1
		c-1.4,0-2.3-1-2.3-2.4c0-1.4,1-2.5,2.3-2.5c1.3,0,2.2,0.9,2.2,2.2c0,0.2,0,0.4,0,0.5H498.3z M499.6,68.4c-0.7,0-1.1,0.5-1.2,1h2.2
		C500.6,68.8,500.1,68.4,499.6,68.4z"/>
	<path class="st2" d="M503.5,70.2c0.1,0.7,0.5,1.3,1.3,1.3c0.6,0,1-0.2,1.3-0.7l0.7,0.5c-0.5,0.8-1.1,1.1-2.1,1.1
		c-1.4,0-2.3-1-2.3-2.4c0-1.4,1-2.5,2.3-2.5c1.3,0,2.2,0.9,2.2,2.2c0,0.2,0,0.4,0,0.5H503.5z M504.7,68.4c-0.7,0-1.1,0.5-1.2,1h2.2
		C505.8,68.8,505.3,68.4,504.7,68.4z"/>
	<path class="st2" d="M510.3,68.8c-0.2-0.2-0.6-0.4-0.9-0.4c-0.3,0-0.5,0.2-0.5,0.5c0,0.3,0.4,0.5,0.8,0.6c0.6,0.2,1.4,0.5,1.4,1.4
		c0,1-0.8,1.5-1.7,1.5c-0.7,0-1.3-0.3-1.8-0.8l0.7-0.6c0.3,0.3,0.6,0.5,1.1,0.5c0.3,0,0.7-0.2,0.7-0.5c0-0.3-0.5-0.5-0.9-0.7
		c-0.5-0.2-1.3-0.5-1.3-1.4c0-0.9,0.8-1.4,1.6-1.4c0.6,0,1.1,0.2,1.5,0.6L510.3,68.8z"/>
</g>
<g class="st3">
	<path class="st2" d="M452.1,125h-0.8l-1.9-4.9v4.9h-1.1v-6.3h1.7l1.8,4.6l1.8-4.6h1.7v6.3h-1.1v-4.9L452.1,125z"/>
	<path class="st2" d="M459.5,125l-0.1-0.4c-0.3,0.4-0.8,0.5-1.3,0.5c-0.9,0-1.7-0.5-1.7-1.5c0-1.2,1.1-1.5,2-1.5
		c0.2,0,0.5,0,0.9,0.1v-0.1c0-0.6-0.3-1-1-1c-0.5,0-1,0.2-1.4,0.4l-0.3-0.8c0.5-0.3,1.3-0.5,1.9-0.5c1.3,0,1.9,0.7,1.9,1.9v2.8
		H459.5z M459.4,122.9c-0.3-0.1-0.5-0.1-0.7-0.1c-0.5,0-1.1,0.2-1.1,0.8c0,0.5,0.4,0.7,0.8,0.7c0.4,0,0.7-0.2,1.1-0.5V122.9z"/>
	<path class="st2" d="M462.8,125h-1.1v-6.8h1.1V125z"/>
	<path class="st2" d="M465,122.9c0.1,0.7,0.5,1.3,1.3,1.3c0.6,0,1-0.2,1.3-0.7l0.7,0.5c-0.5,0.8-1.1,1.1-2.1,1.1
		c-1.4,0-2.3-1-2.3-2.4c0-1.4,1-2.5,2.3-2.5c1.3,0,2.2,0.9,2.2,2.2c0,0.2,0,0.4,0,0.5H465z M466.2,121.1c-0.7,0-1.1,0.5-1.2,1h2.2
		C467.2,121.6,466.8,121.1,466.2,121.1z"/>
	<path class="st2" d="M472.4,122.9c0.1,0.7,0.5,1.3,1.3,1.3c0.6,0,1-0.2,1.3-0.7l0.7,0.5c-0.5,0.8-1.1,1.1-2.1,1.1
		c-1.4,0-2.3-1-2.3-2.4c0-1.4,1-2.5,2.3-2.5c1.3,0,2.2,0.9,2.2,2.2c0,0.2,0,0.4,0,0.5H472.4z M473.6,121.1c-0.7,0-1.1,0.5-1.2,1h2.2
		C474.7,121.6,474.2,121.1,473.6,121.1z"/>
	<path class="st2" d="M482.7,125v-2.3c0-0.4,0-0.8-0.2-1.1c-0.1-0.2-0.4-0.4-0.7-0.4c-0.4,0-0.8,0.2-1.1,0.6c0,0.2,0,0.5,0,0.7v2.4
		h-1.1v-2.3c0-0.4,0-0.8-0.2-1.1c-0.1-0.2-0.4-0.3-0.6-0.3c-0.4,0-0.8,0.3-1,0.6v3.2h-1.1v-4.6h1l0,0.6c0.4-0.5,0.9-0.7,1.4-0.7
		c0.5,0,1,0.2,1.3,0.6c0,0.1,0.1,0.1,0.1,0.2c0.4-0.6,1-0.8,1.6-0.8c0.5,0,1,0.2,1.2,0.6c0.4,0.5,0.4,1.1,0.4,1.8v2.4H482.7z"/>
	<path class="st2" d="M486.1,120.4l0.1,0.6c0.3-0.5,0.9-0.7,1.4-0.7c1.3,0,2.2,1.1,2.2,2.4c0,1.3-0.9,2.4-2.2,2.4
		c-0.5,0-1-0.2-1.4-0.6v2.7h-1.1v-6.9H486.1z M486.2,123.6c0.3,0.4,0.8,0.6,1.2,0.6c0.9,0,1.3-0.8,1.3-1.5c0-0.8-0.5-1.5-1.3-1.5
		c-0.4,0-0.9,0.2-1.2,0.7V123.6z"/>
	<path class="st2" d="M492,125h-1.1v-6.8h1.1V125z"/>
	<path class="st2" d="M497.8,122.7c0,1.4-1,2.4-2.4,2.4c-1.4,0-2.4-1.1-2.4-2.4c0-1.4,1-2.4,2.4-2.4
		C496.8,120.2,497.8,121.3,497.8,122.7z M495.4,121.2c-0.8,0-1.3,0.7-1.3,1.5c0,0.8,0.5,1.5,1.3,1.5c0.8,0,1.3-0.7,1.3-1.5
		C496.7,121.9,496.1,121.2,495.4,121.2z"/>
	<path class="st2" d="M499.3,120.4l1,3.1h0l1.1-3.1h1.2l-2.6,6.7l-1-0.4l0.7-2l-1.7-4.4H499.3z"/>
	<path class="st2" d="M504.1,122.9c0.1,0.7,0.5,1.3,1.3,1.3c0.6,0,1-0.2,1.3-0.7l0.7,0.5c-0.5,0.8-1.1,1.1-2.1,1.1
		c-1.4,0-2.3-1-2.3-2.4c0-1.4,1-2.5,2.3-2.5c1.3,0,2.2,0.9,2.2,2.2c0,0.2,0,0.4,0,0.5H504.1z M505.4,121.1c-0.7,0-1.1,0.5-1.2,1h2.2
		C506.4,121.6,506,121.1,505.4,121.1z"/>
	<path class="st2" d="M509.3,122.9c0.1,0.7,0.5,1.3,1.3,1.3c0.6,0,1-0.2,1.3-0.7l0.7,0.5c-0.5,0.8-1.1,1.1-2.1,1.1
		c-1.4,0-2.3-1-2.3-2.4c0-1.4,1-2.5,2.3-2.5c1.3,0,2.2,0.9,2.2,2.2c0,0.2,0,0.4,0,0.5H509.3z M510.6,121.1c-0.7,0-1.1,0.5-1.2,1h2.2
		C511.6,121.6,511.1,121.1,510.6,121.1z"/>
	<path class="st2" d="M516.2,121.5c-0.2-0.2-0.6-0.4-0.9-0.4c-0.3,0-0.5,0.2-0.5,0.5c0,0.3,0.4,0.5,0.8,0.6c0.6,0.2,1.4,0.5,1.4,1.4
		c0,1-0.8,1.5-1.7,1.5c-0.7,0-1.3-0.3-1.8-0.8l0.7-0.6c0.3,0.3,0.6,0.5,1.1,0.5c0.3,0,0.7-0.2,0.7-0.5c0-0.3-0.5-0.5-0.9-0.7
		c-0.5-0.2-1.3-0.5-1.3-1.4c0-0.9,0.8-1.4,1.6-1.4c0.6,0,1.1,0.2,1.5,0.6L516.2,121.5z"/>
</g>
<g class="st3">
	<path class="st1" d="M96.9,57.6v-2c1.8-1.9,3.9-4.2,5.4-6.3c0.6-0.9,1.4-2.2,1.4-3.2c0-1.4-1.3-2.1-2.5-2.1c-1.3,0-2.4,1-2.4,2.4
		l-2.1-0.4c0.2-2.3,2.5-3.9,4.6-3.9c2.4,0,4.6,1.6,4.6,4c0,1.4-0.8,3-1.6,4.2c-1.3,1.9-2.9,3.7-4.5,5.4h6.8v1.9H96.9z"/>
</g>
<g class="st3">
	<path class="st1" d="M119.2,50c0,4.9-2,7.9-5.4,7.9s-5.4-3-5.4-7.9c0-4.9,2-7.9,5.4-7.9S119.2,45.1,119.2,50z M110.6,50
		c0,4,1.2,5.9,3.2,5.9s3.2-2,3.2-5.9c0-4-1.2-5.9-3.2-5.9S110.6,46,110.6,50z"/>
	<path class="st1" d="M123.7,57.6V45c-0.7,0.4-1.7,0.7-2.3,1v-2c0.9-0.5,2-1,3.1-1.6h1.4v15.3H123.7z"/>
	<path class="st1" d="M131,56.5c2.8-1.3,5.1-3,5.9-5.9c-0.9,0.9-2.1,1.4-3.4,1.4c-2.7,0-4.5-2.2-4.5-4.9c0-2.8,2-5,4.9-5
		c3.5,0,5.6,2.9,5.6,6.1c0,4.9-3.4,8.6-7.5,10.3L131,56.5z M137.2,48.1c0-2.1-0.9-4.1-3.2-4.1c-1.7,0-2.8,1.4-2.8,3.1
		c0,1.7,1,2.9,2.7,2.9C135.3,50.1,136.6,49.3,137.2,48.1z"/>
</g>
<g class="st3">
	<path class="st1" d="M106.9,109.3h-10v-2.2c1.8-1.8,3.8-4.2,5.3-6.2c0.6-0.8,1.2-1.9,1.2-2.9c0-1.1-0.9-1.8-2-1.8
		c-1.1,0-2,0.9-2,2.2l-2.8-0.5c0.2-2.5,2.5-4.2,4.9-4.2c2.5,0,4.8,1.6,4.8,4.2c0,1.5-0.7,3-1.6,4.3c-1.2,1.7-2.6,3.3-4,4.8h6.3
		V109.3z"/>
</g>
<g class="st3">
	<path class="st1" d="M119.7,101.7c0,4.9-2,7.9-5.6,7.9c-3.6,0-5.6-3-5.6-7.9c0-4.9,2-7.9,5.6-7.9
		C117.7,93.8,119.7,96.8,119.7,101.7z M111.4,101.7c0,3.7,1,5.5,2.7,5.5c1.7,0,2.7-1.8,2.7-5.5c0-3.7-1-5.5-2.7-5.5
		C112.4,96.2,111.4,98,111.4,101.7z"/>
</g>
<g class="st3">
	<path class="st1" d="M131.8,109.3h-10v-2.2c1.8-1.8,3.8-4.2,5.3-6.2c0.6-0.8,1.2-1.9,1.2-2.9c0-1.1-0.9-1.8-2-1.8
		c-1.1,0-2,0.9-2,2.2l-2.8-0.5c0.2-2.5,2.5-4.2,4.9-4.2c2.5,0,4.8,1.6,4.8,4.2c0,1.5-0.7,3-1.6,4.3c-1.2,1.7-2.6,3.3-4,4.8h6.3
		V109.3z"/>
</g>
<g class="st3">
	<path class="st1" d="M144.7,101.7c0,4.9-2,7.9-5.6,7.9c-3.6,0-5.6-3-5.6-7.9c0-4.9,2-7.9,5.6-7.9
		C142.6,93.8,144.7,96.8,144.7,101.7z M136.3,101.7c0,3.7,1,5.5,2.7,5.5c1.7,0,2.7-1.8,2.7-5.5c0-3.7-1-5.5-2.7-5.5
		C137.3,96.2,136.3,98,136.3,101.7z"/>
</g>
<g class="st3">
	<path class="st1" d="M40.1,7.8h1.5l4,10.5h-2.1l-0.7-2.1h-4L38,18.2h-2L40.1,7.8z M39.3,14.6h2.9l-1.4-4h0L39.3,14.6z"/>
</g>
<g class="st3">
	<path class="st1" d="M53.2,10.5l-3.1,7.7h-1.5l-2.9-7.7h2l1.8,5.3h0l1.8-5.3H53.2z"/>
</g>
<g class="st3">
	<path class="st1" d="M55.6,14.8c0.1,1.2,0.9,2.1,2.2,2.1c1,0,1.6-0.4,2.1-1.2l1.2,0.8c-0.9,1.3-1.9,1.9-3.5,1.9
		c-2.4,0-3.9-1.7-3.9-4c0-2.3,1.7-4.1,3.9-4.1c2.1,0,3.6,1.5,3.6,3.6c0,0.3,0,0.6-0.1,0.9H55.6z M57.7,11.8c-1.1,0-1.8,0.8-2,1.7
		h3.7C59.4,12.5,58.7,11.8,57.7,11.8z"/>
	<path class="st1" d="M64.7,11.6c0.5-0.8,1.1-1.3,1.9-1.3c0.4,0,0.6,0,0.9,0.1l-0.4,1.7c-0.2-0.1-0.5-0.2-0.7-0.2
		c-0.7,0-1.2,0.4-1.6,1v5.2H63v-7.7h1.7L64.7,11.6z"/>
	<path class="st1" d="M73.1,18.2L73,17.5c-0.6,0.7-1.3,0.9-2.2,0.9c-1.4,0-2.8-0.8-2.8-2.4c0-1.9,1.8-2.5,3.4-2.5
		c0.4,0,0.9,0,1.5,0.2v-0.2c0-1-0.5-1.7-1.6-1.7c-0.9,0-1.7,0.3-2.4,0.7l-0.5-1.4c0.9-0.5,2.1-0.8,3.2-0.8c2.2,0,3.1,1.2,3.1,3.2
		v4.7H73.1z M72.9,14.8c-0.5-0.1-0.8-0.2-1.2-0.2c-0.9,0-1.9,0.3-1.9,1.3c0,0.8,0.6,1.1,1.3,1.1c0.7,0,1.2-0.3,1.8-0.8V14.8z"/>
	<path class="st1" d="M84.2,17.8c0,0.8-0.2,1.5-0.5,2c-0.7,1.3-2,1.8-3.5,1.8c-1.2,0-2.5-0.3-3.5-1l0.7-1.5c0.8,0.6,1.9,1,2.8,1
		c1.2,0,2.1-0.6,2.1-2v-0.9c-0.6,0.8-1.5,1.1-2.4,1.1c-2.1,0-3.7-1.7-3.7-4c0-2.1,1.5-3.9,3.7-3.9c0.8,0,1.8,0.3,2.4,1.1l0.1-0.9
		h1.7V17.8z M82.4,12.9c-0.5-0.7-1.3-1-2-1c-1.5,0-2.2,1.2-2.2,2.4c0,1.2,0.9,2.3,2.2,2.3c0.7,0,1.6-0.4,2-1.2V12.9z"/>
	<path class="st1" d="M87.6,14.8c0.1,1.2,0.9,2.1,2.2,2.1c1,0,1.6-0.4,2.1-1.2l1.2,0.8c-0.9,1.3-1.9,1.9-3.5,1.9
		c-2.4,0-3.9-1.7-3.9-4c0-2.3,1.7-4.1,3.9-4.1c2.1,0,3.6,1.5,3.6,3.6c0,0.3,0,0.6-0.1,0.9H87.6z M89.7,11.8c-1.1,0-1.8,0.8-2,1.7
		h3.7C91.4,12.5,90.7,11.8,89.7,11.8z"/>
	<path class="st1" d="M100.7,12.1v3.2c0,0.2,0,0.4,0,0.6c0.1,0.6,0.3,0.9,0.8,0.9c0.3,0,0.6-0.1,0.9-0.2l0.5,1.4
		c-0.5,0.3-1.1,0.4-1.7,0.4c-1.2,0-1.9-0.6-2.2-1.5c-0.1-0.4-0.2-0.9-0.2-1.4v-3.5h-1v-1.5h1L99,8.8h1.6v1.8h2v1.5H100.7z"/>
	<path class="st1" d="M106,11.6c0.5-0.8,1.1-1.3,1.9-1.3c0.4,0,0.6,0,0.9,0.1l-0.4,1.7c-0.2-0.1-0.5-0.2-0.7-0.2
		c-0.7,0-1.2,0.4-1.6,1v5.2h-1.8v-7.7h1.7L106,11.6z"/>
	<path class="st1" d="M114.4,18.2l-0.1-0.7c-0.6,0.7-1.3,0.9-2.2,0.9c-1.4,0-2.8-0.8-2.8-2.4c0-1.9,1.8-2.5,3.4-2.5
		c0.4,0,0.9,0,1.5,0.2v-0.2c0-1-0.5-1.7-1.6-1.7c-0.9,0-1.7,0.3-2.4,0.7l-0.5-1.4c0.9-0.5,2.1-0.8,3.2-0.8c2.2,0,3.1,1.2,3.1,3.2
		v4.7H114.4z M114.2,14.8c-0.5-0.1-0.8-0.2-1.2-0.2c-0.9,0-1.9,0.3-1.9,1.3c0,0.8,0.6,1.1,1.3,1.1c0.7,0,1.2-0.3,1.8-0.8V14.8z"/>
	<path class="st1" d="M118.2,9.3V7.6h1.8v1.7H118.2z M118.2,18.2v-7.7h1.8v7.7H118.2z"/>
	<path class="st1" d="M123.9,10.5l0.1,1.1c0.6-0.9,1.5-1.3,2.5-1.3c0.9,0,1.6,0.4,2.1,1c0.6,0.8,0.7,1.8,0.7,2.9v4h-1.8v-3.9
		c0-0.6,0-1.4-0.3-1.8c-0.2-0.4-0.6-0.6-1.2-0.6c-0.7,0-1.5,0.5-1.9,1.2v5.1h-1.8v-7.7H123.9z"/>
	<path class="st1" d="M131.4,9.3V7.6h1.8v1.7H131.4z M131.4,18.2v-7.7h1.8v7.7H131.4z"/>
	<path class="st1" d="M137.1,10.5l0.1,1.1c0.6-0.9,1.5-1.3,2.5-1.3c0.9,0,1.6,0.4,2.1,1c0.6,0.8,0.7,1.8,0.7,2.9v4h-1.8v-3.9
		c0-0.6,0-1.4-0.3-1.8c-0.2-0.4-0.6-0.6-1.2-0.6c-0.7,0-1.5,0.5-1.9,1.2v5.1h-1.8v-7.7H137.1z"/>
	<path class="st1" d="M152,17.8c0,0.8-0.2,1.5-0.5,2c-0.7,1.3-2,1.8-3.5,1.8c-1.2,0-2.5-0.3-3.5-1l0.7-1.5c0.8,0.6,1.9,1,2.8,1
		c1.2,0,2.1-0.6,2.1-2v-0.9c-0.6,0.8-1.5,1.1-2.4,1.1c-2.1,0-3.7-1.7-3.7-4c0-2.1,1.5-3.9,3.7-3.9c0.8,0,1.8,0.3,2.4,1.1l0.1-0.9
		h1.7V17.8z M150.2,12.9c-0.5-0.7-1.3-1-2-1c-1.5,0-2.2,1.2-2.2,2.4c0,1.2,0.9,2.3,2.2,2.3c0.7,0,1.6-0.4,2-1.2V12.9z"/>
	<path class="st1" d="M159.7,11.6c0.6-0.8,1.5-1.2,2.4-1.2c0.9,0,1.6,0.4,2.1,1c0.6,0.8,0.7,1.8,0.7,2.9v4h-1.8v-3.9
		c0-0.6,0-1.4-0.3-1.8c-0.2-0.4-0.6-0.6-1.2-0.6c-0.7,0-1.5,0.5-1.9,1.2v5.1h-1.8V7h1.8V11.6z"/>
	<path class="st1" d="M174.5,14.4c0,2.3-1.7,4-4,4c-2.3,0-4-1.8-4-4c0-2.2,1.7-4,4-4C172.8,10.3,174.5,12.1,174.5,14.4z M170.5,11.9
		c-1.3,0-2.2,1.1-2.2,2.4c0,1.4,0.9,2.5,2.2,2.5c1.3,0,2.2-1.1,2.2-2.5C172.7,13,171.8,11.9,170.5,11.9z"/>
	<path class="st1" d="M181.5,18.2l-0.1-1.1c-0.6,0.9-1.5,1.3-2.5,1.3c-0.9,0-1.6-0.4-2.1-1c-0.6-0.8-0.7-1.8-0.7-2.9v-4h1.8v3.9
		c0,0.6,0,1.4,0.3,1.8c0.2,0.4,0.6,0.6,1.2,0.6c0.7,0,1.5-0.5,1.9-1.2v-5.1h1.8v7.7H181.5z"/>
	<path class="st1" d="M187.2,11.6c0.5-0.8,1.1-1.3,1.9-1.3c0.4,0,0.6,0,0.9,0.1l-0.4,1.7c-0.2-0.1-0.5-0.2-0.7-0.2
		c-0.7,0-1.2,0.4-1.6,1v5.2h-1.8v-7.7h1.7L187.2,11.6z"/>
	<path class="st1" d="M194.9,12.4c-0.4-0.3-1-0.6-1.5-0.6c-0.5,0-0.9,0.3-0.9,0.8c0,0.5,0.6,0.8,1.3,1.1c1,0.4,2.2,0.9,2.2,2.3
		c0,1.7-1.4,2.5-2.9,2.5c-1.1,0-2.2-0.4-2.9-1.3l1.1-1c0.6,0.6,1.1,0.9,1.8,0.9c0.6,0,1.2-0.3,1.2-0.9c0-0.5-0.8-0.8-1.4-1.1
		c-0.9-0.4-2.1-0.9-2.1-2.3c0-1.6,1.3-2.3,2.7-2.3c1,0,1.9,0.3,2.5,0.9L194.9,12.4z"/>
	<path class="st1" d="M203.3,10.5l0.1,1c0.5-0.8,1.6-1.2,2.4-1.2c2.1,0,3.7,1.8,3.7,4.1c0,2.1-1.5,4-3.7,4c-0.8,0-1.7-0.3-2.3-1V22
		h-1.8V10.5H203.3z M203.5,15.9c0.5,0.7,1.3,1,2,1c1.5,0,2.2-1.3,2.2-2.5c0-1.3-0.9-2.4-2.2-2.4c-0.7,0-1.6,0.4-2,1.2V15.9z"/>
	<path class="st1" d="M213,11.6c0.5-0.8,1.1-1.3,1.9-1.3c0.4,0,0.6,0,0.9,0.1l-0.4,1.7c-0.2-0.1-0.5-0.2-0.7-0.2
		c-0.7,0-1.2,0.4-1.6,1v5.2h-1.8v-7.7h1.7L213,11.6z"/>
	<path class="st1" d="M224.2,14.4c0,2.3-1.7,4-4,4c-2.3,0-4-1.8-4-4c0-2.2,1.7-4,4-4C222.5,10.3,224.2,12.1,224.2,14.4z M220.2,11.9
		c-1.3,0-2.2,1.1-2.2,2.4c0,1.4,0.9,2.5,2.2,2.5c1.3,0,2.2-1.1,2.2-2.5C222.3,13,221.4,11.9,220.2,11.9z"/>
	<path class="st1" d="M232.4,10.5l-3.1,7.7h-1.5l-2.9-7.7h2l1.8,5.3h0l1.8-5.3H232.4z"/>
	<path class="st1" d="M233.6,9.3V7.6h1.8v1.7H233.6z M233.6,18.2v-7.7h1.8v7.7H233.6z"/>
	<path class="st1" d="M244.9,18.2h-1.7l-0.1-1c-0.6,0.8-1.6,1.2-2.4,1.2c-2.1,0-3.7-1.8-3.7-4.1c0-2.1,1.5-4,3.7-4
		c0.8,0,1.7,0.3,2.3,1V7h1.8V18.2z M243.1,12.9c-0.5-0.7-1.3-1-2-1c-1.5,0-2.2,1.3-2.2,2.5c0,1.3,0.8,2.4,2.2,2.4
		c0.7,0,1.6-0.4,2-1.2V12.9z"/>
	<path class="st1" d="M248.4,14.8c0.1,1.2,0.9,2.1,2.2,2.1c1,0,1.6-0.4,2.1-1.2l1.2,0.8c-0.9,1.3-1.9,1.9-3.5,1.9
		c-2.4,0-3.9-1.7-3.9-4c0-2.3,1.7-4.1,3.9-4.1c2.1,0,3.6,1.5,3.6,3.6c0,0.3,0,0.6-0.1,0.9H248.4z M250.5,11.8c-1.1,0-1.8,0.8-2,1.7
		h3.7C252.2,12.5,251.5,11.8,250.5,11.8z"/>
	<path class="st1" d="M263.1,18.2h-1.7l-0.1-1c-0.6,0.8-1.6,1.2-2.4,1.2c-2.1,0-3.7-1.8-3.7-4.1c0-2.1,1.5-4,3.7-4
		c0.8,0,1.7,0.3,2.3,1V7h1.8V18.2z M261.3,12.9c-0.5-0.7-1.3-1-2-1c-1.5,0-2.2,1.3-2.2,2.5c0,1.3,0.8,2.4,2.2,2.4
		c0.7,0,1.6-0.4,2-1.2V12.9z"/>
	<path class="st1" d="M271,12.1v3.2c0,0.2,0,0.4,0,0.6c0.1,0.6,0.3,0.9,0.8,0.9c0.3,0,0.6-0.1,0.9-0.2l0.5,1.4
		c-0.5,0.3-1.1,0.4-1.7,0.4c-1.2,0-1.9-0.6-2.2-1.5c-0.1-0.4-0.2-0.9-0.2-1.4v-3.5h-1v-1.5h1l0.2-1.8h1.6v1.8h2v1.5H271z"/>
	<path class="st1" d="M282,14.4c0,2.3-1.7,4-4,4c-2.3,0-4-1.8-4-4c0-2.2,1.7-4,4-4C280.3,10.3,282,12.1,282,14.4z M278,11.9
		c-1.3,0-2.2,1.1-2.2,2.4c0,1.4,0.9,2.5,2.2,2.5c1.3,0,2.2-1.1,2.2-2.5C280.2,13,279.3,11.9,278,11.9z"/>
	<path class="st1" d="M288.7,14.8c0.1,1.2,0.9,2.1,2.2,2.1c1,0,1.7-0.4,2.1-1.2l1.2,0.8c-0.9,1.3-1.9,1.9-3.5,1.9
		c-2.4,0-3.9-1.7-3.9-4c0-2.3,1.7-4.1,3.9-4.1c2.1,0,3.6,1.5,3.6,3.6c0,0.3,0,0.6-0.1,0.9H288.7z M290.8,11.8c-1.1,0-1.8,0.8-2,1.7
		h3.7C292.5,12.5,291.8,11.8,290.8,11.8z"/>
	<path class="st1" d="M305.9,18.2v-3.9c0-0.6,0-1.4-0.3-1.8c-0.2-0.4-0.6-0.6-1.2-0.6c-0.6,0-1.3,0.4-1.8,1c0.1,0.4,0.1,0.8,0.1,1.2
		v4H301v-3.9c0-0.6,0-1.4-0.3-1.9c-0.2-0.4-0.6-0.5-1.1-0.5c-0.6,0-1.3,0.5-1.7,1v5.3h-1.8v-7.7h1.7l0.1,1c0.6-0.8,1.5-1.2,2.3-1.2
		c0.8,0,1.6,0.4,2.1,1c0.1,0.1,0.1,0.2,0.2,0.3c0.7-1,1.7-1.3,2.6-1.3c0.9,0,1.6,0.4,2.1,1c0.6,0.8,0.7,1.8,0.7,2.9v4H305.9z"/>
	<path class="st1" d="M311.6,10.5l0.1,1c0.5-0.8,1.6-1.2,2.4-1.2c2.1,0,3.7,1.8,3.7,4.1c0,2.1-1.5,4-3.7,4c-0.8,0-1.7-0.3-2.3-1V22
		h-1.8V10.5H311.6z M311.8,15.9c0.5,0.7,1.3,1,2,1c1.5,0,2.2-1.3,2.2-2.5c0-1.3-0.9-2.4-2.2-2.4c-0.7,0-1.6,0.4-2,1.2V15.9z"/>
	<path class="st1" d="M321.3,18.2h-1.8V7h1.8V18.2z"/>
	<path class="st1" d="M331,14.4c0,2.3-1.7,4-4,4s-4-1.8-4-4c0-2.2,1.7-4,4-4S331,12.1,331,14.4z M327,11.9c-1.3,0-2.2,1.1-2.2,2.4
		c0,1.4,0.9,2.5,2.2,2.5s2.2-1.1,2.2-2.5C329.2,13,328.3,11.9,327,11.9z"/>
	<path class="st1" d="M333.6,10.5l1.7,5.1h0l1.8-5.1h2l-4.3,11.2l-1.6-0.6l1.2-3.3l-2.8-7.4H333.6z"/>
	<path class="st1" d="M341.6,14.8c0.1,1.2,0.9,2.1,2.2,2.1c1,0,1.7-0.4,2.1-1.2l1.2,0.8c-0.9,1.3-1.9,1.9-3.5,1.9
		c-2.4,0-3.9-1.7-3.9-4c0-2.3,1.7-4.1,3.9-4.1c2.1,0,3.6,1.5,3.6,3.6c0,0.3,0,0.6-0.1,0.9H341.6z M343.7,11.8c-1.1,0-1.8,0.8-2,1.7
		h3.7C345.4,12.5,344.6,11.8,343.7,11.8z"/>
	<path class="st1" d="M350.2,14.8c0.1,1.2,0.9,2.1,2.2,2.1c1,0,1.6-0.4,2.1-1.2l1.2,0.8c-0.9,1.3-1.9,1.9-3.5,1.9
		c-2.4,0-3.9-1.7-3.9-4c0-2.3,1.7-4.1,3.9-4.1c2.1,0,3.6,1.5,3.6,3.6c0,0.3,0,0.6-0.1,0.9H350.2z M352.3,11.8c-1.1,0-1.8,0.8-2,1.7
		h3.7C354,12.5,353.3,11.8,352.3,11.8z"/>
	<path class="st1" d="M361.6,12.4c-0.4-0.3-1-0.6-1.5-0.6c-0.5,0-0.9,0.3-0.9,0.8c0,0.5,0.6,0.8,1.3,1.1c1,0.4,2.2,0.9,2.2,2.3
		c0,1.7-1.4,2.5-2.9,2.5c-1.1,0-2.2-0.4-2.9-1.3l1.1-1c0.6,0.6,1.1,0.9,1.8,0.9c0.6,0,1.2-0.3,1.2-0.9c0-0.5-0.8-0.8-1.4-1.1
		c-0.9-0.4-2.1-0.9-2.1-2.3c0-1.6,1.3-2.3,2.7-2.3c1,0,1.9,0.3,2.5,0.9L361.6,12.4z"/>
</g>
</svg>
