<?xml version="1.0" encoding="utf-8"?>
<!DOCTYPE svg PUBLIC "-//W3C//DTD SVG 1.1//EN" "http://www.w3.org/Graphics/SVG/1.1/DTD/svg11.dtd">
<svg version="1.1" id="VARG" xmlns="http://www.w3.org/2000/svg" xmlns:xlink="http://www.w3.org/1999/xlink" x="0px" y="0px"
 width="303px" height="68px" viewBox="0 0 303 68" enable-background="new 0 0 303 68" xml:space="preserve">
<g>
<g>
<path fill-rule="evenodd" clip-rule="evenodd" fill="#CB1E00" d="M279.154,49.791c-0.774,0-1.549-0.392-2.451-0.913
c9.938-8.213,15.486-13.817,15.486-18.64c0-5.606-5.808-8.604-8.259-8.604c-11.229,0-16.907,13.426-18.068,24.247
c-1.549,1.564-3.485,2.606-5.421,2.606c-1.419,0-2.193-0.652-2.193-1.824c0-0.782,0.517-2.738,1.936-5.475l0,0l8.646-16.947h-9.68
l-7.742,15.381l0,0c-2.323,4.563-4.776,7.17-6.453,7.17c-0.645,0-1.161-0.39-1.161-1.172c0-1.174,2.323-5.998,2.838-6.909l0,0
l7.486-14.47h-9.808l-7.486,13.688l0,0c-3.354,6.257-7.227,9.647-10.969,9.647c-1.29,0-2.065-0.392-3.228-1.174
c10.712-9.908,22.327-25.42,22.327-36.761c0-4.953-3.484-8.213-7.099-8.213c-12.903,0-24.906,23.073-25.294,42.627
c-3.354,3.258-6.194,4.692-8.001,4.692c-1.549,0-2.453-0.65-2.453-1.824c0-0.912,0.646-3.26,2.968-7.952l0,0l7.357-14.73h-9.291
l-0.774,1.043l0,0c-2.323-1.694-4.002-2.607-6.97-2.607c-9.938,0-20.649,13.948-20.649,24.375c0,7.17,3.872,11.342,8.905,11.342
c3.098,0,5.679-1.173,10.84-4.824c1.034,3.391,2.711,4.824,6.712,4.824c3.742,0,6.71-1.304,13.163-5.214
c1.679,3.78,3.355,5.214,7.356,5.214c3.872,0,6.97-1.694,12.519-6.126c0.645,3.91,2.193,6.126,6.065,6.126
c2.968,0,5.033-1.564,10.711-6.257c1.162,3.78,3.226,6.257,7.228,6.257c2.452,0,4.517-0.782,10.712-4.172
c2.063,2.607,4.259,4.172,8.001,4.172c4.646,0,9.293-2.216,13.938-5.604l0,0l-2.064-7.562l0,0
C285.091,47.966,281.348,49.791,279.154,49.791L279.154,49.791L279.154,49.791L279.154,49.791z M191.943,44.026
c-2.323,2.997-4.517,4.301-6.065,4.301c-1.29,0-2.323-0.911-2.323-2.476c0-4.434,6.969-14.47,11.099-14.47
c1.679,0,2.453,1.173,2.453,2.607C197.106,35.422,196.072,38.682,191.943,44.026L191.943,44.026L191.943,44.026L191.943,44.026z
 M226.479,22.067c3.098-5.866,6.583-9.907,8.132-9.907c0.645,0,1.291,0.651,1.291,1.695c0,3.649-6.712,14.6-13.293,20.596
C223.384,29.236,224.157,26.499,226.479,22.067L226.479,22.067L226.479,22.067L226.479,22.067z M283.657,28.918
c0.517,0,0.774,0.521,0.774,1.043c0,2.086-2.323,5.213-9.033,9.516C276.431,35.959,279.657,28.918,283.657,28.918L283.657,28.918
L283.657,28.918L283.657,28.918z"/>
<path fill-rule="evenodd" clip-rule="evenodd" fill="#CB1E00" d="M127.991,44.404c-5.421,4.042-7.614,4.953-9.679,4.953
c-0.903,0-1.678-0.259-2.969-0.911c8.389-5.996,15.229-13.948,15.229-20.466c0-3.128-3.872-7.3-8.001-7.3
c-8.904,0-17.035,13.036-17.422,24.898c-2.194,1.694-4,2.607-5.808,2.607c-1.678,0-2.581-0.782-2.581-1.435
c0-0.651,0.645-2.347,3.743-8.343l0,0l7.227-14.208H97.146l-6.194,13.166l0,0c-3.226,6.91-5.937,10.038-7.872,10.038
c-0.517,0-1.033-0.521-1.033-1.174c0-0.391-0.129-1.302,2.323-6.126l0,0L92.371,24.2h-9.808L77.53,34.367l0,0
c-4.259,8.733-9.034,13.167-11.357,13.167c-0.774,0-1.291-0.392-1.291-1.174c0-0.391-0.129-0.913,1.678-4.563l0,0L75.208,24.2
H62.302l0.128-1.825l-7.098-4.302L36.749,53.791l7.227,4.563l14.712-26.463h3.227L55.203,45.97l0,0
c-1.806,3.78-2.193,4.562-2.193,6.517c0,3.847,2.968,5.868,6.195,5.868c3.226,0,6.323-1.566,12.905-5.737
c1.162,4.171,2.71,5.737,5.808,5.737c3.614,0,7.098-1.827,11.486-5.085c0.773,3.65,2.064,5.085,5.807,5.085
c3.355,0,5.937-0.914,12.388-4.303c3.098,3.258,5.163,4.303,8.131,4.303c3.355,0,9.034-2.478,14.97-6.78l0,0L127.991,44.404
L127.991,44.404L127.991,44.404z M121.695,28.541c0.515,0,0.645,0.392,0.645,0.913c0,2.737-5.678,8.212-7.873,9.646
C115.242,36.231,118.727,28.541,121.695,28.541L121.695,28.541L121.695,28.541L121.695,28.541z"/>
<path fill-rule="evenodd" clip-rule="evenodd" fill="#CB1E00" d="M105.029,15.486h12.647l0,0c1.549-1.694,2.452-1.694,7.355-1.694
l0,0h23.617l-11.356,37.412l0,0c-1.033,3.26-1.42,5.477-1.42,7.17c0,4.497,3.484,7.625,8.389,7.625
c4.258,0,7.743-2.347,11.744-7.625l0,0l30.199-39.889l0,0c3.354-4.433,4.903-5.997,9.55-7.691l0,0l-4.389-10.038l0,0
c-5.291,1.434-7.484,3.39-12.647,10.168l0,0l-31.36,41.583l15.744-49.144l-40.006-0.131l0,0
C110.449,3.233,105.416,6.753,105.029,15.486L105.029,15.486z"/>
<path fill-rule="evenodd" clip-rule="evenodd" fill="#CB1E00" d="M2.094,62.637c4,0.913,6.323,1.435,9.55,1.435
c9.421,0,14.711-3.846,18.712-11.537l0,0l20.521-38.716h21.422l5.55-10.429H31.26l0,0c-9.549,0-12.647,1.173-17.938,5.345l0,0
l5.163,7.951l0,0c4.388-2.216,6.581-2.867,12.518-2.867l0,0h7.744L22.355,45.625l0,0c-3.097,6.127-5.936,8.344-11.743,8.344
c-1.291,0-2.324-0.132-4.518-0.521l0,0L2.094,62.637L2.094,62.637z"/>
<path fill-rule="evenodd" clip-rule="evenodd" fill="#CB1E00" d="M298.947,50.924c-1.714,0-3.164,1.348-3.164,3.178
c0,1.848,1.45,3.195,3.164,3.195c1.697,0,3.146-1.348,3.146-3.195C302.094,52.271,300.645,50.924,298.947,50.924L298.947,50.924
L298.947,50.924L298.947,50.924z M298.947,56.767c-1.425,0-2.537-1.129-2.537-2.665c0-1.509,1.112-2.647,2.537-2.647
c1.408,0,2.521,1.139,2.521,2.647C301.468,55.638,300.355,56.767,298.947,56.767L298.947,56.767L298.947,56.767L298.947,56.767z"
/>
<path fill-rule="evenodd" clip-rule="evenodd" fill="#CB1E00" d="M299.45,54.329c0.527-0.067,0.932-0.354,0.932-1.012
c0-0.725-0.419-1.046-1.268-1.046l0,0h-1.368v3.678h0.543v-1.595h0.626l0.947,1.595h0.61L299.45,54.329L299.45,54.329
L299.45,54.329z M298.289,53.887v-1.139h0.741l0,0c0.38,0,0.782,0.085,0.782,0.54c0,0.564-0.411,0.599-0.873,0.599l0,0H298.289
L298.289,53.887L298.289,53.887z"/>
</g>
</g>
</svg>
