<?xml version="1.0" encoding="utf-8"?>
<!-- Generator: Adobe Illustrator 25.2.1, SVG Export Plug-In . SVG Version: 6.00 Build 0)  -->
<svg version="1.1" id="Layer_1" xmlns="http://www.w3.org/2000/svg" xmlns:xlink="http://www.w3.org/1999/xlink" x="0px" y="0px"
	 viewBox="0 0 48 47.78" style="enable-background:new 0 0 48 47.78;" xml:space="preserve">
<style type="text/css">
	.st0{clip-path:url(#SVGID_2_);fill:#FFFFFF;}
	.st1{fill:#EB94A6;}
	.st2{clip-path:url(#SVGID_4_);fill:#C2384A;}
	.st3{clip-path:url(#SVGID_6_);fill:#EB94A6;}
	.st4{clip-path:url(#SVGID_6_);fill:#C2384A;}
	.st5{fill:#C2384A;}
	.st6{clip-path:url(#SVGID_8_);fill:none;stroke:#C2384A;stroke-width:0.706;stroke-miterlimit:10;}
	.st7{clip-path:url(#SVGID_10_);fill:#EB94A6;}
	.st8{clip-path:url(#SVGID_10_);fill:#DEEDF0;}
	.st9{clip-path:url(#SVGID_10_);fill:#C2384A;}
	.st10{clip-path:url(#SVGID_10_);fill:#FFFFFF;}
	.st11{fill:#FFDEDE;}
	.st12{clip-path:url(#SVGID_12_);fill:#EB94A6;}
	.st13{clip-path:url(#SVGID_12_);fill:#C2384A;}
	.st14{clip-path:url(#SVGID_12_);fill:#FFFFFF;}
	.st15{fill:none;stroke:#C2384A;stroke-width:0.754;stroke-miterlimit:10;}
	.st16{clip-path:url(#SVGID_14_);fill:#C2384A;}
	.st17{fill:none;stroke:#C2384A;stroke-width:0.963;stroke-linecap:round;stroke-linejoin:round;stroke-miterlimit:10;}
	.st18{clip-path:url(#SVGID_16_);fill:#C2384A;}
	.st19{clip-path:url(#SVGID_16_);fill:#FFFFFF;}
	.st20{clip-path:url(#SVGID_16_);fill:none;stroke:#C2384A;stroke-width:0.803;stroke-miterlimit:10;}
	.st21{fill:none;stroke:#C2384A;stroke-width:0.803;stroke-linecap:round;stroke-linejoin:round;stroke-miterlimit:10;}
	.st22{clip-path:url(#SVGID_18_);fill:#C2384A;}
	.st23{clip-path:url(#SVGID_20_);fill:#C2384A;}
	.st24{clip-path:url(#SVGID_22_);fill:#C2384A;}
	.st25{fill:#DEEDF0;}
	.st26{clip-path:url(#SVGID_24_);fill:#EB94A6;}
	.st27{clip-path:url(#SVGID_24_);fill:#C2384A;}
	.st28{clip-path:url(#SVGID_26_);fill:#C2384A;}
	.st29{clip-path:url(#SVGID_28_);fill:none;stroke:#C2384A;stroke-width:0.618;stroke-miterlimit:10;}
</style>
<g>
	<defs>
		<rect id="SVGID_1_" x="-160.12" y="-140.68" width="625.5" height="357.06"/>
	</defs>
	<clipPath id="SVGID_2_">
		<use xlink:href="#SVGID_1_"  style="overflow:visible;"/>
	</clipPath>
	<path class="st0" d="M23.93,47.55c13.11,0,23.73-10.62,23.73-23.73S37.04,0.09,23.93,0.09C10.82,0.09,0.2,10.71,0.2,23.82
		S10.82,47.55,23.93,47.55"/>
</g>
<g>
	<defs>
		<rect id="SVGID_3_" x="-160.12" y="-140.68" width="625.5" height="357.06"/>
	</defs>
	<clipPath id="SVGID_4_">
		<use xlink:href="#SVGID_3_"  style="overflow:visible;"/>
	</clipPath>
</g>
<rect x="6.9" y="19.92" class="st1" width="2.38" height="22.05"/>
<rect x="38.56" y="19.92" class="st1" width="2.38" height="22.05"/>
<g>
	<defs>
		<rect id="SVGID_5_" x="-160.12" y="-140.68" width="625.5" height="357.06"/>
	</defs>
	<clipPath id="SVGID_6_">
		<use xlink:href="#SVGID_5_"  style="overflow:visible;"/>
	</clipPath>
	<path class="st3" d="M4.15,13.95v3.71c0,2.22,1.73,3.96,3.96,3.96c2.23,0,3.96-1.73,3.96-3.96v-3.71H4.15z"/>
	<path class="st4" d="M12.06,13.95v3.71c0,2.22,1.73,3.96,3.96,3.96c2.23,0,3.96-1.73,3.96-3.96v-3.71H12.06z"/>
	<path class="st3" d="M19.97,13.95v3.71c0,2.22,1.73,3.96,3.96,3.96s3.96-1.73,3.96-3.96v-3.71H19.97z"/>
	<path class="st4" d="M27.89,13.95v3.71c0,2.22,1.73,3.96,3.96,3.96s3.96-1.73,3.96-3.96v-3.71H27.89z"/>
	<path class="st3" d="M35.8,13.95v3.71c0,2.22,1.73,3.96,3.96,3.96s3.96-1.73,3.96-3.96v-3.71H35.8z"/>
</g>
<polygon class="st1" points="13.79,6.04 7.03,6.04 4.15,13.95 12.06,13.95 "/>
<polygon class="st5" points="20.55,6.04 13.79,6.04 12.06,13.95 19.97,13.95 "/>
<polygon class="st1" points="27.31,6.04 20.55,6.04 19.97,13.95 27.89,13.95 "/>
<polygon class="st5" points="34.07,6.04 27.31,6.04 27.89,13.95 35.8,13.95 "/>
<polygon class="st1" points="40.82,6.04 34.07,6.04 35.8,13.95 43.71,13.95 "/>
<rect x="4.15" y="31.54" class="st5" width="39.56" height="10.76"/>
<g>
	<defs>
		<rect id="SVGID_7_" x="-160.12" y="-140.68" width="625.5" height="357.06"/>
	</defs>
	<clipPath id="SVGID_8_">
		<use xlink:href="#SVGID_7_"  style="overflow:visible;"/>
	</clipPath>
</g>
<g>
	<defs>
		<rect id="SVGID_9_" x="-160.12" y="-140.68" width="625.5" height="357.06"/>
	</defs>
	<clipPath id="SVGID_10_">
		<use xlink:href="#SVGID_9_"  style="overflow:visible;"/>
	</clipPath>
</g>
<g>
	<defs>
		<rect id="SVGID_11_" x="-160.12" y="-140.68" width="625.5" height="357.06"/>
	</defs>
	<clipPath id="SVGID_12_">
		<use xlink:href="#SVGID_11_"  style="overflow:visible;"/>
	</clipPath>
</g>
<g>
	<defs>
		<rect id="SVGID_13_" x="-160.12" y="-140.68" width="625.5" height="357.06"/>
	</defs>
	<clipPath id="SVGID_14_">
		<use xlink:href="#SVGID_13_"  style="overflow:visible;"/>
	</clipPath>
</g>
<g>
	<defs>
		<rect id="SVGID_15_" x="-160.12" y="-140.68" width="625.5" height="357.06"/>
	</defs>
	<clipPath id="SVGID_16_">
		<use xlink:href="#SVGID_15_"  style="overflow:visible;"/>
	</clipPath>
</g>
<g>
	<defs>
		<rect id="SVGID_17_" x="-160.12" y="-140.68" width="625.5" height="357.06"/>
	</defs>
	<clipPath id="SVGID_18_">
		<use xlink:href="#SVGID_17_"  style="overflow:visible;"/>
	</clipPath>
</g>
<g>
	<defs>
		<rect id="SVGID_19_" x="-160.12" y="-140.68" width="625.5" height="357.06"/>
	</defs>
	<clipPath id="SVGID_20_">
		<use xlink:href="#SVGID_19_"  style="overflow:visible;"/>
	</clipPath>
</g>
<g>
	<defs>
		<rect id="SVGID_21_" x="-160.12" y="-140.68" width="625.5" height="357.06"/>
	</defs>
	<clipPath id="SVGID_22_">
		<use xlink:href="#SVGID_21_"  style="overflow:visible;"/>
	</clipPath>
</g>
<g>
	<defs>
		<rect id="SVGID_23_" x="-160.12" y="-140.68" width="625.5" height="357.06"/>
	</defs>
	<clipPath id="SVGID_24_">
		<use xlink:href="#SVGID_23_"  style="overflow:visible;"/>
	</clipPath>
</g>
<g>
	<defs>
		<rect id="SVGID_25_" x="-160.12" y="-140.68" width="625.5" height="357.06"/>
	</defs>
	<clipPath id="SVGID_26_">
		<use xlink:href="#SVGID_25_"  style="overflow:visible;"/>
	</clipPath>
</g>
<g>
	<defs>
		<rect id="SVGID_27_" x="-160.12" y="-140.68" width="625.5" height="357.06"/>
	</defs>
	<clipPath id="SVGID_28_">
		<use xlink:href="#SVGID_27_"  style="overflow:visible;"/>
	</clipPath>
</g>
</svg>
