<svg id="Layer_1" data-name="Layer 1" xmlns="http://www.w3.org/2000/svg" xmlns:xlink="http://www.w3.org/1999/xlink" viewBox="0 0 569.35 276.14"><defs><style>.cls-1,.cls-12,.cls-13,.cls-20,.cls-21{fill:none;}.cls-2{fill:#eee9d8;}.cls-3{font-size:13px;font-family:SoleilSb, Soleil;}.cls-17,.cls-3{fill:#c2384a;}.cls-4{letter-spacing:-0.02em;}.cls-5{letter-spacing:0.05em;}.cls-6{letter-spacing:0em;}.cls-7{letter-spacing:-0.01em;}.cls-8{letter-spacing:-0.01em;}.cls-9{letter-spacing:-0.03em;}.cls-10{letter-spacing:0em;}.cls-11{letter-spacing:-0.01em;}.cls-12{stroke:#a60d2e;}.cls-12,.cls-13,.cls-20,.cls-21{stroke-miterlimit:10;}.cls-13{stroke:#363bc2;}.cls-14{fill:#fff;}.cls-15{fill:#eb94a6;}.cls-16{clip-path:url(#clip-path);}.cls-18{fill:#363bc2;}.cls-19{fill:#c4e8e8;}.cls-20{stroke:#c2384a;}.cls-21{stroke:#fff;stroke-width:2.96px;}.cls-22{fill:#edf7f7;}.cls-23{fill:#deadba;}.cls-24{fill:#c26b78;}</style><clipPath id="clip-path"><rect class="cls-1" width="569.35" height="276.14"/></clipPath></defs><rect class="cls-2" width="569.35" height="276.14"/><text class="cls-3" transform="translate(220.04 120.59)"><tspan class="cls-4">W</tspan><tspan x="11.65" y="0">ater Pump</tspan></text><text class="cls-3" transform="translate(392.19 109.44)">D<tspan class="cls-5" x="9.32" y="0">r</tspan><tspan class="cls-6" x="14.74" y="0">y </tspan><tspan class="cls-7" x="24.61" y="0">C</tspan><tspan class="cls-6" x="33.18" y="0">ooler</tspan></text><text class="cls-3" transform="translate(159.06 250.21)"><tspan class="cls-8">C</tspan><tspan x="8.57" y="0">old </tspan><tspan class="cls-9" x="31.52" y="0">R</tspan><tspan x="39.19" y="0">oom</tspan></text><text class="cls-3" transform="translate(293.02 250.21)">Fre<tspan class="cls-10" x="18.76" y="0">e</tspan><tspan class="cls-11" x="26.19" y="0">z</tspan><tspan x="32.2" y="0">er Cabinet</tspan></text><text class="cls-3" transform="translate(453.66 250.21)">Chiller Cabinet</text><polyline class="cls-12" points="153.15 101.66 191.55 101.66 191.55 54.2 372.99 54.2"/><polyline class="cls-13" points="153.15 92.26 183.23 92.26 183.23 44.8 373.55 44.8"/><rect class="cls-14" x="370.87" y="41.28" width="3.72" height="48.43"/><rect class="cls-14" x="472.06" y="41.28" width="3.72" height="48.43"/><rect class="cls-14" x="370.87" y="41.28" width="104.91" height="25.61"/><rect class="cls-15" x="375.38" y="51.98" width="27.9" height="4.37"/><rect class="cls-15" x="410.74" y="51.98" width="27.9" height="4.37"/><rect class="cls-15" x="443.59" y="51.98" width="27.9" height="4.37"/><rect class="cls-15" x="375.38" y="40.23" width="27.9" height="4.37"/><rect class="cls-15" x="410.74" y="40.23" width="27.9" height="4.37"/><rect class="cls-15" x="443.59" y="40.23" width="27.9" height="4.37"/><g class="cls-16"><path class="cls-17" d="M403.27,52c0,1.25-6.24,2.27-13.94,2.27s-13.95-1-13.95-2.27,6.24-2.28,13.95-2.28,13.94,1,13.94,2.28"/><path class="cls-17" d="M438.63,52c0,1.25-6.24,2.27-13.94,2.27s-13.95-1-13.95-2.27S417,49.7,424.69,49.7s13.94,1,13.94,2.28"/><path class="cls-17" d="M471.48,52c0,1.25-6.24,2.27-13.94,2.27s-14-1-14-2.27,6.24-2.28,14-2.28,13.94,1,13.94,2.28"/><path class="cls-17" d="M403.27,40.23c0,1.26-6.24,2.28-13.94,2.28s-13.95-1-13.95-2.28S381.62,38,389.33,38s13.94,1,13.94,2.28"/><path class="cls-17" d="M438.63,40.23c0,1.26-6.24,2.28-13.94,2.28s-13.95-1-13.95-2.28S417,38,424.69,38s13.94,1,13.94,2.28"/><path class="cls-17" d="M471.48,40.23c0,1.26-6.24,2.28-13.94,2.28s-14-1-14-2.28,6.24-2.28,14-2.28,13.94,1,13.94,2.28"/></g><rect class="cls-14" x="362.99" y="60.69" width="7.88" height="19"/><rect class="cls-18" x="22.21" y="84.75" width="121.26" height="48.45"/><rect class="cls-17" x="17.95" y="92.76" width="5.13" height="32.47"/><rect class="cls-14" x="7" y="92.76" width="10.95" height="32.47"/><g class="cls-16"><path class="cls-17" d="M65.89,114.18A12.48,12.48,0,1,1,53.41,101.7a12.48,12.48,0,0,1,12.48,12.48"/></g><rect class="cls-14" x="74.19" y="112.64" width="42.88" height="12.58"/><rect class="cls-19" x="117.08" y="112.64" width="17.68" height="12.58"/><rect class="cls-14" x="247.07" y="51.26" width="17.09" height="51.94"/><rect class="cls-14" x="221.92" y="7.33" width="26.68" height="37.39"/><rect class="cls-14" x="232.39" y="40.12" width="5.72" height="23.93"/><g class="cls-16"><path class="cls-15" d="M247.07,92.35H230.24a6.15,6.15,0,0,1-6.16-6.15V64.75a6.16,6.16,0,0,1,6.16-6.15h16.83Z"/><path class="cls-15" d="M263.81,99.64h23.4a6.15,6.15,0,0,0,6.15-6.15V60.82a6.16,6.16,0,0,0-6.15-6.16h-23.4Z"/><path class="cls-19" d="M235.19,11.69S229.05,28.6,229.05,30a6.14,6.14,0,1,0,12.28,0c0-1.38-6.14-18.29-6.14-18.29"/><path class="cls-17" d="M227.24,41.18a1.8,1.8,0,1,1-1.8-1.8,1.8,1.8,0,0,1,1.8,1.8"/><path class="cls-17" d="M231.61,41.18a1.8,1.8,0,1,1-1.8-1.8,1.79,1.79,0,0,1,1.8,1.8"/><path class="cls-17" d="M236,41.18a1.8,1.8,0,1,1-1.8-1.8,1.79,1.79,0,0,1,1.8,1.8"/></g><rect class="cls-14" x="158.1" y="152.79" width="60.51" height="76.07"/><rect class="cls-20" x="158.1" y="152.79" width="60.51" height="76.07"/><g class="cls-16"><path class="cls-17" d="M185.48,187c0,2.12-.46,3.83-1,3.83s-1-1.71-1-3.83.46-3.83,1-3.83,1,1.72,1,3.83"/></g><rect class="cls-19" x="187.92" y="161.75" width="27.48" height="60.9"/><rect class="cls-14" x="214.99" y="161.95" width="27.09" height="60.51"/><rect class="cls-20" x="214.99" y="161.95" width="27.09" height="60.51"/><rect class="cls-20" x="160.64" y="161.95" width="27.09" height="60.51"/><rect class="cls-19" x="295.45" y="162.54" width="94.84" height="60.05"/><rect class="cls-21" x="295.45" y="162.54" width="94.84" height="60.05"/><rect class="cls-15" x="293.45" y="152.85" width="98.85" height="7.86"/><rect class="cls-14" x="296.38" y="176.25" width="93" height="3.93"/><rect class="cls-14" x="296.38" y="192.57" width="93" height="3.93"/><rect class="cls-14" x="296.38" y="217.73" width="93" height="3.93"/><rect class="cls-17" x="293.45" y="223.26" width="98.85" height="2.11"/><polygon class="cls-17" points="300.78 163.84 298.93 163.84 298.91 168.19 300.8 168.19 300.78 163.84"/><g class="cls-16"><path class="cls-17" d="M298.92,165.2s-.08,3.45-.52,3.45-.92.13-1,.51,0,4.19,0,4.19l4.68.24"/><path class="cls-17" d="M297.59,173.59l4.67-.24s0-3.81,0-4.19-.53-.51-1-.51-.49-3.07-.49-3.07L299.13,168l.34,1.44"/></g><rect class="cls-17" x="297.4" y="171.94" width="4.87" height="6.06"/><g class="cls-16"><path class="cls-17" d="M302.28,178c0,.59-1.1,1.08-2.44,1.08s-2.44-.49-2.44-1.08,1.09-1.08,2.44-1.08,2.44.48,2.44,1.08"/></g><polygon class="cls-17" points="306.42 163.84 304.56 163.84 304.55 168.19 306.43 168.19 306.42 163.84"/><g class="cls-16"><path class="cls-17" d="M304.56,165.2s-.09,3.45-.53,3.45-.92.13-1,.51,0,4.19,0,4.19l4.67.24"/><path class="cls-17" d="M303.22,173.59l4.68-.24s0-3.81,0-4.19-.53-.51-1-.51-.49-3.07-.49-3.07L304.77,168l.33,1.44"/></g><rect class="cls-17" x="303.04" y="171.94" width="4.87" height="6.06"/><g class="cls-16"><path class="cls-17" d="M307.91,178c0,.59-1.09,1.08-2.44,1.08S303,178.6,303,178s1.09-1.08,2.44-1.08,2.44.48,2.44,1.08"/></g><polygon class="cls-17" points="312.18 163.84 310.32 163.84 310.31 168.19 312.19 168.19 312.18 163.84"/><g class="cls-16"><path class="cls-17" d="M310.32,165.2s-.09,3.45-.53,3.45-.91.13-1,.51,0,4.19,0,4.19l4.67.24"/><path class="cls-17" d="M309,173.59l4.68-.24s0-3.81,0-4.19-.53-.51-1-.51-.49-3.07-.49-3.07L310.53,168l.33,1.44"/></g><rect class="cls-17" x="308.8" y="171.94" width="4.87" height="6.06"/><g class="cls-16"><path class="cls-17" d="M313.67,178c0,.59-1.09,1.08-2.44,1.08s-2.44-.49-2.44-1.08,1.1-1.08,2.44-1.08,2.44.48,2.44,1.08"/></g><polygon class="cls-17" points="317.81 163.84 315.95 163.84 315.94 168.19 317.82 168.19 317.81 163.84"/><g class="cls-16"><path class="cls-17" d="M316,165.2s-.09,3.45-.53,3.45-.91.13-1,.51,0,4.19,0,4.19l4.68.24"/><path class="cls-17" d="M314.61,173.59l4.68-.24s0-3.81,0-4.19-.53-.51-1-.51-.5-3.07-.5-3.07L316.16,168l.34,1.44"/></g><rect class="cls-17" x="314.43" y="171.94" width="4.87" height="6.06"/><g class="cls-16"><path class="cls-17" d="M319.3,178c0,.59-1.09,1.08-2.44,1.08s-2.43-.49-2.43-1.08,1.09-1.08,2.43-1.08,2.44.48,2.44,1.08"/></g><polygon class="cls-17" points="323.57 163.84 321.71 163.84 321.7 168.19 323.58 168.19 323.57 163.84"/><g class="cls-16"><path class="cls-17" d="M321.71,165.2s-.09,3.45-.53,3.45-.91.13-1,.51,0,4.19,0,4.19l4.68.24"/><path class="cls-17" d="M320.37,173.59l4.68-.24s0-3.81,0-4.19-.53-.51-1-.51-.49-3.07-.49-3.07L321.92,168l.34,1.44"/></g><rect class="cls-17" x="320.19" y="171.94" width="4.87" height="6.06"/><g class="cls-16"><path class="cls-17" d="M325.06,178c0,.59-1.09,1.08-2.43,1.08s-2.44-.49-2.44-1.08,1.09-1.08,2.44-1.08,2.43.48,2.43,1.08"/></g><polygon class="cls-17" points="329.2 163.84 327.35 163.84 327.33 168.19 329.22 168.19 329.2 163.84"/><g class="cls-16"><path class="cls-17" d="M327.34,165.2s-.08,3.45-.52,3.45-.92.13-1,.51,0,4.19,0,4.19l4.68.24"/><path class="cls-17" d="M326,173.59l4.67-.24s0-3.81,0-4.19-.53-.51-1-.51-.49-3.07-.49-3.07L327.56,168l.33,1.44"/></g><rect class="cls-17" x="325.82" y="171.94" width="4.87" height="6.06"/><g class="cls-16"><path class="cls-17" d="M330.7,178c0,.59-1.09,1.08-2.44,1.08s-2.44-.49-2.44-1.08,1.09-1.08,2.44-1.08,2.44.48,2.44,1.08"/></g><polygon class="cls-17" points="334.96 163.84 333.11 163.84 333.1 168.19 334.98 168.19 334.96 163.84"/><g class="cls-16"><path class="cls-17" d="M333.1,165.2s-.08,3.45-.52,3.45-.92.13-1,.51,0,4.19,0,4.19l4.67.24"/><path class="cls-17" d="M331.77,173.59l4.67-.24s0-3.81,0-4.19-.53-.51-1-.51-.49-3.07-.49-3.07L333.32,168l.33,1.44"/></g><rect class="cls-17" x="331.59" y="171.94" width="4.87" height="6.06"/><g class="cls-16"><path class="cls-17" d="M336.46,178c0,.59-1.09,1.08-2.44,1.08s-2.44-.49-2.44-1.08,1.09-1.08,2.44-1.08,2.44.48,2.44,1.08"/></g><polygon class="cls-17" points="340.6 163.84 338.74 163.84 338.73 168.19 340.61 168.19 340.6 163.84"/><g class="cls-16"><path class="cls-17" d="M338.74,165.2s-.09,3.45-.53,3.45-.91.13-1,.51,0,4.19,0,4.19l4.67.24"/><path class="cls-17" d="M337.4,173.59l4.68-.24s0-3.81,0-4.19-.52-.51-1-.51-.5-3.07-.5-3.07L339,168l.33,1.44"/></g><rect class="cls-17" x="337.22" y="171.94" width="4.87" height="6.06"/><g class="cls-16"><path class="cls-17" d="M342.09,178c0,.59-1.09,1.08-2.44,1.08s-2.43-.49-2.43-1.08,1.09-1.08,2.43-1.08,2.44.48,2.44,1.08"/></g><polygon class="cls-17" points="346.36 163.84 344.5 163.84 344.49 168.19 346.37 168.19 346.36 163.84"/><g class="cls-16"><path class="cls-17" d="M344.5,165.2s-.09,3.45-.53,3.45-.91.13-1,.51,0,4.19,0,4.19l4.68.24"/><path class="cls-17" d="M343.16,173.59l4.68-.24s0-3.81,0-4.19-.52-.51-1-.51-.5-3.07-.5-3.07L344.71,168l.33,1.44"/></g><rect class="cls-17" x="342.98" y="171.94" width="4.87" height="6.06"/><g class="cls-16"><path class="cls-17" d="M347.85,178c0,.59-1.09,1.08-2.44,1.08S343,178.6,343,178s1.09-1.08,2.43-1.08,2.44.48,2.44,1.08"/></g><polygon class="cls-17" points="351.99 163.84 350.14 163.84 350.12 168.19 352 168.19 351.99 163.84"/><g class="cls-16"><path class="cls-17" d="M350.13,165.2s-.09,3.45-.53,3.45-.91.13-1,.51,0,4.19,0,4.19l4.68.24"/><path class="cls-17" d="M348.8,173.59l4.67-.24s0-3.81,0-4.19-.53-.51-1-.51-.49-3.07-.49-3.07L350.34,168l.34,1.44"/></g><rect class="cls-17" x="348.61" y="171.94" width="4.87" height="6.06"/><g class="cls-16"><path class="cls-17" d="M353.48,178c0,.59-1.09,1.08-2.43,1.08s-2.44-.49-2.44-1.08,1.09-1.08,2.44-1.08,2.43.48,2.43,1.08"/></g><polygon class="cls-17" points="357.75 163.84 355.9 163.84 355.88 168.19 357.77 168.19 357.75 163.84"/><g class="cls-16"><path class="cls-17" d="M355.89,165.2s-.08,3.45-.52,3.45-.92.13-1,.51,0,4.19,0,4.19l4.68.24"/><path class="cls-17" d="M354.56,173.59l4.67-.24s0-3.81,0-4.19-.53-.51-1-.51-.49-3.07-.49-3.07L356.1,168l.34,1.44"/></g><rect class="cls-17" x="354.37" y="171.94" width="4.87" height="6.06"/><g class="cls-16"><path class="cls-17" d="M359.25,178c0,.59-1.1,1.08-2.44,1.08s-2.44-.49-2.44-1.08,1.09-1.08,2.44-1.08,2.44.48,2.44,1.08"/></g><polygon class="cls-17" points="363.38 163.84 361.53 163.84 361.51 168.19 363.4 168.19 363.38 163.84"/><g class="cls-16"><path class="cls-17" d="M361.53,165.2s-.09,3.45-.53,3.45-.92.13-1,.51,0,4.19,0,4.19l4.67.24"/><path class="cls-17" d="M360.19,173.59l4.67-.24s0-3.81,0-4.19-.53-.51-1-.51-.49-3.07-.49-3.07L361.74,168l.33,1.44"/></g><rect class="cls-17" x="360.01" y="171.94" width="4.87" height="6.06"/><g class="cls-16"><path class="cls-17" d="M364.88,178c0,.59-1.09,1.08-2.44,1.08S360,178.6,360,178s1.1-1.08,2.44-1.08,2.44.48,2.44,1.08"/></g><polygon class="cls-17" points="369.15 163.84 367.29 163.84 367.28 168.19 369.16 168.19 369.15 163.84"/><g class="cls-16"><path class="cls-17" d="M367.29,165.2s-.09,3.45-.53,3.45-.91.13-1,.51,0,4.19,0,4.19l4.67.24"/><path class="cls-17" d="M366,173.59l4.68-.24s0-3.81,0-4.19-.53-.51-1-.51-.49-3.07-.49-3.07L367.5,168l.33,1.44"/></g><rect class="cls-17" x="365.77" y="171.94" width="4.87" height="6.06"/><g class="cls-16"><path class="cls-17" d="M370.64,178c0,.59-1.09,1.08-2.44,1.08s-2.43-.49-2.43-1.08,1.09-1.08,2.43-1.08,2.44.48,2.44,1.08"/></g><polygon class="cls-17" points="374.78 163.84 372.92 163.84 372.91 168.19 374.79 168.19 374.78 163.84"/><g class="cls-16"><path class="cls-17" d="M372.92,165.2s-.09,3.45-.53,3.45-.91.13-1,.51,0,4.19,0,4.19l4.68.24"/><path class="cls-17" d="M371.58,173.59l4.68-.24s0-3.81,0-4.19-.53-.51-1-.51-.5-3.07-.5-3.07L373.13,168l.34,1.44"/></g><rect class="cls-17" x="371.4" y="171.94" width="4.87" height="6.06"/><g class="cls-16"><path class="cls-17" d="M376.27,178c0,.59-1.09,1.08-2.43,1.08s-2.44-.49-2.44-1.08,1.09-1.08,2.44-1.08,2.43.48,2.43,1.08"/></g><polygon class="cls-17" points="380.54 163.84 378.69 163.84 378.67 168.19 380.55 168.19 380.54 163.84"/><g class="cls-16"><path class="cls-17" d="M378.68,165.2s-.09,3.45-.53,3.45-.91.13-1,.51,0,4.19,0,4.19l4.68.24"/><path class="cls-17" d="M377.34,173.59l4.68-.24s0-3.81,0-4.19-.53-.51-1-.51-.49-3.07-.49-3.07L378.89,168l.34,1.44"/></g><rect class="cls-17" x="377.16" y="171.94" width="4.87" height="6.06"/><g class="cls-16"><path class="cls-17" d="M382,178c0,.59-1.09,1.08-2.43,1.08s-2.44-.49-2.44-1.08,1.09-1.08,2.44-1.08,2.43.48,2.43,1.08"/></g><polygon class="cls-17" points="386.17 163.84 384.32 163.84 384.3 168.19 386.19 168.19 386.17 163.84"/><g class="cls-16"><path class="cls-17" d="M384.31,165.2s-.08,3.45-.52,3.45-.92.13-1,.51,0,4.19,0,4.19l4.68.24"/><path class="cls-17" d="M383,173.59l4.67-.24s0-3.81,0-4.19-.53-.51-1-.51-.49-3.07-.49-3.07L384.53,168l.33,1.44"/></g><rect class="cls-17" x="382.79" y="171.94" width="4.87" height="6.06"/><g class="cls-16"><path class="cls-17" d="M387.67,178c0,.59-1.09,1.08-2.44,1.08s-2.44-.49-2.44-1.08,1.09-1.08,2.44-1.08,2.44.48,2.44,1.08"/><path class="cls-15" d="M303.49,194.26h-1.87a2.56,2.56,0,0,1-2.56-2.56v-4.87a2.56,2.56,0,0,1,2.56-2.56h1.87a2.56,2.56,0,0,1,2.56,2.56v4.87a2.56,2.56,0,0,1-2.56,2.56"/></g><rect class="cls-15" x="300.82" y="183.14" width="3.51" height="1.29"/><g class="cls-16"><path class="cls-15" d="M311.57,194.26H309.7a2.56,2.56,0,0,1-2.56-2.56v-4.87a2.56,2.56,0,0,1,2.56-2.56h1.87a2.56,2.56,0,0,1,2.56,2.56v4.87a2.56,2.56,0,0,1-2.56,2.56"/></g><rect class="cls-15" x="308.9" y="183.14" width="3.51" height="1.29"/><g class="cls-16"><path class="cls-15" d="M319.57,194.26H317.7a2.56,2.56,0,0,1-2.56-2.56v-4.87a2.56,2.56,0,0,1,2.56-2.56h1.87a2.56,2.56,0,0,1,2.55,2.56v4.87a2.56,2.56,0,0,1-2.55,2.56"/></g><rect class="cls-15" x="316.9" y="183.14" width="3.51" height="1.29"/><g class="cls-16"><path class="cls-15" d="M327.65,194.26h-1.87a2.56,2.56,0,0,1-2.56-2.56v-4.87a2.56,2.56,0,0,1,2.56-2.56h1.87a2.56,2.56,0,0,1,2.56,2.56v4.87a2.56,2.56,0,0,1-2.56,2.56"/></g><rect class="cls-15" x="324.98" y="183.14" width="3.51" height="1.29"/><g class="cls-16"><path class="cls-15" d="M335.83,194.26H334a2.56,2.56,0,0,1-2.56-2.56v-4.87a2.56,2.56,0,0,1,2.56-2.56h1.87a2.56,2.56,0,0,1,2.56,2.56v4.87a2.56,2.56,0,0,1-2.56,2.56"/></g><rect class="cls-15" x="333.16" y="183.14" width="3.51" height="1.29"/><g class="cls-16"><path class="cls-15" d="M343.91,194.26H342a2.56,2.56,0,0,1-2.56-2.56v-4.87a2.56,2.56,0,0,1,2.56-2.56h1.87a2.56,2.56,0,0,1,2.56,2.56v4.87a2.56,2.56,0,0,1-2.56,2.56"/></g><rect class="cls-15" x="341.25" y="183.14" width="3.51" height="1.29"/><g class="cls-16"><path class="cls-15" d="M351.91,194.26H350a2.56,2.56,0,0,1-2.56-2.56v-4.87a2.56,2.56,0,0,1,2.56-2.56h1.87a2.56,2.56,0,0,1,2.56,2.56v4.87a2.56,2.56,0,0,1-2.56,2.56"/></g><rect class="cls-15" x="349.24" y="183.14" width="3.51" height="1.29"/><g class="cls-16"><path class="cls-15" d="M360,194.26h-1.87a2.56,2.56,0,0,1-2.56-2.56v-4.87a2.56,2.56,0,0,1,2.56-2.56H360a2.56,2.56,0,0,1,2.56,2.56v4.87a2.56,2.56,0,0,1-2.56,2.56"/></g><rect class="cls-15" x="357.33" y="183.14" width="3.51" height="1.29"/><g class="cls-16"><path class="cls-15" d="M368.29,194.26h-1.87a2.56,2.56,0,0,1-2.56-2.56v-4.87a2.56,2.56,0,0,1,2.56-2.56h1.87a2.56,2.56,0,0,1,2.56,2.56v4.87a2.56,2.56,0,0,1-2.56,2.56"/></g><rect class="cls-15" x="365.63" y="183.14" width="3.51" height="1.29"/><g class="cls-16"><path class="cls-15" d="M376.29,194.26h-1.87a2.56,2.56,0,0,1-2.56-2.56v-4.87a2.56,2.56,0,0,1,2.56-2.56h1.87a2.56,2.56,0,0,1,2.56,2.56v4.87a2.56,2.56,0,0,1-2.56,2.56"/></g><rect class="cls-15" x="373.62" y="183.14" width="3.51" height="1.29"/><g class="cls-16"><path class="cls-15" d="M384.37,194.26H382.5a2.56,2.56,0,0,1-2.56-2.56v-4.87a2.56,2.56,0,0,1,2.56-2.56h1.87a2.56,2.56,0,0,1,2.56,2.56v4.87a2.56,2.56,0,0,1-2.56,2.56"/></g><rect class="cls-15" x="381.71" y="183.14" width="3.51" height="1.29"/><g class="cls-16"><path class="cls-15" d="M299.93,210.31h0a2.44,2.44,0,0,0-2.44,2.44v8.05h4.88v-8.05a2.44,2.44,0,0,0-2.44-2.44"/></g><rect class="cls-15" x="299.05" y="208.55" width="1.76" height="1.76"/><g class="cls-16"><path class="cls-15" d="M305.67,210.31h0a2.44,2.44,0,0,0-2.44,2.44v8.05h4.88v-8.05a2.44,2.44,0,0,0-2.44-2.44"/></g><rect class="cls-15" x="304.79" y="208.55" width="1.76" height="1.76"/><g class="cls-16"><path class="cls-15" d="M311.17,210.31h0a2.44,2.44,0,0,0-2.44,2.44v8.05h4.87v-8.05a2.43,2.43,0,0,0-2.43-2.44"/></g><rect class="cls-15" x="310.28" y="208.55" width="1.76" height="1.76"/><g class="cls-16"><path class="cls-15" d="M316.9,210.31h0a2.43,2.43,0,0,0-2.43,2.44v8.05h4.87v-8.05a2.44,2.44,0,0,0-2.44-2.44"/></g><rect class="cls-15" x="316.02" y="208.55" width="1.76" height="1.76"/><g class="cls-16"><path class="cls-15" d="M323,210.31h0a2.44,2.44,0,0,0-2.44,2.44v8.05h4.88v-8.05a2.44,2.44,0,0,0-2.44-2.44"/></g><rect class="cls-15" x="322.07" y="208.55" width="1.76" height="1.76"/><g class="cls-16"><path class="cls-15" d="M328.69,210.31h0a2.44,2.44,0,0,0-2.44,2.44v8.05h4.88v-8.05a2.44,2.44,0,0,0-2.44-2.44"/></g><rect class="cls-15" x="327.81" y="208.55" width="1.76" height="1.76"/><g class="cls-16"><path class="cls-15" d="M334.19,210.31h0a2.44,2.44,0,0,0-2.44,2.44v8.05h4.88v-8.05a2.44,2.44,0,0,0-2.44-2.44"/></g><rect class="cls-15" x="333.31" y="208.55" width="1.76" height="1.76"/><g class="cls-16"><path class="cls-15" d="M339.93,210.31h0a2.44,2.44,0,0,0-2.44,2.44v8.05h4.88v-8.05a2.44,2.44,0,0,0-2.44-2.44"/></g><rect class="cls-15" x="339.04" y="208.55" width="1.76" height="1.76"/><g class="cls-16"><path class="cls-15" d="M346,210.31h0a2.44,2.44,0,0,0-2.44,2.44v8.05h4.88v-8.05a2.44,2.44,0,0,0-2.44-2.44"/></g><rect class="cls-15" x="345.07" y="208.55" width="1.76" height="1.76"/><g class="cls-16"><path class="cls-15" d="M351.69,210.31h0a2.44,2.44,0,0,0-2.44,2.44v8.05h4.88v-8.05a2.44,2.44,0,0,0-2.44-2.44"/></g><rect class="cls-15" x="350.81" y="208.55" width="1.76" height="1.76"/><g class="cls-16"><path class="cls-15" d="M357.19,210.31h0a2.44,2.44,0,0,0-2.44,2.44v8.05h4.88v-8.05a2.44,2.44,0,0,0-2.44-2.44"/></g><rect class="cls-15" x="356.3" y="208.55" width="1.76" height="1.76"/><g class="cls-16"><path class="cls-15" d="M362.93,210.31h0a2.44,2.44,0,0,0-2.44,2.44v8.05h4.88v-8.05a2.44,2.44,0,0,0-2.44-2.44"/></g><rect class="cls-15" x="362.04" y="208.55" width="1.76" height="1.76"/><g class="cls-16"><path class="cls-15" d="M369,210.31h0a2.43,2.43,0,0,0-2.43,2.44v8.05h4.87v-8.05a2.44,2.44,0,0,0-2.44-2.44"/></g><rect class="cls-15" x="368.09" y="208.55" width="1.76" height="1.76"/><g class="cls-16"><path class="cls-15" d="M374.71,210.31h0a2.44,2.44,0,0,0-2.44,2.44v8.05h4.88v-8.05a2.44,2.44,0,0,0-2.44-2.44"/></g><rect class="cls-15" x="373.83" y="208.55" width="1.76" height="1.76"/><g class="cls-16"><path class="cls-15" d="M380.21,210.31h0a2.44,2.44,0,0,0-2.44,2.44v8.05h4.88v-8.05a2.44,2.44,0,0,0-2.44-2.44"/></g><rect class="cls-15" x="379.33" y="208.55" width="1.76" height="1.76"/><g class="cls-16"><path class="cls-15" d="M386,210.31h0a2.44,2.44,0,0,0-2.44,2.44v8.05h4.88v-8.05a2.44,2.44,0,0,0-2.44-2.44"/></g><rect class="cls-15" x="385.07" y="208.55" width="1.76" height="1.76"/><g class="cls-16"><path class="cls-17" d="M300,198.69h0a2.44,2.44,0,0,0-2.44,2.44v8.05h4.88v-8.05a2.44,2.44,0,0,0-2.44-2.44"/></g><rect class="cls-17" x="299.08" y="196.93" width="1.76" height="1.76"/><g class="cls-16"><path class="cls-17" d="M305.71,198.69h0a2.44,2.44,0,0,0-2.44,2.44v8.05h4.88v-8.05a2.44,2.44,0,0,0-2.44-2.44"/></g><rect class="cls-17" x="304.82" y="196.93" width="1.76" height="1.76"/><g class="cls-16"><path class="cls-17" d="M311.2,198.69h0a2.44,2.44,0,0,0-2.44,2.44v8.05h4.88v-8.05a2.44,2.44,0,0,0-2.44-2.44"/></g><rect class="cls-17" x="310.32" y="196.93" width="1.76" height="1.76"/><g class="cls-16"><path class="cls-17" d="M316.94,198.69h0a2.44,2.44,0,0,0-2.44,2.44v8.05h4.88v-8.05a2.44,2.44,0,0,0-2.44-2.44"/></g><rect class="cls-17" x="316.06" y="196.93" width="1.76" height="1.76"/><g class="cls-16"><path class="cls-17" d="M323,198.69h0a2.44,2.44,0,0,0-2.44,2.44v8.05h4.88v-8.05a2.44,2.44,0,0,0-2.44-2.44"/></g><rect class="cls-17" x="322.11" y="196.93" width="1.76" height="1.76"/><g class="cls-16"><path class="cls-17" d="M328.73,198.69h0a2.44,2.44,0,0,0-2.44,2.44v8.05h4.88v-8.05a2.44,2.44,0,0,0-2.44-2.44"/></g><rect class="cls-17" x="327.85" y="196.93" width="1.76" height="1.76"/><g class="cls-16"><path class="cls-17" d="M334.22,198.69h0a2.43,2.43,0,0,0-2.43,2.44v8.05h4.87v-8.05a2.44,2.44,0,0,0-2.44-2.44"/></g><rect class="cls-17" x="333.34" y="196.93" width="1.76" height="1.76"/><g class="cls-16"><path class="cls-17" d="M340,198.69h0a2.44,2.44,0,0,0-2.44,2.44v8.05h4.88v-8.05a2.44,2.44,0,0,0-2.44-2.44"/></g><rect class="cls-17" x="339.08" y="196.93" width="1.76" height="1.76"/><g class="cls-16"><path class="cls-17" d="M346,198.69h0a2.44,2.44,0,0,0-2.44,2.44v8.05h4.88v-8.05a2.44,2.44,0,0,0-2.44-2.44"/></g><rect class="cls-17" x="345.11" y="196.93" width="1.76" height="1.76"/><g class="cls-16"><path class="cls-17" d="M351.73,198.69h0a2.44,2.44,0,0,0-2.44,2.44v8.05h4.88v-8.05a2.44,2.44,0,0,0-2.44-2.44"/></g><rect class="cls-17" x="350.85" y="196.93" width="1.76" height="1.76"/><g class="cls-16"><path class="cls-17" d="M357.22,198.69h0a2.43,2.43,0,0,0-2.43,2.44v8.05h4.87v-8.05a2.44,2.44,0,0,0-2.44-2.44"/></g><rect class="cls-17" x="356.34" y="196.93" width="1.76" height="1.76"/><g class="cls-16"><path class="cls-17" d="M363,198.69h0a2.44,2.44,0,0,0-2.44,2.44v8.05h4.88v-8.05a2.44,2.44,0,0,0-2.44-2.44"/></g><rect class="cls-17" x="362.08" y="196.93" width="1.76" height="1.76"/><g class="cls-16"><path class="cls-17" d="M369,198.69h0a2.44,2.44,0,0,0-2.44,2.44v8.05h4.88v-8.05a2.44,2.44,0,0,0-2.44-2.44"/></g><rect class="cls-17" x="368.13" y="196.93" width="1.76" height="1.76"/><g class="cls-16"><path class="cls-17" d="M374.75,198.69h0a2.44,2.44,0,0,0-2.44,2.44v8.05h4.88v-8.05a2.44,2.44,0,0,0-2.44-2.44"/></g><rect class="cls-17" x="373.87" y="196.93" width="1.76" height="1.76"/><g class="cls-16"><path class="cls-17" d="M380.25,198.69h0a2.44,2.44,0,0,0-2.44,2.44v8.05h4.88v-8.05a2.44,2.44,0,0,0-2.44-2.44"/></g><rect class="cls-17" x="379.36" y="196.93" width="1.76" height="1.76"/><g class="cls-16"><path class="cls-17" d="M386,198.69h0a2.44,2.44,0,0,0-2.44,2.44v8.05h4.87v-8.05a2.43,2.43,0,0,0-2.43-2.44"/></g><rect class="cls-17" x="385.1" y="196.93" width="1.76" height="1.76"/><rect class="cls-15" x="452.06" y="169.71" width="93.67" height="1.44"/><rect class="cls-15" x="452.06" y="183.13" width="93.67" height="1.44"/><rect class="cls-15" x="452.06" y="196.55" width="93.67" height="1.44"/><rect class="cls-15" x="452.06" y="209.96" width="93.67" height="1.44"/><polygon class="cls-17" points="546.33 219.54 546.33 218.92 452.49 218.92 452.49 159.07 545.7 159.07 545.7 219.54 546.33 219.54 546.33 218.92 546.33 219.54 546.95 219.54 546.95 157.84 451.24 157.84 451.24 220.15 546.95 220.15 546.95 219.54 546.33 219.54"/><rect class="cls-15" x="450.55" y="152.6" width="97.09" height="5.12"/><rect class="cls-17" x="450.55" y="220.54" width="97.09" height="8.83"/><polygon class="cls-17" points="459.91 171.14 458.34 171.14 458.33 174.79 459.92 174.79 459.91 171.14"/><g class="cls-16"><path class="cls-17" d="M458.33,172.29s-.07,2.88-.44,2.88-.77.11-.82.43,0,3.5,0,3.5l3.95.2Z"/><path class="cls-17" d="M457.21,179.3l4-.2s0-3.18,0-3.5-.45-.43-.82-.43-.42-2.57-.42-2.57l-1.4,2.05.29,1.21Z"/></g><rect class="cls-17" x="457.05" y="177.93" width="4.12" height="5.07"/><g class="cls-16"><path class="cls-17" d="M461.17,183c0,.5-.92.9-2.06.9s-2.06-.4-2.06-.9.92-.9,2.06-.9,2.06.4,2.06.9"/></g><polygon class="cls-17" points="464.67 171.14 463.1 171.14 463.09 174.79 464.68 174.79 464.67 171.14"/><g class="cls-16"><path class="cls-17" d="M463.1,172.29s-.08,2.88-.45,2.88-.77.11-.82.43,0,3.5,0,3.5l3.95.2Z"/><path class="cls-17" d="M462,179.3l3.95-.2s0-3.18,0-3.5-.45-.43-.82-.43-.42-2.57-.42-2.57l-1.39,2.05.28,1.21Z"/></g><rect class="cls-17" x="461.81" y="177.93" width="4.12" height="5.07"/><g class="cls-16"><path class="cls-17" d="M465.93,183c0,.5-.92.9-2.06.9s-2.06-.4-2.06-.9.92-.9,2.06-.9,2.06.4,2.06.9"/></g><polygon class="cls-17" points="469.54 171.14 467.97 171.14 467.96 174.79 469.55 174.79 469.54 171.14"/><g class="cls-16"><path class="cls-17" d="M468,172.29s-.08,2.88-.45,2.88-.77.11-.82.43,0,3.5,0,3.5l3.95.2Z"/><path class="cls-17" d="M466.84,179.3l4-.2s0-3.18,0-3.5-.45-.43-.82-.43-.42-2.57-.42-2.57l-1.39,2.05.28,1.21Z"/></g><rect class="cls-17" x="466.68" y="177.93" width="4.12" height="5.07"/><g class="cls-16"><path class="cls-17" d="M470.8,183c0,.5-.92.9-2.06.9s-2.06-.4-2.06-.9.92-.9,2.06-.9,2.06.4,2.06.9"/></g><polygon class="cls-17" points="483.67 171.14 482.1 171.14 482.09 174.79 483.68 174.79 483.67 171.14"/><g class="cls-16"><path class="cls-17" d="M482.1,172.29s-.07,2.88-.45,2.88-.77.11-.81.43,0,3.5,0,3.5l4,.2Z"/><path class="cls-17" d="M481,179.3l3.95-.2s0-3.18,0-3.5-.45-.43-.82-.43-.41-2.57-.41-2.57l-1.4,2.05.28,1.21Z"/></g><rect class="cls-17" x="480.82" y="177.93" width="4.12" height="5.07"/><g class="cls-16"><path class="cls-17" d="M484.94,183c0,.5-.93.9-2.07.9s-2.06-.4-2.06-.9.93-.9,2.06-.9,2.07.4,2.07.9"/></g><polygon class="cls-17" points="488.43 171.14 486.87 171.14 486.85 174.79 488.45 174.79 488.43 171.14"/><g class="cls-16"><path class="cls-17" d="M486.86,172.29s-.07,2.88-.44,2.88-.78.11-.82.43,0,3.5,0,3.5l4,.2Z"/><path class="cls-17" d="M485.73,179.3l3.95-.2s0-3.18,0-3.5-.44-.43-.82-.43-.41-2.57-.41-2.57l-1.4,2.05.28,1.21Z"/></g><rect class="cls-17" x="485.58" y="177.93" width="4.12" height="5.07"/><g class="cls-16"><path class="cls-17" d="M489.7,183c0,.5-.93.9-2.07.9s-2.06-.4-2.06-.9.93-.9,2.06-.9,2.07.4,2.07.9"/></g><polygon class="cls-17" points="493.3 171.14 491.74 171.14 491.72 174.79 493.31 174.79 493.3 171.14"/><g class="cls-16"><path class="cls-17" d="M491.73,172.29s-.07,2.88-.44,2.88-.78.11-.82.43,0,3.5,0,3.5l4,.2Z"/><path class="cls-17" d="M490.6,179.3l3.95-.2s0-3.18,0-3.5-.44-.43-.81-.43-.42-2.57-.42-2.57l-1.4,2.05.28,1.21Z"/></g><rect class="cls-17" x="490.45" y="177.93" width="4.12" height="5.07"/><g class="cls-16"><path class="cls-17" d="M494.57,183c0,.5-.93.9-2.07.9s-2.06-.4-2.06-.9.93-.9,2.06-.9,2.07.4,2.07.9"/></g><polygon class="cls-17" points="507.77 171.14 506.2 171.14 506.19 174.79 507.78 174.79 507.77 171.14"/><g class="cls-16"><path class="cls-17" d="M506.2,172.29s-.07,2.88-.45,2.88-.77.11-.81.43,0,3.5,0,3.5l4,.2Z"/><path class="cls-17" d="M505.07,179.3l3.95-.2s0-3.18,0-3.5-.45-.43-.82-.43-.41-2.57-.41-2.57l-1.4,2.05.28,1.21Z"/></g><rect class="cls-17" x="504.92" y="177.93" width="4.12" height="5.07"/><g class="cls-16"><path class="cls-17" d="M509,183c0,.5-.92.9-2.06.9s-2.06-.4-2.06-.9.93-.9,2.06-.9,2.06.4,2.06.9"/></g><polygon class="cls-17" points="512.53 171.14 510.97 171.14 510.95 174.79 512.54 174.79 512.53 171.14"/><g class="cls-16"><path class="cls-17" d="M511,172.29s-.07,2.88-.44,2.88-.78.11-.82.43,0,3.5,0,3.5l3.95.2Z"/><path class="cls-17" d="M509.83,179.3l3.95-.2s0-3.18,0-3.5-.44-.43-.81-.43-.42-2.57-.42-2.57l-1.4,2.05.28,1.21Z"/></g><rect class="cls-17" x="509.68" y="177.93" width="4.12" height="5.07"/><g class="cls-16"><path class="cls-17" d="M513.8,183c0,.5-.93.9-2.06.9s-2.07-.4-2.07-.9.93-.9,2.07-.9,2.06.4,2.06.9"/></g><polygon class="cls-17" points="517.4 171.14 515.83 171.14 515.82 174.79 517.42 174.79 517.4 171.14"/><g class="cls-16"><path class="cls-17" d="M515.83,172.29s-.07,2.88-.44,2.88-.78.11-.82.43,0,3.5,0,3.5l4,.2Z"/><path class="cls-17" d="M514.7,179.3l4-.2s0-3.18,0-3.5-.44-.43-.81-.43-.42-2.57-.42-2.57l-1.4,2.05.28,1.21Z"/></g><rect class="cls-17" x="514.55" y="177.93" width="4.12" height="5.07"/><g class="cls-16"><path class="cls-17" d="M518.67,183c0,.5-.93.9-2.06.9s-2.07-.4-2.07-.9.93-.9,2.07-.9,2.06.4,2.06.9"/></g><polygon class="cls-17" points="531.54 171.14 529.97 171.14 529.96 174.79 531.55 174.79 531.54 171.14"/><g class="cls-16"><path class="cls-17" d="M530,172.29s-.07,2.88-.44,2.88-.78.11-.82.43,0,3.5,0,3.5l3.95.2Z"/><path class="cls-17" d="M528.84,179.3l3.95-.2s0-3.18,0-3.5-.45-.43-.82-.43-.42-2.57-.42-2.57l-1.4,2.05.29,1.21Z"/></g><rect class="cls-17" x="528.68" y="177.93" width="4.12" height="5.07"/><g class="cls-16"><path class="cls-17" d="M532.8,183c0,.5-.92.9-2.06.9s-2.06-.4-2.06-.9.92-.9,2.06-.9,2.06.4,2.06.9"/></g><polygon class="cls-17" points="536.3 171.14 534.73 171.14 534.72 174.79 536.31 174.79 536.3 171.14"/><g class="cls-16"><path class="cls-17" d="M534.73,172.29s-.08,2.88-.45,2.88-.77.11-.82.43,0,3.5,0,3.5l3.95.2Z"/><path class="cls-17" d="M533.6,179.3l3.95-.2s0-3.18,0-3.5-.45-.43-.82-.43-.42-2.57-.42-2.57l-1.39,2.05.28,1.21Z"/></g><rect class="cls-17" x="533.44" y="177.93" width="4.12" height="5.07"/><g class="cls-16"><path class="cls-17" d="M537.56,183c0,.5-.92.9-2.06.9s-2.06-.4-2.06-.9.92-.9,2.06-.9,2.06.4,2.06.9"/></g><polygon class="cls-17" points="541.17 171.14 539.6 171.14 539.59 174.79 541.18 174.79 541.17 171.14"/><g class="cls-16"><path class="cls-17" d="M539.6,172.29s-.08,2.88-.45,2.88-.77.11-.82.43,0,3.5,0,3.5l3.95.2Z"/><path class="cls-17" d="M538.47,179.3l3.95-.2s0-3.18,0-3.5-.45-.43-.82-.43-.42-2.57-.42-2.57l-1.39,2.05.28,1.21Z"/></g><rect class="cls-17" x="538.31" y="177.93" width="4.12" height="5.07"/><g class="cls-16"><path class="cls-17" d="M542.43,183c0,.5-.92.9-2.06.9s-2.06-.4-2.06-.9.92-.9,2.06-.9,2.06.4,2.06.9"/></g><polygon class="cls-17" points="459.39 198.62 457.82 198.62 457.81 202.26 459.4 202.26 459.39 198.62"/><g class="cls-16"><path class="cls-17" d="M457.82,199.76s-.07,2.88-.44,2.88-.78.11-.82.43,0,3.5,0,3.5l3.95.2Z"/><path class="cls-17" d="M456.69,206.77l3.95-.2s0-3.18,0-3.5-.44-.43-.82-.43-.41-2.57-.41-2.57l-1.4,2.05.28,1.21Z"/></g><rect class="cls-17" x="456.54" y="205.4" width="4.12" height="5.07"/><g class="cls-16"><path class="cls-17" d="M460.66,210.47c0,.5-.93.9-2.06.9s-2.07-.4-2.07-.9.93-.9,2.07-.9,2.06.4,2.06.9"/></g><polygon class="cls-17" points="464.15 198.62 462.59 198.62 462.57 202.26 464.17 202.26 464.15 198.62"/><g class="cls-16"><path class="cls-17" d="M462.58,199.76s-.07,2.88-.44,2.88-.78.11-.82.43,0,3.5,0,3.5l3.95.2Z"/><path class="cls-17" d="M461.45,206.77l4-.2s0-3.18,0-3.5-.44-.43-.81-.43-.42-2.57-.42-2.57l-1.4,2.05.29,1.21Z"/></g><rect class="cls-17" x="461.3" y="205.4" width="4.12" height="5.07"/><g class="cls-16"><path class="cls-17" d="M465.42,210.47c0,.5-.92.9-2.06.9s-2.06-.4-2.06-.9.92-.9,2.06-.9,2.06.4,2.06.9"/></g><polygon class="cls-17" points="469.02 198.62 467.46 198.62 467.44 202.26 469.04 202.26 469.02 198.62"/><g class="cls-16"><path class="cls-17" d="M467.45,199.76s-.07,2.88-.44,2.88-.77.11-.82.43,0,3.5,0,3.5l3.95.2Z"/><path class="cls-17" d="M466.32,206.77l4-.2s0-3.18,0-3.5-.44-.43-.81-.43-.42-2.57-.42-2.57l-1.4,2.05.28,1.21Z"/></g><rect class="cls-17" x="466.17" y="205.4" width="4.12" height="5.07"/><g class="cls-16"><path class="cls-17" d="M470.29,210.47c0,.5-.92.9-2.06.9s-2.06-.4-2.06-.9.92-.9,2.06-.9,2.06.4,2.06.9"/></g><polygon class="cls-17" points="483.16 198.62 481.59 198.62 481.58 202.26 483.17 202.26 483.16 198.62"/><g class="cls-16"><path class="cls-17" d="M481.59,199.76s-.08,2.88-.45,2.88-.77.11-.82.43,0,3.5,0,3.5l3.95.2Z"/><path class="cls-17" d="M480.46,206.77l4-.2s0-3.18,0-3.5-.45-.43-.82-.43-.42-2.57-.42-2.57l-1.39,2.05.28,1.21Z"/></g><rect class="cls-17" x="480.3" y="205.4" width="4.12" height="5.07"/><g class="cls-16"><path class="cls-17" d="M484.42,210.47c0,.5-.92.9-2.06.9s-2.06-.4-2.06-.9.92-.9,2.06-.9,2.06.4,2.06.9"/></g><polygon class="cls-17" points="487.92 198.62 486.35 198.62 486.34 202.26 487.93 202.26 487.92 198.62"/><g class="cls-16"><path class="cls-17" d="M486.35,199.76s-.08,2.88-.45,2.88-.77.11-.82.43,0,3.5,0,3.5l4,.2Z"/><path class="cls-17" d="M485.22,206.77l3.95-.2s0-3.18,0-3.5-.45-.43-.82-.43-.41-2.57-.41-2.57l-1.4,2.05.28,1.21Z"/></g><rect class="cls-17" x="485.07" y="205.4" width="4.12" height="5.07"/><g class="cls-16"><path class="cls-17" d="M489.18,210.47c0,.5-.92.9-2.06.9s-2.06-.4-2.06-.9.92-.9,2.06-.9,2.06.4,2.06.9"/></g><polygon class="cls-17" points="492.79 198.62 491.22 198.62 491.21 202.26 492.8 202.26 492.79 198.62"/><g class="cls-16"><path class="cls-17" d="M491.22,199.76s-.08,2.88-.45,2.88-.77.11-.82.43,0,3.5,0,3.5l3.95.2Z"/><path class="cls-17" d="M490.09,206.77l4-.2s0-3.18,0-3.5-.45-.43-.82-.43-.42-2.57-.42-2.57l-1.39,2.05.28,1.21Z"/></g><rect class="cls-17" x="489.93" y="205.4" width="4.12" height="5.07"/><g class="cls-16"><path class="cls-17" d="M494.05,210.47c0,.5-.92.9-2.06.9s-2.06-.4-2.06-.9.92-.9,2.06-.9,2.06.4,2.06.9"/></g><polygon class="cls-17" points="507.98 198.62 506.42 198.62 506.4 202.26 508 202.26 507.98 198.62"/><g class="cls-16"><path class="cls-17" d="M506.41,199.76s-.07,2.88-.44,2.88-.78.11-.82.43,0,3.5,0,3.5l3.95.2Z"/><path class="cls-17" d="M505.28,206.77l4-.2s0-3.18,0-3.5-.44-.43-.81-.43-.42-2.57-.42-2.57l-1.4,2.05.28,1.21Z"/></g><rect class="cls-17" x="505.13" y="205.4" width="4.12" height="5.07"/><g class="cls-16"><path class="cls-17" d="M509.25,210.47c0,.5-.93.9-2.07.9s-2.06-.4-2.06-.9.93-.9,2.06-.9,2.07.4,2.07.9"/></g><polygon class="cls-17" points="512.75 198.62 511.18 198.62 511.17 202.26 512.76 202.26 512.75 198.62"/><g class="cls-16"><path class="cls-17" d="M511.17,199.76s-.07,2.88-.44,2.88-.78.11-.82.43,0,3.5,0,3.5l4,.2Z"/><path class="cls-17" d="M510,206.77l4-.2s0-3.18,0-3.5-.44-.43-.81-.43-.42-2.57-.42-2.57l-1.4,2.05.28,1.21Z"/></g><rect class="cls-17" x="509.89" y="205.4" width="4.12" height="5.07"/><g class="cls-16"><path class="cls-17" d="M514,210.47c0,.5-.92.9-2.06.9s-2.06-.4-2.06-.9.92-.9,2.06-.9,2.06.4,2.06.9"/></g><polygon class="cls-17" points="517.62 198.62 516.05 198.62 516.03 202.26 517.63 202.26 517.62 198.62"/><g class="cls-16"><path class="cls-17" d="M516,199.76s-.07,2.88-.44,2.88-.78.11-.82.43,0,3.5,0,3.5l4,.2Z"/><path class="cls-17" d="M514.91,206.77l4-.2s0-3.18,0-3.5-.45-.43-.82-.43-.42-2.57-.42-2.57l-1.4,2.05.29,1.21Z"/></g><rect class="cls-17" x="514.76" y="205.4" width="4.12" height="5.07"/><g class="cls-16"><path class="cls-17" d="M518.88,210.47c0,.5-.92.9-2.06.9s-2.06-.4-2.06-.9.92-.9,2.06-.9,2.06.4,2.06.9"/></g><polygon class="cls-17" points="531.75 198.62 530.18 198.62 530.17 202.26 531.76 202.26 531.75 198.62"/><g class="cls-16"><path class="cls-17" d="M530.18,199.76s-.08,2.88-.45,2.88-.77.11-.82.43,0,3.5,0,3.5l4,.2Z"/><path class="cls-17" d="M529.05,206.77l4-.2s0-3.18,0-3.5-.45-.43-.82-.43-.42-2.57-.42-2.57l-1.39,2.05.28,1.21Z"/></g><rect class="cls-17" x="528.89" y="205.4" width="4.12" height="5.07"/><g class="cls-16"><path class="cls-17" d="M533,210.47c0,.5-.92.9-2.06.9s-2.06-.4-2.06-.9.92-.9,2.06-.9,2.06.4,2.06.9"/></g><polygon class="cls-17" points="536.51 198.62 534.94 198.62 534.93 202.26 536.52 202.26 536.51 198.62"/><g class="cls-16"><path class="cls-17" d="M534.94,199.76s-.08,2.88-.45,2.88-.77.11-.82.43,0,3.5,0,3.5l4,.2Z"/><path class="cls-17" d="M533.81,206.77l4-.2s0-3.18,0-3.5-.45-.43-.82-.43-.41-2.57-.41-2.57l-1.4,2.05.28,1.21Z"/></g><rect class="cls-17" x="533.66" y="205.4" width="4.12" height="5.07"/><g class="cls-16"><path class="cls-17" d="M537.77,210.47c0,.5-.92.9-2.06.9s-2.06-.4-2.06-.9.92-.9,2.06-.9,2.06.4,2.06.9"/></g><polygon class="cls-17" points="541.38 198.62 539.81 198.62 539.8 202.26 541.39 202.26 541.38 198.62"/><g class="cls-16"><path class="cls-17" d="M539.81,199.76s-.07,2.88-.45,2.88-.77.11-.81.43,0,3.5,0,3.5l4,.2Z"/><path class="cls-17" d="M538.68,206.77l4-.2s0-3.18,0-3.5-.45-.43-.82-.43-.41-2.57-.41-2.57l-1.4,2.05.28,1.21Z"/></g><rect class="cls-17" x="538.52" y="205.4" width="4.12" height="5.07"/><g class="cls-16"><path class="cls-17" d="M542.64,210.47c0,.5-.92.9-2.06.9s-2.06-.4-2.06-.9.92-.9,2.06-.9,2.06.4,2.06.9"/><path class="cls-15" d="M456.87,170.24a2.84,2.84,0,0,1-2.85-2.82V165a2.86,2.86,0,0,1,5.71,0v2.42a2.84,2.84,0,0,1-2.86,2.82"/></g><rect class="cls-15" x="455.46" y="161.26" width="2.87" height="1.04"/><g class="cls-16"><path class="cls-15" d="M463.4,170.24a2.84,2.84,0,0,1-2.85-2.82V165a2.86,2.86,0,0,1,5.71,0v2.42a2.84,2.84,0,0,1-2.86,2.82"/></g><rect class="cls-15" x="461.99" y="161.26" width="2.87" height="1.04"/><g class="cls-16"><path class="cls-15" d="M470,170.24a2.84,2.84,0,0,1-2.86-2.82V165a2.86,2.86,0,0,1,5.71,0v2.42a2.84,2.84,0,0,1-2.85,2.82"/></g><rect class="cls-15" x="468.6" y="161.26" width="2.87" height="1.04"/><g class="cls-16"><path class="cls-15" d="M481.07,170.24a2.84,2.84,0,0,1-2.86-2.82V165a2.86,2.86,0,0,1,5.71,0v2.42a2.84,2.84,0,0,1-2.85,2.82"/></g><rect class="cls-15" x="479.65" y="161.26" width="2.87" height="1.04"/><g class="cls-16"><path class="cls-15" d="M487.6,170.24a2.83,2.83,0,0,1-2.85-2.82V165a2.85,2.85,0,0,1,5.7,0v2.42a2.83,2.83,0,0,1-2.85,2.82"/></g><rect class="cls-15" x="486.19" y="161.26" width="2.87" height="1.04"/><g class="cls-16"><path class="cls-15" d="M494.2,170.24a2.84,2.84,0,0,1-2.85-2.82V165a2.86,2.86,0,0,1,5.71,0v2.42a2.84,2.84,0,0,1-2.86,2.82"/></g><rect class="cls-15" x="492.79" y="161.26" width="2.87" height="1.04"/><g class="cls-16"><path class="cls-15" d="M504.6,170.24a2.84,2.84,0,0,1-2.86-2.82V165a2.86,2.86,0,0,1,5.71,0v2.42a2.84,2.84,0,0,1-2.85,2.82"/></g><rect class="cls-15" x="503.18" y="161.26" width="2.87" height="1.04"/><g class="cls-16"><path class="cls-15" d="M511.13,170.24a2.83,2.83,0,0,1-2.85-2.82V165a2.85,2.85,0,0,1,5.7,0v2.42a2.83,2.83,0,0,1-2.85,2.82"/></g><rect class="cls-15" x="509.72" y="161.26" width="2.87" height="1.04"/><g class="cls-16"><path class="cls-15" d="M517.74,170.24a2.84,2.84,0,0,1-2.86-2.82V165a2.86,2.86,0,0,1,5.71,0v2.42a2.84,2.84,0,0,1-2.85,2.82"/></g><rect class="cls-15" x="516.32" y="161.26" width="2.87" height="1.04"/><g class="cls-16"><path class="cls-15" d="M528.79,170.24a2.84,2.84,0,0,1-2.85-2.82V165a2.86,2.86,0,0,1,5.71,0v2.42a2.84,2.84,0,0,1-2.86,2.82"/></g><rect class="cls-15" x="527.38" y="161.26" width="2.87" height="1.04"/><g class="cls-16"><path class="cls-15" d="M535.33,170.24a2.84,2.84,0,0,1-2.86-2.82V165a2.86,2.86,0,0,1,5.71,0v2.42a2.84,2.84,0,0,1-2.85,2.82"/></g><rect class="cls-15" x="533.91" y="161.26" width="2.87" height="1.04"/><g class="cls-16"><path class="cls-15" d="M541.93,170.24a2.84,2.84,0,0,1-2.85-2.82V165a2.86,2.86,0,0,1,5.71,0v2.42a2.84,2.84,0,0,1-2.86,2.82"/></g><rect class="cls-15" x="540.52" y="161.26" width="2.87" height="1.04"/><rect class="cls-14" x="461.55" y="221.58" width="75.08" height="3.03"/><rect class="cls-17" x="474.77" y="158.99" width="1.27" height="60.41"/><rect class="cls-17" x="499.34" y="158.26" width="1.27" height="60.41"/><rect class="cls-17" x="523.9" y="158.26" width="1.27" height="60.41"/><g class="cls-16"><path class="cls-15" d="M458.73,187.76a2.1,2.1,0,0,0-2.1,2.09v6.89h4.21v-6.89a2.1,2.1,0,0,0-2.11-2.09"/></g><rect class="cls-15" x="457.97" y="186.25" width="1.52" height="1.51"/><g class="cls-16"><path class="cls-15" d="M463.49,187.76a2.1,2.1,0,0,0-2.11,2.09v6.89h4.21v-6.89a2.1,2.1,0,0,0-2.1-2.09"/></g><rect class="cls-15" x="462.72" y="186.25" width="1.52" height="1.51"/><g class="cls-16"><path class="cls-15" d="M468.45,187.76a2.1,2.1,0,0,0-2.11,2.09v6.89h4.21v-6.89a2.1,2.1,0,0,0-2.1-2.09"/></g><rect class="cls-15" x="467.68" y="186.25" width="1.52" height="1.51"/><g class="cls-16"><path class="cls-15" d="M482.7,187.76a2.11,2.11,0,0,0-2.11,2.09v6.89h4.22v-6.89a2.11,2.11,0,0,0-2.11-2.09"/></g><rect class="cls-15" x="481.94" y="186.25" width="1.53" height="1.51"/><g class="cls-16"><path class="cls-15" d="M487.45,187.76a2.11,2.11,0,0,0-2.11,2.09v6.89h4.22v-6.89a2.1,2.1,0,0,0-2.11-2.09"/></g><rect class="cls-15" x="486.69" y="186.25" width="1.52" height="1.51"/><g class="cls-16"><path class="cls-15" d="M492.41,187.76a2.1,2.1,0,0,0-2.1,2.09v6.89h4.21v-6.89a2.1,2.1,0,0,0-2.11-2.09"/></g><rect class="cls-15" x="491.65" y="186.25" width="1.52" height="1.51"/><g class="cls-16"><path class="cls-15" d="M506.3,187.76a2.1,2.1,0,0,0-2.11,2.09v6.89h4.22v-6.89a2.11,2.11,0,0,0-2.11-2.09"/></g><rect class="cls-15" x="505.54" y="186.25" width="1.52" height="1.51"/><g class="cls-16"><path class="cls-15" d="M511.05,187.76a2.11,2.11,0,0,0-2.11,2.09v6.89h4.22v-6.89a2.11,2.11,0,0,0-2.11-2.09"/></g><rect class="cls-15" x="510.29" y="186.25" width="1.52" height="1.51"/><g class="cls-16"><path class="cls-15" d="M516,187.76a2.11,2.11,0,0,0-2.11,2.09v6.89h4.22v-6.89a2.1,2.1,0,0,0-2.11-2.09"/></g><rect class="cls-15" x="515.25" y="186.25" width="1.53" height="1.51"/><g class="cls-16"><path class="cls-15" d="M530.27,187.76a2.1,2.1,0,0,0-2.11,2.09v6.89h4.21v-6.89a2.1,2.1,0,0,0-2.1-2.09"/></g><rect class="cls-15" x="529.5" y="186.25" width="1.53" height="1.51"/><g class="cls-16"><path class="cls-15" d="M535,187.76a2.1,2.1,0,0,0-2.11,2.09v6.89h4.22v-6.89a2.11,2.11,0,0,0-2.11-2.09"/></g><rect class="cls-15" x="534.26" y="186.25" width="1.52" height="1.51"/><g class="cls-16"><path class="cls-15" d="M540,187.76a2.1,2.1,0,0,0-2.11,2.09v6.89h4.22v-6.89a2.11,2.11,0,0,0-2.11-2.09"/></g><rect class="cls-15" x="539.22" y="186.25" width="1.53" height="1.51"/><g class="cls-16"><path class="cls-22" d="M474.77,159.07H452.48v10.64h2.72a2.8,2.8,0,0,1-1.18-2.29V165a2.83,2.83,0,0,1,2-2.7h-.56v-1h2.87v1h-.61a2.84,2.84,0,0,1,2,2.7v2.42a2.81,2.81,0,0,1-1.19,2.29h3.2a2.81,2.81,0,0,1-1.19-2.29V165a2.83,2.83,0,0,1,2-2.7H462v-1h2.87v1h-.61a2.83,2.83,0,0,1,2,2.7v2.42a2.81,2.81,0,0,1-1.19,2.29h3.27a2.81,2.81,0,0,1-1.19-2.29V165a2.84,2.84,0,0,1,2-2.7h-.56v-1h2.86v1h-.6a2.83,2.83,0,0,1,2,2.7v2.42a2.81,2.81,0,0,1-1.19,2.29h3.1Zm0,12.08h-5.23v1.45s0,2.57.42,2.57.77.11.82.43,0,1.38,0,2.33h0V183a.59.59,0,0,1,0,.13h4Zm-6.8,0h-3.3v1.51c0,.37.08,2.51.42,2.51s.77.11.82.43,0,1.38,0,2.33h0V183a.59.59,0,0,1,0,.13h.79a.59.59,0,0,1,0-.13v-5.07c0-1,0-2.14,0-2.33s.45-.43.82-.43.44-2.79.45-2.88Zm-4.87,0h-3.19v1.45s0,2.57.42,2.57.77.11.82.43,0,1.38,0,2.33h0V183a.59.59,0,0,1,0,.13h.68a.59.59,0,0,1,0-.13v-5.07c0-1,0-2.14,0-2.33s.45-.43.82-.43.44-2.66.45-2.87Zm-4.76,0h-5.86v12h4.59a.59.59,0,0,1,0-.13v-5.07c0-1,0-2.14,0-2.33s.45-.43.82-.43.44-2.79.44-2.88Zm16.43,13.42H452.48v12h4.14v-6.7a2.11,2.11,0,0,1,4.22,0v6.7h.54v-6.7a2.11,2.11,0,0,1,4.21,0v6.7h.75v-6.7a2.11,2.11,0,0,1,4.21,0v6.7h4.22Zm-7.09,1.68h1.53v1.51h-1.53Zm-5,0h1.53v1.51h-1.53Zm-4.75,0h1.53v1.51H458ZM474.77,198H452.48v12h4.06v-4.41c0-1,0-2.28,0-2.48s.44-.43.82-.43.44-2.65.44-2.87v-1.15h1.56v1.45s0,2.57.42,2.57.77.12.81.43,0,1.39,0,2.33h0V210h.64V205.4c0-.94,0-2.14,0-2.33s.45-.43.82-.43.44-2.88.44-2.88h0v-1.14h1.56v1.45s0,2.57.42,2.57.77.12.81.43,0,1.39,0,2.33h0V210h.75v-4.41c0-1,0-2.28,0-2.48s.45-.43.82-.43.44-2.65.44-2.87v-1.15H469v1.45s.05,2.57.42,2.57.77.12.82.43,0,1.39,0,2.33h0V210h4.48Zm0,13.42H452.49v7.27h22.28Z"/><path class="cls-23" d="M474.77,169.71h-3.1a2.79,2.79,0,0,1-1.66.53,2.84,2.84,0,0,1-1.67-.53h-3.27a2.88,2.88,0,0,1-3.33,0h-3.2a2.9,2.9,0,0,1-3.34,0h-2.72v1.44h22.29Z"/><path class="cls-23" d="M474.77,183.13h-4c-.15.44-1,.77-2,.77s-1.89-.33-2-.77h-.79c-.15.44-1,.77-2,.77s-1.89-.33-2-.77h-.68c-.15.44-1,.77-2,.77s-1.9-.33-2-.77h-4.59v1.44h22.29Z"/></g><polygon class="cls-23" points="474.77 196.55 470.56 196.55 470.56 196.74 466.34 196.74 466.34 196.55 465.59 196.55 465.59 196.74 461.38 196.74 461.38 196.55 460.84 196.55 460.84 196.74 456.63 196.74 456.63 196.55 452.49 196.55 452.49 197.98 474.77 197.98 474.77 196.55"/><g class="cls-16"><path class="cls-23" d="M474.77,210h-4.48v.51c0,.5-.93.9-2.06.9s-2.06-.4-2.06-.9V210h-.75v.51c0,.5-.92.9-2.06.9s-2.06-.4-2.06-.9V210h-.64v.51c0,.5-.93.9-2.06.9s-2.07-.4-2.07-.9a.43.43,0,0,1,0-.05V210h-4.06v1.44h22.29Z"/></g><polygon class="cls-24" points="474.93 158.99 452.06 158.99 452.06 218.67 452.49 218.67 452.49 211.4 452.49 209.97 452.49 197.98 452.49 196.55 452.49 184.57 452.49 183.13 452.49 171.15 452.49 169.71 452.49 159.07 474.77 159.07 474.77 158.99 474.93 158.99"/><polygon class="cls-24" points="459.91 171.14 458.34 171.14 458.34 171.15 458.33 172.29 458.33 172.28 458.98 173.97 459.91 172.6 459.91 171.15 459.91 171.14"/><g class="cls-16"><path class="cls-24" d="M458.33,172.29h0c0,.09-.08,2.88-.44,2.88s-.77.11-.82.43,0,1.38,0,2.33h.79l1-2.07-.29-1.21L459,174Z"/><path class="cls-24" d="M459.91,172.6h0L459,174l-.47.68.29,1.21-1,2.07h3.33c0-1,0-2.14,0-2.33s-.45-.43-.82-.43-.42-2.57-.42-2.57"/><path class="cls-24" d="M461.17,177.93h-4.12v5c.06-.47,1-.85,2.06-.85s2.06.4,2.06.9Z"/><path class="cls-24" d="M459.11,182.1c-1.1,0-2,.38-2.06.85V183a.59.59,0,0,0,0,.13c.14.44,1,.77,2,.77s1.89-.33,2-.77a.59.59,0,0,0,0-.13c0-.5-.92-.9-2.06-.9"/><path class="cls-24" d="M464.67,171.14H463.1v1.15h0l.64,1.68.93-1.37v-1.45Z"/><path class="cls-24" d="M463.1,172.29h0c0,.21-.09,2.87-.45,2.87s-.77.11-.82.43,0,1.38,0,2.33h.79l1-2.07-.28-1.21.46-.68Z"/><path class="cls-24" d="M464.67,172.6l-.93,1.37-.46.68.28,1.21-1,2.07h3.33c0-1,0-2.14,0-2.33s-.45-.43-.82-.43-.41-2.14-.42-2.52v-.05"/><path class="cls-24" d="M465.93,177.93h-4.12v5c.06-.47,1-.85,2.06-.85s2.06.4,2.06.9Z"/><path class="cls-24" d="M463.87,182.1c-1.1,0-2,.38-2.06.85V183a.59.59,0,0,0,0,.13c.15.44,1,.77,2,.77s1.89-.33,2-.77a.59.59,0,0,0,0-.13c0-.5-.92-.9-2.06-.9"/></g><polygon class="cls-24" points="469.54 171.14 467.97 171.14 467.97 171.15 467.97 172.29 467.97 172.28 468.61 173.97 469.54 172.6 469.54 171.15 469.54 171.14"/><g class="cls-16"><path class="cls-24" d="M468,172.29h0c0,.09-.08,2.88-.45,2.88s-.77.11-.82.43,0,1.38,0,2.33h.79l1-2.07-.28-1.21.46-.68Z"/><path class="cls-24" d="M469.54,172.6h0l-.93,1.37-.46.68.28,1.21-1,2.07h3.33c0-1,0-2.14,0-2.33s-.45-.43-.82-.43-.42-2.57-.42-2.57"/><path class="cls-24" d="M470.8,177.93h-4.12v5c.06-.47,1-.85,2.06-.85s2.06.4,2.06.9Z"/><path class="cls-24" d="M468.74,182.1c-1.1,0-2,.38-2.06.85V183a.59.59,0,0,0,0,.13c.15.44,1,.77,2,.77s1.89-.33,2-.77a.59.59,0,0,0,0-.13c0-.5-.92-.9-2.06-.9"/><path class="cls-24" d="M459.39,198.62h-1.56v1.15h0l.64,1.68.94-1.37Z"/><path class="cls-24" d="M457.82,199.76h0c0,.22-.09,2.87-.44,2.87s-.78.11-.82.43,0,1.52,0,2.48v-.15h.79l.95-2.07-.28-1.21.46-.68Z"/><path class="cls-24" d="M459.4,200.07h0l-.94,1.37-.46.68.28,1.21-.95,2.07h3.32c0-1,0-2.14,0-2.33s-.44-.43-.81-.43-.42-2.57-.42-2.57"/><path class="cls-24" d="M460.66,205.4h-4.12v5c.06-.48,1-.85,2.06-.85s2.06.4,2.06.9V205.4Z"/><path class="cls-24" d="M458.6,209.57c-1.1,0-2,.37-2.06.85a.43.43,0,0,0,0,.05c0,.5.93.9,2.07.9s2.06-.4,2.06-.9-.93-.9-2.06-.9"/></g><polygon class="cls-24" points="464.15 198.62 462.59 198.62 462.58 199.76 463.23 201.44 464.16 200.07 464.15 198.62"/><g class="cls-16"><path class="cls-24" d="M462.58,199.76s-.07,2.88-.44,2.88-.78.11-.82.43,0,1.38,0,2.33h.79l1-2.07-.28-1.21.47-.68-.65-1.68Z"/><path class="cls-24" d="M464.16,200.07h0l-.93,1.37-.47.68.29,1.21-1,2.07h3.32c0-1,0-2.14,0-2.33s-.44-.43-.81-.43-.42-2.57-.42-2.57"/><path class="cls-24" d="M465.42,205.4H461.3v5c.05-.47.95-.85,2.06-.85s2.06.4,2.06.9V205.4Z"/><path class="cls-24" d="M463.36,209.57c-1.11,0-2,.38-2.06.85v.05c0,.5.92.9,2.06.9s2.06-.4,2.06-.9-.92-.9-2.06-.9"/><path class="cls-24" d="M469,198.62h-1.56v1.15h0l.65,1.68.93-1.37Z"/><path class="cls-24" d="M467.45,199.76h0c0,.22-.09,2.87-.44,2.87s-.77.11-.82.43,0,1.52,0,2.48v-.15H467l1-2.07-.29-1.21.47-.68Z"/><path class="cls-24" d="M469,200.07h0l-.93,1.37-.47.68.29,1.21-1,2.07h3.33c0-1,0-2.14,0-2.33s-.44-.43-.81-.43-.42-2.57-.42-2.57"/><path class="cls-24" d="M470.29,205.4h-4.12v5c.06-.48,1-.85,2.06-.85s2.06.4,2.06.9V205.4Z"/><path class="cls-24" d="M468.23,209.57c-1.1,0-2,.37-2.06.85v.05c0,.5.92.9,2.06.9s2.06-.4,2.06-.9-.93-.9-2.06-.9"/><path class="cls-23" d="M457.72,162.3H456a2.83,2.83,0,0,0-2,2.7v2.42a2.85,2.85,0,0,0,5.7,0V165a2.83,2.83,0,0,0-2-2.7"/></g><polygon class="cls-23" points="458.33 161.26 455.46 161.26 455.46 162.3 456.02 162.3 457.72 162.3 458.33 162.3 458.33 161.26"/><g class="cls-16"><path class="cls-23" d="M464.25,162.3h-1.7a2.83,2.83,0,0,0-2,2.7v2.42a2.86,2.86,0,0,0,5.71,0V165a2.84,2.84,0,0,0-2-2.7"/></g><polygon class="cls-23" points="464.86 161.26 461.99 161.26 461.99 162.3 462.55 162.3 464.25 162.3 464.86 162.3 464.86 161.26"/><g class="cls-16"><path class="cls-23" d="M470.86,162.3h-1.7a2.84,2.84,0,0,0-2,2.7v2.42a2.81,2.81,0,0,0,1.19,2.29,2.84,2.84,0,0,0,1.67.53,2.84,2.84,0,0,0,2.85-2.82V165a2.83,2.83,0,0,0-2-2.7"/></g><polygon class="cls-23" points="471.46 161.26 468.6 161.26 468.6 162.3 469.16 162.3 470.86 162.3 471.46 162.3 471.46 161.26"/><polygon class="cls-24" points="474.77 158.99 474.77 159.07 474.77 169.71 474.77 171.15 474.77 183.13 474.77 184.56 474.77 196.55 474.77 197.98 474.77 209.96 474.77 211.4 474.77 218.66 474.93 218.66 474.93 158.99 474.77 158.99"/><g class="cls-16"><path class="cls-23" d="M458.73,187.76a2.1,2.1,0,0,0-2.1,2.09v6.89h4.21v-6.89a2.1,2.1,0,0,0-2.11-2.09"/></g><rect class="cls-23" x="457.97" y="186.25" width="1.52" height="1.51"/><g class="cls-16"><path class="cls-23" d="M463.49,187.76a2.1,2.1,0,0,0-2.11,2.09v6.89h4.21v-6.89a2.1,2.1,0,0,0-2.1-2.09"/></g><rect class="cls-23" x="462.72" y="186.25" width="1.52" height="1.51"/><g class="cls-16"><path class="cls-23" d="M468.45,187.76a2.1,2.1,0,0,0-2.11,2.09v6.89h4.21v-6.89a2.1,2.1,0,0,0-2.1-2.09"/></g><rect class="cls-23" x="467.68" y="186.25" width="1.52" height="1.51"/><g class="cls-16"><path class="cls-22" d="M499.13,159.07H476.25v10.64h3.15a2.81,2.81,0,0,1-1.19-2.29V165a2.84,2.84,0,0,1,2-2.7h-.57v-1h2.87v1h-.6a2.83,2.83,0,0,1,2,2.7v2.42a2.81,2.81,0,0,1-1.19,2.29h3.2a2.8,2.8,0,0,1-1.18-2.29V165a2.83,2.83,0,0,1,2-2.7h-.56v-1h2.87v1h-.61a2.83,2.83,0,0,1,2,2.7v2.42a2.83,2.83,0,0,1-1.18,2.29h3.27a2.81,2.81,0,0,1-1.19-2.29V165a2.83,2.83,0,0,1,2-2.7h-.56v-1h2.87v1h-.61a2.84,2.84,0,0,1,2,2.7v2.42a2.81,2.81,0,0,1-1.19,2.29h3.26Zm0,12.08H493.3v1.46c0,.18.06,2.56.42,2.56s.77.11.81.43,0,1.38,0,2.33h0V183a.59.59,0,0,1,0,.13h4.58Zm-7.4,0h-3.3v1.45s0,2.57.41,2.57.78.11.82.43,0,1.38,0,2.33h0V183a.31.31,0,0,1,0,.13h.8a.3.3,0,0,1,0-.13v-5.07c0-1,0-2.14,0-2.33s.45-.43.82-.43.44-2.66.44-2.87Zm-4.86,0h-3.2v1.46c0,.18.05,2.56.41,2.56s.78.11.82.43,0,1.38,0,2.33h0V183a.3.3,0,0,1,0,.13h.69a.3.3,0,0,1,0-.13v-5.07c0-1,0-2.14,0-2.33s.44-.43.82-.43.44-2.88.44-2.88h0Zm-4.77,0h-5.85v12h4.58a.59.59,0,0,1,0-.13.09.09,0,0,1,0-.05v-5c0-1,0-2.14,0-2.33s.44-.43.81-.43.44-2.66.45-2.87Zm17,13.42H476.25v12h4.34v-6.7a2.11,2.11,0,0,1,4.22,0v6.7h.53v-6.7a2.11,2.11,0,0,1,4.22,0v6.7h.74v-6.7a2.11,2.11,0,0,1,4.22,0v6.7h4.61Zm-7.48,1.68h1.53v1.51h-1.53Zm-5,0h1.52v1.51h-1.52Zm-4.75,0h1.52v1.51h-1.52ZM499.13,198H476.25v12h4.05V205.4c0-.94,0-2.14,0-2.33s.45-.43.82-.43.44-2.65.44-2.87v-1.15h1.57v1.48c0,.29.07,2.54.42,2.54s.77.12.82.43,0,1.39,0,2.33h0V210h.64v-4.51c0-.95,0-2.19,0-2.38s.45-.43.82-.43.45-2.78.45-2.88v-1.14h1.57v1.45h0s.05,2.57.42,2.57.77.12.82.43,0,1.39,0,2.33h0V210h.75V205.4c0-.94,0-2.14,0-2.33s.45-.43.82-.43.45-2.88.45-2.88h0v-1.14h1.57v1.45s0,2.57.41,2.57.77.12.82.43,0,1.39,0,2.33h0V210h5.08Zm0,13.42H476.25v7.27h22.88Z"/><path class="cls-23" d="M499.13,169.71h-3.26a2.88,2.88,0,0,1-3.33,0h-3.27a2.9,2.9,0,0,1-3.34,0h-3.2a2.88,2.88,0,0,1-3.33,0h-3.15v1.44h22.88Z"/><path class="cls-23" d="M499.13,183.13h-4.58c-.15.44-1,.77-2,.77s-1.9-.33-2-.77h-.8c-.14.44-1,.77-2,.77s-1.9-.33-2-.77h-.69c-.14.44-1,.77-2,.77s-1.89-.33-2-.77h-4.59v1.44h22.88Z"/></g><polygon class="cls-23" points="499.13 196.55 494.52 196.55 494.52 196.74 490.31 196.74 490.31 196.55 489.56 196.55 489.56 196.74 485.34 196.74 485.34 196.55 484.81 196.55 484.81 196.74 480.59 196.74 480.59 196.55 476.25 196.55 476.25 197.98 499.13 197.98 499.13 196.55"/><g class="cls-16"><path class="cls-23" d="M499.13,210h-5.08v.51c0,.5-.92.9-2.06.9s-2.06-.4-2.06-.9V210h-.75v.51c0,.5-.92.9-2.06.9s-2.06-.4-2.06-.9V210h-.64v.51c0,.5-.92.9-2.06.9s-2.06-.4-2.06-.9V210h-4.05v1.44h22.88Z"/></g><rect class="cls-24" x="476.25" y="158.99" width="22.88" height="0.09"/><g class="cls-16"><path class="cls-24" d="M483.67,171.14H482.1v1.15h0l.64,1.68.94-1.37h0v-1.46Z"/><path class="cls-24" d="M482.1,172.29h0c0,.21-.09,2.87-.45,2.87s-.77.11-.81.43,0,1.38,0,2.33h.79l.95-2.07-.28-1.21.46-.68Z"/><path class="cls-24" d="M483.68,172.6l-.94,1.37-.46.68.28,1.21-.95,2.07h3.32c0-1,0-2.14,0-2.33s-.45-.43-.82-.43-.41-2.38-.41-2.56h0"/><path class="cls-24" d="M484.94,177.93h-4.12v5c.05-.47.95-.85,2.05-.85s2.07.4,2.07.9Z"/><path class="cls-24" d="M482.87,182.1c-1.1,0-2,.38-2.05.85a.09.09,0,0,0,0,.05.59.59,0,0,0,0,.13c.15.44,1,.77,2,.77s1.9-.33,2-.77a.31.31,0,0,0,0-.13c0-.5-.93-.9-2.07-.9"/></g><polygon class="cls-24" points="488.43 171.14 486.87 171.14 486.87 171.15 486.86 172.29 487.5 173.97 488.44 172.6 488.43 171.15 488.43 171.14"/><g class="cls-16"><path class="cls-24" d="M486.86,172.29s-.07,2.88-.44,2.88-.78.11-.82.43,0,1.38,0,2.33h.79l.95-2.07-.28-1.21.46-.68-.64-1.68Z"/><path class="cls-24" d="M488.44,172.6h0L487.5,174l-.46.68.28,1.21-.95,2.07h3.32c0-1,0-2.14,0-2.33s-.44-.43-.82-.43-.41-2.57-.41-2.57"/><path class="cls-24" d="M489.7,177.93h-4.12v5c.05-.47.95-.85,2.05-.85s2.07.4,2.07.9Z"/><path class="cls-24" d="M487.64,182.1c-1.11,0-2,.38-2.06.85,0,0,0,0,0,.05a.31.31,0,0,0,0,.13c.14.44,1,.77,2,.77s1.89-.33,2-.77a.31.31,0,0,0,0-.13c0-.5-.93-.9-2.06-.9"/><path class="cls-24" d="M493.3,171.14h-1.56v1.15h0l.64,1.68.94-1.37h0v-1.46Z"/><path class="cls-24" d="M491.73,172.29h0c0,.21-.09,2.87-.44,2.87s-.78.11-.82.43,0,1.38,0,2.33h.79l.95-2.07-.28-1.21.46-.68Z"/><path class="cls-24" d="M493.31,172.6l-.94,1.37-.46.68.28,1.21-.95,2.07h3.32c0-1,0-2.14,0-2.33s-.44-.43-.81-.43-.42-2.38-.42-2.56h0"/><path class="cls-24" d="M494.57,177.93h-4.12v5c.05-.47.95-.85,2.05-.85s2.07.4,2.07.9Z"/><path class="cls-24" d="M492.51,182.1c-1.11,0-2,.38-2.06.85V183a.3.3,0,0,0,0,.13c.14.44,1,.77,2,.77s1.89-.33,2-.77a.59.59,0,0,0,0-.13c0-.5-.93-.9-2.06-.9"/><path class="cls-24" d="M483.16,198.62h-1.57v1.15h0l.64,1.68.93-1.37v-1.45Z"/><path class="cls-24" d="M481.59,199.76h0c0,.22-.09,2.87-.45,2.87s-.77.11-.82.43,0,1.38,0,2.33h.79l1-2.07-.29-1.21.47-.68Z"/><path class="cls-24" d="M483.16,200.07l-.93,1.37-.46.68.28,1.21-1,2.07h3.33c0-1,0-2.14,0-2.33s-.45-.43-.82-.43-.41-2.25-.42-2.54v0"/><path class="cls-24" d="M484.42,205.4H480.3v5c.06-.47,1-.85,2.06-.85s2.06.4,2.06.9V205.4Z"/><path class="cls-24" d="M482.36,209.57c-1.1,0-2,.38-2.06.85v.05c0,.5.92.9,2.06.9s2.06-.4,2.06-.9-.92-.9-2.06-.9"/></g><polygon class="cls-24" points="487.92 198.62 486.35 198.62 486.35 199.76 486.35 199.76 486.99 201.44 487.92 200.07 487.92 198.62"/><g class="cls-16"><path class="cls-24" d="M486.35,199.76h0c0,.1-.08,2.88-.45,2.88s-.77.11-.82.43,0,1.43,0,2.38v0h.79l1-2.07-.28-1.21.46-.68Z"/><path class="cls-24" d="M487.92,200.07h0l-.93,1.37-.46.68.28,1.21-1,2.07h3.33c0-1,0-2.14,0-2.33s-.45-.43-.82-.43-.42-2.57-.42-2.57"/><path class="cls-24" d="M489.18,205.4h-4.12v5c.06-.47,1-.85,2.06-.85s2.06.4,2.06.9V205.4Z"/><path class="cls-24" d="M487.12,209.57c-1.1,0-2,.38-2.06.85v.05c0,.5.92.9,2.06.9s2.06-.4,2.06-.9-.92-.9-2.06-.9"/></g><polygon class="cls-24" points="492.79 198.62 491.22 198.62 491.22 199.76 491.86 201.44 492.8 200.07 492.79 198.62"/><g class="cls-16"><path class="cls-24" d="M491.22,199.76s-.08,2.88-.45,2.88-.77.11-.82.43,0,1.38,0,2.33h.79l1-2.07-.28-1.21.46-.68-.64-1.68Z"/><path class="cls-24" d="M492.79,200.07h0l-.93,1.37-.46.68.28,1.21-1,2.07h3.33c0-1,0-2.14,0-2.33s-.45-.43-.82-.43-.42-2.57-.42-2.57"/><path class="cls-24" d="M494.05,205.4h-4.12v5c.06-.47,1-.85,2.06-.85s2.06.4,2.06.9V205.4Z"/><path class="cls-24" d="M492,209.57c-1.1,0-2,.38-2.06.85v.05c0,.5.92.9,2.06.9s2.06-.4,2.06-.9-.92-.9-2.06-.9"/><path class="cls-23" d="M481.92,162.3h-1.7a2.84,2.84,0,0,0-2,2.7v2.42a2.86,2.86,0,0,0,5.71,0V165a2.83,2.83,0,0,0-2-2.7"/></g><polygon class="cls-23" points="482.52 161.26 479.65 161.26 479.65 162.3 480.22 162.3 481.92 162.3 482.52 162.3 482.52 161.26"/><g class="cls-16"><path class="cls-23" d="M488.45,162.3h-1.7a2.83,2.83,0,0,0-2,2.7v2.42a2.8,2.8,0,0,0,1.18,2.29,2.9,2.9,0,0,0,3.34,0,2.8,2.8,0,0,0,1.18-2.29V165a2.83,2.83,0,0,0-2-2.7"/></g><polygon class="cls-23" points="489.06 161.26 486.19 161.26 486.19 162.3 486.75 162.3 488.45 162.3 489.06 162.3 489.06 161.26"/><g class="cls-16"><path class="cls-23" d="M495.05,162.3h-1.7a2.83,2.83,0,0,0-2,2.7v2.42a2.86,2.86,0,0,0,5.71,0V165a2.84,2.84,0,0,0-2-2.7"/></g><polygon class="cls-23" points="495.66 161.26 492.79 161.26 492.79 162.3 493.36 162.3 495.05 162.3 495.66 162.3 495.66 161.26"/><g class="cls-16"><path class="cls-23" d="M482.7,187.76a2.11,2.11,0,0,0-2.11,2.09v6.89h4.22v-6.89a2.11,2.11,0,0,0-2.11-2.09"/></g><rect class="cls-23" x="481.94" y="186.25" width="1.53" height="1.51"/><g class="cls-16"><path class="cls-23" d="M487.45,187.76a2.11,2.11,0,0,0-2.11,2.09v6.89h4.22v-6.89a2.1,2.1,0,0,0-2.11-2.09"/></g><rect class="cls-23" x="486.69" y="186.25" width="1.52" height="1.51"/><g class="cls-16"><path class="cls-23" d="M492.41,187.76a2.1,2.1,0,0,0-2.1,2.09v6.89h4.21v-6.89a2.1,2.1,0,0,0-2.11-2.09"/></g><rect class="cls-23" x="491.65" y="186.25" width="1.52" height="1.51"/><g class="cls-16"><path class="cls-22" d="M523.7,159.07H500.83v10.64h2.1a2.81,2.81,0,0,1-1.19-2.29V165a2.84,2.84,0,0,1,2-2.7h-.57v-1h2.87v1h-.6a2.83,2.83,0,0,1,2,2.7v2.42a2.83,2.83,0,0,1-1.18,2.29h3.19a2.8,2.8,0,0,1-1.18-2.29V165a2.83,2.83,0,0,1,2-2.7h-.56v-1h2.87v1H512a2.83,2.83,0,0,1,2,2.7v2.42a2.8,2.8,0,0,1-1.18,2.29h3.27a2.81,2.81,0,0,1-1.19-2.29V165a2.83,2.83,0,0,1,2-2.7h-.57v-1h2.87v1h-.6a2.83,2.83,0,0,1,2,2.7v2.42a2.81,2.81,0,0,1-1.19,2.29h4.3Zm0,12.08h-6.3v1.48c0,.29.07,2.54.42,2.54s.77.11.81.43,0,1.38,0,2.33h0V183a.59.59,0,0,1,0,.13h5.05Zm-7.87,0h-3.3v1.45s0,2.57.42,2.57.77.11.81.43,0,1.38,0,2.33h0V183a.31.31,0,0,1,0,.13h.8a.31.31,0,0,1,0-.13.43.43,0,0,1,0-.05v-4.87c0-1,0-2.28,0-2.48s.44-.43.82-.43.44-2.66.44-2.87Zm-4.87,0h-3.19v1.45s0,2.57.41,2.57.78.11.82.43,0,1.38,0,2.33h0V183a.3.3,0,0,1,0,.13h.69a.31.31,0,0,1,0-.13v-5.07h0c0-1,0-2.14,0-2.33s.44-.43.82-.43.43-2.66.44-2.87Zm-4.76,0h-5.37v12h4.1a.59.59,0,0,1,0-.13.07.07,0,0,1,0-.05v-4.87c0-1,0-2.28,0-2.48s.44-.43.81-.43.44-2.66.45-2.87Zm17.5,13.42H500.83v12h3.36v-6.7a2.11,2.11,0,0,1,4.22,0v6.7h.53v-6.7a2.11,2.11,0,0,1,4.22,0v6.7h.74v-6.7a2.11,2.11,0,0,1,4.22,0v6.7h5.58Zm-8.45,1.68h1.53v1.51h-1.53Zm-5,0h1.52v1.51h-1.52Zm-4.75,0h1.52v1.51h-1.52ZM523.7,198H500.83v12h4.3V205.4h0c0-.94,0-2.14,0-2.33s.45-.43.82-.43.44-2.88.44-2.88h0v-1.14H508v1.45h0s0,2.57.41,2.57.78.12.82.43,0,1.39,0,2.33h0V210h.64v-4.52c0-.95,0-2.18,0-2.37s.45-.43.82-.43.44-2.65.44-2.87v-1.15h1.57v1.48c0,.29.07,2.54.42,2.54s.77.12.81.43,0,1.39,0,2.33h0V210h.75V205.4h0c0-.94,0-2.14,0-2.33s.45-.43.82-.43.44-2.88.44-2.88h0v-1.14h1.56v1.45h0s0,2.57.42,2.57.77.12.81.43,0,1.39,0,2.33h0V210h4.82Zm0,13.42H500.83v7.27H523.7Z"/><path class="cls-23" d="M523.7,169.71h-4.3a2.88,2.88,0,0,1-3.33,0H512.8a2.9,2.9,0,0,1-3.34,0h-3.2a2.79,2.79,0,0,1-1.66.53,2.84,2.84,0,0,1-1.67-.53h-2.1v1.44H523.7Z"/><path class="cls-23" d="M523.7,183.13h-5.06c-.14.44-1,.77-2,.77s-1.9-.33-2-.77h-.8c-.14.44-1,.77-2,.77s-1.9-.33-2-.77H509c-.14.44-1,.77-2,.77s-1.89-.33-2-.77h-4.1v1.44H523.7Z"/></g><polygon class="cls-23" points="523.7 196.55 518.12 196.55 518.12 196.74 513.9 196.74 513.9 196.55 513.16 196.55 513.16 196.74 508.94 196.74 508.94 196.55 508.41 196.55 508.41 196.74 504.19 196.74 504.19 196.55 500.83 196.55 500.83 197.98 523.7 197.98 523.7 196.55"/><g class="cls-16"><path class="cls-23" d="M523.7,210h-4.82v.51c0,.5-.92.9-2.06.9s-2.06-.4-2.06-.9V210H514v.51c0,.5-.92.9-2.06.9s-2.06-.4-2.06-.9V210h-.64v.51c0,.5-.93.9-2.07.9s-2.06-.4-2.06-.9c0,0,0,0,0-.05V210h-4.3v1.44H523.7Z"/></g><rect class="cls-24" x="500.83" y="158.99" width="22.88" height="0.09"/><g class="cls-16"><path class="cls-24" d="M507.77,171.14H506.2v1.15h0l.64,1.68.94-1.37v-1.45Z"/><path class="cls-24" d="M506.2,172.29h0c0,.21-.09,2.87-.45,2.87s-.77.11-.81.43,0,1.52,0,2.48v-.15h.79l1-2.07-.28-1.21.46-.68Z"/><path class="cls-24" d="M507.78,172.6h0l-.94,1.37-.46.68.28,1.21-1,2.07H509c0-1,0-2.14,0-2.33s-.45-.43-.82-.43-.41-2.57-.41-2.57"/><path class="cls-24" d="M509,177.93h-4.11v5c.06-.48,1-.85,2.05-.85s2.06.4,2.06.9Z"/><path class="cls-24" d="M507,182.1c-1.09,0-2,.37-2.05.85a.07.07,0,0,0,0,.05.59.59,0,0,0,0,.13c.15.44,1,.77,2,.77s1.9-.33,2-.77a.3.3,0,0,0,0-.13c0-.5-.92-.9-2.06-.9"/><path class="cls-24" d="M512.53,171.14H511v1.15h0l.64,1.68.94-1.37v-1.45Z"/><path class="cls-24" d="M511,172.29h0c0,.21-.09,2.87-.44,2.87s-.78.11-.82.43,0,1.38,0,2.33h.79l.95-2.07-.28-1.21.46-.68Z"/><path class="cls-24" d="M512.54,172.6h0L511.6,174l-.46.68.28,1.21-.95,2.07h3.32c0-1,0-2.14,0-2.33s-.44-.43-.81-.43-.42-2.57-.42-2.57"/><path class="cls-24" d="M513.8,177.93h-4.12v5c0-.48.95-.86,2.06-.86s2.06.4,2.06.9Z"/><path class="cls-24" d="M511.74,182.1c-1.11,0-2,.38-2.06.86v0a.31.31,0,0,0,0,.13c.14.44,1,.77,2,.77s1.89-.33,2-.77a.31.31,0,0,0,0-.13c0-.5-.93-.9-2.06-.9"/><path class="cls-24" d="M517.4,171.14h-1.57v1.15h0l.64,1.68.94-1.37v-1.45Z"/><path class="cls-24" d="M515.83,172.29h0c0,.21-.09,2.87-.44,2.87s-.78.11-.82.43,0,1.52,0,2.48v-.15h.79l.95-2.07-.28-1.21.46-.68Z"/><path class="cls-24" d="M517.41,172.6l-.94,1.37-.46.68.28,1.21-.95,2.07h3.32c0-1,0-2.14,0-2.33s-.44-.43-.81-.43-.41-2.25-.42-2.54v0"/><path class="cls-24" d="M518.67,177.93h-4.12v5c.06-.48,1-.85,2.06-.85s2.06.4,2.06.9Z"/><path class="cls-24" d="M516.61,182.1c-1.1,0-2,.37-2.06.85a.43.43,0,0,0,0,.05.31.31,0,0,0,0,.13c.14.44,1,.77,2,.77s1.89-.33,2-.77a.31.31,0,0,0,0-.13c0-.5-.93-.9-2.06-.9"/></g><polygon class="cls-24" points="507.98 198.62 506.42 198.62 506.41 199.76 507.05 201.44 507.99 200.07 507.98 198.62"/><g class="cls-16"><path class="cls-24" d="M506.41,199.76s-.07,2.88-.44,2.88-.78.11-.82.43,0,1.38,0,2.33h.79l.95-2.07-.28-1.21.46-.68-.64-1.68Z"/><path class="cls-24" d="M508,200.07h0l-.94,1.37-.46.68.28,1.21-.95,2.07h3.32c0-1,0-2.14,0-2.33s-.44-.43-.81-.43-.42-2.57-.42-2.57"/><path class="cls-24" d="M509.25,205.4h-4.12v5c.05-.47.95-.85,2.05-.85s2.07.4,2.07.9V205.4Z"/><path class="cls-24" d="M507.19,209.57c-1.11,0-2,.38-2.06.85v.05c0,.5.92.9,2.06.9s2.06-.4,2.06-.9-.93-.9-2.06-.9"/><path class="cls-24" d="M512.75,198.62h-1.57v1.15h0l.65,1.68.93-1.37v-1.45Z"/><path class="cls-24" d="M511.17,199.76h0c0,.22-.09,2.87-.44,2.87s-.78.11-.82.43,0,1.42,0,2.37v0h.79l.95-2.07-.28-1.21.47-.68Z"/><path class="cls-24" d="M512.75,200.07l-.93,1.37-.47.68.28,1.21-.95,2.07H514c0-1,0-2.14,0-2.33s-.44-.43-.81-.43-.41-2.25-.42-2.54v0"/><path class="cls-24" d="M514,205.4h-4.12v5c.05-.47.95-.85,2.06-.85s2.06.4,2.06.9V205.4Z"/><path class="cls-24" d="M512,209.57c-1.11,0-2,.38-2.06.85v.05c0,.5.92.9,2.06.9s2.06-.4,2.06-.9-.92-.9-2.06-.9"/></g><polygon class="cls-24" points="517.62 198.62 516.05 198.62 516.04 199.76 516.69 201.44 517.62 200.07 517.62 198.62"/><g class="cls-16"><path class="cls-24" d="M516,199.76s-.07,2.88-.44,2.88-.78.11-.82.43,0,1.38,0,2.33h.79l1-2.07-.29-1.21.47-.68-.65-1.68Z"/><path class="cls-24" d="M517.62,200.07h0l-.93,1.37-.47.68.29,1.21-1,2.07h3.33c0-1,0-2.14,0-2.33s-.44-.43-.81-.43-.42-2.57-.42-2.57"/><path class="cls-24" d="M518.88,205.4h-4.12v5c0-.47,1-.85,2.06-.85s2.06.4,2.06.9V205.4Z"/><path class="cls-24" d="M516.82,209.57c-1.11,0-2,.38-2.06.85v.05c0,.5.92.9,2.06.9s2.06-.4,2.06-.9-.92-.9-2.06-.9"/><path class="cls-23" d="M505.45,162.3h-1.7a2.84,2.84,0,0,0-2,2.7v2.42a2.81,2.81,0,0,0,1.19,2.29,2.84,2.84,0,0,0,1.67.53,2.84,2.84,0,0,0,2.85-2.82V165a2.83,2.83,0,0,0-2-2.7"/></g><polygon class="cls-23" points="506.05 161.26 503.19 161.26 503.19 162.3 503.75 162.3 505.45 162.3 506.05 162.3 506.05 161.26"/><g class="cls-16"><path class="cls-23" d="M512,162.3h-1.7a2.83,2.83,0,0,0-2,2.7v2.42a2.8,2.8,0,0,0,1.18,2.29,2.9,2.9,0,0,0,3.34,0,2.8,2.8,0,0,0,1.18-2.29V165a2.83,2.83,0,0,0-2-2.7"/></g><polygon class="cls-23" points="512.59 161.26 509.72 161.26 509.72 162.3 510.28 162.3 511.98 162.3 512.59 162.3 512.59 161.26"/><g class="cls-16"><path class="cls-23" d="M518.59,162.3h-1.7a2.83,2.83,0,0,0-2,2.7v2.42a2.86,2.86,0,0,0,5.71,0V165a2.83,2.83,0,0,0-2-2.7"/></g><polygon class="cls-23" points="519.19 161.26 516.32 161.26 516.32 162.3 516.88 162.3 518.59 162.3 519.19 162.3 519.19 161.26"/><g class="cls-16"><path class="cls-23" d="M506.3,187.76a2.1,2.1,0,0,0-2.11,2.09v6.89h4.22v-6.89a2.11,2.11,0,0,0-2.11-2.09"/></g><rect class="cls-23" x="505.54" y="186.25" width="1.52" height="1.51"/><g class="cls-16"><path class="cls-23" d="M511.05,187.76a2.11,2.11,0,0,0-2.11,2.09v6.89h4.22v-6.89a2.11,2.11,0,0,0-2.11-2.09"/></g><rect class="cls-23" x="510.29" y="186.25" width="1.52" height="1.51"/><g class="cls-16"><path class="cls-23" d="M516,187.76a2.11,2.11,0,0,0-2.11,2.09v6.89h4.22v-6.89a2.1,2.1,0,0,0-2.11-2.09"/></g><rect class="cls-23" x="515.25" y="186.25" width="1.53" height="1.51"/><g class="cls-16"><path class="cls-22" d="M545.7,159.07H525.27v10.64h1.86a2.81,2.81,0,0,1-1.19-2.29V165a2.83,2.83,0,0,1,2-2.7h-.56v-1h2.87v1h-.6a2.84,2.84,0,0,1,2,2.7v2.42a2.81,2.81,0,0,1-1.19,2.29h3.2a2.81,2.81,0,0,1-1.19-2.29V165a2.84,2.84,0,0,1,2-2.7h-.57v-1h2.87v1h-.6a2.83,2.83,0,0,1,2,2.7v2.42a2.81,2.81,0,0,1-1.19,2.29h3.28a2.81,2.81,0,0,1-1.19-2.29V165a2.83,2.83,0,0,1,2-2.7h-.56v-1h2.87v1h-.61a2.84,2.84,0,0,1,2,2.7v2.42a2.81,2.81,0,0,1-1.19,2.29h2.1Zm0,12.08h-4.53v1.45s.05,2.57.42,2.57.77.11.82.43,0,1.38,0,2.33h0V183a.59.59,0,0,1,0,.13h3.29Zm-6.1,0h-3.3v1.48c0,.29.07,2.54.42,2.54s.77.11.82.43,0,1.38,0,2.33h0V183a.59.59,0,0,1,0,.13h.79a.59.59,0,0,1,0-.13v-5.07c0-1,0-2.14,0-2.33s.45-.43.82-.43.45-2.88.45-2.88h0Zm-4.87,0h-3.19v1.45s.05,2.57.42,2.57.77.11.82.43,0,1.38,0,2.33h0V183a.59.59,0,0,1,0,.13h.68a.59.59,0,0,1,0-.13v-5c0-.95,0-2.19,0-2.38s.45-.43.82-.43.44-2.79.45-2.88Zm-4.76,0h-4.7v12h3.43a.3.3,0,0,1,0-.13v-5.07h0c0-1,0-2.14,0-2.33s.45-.43.82-.43.44-2.88.44-2.88h0Zm15.73,13.42H525.27v12h2.89v-6.7a2.11,2.11,0,0,1,4.21,0v6.7h.54v-6.7a2.11,2.11,0,0,1,4.21,0v6.7h.75v-6.7a2.11,2.11,0,0,1,4.22,0v6.7h3.61Zm-6.48,1.68h1.52v1.51h-1.52Zm-5,0h1.52v1.51h-1.52Zm-4.76,0H531v1.51H529.5ZM545.7,198H525.27v12h3.62v-4.51c0-.95,0-2.19,0-2.38s.45-.43.82-.43.45-2.88.45-2.88h0v-1.14h1.57v1.45s0,2.57.42,2.57.77.12.82.43,0,1.39,0,2.33h0V210h.65v-4.51c0-.95,0-2.19,0-2.38s.45-.43.82-.43.45-2.88.45-2.88h0v-1.14h1.57v1.46c0,.18.05,2.56.41,2.56s.78.12.82.43,0,1.39,0,2.33h0V210h.76v-4.51c0-.95,0-2.19,0-2.38s.45-.43.82-.43.45-2.78.45-2.88v-1.14h1.57v1.45s0,2.57.41,2.57.78.12.82.43,0,1.39,0,2.33h0V210h3.06Zm0,13.42H525.27v7.27H545.7Z"/><path class="cls-23" d="M545.7,169.71h-2.1a2.9,2.9,0,0,1-3.34,0H537a2.88,2.88,0,0,1-3.33,0h-3.2a2.88,2.88,0,0,1-3.33,0h-1.86v1.44H545.7Z"/><path class="cls-23" d="M545.7,183.13h-3.29c-.15.44-1,.77-2,.77s-1.89-.33-2-.77h-.79c-.15.44-1,.77-2,.77s-1.89-.33-2-.77h-.68c-.15.44-1,.77-2,.77s-1.9-.33-2-.77h-3.43v1.44H545.7Z"/></g><polygon class="cls-23" points="545.7 196.55 542.09 196.55 542.09 196.74 537.87 196.74 537.87 196.55 537.13 196.55 537.13 196.74 532.91 196.74 532.91 196.55 532.37 196.55 532.37 196.74 528.16 196.74 528.16 196.55 525.27 196.55 525.27 197.98 545.7 197.98 545.7 196.55"/><g class="cls-16"><path class="cls-23" d="M545.7,210h-3.06v.51c0,.5-.92.9-2.06.9s-2.06-.4-2.06-.9V210h-.75v.51c0,.5-.92.9-2.06.9s-2.06-.4-2.06-.9V210H533v.51c0,.5-.92.9-2.06.9s-2.06-.4-2.06-.9V210h-3.62v1.44H545.7Z"/></g><polygon class="cls-24" points="545.72 158.99 525.27 158.99 525.27 159.07 545.7 159.07 545.7 169.71 545.7 171.15 545.7 183.13 545.7 184.57 545.7 196.55 545.7 197.98 545.7 209.97 545.7 211.4 545.7 218.67 545.72 218.67 545.72 158.99"/><polygon class="cls-24" points="531.54 171.14 529.97 171.14 529.97 171.15 529.97 172.29 530.61 173.97 531.54 172.6 531.54 171.15 531.54 171.14"/><g class="cls-16"><path class="cls-24" d="M530,172.29s-.07,2.88-.44,2.88-.78.11-.82.43,0,1.38,0,2.33h.79l1-2.07-.29-1.21.47-.68-.65-1.68Z"/><path class="cls-24" d="M531.54,172.6h0l-.93,1.37-.47.68.29,1.21-1,2.07h3.33c0-1,0-2.14,0-2.33s-.45-.43-.82-.43-.42-2.57-.42-2.57"/><path class="cls-24" d="M532.8,177.93h-4.12v5c.05-.47,1-.85,2.06-.85s2.06.4,2.06.9Z"/><path class="cls-24" d="M530.74,182.1c-1.1,0-2,.38-2.06.85V183a.59.59,0,0,0,0,.13c.14.44,1,.77,2,.77s1.89-.33,2-.77a.59.59,0,0,0,0-.13c0-.5-.92-.9-2.06-.9"/><path class="cls-24" d="M536.3,171.14h-1.57v1.14h0l.64,1.68.93-1.37v-1.45Z"/><path class="cls-24" d="M534.73,172.29h0c0,.09-.08,2.88-.45,2.88s-.77.11-.82.43,0,1.43,0,2.38v0h.79l1-2.07-.28-1.21.46-.68Z"/><path class="cls-24" d="M536.3,172.6l-.93,1.37-.46.68.28,1.21-1,2.07h3.33c0-1,0-2.14,0-2.33s-.45-.43-.82-.43-.41-2.25-.42-2.54v0"/><path class="cls-24" d="M537.56,177.93h-4.12v5c.06-.48,1-.85,2.06-.85s2.06.4,2.06.9Z"/><path class="cls-24" d="M535.5,182.1c-1.1,0-2,.37-2.06.85V183a.59.59,0,0,0,0,.13c.15.44,1,.77,2,.77s1.89-.33,2-.77a.59.59,0,0,0,0-.13c0-.5-.92-.9-2.06-.9"/></g><polygon class="cls-24" points="541.17 171.14 539.6 171.14 539.6 171.15 539.6 172.29 540.24 173.97 541.17 172.6 541.17 171.15 541.17 171.14"/><g class="cls-16"><path class="cls-24" d="M539.6,172.29s-.08,2.88-.45,2.88-.77.11-.82.43,0,1.38,0,2.33h.79l1-2.07-.28-1.21.46-.68-.64-1.68Z"/><path class="cls-24" d="M541.17,172.6h0l-.93,1.37-.46.68.28,1.21-1,2.07h3.33c0-1,0-2.14,0-2.33s-.45-.43-.82-.43-.42-2.57-.42-2.57"/><path class="cls-24" d="M542.43,177.93h-4.12v5c.06-.47,1-.85,2.06-.85s2.06.4,2.06.9Z"/><path class="cls-24" d="M540.37,182.1c-1.1,0-2,.38-2.06.85V183a.59.59,0,0,0,0,.13c.15.44,1,.77,2,.77s1.89-.33,2-.77a.59.59,0,0,0,0-.13c0-.5-.92-.9-2.06-.9"/></g><polygon class="cls-24" points="531.75 198.62 530.18 198.62 530.18 199.76 530.82 201.44 531.75 200.07 531.75 198.62"/><g class="cls-16"><path class="cls-24" d="M530.18,199.76s-.08,2.88-.45,2.88-.77.11-.82.43,0,1.43,0,2.38v0h.79l1-2.07-.28-1.21.46-.68-.64-1.68Z"/><path class="cls-24" d="M531.75,200.07h0l-.93,1.37-.46.68.28,1.21-1,2.07H533c0-1,0-2.14,0-2.33s-.45-.43-.82-.43-.42-2.57-.42-2.57"/><path class="cls-24" d="M533,205.4h-4.12v5c.06-.47,1-.85,2.06-.85s2.06.4,2.06.9V205.4Z"/><path class="cls-24" d="M531,209.57c-1.1,0-2,.38-2.06.85v.05c0,.5.92.9,2.06.9s2.06-.4,2.06-.9-.92-.9-2.06-.9"/></g><polygon class="cls-24" points="536.51 198.62 534.94 198.62 534.94 199.76 535.58 201.44 536.51 200.07 536.51 200.08 536.51 198.62"/><g class="cls-16"><path class="cls-24" d="M534.94,199.76s-.08,2.88-.45,2.88-.77.11-.82.43,0,1.43,0,2.38v0h.79l1-2.07-.28-1.21.46-.68-.64-1.68Z"/><path class="cls-24" d="M536.52,200.07l-.94,1.37-.46.68.28,1.21-1,2.07h3.33c0-1,0-2.14,0-2.33s-.45-.43-.82-.43-.41-2.38-.41-2.56h0"/><path class="cls-24" d="M537.77,205.4h-4.12v5c.07-.48,1-.85,2.06-.85s2.06.4,2.06.9V205.4Z"/><path class="cls-24" d="M535.71,209.57c-1.1,0-2,.37-2.06.85v.05c0,.5.92.9,2.06.9s2.06-.4,2.06-.9-.92-.9-2.06-.9"/></g><polygon class="cls-24" points="541.38 198.62 539.81 198.62 539.81 199.76 539.81 199.76 540.45 201.44 541.38 200.07 541.38 198.62"/><g class="cls-16"><path class="cls-24" d="M539.81,199.76h0c0,.1-.08,2.88-.45,2.88s-.77.11-.81.43,0,1.43,0,2.38v0h.78l1-2.07-.28-1.21.46-.68Z"/><path class="cls-24" d="M541.39,200.07h0l-.94,1.37-.46.68.28,1.21-1,2.07h3.33c0-1,0-2.14,0-2.33s-.45-.43-.82-.43-.41-2.57-.41-2.57"/><path class="cls-24" d="M542.64,205.4h-4.12v5c.06-.47,1-.85,2.06-.85s2.06.4,2.06.9V205.4Z"/><path class="cls-24" d="M540.58,209.57c-1.1,0-2,.38-2.06.85v.05c0,.5.92.9,2.06.9s2.06-.4,2.06-.9-.92-.9-2.06-.9"/><path class="cls-23" d="M529.64,162.3h-1.7a2.83,2.83,0,0,0-2,2.7v2.42a2.86,2.86,0,0,0,5.71,0V165a2.83,2.83,0,0,0-2-2.7"/></g><polygon class="cls-23" points="530.25 161.26 527.38 161.26 527.38 162.3 527.94 162.3 529.64 162.3 530.25 162.3 530.25 161.26"/><g class="cls-16"><path class="cls-23" d="M536.18,162.3h-1.7a2.84,2.84,0,0,0-2,2.7v2.42a2.81,2.81,0,0,0,1.19,2.29,2.84,2.84,0,0,0,1.67.53,2.84,2.84,0,0,0,2.85-2.82V165a2.83,2.83,0,0,0-2-2.7"/></g><polygon class="cls-23" points="536.78 161.26 533.91 161.26 533.91 162.3 534.48 162.3 536.18 162.3 536.78 162.3 536.78 161.26"/><g class="cls-16"><path class="cls-23" d="M542.78,162.3h-1.7a2.83,2.83,0,0,0-2,2.7v2.42a2.84,2.84,0,0,0,2.85,2.82,2.84,2.84,0,0,0,1.67-.53,2.81,2.81,0,0,0,1.19-2.29V165a2.84,2.84,0,0,0-2-2.7"/></g><polygon class="cls-23" points="543.39 161.26 540.52 161.26 540.52 162.3 541.08 162.3 542.78 162.3 543.39 162.3 543.39 161.26"/><g class="cls-16"><path class="cls-23" d="M530.27,187.76a2.1,2.1,0,0,0-2.11,2.09v6.89h4.21v-6.89a2.1,2.1,0,0,0-2.1-2.09"/></g><rect class="cls-23" x="529.5" y="186.25" width="1.53" height="1.51"/><g class="cls-16"><path class="cls-23" d="M535,187.76a2.1,2.1,0,0,0-2.11,2.09v6.89h4.22v-6.89a2.11,2.11,0,0,0-2.11-2.09"/></g><rect class="cls-23" x="534.26" y="186.25" width="1.52" height="1.51"/><g class="cls-16"><path class="cls-23" d="M540,187.76a2.1,2.1,0,0,0-2.11,2.09v6.89h4.22v-6.89a2.11,2.11,0,0,0-2.11-2.09"/></g><rect class="cls-23" x="539.22" y="186.25" width="1.53" height="1.51"/><polyline class="cls-12" points="153.15 108.97 191.55 108.97 191.55 134.37 505.22 134.37"/><polyline class="cls-13" points="152.02 115.66 183.58 115.66 183.58 141.06 496.47 141.06"/><line class="cls-12" x1="198.15" y1="134.87" x2="198.15" y2="149.4"/><line class="cls-12" x1="346.37" y1="134.29" x2="346.37" y2="148.82"/><line class="cls-12" x1="504.99" y1="133.8" x2="504.99" y2="149.4"/><line class="cls-13" x1="189.75" y1="141.56" x2="189.75" y2="149.4"/><line class="cls-13" x1="337.97" y1="140.98" x2="337.97" y2="148.82"/><line class="cls-13" x1="496.59" y1="140.53" x2="496.59" y2="149.4"/></svg>